  0
SECTION
  2
HEADER
  9
$ACADVER
  1
AC1021
  9
$ACADMAINTVER
 70
    25
  9
$DWGCODEPAGE
  3
ANSI_1251
  9
$INSBASE
 10
0.0
 20
0.0
 30
0.0
  9
$EXTMIN
 10
1.000000000000000E+20
 20
1.000000000000000E+20
 30
1.000000000000000E+20
  9
$EXTMAX
 10
-1.000000000000000E+20
 20
-1.000000000000000E+20
 30
-1.000000000000000E+20
  9
$LIMMIN
 10
0.0
 20
0.0
  9
$LIMMAX
 10
420.0
 20
297.0
  9
$ORTHOMODE
 70
     0
  9
$REGENMODE
 70
     1
  9
$FILLMODE
 70
     1
  9
$QTEXTMODE
 70
     0
  9
$MIRRTEXT
 70
     1
  9
$LTSCALE
 40
1.0
  9
$ATTMODE
 70
     1
  9
$TEXTSIZE
 40
2.5
  9
$TRACEWID
 40
1.0
  9
$TEXTSTYLE
  7
Standard
  9
$CLAYER
  8
0
  9
$CELTYPE
  6
ByLayer
  9
$CECOLOR
 62
   256
  9
$CELTSCALE
 40
1.0
  9
$DISPSILH
 70
     0
  9
$DIMSCALE
 40
1.0
  9
$DIMASZ
 40
2.5
  9
$DIMEXO
 40
0.625
  9
$DIMDLI
 40
3.75
  9
$DIMRND
 40
0.0
  9
$DIMDLE
 40
0.0
  9
$DIMEXE
 40
1.25
  9
$DIMTP
 40
0.0
  9
$DIMTM
 40
0.0
  9
$DIMTXT
 40
2.5
  9
$DIMCEN
 40
2.5
  9
$DIMTSZ
 40
0.0
  9
$DIMTOL
 70
     0
  9
$DIMLIM
 70
     0
  9
$DIMTIH
 70
     0
  9
$DIMTOH
 70
     0
  9
$DIMSE1
 70
     0
  9
$DIMSE2
 70
     0
  9
$DIMTAD
 70
     1
  9
$DIMZIN
 70
     8
  9
$DIMBLK
  1

  9
$DIMASO
 70
     1
  9
$DIMSHO
 70
     1
  9
$DIMPOST
  1

  9
$DIMAPOST
  1

  9
$DIMALT
 70
     0
  9
$DIMALTD
 70
     3
  9
$DIMALTF
 40
0.03937007874016
  9
$DIMLFAC
 40
1.0
  9
$DIMTOFL
 70
     1
  9
$DIMTVP
 40
0.0
  9
$DIMTIX
 70
     0
  9
$DIMSOXD
 70
     0
  9
$DIMSAH
 70
     0
  9
$DIMBLK1
  1

  9
$DIMBLK2
  1

  9
$DIMSTYLE
  2
ISO-25
  9
$DIMCLRD
 70
     0
  9
$DIMCLRE
 70
     0
  9
$DIMCLRT
 70
     0
  9
$DIMTFAC
 40
1.0
  9
$DIMGAP
 40
0.625
  9
$DIMJUST
 70
     0
  9
$DIMSD1
 70
     0
  9
$DIMSD2
 70
     0
  9
$DIMTOLJ
 70
     0
  9
$DIMTZIN
 70
     8
  9
$DIMALTZ
 70
     0
  9
$DIMALTTZ
 70
     0
  9
$DIMUPT
 70
     0
  9
$DIMDEC
 70
     2
  9
$DIMTDEC
 70
     2
  9
$DIMALTU
 70
     2
  9
$DIMALTTD
 70
     3
  9
$DIMTXSTY
  7
Standard
  9
$DIMAUNIT
 70
     0
  9
$DIMADEC
 70
     0
  9
$DIMALTRND
 40
0.0
  9
$DIMAZIN
 70
     0
  9
$DIMDSEP
 70
    44
  9
$DIMATFIT
 70
     3
  9
$DIMFRAC
 70
     0
  9
$DIMLDRBLK
  1

  9
$DIMLUNIT
 70
     2
  9
$DIMLWD
 70
    -2
  9
$DIMLWE
 70
    -2
  9
$DIMTMOVE
 70
     0
  9
$DIMFXL
 40
1.0
  9
$DIMFXLON
 70
     0
  9
$DIMJOGANG
 40
0.7853981633974483
  9
$DIMTFILL
 70
     0
  9
$DIMTFILLCLR
 70
     0
  9
$DIMARCSYM
 70
     0
  9
$DIMLTYPE
  6

  9
$DIMLTEX1
  6

  9
$DIMLTEX2
  6

  9
$LUNITS
 70
     2
  9
$LUPREC
 70
     4
  9
$SKETCHINC
 40
1.0
  9
$FILLETRAD
 40
10.0
  9
$AUNITS
 70
     0
  9
$AUPREC
 70
     0
  9
$MENU
  1
.
  9
$ELEVATION
 40
0.0
  9
$PELEVATION
 40
0.0
  9
$THICKNESS
 40
0.0
  9
$LIMCHECK
 70
     0
  9
$CHAMFERA
 40
10.0
  9
$CHAMFERB
 40
10.0
  9
$CHAMFERC
 40
20.0
  9
$CHAMFERD
 40
0.0
  9
$SKPOLY
 70
     0
  9
$TDCREATE
 40
2459893.550472511
  9
$TDUCREATE
 40
2459893.425472511
  9
$TDUPDATE
 40
2459893.550473692
  9
$TDUUPDATE
 40
2459893.425473692
  9
$TDINDWG
 40
0.0000000116
  9
$TDUSRTIMER
 40
0.0000000116
  9
$USRTIMER
 70
     1
  9
$ANGBASE
 50
0.0
  9
$ANGDIR
 70
     0
  9
$PDMODE
 70
     0
  9
$PDSIZE
 40
0.0
  9
$PLINEWID
 40
0.0
  9
$SPLFRAME
 70
     0
  9
$SPLINETYPE
 70
     6
  9
$SPLINESEGS
 70
     8
  9
$HANDSEED
  5
266
  9
$SURFTAB1
 70
     6
  9
$SURFTAB2
 70
     6
  9
$SURFTYPE
 70
     6
  9
$SURFU
 70
     6
  9
$SURFV
 70
     6
  9
$UCSBASE
  2

  9
$UCSNAME
  2

  9
$UCSORG
 10
0.0
 20
0.0
 30
0.0
  9
$UCSXDIR
 10
1.0
 20
0.0
 30
0.0
  9
$UCSYDIR
 10
0.0
 20
1.0
 30
0.0
  9
$UCSORTHOREF
  2

  9
$UCSORTHOVIEW
 70
     0
  9
$UCSORGTOP
 10
0.0
 20
0.0
 30
0.0
  9
$UCSORGBOTTOM
 10
0.0
 20
0.0
 30
0.0
  9
$UCSORGLEFT
 10
0.0
 20
0.0
 30
0.0
  9
$UCSORGRIGHT
 10
0.0
 20
0.0
 30
0.0
  9
$UCSORGFRONT
 10
0.0
 20
0.0
 30
0.0
  9
$UCSORGBACK
 10
0.0
 20
0.0
 30
0.0
  9
$PUCSBASE
  2

  9
$PUCSNAME
  2

  9
$PUCSORG
 10
0.0
 20
0.0
 30
0.0
  9
$PUCSXDIR
 10
1.0
 20
0.0
 30
0.0
  9
$PUCSYDIR
 10
0.0
 20
1.0
 30
0.0
  9
$PUCSORTHOREF
  2

  9
$PUCSORTHOVIEW
 70
     0
  9
$PUCSORGTOP
 10
0.0
 20
0.0
 30
0.0
  9
$PUCSORGBOTTOM
 10
0.0
 20
0.0
 30
0.0
  9
$PUCSORGLEFT
 10
0.0
 20
0.0
 30
0.0
  9
$PUCSORGRIGHT
 10
0.0
 20
0.0
 30
0.0
  9
$PUCSORGFRONT
 10
0.0
 20
0.0
 30
0.0
  9
$PUCSORGBACK
 10
0.0
 20
0.0
 30
0.0
  9
$USERI1
 70
     0
  9
$USERI2
 70
     0
  9
$USERI3
 70
     0
  9
$USERI4
 70
     0
  9
$USERI5
 70
     0
  9
$USERR1
 40
0.0
  9
$USERR2
 40
0.0
  9
$USERR3
 40
0.0
  9
$USERR4
 40
0.0
  9
$USERR5
 40
0.0
  9
$WORLDVIEW
 70
     1
  9
$SHADEDGE
 70
     3
  9
$SHADEDIF
 70
    70
  9
$TILEMODE
 70
     1
  9
$MAXACTVP
 70
    64
  9
$PINSBASE
 10
0.0
 20
0.0
 30
0.0
  9
$PLIMCHECK
 70
     0
  9
$PEXTMIN
 10
1.000000000000000E+20
 20
1.000000000000000E+20
 30
1.000000000000000E+20
  9
$PEXTMAX
 10
-1.000000000000000E+20
 20
-1.000000000000000E+20
 30
-1.000000000000000E+20
  9
$PLIMMIN
 10
0.0
 20
0.0
  9
$PLIMMAX
 10
420.0
 20
297.0
  9
$UNITMODE
 70
     0
  9
$VISRETAIN
 70
     1
  9
$PLINEGEN
 70
     0
  9
$PSLTSCALE
 70
     1
  9
$TREEDEPTH
 70
  3020
  9
$CMLSTYLE
  2
Standard
  9
$CMLJUST
 70
     0
  9
$CMLSCALE
 40
20.0
  9
$PROXYGRAPHICS
 70
     1
  9
$MEASUREMENT
 70
     1
  9
$CELWEIGHT
370
    -1
  9
$ENDCAPS
280
     0
  9
$JOINSTYLE
280
     0
  9
$LWDISPLAY
290
     0
  9
$INSUNITS
 70
     4
  9
$HYPERLINKBASE
  1

  9
$STYLESHEET
  1

  9
$XEDIT
290
     1
  9
$CEPSNTYPE
380
     0
  9
$PSTYLEMODE
290
     1
  9
$FINGERPRINTGUID
  2
{C21C5CDD-6F6B-4554-B795-6A8DC8978771}
  9
$VERSIONGUID
  2
{FAEB1C32-E019-11D5-929B-00C0DF256EC4}
  9
$EXTNAMES
290
     1
  9
$PSVPSCALE
 40
0.0
  9
$OLESTARTUP
290
     0
  9
$SORTENTS
280
   127
  9
$INDEXCTL
280
     0
  9
$HIDETEXT
280
     1
  9
$XCLIPFRAME
290
     0
  9
$HALOGAP
280
     0
  9
$OBSCOLOR
 70
   257
  9
$OBSLTYPE
280
     0
  9
$INTERSECTIONDISPLAY
280
     0
  9
$INTERSECTIONCOLOR
 70
   257
  9
$DIMASSOC
280
     2
  9
$PROJECTNAME
  1

  9
$CAMERADISPLAY
290
     0
  9
$LENSLENGTH
 40
50.0
  9
$CAMERAHEIGHT
 40
0.0
  9
$STEPSPERSEC
 40
2.0
  9
$STEPSIZE
 40
6.0
  9
$3DDWFPREC
 40
2.0
  9
$PSOLWIDTH
 40
5.0
  9
$PSOLHEIGHT
 40
80.0
  9
$LOFTANG1
 40
1.570796326794897
  9
$LOFTANG2
 40
1.570796326794897
  9
$LOFTMAG1
 40
0.0
  9
$LOFTMAG2
 40
0.0
  9
$LOFTPARAM
 70
     7
  9
$LOFTNORMALS
280
     1
  9
$LATITUDE
 40
37.795
  9
$LONGITUDE
 40
-122.394
  9
$NORTHDIRECTION
 40
0.0
  9
$TIMEZONE
 70
 -8000
  9
$LIGHTGLYPHDISPLAY
280
     1
  9
$TILEMODELIGHTSYNCH
280
     1
  9
$SOLIDHIST
280
     1
  9
$SHOWHIST
280
     1
  9
$DWFFRAME
280
     2
  9
$DGNFRAME
280
     2
  9
$REALWORLDSCALE
290
     1
  9
$INTERFERECOLOR
 62
   256
  9
$CSHADOW
280
     0
  9
$SHADOWPLANELOCATION
 40
0.0
  0
ENDSEC
  0
SECTION
  2
CLASSES
  0
CLASS
  1
ACDBDICTIONARYWDFLT
  2
AcDbDictionaryWithDefault
  3
ObjectDBX Classes
 90
        0
 91
        4
280
     0
281
     0
  0
CLASS
  1
VISUALSTYLE
  2
AcDbVisualStyle
  3
ObjectDBX Classes
 90
     4095
 91
        4
280
     0
281
     0
  0
CLASS
  1
MATERIAL
  2
AcDbMaterial
  3
ObjectDBX Classes
 90
     1153
 91
        4
280
     0
281
     0
  0
CLASS
  1
SCALE
  2
AcDbScale
  3
ObjectDBX Classes
 90
     1153
 91
        4
280
     0
281
     0
  0
CLASS
  1
DICTIONARYVAR
  2
AcDbDictionaryVar
  3
ObjectDBX Classes
 90
        0
 91
        4
280
     0
281
     0
  0
ENDSEC
  0
SECTION
  2
TABLES
  0
TABLE
  2
VPORT
  5
8
330
0
100
AcDbSymbolTable
 70
     1
  0
VPORT
  5
29
330
8
100
AcDbSymbolTableRecord
100
AcDbViewportTableRecord
  2
*Active
 70
     0
 10
0.0
 20
0.0
 11
1.0
 21
1.0
 12
21.36653878601516
 22
58.79887860623194
 13
0.0
 23
0.0
 14
10.0
 24
10.0
 15
10.0
 25
10.0
 16
0.0
 26
0.0
 36
1.0
 17
0.0
 27
0.0
 37
0.0
 40
759.8573700323554
 41
0.9510763635946249
 42
50.0
 43
0.0
 44
0.0
 50
0.0
 51
0.0
 71
     0
 72
   100
 73
     1
 74
     3
 75
     0
 76
     0
 77
     0
 78
     0
281
     0
 65
     1
110
0.0
120
0.0
130
0.0
111
1.0
121
0.0
131
0.0
112
0.0
122
1.0
132
0.0
 79
     0
146
0.0
 60
     3
 61
     5
292
     1
282
     1
141
0.0
142
0.0
 63
   250
  0
ENDTAB
  0
TABLE
  2
LTYPE
  5
5
330
0
100
AcDbSymbolTable
 70
     3
  0
LTYPE
  5
14
330
5
100
AcDbSymbolTableRecord
100
AcDbLinetypeTableRecord
  2
ByBlock
 70
     0
  3

 72
    65
 73
     0
 40
0.0
  0
LTYPE
  5
15
330
5
100
AcDbSymbolTableRecord
100
AcDbLinetypeTableRecord
  2
ByLayer
 70
     0
  3

 72
    65
 73
     0
 40
0.0
  0
LTYPE
  5
16
330
5
100
AcDbSymbolTableRecord
100
AcDbLinetypeTableRecord
  2
Continuous
 70
     0
  3
Solid line
 72
    65
 73
     0
 40
0.0
  0
LTYPE
  5
42
330
5
100
AcDbSymbolTableRecord
100
AcDbLinetypeTableRecord
  2
K5LT_THIN
 70
     0
  3

 72
    65
 73
     0
 40
0.0
  0
LTYPE
  5
A6
330
5
100
AcDbSymbolTableRecord
100
AcDbLinetypeTableRecord
  2
K5LT_BASIC
 70
     0
  3

 72
    65
 73
     0
 40
0.0
  0
ENDTAB
  0
TABLE
  2
LAYER
  5
2
330
0
100
AcDbSymbolTable
 70
     2
  0
LAYER
  5
10
330
2
100
AcDbSymbolTableRecord
100
AcDbLayerTableRecord
  2
0
 70
     0
 62
     7
  6
Continuous
370
    -3
390
F
347
3E
  0
LAYER
  5
40
330
2
100
AcDbSymbolTableRecord
100
AcDbLayerTableRecord
  2
Системный слой
 70
     0
 62
     7
  6
Continuous
370
    -3
390
F
347
3E
  0
ENDTAB
  0
TABLE
  2
STYLE
  5
3
330
0
100
AcDbSymbolTable
 70
     1
  0
STYLE
  5
11
330
3
100
AcDbSymbolTableRecord
100
AcDbTextStyleTableRecord
  2
Standard
 70
     0
 40
0.0
 41
1.0
 50
0.0
 71
     0
 42
2.5
  3
txt
  4

  0
ENDTAB
  0
TABLE
  2
VIEW
  5
6
330
0
100
AcDbSymbolTable
 70
     0
  0
ENDTAB
  0
TABLE
  2
UCS
  5
7
330
0
100
AcDbSymbolTable
 70
     0
  0
ENDTAB
  0
TABLE
  2
APPID
  5
9
330
0
100
AcDbSymbolTable
 70
     2
  0
APPID
  5
12
330
9
100
AcDbSymbolTableRecord
100
AcDbRegAppTableRecord
  2
ACAD
 70
     0
  0
APPID
  5
3F
330
9
100
AcDbSymbolTableRecord
100
AcDbRegAppTableRecord
  2
KOMPAS
 70
     0
  0
ENDTAB
  0
TABLE
  2
DIMSTYLE
  5
A
330
0
100
AcDbSymbolTable
 70
     1
100
AcDbDimStyleTable
  0
DIMSTYLE
105
27
330
A
100
AcDbSymbolTableRecord
100
AcDbDimStyleTableRecord
  2
ISO-25
 70
     0
 41
2.5
 42
0.625
 43
3.75
 44
1.25
 73
     0
 74
     0
 77
     1
 78
     8
140
2.5
141
2.5
143
0.03937007874016
147
0.625
171
     3
172
     1
178
     0
271
     2
272
     2
274
     3
278
    44
283
     0
284
     8
340
11
  0
ENDTAB
  0
TABLE
  2
BLOCK_RECORD
  5
1
330
0
100
AcDbSymbolTable
 70
    16
  0
BLOCK_RECORD
  5
1F
330
1
100
AcDbSymbolTableRecord
100
AcDbBlockTableRecord
  2
*Model_Space
340
22
 70
     0
280
     1
281
     0
  0
BLOCK_RECORD
  5
1B
330
1
100
AcDbSymbolTableRecord
100
AcDbBlockTableRecord
  2
*Paper_Space
340
1E
 70
     0
280
     1
281
     0
  0
BLOCK_RECORD
  5
23
330
1
100
AcDbSymbolTableRecord
100
AcDbBlockTableRecord
  2
*Paper_Space0
340
26
 70
     0
280
     1
281
     0
  0
BLOCK_RECORD
  5
41
330
1
100
AcDbSymbolTableRecord
100
AcDbBlockTableRecord
  2
KDIMARROW_00
340
0
 70
     0
280
     1
281
     0
  0
BLOCK_RECORD
  5
46
330
1
100
AcDbSymbolTableRecord
100
AcDbBlockTableRecord
  2
KDIMARROW_01
340
0
 70
     0
280
     1
281
     0
  0
BLOCK_RECORD
  5
4F
330
1
100
AcDbSymbolTableRecord
100
AcDbBlockTableRecord
  2
KDIMARROW_02
340
0
 70
     0
280
     1
281
     0
  0
BLOCK_RECORD
  5
59
330
1
100
AcDbSymbolTableRecord
100
AcDbBlockTableRecord
  2
KDIMARROW_03
340
0
 70
     0
280
     1
281
     0
  0
BLOCK_RECORD
  5
5F
330
1
100
AcDbSymbolTableRecord
100
AcDbBlockTableRecord
  2
KDIMARROW_04
340
0
 70
     0
280
     1
281
     0
  0
BLOCK_RECORD
  5
65
330
1
100
AcDbSymbolTableRecord
100
AcDbBlockTableRecord
  2
KDIMARROW_05
340
0
 70
     0
280
     1
281
     0
  0
BLOCK_RECORD
  5
6E
330
1
100
AcDbSymbolTableRecord
100
AcDbBlockTableRecord
  2
KDIMARROW_06
340
0
 70
     0
280
     1
281
     0
  0
BLOCK_RECORD
  5
78
330
1
100
AcDbSymbolTableRecord
100
AcDbBlockTableRecord
  2
KDIMARROW_07
340
0
 70
     0
280
     1
281
     0
  0
BLOCK_RECORD
  5
7E
330
1
100
AcDbSymbolTableRecord
100
AcDbBlockTableRecord
  2
KDIMARROW_08
340
0
 70
     0
280
     1
281
     0
  0
BLOCK_RECORD
  5
85
330
1
100
AcDbSymbolTableRecord
100
AcDbBlockTableRecord
  2
KDIMARROW_09
340
0
 70
     0
280
     1
281
     0
  0
BLOCK_RECORD
  5
8B
330
1
100
AcDbSymbolTableRecord
100
AcDbBlockTableRecord
  2
KDIMARROW_10
340
0
 70
     0
280
     1
281
     0
  0
BLOCK_RECORD
  5
92
330
1
100
AcDbSymbolTableRecord
100
AcDbBlockTableRecord
  2
KDIMARROW_11
340
0
 70
     0
280
     1
281
     0
  0
BLOCK_RECORD
  5
98
330
1
100
AcDbSymbolTableRecord
100
AcDbBlockTableRecord
  2
KDIMARROW_12
340
0
 70
     0
280
     1
281
     0
  0
BLOCK_RECORD
  5
9E
330
1
100
AcDbSymbolTableRecord
100
AcDbBlockTableRecord
  2
KDIMARROW_13
340
0
 70
     0
280
     1
281
     0
  0
BLOCK_RECORD
  5
A4
330
1
100
AcDbSymbolTableRecord
100
AcDbBlockTableRecord
  2
U0
340
0
102
{BLKREFS
331
A5
102
}
 70
     0
280
     1
281
     0
  0
ENDTAB
  0
ENDSEC
  0
SECTION
  2
BLOCKS
  0
BLOCK
  5
20
330
1F
100
AcDbEntity
  8
0
100
AcDbBlockBegin
  2
*Model_Space
 70
     0
 10
0.0
 20
0.0
 30
0.0
  3
*Model_Space
  1

  0
ENDBLK
  5
21
330
1F
100
AcDbEntity
  8
0
100
AcDbBlockEnd
  0
BLOCK
  5
1C
330
1B
100
AcDbEntity
 67
     1
  8
0
100
AcDbBlockBegin
  2
*Paper_Space
 70
     0
 10
0.0
 20
0.0
 30
0.0
  3
*Paper_Space
  1

  0
ENDBLK
  5
1D
330
1B
100
AcDbEntity
 67
     1
  8
0
100
AcDbBlockEnd
  0
BLOCK
  5
24
330
23
100
AcDbEntity
  8
0
100
AcDbBlockBegin
  2
*Paper_Space0
 70
     0
 10
0.0
 20
0.0
 30
0.0
  3
*Paper_Space0
  1

  0
ENDBLK
  5
25
330
23
100
AcDbEntity
  8
0
100
AcDbBlockEnd
  0
BLOCK
  5
44
330
41
100
AcDbEntity
  8
0
100
AcDbBlockBegin
  2
KDIMARROW_00
 70
     0
 10
0.0
 20
0.0
 30
0.0
  3
KDIMARROW_00
  1

  0
LINE
  5
43
330
41
100
AcDbEntity
  8
Системный слой
  6
K5LT_THIN
 62
     0
370
    18
100
AcDbLine
 10
0.0
 20
0.0
 30
0.0
 11
-1.0
 21
0.0
 31
0.0
  0
ENDBLK
  5
45
330
41
100
AcDbEntity
  8
0
100
AcDbBlockEnd
  0
BLOCK
  5
4D
330
46
100
AcDbEntity
  8
0
100
AcDbBlockBegin
  2
KDIMARROW_01
 70
     0
 10
0.0
 20
0.0
 30
0.0
  3
KDIMARROW_01
  1

  0
LINE
  5
47
330
46
100
AcDbEntity
  8
Системный слой
  6
K5LT_THIN
 62
     0
370
    18
100
AcDbLine
 10
0.0
 20
0.0
 30
0.0
 11
-5.0
 21
-0.6582624912261956
 31
0.0
  0
LINE
  5
48
330
46
100
AcDbEntity
  8
Системный слой
  6
K5LT_THIN
 62
     0
370
    18
100
AcDbLine
 10
-5.0
 20
-0.6582624912261956
 30
0.0
 11
-4.5
 21
0.0000000000000006
 31
0.0
  0
LINE
  5
49
330
46
100
AcDbEntity
  8
Системный слой
  6
K5LT_THIN
 62
     0
370
    18
100
AcDbLine
 10
-4.5
 20
0.0000000000000006
 30
0.0
 11
-5.0
 21
0.658262491226197
 31
0.0
  0
LINE
  5
4A
330
46
100
AcDbEntity
  8
Системный слой
  6
K5LT_THIN
 62
     0
370
    18
100
AcDbLine
 10
-5.0
 20
0.658262491226197
 30
0.0
 11
0.0
 21
0.0
 31
0.0
  0
HATCH
  5
4B
330
46
100
AcDbEntity
  8
Системный слой
 62
     0
100
AcDbHatch
 10
0.0
 20
0.0
 30
0.0
210
0.0
220
0.0
230
1.0
  2
SOLID
 70
     1
 71
     0
 91
        1
 92
        1
 93
        4
 72
     1
 10
0.0
 20
0.0
 11
-5.0
 21
0.658262491226197
 72
     1
 10
-5.0
 20
0.658262491226197
 11
-4.5
 21
0.0000000000000006
 72
     1
 10
-4.5
 20
0.0000000000000006
 11
-5.0
 21
-0.6582624912261956
 72
     1
 10
-5.0
 20
-0.6582624912261956
 11
0.0
 21
0.0
 97
        0
 75
     0
 76
     1
 98
        0
  0
LINE
  5
4C
330
46
100
AcDbEntity
  8
Системный слой
  6
K5LT_THIN
 62
     0
370
    18
100
AcDbLine
 10
0.0
 20
0.0
 30
0.0
 11
-1.0
 21
0.0
 31
0.0
  0
ENDBLK
  5
4E
330
46
100
AcDbEntity
  8
0
100
AcDbBlockEnd
  0
BLOCK
  5
57
330
4F
100
AcDbEntity
  8
0
100
AcDbBlockBegin
  2
KDIMARROW_02
 70
     0
 10
0.0
 20
0.0
 30
0.0
  3
KDIMARROW_02
  1

  0
LINE
  5
50
330
4F
100
AcDbEntity
  8
Системный слой
  6
K5LT_THIN
 62
     0
370
    18
100
AcDbLine
 10
0.0
 20
0.0
 30
0.0
 11
5.0
 21
-0.658262491226197
 31
0.0
  0
LINE
  5
51
330
4F
100
AcDbEntity
  8
Системный слой
  6
K5LT_THIN
 62
     0
370
    18
100
AcDbLine
 10
5.0
 20
-0.658262491226197
 30
0.0
 11
4.5
 21
-0.0000000000000006
 31
0.0
  0
LINE
  5
52
330
4F
100
AcDbEntity
  8
Системный слой
  6
K5LT_THIN
 62
     0
370
    18
100
AcDbLine
 10
4.5
 20
-0.0000000000000006
 30
0.0
 11
5.0
 21
0.6582624912261956
 31
0.0
  0
LINE
  5
53
330
4F
100
AcDbEntity
  8
Системный слой
  6
K5LT_THIN
 62
     0
370
    18
100
AcDbLine
 10
5.0
 20
0.6582624912261956
 30
0.0
 11
0.0
 21
0.0
 31
0.0
  0
LINE
  5
54
330
4F
100
AcDbEntity
  8
Системный слой
  6
K5LT_THIN
 62
     0
370
    18
100
AcDbLine
 10
0.0
 20
0.0
 30
0.0
 11
7.0
 21
-0.0000000000000009
 31
0.0
  0
HATCH
  5
55
330
4F
100
AcDbEntity
  8
Системный слой
 62
     0
100
AcDbHatch
 10
0.0
 20
0.0
 30
0.0
210
0.0
220
0.0
230
1.0
  2
SOLID
 70
     1
 71
     0
 91
        1
 92
        1
 93
        4
 72
     1
 10
4.5
 20
-0.0000000000000006
 11
5.0
 21
0.6582624912261956
 72
     1
 10
5.0
 20
0.6582624912261956
 11
0.0
 21
0.0
 72
     1
 10
0.0
 20
0.0
 11
5.0
 21
-0.658262491226197
 72
     1
 10
5.0
 20
-0.658262491226197
 11
4.5
 21
-0.0000000000000006
 97
        0
 75
     0
 76
     1
 98
        0
  0
LINE
  5
56
330
4F
100
AcDbEntity
  8
Системный слой
  6
K5LT_THIN
 62
     0
370
    18
100
AcDbLine
 10
0.0
 20
0.0
 30
0.0
 11
-1.0
 21
0.0
 31
0.0
  0
ENDBLK
  5
58
330
4F
100
AcDbEntity
  8
0
100
AcDbBlockEnd
  0
BLOCK
  5
5D
330
59
100
AcDbEntity
  8
0
100
AcDbBlockBegin
  2
KDIMARROW_03
 70
     0
 10
0.0
 20
0.0
 30
0.0
  3
KDIMARROW_03
  1

  0
LINE
  5
5A
330
59
100
AcDbEntity
  8
Системный слой
  6
K5LT_THIN
 62
     0
370
    18
100
AcDbLine
 10
-1.060500025749207
 20
-1.060500025749206
 30
0.0
 11
1.060500025749207
 21
1.060500025749206
 31
0.0
  0
LINE
  5
5B
330
59
100
AcDbEntity
  8
Системный слой
  6
K5LT_THIN
 62
     0
370
    18
100
AcDbLine
 10
0.0
 20
0.0
 30
0.0
 11
2.0
 21
-0.0000000000000002
 31
0.0
  0
LINE
  5
5C
330
59
100
AcDbEntity
  8
Системный слой
  6
K5LT_THIN
 62
     0
370
    18
100
AcDbLine
 10
0.0
 20
0.0
 30
0.0
 11
-1.0
 21
0.0
 31
0.0
  0
ENDBLK
  5
5E
330
59
100
AcDbEntity
  8
0
100
AcDbBlockEnd
  0
BLOCK
  5
63
330
5F
100
AcDbEntity
  8
0
100
AcDbBlockBegin
  2
KDIMARROW_04
 70
     0
 10
0.0
 20
0.0
 30
0.0
  3
KDIMARROW_04
  1

  0
LWPOLYLINE
  5
60
330
5F
100
AcDbEntity
  8
Системный слой
  6
K5LT_THIN
 62
     7
100
AcDbPolyline
 90
       15
 70
     0
 43
0.18
 10
-0.25
 20
0.0
 10
0.0
 20
-0.25
 10
0.25
 20
0.0
 10
0.0
 20
0.25
 10
-0.25
 20
0.0
 10
-0.5
 20
0.0000000000000001
 10
-0.0000000000000001
 20
-0.5
 10
0.5
 20
-0.0000000000000001
 10
0.0000000000000001
 20
0.5
 10
-0.5
 20
0.0000000000000001
 10
-0.75
 20
0.0000000000000001
 10
-0.0000000000000001
 20
-0.75
 10
0.75
 20
-0.0000000000000001
 10
0.0000000000000001
 20
0.75
 10
-0.75
 20
0.0000000000000001
  0
LWPOLYLINE
  5
61
330
5F
100
AcDbEntity
  8
Системный слой
  6
K5LT_THIN
 62
     7
100
AcDbPolyline
 90
       15
 70
     0
 43
0.18
 10
-0.25
 20
0.0
 10
0.0
 20
-0.25
 10
0.25
 20
0.0
 10
0.0
 20
0.25
 10
-0.25
 20
0.0
 10
-0.5
 20
0.0000000000000001
 10
-0.0000000000000001
 20
-0.5
 10
0.5
 20
-0.0000000000000001
 10
0.0000000000000001
 20
0.5
 10
-0.5
 20
0.0000000000000001
 10
-0.75
 20
0.0000000000000001
 10
-0.0000000000000001
 20
-0.75
 10
0.75
 20
-0.0000000000000001
 10
0.0000000000000001
 20
0.75
 10
-0.75
 20
0.0000000000000001
  0
LINE
  5
62
330
5F
100
AcDbEntity
  8
Системный слой
  6
K5LT_THIN
 62
     0
370
    18
100
AcDbLine
 10
0.0
 20
0.0
 30
0.0
 11
-1.0
 21
0.0
 31
0.0
  0
ENDBLK
  5
64
330
5F
100
AcDbEntity
  8
0
100
AcDbBlockEnd
  0
BLOCK
  5
6C
330
65
100
AcDbEntity
  8
0
100
AcDbBlockBegin
  2
KDIMARROW_05
 70
     0
 10
0.0
 20
0.0
 30
0.0
  3
KDIMARROW_05
  1

  0
LINE
  5
66
330
65
100
AcDbEntity
  8
Системный слой
  6
K5LT_THIN
 62
     0
370
    18
100
AcDbLine
 10
0.0
 20
0.0
 30
0.0
 11
-5.0
 21
-0.6582624912261956
 31
0.0
  0
LINE
  5
67
330
65
100
AcDbEntity
  8
Системный слой
  6
K5LT_THIN
 62
     0
370
    18
100
AcDbLine
 10
-5.0
 20
-0.6582624912261956
 30
0.0
 11
-5.0
 21
0.0000000000000006
 31
0.0
  0
LINE
  5
68
330
65
100
AcDbEntity
  8
Системный слой
  6
K5LT_THIN
 62
     0
370
    18
100
AcDbLine
 10
-5.0
 20
0.0000000000000006
 30
0.0
 11
-5.0
 21
0.658262491226197
 31
0.0
  0
LINE
  5
69
330
65
100
AcDbEntity
  8
Системный слой
  6
K5LT_THIN
 62
     0
370
    18
100
AcDbLine
 10
-5.0
 20
0.658262491226197
 30
0.0
 11
0.0
 21
0.0
 31
0.0
  0
HATCH
  5
6A
330
65
100
AcDbEntity
  8
Системный слой
 62
     0
100
AcDbHatch
 10
0.0
 20
0.0
 30
0.0
210
0.0
220
0.0
230
1.0
  2
SOLID
 70
     1
 71
     0
 91
        1
 92
        1
 93
        4
 72
     1
 10
0.0
 20
0.0
 11
-5.0
 21
0.658262491226197
 72
     1
 10
-5.0
 20
0.658262491226197
 11
-5.0
 21
0.0000000000000007
 72
     1
 10
-5.0
 20
0.0000000000000006
 11
-5.0
 21
-0.6582624912261956
 72
     1
 10
-5.0
 20
-0.6582624912261956
 11
0.0
 21
0.0
 97
        0
 75
     0
 76
     1
 98
        0
  0
LINE
  5
6B
330
65
100
AcDbEntity
  8
Системный слой
  6
K5LT_THIN
 62
     0
370
    18
100
AcDbLine
 10
0.0
 20
0.0
 30
0.0
 11
-1.0
 21
0.0
 31
0.0
  0
ENDBLK
  5
6D
330
65
100
AcDbEntity
  8
0
100
AcDbBlockEnd
  0
BLOCK
  5
76
330
6E
100
AcDbEntity
  8
0
100
AcDbBlockBegin
  2
KDIMARROW_06
 70
     0
 10
0.0
 20
0.0
 30
0.0
  3
KDIMARROW_06
  1

  0
LINE
  5
6F
330
6E
100
AcDbEntity
  8
Системный слой
  6
K5LT_THIN
 62
     0
370
    18
100
AcDbLine
 10
0.0
 20
0.0
 30
0.0
 11
5.0
 21
-0.658262491226197
 31
0.0
  0
LINE
  5
70
330
6E
100
AcDbEntity
  8
Системный слой
  6
K5LT_THIN
 62
     0
370
    18
100
AcDbLine
 10
5.0
 20
-0.658262491226197
 30
0.0
 11
5.0
 21
-0.0000000000000006
 31
0.0
  0
LINE
  5
71
330
6E
100
AcDbEntity
  8
Системный слой
  6
K5LT_THIN
 62
     0
370
    18
100
AcDbLine
 10
5.0
 20
-0.0000000000000006
 30
0.0
 11
5.0
 21
0.6582624912261956
 31
0.0
  0
LINE
  5
72
330
6E
100
AcDbEntity
  8
Системный слой
  6
K5LT_THIN
 62
     0
370
    18
100
AcDbLine
 10
5.0
 20
0.6582624912261956
 30
0.0
 11
0.0
 21
0.0
 31
0.0
  0
LINE
  5
73
330
6E
100
AcDbEntity
  8
Системный слой
  6
K5LT_THIN
 62
     0
370
    18
100
AcDbLine
 10
0.0
 20
0.0
 30
0.0
 11
7.0
 21
-0.0000000000000009
 31
0.0
  0
HATCH
  5
74
330
6E
100
AcDbEntity
  8
Системный слой
 62
     0
100
AcDbHatch
 10
0.0
 20
0.0
 30
0.0
210
0.0
220
0.0
230
1.0
  2
SOLID
 70
     1
 71
     0
 91
        1
 92
        1
 93
        4
 72
     1
 10
5.0
 20
-0.0000000000000006
 11
5.0
 21
0.6582624912261956
 72
     1
 10
5.0
 20
0.6582624912261956
 11
0.0
 21
0.0
 72
     1
 10
0.0
 20
0.0
 11
5.0
 21
-0.658262491226197
 72
     1
 10
5.0
 20
-0.658262491226197
 11
5.0
 21
-0.0000000000000007
 97
        0
 75
     0
 76
     1
 98
        0
  0
LINE
  5
75
330
6E
100
AcDbEntity
  8
Системный слой
  6
K5LT_THIN
 62
     0
370
    18
100
AcDbLine
 10
0.0
 20
0.0
 30
0.0
 11
-1.0
 21
0.0
 31
0.0
  0
ENDBLK
  5
77
330
6E
100
AcDbEntity
  8
0
100
AcDbBlockEnd
  0
BLOCK
  5
7C
330
78
100
AcDbEntity
  8
0
100
AcDbBlockBegin
  2
KDIMARROW_07
 70
     0
 10
0.0
 20
0.0
 30
0.0
  3
KDIMARROW_07
  1

  0
LINE
  5
79
330
78
100
AcDbEntity
  8
Системный слой
  6
K5LT_THIN
 62
     0
370
    18
100
AcDbLine
 10
0.0
 20
0.0
 30
0.0
 11
-5.0
 21
-0.6582624912261956
 31
0.0
  0
LINE
  5
7A
330
78
100
AcDbEntity
  8
Системный слой
  6
K5LT_THIN
 62
     0
370
    18
100
AcDbLine
 10
0.0
 20
0.0
 30
0.0
 11
-5.0
 21
0.658262491226197
 31
0.0
  0
LINE
  5
7B
330
78
100
AcDbEntity
  8
Системный слой
  6
K5LT_THIN
 62
     0
370
    18
100
AcDbLine
 10
0.0
 20
0.0
 30
0.0
 11
-1.0
 21
0.0
 31
0.0
  0
ENDBLK
  5
7D
330
78
100
AcDbEntity
  8
0
100
AcDbBlockEnd
  0
BLOCK
  5
83
330
7E
100
AcDbEntity
  8
0
100
AcDbBlockBegin
  2
KDIMARROW_08
 70
     0
 10
0.0
 20
0.0
 30
0.0
  3
KDIMARROW_08
  1

  0
LINE
  5
7F
330
7E
100
AcDbEntity
  8
Системный слой
  6
K5LT_THIN
 62
     0
370
    18
100
AcDbLine
 10
0.0
 20
0.0
 30
0.0
 11
5.0
 21
-0.658262491226197
 31
0.0
  0
LINE
  5
80
330
7E
100
AcDbEntity
  8
Системный слой
  6
K5LT_THIN
 62
     0
370
    18
100
AcDbLine
 10
0.0
 20
0.0
 30
0.0
 11
5.0
 21
0.6582624912261956
 31
0.0
  0
LINE
  5
81
330
7E
100
AcDbEntity
  8
Системный слой
  6
K5LT_THIN
 62
     0
370
    18
100
AcDbLine
 10
0.0
 20
0.0
 30
0.0
 11
7.0
 21
-0.0000000000000009
 31
0.0
  0
LINE
  5
82
330
7E
100
AcDbEntity
  8
Системный слой
  6
K5LT_THIN
 62
     0
370
    18
100
AcDbLine
 10
0.0
 20
0.0
 30
0.0
 11
-1.0
 21
0.0
 31
0.0
  0
ENDBLK
  5
84
330
7E
100
AcDbEntity
  8
0
100
AcDbBlockEnd
  0
BLOCK
  5
89
330
85
100
AcDbEntity
  8
0
100
AcDbBlockBegin
  2
KDIMARROW_09
 70
     0
 10
0.0
 20
0.0
 30
0.0
  3
KDIMARROW_09
  1

  0
LINE
  5
86
330
85
100
AcDbEntity
  8
Системный слой
  6
K5LT_THIN
 62
     0
370
    18
100
AcDbLine
 10
0.0
 20
0.0
 30
0.0
 11
-2.0
 21
-2.0
 31
0.0
  0
LINE
  5
87
330
85
100
AcDbEntity
  8
Системный слой
  6
K5LT_THIN
 62
     0
370
    18
100
AcDbLine
 10
0.0
 20
0.0
 30
0.0
 11
-2.0
 21
2.0
 31
0.0
  0
LINE
  5
88
330
85
100
AcDbEntity
  8
Системный слой
  6
K5LT_THIN
 62
     0
370
    18
100
AcDbLine
 10
0.0
 20
0.0
 30
0.0
 11
-1.0
 21
0.0
 31
0.0
  0
ENDBLK
  5
8A
330
85
100
AcDbEntity
  8
0
100
AcDbBlockEnd
  0
BLOCK
  5
90
330
8B
100
AcDbEntity
  8
0
100
AcDbBlockBegin
  2
KDIMARROW_10
 70
     0
 10
0.0
 20
0.0
 30
0.0
  3
KDIMARROW_10
  1

  0
LINE
  5
8C
330
8B
100
AcDbEntity
  8
Системный слой
  6
K5LT_THIN
 62
     0
370
    18
100
AcDbLine
 10
0.0
 20
0.0
 30
0.0
 11
2.0
 21
-2.0
 31
0.0
  0
LINE
  5
8D
330
8B
100
AcDbEntity
  8
Системный слой
  6
K5LT_THIN
 62
     0
370
    18
100
AcDbLine
 10
0.0
 20
0.0
 30
0.0
 11
2.0
 21
2.0
 31
0.0
  0
LINE
  5
8E
330
8B
100
AcDbEntity
  8
Системный слой
  6
K5LT_THIN
 62
     0
370
    18
100
AcDbLine
 10
0.0
 20
0.0
 30
0.0
 11
4.0
 21
-0.0000000000000005
 31
0.0
  0
LINE
  5
8F
330
8B
100
AcDbEntity
  8
Системный слой
  6
K5LT_THIN
 62
     0
370
    18
100
AcDbLine
 10
0.0
 20
0.0
 30
0.0
 11
-1.0
 21
0.0
 31
0.0
  0
ENDBLK
  5
91
330
8B
100
AcDbEntity
  8
0
100
AcDbBlockEnd
  0
BLOCK
  5
96
330
92
100
AcDbEntity
  8
0
100
AcDbBlockBegin
  2
KDIMARROW_11
 70
     0
 10
0.0
 20
0.0
 30
0.0
  3
KDIMARROW_11
  1

  0
CIRCLE
  5
93
330
92
100
AcDbEntity
  8
Системный слой
  6
K5LT_THIN
 62
     0
370
    18
100
AcDbCircle
 10
0.0
 20
0.0
 30
0.0
 40
2.5
  0
CIRCLE
  5
94
330
92
100
AcDbEntity
  8
Системный слой
  6
K5LT_THIN
 62
     0
370
    18
100
AcDbCircle
 10
0.0
 20
0.0
 30
0.0
 40
2.5
  0
LINE
  5
95
330
92
100
AcDbEntity
  8
Системный слой
  6
K5LT_THIN
 62
     0
370
    18
100
AcDbLine
 10
0.0
 20
0.0
 30
0.0
 11
-1.0
 21
0.0
 31
0.0
  0
ENDBLK
  5
97
330
92
100
AcDbEntity
  8
0
100
AcDbBlockEnd
  0
BLOCK
  5
9C
330
98
100
AcDbEntity
  8
0
100
AcDbBlockBegin
  2
KDIMARROW_12
 70
     0
 10
0.0
 20
0.0
 30
0.0
  3
KDIMARROW_12
  1

  0
CIRCLE
  5
99
330
98
100
AcDbEntity
  8
Системный слой
  6
K5LT_THIN
 62
     0
370
    18
100
AcDbCircle
 10
0.0
 20
0.0
 30
0.0
 40
1.5
  0
CIRCLE
  5
9A
330
98
100
AcDbEntity
  8
Системный слой
  6
K5LT_THIN
 62
     0
370
    18
100
AcDbCircle
 10
0.0
 20
0.0
 30
0.0
 40
1.5
  0
LINE
  5
9B
330
98
100
AcDbEntity
  8
Системный слой
  6
K5LT_THIN
 62
     0
370
    18
100
AcDbLine
 10
0.0
 20
0.0
 30
0.0
 11
-1.0
 21
0.0
 31
0.0
  0
ENDBLK
  5
9D
330
98
100
AcDbEntity
  8
0
100
AcDbBlockEnd
  0
BLOCK
  5
A2
330
9E
100
AcDbEntity
  8
0
100
AcDbBlockBegin
  2
KDIMARROW_13
 70
     0
 10
0.0
 20
0.0
 30
0.0
  3
KDIMARROW_13
  1

  0
LINE
  5
9F
330
9E
100
AcDbEntity
  8
Системный слой
  6
K5LT_THIN
 62
     0
370
    18
100
AcDbLine
 10
-1.060500025749206
 20
1.060500025749207
 30
0.0
 11
1.060500025749206
 21
-1.060500025749207
 31
0.0
  0
LINE
  5
A0
330
9E
100
AcDbEntity
  8
Системный слой
  6
K5LT_THIN
 62
     0
370
    18
100
AcDbLine
 10
0.0
 20
0.0
 30
0.0
 11
2.0
 21
-0.0000000000000002
 31
0.0
  0
LINE
  5
A1
330
9E
100
AcDbEntity
  8
Системный слой
  6
K5LT_THIN
 62
     0
370
    18
100
AcDbLine
 10
0.0
 20
0.0
 30
0.0
 11
-1.0
 21
0.0
 31
0.0
  0
ENDBLK
  5
A3
330
9E
100
AcDbEntity
  8
0
100
AcDbBlockEnd
  0
BLOCK
  5
21E
330
A4
100
AcDbEntity
  8
0
100
AcDbBlockBegin
  2
U0
 70
     0
 10
0.0
 20
0.0
 30
0.0
  3
U0
  1

  0
LINE
  5
A7
330
A4
100
AcDbEntity
  8
Системный слой
  6
K5LT_BASIC
 62
     5
420
      255
370
    60
100
AcDbLine
 10
-61.71540628072171
 20
24.99445349679127
 30
0.0
 11
-89.51436849379252
 21
22.89141569500362
 31
0.0
  0
LINE
  5
A8
330
A4
100
AcDbEntity
  8
Системный слой
  6
K5LT_BASIC
 62
     5
420
      255
370
    60
100
AcDbLine
 10
-89.51436849379252
 20
22.89141569500362
 30
0.0
 11
-91.04681522600777
 21
22.77794507200133
 31
0.0
  0
LINE
  5
A9
330
A4
100
AcDbEntity
  8
Системный слой
  6
K5LT_BASIC
 62
     5
420
      255
370
    60
100
AcDbLine
 10
-91.04681522600777
 20
22.77794507200133
 30
0.0
 11
-91.17036954048808
 21
22.77321029104905
 31
0.0
  0
LINE
  5
AA
330
A4
100
AcDbEntity
  8
Системный слой
  6
K5LT_BASIC
 62
     5
420
      255
370
    60
100
AcDbLine
 10
-91.17036954048808
 20
22.77321029104905
 30
0.0
 11
-91.29339201871016
 21
22.77143104818015
 31
0.0
  0
LINE
  5
AB
330
A4
100
AcDbEntity
  8
Системный слой
  6
K5LT_BASIC
 62
     5
420
      255
370
    60
100
AcDbLine
 10
-91.29339201871016
 20
22.77143104818015
 30
0.0
 11
-93.68827432701119
 21
23.37173806916371
 31
0.0
  0
LINE
  5
AC
330
A4
100
AcDbEntity
  8
Системный слой
  6
K5LT_BASIC
 62
     5
420
      255
370
    60
100
AcDbLine
 10
-93.68827432701119
 20
23.37173806916371
 30
0.0
 11
-95.53496919185591
 21
25.10601443521455
 31
0.0
  0
LINE
  5
AD
330
A4
100
AcDbEntity
  8
Системный слой
  6
K5LT_BASIC
 62
     5
420
      255
370
    60
100
AcDbLine
 10
-95.53496919185591
 20
25.10601443521455
 30
0.0
 11
-96.29716029121619
 21
27.59151399752636
 31
0.0
  0
LINE
  5
AE
330
A4
100
AcDbEntity
  8
Системный слой
  6
K5LT_BASIC
 62
     5
420
      255
370
    60
100
AcDbLine
 10
-96.29716029121619
 20
27.59151399752636
 30
0.0
 11
-95.71772326943255
 21
30.10929823103515
 31
0.0
  0
LINE
  5
AF
330
A4
100
AcDbEntity
  8
Системный слой
  6
K5LT_BASIC
 62
     5
420
      255
370
    60
100
AcDbLine
 10
-95.71772326943255
 20
30.10929823103515
 30
0.0
 11
-94.03646688916933
 21
31.95054955192836
 31
0.0
  0
LINE
  5
B0
330
A4
100
AcDbEntity
  8
Системный слой
  6
K5LT_BASIC
 62
     5
420
      255
370
    60
100
AcDbLine
 10
-94.03646688916933
 20
31.95054955192836
 30
0.0
 11
-91.61499434374173
 21
32.75513286559953
 31
0.0
  0
LINE
  5
B1
330
A4
100
AcDbEntity
  8
Системный слой
  6
K5LT_BASIC
 62
     5
420
      255
370
    60
100
AcDbLine
 10
-91.61499434374173
 20
32.75513286559953
 30
0.0
 11
-65.29948874297088
 21
34.73626702888259
 31
0.0
  0
LINE
  5
B2
330
A4
100
AcDbEntity
  8
Системный слой
  6
K5LT_BASIC
 62
     5
420
      255
370
    60
100
AcDbLine
 10
-65.29948874297088
 20
34.73626702888259
 30
0.0
 11
-37.98540336724864
 21
36.88644733325282
 31
0.0
  0
LINE
  5
B3
330
A4
100
AcDbEntity
  8
Системный слой
  6
K5LT_BASIC
 62
     5
420
      255
370
    60
100
AcDbLine
 10
-37.98540336724864
 20
36.88644733325282
 30
0.0
 11
-12.15617718643762
 21
39.10786195035735
 31
0.0
  0
LINE
  5
B4
330
A4
100
AcDbEntity
  8
Системный слой
  6
K5LT_BASIC
 62
     5
420
      255
370
    60
100
AcDbLine
 10
-12.15617718643762
 20
39.10786195035735
 30
0.0
 11
-10.47786538984337
 21
48.34636944380554
 31
0.0
  0
LINE
  5
B5
330
A4
100
AcDbEntity
  8
Системный слой
  6
K5LT_BASIC
 62
     5
420
      255
370
    60
100
AcDbLine
 10
-10.8067203473006
 20
79.10159102046646
 30
0.0
 11
-29.35671789880098
 21
80.32897595067834
 31
0.0
  0
LINE
  5
B6
330
A4
100
AcDbEntity
  8
Системный слой
  6
K5LT_BASIC
 62
     5
420
      255
370
    60
100
AcDbLine
 10
-29.35671789880098
 20
80.32897595067834
 30
0.0
 11
-50.01971194465887
 21
81.50127569273036
 31
0.0
  0
LINE
  5
B7
330
A4
100
AcDbEntity
  8
Системный слой
  6
K5LT_BASIC
 62
     5
420
      255
370
    60
100
AcDbLine
 10
-95.6519370653009
 20
83.96144984882494
 30
0.0
 11
-119.2223936656214
 21
85.3239416633437
 31
0.0
  0
LINE
  5
B8
330
A4
100
AcDbEntity
  8
Системный слой
  6
K5LT_BASIC
 62
     5
420
      255
370
    60
100
AcDbLine
 10
-119.2223936656214
 20
85.3239416633437
 30
0.0
 11
-140.0037266067052
 21
86.72801362418659
 31
0.0
  0
LINE
  5
B9
330
A4
100
AcDbEntity
  8
Системный слой
  6
K5LT_BASIC
 62
     5
420
      255
370
    60
100
AcDbLine
 10
-140.0037266067052
 20
86.72801362418659
 30
0.0
 11
-162.0672241363204
 21
88.72580119380973
 31
0.0
  0
LINE
  5
BA
330
A4
100
AcDbEntity
  8
Системный слой
  6
K5LT_BASIC
 62
     5
420
      255
370
    60
100
AcDbLine
 10
-162.0672241363204
 20
88.72580119380973
 30
0.0
 11
-179.2160451664254
 21
91.0526013327376
 31
0.0
  0
LINE
  5
BB
330
A4
100
AcDbEntity
  8
Системный слой
  6
K5LT_BASIC
 62
     5
420
      255
370
    60
100
AcDbLine
 10
-179.2160451664254
 20
91.0526013327376
 30
0.0
 11
-191.7878239763663
 21
93.75473706769071
 31
0.0
  0
LINE
  5
BC
330
A4
100
AcDbEntity
  8
Системный слой
  6
K5LT_BASIC
 62
     5
420
      255
370
    60
100
AcDbLine
 10
-191.7878239763663
 20
93.75473706769071
 30
0.0
 11
-201.466604145025
 21
97.27456978793225
 31
0.0
  0
LINE
  5
BD
330
A4
100
AcDbEntity
  8
Системный слой
  6
K5LT_BASIC
 62
     5
420
      255
370
    60
100
AcDbLine
 10
-201.466604145025
 20
97.27456978793225
 30
0.0
 11
-208.0352034927369
 21
101.5344604716197
 31
0.0
  0
LINE
  5
BE
330
A4
100
AcDbEntity
  8
Системный слой
  6
K5LT_BASIC
 62
     5
420
      255
370
    60
100
AcDbLine
 10
-208.0352034927369
 20
101.5344604716197
 30
0.0
 11
-212.3902268521601
 21
106.5913903271871
 31
0.0
  0
LINE
  5
BF
330
A4
100
AcDbEntity
  8
Системный слой
  6
K5LT_BASIC
 62
     5
420
      255
370
    60
100
AcDbLine
 10
-212.3902268521601
 20
106.5913903271871
 30
0.0
 11
-213.8820526663872
 21
109.1672872736094
 31
0.0
  0
LINE
  5
C0
330
A4
100
AcDbEntity
  8
Системный слой
  6
K5LT_BASIC
 62
     5
420
      255
370
    60
100
AcDbLine
 10
-213.8820526663872
 20
109.1672872736094
 30
0.0
 11
-214.9391960234429
 21
111.5737101668533
 31
0.0
  0
LINE
  5
C1
330
A4
100
AcDbEntity
  8
Системный слой
  6
K5LT_BASIC
 62
     5
420
      255
370
    60
100
AcDbLine
 10
-214.9391960234429
 20
111.5737101668533
 30
0.0
 11
-215.7050630447252
 21
114.1034410145362
 31
0.0
  0
LINE
  5
C2
330
A4
100
AcDbEntity
  8
Системный слой
  6
K5LT_BASIC
 62
     5
420
      255
370
    60
100
AcDbLine
 10
-215.7050630447252
 20
114.1034410145362
 30
0.0
 11
-216.1809901684869
 21
117.6625930870982
 31
0.0
  0
LINE
  5
C3
330
A4
100
AcDbEntity
  8
Системный слой
  6
K5LT_BASIC
 62
     5
420
      255
370
    60
100
AcDbLine
 10
-216.1809901684869
 20
117.6625930870982
 30
0.0
 11
-215.8798981587711
 21
121.4244173247412
 31
0.0
  0
LINE
  5
C4
330
A4
100
AcDbEntity
  8
Системный слой
  6
K5LT_BASIC
 62
     5
420
      255
370
    60
100
AcDbLine
 10
-215.8798981587711
 20
121.4244173247412
 30
0.0
 11
-214.6421375506056
 21
125.2462177717448
 31
0.0
  0
LINE
  5
C5
330
A4
100
AcDbEntity
  8
Системный слой
  6
K5LT_BASIC
 62
     5
420
      255
370
    60
100
AcDbLine
 10
-214.6421375506056
 20
125.2462177717448
 30
0.0
 11
-212.5384917702736
 21
128.7761657027763
 31
0.0
  0
LINE
  5
C6
330
A4
100
AcDbEntity
  8
Системный слой
  6
K5LT_BASIC
 62
     5
420
      255
370
    60
100
AcDbLine
 10
-212.5384917702736
 20
128.7761657027763
 30
0.0
 11
-209.4389531259908
 21
132.1590253401741
 31
0.0
  0
LINE
  5
C7
330
A4
100
AcDbEntity
  8
Системный слой
  6
K5LT_BASIC
 62
     5
420
      255
370
    60
100
AcDbLine
 10
-209.4389531259908
 20
132.1590253401741
 30
0.0
 11
-205.2171042170589
 21
135.3721479792407
 31
0.0
  0
LINE
  5
C8
330
A4
100
AcDbEntity
  8
Системный слой
  6
K5LT_BASIC
 62
     5
420
      255
370
    60
100
AcDbLine
 10
-205.2171042170589
 20
135.3721479792407
 30
0.0
 11
-199.08504927699
 21
138.6786867704163
 31
0.0
  0
LINE
  5
C9
330
A4
100
AcDbEntity
  8
Системный слой
  6
K5LT_BASIC
 62
     5
420
      255
370
    60
100
AcDbLine
 10
-199.08504927699
 20
138.6786867704163
 30
0.0
 11
-191.0563976054705
 21
141.7517945921904
 31
0.0
  0
LINE
  5
CA
330
A4
100
AcDbEntity
  8
Системный слой
  6
K5LT_BASIC
 62
     5
420
      255
370
    60
100
AcDbLine
 10
-191.0563976054705
 20
141.7517945921904
 30
0.0
 11
-181.0022252297153
 21
144.4816743778724
 31
0.0
  0
LINE
  5
CB
330
A4
100
AcDbEntity
  8
Системный слой
  6
K5LT_BASIC
 62
     5
420
      255
370
    60
100
AcDbLine
 10
-181.0022252297153
 20
144.4816743778724
 30
0.0
 11
-163.7204618792571
 21
147.5794753187952
 31
0.0
  0
LINE
  5
CC
330
A4
100
AcDbEntity
  8
Системный слой
  6
K5LT_BASIC
 62
     5
420
      255
370
    60
100
AcDbLine
 10
-163.7204618792571
 20
147.5794753187952
 30
0.0
 11
-142.2266097801626
 21
150.0487199708482
 31
0.0
  0
LINE
  5
CD
330
A4
100
AcDbEntity
  8
Системный слой
  6
K5LT_BASIC
 62
     5
420
      255
370
    60
100
AcDbLine
 10
-142.2266097801626
 20
150.0487199708482
 30
0.0
 11
-118.1689939406019
 21
151.8272624507085
 31
0.0
  0
LINE
  5
CE
330
A4
100
AcDbEntity
  8
Системный слой
  6
K5LT_BASIC
 62
     5
420
      255
370
    60
100
AcDbLine
 10
-118.1689939406019
 20
151.8272624507085
 30
0.0
 11
-88.16704338542377
 21
153.104663486653
 31
0.0
  0
LINE
  5
CF
330
A4
100
AcDbEntity
  8
Системный слой
  6
K5LT_BASIC
 62
     5
420
      255
370
    60
100
AcDbLine
 10
-88.16704338542377
 20
153.104663486653
 30
0.0
 11
-57.46966449293404
 21
153.5880430025868
 31
0.0
  0
LINE
  5
D0
330
A4
100
AcDbEntity
  8
Системный слой
  6
K5LT_BASIC
 62
     5
420
      255
370
    60
100
AcDbLine
 10
-57.46966449293404
 20
153.5880430025868
 30
0.0
 11
-28.64887394525203
 21
153.3357641228599
 31
0.0
  0
LINE
  5
D1
330
A4
100
AcDbEntity
  8
Системный слой
  6
K5LT_BASIC
 62
     5
420
      255
370
    60
100
AcDbLine
 10
-28.64887394525203
 20
153.3357641228599
 30
0.0
 11
-21.25340776621169
 21
153.1481534552609
 31
0.0
  0
LINE
  5
D2
330
A4
100
AcDbEntity
  8
Системный слой
  6
K5LT_BASIC
 62
     5
420
      255
370
    60
100
AcDbLine
 10
-21.25340776621169
 20
153.1481534552609
 30
0.0
 11
-16.62145163917057
 21
153.0032765722549
 31
0.0
  0
LINE
  5
D3
330
A4
100
AcDbEntity
  8
Системный слой
  6
K5LT_BASIC
 62
     5
420
      255
370
    60
100
AcDbLine
 10
-16.62145163917057
 20
153.0032765722549
 30
0.0
 11
-12.13426122952615
 21
152.8437189170359
 31
0.0
  0
LINE
  5
D4
330
A4
100
AcDbEntity
  8
Системный слой
  6
K5LT_BASIC
 62
     5
420
      255
370
    60
100
AcDbLine
 10
-12.13426122952615
 20
152.8437189170359
 30
0.0
 11
-11.68372000671343
 21
161.1257285306606
 31
0.0
  0
LINE
  5
D5
330
A4
100
AcDbEntity
  8
Системный слой
  6
K5LT_BASIC
 62
     5
420
      255
370
    60
100
AcDbLine
 10
-12.02339521482145
 20
192.8855576533356
 30
0.0
 11
-18.28815663412161
 21
194.266207004996
 31
0.0
  0
LINE
  5
D6
330
A4
100
AcDbEntity
  8
Системный слой
  6
K5LT_BASIC
 62
     5
420
      255
370
    60
100
AcDbLine
 10
-48.2006197782398
 20
199.7750654954302
 30
0.0
 11
-63.99860519394542
 21
202.7935473636103
 31
0.0
  0
LINE
  5
D7
330
A4
100
AcDbEntity
  8
Системный слой
  6
K5LT_BASIC
 62
     5
420
      255
370
    60
100
AcDbLine
 10
-63.99860519394542
 20
202.7935473636103
 30
0.0
 11
-77.90653679823436
 21
205.7016930027125
 31
0.0
  0
LINE
  5
D8
330
A4
100
AcDbEntity
  8
Системный слой
  6
K5LT_BASIC
 62
     5
420
      255
370
    60
100
AcDbLine
 10
-77.90653679823436
 20
205.7016930027125
 30
0.0
 11
-94.0623759471614
 21
209.8254863335501
 31
0.0
  0
LINE
  5
D9
330
A4
100
AcDbEntity
  8
Системный слой
  6
K5LT_BASIC
 62
     5
420
      255
370
    60
100
AcDbLine
 10
-94.0623759471614
 20
209.8254863335501
 30
0.0
 11
-106.1300257712096
 21
214.0254762747759
 31
0.0
  0
LINE
  5
DA
330
A4
100
AcDbEntity
  8
Системный слой
  6
K5LT_BASIC
 62
     5
420
      255
370
    60
100
AcDbLine
 10
-106.1300257712096
 20
214.0254762747759
 30
0.0
 11
-113.8856026768594
 21
218.0512149586471
 31
0.0
  0
LINE
  5
DB
330
A4
100
AcDbEntity
  8
Системный слой
  6
K5LT_BASIC
 62
     5
420
      255
370
    60
100
AcDbLine
 10
-113.8856026768594
 20
218.0512149586471
 30
0.0
 11
-119.6333624749827
 21
223.6802115031364
 31
0.0
  0
LINE
  5
DC
330
A4
100
AcDbEntity
  8
Системный слой
  6
K5LT_BASIC
 62
     5
420
      255
370
    60
100
AcDbLine
 10
-119.6333624749827
 20
223.6802115031364
 30
0.0
 11
-120.7870585529977
 21
229.3029140481453
 31
0.0
  0
LINE
  5
DD
330
A4
100
AcDbEntity
  8
Системный слой
  6
K5LT_BASIC
 62
     5
420
      255
370
    60
100
AcDbLine
 10
-120.7870585529977
 20
229.3029140481453
 30
0.0
 11
-118.1624483980927
 21
234.5240934768876
 31
0.0
  0
LINE
  5
DE
330
A4
100
AcDbEntity
  8
Системный слой
  6
K5LT_BASIC
 62
     5
420
      255
370
    60
100
AcDbLine
 10
-118.1624483980927
 20
234.5240934768876
 30
0.0
 11
-114.4003794886316
 21
237.9350362891696
 31
0.0
  0
LINE
  5
DF
330
A4
100
AcDbEntity
  8
Системный слой
  6
K5LT_BASIC
 62
     5
420
      255
370
    60
100
AcDbLine
 10
-114.4003794886316
 20
237.9350362891696
 30
0.0
 11
-109.3277250330325
 21
240.6239529504551
 31
0.0
  0
LINE
  5
E0
330
A4
100
AcDbEntity
  8
Системный слой
  6
K5LT_BASIC
 62
     5
420
      255
370
    60
100
AcDbLine
 10
-109.3277250330325
 20
240.6239529504551
 30
0.0
 11
-102.6723049585748
 21
242.8310468768564
 31
0.0
  0
LINE
  5
E1
330
A4
100
AcDbEntity
  8
Системный слой
  6
K5LT_BASIC
 62
     5
420
      255
370
    60
100
AcDbLine
 10
-102.6723049585748
 20
242.8310468768564
 30
0.0
 11
-94.99510077899367
 21
244.4827592333263
 31
0.0
  0
LINE
  5
E2
330
A4
100
AcDbEntity
  8
Системный слой
  6
K5LT_BASIC
 62
     5
420
      255
370
    60
100
AcDbLine
 10
-94.99510077899367
 20
244.4827592333263
 30
0.0
 11
-85.80745829208308
 21
245.8122511493843
 31
0.0
  0
LINE
  5
E3
330
A4
100
AcDbEntity
  8
Системный слой
  6
K5LT_BASIC
 62
     5
420
      255
370
    60
100
AcDbLine
 10
-85.80745829208308
 20
245.8122511493843
 30
0.0
 11
-74.93291756201188
 21
246.8642026895391
 31
0.0
  0
LINE
  5
E4
330
A4
100
AcDbEntity
  8
Системный слой
  6
K5LT_BASIC
 62
     5
420
      255
370
    60
100
AcDbLine
 10
-74.93291756201188
 20
246.8642026895391
 30
0.0
 11
-63.86504309965358
 21
247.5817726597311
 31
0.0
  0
LINE
  5
E5
330
A4
100
AcDbEntity
  8
Системный слой
  6
K5LT_BASIC
 62
     5
420
      255
370
    60
100
AcDbLine
 10
-63.86504309965358
 20
247.5817726597311
 30
0.0
 11
-51.82110036930544
 21
248.1539015506855
 31
0.0
  0
LINE
  5
E6
330
A4
100
AcDbEntity
  8
Системный слой
  6
K5LT_BASIC
 62
     5
420
      255
370
    60
100
AcDbLine
 10
-21.92441119243767
 20
249.3359541407231
 30
0.0
 11
-13.89818218897517
 21
249.7004432991257
 31
0.0
  0
LINE
  5
E7
330
A4
100
AcDbEntity
  8
Системный слой
  6
K5LT_BASIC
 62
     5
420
      255
370
    60
100
AcDbLine
 10
-13.89818218897517
 20
249.7004432991257
 30
0.0
 11
-12.69352096814282
 21
255.5523427988551
 31
0.0
  0
LINE
  5
E8
330
A4
100
AcDbEntity
  8
Системный слой
  6
K5LT_BASIC
 62
     5
420
      255
370
    60
100
AcDbLine
 10
-12.95340967022867
 20
279.860022937632
 30
0.0
 11
-18.3559244040548
 21
281.8053764277088
 31
0.0
  0
LINE
  5
E9
330
A4
100
AcDbEntity
  8
Системный слой
  6
K5LT_BASIC
 62
     5
420
      255
370
    60
100
AcDbLine
 10
-18.3559244040548
 20
281.8053764277088
 30
0.0
 11
-24.47159754280392
 21
283.9047192980856
 31
0.0
  0
LINE
  5
EA
330
A4
100
AcDbEntity
  8
Системный слой
  6
K5LT_BASIC
 62
     5
420
      255
370
    60
100
AcDbLine
 10
-24.47159754280392
 20
283.9047192980856
 30
0.0
 11
-30.07514896614475
 21
286.1139041894453
 31
0.0
  0
LINE
  5
EB
330
A4
100
AcDbEntity
  8
Системный слой
  6
K5LT_BASIC
 62
     5
420
      255
370
    60
100
AcDbLine
 10
-30.07514896614475
 20
286.1139041894453
 30
0.0
 11
-37.64236286624464
 21
289.9168896466367
 31
0.0
  0
LINE
  5
EC
330
A4
100
AcDbEntity
  8
Системный слой
  6
K5LT_BASIC
 62
     5
420
      255
370
    60
100
AcDbLine
 10
-37.64236286624464
 20
289.9168896466367
 30
0.0
 11
-43.98382158498816
 21
294.7521426475801
 31
0.0
  0
LINE
  5
ED
330
A4
100
AcDbEntity
  8
Системный слой
  6
K5LT_BASIC
 62
     5
420
      255
370
    60
100
AcDbLine
 10
-43.98382158498816
 20
294.7521426475801
 30
0.0
 11
-48.47879355499435
 21
300.7881719291822
 31
0.0
  0
LINE
  5
EE
330
A4
100
AcDbEntity
  8
Системный слой
  6
K5LT_BASIC
 62
     5
420
      255
370
    60
100
AcDbLine
 10
-48.47879355499435
 20
300.7881719291822
 30
0.0
 11
-51.00575896768305
 21
308.1015789995449
 31
0.0
  0
LINE
  5
EF
330
A4
100
AcDbEntity
  8
Системный слой
  6
K5LT_BASIC
 62
     5
420
      255
370
    60
100
AcDbLine
 10
-51.00575896768305
 20
308.1015789995449
 30
0.0
 11
-51.57567963931388
 21
316.9788435969299
 31
0.0
  0
LINE
  5
F0
330
A4
100
AcDbEntity
  8
Системный слой
  6
K5LT_BASIC
 62
     5
420
      255
370
    60
100
AcDbLine
 10
-51.57567963931388
 20
316.9788435969299
 30
0.0
 11
-50.20249471234774
 21
327.8490512200137
 31
0.0
  0
LINE
  5
F1
330
A4
100
AcDbEntity
  8
Системный слой
  6
K5LT_BASIC
 62
     5
420
      255
370
    60
100
AcDbLine
 10
-50.20249471234774
 20
327.8490512200137
 30
0.0
 11
-47.16154431268887
 21
340.2116222728841
 31
0.0
  0
LINE
  5
F2
330
A4
100
AcDbEntity
  8
Системный слой
  6
K5LT_BASIC
 62
     5
420
      255
370
    60
100
AcDbLine
 10
-47.16154431268887
 20
340.2116222728841
 30
0.0
 11
-42.82716835351994
 21
354.0560672129291
 31
0.0
  0
LINE
  5
F3
330
A4
100
AcDbEntity
  8
Системный слой
  6
K5LT_BASIC
 62
     5
420
      255
370
    60
100
AcDbLine
 10
-42.82716835351994
 20
354.0560672129291
 30
0.0
 11
-37.67074534044559
 21
368.626863040638
 31
0.0
  0
LINE
  5
F4
330
A4
100
AcDbEntity
  8
Системный слой
  6
K5LT_BASIC
 62
     5
420
      255
370
    60
100
AcDbLine
 10
-37.67074534044559
 20
368.626863040638
 30
0.0
 11
-32.23250009303547
 21
382.9120246191965
 31
0.0
  0
LINE
  5
F5
330
A4
100
AcDbEntity
  8
Системный слой
  6
K5LT_BASIC
 62
     5
420
      255
370
    60
100
AcDbLine
 10
-32.23250009303547
 20
382.9120246191965
 30
0.0
 11
-27.00789012636187
 21
396.0200885364952
 31
0.0
  0
LINE
  5
F6
330
A4
100
AcDbEntity
  8
Системный слой
  6
K5LT_BASIC
 62
     5
420
      255
370
    60
100
AcDbLine
 10
-27.00789012636187
 20
396.0200885364952
 30
0.0
 11
-22.47508596681155
 21
407.0937606535449
 31
0.0
  0
LINE
  5
F7
330
A4
100
AcDbEntity
  8
Системный слой
  6
K5LT_BASIC
 62
     5
420
      255
370
    60
100
AcDbLine
 10
-22.47508596681155
 20
407.0937606535449
 30
0.0
 11
-11.34248153482213
 21
431.2779815632689
 31
0.0
  0
LINE
  5
F8
330
A4
100
AcDbEntity
  8
Системный слой
  6
K5LT_BASIC
 62
     5
420
      255
370
    60
100
AcDbLine
 10
-11.34248153482213
 20
431.2779815632689
 30
0.0
 11
-5.540565842653905
 21
417.1088362791902
 31
0.0
  0
LINE
  5
F9
330
A4
100
AcDbEntity
  8
Системный слой
  6
K5LT_BASIC
 62
     5
420
      255
370
    60
100
AcDbLine
 10
-5.540565842653905
 20
417.1088362791902
 30
0.0
 11
-3.607943240420809
 21
336.9780264522628
 31
0.0
  0
LINE
  5
FA
330
A4
100
AcDbEntity
  8
Системный слой
  6
K5LT_BASIC
 62
     5
420
      255
370
    60
100
AcDbLine
 10
-3.079115707699657
 20
287.9548672427486
 30
0.0
 11
-0.2325564091456727
 21
286.8644853481733
 31
0.0
  0
LINE
  5
FB
330
A4
100
AcDbEntity
  8
Системный слой
  6
K5LT_BASIC
 62
     5
420
      255
370
    60
100
AcDbLine
 10
-0.2325564091456727
 20
286.8644853481733
 30
0.0
 11
3.309683844644042
 21
285.8932026623556
 31
0.0
  0
LINE
  5
FC
330
A4
100
AcDbEntity
  8
Системный слой
  6
K5LT_BASIC
 62
     5
420
      255
370
    60
100
AcDbLine
 10
13.86055402647753
 20
283.0249045863497
 30
0.0
 11
21.43915043062634
 21
280.8874206020969
 31
0.0
  0
LINE
  5
FD
330
A4
100
AcDbEntity
  8
Системный слой
  6
K5LT_BASIC
 62
     5
420
      255
370
    60
100
AcDbLine
 10
21.43915043062634
 20
280.8874206020969
 30
0.0
 11
28.50976197632599
 21
278.7158568940308
 31
0.0
  0
LINE
  5
FE
330
A4
100
AcDbEntity
  8
Системный слой
  6
K5LT_BASIC
 62
     5
420
      255
370
    60
100
AcDbLine
 10
28.50976197632599
 20
278.7158568940308
 30
0.0
 11
34.99304608231205
 21
276.4252050081855
 31
0.0
  0
LINE
  5
FF
330
A4
100
AcDbEntity
  8
Системный слой
  6
K5LT_BASIC
 62
     5
420
      255
370
    60
100
AcDbLine
 10
34.99304608231205
 20
276.4252050081855
 30
0.0
 11
40.54737780902497
 21
274.0767229618491
 31
0.0
  0
LINE
  5
100
330
A4
100
AcDbEntity
  8
Системный слой
  6
K5LT_BASIC
 62
     5
420
      255
370
    60
100
AcDbLine
 10
40.54737780902497
 20
274.0767229618491
 30
0.0
 11
45.10844556695019
 21
271.7016582528836
 31
0.0
  0
LINE
  5
101
330
A4
100
AcDbEntity
  8
Системный слой
  6
K5LT_BASIC
 62
     5
420
      255
370
    60
100
AcDbLine
 10
45.10844556695019
 20
271.7016582528836
 30
0.0
 11
48.12914639704059
 21
269.7231845327647
 31
0.0
  0
LINE
  5
102
330
A4
100
AcDbEntity
  8
Системный слой
  6
K5LT_BASIC
 62
     5
420
      255
370
    60
100
AcDbLine
 10
48.12914639704059
 20
269.7231845327647
 30
0.0
 11
50.43006979071606
 21
267.8023362109675
 31
0.0
  0
LINE
  5
103
330
A4
100
AcDbEntity
  8
Системный слой
  6
K5LT_BASIC
 62
     5
420
      255
370
    60
100
AcDbLine
 10
50.43006979071606
 20
267.8023362109675
 30
0.0
 11
52.19378991792701
 21
265.8338825683863
 31
0.0
  0
LINE
  5
104
330
A4
100
AcDbEntity
  8
Системный слой
  6
K5LT_BASIC
 62
     5
420
      255
370
    60
100
AcDbLine
 10
52.19378991792701
 20
265.8338825683863
 30
0.0
 11
53.71929797912298
 21
263.1918757727822
 31
0.0
  0
LINE
  5
105
330
A4
100
AcDbEntity
  8
Системный слой
  6
K5LT_BASIC
 62
     5
420
      255
370
    60
100
AcDbLine
 10
53.71929797912298
 20
263.1918757727822
 30
0.0
 11
54.40831351447605
 21
260.3339811183591
 31
0.0
  0
LINE
  5
106
330
A4
100
AcDbEntity
  8
Системный слой
  6
K5LT_BASIC
 62
     5
420
      255
370
    60
100
AcDbLine
 10
54.40831351447605
 20
260.3339811183591
 30
0.0
 11
54.12682498382537
 21
257.4367410382943
 31
0.0
  0
LINE
  5
107
330
A4
100
AcDbEntity
  8
Системный слой
  6
K5LT_BASIC
 62
     5
420
      255
370
    60
100
AcDbLine
 10
54.12682498382537
 20
257.4367410382943
 30
0.0
 11
53.7378022989501
 21
256.2683778071164
 31
0.0
  0
LINE
  5
108
330
A4
100
AcDbEntity
  8
Системный слой
  6
K5LT_BASIC
 62
     5
420
      255
370
    60
100
AcDbLine
 10
53.7378022989501
 20
256.2683778071164
 30
0.0
 11
53.43021213419843
 21
255.5898140104077
 31
0.0
  0
LINE
  5
109
330
A4
100
AcDbEntity
  8
Системный слой
  6
K5LT_BASIC
 62
     5
420
      255
370
    60
100
AcDbLine
 10
53.43021213419843
 20
255.5898140104077
 30
0.0
 11
53.06449187428689
 21
254.9231566792528
 31
0.0
  0
LINE
  5
10A
330
A4
100
AcDbEntity
  8
Системный слой
  6
K5LT_BASIC
 62
     5
420
      255
370
    60
100
AcDbLine
 10
53.06449187428689
 20
254.9231566792528
 30
0.0
 11
50.63741507682835
 21
252.090340167661
 31
0.0
  0
LINE
  5
10B
330
A4
100
AcDbEntity
  8
Системный слой
  6
K5LT_BASIC
 62
     5
420
      255
370
    60
100
AcDbLine
 10
50.63741507682835
 20
252.090340167661
 30
0.0
 11
45.87483400653446
 21
249.0045502952476
 31
0.0
  0
LINE
  5
10C
330
A4
100
AcDbEntity
  8
Системный слой
  6
K5LT_BASIC
 62
     5
420
      255
370
    60
100
AcDbLine
 10
45.87483400653446
 20
249.0045502952476
 30
0.0
 11
39.12671304137666
 21
246.3654834586082
 31
0.0
  0
LINE
  5
10D
330
A4
100
AcDbEntity
  8
Системный слой
  6
K5LT_BASIC
 62
     5
420
      255
370
    60
100
AcDbLine
 10
39.12671304137666
 20
246.3654834586082
 30
0.0
 11
31.50227132992359
 21
244.4207749092916
 31
0.0
  0
LINE
  5
10E
330
A4
100
AcDbEntity
  8
Системный слой
  6
K5LT_BASIC
 62
     5
420
      255
370
    60
100
AcDbLine
 10
31.50227132992359
 20
244.4207749092916
 30
0.0
 11
22.49064503948421
 21
242.8183334652726
 31
0.0
  0
LINE
  5
10F
330
A4
100
AcDbEntity
  8
Системный слой
  6
K5LT_BASIC
 62
     5
420
      255
370
    60
100
AcDbLine
 10
22.49064503948421
 20
242.8183334652726
 30
0.0
 11
11.802961805
 21
241.4989775557819
 31
0.0
  0
LINE
  5
110
330
A4
100
AcDbEntity
  8
Системный слой
  6
K5LT_BASIC
 62
     5
420
      255
370
    60
100
AcDbLine
 10
11.802961805
 20
241.4989775557819
 30
0.0
 11
6.243214461164371
 21
240.9885854410136
 31
0.0
  0
LINE
  5
111
330
A4
100
AcDbEntity
  8
Системный слой
  6
K5LT_BASIC
 62
     5
420
      255
370
    60
100
AcDbLine
 10
6.243214461164371
 20
240.9885854410136
 30
0.0
 11
2.373287610836542
 21
240.6866264681726
 31
0.0
  0
LINE
  5
112
330
A4
100
AcDbEntity
  8
Системный слой
  6
K5LT_BASIC
 62
     5
420
      255
370
    60
100
AcDbLine
 10
2.373287610836542
 20
240.6866264681726
 30
0.0
 11
-1.625469476874514
 21
240.4102796688353
 31
0.0
  0
LINE
  5
113
330
A4
100
AcDbEntity
  8
Системный слой
  6
K5LT_BASIC
 62
     5
420
      255
370
    60
100
AcDbLine
 10
-1.625469476874514
 20
240.4102796688353
 30
0.0
 11
-2.502313323166618
 21
234.0085991791707
 31
0.0
  0
LINE
  5
114
330
A4
100
AcDbEntity
  8
Системный слой
  6
K5LT_BASIC
 62
     5
420
      255
370
    60
100
AcDbLine
 10
-2.16045771688232
 20
202.0423126797446
 30
0.0
 11
16.49485573243282
 21
197.5976056904387
 31
0.0
  0
LINE
  5
115
330
A4
100
AcDbEntity
  8
Системный слой
  6
K5LT_BASIC
 62
     5
420
      255
370
    60
100
AcDbLine
 10
16.49485573243282
 20
197.5976056904387
 30
0.0
 11
39.11667809336313
 21
192.367354550704
 31
0.0
  0
LINE
  5
116
330
A4
100
AcDbEntity
  8
Системный слой
  6
K5LT_BASIC
 62
     5
420
      255
370
    60
100
AcDbLine
 10
39.11667809336313
 20
192.367354550704
 30
0.0
 11
58.15521127565398
 21
186.7432581204571
 31
0.0
  0
LINE
  5
117
330
A4
100
AcDbEntity
  8
Системный слой
  6
K5LT_BASIC
 62
     5
420
      255
370
    60
100
AcDbLine
 10
58.15521127565398
 20
186.7432581204571
 30
0.0
 11
69.4423149891195
 21
182.0909574688071
 31
0.0
  0
LINE
  5
118
330
A4
100
AcDbEntity
  8
Системный слой
  6
K5LT_BASIC
 62
     5
420
      255
370
    60
100
AcDbLine
 10
69.4423149891195
 20
182.0909574688071
 30
0.0
 11
77.07934202953811
 21
177.6445980061258
 31
0.0
  0
LINE
  5
119
330
A4
100
AcDbEntity
  8
Системный слой
  6
K5LT_BASIC
 62
     5
420
      255
370
    60
100
AcDbLine
 10
77.07934202953811
 20
177.6445980061258
 30
0.0
 11
82.45095370562058
 21
173.0833036487461
 31
0.0
  0
LINE
  5
11A
330
A4
100
AcDbEntity
  8
Системный слой
  6
K5LT_BASIC
 62
     5
420
      255
370
    60
100
AcDbLine
 10
82.45095370562058
 20
173.0833036487461
 30
0.0
 11
85.34586694955715
 21
169.2770615123341
 31
0.0
  0
LINE
  5
11B
330
A4
100
AcDbEntity
  8
Системный слой
  6
K5LT_BASIC
 62
     5
420
      255
370
    60
100
AcDbLine
 10
85.34586694955715
 20
169.2770615123341
 30
0.0
 11
86.95245704688705
 21
165.6950265874498
 31
0.0
  0
LINE
  5
11C
330
A4
100
AcDbEntity
  8
Системный слой
  6
K5LT_BASIC
 62
     5
420
      255
370
    60
100
AcDbLine
 10
86.95245704688705
 20
165.6950265874498
 30
0.0
 11
87.58020101735701
 21
162.1183735168347
 31
0.0
  0
LINE
  5
11D
330
A4
100
AcDbEntity
  8
Системный слой
  6
K5LT_BASIC
 62
     5
420
      255
370
    60
100
AcDbLine
 10
87.58020101735701
 20
162.1183735168347
 30
0.0
 11
87.28572842417861
 21
158.5572737008974
 31
0.0
  0
LINE
  5
11E
330
A4
100
AcDbEntity
  8
Системный слой
  6
K5LT_BASIC
 62
     5
420
      255
370
    60
100
AcDbLine
 10
87.28572842417861
 20
158.5572737008974
 30
0.0
 11
86.11448746945325
 21
155.2094015770203
 31
0.0
  0
LINE
  5
11F
330
A4
100
AcDbEntity
  8
Системный слой
  6
K5LT_BASIC
 62
     5
420
      255
370
    60
100
AcDbLine
 10
86.11448746945325
 20
155.2094015770203
 30
0.0
 11
84.13713718172085
 21
152.1341600541514
 31
0.0
  0
LINE
  5
120
330
A4
100
AcDbEntity
  8
Системный слой
  6
K5LT_BASIC
 62
     5
420
      255
370
    60
100
AcDbLine
 10
84.13713718172085
 20
152.1341600541514
 30
0.0
 11
80.87155534426756
 21
148.9113496430605
 31
0.0
  0
LINE
  5
121
330
A4
100
AcDbEntity
  8
Системный слой
  6
K5LT_BASIC
 62
     5
420
      255
370
    60
100
AcDbLine
 10
80.87155534426756
 20
148.9113496430605
 30
0.0
 11
76.44718587929901
 21
146.0280478880472
 31
0.0
  0
LINE
  5
122
330
A4
100
AcDbEntity
  8
Системный слой
  6
K5LT_BASIC
 62
     5
420
      255
370
    60
100
AcDbLine
 10
76.44718587929901
 20
146.0280478880472
 30
0.0
 11
71.1713325596761
 21
143.7346345221845
 31
0.0
  0
LINE
  5
123
330
A4
100
AcDbEntity
  8
Системный слой
  6
K5LT_BASIC
 62
     5
420
      255
370
    60
100
AcDbLine
 10
71.1713325596761
 20
143.7346345221845
 30
0.0
 11
59.48440614095625
 21
141.1755210240849
 31
0.0
  0
LINE
  5
124
330
A4
100
AcDbEntity
  8
Системный слой
  6
K5LT_BASIC
 62
     5
420
      255
370
    60
100
AcDbLine
 10
59.48440614095625
 20
141.1755210240849
 30
0.0
 11
42.52505711799813
 21
140.4638013472199
 31
0.0
  0
LINE
  5
125
330
A4
100
AcDbEntity
  8
Системный слой
  6
K5LT_BASIC
 62
     5
420
      255
370
    60
100
AcDbLine
 10
42.52505711799813
 20
140.4638013472199
 30
0.0
 11
21.10192309508648
 21
141.2598690210239
 31
0.0
  0
LINE
  5
126
330
A4
100
AcDbEntity
  8
Системный слой
  6
K5LT_BASIC
 62
     5
420
      255
370
    60
100
AcDbLine
 10
5.538983039128198
 20
142.0714257553395
 30
0.0
 11
-0.010206332819962
 21
142.3447821686573
 31
0.0
  0
LINE
  5
127
330
A4
100
AcDbEntity
  8
Системный слой
  6
K5LT_BASIC
 62
     5
420
      255
370
    60
100
AcDbLine
 10
-0.010206332819962
 20
142.3447821686573
 30
0.0
 11
-1.436377685722164
 21
134.3313952807398
 31
0.0
  0
LINE
  5
128
330
A4
100
AcDbEntity
  8
Системный слой
  6
K5LT_BASIC
 62
     5
420
      255
370
    60
100
AcDbLine
 10
-0.9595590224721491
 20
89.73768258480641
 30
0.0
 11
10.57731986888439
 21
87.65938234096711
 31
0.0
  0
LINE
  5
129
330
A4
100
AcDbEntity
  8
Системный слой
  6
K5LT_BASIC
 62
     5
420
      255
370
    60
100
AcDbLine
 10
10.57731986888439
 20
87.65938234096711
 30
0.0
 11
25.29404252572067
 21
86.4153301570118
 31
0.0
  0
LINE
  5
12A
330
A4
100
AcDbEntity
  8
Системный слой
  6
K5LT_BASIC
 62
     5
420
      255
370
    60
100
AcDbLine
 10
25.29404252572067
 20
86.4153301570118
 30
0.0
 11
38.4845133285412
 21
85.06543266047129
 31
0.0
  0
LINE
  5
12B
330
A4
100
AcDbEntity
  8
Системный слой
  6
K5LT_BASIC
 62
     5
420
      255
370
    60
100
AcDbLine
 10
38.4845133285412
 20
85.06543266047129
 30
0.0
 11
56.95362673933187
 21
82.45952017422542
 31
0.0
  0
LINE
  5
12C
330
A4
100
AcDbEntity
  8
Системный слой
  6
K5LT_BASIC
 62
     5
420
      255
370
    60
100
AcDbLine
 10
56.95362673933187
 20
82.45952017422542
 30
0.0
 11
72.42794328403716
 21
79.00101683686307
 31
0.0
  0
LINE
  5
12D
330
A4
100
AcDbEntity
  8
Системный слой
  6
K5LT_BASIC
 62
     5
420
      255
370
    60
100
AcDbLine
 10
72.42794328403716
 20
79.00101683686307
 30
0.0
 11
82.53520668646115
 21
75.18905004306589
 31
0.0
  0
LINE
  5
12E
330
A4
100
AcDbEntity
  8
Системный слой
  6
K5LT_BASIC
 62
     5
420
      255
370
    60
100
AcDbLine
 10
82.53520668646115
 20
75.18905004306589
 30
0.0
 11
89.56971295413086
 21
70.00727903936468
 31
0.0
  0
LINE
  5
12F
330
A4
100
AcDbEntity
  8
Системный слой
  6
K5LT_BASIC
 62
     5
420
      255
370
    60
100
AcDbLine
 10
89.56971295413086
 20
70.00727903936468
 30
0.0
 11
92.31938478753955
 21
64.16725294775961
 31
0.0
  0
LINE
  5
130
330
A4
100
AcDbEntity
  8
Системный слой
  6
K5LT_BASIC
 62
     5
420
      255
370
    60
100
AcDbLine
 10
92.31938478753955
 20
64.16725294775961
 30
0.0
 11
91.53028986815434
 21
58.29977902590372
 31
0.0
  0
LINE
  5
131
330
A4
100
AcDbEntity
  8
Системный слой
  6
K5LT_BASIC
 62
     5
420
      255
370
    60
100
AcDbLine
 10
91.53028986815434
 20
58.29977902590372
 30
0.0
 11
89.05804738331744
 21
53.43170502817384
 31
0.0
  0
LINE
  5
132
330
A4
100
AcDbEntity
  8
Системный слой
  6
K5LT_BASIC
 62
     5
420
      255
370
    60
100
AcDbLine
 10
89.05804738331744
 20
53.43170502817384
 30
0.0
 11
85.14582050730087
 21
49.19596928959027
 31
0.0
  0
LINE
  5
133
330
A4
100
AcDbEntity
  8
Системный слой
  6
K5LT_BASIC
 62
     5
420
      255
370
    60
100
AcDbLine
 10
85.14582050730087
 20
49.19596928959027
 30
0.0
 11
79.19010085776745
 21
45.2966511698437
 31
0.0
  0
LINE
  5
134
330
A4
100
AcDbEntity
  8
Системный слой
  6
K5LT_BASIC
 62
     5
420
      255
370
    60
100
AcDbLine
 10
79.19010085776745
 20
45.2966511698437
 30
0.0
 11
71.45201156792837
 21
42.01271260425847
 31
0.0
  0
LINE
  5
135
330
A4
100
AcDbEntity
  8
Системный слой
  6
K5LT_BASIC
 62
     5
420
      255
370
    60
100
AcDbLine
 10
71.45201156792837
 20
42.01271260425847
 30
0.0
 11
61.35892447249944
 21
39.06824321654449
 31
0.0
  0
LINE
  5
136
330
A4
100
AcDbEntity
  8
Системный слой
  6
K5LT_BASIC
 62
     5
420
      255
370
    60
100
AcDbLine
 10
61.35892447249944
 20
39.06824321654449
 30
0.0
 11
48.24496746894101
 21
36.33863063509534
 31
0.0
  0
LINE
  5
137
330
A4
100
AcDbEntity
  8
Системный слой
  6
K5LT_BASIC
 62
     5
420
      255
370
    60
100
AcDbLine
 10
48.24496746894101
 20
36.33863063509534
 30
0.0
 11
34.81130482005346
 21
34.23785207467199
 31
0.0
  0
LINE
  5
138
330
A4
100
AcDbEntity
  8
Системный слой
  6
K5LT_BASIC
 62
     5
420
      255
370
    60
100
AcDbLine
 10
34.81130482005346
 20
34.23785207467199
 30
0.0
 11
20.53859715340923
 21
32.42391240330153
 31
0.0
  0
LINE
  5
139
330
A4
100
AcDbEntity
  8
Системный слой
  6
K5LT_BASIC
 62
     5
420
      255
370
    60
100
AcDbLine
 10
20.53859715340923
 20
32.42391240330153
 30
0.0
 11
4.643034469070244
 21
30.69736409199641
 31
0.0
  0
LINE
  5
13A
330
A4
100
AcDbEntity
  8
Системный слой
  6
K5LT_BASIC
 62
     5
420
      255
370
    60
100
AcDbLine
 10
4.643034469070244
 20
30.69736409199641
 30
0.0
 11
-0.0000000000004547
 21
-0.0000000000004547
 31
0.0
  0
LINE
  5
13B
330
A4
100
AcDbEntity
  8
Системный слой
  6
K5LT_BASIC
 62
     5
420
      255
370
    60
100
AcDbLine
 10
-11.48699015795091
 20
142.7294395414906
 30
0.0
 11
-15.59563075969209
 21
142.9972458333182
 31
0.0
  0
LINE
  5
13C
330
A4
100
AcDbEntity
  8
Системный слой
  6
K5LT_BASIC
 62
     5
420
      255
370
    60
100
AcDbLine
 10
-15.59563075969209
 20
142.9972458333182
 30
0.0
 11
-20.18891065229445
 21
143.1485622489304
 31
0.0
  0
LINE
  5
13D
330
A4
100
AcDbEntity
  8
Системный слой
  6
K5LT_BASIC
 62
     5
420
      255
370
    60
100
AcDbLine
 10
-20.18891065229445
 20
143.1485622489304
 30
0.0
 11
-24.89959377076821
 21
143.2814653820119
 31
0.0
  0
LINE
  5
13E
330
A4
100
AcDbEntity
  8
Системный слой
  6
K5LT_BASIC
 62
     5
420
      255
370
    60
100
AcDbLine
 10
-24.89959377076821
 20
143.2814653820119
 30
0.0
 11
-48.33773155530207
 21
143.6198598423603
 31
0.0
  0
LINE
  5
13F
330
A4
100
AcDbEntity
  8
Системный слой
  6
K5LT_BASIC
 62
     5
420
      255
370
    60
100
AcDbLine
 10
-48.33773155530207
 20
143.6198598423603
 30
0.0
 11
-77.61007191026556
 21
143.3860164846124
 31
0.0
  0
LINE
  5
140
330
A4
100
AcDbEntity
  8
Системный слой
  6
K5LT_BASIC
 62
     5
420
      255
370
    60
100
AcDbLine
 10
-77.61007191026556
 20
143.3860164846124
 30
0.0
 11
-107.4405999658597
 21
142.4015883717661
 31
0.0
  0
LINE
  5
141
330
A4
100
AcDbEntity
  8
Системный слой
  6
K5LT_BASIC
 62
     5
420
      255
370
    60
100
AcDbLine
 10
-107.4405999658597
 20
142.4015883717661
 30
0.0
 11
-132.3095049211438
 21
140.8762951907106
 31
0.0
  0
LINE
  5
142
330
A4
100
AcDbEntity
  8
Системный слой
  6
K5LT_BASIC
 62
     5
420
      255
370
    60
100
AcDbLine
 10
-132.3095049211438
 20
140.8762951907106
 30
0.0
 11
-153.8596083227199
 21
138.7988882296218
 31
0.0
  0
LINE
  5
143
330
A4
100
AcDbEntity
  8
Системный слой
  6
K5LT_BASIC
 62
     5
420
      255
370
    60
100
AcDbLine
 10
-153.8596083227199
 20
138.7988882296218
 30
0.0
 11
-172.3538027593763
 21
136.0602098887543
 31
0.0
  0
LINE
  5
144
330
A4
100
AcDbEntity
  8
Системный слой
  6
K5LT_BASIC
 62
     5
420
      255
370
    60
100
AcDbLine
 10
-172.3538027593763
 20
136.0602098887543
 30
0.0
 11
-183.8260395627244
 21
133.4869591119
 31
0.0
  0
LINE
  5
145
330
A4
100
AcDbEntity
  8
Системный слой
  6
K5LT_BASIC
 62
     5
420
      255
370
    60
100
AcDbLine
 10
-183.8260395627244
 20
133.4869591119
 30
0.0
 11
-191.4999126521757
 21
131.0283792212726
 31
0.0
  0
LINE
  5
146
330
A4
100
AcDbEntity
  8
Системный слой
  6
K5LT_BASIC
 62
     5
420
      255
370
    60
100
AcDbLine
 10
-191.4999126521757
 20
131.0283792212726
 30
0.0
 11
-197.4314047888706
 21
128.3745042523656
 31
0.0
  0
LINE
  5
147
330
A4
100
AcDbEntity
  8
Системный слой
  6
K5LT_BASIC
 62
     5
420
      255
370
    60
100
AcDbLine
 10
-197.4314047888706
 20
128.3745042523656
 30
0.0
 11
-201.1193754164747
 21
126.0833741021274
 31
0.0
  0
LINE
  5
148
330
A4
100
AcDbEntity
  8
Системный слой
  6
K5LT_BASIC
 62
     5
420
      255
370
    60
100
AcDbLine
 10
-201.1193754164747
 20
126.0833741021274
 30
0.0
 11
-203.3939392527732
 21
124.1445061969694
 31
0.0
  0
LINE
  5
149
330
A4
100
AcDbEntity
  8
Системный слой
  6
K5LT_BASIC
 62
     5
420
      255
370
    60
100
AcDbLine
 10
-203.3939392527732
 20
124.1445061969694
 30
0.0
 11
-204.9463697978549
 21
122.2368973761681
 31
0.0
  0
LINE
  5
14A
330
A4
100
AcDbEntity
  8
Системный слой
  6
K5LT_BASIC
 62
     5
420
      255
370
    60
100
AcDbLine
 10
-204.9463697978549
 20
122.2368973761681
 30
0.0
 11
-205.8016749446365
 21
120.5136540342141
 31
0.0
  0
LINE
  5
14B
330
A4
100
AcDbEntity
  8
Системный слой
  6
K5LT_BASIC
 62
     5
420
      255
370
    60
100
AcDbLine
 10
-205.8016749446365
 20
120.5136540342141
 30
0.0
 11
-206.1520325621527
 21
118.9357794996363
 31
0.0
  0
LINE
  5
14C
330
A4
100
AcDbEntity
  8
Системный слой
  6
K5LT_BASIC
 62
     5
420
      255
370
    60
100
AcDbLine
 10
-206.1520325621527
 20
118.9357794996363
 30
0.0
 11
-206.144892759969
 21
117.3667627859181
 31
0.0
  0
LINE
  5
14D
330
A4
100
AcDbEntity
  8
Системный слой
  6
K5LT_BASIC
 62
     5
420
      255
370
    60
100
AcDbLine
 10
-206.144892759969
 20
117.3667627859181
 30
0.0
 11
-205.8554948210508
 21
115.8989121985874
 31
0.0
  0
LINE
  5
14E
330
A4
100
AcDbEntity
  8
Системный слой
  6
K5LT_BASIC
 62
     5
420
      255
370
    60
100
AcDbLine
 10
-205.8554948210508
 20
115.8989121985874
 30
0.0
 11
-205.3814347416869
 21
114.5532659150508
 31
0.0
  0
LINE
  5
14F
330
A4
100
AcDbEntity
  8
Системный слой
  6
K5LT_BASIC
 62
     5
420
      255
370
    60
100
AcDbLine
 10
-205.3814347416869
 20
114.5532659150508
 30
0.0
 11
-204.7430094638171
 21
113.2344523640272
 31
0.0
  0
LINE
  5
150
330
A4
100
AcDbEntity
  8
Системный слой
  6
K5LT_BASIC
 62
     5
420
      255
370
    60
100
AcDbLine
 10
-204.7430094638171
 20
113.2344523640272
 30
0.0
 11
-203.4677211452567
 21
111.2480899294228
 31
0.0
  0
LINE
  5
151
330
A4
100
AcDbEntity
  8
Системный слой
  6
K5LT_BASIC
 62
     5
420
      255
370
    60
100
AcDbLine
 10
-203.4677211452567
 20
111.2480899294228
 30
0.0
 11
-200.2996305997808
 21
108.1520185022623
 31
0.0
  0
LINE
  5
152
330
A4
100
AcDbEntity
  8
Системный слой
  6
K5LT_BASIC
 62
     5
420
      255
370
    60
100
AcDbLine
 10
-200.2996305997808
 20
108.1520185022623
 30
0.0
 11
-195.3197958654114
 21
105.4297836178525
 31
0.0
  0
LINE
  5
153
330
A4
100
AcDbEntity
  8
Системный слой
  6
K5LT_BASIC
 62
     5
420
      255
370
    60
100
AcDbLine
 10
-195.3197958654114
 20
105.4297836178525
 30
0.0
 11
-187.5506606730237
 21
102.9285231732588
 31
0.0
  0
LINE
  5
154
330
A4
100
AcDbEntity
  8
Системный слой
  6
K5LT_BASIC
 62
     5
420
      255
370
    60
100
AcDbLine
 10
-187.5506606730237
 20
102.9285231732588
 30
0.0
 11
-175.4034061056741
 21
100.5223676207738
 31
0.0
  0
LINE
  5
155
330
A4
100
AcDbEntity
  8
Системный слой
  6
K5LT_BASIC
 62
     5
420
      255
370
    60
100
AcDbLine
 10
-175.4034061056741
 20
100.5223676207738
 30
0.0
 11
-158.7492025639299
 21
98.40686731082178
 31
0.0
  0
LINE
  5
156
330
A4
100
AcDbEntity
  8
Системный слой
  6
K5LT_BASIC
 62
     5
420
      255
370
    60
100
AcDbLine
 10
-158.7492025639299
 20
98.40686731082178
 30
0.0
 11
-137.6887836272431
 21
96.57001280269878
 31
0.0
  0
LINE
  5
157
330
A4
100
AcDbEntity
  8
Системный слой
  6
K5LT_BASIC
 62
     5
420
      255
370
    60
100
AcDbLine
 10
-137.6887836272431
 20
96.57001280269878
 30
0.0
 11
-117.0491018393918
 21
95.18870460772496
 31
0.0
  0
LINE
  5
158
330
A4
100
AcDbEntity
  8
Системный слой
  6
K5LT_BASIC
 62
     5
420
      255
370
    60
100
AcDbLine
 10
-117.0491018393918
 20
95.18870460772496
 30
0.0
 11
-94.16962972915144
 21
93.86863528902677
 31
0.0
  0
LINE
  5
159
330
A4
100
AcDbEntity
  8
Системный слой
  6
K5LT_BASIC
 62
     5
420
      255
370
    60
100
AcDbLine
 10
-50.25286703790016
 20
91.50213135441345
 30
0.0
 11
-30.31102406709897
 21
90.37662123655127
 31
0.0
  0
LINE
  5
15A
330
A4
100
AcDbEntity
  8
Системный слой
  6
K5LT_BASIC
 62
     5
420
      255
370
    60
100
AcDbLine
 10
-30.31102406709897
 20
90.37662123655127
 30
0.0
 11
-10.9145247008214
 21
89.18231588839853
 31
0.0
  0
LINE
  5
15B
330
A4
100
AcDbEntity
  8
Системный слой
  6
K5LT_BASIC
 62
     5
420
      255
370
    60
100
AcDbLine
 10
-0.4325848060057069
 20
40.44829132040513
 30
0.0
 11
12.64527612562551
 21
41.56986374715189
 31
0.0
  0
LINE
  5
15C
330
A4
100
AcDbEntity
  8
Системный слой
  6
K5LT_BASIC
 62
     5
420
      255
370
    60
100
AcDbLine
 10
12.64527612562551
 20
41.56986374715189
 30
0.0
 11
26.62653087769149
 21
43.2078770923813
 31
0.0
  0
LINE
  5
15D
330
A4
100
AcDbEntity
  8
Системный слой
  6
K5LT_BASIC
 62
     5
420
      255
370
    60
100
AcDbLine
 10
26.62653087769149
 20
43.2078770923813
 30
0.0
 11
39.01939596033526
 21
44.92204383730905
 31
0.0
  0
LINE
  5
15E
330
A4
100
AcDbEntity
  8
Системный слой
  6
K5LT_BASIC
 62
     5
420
      255
370
    60
100
AcDbLine
 10
39.01939596033526
 20
44.92204383730905
 30
0.0
 11
51.56689240098194
 21
47.10113712243356
 31
0.0
  0
LINE
  5
15F
330
A4
100
AcDbEntity
  8
Системный слой
  6
K5LT_BASIC
 62
     5
420
      255
370
    60
100
AcDbLine
 10
51.56689240098194
 20
47.10113712243356
 30
0.0
 11
62.15016327814237
 21
49.55810221446927
 31
0.0
  0
LINE
  5
160
330
A4
100
AcDbEntity
  8
Системный слой
  6
K5LT_BASIC
 62
     5
420
      255
370
    60
100
AcDbLine
 10
62.15016327814237
 20
49.55810221446927
 30
0.0
 11
70.16165203659466
 21
52.15081865887305
 31
0.0
  0
LINE
  5
161
330
A4
100
AcDbEntity
  8
Системный слой
  6
K5LT_BASIC
 62
     5
420
      255
370
    60
100
AcDbLine
 10
70.16165203659466
 20
52.15081865887305
 30
0.0
 11
75.5113870948212
 21
54.63279590342472
 31
0.0
  0
LINE
  5
162
330
A4
100
AcDbEntity
  8
Системный слой
  6
K5LT_BASIC
 62
     5
420
      255
370
    60
100
AcDbLine
 10
75.5113870948212
 20
54.63279590342472
 30
0.0
 11
78.895475299179
 21
56.9721283883996
 31
0.0
  0
LINE
  5
163
330
A4
100
AcDbEntity
  8
Системный слой
  6
K5LT_BASIC
 62
     5
420
      255
370
    60
100
AcDbLine
 10
78.895475299179
 20
56.9721283883996
 30
0.0
 11
81.0159709415525
 21
59.34720860064454
 31
0.0
  0
LINE
  5
164
330
A4
100
AcDbEntity
  8
Системный слой
  6
K5LT_BASIC
 62
     5
420
      255
370
    60
100
AcDbLine
 10
81.0159709415525
 20
59.34720860064454
 30
0.0
 11
81.98742001180153
 21
61.32128046390562
 31
0.0
  0
LINE
  5
165
330
A4
100
AcDbEntity
  8
Системный слой
  6
K5LT_BASIC
 62
     5
420
      255
370
    60
100
AcDbLine
 10
81.98742001180153
 20
61.32128046390562
 30
0.0
 11
81.979397162439
 21
62.78727479147938
 31
0.0
  0
LINE
  5
166
330
A4
100
AcDbEntity
  8
Системный слой
  6
K5LT_BASIC
 62
     5
420
      255
370
    60
100
AcDbLine
 10
81.979397162439
 20
62.78727479147938
 30
0.0
 11
80.93732153321298
 21
64.36795893873705
 31
0.0
  0
LINE
  5
167
330
A4
100
AcDbEntity
  8
Системный слой
  6
K5LT_BASIC
 62
     5
420
      255
370
    60
100
AcDbLine
 10
80.93732153321298
 20
64.36795893873705
 30
0.0
 11
77.69412000240891
 21
66.46991874339483
 31
0.0
  0
LINE
  5
168
330
A4
100
AcDbEntity
  8
Системный слой
  6
K5LT_BASIC
 62
     5
420
      255
370
    60
100
AcDbLine
 10
77.69412000240891
 20
66.46991874339483
 30
0.0
 11
69.33053979016358
 21
69.5533817317505
 31
0.0
  0
LINE
  5
169
330
A4
100
AcDbEntity
  8
Системный слой
  6
K5LT_BASIC
 62
     5
420
      255
370
    60
100
AcDbLine
 10
69.33053979016358
 20
69.5533817317505
 30
0.0
 11
56.23230880781966
 21
72.46038673738485
 31
0.0
  0
LINE
  5
16A
330
A4
100
AcDbEntity
  8
Системный слой
  6
K5LT_BASIC
 62
     5
420
      255
370
    60
100
AcDbLine
 10
56.23230880781966
 20
72.46038673738485
 30
0.0
 11
38.99340034613624
 21
74.9446335630787
 31
0.0
  0
LINE
  5
16B
330
A4
100
AcDbEntity
  8
Системный слой
  6
K5LT_BASIC
 62
     5
420
      255
370
    60
100
AcDbLine
 10
38.99340034613624
 20
74.9446335630787
 30
0.0
 11
26.98938611811218
 21
76.22089094474768
 31
0.0
  0
LINE
  5
16C
330
A4
100
AcDbEntity
  8
Системный слой
  6
K5LT_BASIC
 62
     5
420
      255
370
    60
100
AcDbLine
 10
26.98938611811218
 20
76.22089094474768
 30
0.0
 11
13.62712944080113
 21
77.40083074564927
 31
0.0
  0
LINE
  5
16D
330
A4
100
AcDbEntity
  8
Системный слой
  6
K5LT_BASIC
 62
     5
420
      255
370
    60
100
AcDbLine
 10
13.62712944080113
 20
77.40083074564927
 30
0.0
 11
-0.8394247008204729
 21
78.49701588839935
 31
0.0
  0
LINE
  5
16E
330
A4
100
AcDbEntity
  8
Системный слой
  6
K5LT_BASIC
 62
     5
420
      255
370
    60
100
AcDbLine
 10
-12.52346527115651
 20
239.6545433392007
 30
0.0
 11
-19.32222732472792
 21
239.4733995618685
 31
0.0
  0
LINE
  5
16F
330
A4
100
AcDbEntity
  8
Системный слой
  6
K5LT_BASIC
 62
     5
420
      255
370
    60
100
AcDbLine
 10
-19.32222732472792
 20
239.4733995618685
 30
0.0
 11
-27.09560874783301
 21
239.1491059713076
 31
0.0
  0
LINE
  5
170
330
A4
100
AcDbEntity
  8
Системный слой
  6
K5LT_BASIC
 62
     5
420
      255
370
    60
100
AcDbLine
 10
-46.08721220082089
 20
238.4137940133992
 30
0.0
 11
-57.85470662501984
 21
237.9011529146378
 31
0.0
  0
LINE
  5
171
330
A4
100
AcDbEntity
  8
Системный слой
  6
K5LT_BASIC
 62
     5
420
      255
370
    60
100
AcDbLine
 10
-57.85470662501984
 20
237.9011529146378
 30
0.0
 11
-68.93625739032586
 21
237.2818627998427
 31
0.0
  0
LINE
  5
172
330
A4
100
AcDbEntity
  8
Системный слой
  6
K5LT_BASIC
 62
     5
420
      255
370
    60
100
AcDbLine
 10
-68.93625739032586
 20
237.2818627998427
 30
0.0
 11
-79.44433464980057
 21
236.4527301741132
 31
0.0
  0
LINE
  5
173
330
A4
100
AcDbEntity
  8
Системный слой
  6
K5LT_BASIC
 62
     5
420
      255
370
    60
100
AcDbLine
 10
-79.44433464980057
 20
236.4527301741132
 30
0.0
 11
-88.62993008985222
 21
235.3866985414593
 31
0.0
  0
LINE
  5
174
330
A4
100
AcDbEntity
  8
Системный слой
  6
K5LT_BASIC
 62
     5
420
      255
370
    60
100
AcDbLine
 10
-88.62993008985222
 20
235.3866985414593
 30
0.0
 11
-96.25984510898388
 21
234.0870893577871
 31
0.0
  0
LINE
  5
175
330
A4
100
AcDbEntity
  8
Системный слой
  6
K5LT_BASIC
 62
     5
420
      255
370
    60
100
AcDbLine
 10
-96.25984510898388
 20
234.0870893577871
 30
0.0
 11
-102.0394879342398
 21
232.6533335542158
 31
0.0
  0
LINE
  5
176
330
A4
100
AcDbEntity
  8
Системный слой
  6
K5LT_BASIC
 62
     5
420
      255
370
    60
100
AcDbLine
 10
-102.0394879342398
 20
232.6533335542158
 30
0.0
 11
-106.1919872008207
 21
231.1571908883984
 31
0.0
  0
LINE
  5
177
330
A4
100
AcDbEntity
  8
Системный слой
  6
K5LT_BASIC
 62
     5
420
      255
370
    60
100
AcDbLine
 10
-106.1919872008207
 20
231.1571908883984
 30
0.0
 11
-109.0842649112806
 21
229.5253525593175
 31
0.0
  0
LINE
  5
178
330
A4
100
AcDbEntity
  8
Системный слой
  6
K5LT_BASIC
 62
     5
420
      255
370
    60
100
AcDbLine
 10
-109.0842649112806
 20
229.5253525593175
 30
0.0
 11
-110.254810123562
 21
228.4057313402941
 31
0.0
  0
LINE
  5
179
330
A4
100
AcDbEntity
  8
Системный слой
  6
K5LT_BASIC
 62
     5
420
      255
370
    60
100
AcDbLine
 10
-110.254810123562
 20
228.4057313402941
 30
0.0
 11
-110.1642565612442
 21
227.9359357681365
 31
0.0
  0
LINE
  5
17A
330
A4
100
AcDbEntity
  8
Системный слой
  6
K5LT_BASIC
 62
     5
420
      255
370
    60
100
AcDbLine
 10
-110.1642565612442
 20
227.9359357681365
 30
0.0
 11
-109.5606621643778
 21
227.2458196056
 31
0.0
  0
LINE
  5
17B
330
A4
100
AcDbEntity
  8
Системный слой
  6
K5LT_BASIC
 62
     5
420
      255
370
    60
100
AcDbLine
 10
-109.5606621643778
 20
227.2458196056
 30
0.0
 11
-107.2322831191891
 21
225.6099762109211
 31
0.0
  0
LINE
  5
17C
330
A4
100
AcDbEntity
  8
Системный слой
  6
K5LT_BASIC
 62
     5
420
      255
370
    60
100
AcDbLine
 10
-107.2322831191891
 20
225.6099762109211
 30
0.0
 11
-100.1793389865356
 21
222.3273255093904
 31
0.0
  0
LINE
  5
17D
330
A4
100
AcDbEntity
  8
Системный слой
  6
K5LT_BASIC
 62
     5
420
      255
370
    60
100
AcDbLine
 10
-100.1793389865356
 20
222.3273255093904
 30
0.0
 11
-89.13301220082076
 21
218.7678815133991
 31
0.0
  0
LINE
  5
17E
330
A4
100
AcDbEntity
  8
Системный слой
  6
K5LT_BASIC
 62
     5
420
      255
370
    60
100
AcDbLine
 10
-89.13301220082076
 20
218.7678815133991
 30
0.0
 11
-74.65860979557374
 21
215.1997885924807
 31
0.0
  0
LINE
  5
17F
330
A4
100
AcDbEntity
  8
Системный слой
  6
K5LT_BASIC
 62
     5
420
      255
370
    60
100
AcDbLine
 10
-74.65860979557374
 20
215.1997885924807
 30
0.0
 11
-61.17197462337981
 21
212.3990129866129
 31
0.0
  0
LINE
  5
180
330
A4
100
AcDbEntity
  8
Системный слой
  6
K5LT_BASIC
 62
     5
420
      255
370
    60
100
AcDbLine
 10
-61.17197462337981
 20
212.3990129866129
 30
0.0
 11
-46.03782557545719
 21
209.5112811945214
 31
0.0
  0
LINE
  5
181
330
A4
100
AcDbEntity
  8
Системный слой
  6
K5LT_BASIC
 62
     5
420
      255
370
    60
100
AcDbLine
 10
-18.44436208238085
 20
204.4325677151123
 30
0.0
 11
-12.13422470082105
 21
203.2563158883991
 31
0.0
  0
LINE
  5
182
330
A4
100
AcDbEntity
  8
Системный слой
  6
K5LT_BASIC
 62
     5
420
      255
370
    60
100
AcDbLine
 10
-13.30081884056608
 20
312.3452333940336
 30
0.0
 11
-13.29196159037792
 21
368.3234644984664
 31
0.0
  0
LINE
  5
183
330
A4
100
AcDbEntity
  8
Системный слой
  6
K5LT_BASIC
 62
     5
420
      255
370
    60
100
AcDbLine
 10
-13.29196159037792
 20
368.3234644984664
 30
0.0
 11
-12.35674988865003
 21
399.2771672219828
 31
0.0
  0
LINE
  5
184
330
A4
100
AcDbEntity
  8
Системный слой
  6
K5LT_BASIC
 62
     5
420
      255
370
    60
100
AcDbLine
 10
-12.35674988865003
 20
399.2771672219828
 30
0.0
 11
-12.18251996753816
 21
405.842437901922
 31
0.0
  0
LINE
  5
185
330
A4
100
AcDbEntity
  8
Системный слой
  6
K5LT_BASIC
 62
     5
420
      255
370
    60
100
AcDbLine
 10
-12.18251996753816
 20
405.842437901922
 30
0.0
 11
-15.3918955873728
 21
398.1136363147702
 31
0.0
  0
LINE
  5
186
330
A4
100
AcDbEntity
  8
Системный слой
  6
K5LT_BASIC
 62
     5
420
      255
370
    60
100
AcDbLine
 10
-15.3918955873728
 20
398.1136363147702
 30
0.0
 11
-20.08004934394694
 21
386.5460557832143
 31
0.0
  0
LINE
  5
187
330
A4
100
AcDbEntity
  8
Системный слой
  6
K5LT_BASIC
 62
     5
420
      255
370
    60
100
AcDbLine
 10
-20.08004934394694
 20
386.5460557832143
 30
0.0
 11
-25.16244693973886
 21
373.5814948234106
 31
0.0
  0
LINE
  5
188
330
A4
100
AcDbEntity
  8
Системный слой
  6
K5LT_BASIC
 62
     5
420
      255
370
    60
100
AcDbLine
 10
-25.16244693973886
 20
373.5814948234106
 30
0.0
 11
-30.18523304041582
 21
360.0686542054541
 31
0.0
  0
LINE
  5
189
330
A4
100
AcDbEntity
  8
Системный слой
  6
K5LT_BASIC
 62
     5
420
      255
370
    60
100
AcDbLine
 10
-30.18523304041582
 20
360.0686542054541
 30
0.0
 11
-34.74693720082041
 21
346.7287908883995
 31
0.0
  0
LINE
  5
18A
330
A4
100
AcDbEntity
  8
Системный слой
  6
K5LT_BASIC
 62
     5
420
      255
370
    60
100
AcDbLine
 10
-34.74693720082041
 20
346.7287908883995
 30
0.0
 11
-38.43748412982177
 21
334.2988089763026
 31
0.0
  0
LINE
  5
18B
330
A4
100
AcDbEntity
  8
Системный слой
  6
K5LT_BASIC
 62
     5
420
      255
370
    60
100
AcDbLine
 10
-38.43748412982177
 20
334.2988089763026
 30
0.0
 11
-40.77220655656902
 21
323.91427335459
 31
0.0
  0
LINE
  5
18C
330
A4
100
AcDbEntity
  8
Системный слой
  6
K5LT_BASIC
 62
     5
420
      255
370
    60
100
AcDbLine
 10
-40.77220655656902
 20
323.91427335459
 30
0.0
 11
-41.63432808173775
 21
315.9738835067315
 31
0.0
  0
LINE
  5
18D
330
A4
100
AcDbEntity
  8
Системный слой
  6
K5LT_BASIC
 62
     5
420
      255
370
    60
100
AcDbLine
 10
-41.63432808173775
 20
315.9738835067315
 30
0.0
 11
-41.1599865715948
 21
309.7323321261906
 31
0.0
  0
LINE
  5
18E
330
A4
100
AcDbEntity
  8
Системный слой
  6
K5LT_BASIC
 62
     5
420
      255
370
    60
100
AcDbLine
 10
-41.1599865715948
 20
309.7323321261906
 30
0.0
 11
-39.38605347617749
 21
304.9732206968142
 31
0.0
  0
LINE
  5
18F
330
A4
100
AcDbEntity
  8
Системный слой
  6
K5LT_BASIC
 62
     5
420
      255
370
    60
100
AcDbLine
 10
-39.38605347617749
 20
304.9732206968142
 30
0.0
 11
-36.30933456182765
 21
301.2623994064302
 31
0.0
  0
LINE
  5
190
330
A4
100
AcDbEntity
  8
Системный слой
  6
K5LT_BASIC
 62
     5
420
      255
370
    60
100
AcDbLine
 10
-36.30933456182765
 20
301.2623994064302
 30
0.0
 11
-31.84809322073079
 21
298.0953373008711
 31
0.0
  0
LINE
  5
191
330
A4
100
AcDbEntity
  8
Системный слой
  6
K5LT_BASIC
 62
     5
420
      255
370
    60
100
AcDbLine
 10
-31.84809322073079
 20
298.0953373008711
 30
0.0
 11
-26.3874725407909
 21
295.3983919590223
 31
0.0
  0
LINE
  5
192
330
A4
100
AcDbEntity
  8
Системный слой
  6
K5LT_BASIC
 62
     5
420
      255
370
    60
100
AcDbLine
 10
-26.3874725407909
 20
295.3983919590223
 30
0.0
 11
-22.29541545964867
 21
293.7489161137933
 31
0.0
  0
LINE
  5
193
330
A4
100
AcDbEntity
  8
Системный слой
  6
K5LT_BASIC
 62
     5
420
      255
370
    60
100
AcDbLine
 10
-22.29541545964867
 20
293.7489161137933
 30
0.0
 11
-17.83096021922893
 21
292.151707548805
 31
0.0
  0
LINE
  5
194
330
A4
100
AcDbEntity
  8
Системный слой
  6
K5LT_BASIC
 62
     5
420
      255
370
    60
100
AcDbLine
 10
-17.83096021922893
 20
292.151707548805
 30
0.0
 11
-13.06832470082054
 21
290.6013158883993
 31
0.0
  0
LINE
  5
195
330
A4
100
AcDbEntity
  8
Системный слой
  6
K5LT_BASIC
 62
     5
420
      255
370
    60
100
AcDbLine
 10
-2.677800876112542
 20
250.4269220290694
 30
0.0
 11
0.5588980397028536
 21
250.5442972295073
 31
0.0
  0
LINE
  5
196
330
A4
100
AcDbEntity
  8
Системный слой
  6
K5LT_BASIC
 62
     5
420
      255
370
    60
100
AcDbLine
 10
0.5588980397028536
 20
250.5442972295073
 30
0.0
 11
4.091256799726125
 21
250.8086094197411
 31
0.0
  0
LINE
  5
197
330
A4
100
AcDbEntity
  8
Системный слой
  6
K5LT_BASIC
 62
     5
420
      255
370
    60
100
AcDbLine
 10
4.091256799726125
 20
250.8086094197411
 30
0.0
 11
7.496419140286434
 21
251.0951228125973
 31
0.0
  0
LINE
  5
198
330
A4
100
AcDbEntity
  8
Системный слой
  6
K5LT_BASIC
 62
     5
420
      255
370
    60
100
AcDbLine
 10
7.496419140286434
 20
251.0951228125973
 30
0.0
 11
16.2300299866788
 21
252.0195096383991
 31
0.0
  0
LINE
  5
199
330
A4
100
AcDbEntity
  8
Системный слой
  6
K5LT_BASIC
 62
     5
420
      255
370
    60
100
AcDbLine
 10
16.2300299866788
 20
252.0195096383991
 30
0.0
 11
25.15379774815801
 21
253.3416462090986
 31
0.0
  0
LINE
  5
19A
330
A4
100
AcDbEntity
  8
Системный слой
  6
K5LT_BASIC
 62
     5
420
      255
370
    60
100
AcDbLine
 10
25.15379774815801
 20
253.3416462090986
 30
0.0
 11
32.55813362188337
 21
254.8885223570574
 31
0.0
  0
LINE
  5
19B
330
A4
100
AcDbEntity
  8
Системный слой
  6
K5LT_BASIC
 62
     5
420
      255
370
    60
100
AcDbLine
 10
32.55813362188337
 20
254.8885223570574
 30
0.0
 11
37.81516108635105
 21
256.399648432131
 31
0.0
  0
LINE
  5
19C
330
A4
100
AcDbEntity
  8
Системный слой
  6
K5LT_BASIC
 62
     5
420
      255
370
    60
100
AcDbLine
 10
37.81516108635105
 20
256.399648432131
 30
0.0
 11
41.4107471012926
 21
257.7983794224733
 31
0.0
  0
LINE
  5
19D
330
A4
100
AcDbEntity
  8
Системный слой
  6
K5LT_BASIC
 62
     5
420
      255
370
    60
100
AcDbLine
 10
41.4107471012926
 20
257.7983794224733
 30
0.0
 11
43.70324118839244
 21
259.155459911723
 31
0.0
  0
LINE
  5
19E
330
A4
100
AcDbEntity
  8
Системный слой
  6
K5LT_BASIC
 62
     5
420
      255
370
    60
100
AcDbLine
 10
43.70324118839244
 20
259.155459911723
 30
0.0
 11
44.30380512789588
 21
259.7424346292887
 31
0.0
  0
LINE
  5
19F
330
A4
100
AcDbEntity
  8
Системный слой
  6
K5LT_BASIC
 62
     5
420
      255
370
    60
100
AcDbLine
 10
44.30380512789588
 20
259.7424346292887
 30
0.0
 11
43.99953564903308
 21
260.1310922732387
 31
0.0
  0
LINE
  5
1A0
330
A4
100
AcDbEntity
  8
Системный слой
  6
K5LT_BASIC
 62
     5
420
      255
370
    60
100
AcDbLine
 10
43.99953564903308
 20
260.1310922732387
 30
0.0
 11
43.06719202202885
 21
261.0451928198859
 31
0.0
  0
LINE
  5
1A1
330
A4
100
AcDbEntity
  8
Системный слой
  6
K5LT_BASIC
 62
     5
420
      255
370
    60
100
AcDbLine
 10
43.06719202202885
 20
261.0451928198859
 30
0.0
 11
41.76458998576754
 21
262.0338759467072
 31
0.0
  0
LINE
  5
1A2
330
A4
100
AcDbEntity
  8
Системный слой
  6
K5LT_BASIC
 62
     5
420
      255
370
    60
100
AcDbLine
 10
41.76458998576754
 20
262.0338759467072
 30
0.0
 11
39.61129152549029
 21
263.3730187537417
 31
0.0
  0
LINE
  5
1A3
330
A4
100
AcDbEntity
  8
Системный слой
  6
K5LT_BASIC
 62
     5
420
      255
370
    60
100
AcDbLine
 10
39.61129152549029
 20
263.3730187537417
 30
0.0
 11
35.76198521171546
 21
265.3146278417521
 31
0.0
  0
LINE
  5
1A4
330
A4
100
AcDbEntity
  8
Системный слой
  6
K5LT_BASIC
 62
     5
420
      255
370
    60
100
AcDbLine
 10
35.76198521171546
 20
265.3146278417521
 30
0.0
 11
31.0108159241795
 21
267.2793237008996
 31
0.0
  0
LINE
  5
1A5
330
A4
100
AcDbEntity
  8
Системный слой
  6
K5LT_BASIC
 62
     5
420
      255
370
    60
100
AcDbLine
 10
31.0108159241795
 20
267.2793237008996
 30
0.0
 11
25.37703863737124
 21
269.2524155604101
 31
0.0
  0
LINE
  5
1A6
330
A4
100
AcDbEntity
  8
Системный слой
  6
K5LT_BASIC
 62
     5
420
      255
370
    60
100
AcDbLine
 10
25.37703863737124
 20
269.2524155604101
 30
0.0
 11
18.88127773175938
 21
271.2391360004617
 31
0.0
  0
LINE
  5
1A7
330
A4
100
AcDbEntity
  8
Системный слой
  6
K5LT_BASIC
 62
     5
420
      255
370
    60
100
AcDbLine
 10
18.88127773175938
 20
271.2391360004617
 30
0.0
 11
11.69995838955811
 21
273.2632960633259
 31
0.0
  0
LINE
  5
1A8
330
A4
100
AcDbEntity
  8
Системный слой
  6
K5LT_BASIC
 62
     5
420
      255
370
    60
100
AcDbLine
 10
-0.4111368546105041
 20
276.5575108364678
 30
0.0
 11
-2.964824700820373
 21
277.2593158883988
 31
0.0
  0
LINE
  5
1A9
330
A4
100
AcDbEntity
  8
Системный слой
  6
K5LT_BASIC
 62
     5
420
      255
370
    60
100
AcDbLine
 10
-1.631562179221419
 20
152.5839969827989
 30
0.0
 11
3.311453270378934
 21
152.1674278627984
 31
0.0
  0
LINE
  5
1AA
330
A4
100
AcDbEntity
  8
Системный слой
  6
K5LT_BASIC
 62
     5
420
      255
370
    60
100
AcDbLine
 10
3.311453270378934
 20
152.1674278627984
 30
0.0
 11
8.725796899179386
 21
151.8942150883991
 31
0.0
  0
LINE
  5
1AB
330
A4
100
AcDbEntity
  8
Системный слой
  6
K5LT_BASIC
 62
     5
420
      255
370
    60
100
AcDbLine
 10
8.725796899179386
 20
151.8942150883991
 30
0.0
 11
13.90344907197914
 21
151.6235336419991
 31
0.0
  0
LINE
  5
1AC
330
A4
100
AcDbEntity
  8
Системный слой
  6
K5LT_BASIC
 62
     5
420
      255
370
    60
100
AcDbLine
 10
13.90344907197914
 20
151.6235336419991
 30
0.0
 11
31.34809740477931
 21
150.7575172963993
 31
0.0
  0
LINE
  5
1AD
330
A4
100
AcDbEntity
  8
Системный слой
  6
K5LT_BASIC
 62
     5
420
      255
370
    60
100
AcDbLine
 10
31.34809740477931
 20
150.7575172963993
 30
0.0
 11
48.99502240957963
 21
150.4646876003994
 31
0.0
  0
LINE
  5
1AE
330
A4
100
AcDbEntity
  8
Системный слой
  6
K5LT_BASIC
 62
     5
420
      255
370
    60
100
AcDbLine
 10
48.99502240957963
 20
150.4646876003994
 30
0.0
 11
62.60341265597935
 21
151.7426452323984
 31
0.0
  0
LINE
  5
1AF
330
A4
100
AcDbEntity
  8
Системный слой
  6
K5LT_BASIC
 62
     5
420
      255
370
    60
100
AcDbLine
 10
62.60341265597935
 20
151.7426452323984
 30
0.0
 11
69.11672569917891
 21
153.604133488398
 31
0.0
  0
LINE
  5
1B0
330
A4
100
AcDbEntity
  8
Системный слой
  6
K5LT_BASIC
 62
     5
420
      255
370
    60
100
AcDbLine
 10
69.11672569917891
 20
153.604133488398
 30
0.0
 11
72.40750288957815
 21
155.1792650339989
 31
0.0
  0
LINE
  5
1B1
330
A4
100
AcDbEntity
  8
Системный слой
  6
K5LT_BASIC
 62
     5
420
      255
370
    60
100
AcDbLine
 10
72.40750288957815
 20
155.1792650339989
 30
0.0
 11
75.02961381437808
 21
157.0290112611988
 31
0.0
  0
LINE
  5
1B2
330
A4
100
AcDbEntity
  8
Системный слой
  6
K5LT_BASIC
 62
     5
420
      255
370
    60
100
AcDbLine
 10
75.02961381437808
 20
157.0290112611988
 30
0.0
 11
76.49864987197952
 21
158.5771096163994
 31
0.0
  0
LINE
  5
1B3
330
A4
100
AcDbEntity
  8
Системный слой
  6
K5LT_BASIC
 62
     5
420
      255
370
    60
100
AcDbLine
 10
76.49864987197952
 20
158.5771096163994
 30
0.0
 11
77.1753228447783
 21
159.6533510243994
 31
0.0
  0
LINE
  5
1B4
330
A4
100
AcDbEntity
  8
Системный слой
  6
K5LT_BASIC
 62
     5
420
      255
370
    60
100
AcDbLine
 10
77.1753228447783
 20
159.6533510243994
 30
0.0
 11
77.55583289917786
 21
160.7266678883993
 31
0.0
  0
LINE
  5
1B5
330
A4
100
AcDbEntity
  8
Системный слой
  6
K5LT_BASIC
 62
     5
420
      255
370
    60
100
AcDbLine
 10
77.55583289917786
 20
160.7266678883993
 30
0.0
 11
77.61366479677827
 21
161.8304979299996
 31
0.0
  0
LINE
  5
1B6
330
A4
100
AcDbEntity
  8
Системный слой
  6
K5LT_BASIC
 62
     5
420
      255
370
    60
100
AcDbLine
 10
77.61366479677827
 20
161.8304979299996
 30
0.0
 11
77.29817147197946
 21
163.0926399331988
 31
0.0
  0
LINE
  5
1B7
330
A4
100
AcDbEntity
  8
Системный слой
  6
K5LT_BASIC
 62
     5
420
      255
370
    60
100
AcDbLine
 10
77.29817147197946
 20
163.0926399331988
 30
0.0
 11
76.57443883837959
 21
164.4777651555992
 31
0.0
  0
LINE
  5
1B8
330
A4
100
AcDbEntity
  8
Системный слой
  6
K5LT_BASIC
 62
     5
420
      255
370
    60
100
AcDbLine
 10
76.57443883837959
 20
164.4777651555992
 30
0.0
 11
75.02345477437802
 21
166.408620080399
 31
0.0
  0
LINE
  5
1B9
330
A4
100
AcDbEntity
  8
Системный слой
  6
K5LT_BASIC
 62
     5
420
      255
370
    60
100
AcDbLine
 10
75.02345477437802
 20
166.408620080399
 30
0.0
 11
71.03849369917907
 21
169.7214438883989
 31
0.0
  0
LINE
  5
1BA
330
A4
100
AcDbEntity
  8
Системный слой
  6
K5LT_BASIC
 62
     5
420
      255
370
    60
100
AcDbLine
 10
71.03849369917907
 20
169.7214438883989
 30
0.0
 11
65.19045063997828
 21
173.086307376399
 31
0.0
  0
LINE
  5
1BB
330
A4
100
AcDbEntity
  8
Системный слой
  6
K5LT_BASIC
 62
     5
420
      255
370
    60
100
AcDbLine
 10
65.19045063997828
 20
173.086307376399
 30
0.0
 11
56.66374032317935
 21
176.691797763599
 31
0.0
  0
LINE
  5
1BC
330
A4
100
AcDbEntity
  8
Системный слой
  6
K5LT_BASIC
 62
     5
420
      255
370
    60
100
AcDbLine
 10
56.66374032317935
 20
176.691797763599
 30
0.0
 11
40.11436611517956
 21
181.8078957091998
 31
0.0
  0
LINE
  5
1BD
330
A4
100
AcDbEntity
  8
Системный слой
  6
K5LT_BASIC
 62
     5
420
      255
370
    60
100
AcDbLine
 10
40.11436611517956
 20
181.8078957091998
 30
0.0
 11
20.08537437117911
 21
186.6306471459998
 31
0.0
  0
LINE
  5
1BE
330
A4
100
AcDbEntity
  8
Системный слой
  6
K5LT_BASIC
 62
     5
420
      255
370
    60
100
AcDbLine
 10
20.08537437117911
 20
186.6306471459998
 30
0.0
 11
-2.044324700822017
 21
191.183015888399
 31
0.0
  0
LINE
  5
1BF
330
A4
100
AcDbEntity
  8
Системный слой
  6
K5LT_BASIC
 62
     5
420
      255
370
    60
100
AcDbLine
 10
-10.27220437413916
 20
29.10582235949232
 30
0.0
 11
-61.71540628072171
 21
24.99445349679127
 31
0.0
  0
LINE
  5
1C0
330
A4
100
AcDbEntity
  8
Системный слой
  6
K5LT_BASIC
 62
     5
420
      255
370
    60
100
AcDbLine
 10
-10.47786538984337
 20
48.34636944380554
 30
0.0
 11
-10.8067203473006
 21
79.10159102046646
 31
0.0
  0
LINE
  5
1C1
330
A4
100
AcDbEntity
  8
Системный слой
  6
K5LT_BASIC
 62
     5
420
      255
370
    60
100
AcDbLine
 10
-50.01971194465887
 20
81.50127569273036
 30
0.0
 11
-95.6519370653009
 21
83.96144984882494
 31
0.0
  0
LINE
  5
1C2
330
A4
100
AcDbEntity
  8
Системный слой
  6
K5LT_BASIC
 62
     5
420
      255
370
    60
100
AcDbLine
 10
-11.68372000671343
 20
161.1257285306606
 30
0.0
 11
-12.02339521482145
 21
192.8855576533356
 31
0.0
  0
LINE
  5
1C3
330
A4
100
AcDbEntity
  8
Системный слой
  6
K5LT_BASIC
 62
     5
420
      255
370
    60
100
AcDbLine
 10
-48.2006197782398
 20
199.7750654954302
 30
0.0
 11
-18.28815663412161
 21
194.266207004996
 31
0.0
  0
LINE
  5
1C4
330
A4
100
AcDbEntity
  8
Системный слой
  6
K5LT_BASIC
 62
     5
420
      255
370
    60
100
AcDbLine
 10
-21.92441119243767
 20
249.3359541407231
 30
0.0
 11
-51.82110036930544
 21
248.1539015506855
 31
0.0
  0
LINE
  5
1C5
330
A4
100
AcDbEntity
  8
Системный слой
  6
K5LT_BASIC
 62
     5
420
      255
370
    60
100
AcDbLine
 10
-12.69352096814282
 20
255.5523427988551
 30
0.0
 11
-12.95340967022867
 21
279.860022937632
 31
0.0
  0
LINE
  5
1C6
330
A4
100
AcDbEntity
  8
Системный слой
  6
K5LT_BASIC
 62
     5
420
      255
370
    60
100
AcDbLine
 10
-3.079115707699657
 20
287.9548672427486
 30
0.0
 11
-3.607943240420809
 21
336.9780264522628
 31
0.0
  0
LINE
  5
1C7
330
A4
100
AcDbEntity
  8
Системный слой
  6
K5LT_BASIC
 62
     5
420
      255
370
    60
100
AcDbLine
 10
3.309683844644042
 20
285.8932026623556
 30
0.0
 11
13.86055402647753
 21
283.0249045863497
 31
0.0
  0
LINE
  5
1C8
330
A4
100
AcDbEntity
  8
Системный слой
  6
K5LT_BASIC
 62
     5
420
      255
370
    60
100
AcDbLine
 10
-2.502313323166618
 20
234.0085991791707
 30
0.0
 11
-2.16045771688232
 21
202.0423126797446
 31
0.0
  0
LINE
  5
1C9
330
A4
100
AcDbEntity
  8
Системный слой
  6
K5LT_BASIC
 62
     5
420
      255
370
    60
100
AcDbLine
 10
21.10192309508648
 20
141.2598690210239
 30
0.0
 11
5.538983039128198
 21
142.0714257553395
 31
0.0
  0
LINE
  5
1CA
330
A4
100
AcDbEntity
  8
Системный слой
  6
K5LT_BASIC
 62
     5
420
      255
370
    60
100
AcDbLine
 10
-1.436377685722164
 20
134.3313952807398
 30
0.0
 11
-0.9595590224721491
 21
89.73768258480641
 31
0.0
  0
LINE
  5
1CB
330
A4
100
AcDbEntity
  8
Системный слой
  6
K5LT_BASIC
 62
     5
420
      255
370
    60
100
AcDbLine
 10
-94.16962972915144
 20
93.86863528902677
 30
0.0
 11
-50.25286703790016
 21
91.50213135441345
 31
0.0
  0
LINE
  5
1CC
330
A4
100
AcDbEntity
  8
Системный слой
  6
K5LT_BASIC
 62
     5
420
      255
370
    60
100
AcDbLine
 10
-0.4325848060057069
 20
40.44829132040513
 30
0.0
 11
-0.8394247008204729
 21
78.49701588839935
 31
0.0
  0
LINE
  5
1CD
330
A4
100
AcDbEntity
  8
Системный слой
  6
K5LT_BASIC
 62
     5
420
      255
370
    60
100
AcDbLine
 10
-12.52346527115651
 20
239.6545433392007
 30
0.0
 11
-12.13422470082105
 21
203.2563158883991
 31
0.0
  0
LINE
  5
1CE
330
A4
100
AcDbEntity
  8
Системный слой
  6
K5LT_BASIC
 62
     5
420
      255
370
    60
100
AcDbLine
 10
-27.09560874783301
 20
239.1491059713076
 30
0.0
 11
-46.08721220082089
 21
238.4137940133992
 31
0.0
  0
LINE
  5
1CF
330
A4
100
AcDbEntity
  8
Системный слой
  6
K5LT_BASIC
 62
     5
420
      255
370
    60
100
AcDbLine
 10
-18.44436208238085
 20
204.4325677151123
 30
0.0
 11
-46.03782557545719
 21
209.5112811945214
 31
0.0
  0
LINE
  5
1D0
330
A4
100
AcDbEntity
  8
Системный слой
  6
K5LT_BASIC
 62
     5
420
      255
370
    60
100
AcDbLine
 10
-13.30081884056608
 20
312.3452333940336
 30
0.0
 11
-13.06832470082054
 21
290.6013158883993
 31
0.0
  0
LINE
  5
1D1
330
A4
100
AcDbEntity
  8
Системный слой
  6
K5LT_BASIC
 62
     5
420
      255
370
    60
100
AcDbLine
 10
-2.677800876112542
 20
250.4269220290694
 30
0.0
 11
-2.964824700820373
 21
277.2593158883988
 31
0.0
  0
LINE
  5
1D2
330
A4
100
AcDbEntity
  8
Системный слой
  6
K5LT_BASIC
 62
     5
420
      255
370
    60
100
AcDbLine
 10
-0.4111368546105041
 20
276.5575108364678
 30
0.0
 11
11.69995838955811
 21
273.2632960633259
 31
0.0
  0
LINE
  5
1D3
330
A4
100
AcDbEntity
  8
Системный слой
  6
K5LT_BASIC
 62
     5
420
      255
370
    60
100
AcDbLine
 10
-1.631562179221419
 20
152.5839969827989
 30
0.0
 11
-2.044324700822017
 21
191.183015888399
 31
0.0
  0
LINE
  5
1D4
330
A4
100
AcDbEntity
  8
Системный слой
  6
K5LT_BASIC
 62
     5
420
      255
370
    60
100
AcDbLine
 10
-10.9145247008214
 20
89.18231588839853
 30
0.0
 11
-11.48699015795091
 21
142.7294395414906
 31
0.0
  0
LINE
  5
1D5
330
A4
100
AcDbEntity
  8
Системный слой
  6
K5LT_BASIC
 62
     5
420
      255
370
    60
100
AcDbLine
 10
372.1537507859834
 20
-210.0073553523757
 30
0.0
 11
372.1537507859834
 21
-222.1138495046375
 31
0.0
  0
LINE
  5
1D6
330
A4
100
AcDbEntity
  8
Системный слой
  6
K5LT_BASIC
 62
     5
420
      255
370
    60
100
AcDbLine
 10
375.6226095413817
 20
-299.1617344952697
 30
0.0
 11
375.6226095413817
 21
-313.680224350805
 31
0.0
  0
LINE
  5
1D7
330
A4
100
AcDbEntity
  8
Системный слой
  6
K5LT_BASIC
 62
     5
420
      255
370
    60
100
AcDbLine
 10
372.1537507859825
 20
-222.1138495046375
 30
0.0
 11
349.0841731490323
 21
-221.5449065241378
 31
0.0
  0
LINE
  5
1D8
330
A4
100
AcDbEntity
  8
Системный слой
  6
K5LT_BASIC
 62
     5
420
      255
370
    60
100
AcDbLine
 10
349.0841731490323
 20
-221.5449065241378
 30
0.0
 11
285.5651734633552
 21
-224.4042243585041
 31
0.0
  0
LINE
  5
1D9
330
A4
100
AcDbEntity
  8
Системный слой
  6
K5LT_BASIC
 62
     5
420
      255
370
    60
100
AcDbLine
 10
285.5651734633552
 20
-224.4042243585041
 30
0.0
 11
223.5144397306663
 21
-224.6225001465859
 31
0.0
  0
LINE
  5
1DA
330
A4
100
AcDbEntity
  8
Системный слой
  6
K5LT_BASIC
 62
     5
420
      255
370
    60
100
AcDbLine
 10
223.5144397306663
 20
-224.6225001465859
 30
0.0
 11
160.4563692997249
 21
-221.3305127878043
 31
0.0
  0
LINE
  5
1DB
330
A4
100
AcDbEntity
  8
Системный слой
  6
K5LT_BASIC
 62
     5
420
      255
370
    60
100
AcDbLine
 10
160.4563692997249
 20
-221.3305127878043
 30
0.0
 11
97.20171279917895
 21
-214.1512466116005
 31
0.0
  0
LINE
  5
1DC
330
A4
100
AcDbEntity
  8
Системный слой
  6
K5LT_BASIC
 62
     5
420
      255
370
    60
100
AcDbLine
 10
97.20171279917895
 20
-214.1512466116005
 30
0.0
 11
35.67790438536713
 21
-203.8034650017248
 31
0.0
  0
LINE
  5
1DD
330
A4
100
AcDbEntity
  8
Системный слой
  6
K5LT_BASIC
 62
     5
420
      255
370
    60
100
AcDbLine
 10
35.67790438536713
 20
-203.8034650017248
 30
0.0
 11
2.138459264192988
 21
-199.9405634118925
 31
0.0
  0
LINE
  5
1DE
330
A4
100
AcDbEntity
  8
Системный слой
  6
K5LT_BASIC
 62
     5
420
      255
370
    60
100
AcDbLine
 10
2.617185794805209
 20
-244.6974440241379
 30
0.0
 11
17.02543941634349
 21
-254.8642794696548
 31
0.0
  0
LINE
  5
1DF
330
A4
100
AcDbEntity
  8
Системный слой
  6
K5LT_BASIC
 62
     5
420
      255
370
    60
100
AcDbLine
 10
17.02543941634349
 20
-254.8642794696548
 30
0.0
 11
61.99298287935335
 21
-265.7548319250113
 31
0.0
  0
LINE
  5
1E0
330
A4
100
AcDbEntity
  8
Системный слой
  6
K5LT_BASIC
 62
     5
420
      255
370
    60
100
AcDbLine
 10
61.99298287935335
 20
-265.7548319250113
 30
0.0
 11
109.9737174866782
 21
-275.5715794241009
 31
0.0
  0
LINE
  5
1E1
330
A4
100
AcDbEntity
  8
Системный слой
  6
K5LT_BASIC
 62
     5
420
      255
370
    60
100
AcDbLine
 10
109.9737174866782
 20
-275.5715794241009
 30
0.0
 11
162.2407295630269
 21
-283.9200707005225
 31
0.0
  0
LINE
  5
1E2
330
A4
100
AcDbEntity
  8
Системный слой
  6
K5LT_BASIC
 62
     5
420
      255
370
    60
100
AcDbLine
 10
162.2407295630269
 20
-283.9200707005225
 30
0.0
 11
221.6181954112412
 21
-290.6500721035836
 31
0.0
  0
LINE
  5
1E3
330
A4
100
AcDbEntity
  8
Системный слой
  6
K5LT_BASIC
 62
     5
420
      255
370
    60
100
AcDbLine
 10
221.6181954112412
 20
-290.6500721035836
 30
0.0
 11
282.6404962904321
 21
-295.3048056859448
 31
0.0
  0
LINE
  5
1E4
330
A4
100
AcDbEntity
  8
Системный слой
  6
K5LT_BASIC
 62
     5
420
      255
370
    60
100
AcDbLine
 10
282.6404962904321
 20
-295.3048056859448
 30
0.0
 11
339.1361689261826
 21
-298.054062355041
 31
0.0
  0
LINE
  5
1E5
330
A4
100
AcDbEntity
  8
Системный слой
  6
K5LT_BASIC
 62
     5
420
      255
370
    60
100
AcDbLine
 10
359.9660880178376
 20
-298.7513127559155
 30
0.0
 11
375.6226095413799
 21
-299.1617344952697
 31
0.0
  0
LINE
  5
1E6
330
A4
100
AcDbEntity
  8
Системный слой
  6
K5LT_BASIC
 62
     5
420
      255
370
    60
100
AcDbLine
 10
-7.877821309541559
 20
-194.7558012027325
 30
0.0
 11
-64.04466322219696
 21
-181.4011433929486
 31
0.0
  0
LINE
  5
1E7
330
A4
100
AcDbEntity
  8
Системный слой
  6
K5LT_BASIC
 62
     5
420
      255
370
    60
100
AcDbLine
 10
-64.04466322219696
 20
-181.4011433929486
 30
0.0
 11
-119.802346647381
 21
-166.8054515731333
 31
0.0
  0
LINE
  5
1E8
330
A4
100
AcDbEntity
  8
Системный слой
  6
K5LT_BASIC
 62
     5
420
      255
370
    60
100
AcDbLine
 10
-119.802346647381
 20
-166.8054515731333
 30
0.0
 11
-175.2339156607845
 21
-151.6126505852003
 31
0.0
  0
LINE
  5
1E9
330
A4
100
AcDbEntity
  8
Системный слой
  6
K5LT_BASIC
 62
     5
420
      255
370
    60
100
AcDbLine
 10
-175.2339156607845
 20
-151.6126505852003
 30
0.0
 11
-175.7058384004381
 21
-151.4822331387845
 31
0.0
  0
LINE
  5
1EA
330
A4
100
AcDbEntity
  8
Системный слой
  6
K5LT_BASIC
 62
     5
420
      255
370
    60
100
AcDbLine
 10
-175.7058384004381
 20
-151.4822331387845
 30
0.0
 11
-177.9246629799504
 21
-150.1878340889757
 31
0.0
  0
LINE
  5
1EB
330
A4
100
AcDbEntity
  8
Системный слой
  6
K5LT_BASIC
 62
     5
420
      255
370
    60
100
AcDbLine
 10
-177.9246629799504
 20
-150.1878340889757
 30
0.0
 11
-179.1893062044542
 21
-147.9985324220611
 31
0.0
  0
LINE
  5
1EC
330
A4
100
AcDbEntity
  8
Системный слой
  6
K5LT_BASIC
 62
     5
420
      255
370
    60
100
AcDbLine
 10
-179.1893062044542
 20
-147.9985324220611
 30
0.0
 11
-179.1993536719087
 21
-145.3973872517167
 31
0.0
  0
LINE
  5
1ED
330
A4
100
AcDbEntity
  8
Системный слой
  6
K5LT_BASIC
 62
     5
420
      255
370
    60
100
AcDbLine
 10
-179.1993536719087
 20
-145.3973872517167
 30
0.0
 11
-177.8938783997814
 21
-143.1372682863307
 31
0.0
  0
LINE
  5
1EE
330
A4
100
AcDbEntity
  8
Системный слой
  6
K5LT_BASIC
 62
     5
420
      255
370
    60
100
AcDbLine
 10
-177.8938783997814
 20
-143.1372682863307
 30
0.0
 11
-175.7073043367341
 21
-141.867887617464
 31
0.0
  0
LINE
  5
1EF
330
A4
100
AcDbEntity
  8
Системный слой
  6
K5LT_BASIC
 62
     5
420
      255
370
    60
100
AcDbLine
 10
-175.7073043367341
 20
-141.867887617464
 30
0.0
 11
-173.1069153533404
 21
-141.8519949624283
 31
0.0
  0
LINE
  5
1F0
330
A4
100
AcDbEntity
  8
Системный слой
  6
K5LT_BASIC
 62
     5
420
      255
370
    60
100
AcDbLine
 10
-173.1069153533404
 20
-141.8519949624283
 30
0.0
 11
-173.0278386698051
 21
-141.8735051828248
 31
0.0
  0
LINE
  5
1F1
330
A4
100
AcDbEntity
  8
Системный слой
  6
K5LT_BASIC
 62
     5
420
      255
370
    60
100
AcDbLine
 10
-173.0278386698051
 20
-141.8735051828248
 30
0.0
 11
-120.5668632740421
 21
-156.2706980450507
 31
0.0
  0
LINE
  5
1F2
330
A4
100
AcDbEntity
  8
Системный слой
  6
K5LT_BASIC
 62
     5
420
      255
370
    60
100
AcDbLine
 10
-120.5668632740421
 20
-156.2706980450507
 30
0.0
 11
-65.74896576942547
 21
-170.6852858177522
 31
0.0
  0
LINE
  5
1F3
330
A4
100
AcDbEntity
  8
Системный слой
  6
K5LT_BASIC
 62
     5
420
      255
370
    60
100
AcDbLine
 10
-65.74896576942547
 20
-170.6852858177522
 30
0.0
 11
-10.34266334028007
 21
-183.9831530219803
 31
0.0
  0
LINE
  5
1F4
330
A4
100
AcDbEntity
  8
Системный слой
  6
K5LT_BASIC
 62
     5
420
      255
370
    60
100
AcDbLine
 10
-10.34266334028007
 20
-183.9831530219803
 30
0.0
 11
-8.536446939574034
 21
-133.1799820276206
 31
0.0
  0
LINE
  5
1F5
330
A4
100
AcDbEntity
  8
Системный слой
  6
K5LT_BASIC
 62
     5
420
      255
370
    60
100
AcDbLine
 10
1.932366769849523
 20
-180.6715453558086
 30
0.0
 11
46.07638322508001
 21
-195.6195761597014
 31
0.0
  0
LINE
  5
1F6
330
A4
100
AcDbEntity
  8
Системный слой
  6
K5LT_BASIC
 62
     5
420
      255
370
    60
100
AcDbLine
 10
46.07638322508001
 20
-195.6195761597014
 30
0.0
 11
110.3029649999148
 21
-205.8812448213525
 31
0.0
  0
LINE
  5
1F7
330
A4
100
AcDbEntity
  8
Системный слой
  6
K5LT_BASIC
 62
     5
420
      255
370
    60
100
AcDbLine
 10
110.3029649999148
 20
-205.8812448213525
 30
0.0
 11
176.4267165104789
 21
-212.5429379417687
 31
0.0
  0
LINE
  5
1F8
330
A4
100
AcDbEntity
  8
Системный слой
  6
K5LT_BASIC
 62
     5
420
      255
370
    60
100
AcDbLine
 10
176.4267165104789
 20
-212.5429379417687
 30
0.0
 11
240.9745291388913
 21
-214.8956638191626
 31
0.0
  0
LINE
  5
1F9
330
A4
100
AcDbEntity
  8
Системный слой
  6
K5LT_BASIC
 62
     5
420
      255
370
    60
100
AcDbLine
 10
240.9745291388913
 20
-214.8956638191626
 30
0.0
 11
305.7888228843508
 21
-213.7612427385843
 31
0.0
  0
LINE
  5
1FA
330
A4
100
AcDbEntity
  8
Системный слой
  6
K5LT_BASIC
 62
     5
420
      255
370
    60
100
AcDbLine
 10
305.7888228843508
 20
-213.7612427385843
 30
0.0
 11
372.1537507859825
 21
-210.0073553523757
 31
0.0
  0
LINE
  5
1FB
330
A4
100
AcDbEntity
  8
Системный слой
  6
K5LT_BASIC
 62
     5
420
      255
370
    60
100
AcDbLine
 10
375.6226095413799
 20
-313.680224350805
 30
0.0
 11
333.0884251999792
 21
-312.4756665328732
 31
0.0
  0
LINE
  5
1FC
330
A4
100
AcDbEntity
  8
Системный слой
  6
K5LT_BASIC
 62
     5
420
      255
370
    60
100
AcDbLine
 10
333.0884251999792
 20
-312.4756665328732
 30
0.0
 11
269.2742899843702
 21
-309.1307161070949
 31
0.0
  0
LINE
  5
1FD
330
A4
100
AcDbEntity
  8
Системный слой
  6
K5LT_BASIC
 62
     5
420
      255
370
    60
100
AcDbLine
 10
269.2742899843702
 20
-309.1307161070949
 30
0.0
 11
205.7544773050226
 21
-303.8338838507589
 31
0.0
  0
LINE
  5
1FE
330
A4
100
AcDbEntity
  8
Системный слой
  6
K5LT_BASIC
 62
     5
420
      255
370
    60
100
AcDbLine
 10
205.7544773050226
 20
-303.8338838507589
 30
0.0
 11
143.1881947475554
 21
-296.0106736888633
 31
0.0
  0
LINE
  5
1FF
330
A4
100
AcDbEntity
  8
Системный слой
  6
K5LT_BASIC
 62
     5
420
      255
370
    60
100
AcDbLine
 10
143.1881947475554
 20
-296.0106736888633
 30
0.0
 11
58.88612808185144
 21
-280.0902310937286
 31
0.0
  0
LINE
  5
200
330
A4
100
AcDbEntity
  8
Системный слой
  6
K5LT_BASIC
 62
     5
420
      255
370
    60
100
AcDbLine
 10
58.88612808185144
 20
-280.0902310937286
 30
0.0
 11
-16.53485271621366
 21
-261.0524101041078
 31
0.0
  0
LINE
  5
201
330
A4
100
AcDbEntity
  8
Системный слой
  6
K5LT_BASIC
 62
     5
420
      255
370
    60
100
AcDbLine
 10
-16.53485271621366
 20
-261.0524101041078
 30
0.0
 11
-81.90923872690882
 21
-242.1735439070831
 31
0.0
  0
LINE
  5
202
330
A4
100
AcDbEntity
  8
Системный слой
  6
K5LT_BASIC
 62
     5
420
      255
370
    60
100
AcDbLine
 10
-81.90923872690882
 20
-242.1735439070831
 30
0.0
 11
-102.4540334235312
 21
-236.1265403761677
 31
0.0
  0
LINE
  5
203
330
A4
100
AcDbEntity
  8
Системный слой
  6
K5LT_BASIC
 62
     5
420
      255
370
    60
100
AcDbLine
 10
-102.4540334235312
 20
-236.1265403761677
 30
0.0
 11
-122.277868983992
 21
-230.4080816815035
 31
0.0
  0
LINE
  5
204
330
A4
100
AcDbEntity
  8
Системный слой
  6
K5LT_BASIC
 62
     5
420
      255
370
    60
100
AcDbLine
 10
-122.277868983992
 20
-230.4080816815035
 30
0.0
 11
-143.5876105678394
 21
-224.5360987272511
 31
0.0
  0
LINE
  5
205
330
A4
100
AcDbEntity
  8
Системный слой
  6
K5LT_BASIC
 62
     5
420
      255
370
    60
100
AcDbLine
 10
-143.5876105678394
 20
-224.5360987272511
 30
0.0
 11
-211.8803666896406
 21
-208.799560842715
 31
0.0
  0
LINE
  5
206
330
A4
100
AcDbEntity
  8
Системный слой
  6
K5LT_BASIC
 62
     5
420
      255
370
    60
100
AcDbLine
 10
-211.8803666896406
 20
-208.799560842715
 30
0.0
 11
-272.0993445890686
 21
-198.8553170036589
 31
0.0
  0
LINE
  5
207
330
A4
100
AcDbEntity
  8
Системный слой
  6
K5LT_BASIC
 62
     5
420
      255
370
    60
100
AcDbLine
 10
-272.0993445890686
 20
-198.8553170036589
 30
0.0
 11
-326.4723244000984
 21
-191.98228151787
 31
0.0
  0
LINE
  5
208
330
A4
100
AcDbEntity
  8
Системный слой
  6
K5LT_BASIC
 62
     5
420
      255
370
    60
100
AcDbLine
 10
-326.4723244000984
 20
-191.98228151787
 30
0.0
 11
-326.5890717367733
 21
-191.9605999616019
 31
0.0
  0
LINE
  5
209
330
A4
100
AcDbEntity
  8
Системный слой
  6
K5LT_BASIC
 62
     5
420
      255
370
    60
100
AcDbLine
 10
-326.5890717367733
 20
-191.9605999616019
 30
0.0
 11
-330.0968335461534
 21
-190.4966139528492
 31
0.0
  0
LINE
  5
20A
330
A4
100
AcDbEntity
  8
Системный слой
  6
K5LT_BASIC
 62
     5
420
      255
370
    60
100
AcDbLine
 10
-330.0968335461534
 20
-190.4966139528492
 30
0.0
 11
-332.3589310115972
 21
-187.5708763623338
 31
0.0
  0
LINE
  5
20B
330
A4
100
AcDbEntity
  8
Системный слой
  6
K5LT_BASIC
 62
     5
420
      255
370
    60
100
AcDbLine
 10
-332.3589310115972
 20
-187.5708763623338
 30
0.0
 11
-332.8895319693515
 21
-183.7890662868526
 31
0.0
  0
LINE
  5
20C
330
A4
100
AcDbEntity
  8
Системный слой
  6
K5LT_BASIC
 62
     5
420
      255
370
    60
100
AcDbLine
 10
-332.8895319693515
 20
-183.7890662868526
 30
0.0
 11
-331.4466383656486
 21
-180.2498422639005
 31
0.0
  0
LINE
  5
20D
330
A4
100
AcDbEntity
  8
Системный слой
  6
K5LT_BASIC
 62
     5
420
      255
370
    60
100
AcDbLine
 10
-331.4466383656486
 20
-180.2498422639005
 30
0.0
 11
-328.5203415808378
 21
-177.9612599597526
 31
0.0
  0
LINE
  5
20E
330
A4
100
AcDbEntity
  8
Системный слой
  6
K5LT_BASIC
 62
     5
420
      255
370
    60
100
AcDbLine
 10
-328.5203415808378
 20
-177.9612599597526
 30
0.0
 11
-324.8099161012628
 21
-177.4058851718196
 31
0.0
  0
LINE
  5
20F
330
A4
100
AcDbEntity
  8
Системный слой
  6
K5LT_BASIC
 62
     5
420
      255
370
    60
100
AcDbLine
 10
-324.8099161012628
 20
-177.4058851718196
 30
0.0
 11
-324.7661937234793
 21
-177.4112756019581
 31
0.0
  0
LINE
  5
210
330
A4
100
AcDbEntity
  8
Системный слой
  6
K5LT_BASIC
 62
     5
420
      255
370
    60
100
AcDbLine
 10
-324.7661937234793
 20
-177.4112756019581
 30
0.0
 11
-324.0399861047258
 21
-177.4911010156934
 31
0.0
  0
LINE
  5
211
330
A4
100
AcDbEntity
  8
Системный слой
  6
K5LT_BASIC
 62
     5
420
      255
370
    60
100
AcDbLine
 10
-324.0399861047258
 20
-177.4911010156934
 30
0.0
 11
-267.160748945566
 21
-184.7256180102954
 31
0.0
  0
LINE
  5
212
330
A4
100
AcDbEntity
  8
Системный слой
  6
K5LT_BASIC
 62
     5
420
      255
370
    60
100
AcDbLine
 10
-267.160748945566
 20
-184.7256180102954
 30
0.0
 11
-206.0066814115694
 21
-194.9919348204107
 31
0.0
  0
LINE
  5
213
330
A4
100
AcDbEntity
  8
Системный слой
  6
K5LT_BASIC
 62
     5
420
      255
370
    60
100
AcDbLine
 10
-206.0066814115694
 20
-194.9919348204107
 30
0.0
 11
-136.8365120796138
 21
-211.1546599113003
 31
0.0
  0
LINE
  5
214
330
A4
100
AcDbEntity
  8
Системный слой
  6
K5LT_BASIC
 62
     5
420
      255
370
    60
100
AcDbLine
 10
-136.8365120796138
 20
-211.1546599113003
 30
0.0
 11
-117.8130544701512
 21
-216.4322925638176
 31
0.0
  0
LINE
  5
215
330
A4
100
AcDbEntity
  8
Системный слой
  6
K5LT_BASIC
 62
     5
420
      255
370
    60
100
AcDbLine
 10
-117.8130544701512
 20
-216.4322925638176
 30
0.0
 11
-97.77677595804153
 21
-222.2246914539223
 31
0.0
  0
LINE
  5
216
330
A4
100
AcDbEntity
  8
Системный слой
  6
K5LT_BASIC
 62
     5
420
      255
370
    60
100
AcDbLine
 10
-54.57227858889883
 20
-234.9470937228575
 30
0.0
 11
-31.41448318958055
 21
-241.6465663527583
 31
0.0
  0
LINE
  5
217
330
A4
100
AcDbEntity
  8
Системный слой
  6
K5LT_BASIC
 62
     5
420
      255
370
    60
100
AcDbLine
 10
-31.41448318958055
 20
-241.6465663527583
 30
0.0
 11
-7.304224700821123
 21
-248.3881841116004
 31
0.0
  0
LINE
  5
218
330
A4
100
AcDbEntity
  8
Системный слой
  6
K5LT_BASIC
 62
     5
420
      255
370
    60
100
AcDbLine
 10
2.138459264192988
 20
-199.9405634118925
 30
0.0
 11
2.617185794805209
 21
-244.6974440241379
 31
0.0
  0
LINE
  5
219
330
A4
100
AcDbEntity
  8
Системный слой
  6
K5LT_BASIC
 62
     5
420
      255
370
    60
100
AcDbLine
 10
-7.877821309541559
 20
-194.7558012027325
 30
0.0
 11
-7.304224700821123
 21
-248.3881841116004
 31
0.0
  0
LINE
  5
21A
330
A4
100
AcDbEntity
  8
Системный слой
  6
K5LT_BASIC
 62
     5
420
      255
370
    60
100
AcDbLine
 10
-8.536446939574034
 20
-133.1799820276206
 30
0.0
 11
-10.27220437413916
 21
29.10582235949232
 31
0.0
  0
LINE
  5
21B
330
A4
100
AcDbEntity
  8
Системный слой
  6
K5LT_BASIC
 62
     5
420
      255
370
    60
100
AcDbLine
 10
-0.0000000000004547
 20
-0.0000000000004547
 30
0.0
 11
1.932366769849523
 21
-180.6715453558086
 31
0.0
  0
LINE
  5
21C
330
A4
100
AcDbEntity
  8
Системный слой
  6
K5LT_BASIC
 62
     5
420
      255
370
    60
100
AcDbLine
 10
-97.77677595804153
 20
-222.2246914539223
 30
0.0
 11
-54.57227858889883
 21
-234.9470937228575
 31
0.0
  0
LINE
  5
21D
330
A4
100
AcDbEntity
  8
Системный слой
  6
K5LT_BASIC
 62
     5
420
      255
370
    60
100
AcDbLine
 10
339.1361689261826
 20
-298.054062355041
 30
0.0
 11
359.9660880178376
 21
-298.7513127559155
 31
0.0
  0
ENDBLK
  5
21F
330
A4
100
AcDbEntity
  8
0
100
AcDbBlockEnd
  0
ENDSEC
  0
SECTION
  2
ENTITIES
  0
INSERT
  5
A5
330
1F
100
AcDbEntity
  8
Системный слой
100
AcDbBlockReference
  2
U0
 10
0.0
 20
0.0
 30
0.0
  0
ENDSEC
  0
SECTION
  2
OBJECTS
  0
DICTIONARY
  5
C
330
0
100
AcDbDictionary
281
     1
  3
ACAD_GROUP
350
D
  3
ACAD_LAYOUT
350
1A
  3
ACAD_MATERIAL
350
3B
  3
ACAD_MLEADERSTYLE
350
265
  3
ACAD_MLINESTYLE
350
17
  3
ACAD_PLOTSETTINGS
350
19
  3
ACAD_PLOTSTYLENAME
350
E
  3
ACAD_SCALELIST
350
220
  3
ACAD_TABLESTYLE
350
264
  3
ACAD_VISUALSTYLE
350
2A
  3
AcDbVariableDictionary
350
242
  0
DICTIONARY
  5
D
102
{ACAD_REACTORS
330
C
102
}
330
C
100
AcDbDictionary
281
     1
  0
DICTIONARY
  5
1A
102
{ACAD_REACTORS
330
C
102
}
330
C
100
AcDbDictionary
281
     1
  3
Layout1
350
1E
  3
Layout2
350
26
  3
Model
350
22
  0
DICTIONARY
  5
3B
102
{ACAD_REACTORS
330
C
102
}
330
C
100
AcDbDictionary
281
     1
  3
ByBlock
350
3D
  3
ByLayer
350
3C
  3
Global
350
3E
  0
DICTIONARY
  5
265
102
{ACAD_REACTORS
330
C
102
}
330
C
100
AcDbDictionary
281
     1
  0
DICTIONARY
  5
17
102
{ACAD_REACTORS
330
C
102
}
330
C
100
AcDbDictionary
281
     1
  3
Standard
350
18
  0
DICTIONARY
  5
19
102
{ACAD_REACTORS
330
C
102
}
330
C
100
AcDbDictionary
281
     1
  0
ACDBDICTIONARYWDFLT
  5
E
102
{ACAD_REACTORS
330
C
102
}
330
C
100
AcDbDictionary
281
     1
  3
Normal
350
F
100
AcDbDictionaryWithDefault
340
F
  0
DICTIONARY
  5
220
102
{ACAD_REACTORS
330
C
102
}
330
C
100
AcDbDictionary
281
     1
  3
A0
350
221
  3
A1
350
222
  3
A2
350
223
  3
A3
350
224
  3
A4
350
225
  3
A5
350
226
  3
A6
350
227
  3
A7
350
228
  3
A8
350
229
  3
A9
350
22A
  3
B0
350
22B
  3
B1
350
22C
  3
B2
350
22D
  3
B3
350
22E
  3
B4
350
22F
  3
B5
350
230
  3
B6
350
231
  3
B7
350
232
  3
B8
350
233
  3
B9
350
234
  3
C0
350
235
  3
C1
350
236
  3
C2
350
237
  3
C3
350
238
  3
C4
350
239
  3
C5
350
23A
  3
C6
350
23B
  3
C7
350
23C
  3
C8
350
23D
  3
C9
350
23E
  3
D0
350
23F
  3
D1
350
240
  3
D2
350
241
  0
DICTIONARY
  5
264
102
{ACAD_REACTORS
330
C
102
}
330
C
100
AcDbDictionary
281
     1
  0
DICTIONARY
  5
2A
102
{ACAD_REACTORS
330
C
102
}
330
C
100
AcDbDictionary
281
     1
  3
2dWireframe
350
2F
  3
3D Hidden
350
31
  3
3dWireframe
350
30
  3
Basic
350
32
  3
Brighten
350
36
  3
ColorChange
350
3A
  3
Conceptual
350
34
  3
Dim
350
35
  3
Facepattern
350
39
  3
Flat
350
2B
  3
FlatWithEdges
350
2C
  3
Gouraud
350
2D
  3
GouraudWithEdges
350
2E
  3
Linepattern
350
38
  3
Realistic
350
33
  3
Thicken
350
37
  0
DICTIONARY
  5
242
102
{ACAD_REACTORS
330
C
102
}
330
C
100
AcDbDictionary
281
     1
  3
CANNOSCALE
350
243
  0
LAYOUT
  5
1E
102
{ACAD_REACTORS
330
1A
102
}
330
1A
100
AcDbPlotSettings
  1

  2
none_device
  4

  6

 40
0.0
 41
0.0
 42
0.0
 43
0.0
 44
0.0
 45
0.0
 46
0.0
 47
0.0
 48
0.0
 49
0.0
140
0.0
141
0.0
142
1.0
143
1.0
 70
   688
 72
     0
 73
     0
 74
     5
  7

 75
    16
 76
     0
 77
     2
 78
   300
147
1.0
148
0.0
149
0.0
100
AcDbLayout
  1
Layout1
 70
     1
 71
     1
 10
0.0
 20
0.0
 11
420.0
 21
297.0
 12
0.0
 22
0.0
 32
0.0
 14
1.000000000000000E+20
 24
1.000000000000000E+20
 34
1.000000000000000E+20
 15
-1.000000000000000E+20
 25
-1.000000000000000E+20
 35
-1.000000000000000E+20
146
0.0
 13
0.0
 23
0.0
 33
0.0
 16
1.0
 26
0.0
 36
0.0
 17
0.0
 27
1.0
 37
0.0
 76
     0
330
1B
  0
LAYOUT
  5
26
102
{ACAD_REACTORS
330
1A
102
}
330
1A
100
AcDbPlotSettings
  1

  2
none_device
  4

  6

 40
0.0
 41
0.0
 42
0.0
 43
0.0
 44
0.0
 45
0.0
 46
0.0
 47
0.0
 48
0.0
 49
0.0
140
0.0
141
0.0
142
1.0
143
1.0
 70
   688
 72
     0
 73
     0
 74
     5
  7

 75
    16
 76
     0
 77
     2
 78
   300
147
1.0
148
0.0
149
0.0
100
AcDbLayout
  1
Layout2
 70
     1
 71
     2
 10
0.0
 20
0.0
 11
0.0
 21
0.0
 12
0.0
 22
0.0
 32
0.0
 14
0.0
 24
0.0
 34
0.0
 15
0.0
 25
0.0
 35
0.0
146
0.0
 13
0.0
 23
0.0
 33
0.0
 16
1.0
 26
0.0
 36
0.0
 17
0.0
 27
1.0
 37
0.0
 76
     0
330
23
  0
LAYOUT
  5
22
102
{ACAD_REACTORS
330
1A
102
}
330
1A
100
AcDbPlotSettings
  1

  2
none_device
  4

  6

 40
0.0
 41
0.0
 42
0.0
 43
0.0
 44
0.0
 45
0.0
 46
0.0
 47
0.0
 48
0.0
 49
0.0
140
0.0
141
0.0
142
1.0
143
1.0
 70
  1712
 72
     0
 73
     0
 74
     0
  7

 75
     0
 76
     0
 77
     2
 78
   300
147
1.0
148
0.0
149
0.0
100
AcDbLayout
  1
Model
 70
     1
 71
     0
 10
0.0
 20
0.0
 11
420.0
 21
297.0
 12
0.0
 22
0.0
 32
0.0
 14
1.000000000000000E+20
 24
1.000000000000000E+20
 34
1.000000000000000E+20
 15
-1.000000000000000E+20
 25
-1.000000000000000E+20
 35
-1.000000000000000E+20
146
0.0
 13
0.0
 23
0.0
 33
0.0
 16
1.0
 26
0.0
 36
0.0
 17
0.0
 27
1.0
 37
0.0
 76
     0
330
1F
331
29
  0
MATERIAL
  5
3D
102
{ACAD_REACTORS
330
3B
102
}
330
3B
100
AcDbMaterial
  1
ByBlock
 72
     1
 94
      127
  0
MATERIAL
  5
3C
102
{ACAD_REACTORS
330
3B
102
}
330
3B
100
AcDbMaterial
  1
ByLayer
 72
     1
 94
      127
  0
MATERIAL
  5
3E
102
{ACAD_REACTORS
330
3B
102
}
330
3B
100
AcDbMaterial
  1
Global
 72
     1
 94
      127
  0
MLINESTYLE
  5
18
102
{ACAD_REACTORS
330
17
102
}
330
17
100
AcDbMlineStyle
  2
Standard
 70
     0
  3

 62
   256
 51
90.0
 52
90.0
 71
     2
 49
0.5
 62
   256
  6
BYLAYER
 49
-0.5
 62
   256
  6
BYLAYER
  0
ACDBPLACEHOLDER
  5
F
102
{ACAD_REACTORS
330
E
102
}
330
E
  0
SCALE
  5
221
102
{ACAD_REACTORS
330
220
102
}
330
220
100
AcDbScale
 70
     0
300
1:1
140
1.0
141
1.0
290
     1
  0
SCALE
  5
222
102
{ACAD_REACTORS
330
220
102
}
330
220
100
AcDbScale
 70
     0
300
1:2
140
1.0
141
2.0
290
     0
  0
SCALE
  5
223
102
{ACAD_REACTORS
330
220
102
}
330
220
100
AcDbScale
 70
     0
300
1:4
140
1.0
141
4.0
290
     0
  0
SCALE
  5
224
102
{ACAD_REACTORS
330
220
102
}
330
220
100
AcDbScale
 70
     0
300
1:5
140
1.0
141
5.0
290
     0
  0
SCALE
  5
225
102
{ACAD_REACTORS
330
220
102
}
330
220
100
AcDbScale
 70
     0
300
1:8
140
1.0
141
8.0
290
     0
  0
SCALE
  5
226
102
{ACAD_REACTORS
330
220
102
}
330
220
100
AcDbScale
 70
     0
300
1:10
140
1.0
141
10.0
290
     0
  0
SCALE
  5
227
102
{ACAD_REACTORS
330
220
102
}
330
220
100
AcDbScale
 70
     0
300
1:16
140
1.0
141
16.0
290
     0
  0
SCALE
  5
228
102
{ACAD_REACTORS
330
220
102
}
330
220
100
AcDbScale
 70
     0
300
1:20
140
1.0
141
20.0
290
     0
  0
SCALE
  5
229
102
{ACAD_REACTORS
330
220
102
}
330
220
100
AcDbScale
 70
     0
300
1:30
140
1.0
141
30.0
290
     0
  0
SCALE
  5
22A
102
{ACAD_REACTORS
330
220
102
}
330
220
100
AcDbScale
 70
     0
300
1:40
140
1.0
141
40.0
290
     0
  0
SCALE
  5
22B
102
{ACAD_REACTORS
330
220
102
}
330
220
100
AcDbScale
 70
     0
300
1:50
140
1.0
141
50.0
290
     0
  0
SCALE
  5
22C
102
{ACAD_REACTORS
330
220
102
}
330
220
100
AcDbScale
 70
     0
300
1:100
140
1.0
141
100.0
290
     0
  0
SCALE
  5
22D
102
{ACAD_REACTORS
330
220
102
}
330
220
100
AcDbScale
 70
     0
300
2:1
140
2.0
141
1.0
290
     0
  0
SCALE
  5
22E
102
{ACAD_REACTORS
330
220
102
}
330
220
100
AcDbScale
 70
     0
300
4:1
140
4.0
141
1.0
290
     0
  0
SCALE
  5
22F
102
{ACAD_REACTORS
330
220
102
}
330
220
100
AcDbScale
 70
     0
300
8:1
140
8.0
141
1.0
290
     0
  0
SCALE
  5
230
102
{ACAD_REACTORS
330
220
102
}
330
220
100
AcDbScale
 70
     0
300
10:1
140
10.0
141
1.0
290
     0
  0
SCALE
  5
231
102
{ACAD_REACTORS
330
220
102
}
330
220
100
AcDbScale
 70
     0
300
100:1
140
100.0
141
1.0
290
     0
  0
SCALE
  5
232
102
{ACAD_REACTORS
330
220
102
}
330
220
100
AcDbScale
 70
     0
300
1/128" = 1'-0"
140
0.0078125
141
12.0
290
     0
  0
SCALE
  5
233
102
{ACAD_REACTORS
330
220
102
}
330
220
100
AcDbScale
 70
     0
300
1/64" = 1'-0"
140
0.015625
141
12.0
290
     0
  0
SCALE
  5
234
102
{ACAD_REACTORS
330
220
102
}
330
220
100
AcDbScale
 70
     0
300
1/32" = 1'-0"
140
0.03125
141
12.0
290
     0
  0
SCALE
  5
235
102
{ACAD_REACTORS
330
220
102
}
330
220
100
AcDbScale
 70
     0
300
1/16" = 1'-0"
140
0.0625
141
12.0
290
     0
  0
SCALE
  5
236
102
{ACAD_REACTORS
330
220
102
}
330
220
100
AcDbScale
 70
     0
300
3/32" = 1'-0"
140
0.09375
141
12.0
290
     0
  0
SCALE
  5
237
102
{ACAD_REACTORS
330
220
102
}
330
220
100
AcDbScale
 70
     0
300
1/8" = 1'-0"
140
0.125
141
12.0
290
     0
  0
SCALE
  5
238
102
{ACAD_REACTORS
330
220
102
}
330
220
100
AcDbScale
 70
     0
300
3/16" = 1'-0"
140
0.1875
141
12.0
290
     0
  0
SCALE
  5
239
102
{ACAD_REACTORS
330
220
102
}
330
220
100
AcDbScale
 70
     0
300
1/4" = 1'-0"
140
0.25
141
12.0
290
     0
  0
SCALE
  5
23A
102
{ACAD_REACTORS
330
220
102
}
330
220
100
AcDbScale
 70
     0
300
3/8" = 1'-0"
140
0.375
141
12.0
290
     0
  0
SCALE
  5
23B
102
{ACAD_REACTORS
330
220
102
}
330
220
100
AcDbScale
 70
     0
300
1/2" = 1'-0"
140
0.5
141
12.0
290
     0
  0
SCALE
  5
23C
102
{ACAD_REACTORS
330
220
102
}
330
220
100
AcDbScale
 70
     0
300
3/4" = 1'-0"
140
0.75
141
12.0
290
     0
  0
SCALE
  5
23D
102
{ACAD_REACTORS
330
220
102
}
330
220
100
AcDbScale
 70
     0
300
1" = 1'-0"
140
1.0
141
12.0
290
     0
  0
SCALE
  5
23E
102
{ACAD_REACTORS
330
220
102
}
330
220
100
AcDbScale
 70
     0
300
1-1/2" = 1'-0"
140
1.5
141
12.0
290
     0
  0
SCALE
  5
23F
102
{ACAD_REACTORS
330
220
102
}
330
220
100
AcDbScale
 70
     0
300
3" = 1'-0"
140
3.0
141
12.0
290
     0
  0
SCALE
  5
240
102
{ACAD_REACTORS
330
220
102
}
330
220
100
AcDbScale
 70
     0
300
6" = 1'-0"
140
6.0
141
12.0
290
     0
  0
SCALE
  5
241
102
{ACAD_REACTORS
330
220
102
}
330
220
100
AcDbScale
 70
     0
300
1'-0" = 1'-0"
140
12.0
141
12.0
290
     0
  0
VISUALSTYLE
  5
2F
102
{ACAD_REACTORS
330
2A
102
}
102
{ACAD_XDICTIONARY
360
24C
102
}
330
2A
100
AcDbVisualStyle
  2
2dWireframe
 70
     4
 71
     0
 72
     2
 73
     0
 90
        0
 40
-0.6
 41
-30.0
 62
     5
 63
     7
421
 16777215
 74
     1
 91
        4
 64
     7
 65
   257
 75
     1
175
     1
 42
1.0
 92
        0
 66
   257
 43
1.0
 76
     1
 77
     6
 78
     2
 67
     7
 79
     5
170
     0
171
     0
290
     0
174
     0
 93
        1
 44
0.0
173
     0
291
     0
 45
0.0
  0
VISUALSTYLE
  5
31
102
{ACAD_REACTORS
330
2A
102
}
102
{ACAD_XDICTIONARY
360
250
102
}
330
2A
100
AcDbVisualStyle
  2
3D Hidden
 70
     6
 71
     1
 72
     2
 73
     2
 90
        0
 40
-0.6
 41
-30.0
 62
     5
 63
     7
421
 16777215
 74
     2
 91
        2
 64
     7
 65
   257
 75
     2
175
     1
 42
40.0
 92
        0
 66
   257
 43
1.0
 76
     1
 77
     6
 78
     2
 67
     7
 79
     3
170
     0
171
     0
290
     0
174
     0
 93
        1
 44
0.0
173
     0
291
     0
 45
0.0
  0
VISUALSTYLE
  5
30
102
{ACAD_REACTORS
330
2A
102
}
102
{ACAD_XDICTIONARY
360
24E
102
}
330
2A
100
AcDbVisualStyle
  2
3dWireframe
 70
     5
 71
     0
 72
     2
 73
     0
 90
        0
 40
-0.6
 41
-30.0
 62
     5
 63
     7
421
 16777215
 74
     1
 91
        4
 64
     7
 65
   257
 75
     1
175
     1
 42
1.0
 92
        0
 66
   257
 43
1.0
 76
     1
 77
     6
 78
     2
 67
     7
 79
     5
170
     0
171
     0
290
     0
174
     0
 93
        1
 44
0.0
173
     0
291
     0
 45
0.0
  0
VISUALSTYLE
  5
32
102
{ACAD_REACTORS
330
2A
102
}
102
{ACAD_XDICTIONARY
360
252
102
}
330
2A
100
AcDbVisualStyle
  2
Basic
 70
     7
 71
     1
 72
     0
 73
     1
 90
        0
 40
-0.6
 41
-30.0
 62
     5
 63
     7
421
 16777215
 74
     0
 91
        4
 64
     7
 65
   257
 75
     1
175
     1
 42
1.0
 92
        8
 66
     7
 43
1.0
 76
     1
 77
     6
 78
     2
 67
     7
 79
     5
170
     0
171
     0
290
     0
174
     0
 93
        1
 44
0.0
173
     0
291
     1
 45
0.0
  0
VISUALSTYLE
  5
36
102
{ACAD_REACTORS
330
2A
102
}
102
{ACAD_XDICTIONARY
360
25A
102
}
330
2A
100
AcDbVisualStyle
  2
Brighten
 70
    12
 71
     2
 72
     2
 73
     0
 90
        0
 40
-0.6
 41
-30.0
 62
     5
 63
     7
421
 16777215
 74
     1
 91
        4
 64
     7
 65
   257
 75
     1
175
     1
 42
1.0
 92
        8
 66
     7
 43
1.0
 76
     1
 77
     6
 78
     2
 67
     7
 79
     5
170
     0
171
     0
290
     0
174
     0
 93
        1
 44
50.0
173
     0
291
     1
 45
0.0
  0
VISUALSTYLE
  5
3A
102
{ACAD_REACTORS
330
2A
102
}
102
{ACAD_XDICTIONARY
360
262
102
}
330
2A
100
AcDbVisualStyle
  2
ColorChange
 70
    16
 71
     2
 72
     2
 73
     3
 90
        0
 40
-0.6
 41
-30.0
 62
     5
 63
     8
421
  8421504
 74
     1
 91
        4
 64
     7
 65
   257
 75
     1
175
     1
 42
1.0
 92
        8
 66
     8
424
  8421504
 43
1.0
 76
     1
 77
     6
 78
     2
 67
     7
 79
     5
170
     0
171
     0
290
     0
174
     0
 93
        1
 44
0.0
173
     0
291
     1
 45
0.0
  0
VISUALSTYLE
  5
34
102
{ACAD_REACTORS
330
2A
102
}
102
{ACAD_XDICTIONARY
360
256
102
}
330
2A
100
AcDbVisualStyle
  2
Conceptual
 70
     9
 71
     3
 72
     2
 73
     0
 90
        0
 40
-0.6
 41
-30.0
 62
     5
 63
     7
421
 16777215
 74
     2
 91
        2
 64
     7
 65
   257
 75
     1
175
     1
 42
40.0
 92
        8
 66
     7
 43
1.0
 76
     1
 77
     6
 78
     2
 67
     7
 79
     3
170
     0
171
     0
290
     0
174
     0
 93
        1
 44
0.0
173
     0
291
     0
 45
0.0
  0
VISUALSTYLE
  5
35
102
{ACAD_REACTORS
330
2A
102
}
102
{ACAD_XDICTIONARY
360
258
102
}
330
2A
100
AcDbVisualStyle
  2
Dim
 70
    11
 71
     2
 72
     2
 73
     0
 90
        0
 40
-0.6
 41
-30.0
 62
     5
 63
     7
421
 16777215
 74
     1
 91
        4
 64
     7
 65
   257
 75
     1
175
     1
 42
1.0
 92
        8
 66
     7
 43
1.0
 76
     1
 77
     6
 78
     2
 67
     7
 79
     5
170
     0
171
     0
290
     0
174
     0
 93
        1
 44
-50.0
173
     0
291
     1
 45
0.0
  0
VISUALSTYLE
  5
39
102
{ACAD_REACTORS
330
2A
102
}
102
{ACAD_XDICTIONARY
360
260
102
}
330
2A
100
AcDbVisualStyle
  2
Facepattern
 70
    15
 71
     2
 72
     2
 73
     0
 90
        0
 40
-0.6
 41
-30.0
 62
     5
 63
     7
421
 16777215
 74
     1
 91
        4
 64
     7
 65
   257
 75
     1
175
     1
 42
1.0
 92
        8
 66
     7
 43
1.0
 76
     1
 77
     6
 78
     2
 67
     7
 79
     5
170
     0
171
     0
290
     0
174
     0
 93
        1
 44
0.0
173
     0
291
     1
 45
0.0
  0
VISUALSTYLE
  5
2B
102
{ACAD_REACTORS
330
2A
102
}
102
{ACAD_XDICTIONARY
360
244
102
}
330
2A
100
AcDbVisualStyle
  2
Flat
 70
     0
 71
     2
 72
     1
 73
     1
 90
        2
 40
-0.6
 41
30.0
 62
     5
 63
     7
421
 16777215
 74
     0
 91
        4
 64
     7
 65
   257
 75
     1
175
     1
 42
1.0
 92
        8
 66
     7
 43
1.0
 76
     1
 77
     6
 78
     2
 67
     7
 79
     5
170
     0
171
     0
290
     0
174
     0
 93
       13
 44
0.0
173
     0
291
     1
 45
0.0
  0
VISUALSTYLE
  5
2C
102
{ACAD_REACTORS
330
2A
102
}
102
{ACAD_XDICTIONARY
360
246
102
}
330
2A
100
AcDbVisualStyle
  2
FlatWithEdges
 70
     1
 71
     2
 72
     1
 73
     1
 90
        2
 40
-0.6
 41
30.0
 62
     5
 63
     7
421
 16777215
 74
     1
 91
        4
 64
     7
 65
   257
 75
     1
175
     1
 42
1.0
 92
        0
 66
   257
 43
1.0
 76
     1
 77
     6
 78
     2
 67
     7
 79
     5
170
     0
171
     0
290
     0
174
     0
 93
       13
 44
0.0
173
     0
291
     1
 45
0.0
  0
VISUALSTYLE
  5
2D
102
{ACAD_REACTORS
330
2A
102
}
102
{ACAD_XDICTIONARY
360
248
102
}
330
2A
100
AcDbVisualStyle
  2
Gouraud
 70
     2
 71
     2
 72
     2
 73
     1
 90
        2
 40
-0.6
 41
30.0
 62
     5
 63
     7
421
 16777215
 74
     0
 91
        4
 64
     7
 65
   257
 75
     1
175
     1
 42
1.0
 92
        0
 66
     7
 43
1.0
 76
     1
 77
     6
 78
     2
 67
     7
 79
     5
170
     0
171
     0
290
     0
174
     0
 93
       13
 44
0.0
173
     0
291
     1
 45
0.0
  0
VISUALSTYLE
  5
2E
102
{ACAD_REACTORS
330
2A
102
}
102
{ACAD_XDICTIONARY
360
24A
102
}
330
2A
100
AcDbVisualStyle
  2
GouraudWithEdges
 70
     3
 71
     2
 72
     2
 73
     1
 90
        2
 40
-0.6
 41
30.0
 62
     5
 63
     7
421
 16777215
 74
     1
 91
        4
 64
     7
 65
   257
 75
     1
175
     1
 42
1.0
 92
        0
 66
   257
 43
1.0
 76
     1
 77
     6
 78
     2
 67
     7
 79
     5
170
     0
171
     0
290
     0
174
     0
 93
       13
 44
0.0
173
     0
291
     1
 45
0.0
  0
VISUALSTYLE
  5
38
102
{ACAD_REACTORS
330
2A
102
}
102
{ACAD_XDICTIONARY
360
25E
102
}
330
2A
100
AcDbVisualStyle
  2
Linepattern
 70
    14
 71
     2
 72
     2
 73
     0
 90
        0
 40
-0.6
 41
-30.0
 62
     5
 63
     7
421
 16777215
 74
     1
 91
        4
 64
     7
 65
   257
 75
     7
175
     7
 42
1.0
 92
        8
 66
     7
 43
1.0
 76
     1
 77
     6
 78
     2
 67
     7
 79
     5
170
     0
171
     0
290
     0
174
     0
 93
        1
 44
0.0
173
     0
291
     1
 45
0.0
  0
VISUALSTYLE
  5
33
102
{ACAD_REACTORS
330
2A
102
}
102
{ACAD_XDICTIONARY
360
254
102
}
330
2A
100
AcDbVisualStyle
  2
Realistic
 70
     8
 71
     2
 72
     2
 73
     0
 90
        0
 40
-0.6
 41
-30.0
 62
     5
 63
     7
421
 16777215
 74
     1
 91
        0
 64
     7
 65
   257
 75
     1
175
     1
 42
1.0
 92
        8
 66
     8
424
  7895160
 43
1.0
 76
     1
 77
     6
 78
     2
 67
     7
 79
     5
170
     0
171
     0
290
     0
174
     0
 93
       13
 44
0.0
173
     0
291
     0
 45
0.0
  0
VISUALSTYLE
  5
37
102
{ACAD_REACTORS
330
2A
102
}
102
{ACAD_XDICTIONARY
360
25C
102
}
330
2A
100
AcDbVisualStyle
  2
Thicken
 70
    13
 71
     2
 72
     2
 73
     0
 90
        0
 40
-0.6
 41
-30.0
 62
     5
 63
     7
421
 16777215
 74
     1
 91
        4
 64
     7
 65
   257
 75
     1
175
     1
 42
1.0
 92
       12
 66
     7
 43
1.0
 76
     1
 77
     6
 78
     2
 67
     7
 79
     5
170
     0
171
     0
290
     0
174
     0
 93
        1
 44
0.0
173
     0
291
     1
 45
0.0
  0
DICTIONARYVAR
  5
243
102
{ACAD_REACTORS
330
242
102
}
330
242
100
DictionaryVariables
280
     0
  1
1:1
  0
DICTIONARY
  5
24C
330
2F
100
AcDbDictionary
280
     1
281
     1
  3
ACAD_XREC_ROUNDTRIP
360
24D
  0
DICTIONARY
  5
250
330
31
100
AcDbDictionary
280
     1
281
     1
  3
ACAD_XREC_ROUNDTRIP
360
251
  0
DICTIONARY
  5
24E
330
30
100
AcDbDictionary
280
     1
281
     1
  3
ACAD_XREC_ROUNDTRIP
360
24F
  0
DICTIONARY
  5
252
330
32
100
AcDbDictionary
280
     1
281
     1
  3
ACAD_XREC_ROUNDTRIP
360
253
  0
DICTIONARY
  5
25A
330
36
100
AcDbDictionary
280
     1
281
     1
  3
ACAD_XREC_ROUNDTRIP
360
25B
  0
DICTIONARY
  5
262
330
3A
100
AcDbDictionary
280
     1
281
     1
  3
ACAD_XREC_ROUNDTRIP
360
263
  0
DICTIONARY
  5
256
330
34
100
AcDbDictionary
280
     1
281
     1
  3
ACAD_XREC_ROUNDTRIP
360
257
  0
DICTIONARY
  5
258
330
35
100
AcDbDictionary
280
     1
281
     1
  3
ACAD_XREC_ROUNDTRIP
360
259
  0
DICTIONARY
  5
260
330
39
100
AcDbDictionary
280
     1
281
     1
  3
ACAD_XREC_ROUNDTRIP
360
261
  0
DICTIONARY
  5
244
330
2B
100
AcDbDictionary
280
     1
281
     1
  3
ACAD_XREC_ROUNDTRIP
360
245
  0
DICTIONARY
  5
246
330
2C
100
AcDbDictionary
280
     1
281
     1
  3
ACAD_XREC_ROUNDTRIP
360
247
  0
DICTIONARY
  5
248
330
2D
100
AcDbDictionary
280
     1
281
     1
  3
ACAD_XREC_ROUNDTRIP
360
249
  0
DICTIONARY
  5
24A
330
2E
100
AcDbDictionary
280
     1
281
     1
  3
ACAD_XREC_ROUNDTRIP
360
24B
  0
DICTIONARY
  5
25E
330
38
100
AcDbDictionary
280
     1
281
     1
  3
ACAD_XREC_ROUNDTRIP
360
25F
  0
DICTIONARY
  5
254
330
33
100
AcDbDictionary
280
     1
281
     1
  3
ACAD_XREC_ROUNDTRIP
360
255
  0
DICTIONARY
  5
25C
330
37
100
AcDbDictionary
280
     1
281
     1
  3
ACAD_XREC_ROUNDTRIP
360
25D
  0
XRECORD
  5
24D
102
{ACAD_REACTORS
330
24C
102
}
330
24C
100
AcDbXrecord
280
     1
102
RTVSPropertyOp0
 70
     1
102
RTVSPropertyOp1
 70
     1
102
RTVSPropertyOp2
 70
     1
102
RTVSPropertyOp3
 70
     1
102
RTVSPropertyOp4
 70
     1
102
RTVSPropertyOp5
 70
     1
102
RTVSPropertyOp6
 70
     1
102
RTVSPropertyOp7
 70
     1
102
RTVSPropertyOp8
 70
     1
102
RTVSPropertyOp9
 70
     1
102
RTVSPropertyOp10
 70
     1
102
RTVSPropertyOp11
 70
     1
102
RTVSPropertyOp12
 70
     1
102
RTVSPropertyOp13
 70
     1
102
RTVSPropertyOp14
 70
     1
102
RTVSPropertyOp15
 70
     1
102
RTVSPropertyOp16
 70
     1
102
RTVSPropertyOp17
 70
     1
102
RTVSPropertyOp18
 70
     1
102
RTVSPropertyOp19
 70
     1
102
RTVSPropertyOp20
 70
     1
102
RTVSPropertyOp21
 70
     1
102
RTVSPropertyOp22
 70
     1
102
RTVSPropertyOp23
 70
     1
102
RTVSPropertyOp24
 70
     1
102
RTVSPropertyOp25
 70
     1
102
RTVSPropertyOp26
 70
     1
102
RTVSPropertyOp27
 70
     1
102
RTVSPropertyOp28
 70
     1
102
RTVSPropertyOp29
 70
     1
102
RTVSPropertyOp30
 70
     1
102
RTVSPropertyOp31
 70
     1
102
RTVSPropertyOp32
 70
     1
  0
XRECORD
  5
251
102
{ACAD_REACTORS
330
250
102
}
330
250
100
AcDbXrecord
280
     1
102
RTVSPropertyOp0
 70
     1
102
RTVSPropertyOp1
 70
     1
102
RTVSPropertyOp2
 70
     1
102
RTVSPropertyOp3
 70
     1
102
RTVSPropertyOp4
 70
     1
102
RTVSPropertyOp5
 70
     1
102
RTVSPropertyOp6
 70
     1
102
RTVSPropertyOp7
 70
     1
102
RTVSPropertyOp8
 70
     1
102
RTVSPropertyOp9
 70
     1
102
RTVSPropertyOp10
 70
     1
102
RTVSPropertyOp11
 70
     1
102
RTVSPropertyOp12
 70
     1
102
RTVSPropertyOp13
 70
     1
102
RTVSPropertyOp14
 70
     1
102
RTVSPropertyOp15
 70
     1
102
RTVSPropertyOp16
 70
     1
102
RTVSPropertyOp17
 70
     1
102
RTVSPropertyOp18
 70
     1
102
RTVSPropertyOp19
 70
     1
102
RTVSPropertyOp20
 70
     1
102
RTVSPropertyOp21
 70
     1
102
RTVSPropertyOp22
 70
     1
102
RTVSPropertyOp23
 70
     1
102
RTVSPropertyOp24
 70
     1
102
RTVSPropertyOp25
 70
     1
102
RTVSPropertyOp26
 70
     1
102
RTVSPropertyOp27
 70
     1
102
RTVSPropertyOp28
 70
     1
102
RTVSPropertyOp29
 70
     1
102
RTVSPropertyOp30
 70
     1
102
RTVSPropertyOp31
 70
     1
102
RTVSPropertyOp32
 70
     1
  0
XRECORD
  5
24F
102
{ACAD_REACTORS
330
24E
102
}
330
24E
100
AcDbXrecord
280
     1
102
RTVSPropertyOp0
 70
     1
102
RTVSPropertyOp1
 70
     1
102
RTVSPropertyOp2
 70
     1
102
RTVSPropertyOp3
 70
     1
102
RTVSPropertyOp4
 70
     1
102
RTVSPropertyOp5
 70
     1
102
RTVSPropertyOp6
 70
     1
102
RTVSPropertyOp7
 70
     1
102
RTVSPropertyOp8
 70
     1
102
RTVSPropertyOp9
 70
     1
102
RTVSPropertyOp10
 70
     1
102
RTVSPropertyOp11
 70
     1
102
RTVSPropertyOp12
 70
     1
102
RTVSPropertyOp13
 70
     1
102
RTVSPropertyOp14
 70
     1
102
RTVSPropertyOp15
 70
     1
102
RTVSPropertyOp16
 70
     1
102
RTVSPropertyOp17
 70
     1
102
RTVSPropertyOp18
 70
     1
102
RTVSPropertyOp19
 70
     1
102
RTVSPropertyOp20
 70
     1
102
RTVSPropertyOp21
 70
     1
102
RTVSPropertyOp22
 70
     1
102
RTVSPropertyOp23
 70
     1
102
RTVSPropertyOp24
 70
     1
102
RTVSPropertyOp25
 70
     1
102
RTVSPropertyOp26
 70
     1
102
RTVSPropertyOp27
 70
     1
102
RTVSPropertyOp28
 70
     1
102
RTVSPropertyOp29
 70
     1
102
RTVSPropertyOp30
 70
     1
102
RTVSPropertyOp31
 70
     1
102
RTVSPropertyOp32
 70
     1
  0
XRECORD
  5
253
102
{ACAD_REACTORS
330
252
102
}
330
252
100
AcDbXrecord
280
     1
102
RTVSPropertyOp0
 70
     1
102
RTVSPropertyOp1
 70
     1
102
RTVSPropertyOp2
 70
     1
102
RTVSPropertyOp3
 70
     1
102
RTVSPropertyOp4
 70
     1
102
RTVSPropertyOp5
 70
     1
102
RTVSPropertyOp6
 70
     1
102
RTVSPropertyOp7
 70
     1
102
RTVSPropertyOp8
 70
     1
102
RTVSPropertyOp9
 70
     1
102
RTVSPropertyOp10
 70
     1
102
RTVSPropertyOp11
 70
     1
102
RTVSPropertyOp12
 70
     1
102
RTVSPropertyOp13
 70
     1
102
RTVSPropertyOp14
 70
     1
102
RTVSPropertyOp15
 70
     1
102
RTVSPropertyOp16
 70
     1
102
RTVSPropertyOp17
 70
     1
102
RTVSPropertyOp18
 70
     1
102
RTVSPropertyOp19
 70
     1
102
RTVSPropertyOp20
 70
     1
102
RTVSPropertyOp21
 70
     1
102
RTVSPropertyOp22
 70
     1
102
RTVSPropertyOp23
 70
     1
102
RTVSPropertyOp24
 70
     1
102
RTVSPropertyOp25
 70
     1
102
RTVSPropertyOp26
 70
     1
102
RTVSPropertyOp27
 70
     1
102
RTVSPropertyOp28
 70
     1
102
RTVSPropertyOp29
 70
     1
102
RTVSPropertyOp30
 70
     1
102
RTVSPropertyOp31
 70
     1
102
RTVSPropertyOp32
 70
     1
  0
XRECORD
  5
25B
102
{ACAD_REACTORS
330
25A
102
}
330
25A
100
AcDbXrecord
280
     1
102
RTVSPropertyOp0
 70
     1
102
RTVSPropertyOp1
 70
     1
102
RTVSPropertyOp2
 70
     1
102
RTVSPropertyOp3
 70
     1
102
RTVSPropertyOp4
 70
     1
102
RTVSPropertyOp5
 70
     1
102
RTVSPropertyOp6
 70
     1
102
RTVSPropertyOp7
 70
     1
102
RTVSPropertyOp8
 70
     1
102
RTVSPropertyOp9
 70
     1
102
RTVSPropertyOp10
 70
     1
102
RTVSPropertyOp11
 70
     1
102
RTVSPropertyOp12
 70
     1
102
RTVSPropertyOp13
 70
     1
102
RTVSPropertyOp14
 70
     1
102
RTVSPropertyOp15
 70
     1
102
RTVSPropertyOp16
 70
     1
102
RTVSPropertyOp17
 70
     1
102
RTVSPropertyOp18
 70
     1
102
RTVSPropertyOp19
 70
     1
102
RTVSPropertyOp20
 70
     1
102
RTVSPropertyOp21
 70
     1
102
RTVSPropertyOp22
 70
     1
102
RTVSPropertyOp23
 70
     1
102
RTVSPropertyOp24
 70
     1
102
RTVSPropertyOp25
 70
     1
102
RTVSPropertyOp26
 70
     1
102
RTVSPropertyOp27
 70
     1
102
RTVSPropertyOp28
 70
     1
102
RTVSPropertyOp29
 70
     1
102
RTVSPropertyOp30
 70
     1
102
RTVSPropertyOp31
 70
     1
102
RTVSPropertyOp32
 70
     1
  0
XRECORD
  5
263
102
{ACAD_REACTORS
330
262
102
}
330
262
100
AcDbXrecord
280
     1
102
RTVSPropertyOp0
 70
     1
102
RTVSPropertyOp1
 70
     1
102
RTVSPropertyOp2
 70
     1
102
RTVSPropertyOp3
 70
     1
102
RTVSPropertyOp4
 70
     1
102
RTVSPropertyOp5
 70
     1
102
RTVSPropertyOp6
 70
     1
102
RTVSPropertyOp7
 70
     1
102
RTVSPropertyOp8
 70
     1
102
RTVSPropertyOp9
 70
     1
102
RTVSPropertyOp10
 70
     1
102
RTVSPropertyOp11
 70
     1
102
RTVSPropertyOp12
 70
     1
102
RTVSPropertyOp13
 70
     1
102
RTVSPropertyOp14
 70
     1
102
RTVSPropertyOp15
 70
     1
102
RTVSPropertyOp16
 70
     1
102
RTVSPropertyOp17
 70
     1
102
RTVSPropertyOp18
 70
     1
102
RTVSPropertyOp19
 70
     1
102
RTVSPropertyOp20
 70
     1
102
RTVSPropertyOp21
 70
     1
102
RTVSPropertyOp22
 70
     1
102
RTVSPropertyOp23
 70
     1
102
RTVSPropertyOp24
 70
     1
102
RTVSPropertyOp25
 70
     1
102
RTVSPropertyOp26
 70
     1
102
RTVSPropertyOp27
 70
     1
102
RTVSPropertyOp28
 70
     1
102
RTVSPropertyOp29
 70
     1
102
RTVSPropertyOp30
 70
     1
102
RTVSPropertyOp31
 70
     1
102
RTVSPropertyOp32
 70
     1
  0
XRECORD
  5
257
102
{ACAD_REACTORS
330
256
102
}
330
256
100
AcDbXrecord
280
     1
102
RTVSPropertyOp0
 70
     1
102
RTVSPropertyOp1
 70
     1
102
RTVSPropertyOp2
 70
     1
102
RTVSPropertyOp3
 70
     1
102
RTVSPropertyOp4
 70
     1
102
RTVSPropertyOp5
 70
     1
102
RTVSPropertyOp6
 70
     1
102
RTVSPropertyOp7
 70
     1
102
RTVSPropertyOp8
 70
     1
102
RTVSPropertyOp9
 70
     1
102
RTVSPropertyOp10
 70
     1
102
RTVSPropertyOp11
 70
     1
102
RTVSPropertyOp12
 70
     1
102
RTVSPropertyOp13
 70
     1
102
RTVSPropertyOp14
 70
     1
102
RTVSPropertyOp15
 70
     1
102
RTVSPropertyOp16
 70
     1
102
RTVSPropertyOp17
 70
     1
102
RTVSPropertyOp18
 70
     1
102
RTVSPropertyOp19
 70
     1
102
RTVSPropertyOp20
 70
     1
102
RTVSPropertyOp21
 70
     1
102
RTVSPropertyOp22
 70
     1
102
RTVSPropertyOp23
 70
     1
102
RTVSPropertyOp24
 70
     1
102
RTVSPropertyOp25
 70
     1
102
RTVSPropertyOp26
 70
     1
102
RTVSPropertyOp27
 70
     1
102
RTVSPropertyOp28
 70
     1
102
RTVSPropertyOp29
 70
     1
102
RTVSPropertyOp30
 70
     1
102
RTVSPropertyOp31
 70
     1
102
RTVSPropertyOp32
 70
     1
  0
XRECORD
  5
259
102
{ACAD_REACTORS
330
258
102
}
330
258
100
AcDbXrecord
280
     1
102
RTVSPropertyOp0
 70
     1
102
RTVSPropertyOp1
 70
     1
102
RTVSPropertyOp2
 70
     1
102
RTVSPropertyOp3
 70
     1
102
RTVSPropertyOp4
 70
     1
102
RTVSPropertyOp5
 70
     1
102
RTVSPropertyOp6
 70
     1
102
RTVSPropertyOp7
 70
     1
102
RTVSPropertyOp8
 70
     1
102
RTVSPropertyOp9
 70
     1
102
RTVSPropertyOp10
 70
     1
102
RTVSPropertyOp11
 70
     1
102
RTVSPropertyOp12
 70
     1
102
RTVSPropertyOp13
 70
     1
102
RTVSPropertyOp14
 70
     1
102
RTVSPropertyOp15
 70
     1
102
RTVSPropertyOp16
 70
     1
102
RTVSPropertyOp17
 70
     1
102
RTVSPropertyOp18
 70
     1
102
RTVSPropertyOp19
 70
     1
102
RTVSPropertyOp20
 70
     1
102
RTVSPropertyOp21
 70
     1
102
RTVSPropertyOp22
 70
     1
102
RTVSPropertyOp23
 70
     1
102
RTVSPropertyOp24
 70
     1
102
RTVSPropertyOp25
 70
     1
102
RTVSPropertyOp26
 70
     1
102
RTVSPropertyOp27
 70
     1
102
RTVSPropertyOp28
 70
     1
102
RTVSPropertyOp29
 70
     1
102
RTVSPropertyOp30
 70
     1
102
RTVSPropertyOp31
 70
     1
102
RTVSPropertyOp32
 70
     1
  0
XRECORD
  5
261
102
{ACAD_REACTORS
330
260
102
}
330
260
100
AcDbXrecord
280
     1
102
RTVSPropertyOp0
 70
     1
102
RTVSPropertyOp1
 70
     1
102
RTVSPropertyOp2
 70
     1
102
RTVSPropertyOp3
 70
     1
102
RTVSPropertyOp4
 70
     1
102
RTVSPropertyOp5
 70
     1
102
RTVSPropertyOp6
 70
     1
102
RTVSPropertyOp7
 70
     1
102
RTVSPropertyOp8
 70
     1
102
RTVSPropertyOp9
 70
     1
102
RTVSPropertyOp10
 70
     1
102
RTVSPropertyOp11
 70
     1
102
RTVSPropertyOp12
 70
     1
102
RTVSPropertyOp13
 70
     1
102
RTVSPropertyOp14
 70
     1
102
RTVSPropertyOp15
 70
     1
102
RTVSPropertyOp16
 70
     1
102
RTVSPropertyOp17
 70
     1
102
RTVSPropertyOp18
 70
     1
102
RTVSPropertyOp19
 70
     1
102
RTVSPropertyOp20
 70
     1
102
RTVSPropertyOp21
 70
     1
102
RTVSPropertyOp22
 70
     1
102
RTVSPropertyOp23
 70
     1
102
RTVSPropertyOp24
 70
     1
102
RTVSPropertyOp25
 70
     1
102
RTVSPropertyOp26
 70
     1
102
RTVSPropertyOp27
 70
     1
102
RTVSPropertyOp28
 70
     1
102
RTVSPropertyOp29
 70
     1
102
RTVSPropertyOp30
 70
     1
102
RTVSPropertyOp31
 70
     1
102
RTVSPropertyOp32
 70
     1
  0
XRECORD
  5
245
102
{ACAD_REACTORS
330
244
102
}
330
244
100
AcDbXrecord
280
     1
102
RTVSPropertyOp0
 70
     1
102
RTVSPropertyOp1
 70
     1
102
RTVSPropertyOp2
 70
     1
102
RTVSPropertyOp3
 70
     1
102
RTVSPropertyOp4
 70
     1
102
RTVSPropertyOp5
 70
     1
102
RTVSPropertyOp6
 70
     1
102
RTVSPropertyOp7
 70
     1
102
RTVSPropertyOp8
 70
     1
102
RTVSPropertyOp9
 70
     1
102
RTVSPropertyOp10
 70
     1
102
RTVSPropertyOp11
 70
     1
102
RTVSPropertyOp12
 70
     1
102
RTVSPropertyOp13
 70
     1
102
RTVSPropertyOp14
 70
     1
102
RTVSPropertyOp15
 70
     1
102
RTVSPropertyOp16
 70
     1
102
RTVSPropertyOp17
 70
     1
102
RTVSPropertyOp18
 70
     1
102
RTVSPropertyOp19
 70
     1
102
RTVSPropertyOp20
 70
     1
102
RTVSPropertyOp21
 70
     1
102
RTVSPropertyOp22
 70
     1
102
RTVSPropertyOp23
 70
     1
102
RTVSPropertyOp24
 70
     1
102
RTVSPropertyOp25
 70
     1
102
RTVSPropertyOp26
 70
     1
102
RTVSPropertyOp27
 70
     1
102
RTVSPropertyOp28
 70
     1
102
RTVSPropertyOp29
 70
     1
102
RTVSPropertyOp30
 70
     1
102
RTVSPropertyOp31
 70
     1
102
RTVSPropertyOp32
 70
     1
  0
XRECORD
  5
247
102
{ACAD_REACTORS
330
246
102
}
330
246
100
AcDbXrecord
280
     1
102
RTVSPropertyOp0
 70
     1
102
RTVSPropertyOp1
 70
     1
102
RTVSPropertyOp2
 70
     1
102
RTVSPropertyOp3
 70
     1
102
RTVSPropertyOp4
 70
     1
102
RTVSPropertyOp5
 70
     1
102
RTVSPropertyOp6
 70
     1
102
RTVSPropertyOp7
 70
     1
102
RTVSPropertyOp8
 70
     1
102
RTVSPropertyOp9
 70
     1
102
RTVSPropertyOp10
 70
     1
102
RTVSPropertyOp11
 70
     1
102
RTVSPropertyOp12
 70
     1
102
RTVSPropertyOp13
 70
     1
102
RTVSPropertyOp14
 70
     1
102
RTVSPropertyOp15
 70
     1
102
RTVSPropertyOp16
 70
     1
102
RTVSPropertyOp17
 70
     1
102
RTVSPropertyOp18
 70
     1
102
RTVSPropertyOp19
 70
     1
102
RTVSPropertyOp20
 70
     1
102
RTVSPropertyOp21
 70
     1
102
RTVSPropertyOp22
 70
     1
102
RTVSPropertyOp23
 70
     1
102
RTVSPropertyOp24
 70
     1
102
RTVSPropertyOp25
 70
     1
102
RTVSPropertyOp26
 70
     1
102
RTVSPropertyOp27
 70
     1
102
RTVSPropertyOp28
 70
     1
102
RTVSPropertyOp29
 70
     1
102
RTVSPropertyOp30
 70
     1
102
RTVSPropertyOp31
 70
     1
102
RTVSPropertyOp32
 70
     1
  0
XRECORD
  5
249
102
{ACAD_REACTORS
330
248
102
}
330
248
100
AcDbXrecord
280
     1
102
RTVSPropertyOp0
 70
     1
102
RTVSPropertyOp1
 70
     1
102
RTVSPropertyOp2
 70
     1
102
RTVSPropertyOp3
 70
     1
102
RTVSPropertyOp4
 70
     1
102
RTVSPropertyOp5
 70
     1
102
RTVSPropertyOp6
 70
     1
102
RTVSPropertyOp7
 70
     1
102
RTVSPropertyOp8
 70
     1
102
RTVSPropertyOp9
 70
     1
102
RTVSPropertyOp10
 70
     1
102
RTVSPropertyOp11
 70
     1
102
RTVSPropertyOp12
 70
     1
102
RTVSPropertyOp13
 70
     1
102
RTVSPropertyOp14
 70
     1
102
RTVSPropertyOp15
 70
     1
102
RTVSPropertyOp16
 70
     1
102
RTVSPropertyOp17
 70
     1
102
RTVSPropertyOp18
 70
     1
102
RTVSPropertyOp19
 70
     1
102
RTVSPropertyOp20
 70
     1
102
RTVSPropertyOp21
 70
     1
102
RTVSPropertyOp22
 70
     1
102
RTVSPropertyOp23
 70
     1
102
RTVSPropertyOp24
 70
     1
102
RTVSPropertyOp25
 70
     1
102
RTVSPropertyOp26
 70
     1
102
RTVSPropertyOp27
 70
     1
102
RTVSPropertyOp28
 70
     1
102
RTVSPropertyOp29
 70
     1
102
RTVSPropertyOp30
 70
     1
102
RTVSPropertyOp31
 70
     1
102
RTVSPropertyOp32
 70
     1
  0
XRECORD
  5
24B
102
{ACAD_REACTORS
330
24A
102
}
330
24A
100
AcDbXrecord
280
     1
102
RTVSPropertyOp0
 70
     1
102
RTVSPropertyOp1
 70
     1
102
RTVSPropertyOp2
 70
     1
102
RTVSPropertyOp3
 70
     1
102
RTVSPropertyOp4
 70
     1
102
RTVSPropertyOp5
 70
     1
102
RTVSPropertyOp6
 70
     1
102
RTVSPropertyOp7
 70
     1
102
RTVSPropertyOp8
 70
     1
102
RTVSPropertyOp9
 70
     1
102
RTVSPropertyOp10
 70
     1
102
RTVSPropertyOp11
 70
     1
102
RTVSPropertyOp12
 70
     1
102
RTVSPropertyOp13
 70
     1
102
RTVSPropertyOp14
 70
     1
102
RTVSPropertyOp15
 70
     1
102
RTVSPropertyOp16
 70
     1
102
RTVSPropertyOp17
 70
     1
102
RTVSPropertyOp18
 70
     1
102
RTVSPropertyOp19
 70
     1
102
RTVSPropertyOp20
 70
     1
102
RTVSPropertyOp21
 70
     1
102
RTVSPropertyOp22
 70
     1
102
RTVSPropertyOp23
 70
     1
102
RTVSPropertyOp24
 70
     1
102
RTVSPropertyOp25
 70
     1
102
RTVSPropertyOp26
 70
     1
102
RTVSPropertyOp27
 70
     1
102
RTVSPropertyOp28
 70
     1
102
RTVSPropertyOp29
 70
     1
102
RTVSPropertyOp30
 70
     1
102
RTVSPropertyOp31
 70
     1
102
RTVSPropertyOp32
 70
     1
  0
XRECORD
  5
25F
102
{ACAD_REACTORS
330
25E
102
}
330
25E
100
AcDbXrecord
280
     1
102
RTVSPropertyOp0
 70
     1
102
RTVSPropertyOp1
 70
     1
102
RTVSPropertyOp2
 70
     1
102
RTVSPropertyOp3
 70
     1
102
RTVSPropertyOp4
 70
     1
102
RTVSPropertyOp5
 70
     1
102
RTVSPropertyOp6
 70
     1
102
RTVSPropertyOp7
 70
     1
102
RTVSPropertyOp8
 70
     1
102
RTVSPropertyOp9
 70
     1
102
RTVSPropertyOp10
 70
     1
102
RTVSPropertyOp11
 70
     1
102
RTVSPropertyOp12
 70
     1
102
RTVSPropertyOp13
 70
     1
102
RTVSPropertyOp14
 70
     1
102
RTVSPropertyOp15
 70
     1
102
RTVSPropertyOp16
 70
     1
102
RTVSPropertyOp17
 70
     1
102
RTVSPropertyOp18
 70
     1
102
RTVSPropertyOp19
 70
     1
102
RTVSPropertyOp20
 70
     1
102
RTVSPropertyOp21
 70
     1
102
RTVSPropertyOp22
 70
     1
102
RTVSPropertyOp23
 70
     1
102
RTVSPropertyOp24
 70
     1
102
RTVSPropertyOp25
 70
     1
102
RTVSPropertyOp26
 70
     1
102
RTVSPropertyOp27
 70
     1
102
RTVSPropertyOp28
 70
     1
102
RTVSPropertyOp29
 70
     1
102
RTVSPropertyOp30
 70
     1
102
RTVSPropertyOp31
 70
     1
102
RTVSPropertyOp32
 70
     1
  0
XRECORD
  5
255
102
{ACAD_REACTORS
330
254
102
}
330
254
100
AcDbXrecord
280
     1
102
RTVSPropertyOp0
 70
     1
102
RTVSPropertyOp1
 70
     1
102
RTVSPropertyOp2
 70
     1
102
RTVSPropertyOp3
 70
     1
102
RTVSPropertyOp4
 70
     1
102
RTVSPropertyOp5
 70
     1
102
RTVSPropertyOp6
 70
     1
102
RTVSPropertyOp7
 70
     1
102
RTVSPropertyOp8
 70
     1
102
RTVSPropertyOp9
 70
     1
102
RTVSPropertyOp10
 70
     1
102
RTVSPropertyOp11
 70
     1
102
RTVSPropertyOp12
 70
     1
102
RTVSPropertyOp13
 70
     1
102
RTVSPropertyOp14
 70
     1
102
RTVSPropertyOp15
 70
     1
102
RTVSPropertyOp16
 70
     1
102
RTVSPropertyOp17
 70
     1
102
RTVSPropertyOp18
 70
     1
102
RTVSPropertyOp19
 70
     1
102
RTVSPropertyOp20
 70
     1
102
RTVSPropertyOp21
 70
     1
102
RTVSPropertyOp22
 70
     1
102
RTVSPropertyOp23
 70
     1
102
RTVSPropertyOp24
 70
     1
102
RTVSPropertyOp25
 70
     1
102
RTVSPropertyOp26
 70
     1
102
RTVSPropertyOp27
 70
     1
102
RTVSPropertyOp28
 70
     1
102
RTVSPropertyOp29
 70
     1
102
RTVSPropertyOp30
 70
     1
102
RTVSPropertyOp31
 70
     1
102
RTVSPropertyOp32
 70
     1
  0
XRECORD
  5
25D
102
{ACAD_REACTORS
330
25C
102
}
330
25C
100
AcDbXrecord
280
     1
102
RTVSPropertyOp0
 70
     1
102
RTVSPropertyOp1
 70
     1
102
RTVSPropertyOp2
 70
     1
102
RTVSPropertyOp3
 70
     1
102
RTVSPropertyOp4
 70
     1
102
RTVSPropertyOp5
 70
     1
102
RTVSPropertyOp6
 70
     1
102
RTVSPropertyOp7
 70
     1
102
RTVSPropertyOp8
 70
     1
102
RTVSPropertyOp9
 70
     1
102
RTVSPropertyOp10
 70
     1
102
RTVSPropertyOp11
 70
     1
102
RTVSPropertyOp12
 70
     1
102
RTVSPropertyOp13
 70
     1
102
RTVSPropertyOp14
 70
     1
102
RTVSPropertyOp15
 70
     1
102
RTVSPropertyOp16
 70
     1
102
RTVSPropertyOp17
 70
     1
102
RTVSPropertyOp18
 70
     1
102
RTVSPropertyOp19
 70
     1
102
RTVSPropertyOp20
 70
     1
102
RTVSPropertyOp21
 70
     1
102
RTVSPropertyOp22
 70
     1
102
RTVSPropertyOp23
 70
     1
102
RTVSPropertyOp24
 70
     1
102
RTVSPropertyOp25
 70
     1
102
RTVSPropertyOp26
 70
     1
102
RTVSPropertyOp27
 70
     1
102
RTVSPropertyOp28
 70
     1
102
RTVSPropertyOp29
 70
     1
102
RTVSPropertyOp30
 70
     1
102
RTVSPropertyOp31
 70
     1
102
RTVSPropertyOp32
 70
     1
  0
ENDSEC
  0
SECTION
  2
THUMBNAILIMAGE
 90
    16364
310
28000000B40000005500000001000800000000000000000000000000000000000000000000000000FFFFFF00FF000000FFFF000000FF000000FFFF000000FF00FF00FF000000000080808000C0C0C000FF000000FF7F7F00A5000000A55252007F0000007F3F3F004C0000004C2626002600000026131300FF3F0000FF9F7F
310
00A5290000A56752007F1F00007F4F3F004C1300004C2F26002609000026171300FF7F0000FFBF7F00A5520000A57C52007F3F00007F5F3F004C2600004C39260026130000261C1300FFBF0000FFDF7F00A57C0000A59152007F5F00007F6F3F004C3900004C422600261C000026211300FFFF0000FFFF7F00A5A50000A5A5
310
52007F7F00007F7F3F004C4C00004C4C26002626000026261300BFFF0000DFFF7F007CA5000091A552005F7F00006F7F3F00394C0000424C26001C260000212613007FFF0000BFFF7F0052A500007CA552003F7F00005F7F3F00264C0000394C2600132600001C2613003FFF00009FFF7F0029A5000067A552001F7F00004F
310
7F3F00134C00002F4C2600092600001726130000FF00007FFF7F0000A5000052A55200007F00003F7F3F00004C0000264C2600002600001326130000FF3F007FFF9F0000A5290052A56700007F1F003F7F4F00004C1300264C2F00002609001326170000FF7F007FFFBF0000A5520052A57C00007F3F003F7F5F00004C2600
310
264C39000026130013261C0000FFBF007FFFDF0000A57C0052A59100007F5F003F7F6F00004C3900264C420000261C001326210000FFFF007FFFFF0000A5A50052A5A500007F7F003F7F7F00004C4C00264C4C00002626001326260000BFFF007FDFFF00007CA5005291A500005F7F003F6F7F0000394C0026424C00001C26
310
0013212600007FFF007FBFFF000052A500527CA500003F7F003F5F7F0000264C0026394C0000132600131C2600003FFF007F9FFF000029A5005267A500001F7F003F4F7F0000134C00262F4C0000092600131726000000FF007F7FFF000000A5005252A50000007F003F3F7F0000004C0026264C0000002600131326003F00
310
FF009F7FFF002900A5006752A5001F007F004F3F7F0013004C002F264C0009002600171326007F00FF00BF7FFF005200A5007C52A5003F007F005F3F7F0026004C0039264C00130026001C132600BF00FF00DF7FFF007C00A5009152A5005F007F006F3F7F0039004C0042264C001C00260021132600FF00FF00FF7FFF00A5
310
00A500A552A5007F007F007F3F7F004C004C004C264C002600260026132600FF00BF00FF7FDF00A5007C00A55291007F005F007F3F6F004C0039004C26420026001C0026132100FF007F00FF7FBF00A5005200A5527C007F003F007F3F5F004C0026004C2639002600130026131C00FF003F00FF7F9F00A5002900A5526700
310
7F001F007F3F4F004C0013004C262F002600090026131700000000002D2D2D005B5B5B0089898900B7B7B700B3B3B30000000000000000000000000000000000000000000000000000000000000000000000000000000000000000000000000000000000000000000000000000000000000000000000000000000000000000
310
00000000000000000000000000000000000000000000000000000000000000000000000000000000000000000000000000000000000000000000000000000000000000000000000000000000000000000000000000000000000000000000000000000000000000000000000000000000000000000000000000000000000000
310
00000000000000000000000000000000000000000000000000000000000000000000000000000000000000000000000000000000000000000000000000000000000000000000000000000000000000000000000000000000000101010101010101010101010101010100000000000000000000000000000000000000000000
310
00000000000000000000000000000000000000000000000000000000000000000000000000000000000000000000000000000000000000000000000000000000000000000000000000000000000000000000000000000000000000000000000000000000000000000000000000000000000000000000000000000000000000
310
00000000000000000101010101010100000000000000000000000000000001000000000000000000000000000000000000000000000000000000000000000000000000000000000000000000000000000000000000000000000000000000000000000000000000000000000000000000000000000000000000000000000000
310
00000000000000000000000000000000000000000000000000000000000000000000000000000000000000000000000000000000000000010101010101000001010101010101010101010101010101010101010000000000000000000000000000000000000000000000000000000000000000000000000000000000000000
310
00000000000000000000000000000000000000000000000000000000000000000000000000000000000000000000000000000000000000000000000000000000000000000000000000000000000000000000000000000000000000000000000000000000000000010101010100000101010101010000000000000000000000
310
00000000000000000000000000000000000000000000000000000000000000000000000000000000000000000000000000000000000000000000000000000000000000000000000000000000000000000000000000000000000000000000000000000000000000000000000000000000000000000000000000000000000000
310
00000000000000000000000000000000000000000000000001010101010001010101010100000000000000000000000000000000000000000000000000000000000000000000000000000000000000000000000000000000000000000000000000000000000000000000000000000000000000000000000000000000000000
310
00000000000000000000000000000000000000000000000000000000000000000000000000000000000000000000000000000000000000000000000000000000000000000000000000010101010001010101010000000000000000000000000000000000000000000000000000000000000000000000000000000000000000
310
00000000000000000000000000000000000000000000000000000000000000000000000000000000000000000000000000000000000000000000000000000000000000000000000000000000000000000000000000000000000000000000000000000000000000000000000000000000000000000000000000000101010100
310
00010101000000000000000000000000000000000000000000000000000000000000000000000000000000000000000000000000000000000000000000000000000000000000000000000000000000000000000000000000000000000000000000000000000000000000000000000000000000000000000000000000000000
310
00000000000000000000000000000000000000000000000000000000000000000000000000000000000000000101010100000101000100000000000000000000000000000000000000000000000000000000000000000000000000000000000000000000000000000000000000000000000000000000000000000000000000
310
00000000000000000000000000000000000000000000000000000000000000000000000000000000000000000000000000000000000000000000000000000000000000000000000000000000000000000000000000000000000000000000010101000000000101000101000000000000000000000000000000000000000000
310
00000000000000000000000000000000000000000000000000000000000000000000000000000000000000000000000000000000000000000000000000000000000000000000000000000000000000000000000000000000000000000000000000000000000000000000000000000000000000000000000000000000000000
310
00000000000000000000000000000000010101010000000101010100000001010000000000000000000000000000000000000000000000000000000000000000000000000000000000000000000000000000000000000000000000000000000000000000000000000000000000000000000000000000000000000000000000
310
00000000000000000000000000000000000000000000000000000000000000000000000000000000000000000000000000000000000000000000000000000000000001010100000001010101000000000000000101000000000000000000000000000101010101010101010101010101010101010101010101010101010100
310
00000000000000000000000000000000000000000000000000000000000000000000000000000000000000000000000000000000000000000000000000000000000000000000000000000000000000000000000000000000000000000000000000000000000000000000000000000000000000010101010001010101010000
310
00000000000000000001010000000000000101010101010100000101010101010101010101010101010101010101010101010101000000000000000000000000000000000000000000000000000000000000000000000000000000000000000000000000000000000000000000000000000000000000000000000000000000
310
00000000000000000000000000000000000000000000000000000000000000000000000001010101010001010101000000000000000000000000000000000101000101010101000001010101010101000000000000000000000000000000000000000000000000000000000000000000000000000000000000000000000000
310
00000000000000000000000000000000000000000000000000000000000000000000000000000000000000000000000000000000000000000000000000000000000000000000000000000000000000010101010101010101010001010101010000000000000000000000000000000000000001010101000001010101010000
310
00000000000000000000000000000000000000000000000000000000000000000000000000000000000000000000000000000000000000000000000000000000000000000000000000000000000000000000000000000000000000000000000000000000000000000000000000000000000000000000000000000000000000
310
00000000010100000001010101010101000000000000000000000000000000000000000001010101010000000101000000000000000000000000000000000000000000000000000000000000000000000000000000000000000000000000000000000000000000000000000000000000000000000000000000000000000000
310
00000000000000000000000000000000000000000000000000000000000000000000000000000000000000000000000000000000000000000000010101010000000000000000000000000000000000000000000001010101010101010001000101000000000000000000000000000000000000000000000000000000000000
310
00000000000000000000000000000000000000000000000000000000000000000000000000000000000000000000000000000000000000000000000000000000000000000000000000000000000000000000000000000000000000000000000000000000000000000000000000000000000000000000000000000000000000
310
00000000000001010101000101010100000000010001000000000000000000000000000000000000000000000000000000000000000000000000000000000000000000000000000000000000000000000000000000000000000000000000000000000000000000000000000000000000000000000000000000000000000000
310
00000000000000000000000000000000000000000000000000000000000000000000000000000000000000000000000000000000000000000101010101010101000000000000000001000100000000000000000000000000000000000000000000000000000000000000000000000000000000000000000000000000000000
310
00000000000000000000000000000000000000000000000000000000000000000000000000000000000000000000000000000000000000000000000000000000000000000000000000000000000000000000000000000000000000000000000000000000000000000000000101010101000000000000000000000000000001
310
01000000000000000000000000000000000000000000000000000000000000000000000000000000000000000000000000000000000000000000000000000000000000000000000000000000000000000000000000000000000000000000000000000000000000000000000000000000000000000000000000000000000000
310
00000000000000000000000000000000000000000000000000000000000000000001010000000000000000000000000000000000010100000000000000000000000000000000000000000000000000000000000000000000000000000000000000000000000000000000000000000000000000000000000000000000000000
310
00000000000000000000000000000000000000000000000000000000000000000000000000000000000000000000000000000000000000000000000000000000000000000000000000000000000000000000000000000000000000000000000000000000000000000001010000000000000000000000000000000000000000
310
00000000000000000000000000000000000000000000000000000000000000000000000000000000000000000000000000000000000000000000000000000000000000000000000000000000000000000000000000000000000000000000000000000000000000000000000000000000000000000000000000000000000000
310
00000000000000000000000000000000000000000000000000000000000000010100000000000000000000000000000000000000000000000000000000000000000000000000000000000000000000000000000000000000000000000000000000000000000000000000000000000000000000000000000000000000000000
310
00000000000000000000000000000000000000000000000000000000000000000000000000000000000000000000000000000000000000000000000000000000000000000000000000000000000000000000000001010000000000000000000000000000000000000000000000000000000000000000000000000000000000
310
00000000000000000000000000000000000000000000000000000000000000000000000000000000000000000000000000000000000000000000000000000000000000000000000000000000000000000000000000000000000000000000000000000000000000000000000000000000000000000000000000000000000000
310
00000000000000000000010100000000000000000000000000000000000000000000000000000000000000000000000000000000000000000000000000000000000000000000000000000000000000000000000000000000000000000000000000000000000000000000000000000000000000000000000000000000000000
310
00000000000000000000000000000000000000000000000000000000000000000000000000000000000000000000000000000000000000000000000000000001010000000000000000000000000000000000000000000000000000000000000000000000000000000000000000000000000000000000000000000000000000
310
00000000000000000000000000000000000000000000000000000000000000000000000000000000000000000000000000000000000000000000000000000000000000000000000000000000000000000000000000000000000000000000000000000000000000000000000000000000000000000101000000000000000000
310
00000000000000000000000000000000000000000000000000000000000000000000000000000000000000000000000000000000000000000000000000000000000000000000000000000000000000000000000000000000000000000000000000000000000000000000000000000000000000000000000000000000000000
310
00000000000000000000000000000000000000000000000000000000000000000000000000000000000001010000000000000000000000000000000000000000000000000000000000000000000000000000000000000000000000000000000000000000000000000000000000000000000000000000000000000000000000
310
00000000000000000000000000000000000000000000000000000000000000000000000000000000000000000000000000000000000000000000000000000000000000000000000000000000000000000000000000000000000000000000000101000000000000000000000000000000000000000000000000000000000000
310
00000000000000000000000000000000000000000000000000000000000000000000000000000000000000000000000000000000000000000000000000000000000000000000000000000000000000000000000000000000000000000000000000000000000000000000000000000000000000000000000000000000000000
310
00000000000000000000000000000000000000000001010000000000000000000000000000000000000000000000000000000000000000000000000000000000000000000000000000000000000000000000000000000000000000000000000000000000000000000000000000000000000000000000000000000000000000
310
00000000000000000000000000000000000000000000000000000000000000000000000000000000000000000000000000000000000000000000000000000000000000000000000000000101000000000000000000000000000000000000000000000000000000000000000000000000000000000000000000000000000000
310
00000000000000000000000000000000000000000000000000000000000000000000000000000000000000000000000000000000000000000000000000000000000000000000000000000000000000000000000000000000000000000000000000000000000000000000000000000000000000000000000000000000000001
310
00010000000000000000000000000000000000000000000000000000000000000000000000000000000000000000000000000000000000000000000000000000000000000000000000000000000000000000000000000000000000000000000000000000000000000000000000000000000000000000000000000000000000
310
00000000000000000000000000000000000000000000000000000000000000000000000000000000000000000000000000000000010001000000000000000000000000000000000000000000000000000000000000000000000000000000000000000000000000000000000000000000000000000000000000000000000000
310
00000000000000000000000000000000000000000000000000000000000000000000000000000000000000000000000000000000000000000000000000000000000000000000000000000000000000000000000000000000000000000000000000000000000000000001000100000000000000000000000000000000000000
310
00000000000000000000000000000000000000000000000000000000000000000000000000000000000000000000000000000000000000000000000000000000000000000000000000000000000000000000000000000000000000000000000000000000000000000000000000000000000000000000000000000000000000
310
00000000000000000000000000000000000000000000000000000000000000010001000000000000000000000000000000000000000000000000000000000000000000000000000000000000000000000000000000000000000000000000000000000000000000000000000000000000000000000000000000000000000000
310
00000000000000000000000000000000000000000000000000000000000000000000000000000000000000000000000000000000000000000000000000000000000000000000000000000000000000000000000001000100000000000000000000000000000000000000000000000000000000000000000000000000000000
310
00000000000000000000000000000000000000000000000000000000000000000000000000000000000000000000000000000000000000000000000000000000000000000000000000000000000000000000000000000000000000000000000000000000000000000000000000000000000000000000000000000000000000
310
00000000000000000000010001000000000000000000000000000000000000000000000000000000000000000000000000000000000000000000000000000000000000000000000000000000000000000000000000000000000000000000000000000000000000000000000000000000000000000000000000000000000000
310
00000000000000000000000000000000000000000000000000000000000000000000000000000000000000000000000000000000000000000000000000000001000100000000000000000000000000000000000000000000000000000000000000000000000000000000000000000000000000000000000000000000000000
310
00000000000000000000000000000000000000000000000000000000000000000000000000000000000000000000000000000000000000000000000000000000000000000000000000000000000000000000000000000000000000000000000000000000000000000000000101010000000000000100010000000000000000
310
00000000000000000000000000000000000000000000000000000000000000000000000000000000000000000000000000000000000000000000000000000000000000000000000000000000000000000000000000000000000000000000000000000000000000000000000000000000000000000000000000000000000000
310
00000000000000000000000000000000000000000000000000000000000000000001000001010101010101000100000000000000000000000000000000000000000000000000000000000000000000000000000000000000000000000000000000000000000000000000000000000000000000000000000000000000000000
310
00000000000000000000000000000000000000000000000000000000000000000000000000000000000000000000000000000000000000000000000000000000000000000000000000000000000000000000000000000101010101010101010100010101010101010000000000000000000000000000000000000000000000
310
00000000000000000000000000000000000000000000000000000000000000000000000000000000000000000000000000000000000000000000000000000000000000000000000000000000000000000000000000000000000000000000000000000000000000000000000000000000000000000000000000000000000000
310
00000000000000000000000000000000000000000001000101010101010101010100000000000000000000000000000000000000000000000000000000000000000000000000000000000000000000000000000000000000000000000000000000000000000000000000000000000000000000000000000000000000000000
310
00000000000000000000000000000000000000000000000000000000000000000000000000000000000000000000000000000000000000000000000000000000000000000000000000000100010000000000000101000100000000000000000000000000000000000000000000000000000000000000000000000000000000
310
00000000000000000000000000000000000000000000000000000000000000000000000000000000000000000000000000000000000000000000000000000000000000000000000000000000000000000000000000000000000000000000000000000000000000000000000000000000000000000000000000000000000000
310
01000100000000000000010101000000000000000000000000000000000000000000000000000000000000000000000000000000000000000000000000000000000000000000000000000000000000000000000000000000000000000000000000000000000000000000000000000000000000000000000000000000000000
310
00000000000000000000000000000000000000000000000000000000000000000000000000000000000000000000000000000000000100010001010101010100010100000000000000000000000000000000000000000000000000000000000000000000000000000000000000000000000000000000000000000000000000
310
00000000000000000000000000000000000000000000000000000000000000000000000000000000000000000000000000000000000000000000000000000000000000000000000000000000000000000000000000000000000000000001010101010101010101010101010001010000010101010100000000000000000000
310
00000000000000000000000000000000000000000000000000000000000000000000000000000000000000000000000000000000000000000000000000000000000000000000000000000000000000000000000000000000000000000000000000000000000000000000000000000000000000000000000000000000000000
310
00000000000000000000000001010101010101000000000101010101010101010100010101010000000000000000000000000000000000000000000000000000000000000000000000000000000000000000000000000000000000000000000000000000000000000000000000000000000000000000000000000000000000
310
00000000000000000000000000000000000000000000000000000000000000000000000000000000000000000000000000000000000000000000000000000001010001010101010101010101000000000000000000010001000000000000000000000000000000000000000000000000000000000000000000000000000000
310
00000000000000000000000000000000000000000000000000000000000000000000000000000000000000000000000000000000000000000000000000000000000000000000000000000000000000000000000000000000000000000000000000000000000000000000000000000000000000000101010000000000000000
310
00000000000000000000000100010000000000000000000000000000000000000000000000000000000000000000000000000000000000000000000000000000000000000000000000000000000000000000000000000000000000000000000000000000000000000000000000000000000000000000000000000000000000
310
00000000000000000000000000000000000000000000000000000000000000000000000000000000000100010000000000000000000000000000000000000000010100000000000000000000000000000000000000000000000000000000000000000000000000000000000000000000000000000000000000000000000000
310
00000000000000000000000000000000000000000000000000000000000000000000000000000000000000000000000000000000000000000000000000000000000000000000000000000000000000000000000000000000000000000000010101010000000000000000000000000000000000000001010000000000000000
310
00000000000000000000000000000000000000000000000000000000000000000000000000000000000000000000000000000000000000000000000000000000000000000000000000000000000000000000000000000000000000000000000000000000000000000000000000000000000000000000000000000000000000
310
00000000000000000000000000000000000000000001010101010101010000000000000000000000000000010100000000000000000000000000000000000000000000000000000000000000000000000000000000000000000000000000000000000000000000000000000000000000000000000000000000000000000000
310
00000000000000000000000000000000000000000000000000000000000000000000000000000000000000000000000000000000000000000000000000000000000000000000000000000000010101010100010101010101010101010101010101000101010101010101010000000000000000000000000000000000000000
310
00000000000000000000000000000000000000000000000000000000000000000000000000000000000000000000000000000000000000000000000000000000000000000000000000000000000000000000000000000000000000000000000000000000000000000000000000000000000000000000000000000000000000
310
00000000000000010101010101010101010101010101010101010101010101010101000000000000000000000000000000000000000000000000000000000000000000000000000000000000000000000000000000000000000000000000000000000000000000000000000000000000000000000000000000000000000000
310
00000000000000000000000000000000000000000000000000000000000000000000000000000000000000000000000000000000000000000000000000000000000000000000000000000001010000000000000000010100000000000000000000000000000000000000000000000000000000000000000000000000000000
310
00000000000000000000000000000000000000000000000000000000000000000000000000000000000000000000000000000000000000000000000000000000000000000000000000000000000000000000000000000000000000000000000000000000000000000000000000000000000000000000000000000000000000
310
00010100000000000000010101000000000000000000000000000000000000000000000000000000000000000000000000000000000000000000000000000000000000000000000000000000000000000000000000000000000000000000000000000000000000000000000000000000000000000000000000000000000000
310
00000000000000000000000000000000000000000000000000000000000000000000000000000000000000000000000000000000000001010000000101010101010000000000000000000000000000000000000000000000000000000000000000000000000000000000000000000000000000000000000000000000000000
310
00000000000000000000000000000000000000000000000000000000000000000000000000000000000000000000000000000000000000000000000000000000000000000000000000000000000000000000000000000000000000000000000000000000000000000000000101010101010101010000000000000000000000
310
00000000000000000000000000000000000000000000000000000000000000000000000000000000000000000000000000000000000000000000000000000000000000000000000000000000000000000000000000000000000000000000000000000000000000000000000000000000000000000000000000000000000000
310
00000000000000000000000000000000000000000000000000000000010101010101000001010000000000000000000000000000000000000000000000000000000000000000000000000000000000000000000000000000000000000000000000000000000000000000000000000000000000000000000000000000000000
310
00000000000000000000000000000000000000000000000000000000000000000000000000000000000000000000000000000000000000000000000000000000000000000000000000000000000101010100010101010101010000000000000000000000000000000000000000000000000000000000000000000000000000
310
00000000000000000000000000000000000000000000000000000000000000000000000000000000000000000000000000000000000000000000000000000000000000000000000000000000000000000000000000000000000000000000000000000000000000000000000000000000000000000000000000000000000000
310
00010100010101010000000001010000000000000000000000000000000000000000000000000000000000000000000000000000000000000000000000000000000000000000000000000000000000000000000000000000000000000000000000000000000000000000000000000000000000000000000000000000000000
310
00000000000000000000000000000000000000000000000000000000000000000000000000000000000000000000000000000000000101010100000000000000000101000000000000000000000000000000000000000000000000000000000000000000000000000000000000000000000000000000000000000000000000
310
00000000000000000000000000000000000000000000000000000000000000000000000000000000000000000000000000000000000000000000000000000000000000000000000000000000000000000000000000000000000000000000000000000000000000000000010101010101010000000000010100000000000000
310
00000000000000000000000000000000000000000000000000000000000000000000000000000000000000000000000000000000000000000000000000000000000000000000000000000000000000000000000000000000000000000000000000000000000000000000000000000000000000000000000000000000000000
310
00000000000000000000000000000000000000000000000000000000000000000001010101000001010101010101010101010100000000000000000000000000000000000000000000000000000000000000000000000000000000000000000000000000000000000000000000000000000000000000000000000000000000
310
00000000000000000000000000000000000000000000000000000000000000000000000000000000000000000000000000000000000000000000000000000000000000000000000000000000000000000000000000000000000001010101010101010101010101000101000000000000000000000000000000000000000000
310
00000000000000000000000000000000000000000000000000000000000000000000000000000000000000000000000000000000000000000000000000000000000000000000000000000000000000000000000000000000000000000000000000000000000000000000000000000000000000000000000000000000000000
310
00000000000000000000000000000000000000000000000101000000000101010000000000000000000000000000000000000000000000000000000000000000000000000000000000000000000000000000000000000000000000000000000000000000000000000000000000000000000000000000000000000000000000
310
00000000000000000000000000000000000000000000000000000000000000000000000000000000000000000000000000000000000000000000000000000000000000000000000000000000010100010101010100000000000000000000000000000000000000000000000000000000000000000000000000000000000000
310
00000000000000000000000000000000000000000000000000000000000000000000000000000000000000000000000000000000000000000000000000000000000000000000000000000000000000000000000000000000000000000000000000000000000000000000000000000000000000000000000000000000000000
310
00000101010001010100000000000000000000000000000000000000000000000000000000000000000000000000000000000000000000000000000000000000000000000000000000000000000000000000000000000000000000000000000000000000000000000000000000000000000000000000000000000000000000
310
00000000000000000000000000000000000000000000000000000000000000000000000000000000000000000000000000000000010101010101010000000000000000000000000000000000000000000000000000000000000000000000000000000000000000000000000000000000000000000000000000000000000000
310
00000000000000000000000000000000000000000000000000000000000000000000000000000000000000000000000000000000000000000000000000000000000000000000000000000000000000000000000000000000000000000000000000000000000000000001010101010000000000000000000000000000000000
310
00000000000000000000000000000000000000000000000000000000000000000000000000000000000000000000000000000000000000000000000000000000000000000000000000000000000000000000000000000000000000000000000000000000000000000000000000000000000000000000000000000000000000
310
00000000000000000000000000000000000000000000000000000000000001010100010100000000000000000000000000000000000000000000000000000000000000000000000000000000000000000000000000000000000000000000000000000000000000000000000000000000000000000000000000000000000000
310
00000000000000000000000000000000000000000000000000000000000000000000000000000000000000000000000000000000000000000000000000000000000000000000000000000000000000000000000101000001010000000000000000000000000000000000000000000000000000000000000000000000000000
310
00000000000000000000000000000000000000000000000000000000000000000000000000000000000000000000000000000000000000000000000000000000000000000000000000000000000000000000000000000000000000000000000000000000000000000000000000000000000000000000000000000000000000
310
00000000000000000001010000010100000000000000000000000000000000000000000000000000000000000000000000000000000000000000000000000000000000000000000000000000000000000000000000000000000000000000000000000000000000000000000000000000000000000000000000000000000000
310
00000000000000000000000000000000000000000000000000000000000000000000000000000000000000000000000000000000000000000000000000000101000001010000000000000000000000000000000000000000000000000000000000000000000000000000000000000000000000000000000000000000000000
310
00000000000000000000000000000000000000000000000000000000000000000000000000000000000000000000000000000000000000000000000000000000000000000000000000000000000000000000000000000000000000000000000000000000000000000000000000000000000000010001000101000000000000
310
00000000000000000000000000000000000000000000000000000000000000000000000000000000000000000000000000000000000000000000000000000000000000000000000000000000000000000000000000000000000000000000000000000000000000000000000000000000000000000000000000000000000000
310
00000000000000000000000000000000000000000000000000000000000000000000000000000000000100010001010000000000000000000000000000000000000000000000000000000000000000000000000000000000000000000000000000000000000000000000000000000000000000000000000000000000000000
310
00000000000000000000000000000000000000000000000000000000000000000000000000000000000000000000000000000000000000000000000000000000000000000000000000000000000000000000000000000000000000000000000101000101000000000000000000000000000000000000000000000000000000
310
00000000000000000000000000000000000000000000000000000000000000000000000000000000000000000000000000000000000000000000000000000000000000000000000000000000000000000000000000000000000000000000000000000000000000000000000000000000000000000000000000000000000000
310
00000000000000000000000000000000000000000001000101010000000000000000000000000000000000000000000000000000000000000000000000000000000000000000000000000000000000000000000000000000000000000000000000000000000000000000000000000000000000000000000000000000000000
310
00000000000000000000000000000000000000000000000000000000000000000000000000000000000000000000000000000000000000000000000000000000000000000000000000000100010101000000000000000000000000000000000000000000000000000000000000000000000000000000000000000000000000
310
00000000000000000000000000000000000000000000000000000000000000000000000000000000000000000000000000000000000000000000000000000000000000000000000000000000000000000000000000000000000000000000000000000000000000000000000000000000000000000000000000000000000000
310
00010101010000000000000000000000000000000000000000000000000000000000000000000000000000000000000000000000000000000000000000000000000000000000000000000000000000000000000000000000000000000000000000000000000000000000000000000000000000000000000000000000000000
310
00000000000000000000000000000000000000000000000000000000000000000000000000000000000000000000000000000000000000010101000000000000000000000000000000000000000000000000000000000000000000000000000000000000000000000000000000000000000000000000000000000000000000
310
00000000000000000000000000000000000000000000000000000000000000000000000000000000000000000000000000000000000000000000000000000000000000000000000000000000000000000000000000000000000000000000000000000000000000000000000001010100000000000000000000000000000000
310
00000000000000000000000000000000000000000000000000000000000000000000000000000000000000000000000000000000000000000000000000000000000000000000000000000000000000000000000000000000000000000000000000000000000000000000000000000000000000000000000000000000000000
310
00000000000000000000000000000000000000000000000000000000000000000000010001000000000000000000000000000000000000000000000000000000000000000000000000000000000000000000000000000000000000000000000000000000000000000000000000000000000000000000000000000000000000
310
00000000000000000000000000000000000000000000000000000000000000000000000000000000000000000000000000000000000000000000000000000000000000000000000000000000000000000000000000000000010100000000000000000000000000000000000000000000000000000000000000000000000000
310
00000000000000000000000000000000000000000000000000000000000000000000000000000000000000000000000000000000000000000000000000000000000000000000000000000000000000000000000000000000000000000000000000000000000000000000000000000000000000000000000000000000000000
310
000000000000000000000000000001000000000000000000000000000000000000000000000000000000000000000000000000000000000000000000000000000000000000000000000000000000000000000000000000000000000000000000000000000000000000000000
  0
ENDSEC
  0
EOF
