  0
SECTION
  2
HEADER
  9
$ACADVER
  1
AC1014
  9
$ACADMAINTVER
 70
     9
  9
$DWGCODEPAGE
  3
ANSI_1251
  9
$INSBASE
 10
0.0
 20
0.0
 30
0.0
  9
$EXTMIN
 10
1.000000000000000E+20
 20
1.000000000000000E+20
 30
1.000000000000000E+20
  9
$EXTMAX
 10
-1.000000000000000E+20
 20
-1.000000000000000E+20
 30
-1.000000000000000E+20
  9
$LIMMIN
 10
0.0
 20
0.0
  9
$LIMMAX
 10
12.0
 20
9.0
  9
$ORTHOMODE
 70
     0
  9
$REGENMODE
 70
     1
  9
$FILLMODE
 70
     1
  9
$QTEXTMODE
 70
     0
  9
$MIRRTEXT
 70
     1
  9
$DRAGMODE
 70
     2
  9
$LTSCALE
 40
1.0
  9
$OSMODE
 70
    37
  9
$ATTMODE
 70
     1
  9
$TEXTSIZE
 40
0.2
  9
$TRACEWID
 40
0.05
  9
$TEXTSTYLE
  7
STANDARD
  9
$CLAYER
  8
0
  9
$CELTYPE
  6
BYLAYER
  9
$CECOLOR
 62
   256
  9
$CELTSCALE
 40
1.0
  9
$DELOBJ
 70
     1
  9
$DISPSILH
 70
     0
  9
$DIMSCALE
 40
1.0
  9
$DIMASZ
 40
0.18
  9
$DIMEXO
 40
0.0625
  9
$DIMDLI
 40
0.38
  9
$DIMRND
 40
0.0
  9
$DIMDLE
 40
0.0
  9
$DIMEXE
 40
0.18
  9
$DIMTP
 40
0.0
  9
$DIMTM
 40
0.0
  9
$DIMTXT
 40
0.18
  9
$DIMCEN
 40
0.09
  9
$DIMTSZ
 40
0.0
  9
$DIMTOL
 70
     0
  9
$DIMLIM
 70
     0
  9
$DIMTIH
 70
     1
  9
$DIMTOH
 70
     1
  9
$DIMSE1
 70
     0
  9
$DIMSE2
 70
     0
  9
$DIMTAD
 70
     0
  9
$DIMZIN
 70
     0
  9
$DIMBLK
  1

  9
$DIMASO
 70
     1
  9
$DIMSHO
 70
     1
  9
$DIMPOST
  1

  9
$DIMAPOST
  1

  9
$DIMALT
 70
     0
  9
$DIMALTD
 70
     2
  9
$DIMALTF
 40
25.4
  9
$DIMLFAC
 40
1.0
  9
$DIMTOFL
 70
     0
  9
$DIMTVP
 40
0.0
  9
$DIMTIX
 70
     0
  9
$DIMSOXD
 70
     0
  9
$DIMSAH
 70
     0
  9
$DIMBLK1
  1

  9
$DIMBLK2
  1

  9
$DIMSTYLE
  2
STANDARD
  9
$DIMCLRD
 70
     0
  9
$DIMCLRE
 70
     0
  9
$DIMCLRT
 70
     0
  9
$DIMTFAC
 40
1.0
  9
$DIMGAP
 40
0.09
  9
$DIMJUST
 70
     0
  9
$DIMSD1
 70
     0
  9
$DIMSD2
 70
     0
  9
$DIMTOLJ
 70
     1
  9
$DIMTZIN
 70
     0
  9
$DIMALTZ
 70
     0
  9
$DIMALTTZ
 70
     0
  9
$DIMFIT
 70
     3
  9
$DIMUPT
 70
     0
  9
$DIMUNIT
 70
     2
  9
$DIMDEC
 70
     4
  9
$DIMTDEC
 70
     4
  9
$DIMALTU
 70
     2
  9
$DIMALTTD
 70
     2
  9
$DIMTXSTY
  7
STANDARD
  9
$DIMAUNIT
 70
     0
  9
$LUNITS
 70
     2
  9
$LUPREC
 70
     4
  9
$SKETCHINC
 40
0.1
  9
$FILLETRAD
 40
0.5
  9
$AUNITS
 70
     0
  9
$AUPREC
 70
     0
  9
$MENU
  1
.
  9
$ELEVATION
 40
0.0
  9
$PELEVATION
 40
0.0
  9
$THICKNESS
 40
0.0
  9
$LIMCHECK
 70
     0
  9
$CHAMFERA
 40
0.0
  9
$CHAMFERB
 40
0.0
  9
$CHAMFERC
 40
0.0
  9
$CHAMFERD
 40
0.0
  9
$SKPOLY
 70
     0
  9
$TDCREATE
 40
2459887.493040382
  9
$TDUPDATE
 40
2459887.493041562
  9
$TDINDWG
 40
0.0000000116
  9
$TDUSRTIMER
 40
0.0000000116
  9
$USRTIMER
 70
     1
  9
$ANGBASE
 50
0.0
  9
$ANGDIR
 70
     0
  9
$PDMODE
 70
     0
  9
$PDSIZE
 40
0.0
  9
$PLINEWID
 40
0.0
  9
$COORDS
 70
     1
  9
$SPLFRAME
 70
     0
  9
$SPLINETYPE
 70
     6
  9
$SPLINESEGS
 70
     8
  9
$ATTDIA
 70
     0
  9
$ATTREQ
 70
     1
  9
$HANDLING
 70
     1
  9
$HANDSEED
  5
366
  9
$SURFTAB1
 70
     6
  9
$SURFTAB2
 70
     6
  9
$SURFTYPE
 70
     6
  9
$SURFU
 70
     6
  9
$SURFV
 70
     6
  9
$UCSNAME
  2

  9
$UCSORG
 10
0.0
 20
0.0
 30
0.0
  9
$UCSXDIR
 10
1.0
 20
0.0
 30
0.0
  9
$UCSYDIR
 10
0.0
 20
1.0
 30
0.0
  9
$PUCSNAME
  2

  9
$PUCSORG
 10
0.0
 20
0.0
 30
0.0
  9
$PUCSXDIR
 10
1.0
 20
0.0
 30
0.0
  9
$PUCSYDIR
 10
0.0
 20
1.0
 30
0.0
  9
$USERI1
 70
     0
  9
$USERI2
 70
     0
  9
$USERI3
 70
     0
  9
$USERI4
 70
     0
  9
$USERI5
 70
     0
  9
$USERR1
 40
0.0
  9
$USERR2
 40
0.0
  9
$USERR3
 40
0.0
  9
$USERR4
 40
0.0
  9
$USERR5
 40
0.0
  9
$WORLDVIEW
 70
     1
  9
$SHADEDGE
 70
     3
  9
$SHADEDIF
 70
    70
  9
$TILEMODE
 70
     1
  9
$MAXACTVP
 70
    64
  9
$PINSBASE
 10
0.0
 20
0.0
 30
0.0
  9
$PLIMCHECK
 70
     0
  9
$PEXTMIN
 10
1.000000000000000E+20
 20
1.000000000000000E+20
 30
1.000000000000000E+20
  9
$PEXTMAX
 10
-1.000000000000000E+20
 20
-1.000000000000000E+20
 30
-1.000000000000000E+20
  9
$PLIMMIN
 10
0.0
 20
0.0
  9
$PLIMMAX
 10
12.0
 20
9.0
  9
$UNITMODE
 70
     0
  9
$VISRETAIN
 70
     1
  9
$PLINEGEN
 70
     0
  9
$PSLTSCALE
 70
     1
  9
$TREEDEPTH
 70
  3020
  9
$PICKSTYLE
 70
     1
  9
$CMLSTYLE
  2
STANDARD
  9
$CMLJUST
 70
     0
  9
$CMLSCALE
 40
1.0
  9
$PROXYGRAPHICS
 70
     1
  9
$MEASUREMENT
 70
     1
  0
ENDSEC
  0
SECTION
  2
CLASSES
  0
CLASS
  1
ACDBDICTIONARYWDFLT
  2
AcDbDictionaryWithDefault
  3
ObjectDBX Classes
 90
        0
280
     0
281
     0
  0
CLASS
  1
VISUALSTYLE
  2
AcDbVisualStyle
  3
ObjectDBX Classes
 90
     4095
280
     0
281
     0
  0
CLASS
  1
MATERIAL
  2
AcDbMaterial
  3
ObjectDBX Classes
 90
     1153
280
     0
281
     0
  0
CLASS
  1
SCALE
  2
AcDbScale
  3
ObjectDBX Classes
 90
     1153
280
     0
281
     0
  0
CLASS
  1
TABLESTYLE
  2
AcDbTableStyle
  3
ObjectDBX Classes
 90
     4095
280
     0
281
     0
  0
CLASS
  1
MLEADERSTYLE
  2
AcDbMLeaderStyle
  3
ACDB_MLEADERSTYLE_CLASS
 90
     4095
280
     0
281
     0
  0
CLASS
  1
SUN
  2
AcDbSun
  3
SCENEOE
 90
     1153
280
     0
281
     0
  0
CLASS
  1
DICTIONARYVAR
  2
AcDbDictionaryVar
  3
ObjectDBX Classes
 90
        0
280
     0
281
     0
  0
CLASS
  1
XRECORD
  2
AcDbXrecord
  3
ObjectDBX Classes
 90
        0
280
     0
281
     0
  0
CLASS
  1
LWPOLYLINE
  2
AcDbPolyline
  3
ObjectDBX Classes
 90
        0
280
     0
281
     1
  0
CLASS
  1
HATCH
  2
AcDbHatch
  3
ObjectDBX Classes
 90
        0
280
     0
281
     1
  0
CLASS
  1
ACDBPLACEHOLDER
  2
AcDbPlaceHolder
  3
ObjectDBX Classes
 90
        0
280
     0
281
     0
  0
CLASS
  1
LAYOUT
  2
AcDbLayout
  3
ObjectDBX Classes
 90
        0
280
     0
281
     0
  0
ENDSEC
  0
SECTION
  2
TABLES
  0
TABLE
  2
VPORT
  5
8
102
{ACAD_XDICTIONARY
360
35B
102
}
330
0
100
AcDbSymbolTable
 70
     1
  0
VPORT
  5
29
330
8
100
AcDbSymbolTableRecord
100
AcDbViewportTableRecord
  2
*ACTIVE
 70
     0
 10
0.0
 20
0.0
 11
1.0
 21
1.0
 12
0.0
 22
0.0
 13
0.0
 23
0.0
 14
0.5
 24
0.5
 15
0.5
 25
0.5
 16
0.0
 26
0.0
 36
1.0
 17
0.0
 27
0.0
 37
-1000.0
 40
2552.551110291121
 41
1.777520278099652
 42
50.0
 43
11978.64829761857
 44
19298.37401073486
 50
0.0
 51
0.0
 71
     0
 72
   100
 73
     1
 74
     3
 75
     0
 76
     0
 77
     0
 78
     0
  0
ENDTAB
  0
TABLE
  2
LTYPE
  5
5
330
0
100
AcDbSymbolTable
 70
     1
  0
LTYPE
  5
14
330
5
100
AcDbSymbolTableRecord
100
AcDbLinetypeTableRecord
  2
BYBLOCK
 70
     0
  3

 72
    65
 73
     0
 40
0.0
  0
LTYPE
  5
15
330
5
100
AcDbSymbolTableRecord
100
AcDbLinetypeTableRecord
  2
BYLAYER
 70
     0
  3

 72
    65
 73
     0
 40
0.0
  0
LTYPE
  5
16
330
5
100
AcDbSymbolTableRecord
100
AcDbLinetypeTableRecord
  2
CONTINUOUS
 70
     0
  3
Solid line
 72
    65
 73
     0
 40
0.0
  0
ENDTAB
  0
TABLE
  2
LAYER
  5
2
330
0
100
AcDbSymbolTable
 70
     3
  0
LAYER
  5
10
330
2
100
AcDbSymbolTableRecord
100
AcDbLayerTableRecord
  2
0
 70
     0
 62
     7
  6
CONTINUOUS
  0
LAYER
  5
6E
330
2
100
AcDbSymbolTableRecord
100
AcDbLayerTableRecord
  2
PROFILEEDGES
 70
     0
 62
     7
  6
CONTINUOUS
  0
LAYER
  5
6F
330
2
100
AcDbSymbolTableRecord
100
AcDbLayerTableRecord
  2
SECTIONCUTEDGES
 70
     0
 62
     7
  6
CONTINUOUS
  0
ENDTAB
  0
TABLE
  2
STYLE
  5
3
330
0
100
AcDbSymbolTable
 70
     1
  0
STYLE
  5
11
330
3
100
AcDbSymbolTableRecord
100
AcDbTextStyleTableRecord
  2
STANDARD
 70
     0
 40
0.0
 41
1.0
 50
0.0
 71
     0
 42
0.2
  3
txt
  4

  0
ENDTAB
  0
TABLE
  2
VIEW
  5
6
330
0
100
AcDbSymbolTable
 70
     0
  0
ENDTAB
  0
TABLE
  2
UCS
  5
7
330
0
100
AcDbSymbolTable
 70
     0
  0
ENDTAB
  0
TABLE
  2
APPID
  5
9
330
0
100
AcDbSymbolTable
 70
     2
  0
APPID
  5
12
330
9
100
AcDbSymbolTableRecord
100
AcDbRegAppTableRecord
  2
ACAD
 70
     0
  0
APPID
  5
365
330
9
100
AcDbSymbolTableRecord
100
AcDbRegAppTableRecord
  2
ACAD_MLEADERVER
 70
     0
  0
ENDTAB
  0
TABLE
  2
DIMSTYLE
  5
A
330
0
100
AcDbSymbolTable
 70
     1
  0
DIMSTYLE
105
27
330
A
100
AcDbSymbolTableRecord
100
AcDbDimStyleTableRecord
  2
STANDARD
 70
     0
  3

  4

  5

  6

  7

 40
1.0
 41
0.18
 42
0.0625
 43
0.38
 44
0.18
 45
0.0
 46
0.0
 47
0.0
 48
0.0
140
0.18
141
0.09
142
0.0
143
25.4
144
1.0
145
0.0
146
1.0
147
0.09
 71
     0
 72
     0
 73
     1
 74
     1
 75
     0
 76
     0
 77
     0
 78
     0
170
     0
171
     2
172
     0
173
     0
174
     0
175
     0
176
     0
177
     0
178
     0
270
     2
271
     4
272
     4
273
     2
274
     2
340
11
275
     0
280
     0
281
     0
282
     0
283
     1
284
     0
285
     0
286
     0
287
     3
288
     0
  0
ENDTAB
  0
TABLE
  2
BLOCK_RECORD
  5
1
330
0
100
AcDbSymbolTable
 70
     1
  0
BLOCK_RECORD
  5
1F
330
1
100
AcDbSymbolTableRecord
100
AcDbBlockTableRecord
  2
*MODEL_SPACE
  0
BLOCK_RECORD
  5
1B
330
1
100
AcDbSymbolTableRecord
100
AcDbBlockTableRecord
  2
*PAPER_SPACE
  0
ENDTAB
  0
ENDSEC
  0
SECTION
  2
BLOCKS
  0
BLOCK
  5
20
330
1F
100
AcDbEntity
  8
0
100
AcDbBlockBegin
  2
*MODEL_SPACE
 70
     0
 10
0.0
 20
0.0
 30
0.0
  3
*MODEL_SPACE
  1

  0
ENDBLK
  5
21
330
1F
100
AcDbEntity
  8
0
100
AcDbBlockEnd
  0
BLOCK
  5
1C
330
1B
100
AcDbEntity
 67
     1
  8
0
100
AcDbBlockBegin
  2
*PAPER_SPACE
 70
     0
 10
0.0
 20
0.0
 30
0.0
  3
*PAPER_SPACE
  1

  0
ENDBLK
  5
1D
330
1B
100
AcDbEntity
 67
     1
  8
0
100
AcDbBlockEnd
  0
ENDSEC
  0
SECTION
  2
ENTITIES
  0
LINE
  5
70
330
1F
100
AcDbEntity
  8
0
100
AcDbLine
 10
237.7433380126445
 20
34.30081258558987
 30
0.0
 11
257.7433534190914
 21
34.30081881892882
 31
0.0
  0
LINE
  5
71
330
1F
100
AcDbEntity
  8
0
100
AcDbLine
 10
-240.2706972809061
 20
-108.8437737582632
 30
0.0
 11
-220.2707151239587
 21
-108.8702897447639
 31
0.0
  0
LINE
  5
72
330
1F
100
AcDbEntity
  8
0
100
AcDbLine
 10
-633.9317774894872
 20
-108.3221866131314
 30
0.0
 11
-614.6656304861408
 21
-108.3477190441767
 31
0.0
  0
LINE
  5
73
330
1F
100
AcDbEntity
  8
0
100
AcDbLine
 10
-1928.38021515545
 20
-106.6063691266963
 30
0.0
 11
-1908.38023300175
 21
-106.6328798064847
 31
0.0
  0
LINE
  5
74
330
1F
100
AcDbEntity
  8
0
100
AcDbLine
 10
1034.628182489874
 20
-110.5332178575138
 30
0.0
 11
1035.328182639286
 21
-110.5347021963702
 31
0.0
  0
LINE
  5
75
330
1F
100
AcDbEntity
  8
0
100
AcDbLine
 10
557.7433043058326
 20
14.30076278151194
 30
0.0
 11
557.7433297990252
 21
34.24888958213004
 31
0.0
  0
LINE
  5
76
330
1F
100
AcDbEntity
  8
0
100
AcDbLine
 10
240.2427943178106
 20
68.40596330272835
 30
0.0
 11
237.7879361117214
 21
68.40948027457188
 31
0.0
  0
LINE
  5
77
330
1F
100
AcDbEntity
  8
0
100
AcDbLine
 10
237.7433043058217
 20
34.27503359894985
 30
0.0
 11
257.7432855200071
 21
34.24888958213004
 31
0.0
  0
LINE
  5
78
330
1F
100
AcDbEntity
  8
0
100
AcDbLine
 10
255.2879190716972
 20
68.38627499378464
 30
0.0
 11
255.2451100937041
 21
68.38664873799001
 31
0.0
  0
LINE
  5
79
330
1F
100
AcDbEntity
  8
0
100
AcDbLine
 10
537.7433485848401
 20
34.27503359894985
 30
0.0
 11
557.7433297990252
 21
34.24888958213004
 31
0.0
  0
LINE
  5
7A
330
1F
100
AcDbEntity
  8
0
100
AcDbLine
 10
537.787977725946
 20
68.40744223958876
 30
0.0
 11
557.7879611573654
 21
68.38296371198439
 31
0.0
  0
LINE
  5
7B
330
1F
100
AcDbEntity
  8
0
100
AcDbLine
 10
-240.034370383888
 20
69.43811184683523
 30
0.0
 11
-240.0078589313407
 21
89.43881782947723
 31
0.0
  0
LINE
  5
7C
330
1F
100
AcDbEntity
  8
0
100
AcDbLine
 10
-240.6404133986676
 20
-381.8726092007225
 30
0.0
 11
1034.266267211475
 21
-383.5617960628131
 31
0.0
  0
LINE
  5
7D
330
1F
100
AcDbEntity
  8
0
100
AcDbLine
 10
1035.564508058717
 20
67.74785314156229
 30
0.0
 11
1035.564508201468
 21
87.74798036340621
 31
0.0
  0
LINE
  5
7E
330
1F
100
AcDbEntity
  8
0
100
AcDbLine
 10
-220.6061170396991
 20
-361.8986717610285
 30
0.0
 11
1014.992797683454
 21
-363.5365399185662
 31
0.0
  0
LINE
  5
7F
330
1F
100
AcDbEntity
  8
0
100
AcDbLine
 10
1014.992797683454
 20
-363.5365399185662
 30
0.0
 11
1015.328200278615
 21
-110.5082605683527
 31
0.0
  0
LINE
  5
80
330
1F
100
AcDbEntity
  8
0
100
AcDbLine
 10
255.2432969102164
 20
68.78183391901734
 30
0.0
 11
255.2451100937041
 21
68.38664873799001
 31
0.0
  0
LINE
  5
81
330
1F
100
AcDbEntity
  8
0
100
AcDbLine
 10
240.2433117688128
 20
68.80170995990504
 30
0.0
 11
240.2427943178106
 21
68.40596330272835
 31
0.0
  0
LINE
  5
82
330
1F
100
AcDbEntity
  8
0
100
AcDbLine
 10
-633.6954534839622
 20
69.96087123257374
 30
0.0
 11
-614.6325905203132
 21
69.93667386788728
 31
0.0
  0
LINE
  5
83
330
1F
100
AcDbEntity
  8
0
100
AcDbLine
 10
-613.9251175392195
 20
-108.7921794098839
 30
0.0
 11
-614.2864426410256
 21
-381.3765525812221
 31
0.0
  0
LINE
  5
84
330
1F
100
AcDbEntity
  8
0
100
AcDbLine
 10
-1728.742304247684
 20
-379.8992799632908
 30
0.0
 11
-780.6615651694299
 21
-381.1560131939898
 31
0.0
  0
LINE
  5
85
330
1F
100
AcDbEntity
  8
0
100
AcDbLine
 10
-760.6615651694299
 20
-381.182524295395
 30
0.0
 11
-614.63259052031
 21
-381.3760825063346
 31
0.0
  0
LINE
  5
86
330
1F
100
AcDbEntity
  8
0
100
AcDbLine
 10
-1720.43152920028
 20
-359.910278782338
 30
0.0
 11
-1643.843352582492
 21
-360.0118006281763
 31
0.0
  0
LINE
  5
87
330
1F
100
AcDbEntity
  8
0
100
AcDbLine
 10
-1604.600764542624
 20
-360.0638188397229
 30
0.0
 11
-780.6615651694235
 21
-361.155995623044
 31
0.0
  0
LINE
  5
88
330
1F
100
AcDbEntity
  8
0
100
AcDbLine
 10
-760.6615651694235
 20
-361.1825067244494
 30
0.0
 11
-634.2599139919723
 21
-361.3500590740578
 31
0.0
  0
LINE
  5
89
330
1F
100
AcDbEntity
  8
0
100
AcDbLine
 10
-1748.715775598806
 20
-359.8727864561153
 30
0.0
 11
-1720.43152920028
 21
-359.910278782338
 31
0.0
  0
LINE
  5
8A
330
1F
100
AcDbEntity
  8
0
100
AcDbLine
 10
-1748.715775598806
 20
-359.8727864561153
 30
0.0
 11
-1728.742304247684
 21
-379.8992799632908
 31
0.0
  0
LINE
  5
8B
330
1F
100
AcDbEntity
  8
0
100
AcDbLine
 10
-1908.38023300175
 20
-106.6328798064847
 30
0.0
 11
-1908.466054204207
 21
-171.3765918774849
 31
0.0
  0
LINE
  5
8C
330
1F
100
AcDbEntity
  8
0
100
AcDbLine
 10
-1928.117378923893
 20
91.67774637860632
 30
0.0
 11
-1928.143889731941
 21
71.67775271198812
 31
0.0
  0
LINE
  5
8D
330
1F
100
AcDbEntity
  8
0
100
AcDbLine
 10
-845.7919947503681
 20
90.2400934850723
 30
0.0
 11
-845.8185058284827
 21
70.24011105602142
 31
0.0
  0
LINE
  5
8E
330
1F
100
AcDbEntity
  8
0
100
AcDbLine
 10
-1908.466054204207
 20
-171.3765918774849
 30
0.0
 11
-1720.43152920028
 21
-359.910278782338
 31
0.0
  0
LINE
  5
8F
330
1F
100
AcDbEntity
  8
0
100
AcDbLine
 10
-1928.477017758898
 20
-179.6343448915653
 30
0.0
 11
-1908.503546511767
 21
-199.6608382944694
 31
0.0
  0
LINE
  5
90
330
1F
100
AcDbEntity
  8
0
100
AcDbLine
 10
-1908.466054204207
 20
-171.3765918774849
 30
0.0
 11
-1908.503546511767
 21
-199.6608382944694
 31
0.0
  0
LINE
  5
91
330
1F
100
AcDbEntity
  8
0
100
AcDbLine
 10
-1908.503546511767
 20
-199.6608382944694
 30
0.0
 11
-1748.715775598806
 21
-359.8727864561153
 31
0.0
  0
LINE
  5
92
330
1F
100
AcDbEntity
  8
0
100
AcDbLine
 10
-280.632590520592
 20
-361.8453295890861
 30
0.0
 11
-594.6325905203162
 21
-361.8453295913348
 31
0.0
  0
LINE
  5
93
330
1F
100
AcDbEntity
  8
0
100
AcDbLine
 10
-594.63259052031
 20
-381.8453295913346
 30
0.0
 11
-280.6325905205982
 21
-381.8453295890858
 31
0.0
  0
LINE
  5
94
330
1F
100
AcDbEntity
  8
0
100
AcDbLine
 10
-594.6325905203162
 20
-361.8453295913348
 30
0.0
 11
-594.63259052031
 21
-381.8453295913346
 31
0.0
  0
LINE
  5
95
330
1F
100
AcDbEntity
  8
0
100
AcDbLine
 10
-594.6325905204526
 20
89.4671020563427
 30
0.0
 11
-594.63259052031
 21
69.46710205634291
 31
0.0
  0
LINE
  5
96
330
1F
100
AcDbEntity
  8
0
100
AcDbLine
 10
-260.6325905203095
 20
69.46710205873481
 30
0.0
 11
-260.632590520452
 21
89.4671020587346
 31
0.0
  0
LINE
  5
97
330
1F
100
AcDbEntity
  8
0
100
AcDbLine
 10
-614.63259052031
 20
-381.3760825063346
 30
0.0
 11
-614.6325905203099
 21
-381.8453295913347
 31
0.0
  0
LINE
  5
98
330
1F
100
AcDbEntity
  8
0
100
AcDbLine
 10
-614.6325905203099
 20
-381.8453295913347
 30
0.0
 11
-594.63259052031
 21
-381.8453295913346
 31
0.0
  0
LINE
  5
99
330
1F
100
AcDbEntity
  8
0
100
AcDbLine
 10
-614.6325905203132
 20
69.93667386788728
 30
0.0
 11
-614.6325905203099
 21
69.46710205634277
 31
0.0
  0
LINE
  5
9A
330
1F
100
AcDbEntity
  8
0
100
AcDbLine
 10
-613.6623142561588
 20
89.46710205634254
 30
0.0
 11
-594.6325905204526
 21
89.4671020563427
 31
0.0
  0
LINE
  5
9B
330
1F
100
AcDbEntity
  8
0
100
AcDbLine
 10
-260.4299271460094
 20
69.46710205873627
 30
0.0
 11
-260.628725991628
 21
-80.50693528991401
 31
0.0
  0
LINE
  5
9C
330
1F
100
AcDbEntity
  8
0
100
AcDbLine
 10
-260.6325905205138
 20
-108.791233079257
 30
0.0
 11
-240.6662361725591
 21
-108.8176995904488
 31
0.0
  0
LINE
  5
9D
330
1F
100
AcDbEntity
  8
0
100
AcDbLine
 10
-260.6325905203095
 20
-381.8453295889427
 30
0.0
 11
-240.6403767572531
 21
-381.8453295889427
 31
0.0
  0
LINE
  5
9E
330
1F
100
AcDbEntity
  8
0
100
AcDbLine
 10
-260.6325905203095
 20
69.46710205873481
 30
0.0
 11
-260.4299271460094
 21
69.46710205873627
 31
0.0
  0
LINE
  5
9F
330
1F
100
AcDbEntity
  8
0
100
AcDbLine
 10
-260.632590520452
 20
89.4671020587346
 30
0.0
 11
-240.6325905204519
 21
89.4671020587346
 31
0.0
  0
LINE
  5
A0
330
1F
100
AcDbEntity
  8
0
100
AcDbLine
 10
1311.266005859481
 20
-383.9314893377837
 30
0.0
 11
1331.293216948589
 21
-363.957051783167
 31
0.0
  0
LINE
  5
A1
330
1F
100
AcDbEntity
  8
0
100
AcDbLine
 10
1054.292759609164
 20
-363.589866930398
 30
0.0
 11
1201.047471523871
 21
-363.7844012925616
 31
0.0
  0
LINE
  5
A2
330
1F
100
AcDbEntity
  8
0
100
AcDbLine
 10
1054.292759609164
 20
-383.5898570784918
 30
0.0
 11
1311.266005859481
 21
-383.9314893377837
 31
0.0
  0
LINE
  5
A3
330
1F
100
AcDbEntity
  8
0
100
AcDbLine
 10
1054.292759609164
 20
-363.589866930398
 30
0.0
 11
1054.292759609164
 21
-383.5898570784918
 31
0.0
  0
LINE
  5
A4
330
1F
100
AcDbEntity
  8
0
100
AcDbLine
 10
1491.504456705648
 20
-204.1679833084844
 30
0.0
 11
1491.541950381536
 21
-175.8835584242485
 31
0.0
  0
LINE
  5
A5
330
1F
100
AcDbEntity
  8
0
100
AcDbLine
 10
1491.504456705648
 20
-204.1679833084844
 30
0.0
 11
1511.530944240551
 21
-184.1942674014484
 31
0.0
  0
LINE
  5
A6
330
1F
100
AcDbEntity
  8
0
100
AcDbLine
 10
1491.541950381536
 20
-175.8835584242485
 30
0.0
 11
1491.627774853995
 21
-111.1394172586452
 31
0.0
  0
LINE
  5
A7
330
1F
100
AcDbEntity
  8
0
100
AcDbLine
 10
1491.541950381536
 20
-175.8835584242485
 30
0.0
 11
1303.009148482545
 21
-363.9195591320603
 31
0.0
  0
LINE
  5
A8
330
1F
100
AcDbEntity
  8
0
100
AcDbLine
 10
1331.293216948589
 20
-363.957051783167
 30
0.0
 11
1491.504456705648
 21
-204.1679833084844
 31
0.0
  0
LINE
  5
A9
330
1F
100
AcDbEntity
  8
0
100
AcDbLine
 10
1331.293216948589
 20
-363.957051783167
 30
0.0
 11
1303.009148482545
 21
-363.9195591320603
 31
0.0
  0
LINE
  5
AA
330
1F
100
AcDbEntity
  8
0
100
AcDbLine
 10
1511.890583334278
 20
87.1182562209046
 30
0.0
 11
1491.890618475201
 21
87.14476655931115
 31
0.0
  0
LINE
  5
AB
330
1F
100
AcDbEntity
  8
0
100
AcDbLine
 10
1511.864072835524
 20
67.11826003977797
 30
0.0
 11
1491.864091477454
 21
67.14312853562963
 31
0.0
  0
LINE
  5
AC
330
1F
100
AcDbEntity
  8
0
100
AcDbLine
 10
1511.890583334278
 20
87.1182562209046
 30
0.0
 11
1511.864072835524
 21
67.11826003977797
 31
0.0
  0
LINE
  5
AD
330
1F
100
AcDbEntity
  8
0
100
AcDbLine
 10
1491.890618475201
 20
87.14476655931115
 30
0.0
 11
1054.891002421901
 21
87.72401534407123
 31
0.0
  0
LINE
  5
AE
330
1F
100
AcDbEntity
  8
0
100
AcDbLine
 10
1034.891020026762
 20
87.75052570572298
 30
0.0
 11
1034.864493029014
 21
67.74888768204146
 31
0.0
  0
LINE
  5
AF
330
1F
100
AcDbEntity
  8
0
100
AcDbLine
 10
1054.891002421901
 20
87.72401534407123
 30
0.0
 11
1054.864475462744
 21
67.72238012692864
 31
0.0
  0
LINE
  5
B0
330
1F
100
AcDbEntity
  8
0
100
AcDbLine
 10
1034.628182489874
 20
-110.5332178575138
 30
0.0
 11
1034.266267211475
 21
-383.5617960628131
 31
0.0
  0
LINE
  5
B1
330
1F
100
AcDbEntity
  8
0
100
AcDbLine
 10
1491.864091477454
 20
67.14312853562963
 30
0.0
 11
1491.860575791891
 21
64.49210038435915
 31
0.0
  0
LINE
  5
B2
330
1F
100
AcDbEntity
  8
0
100
AcDbLine
 10
1054.864475462744
 20
67.72238012692864
 30
0.0
 11
1054.8609750608
 21
65.07138651814306
 31
0.0
  0
LINE
  5
B3
330
1F
100
AcDbEntity
  8
0
100
AcDbLine
 10
1491.860575791891
 20
64.49210038435915
 30
0.0
 11
1106.524392001005
 21
65.00288593351348
 31
0.0
  0
LINE
  5
B4
330
1F
100
AcDbEntity
  8
0
100
AcDbLine
 10
1085.579491814385
 20
65.0306496183005
 30
0.0
 11
1054.8609750608
 21
65.07138651814306
 31
0.0
  0
LINE
  5
B5
330
1F
100
AcDbEntity
  8
0
100
AcDbLine
 10
1491.627774853995
 20
-111.1394172586452
 30
0.0
 11
1511.627764079295
 21
-111.1659283547346
 31
0.0
  0
LINE
  5
B6
330
1F
100
AcDbEntity
  8
0
100
AcDbLine
 10
1034.864493029014
 20
67.74888768204146
 30
0.0
 11
1034.628182489874
 21
-110.5332178575138
 31
0.0
  0
LINE
  5
B7
330
1F
100
AcDbEntity
  8
0
100
AcDbLine
 10
-778.1615651694764
 20
-532.274913952209
 30
0.0
 11
-763.1615651694768
 21
-532.2749139522136
 31
0.0
  0
LINE
  5
B8
330
1F
100
AcDbEntity
  8
0
100
AcDbLine
 10
-750.7473516071129
 20
-564.3584664950089
 30
0.0
 11
-750.4295143619169
 21
-564.1256439367181
 31
0.0
  0
LINE
  5
B9
330
1F
100
AcDbEntity
  8
0
100
AcDbLine
 10
-752.6792032596912
 20
-564.6494222612557
 30
0.0
 11
-752.1615651694866
 21
-564.68772731457
 31
0.0
  0
LINE
  5
BA
330
1F
100
AcDbEntity
  8
0
100
AcDbLine
 10
-751.6439270792806
 20
-562.9952611127073
 30
0.0
 11
-751.1615651694856
 21
-562.8829563788469
 31
0.0
  0
LINE
  5
BB
330
1F
100
AcDbEntity
  8
0
100
AcDbLine
 10
-751.6439270792812
 20
-564.6494222612562
 30
0.0
 11
-751.161565169486
 21
-564.5371175273956
 31
0.0
  0
LINE
  5
BC
330
1F
100
AcDbEntity
  8
0
100
AcDbLine
 10
-754.1615651694858
 20
-563.5635605588661
 30
0.0
 11
-754.0934168220646
 21
-563.8545163251122
 31
0.0
  0
LINE
  5
BD
330
1F
100
AcDbEntity
  8
0
100
AcDbLine
 10
-750.2297135169079
 20
-563.2726047926202
 30
0.0
 11
-750.4295143619165
 21
-563.0014771810154
 31
0.0
  0
LINE
  5
BE
330
1F
100
AcDbEntity
  8
0
100
AcDbLine
 10
-753.5757787318593
 20
-564.358466495008
 30
0.0
 11
-753.1615651694863
 21
-564.537117527395
 31
0.0
  0
LINE
  5
BF
330
1F
100
AcDbEntity
  8
0
100
AcDbLine
 10
-754.0934168220646
 20
-563.8545163251122
 30
0.0
 11
-753.8936159770544
 21
-564.125643936717
 31
0.0
  0
LINE
  5
C0
330
1F
100
AcDbEntity
  8
0
100
AcDbLine
 10
-751.161565169486
 20
-564.5371175273956
 30
0.0
 11
-750.7473516071129
 21
-564.3584664950089
 31
0.0
  0
LINE
  5
C1
330
1F
100
AcDbEntity
  8
0
100
AcDbLine
 10
-750.1615651694859
 20
-563.5635605588674
 30
0.0
 11
-750.2297135169079
 21
-563.2726047926202
 31
0.0
  0
LINE
  5
C2
330
1F
100
AcDbEntity
  8
0
100
AcDbLine
 10
-751.6439270792804
 20
-562.4776988564753
 30
0.0
 11
-752.1615651694858
 21
-562.4393938031612
 31
0.0
  0
LINE
  5
C3
330
1F
100
AcDbEntity
  8
0
100
AcDbLine
 10
-752.1615651694858
 20
-562.4393938031612
 30
0.0
 11
-752.6792032596906
 21
-562.4776988564751
 31
0.0
  0
LINE
  5
C4
330
1F
100
AcDbEntity
  8
0
100
AcDbLine
 10
-754.0934168220643
 20
-563.2726047926191
 30
0.0
 11
-754.1615651694858
 21
-563.5635605588661
 31
0.0
  0
LINE
  5
C5
330
1F
100
AcDbEntity
  8
0
100
AcDbLine
 10
-753.8936159770541
 20
-563.0014771810143
 30
0.0
 11
-754.0934168220643
 21
-563.2726047926191
 31
0.0
  0
LINE
  5
C6
330
1F
100
AcDbEntity
  8
0
100
AcDbLine
 10
-751.1615651694856
 20
-562.8829563788469
 30
0.0
 11
-750.8219505125903
 21
-562.7364799845916
 31
0.0
  0
LINE
  5
C7
330
1F
100
AcDbEntity
  8
0
100
AcDbLine
 10
-752.161565169486
 20
-563.0335661660212
 30
0.0
 11
-751.6439270792806
 21
-562.9952611127073
 31
0.0
  0
LINE
  5
C8
330
1F
100
AcDbEntity
  8
0
100
AcDbLine
 10
-752.1615651694866
 20
-564.68772731457
 30
0.0
 11
-751.6439270792812
 21
-564.6494222612562
 31
0.0
  0
LINE
  5
C9
330
1F
100
AcDbEntity
  8
0
100
AcDbLine
 10
-750.4295143619169
 20
-564.1256439367181
 30
0.0
 11
-750.2297135169081
 21
-563.8545163251133
 31
0.0
  0
LINE
  5
CA
330
1F
100
AcDbEntity
  8
0
100
AcDbLine
 10
-753.5757787318588
 20
-562.7686546227224
 30
0.0
 11
-753.8936159770541
 21
-563.0014771810143
 31
0.0
  0
LINE
  5
CB
330
1F
100
AcDbEntity
  8
0
100
AcDbLine
 10
-752.6792032596906
 20
-562.4776988564751
 30
0.0
 11
-753.1615651694857
 21
-562.5900035903355
 31
0.0
  0
LINE
  5
CC
330
1F
100
AcDbEntity
  8
0
100
AcDbLine
 10
-750.4295143619165
 20
-563.0014771810154
 30
0.0
 11
-750.7473516071124
 21
-562.7686546227233
 31
0.0
  0
LINE
  5
CD
330
1F
100
AcDbEntity
  8
0
100
AcDbLine
 10
-752.6792032596908
 20
-562.995261112707
 30
0.0
 11
-752.161565169486
 21
-563.0335661660212
 31
0.0
  0
LINE
  5
CE
330
1F
100
AcDbEntity
  8
0
100
AcDbLine
 10
-750.2297135169081
 20
-563.8545163251133
 30
0.0
 11
-750.1615651694859
 21
-563.5635605588674
 31
0.0
  0
LINE
  5
CF
330
1F
100
AcDbEntity
  8
0
100
AcDbLine
 10
-751.1615651694855
 20
-562.5900035903361
 30
0.0
 11
-751.6439270792804
 21
-562.4776988564753
 31
0.0
  0
LINE
  5
D0
330
1F
100
AcDbEntity
  8
0
100
AcDbLine
 10
-753.8936159770544
 20
-564.125643936717
 30
0.0
 11
-753.5757787318593
 21
-564.358466495008
 31
0.0
  0
LINE
  5
D1
330
1F
100
AcDbEntity
  8
0
100
AcDbLine
 10
-753.1615651694858
 20
-562.8829563788462
 30
0.0
 11
-752.6792032596908
 21
-562.995261112707
 31
0.0
  0
LINE
  5
D2
330
1F
100
AcDbEntity
  8
0
100
AcDbLine
 10
-753.1615651694863
 20
-564.537117527395
 30
0.0
 11
-752.6792032596912
 21
-564.6494222612557
 31
0.0
  0
LINE
  5
D3
330
1F
100
AcDbEntity
  8
0
100
AcDbLine
 10
-751.0613359527836
 20
-585.1081161927981
 30
0.0
 11
-751.5310993160516
 21
-584.9800453104835
 31
0.0
  0
LINE
  5
D4
330
1F
100
AcDbEntity
  8
0
100
AcDbLine
 10
-750.20259120303
 20
-585.8203677042359
 30
0.0
 11
-750.3736495503374
 21
-585.543099071857
 31
0.0
  0
LINE
  5
D5
330
1F
100
AcDbEntity
  8
0
100
AcDbLine
 10
-750.1650336941785
 20
-586.1130738433279
 30
0.0
 11
-750.20259120303
 21
-585.8203677042359
 31
0.0
  0
LINE
  5
D6
330
1F
100
AcDbEntity
  8
0
100
AcDbLine
 10
-750.2635365059466
 20
-586.401270049473
 30
0.0
 11
-750.1650336941785
 21
-586.1130738433279
 31
0.0
  0
LINE
  5
D7
330
1F
100
AcDbEntity
  8
0
100
AcDbLine
 10
-750.3736495503374
 20
-585.543099071857
 30
0.0
 11
-750.6665513924204
 21
-585.300163345279
 31
0.0
  0
LINE
  5
D8
330
1F
100
AcDbEntity
  8
0
100
AcDbLine
 10
-751.5310993160516
 20
-584.9800453104835
 30
0.0
 11
-752.0438278853367
 21
-584.9246785173173
 31
0.0
  0
LINE
  5
D9
330
1F
100
AcDbEntity
  8
0
100
AcDbLine
 10
-753.5011798263808
 20
-562.7364799845907
 30
0.0
 11
-753.1615651694858
 21
-562.8829563788462
 31
0.0
  0
LINE
  5
DA
330
1F
100
AcDbEntity
  8
0
100
AcDbLine
 10
-753.6565789465645
 20
-586.7936280006205
 30
0.0
 11
-753.2617943862014
 21
-586.9856751531015
 31
0.0
  0
LINE
  5
DB
330
1F
100
AcDbEntity
  8
0
100
AcDbLine
 10
-753.8317435044919
 20
-585.42847511841
 30
0.0
 11
-754.0595938330398
 21
-585.6925212964264
 31
0.0
  0
LINE
  5
DC
330
1F
100
AcDbEntity
  8
0
100
AcDbLine
 10
-752.7920310229341
 20
-587.113746035416
 30
0.0
 11
-752.2793024536488
 21
-587.1691128285822
 31
0.0
  0
LINE
  5
DD
330
1F
100
AcDbEntity
  8
0
100
AcDbLine
 10
-753.0578674280982
 20
-585.0419380224204
 30
0.0
 11
-753.490073282514
 21
-585.2065732791974
 31
0.0
  0
LINE
  5
DE
330
1F
100
AcDbEntity
  8
0
100
AcDbLine
 10
-751.7585502830179
 20
-587.1480023771438
 30
0.0
 11
-751.2652629108875
 21
-587.0518533234792
 31
0.0
  0
LINE
  5
DF
330
1F
100
AcDbEntity
  8
0
100
AcDbLine
 10
-750.4913868344937
 20
-586.6653162274894
 30
0.0
 11
-750.2635365059466
 21
-586.401270049473
 31
0.0
  0
LINE
  5
E0
330
1F
100
AcDbEntity
  8
0
100
AcDbLine
 10
-751.2652629108875
 20
-587.0518533234792
 30
0.0
 11
-750.8330570564709
 21
-586.8872180667022
 31
0.0
  0
LINE
  5
E1
330
1F
100
AcDbEntity
  8
0
100
AcDbLine
 10
-752.2793024536488
 20
-587.1691128285822
 30
0.0
 11
-751.7585502830179
 21
-587.1480023771438
 31
0.0
  0
LINE
  5
E2
330
1F
100
AcDbEntity
  8
0
100
AcDbLine
 10
-753.2617943862014
 20
-586.9856751531015
 30
0.0
 11
-752.7920310229341
 21
-587.113746035416
 31
0.0
  0
LINE
  5
E3
330
1F
100
AcDbEntity
  8
0
100
AcDbLine
 10
-753.9494807886476
 20
-586.5506922740426
 30
0.0
 11
-753.6565789465645
 21
-586.7936280006205
 31
0.0
  0
LINE
  5
E4
330
1F
100
AcDbEntity
  8
0
100
AcDbLine
 10
-754.0595938330398
 20
-585.6925212964264
 30
0.0
 11
-754.1580966448064
 21
-585.9807175025716
 31
0.0
  0
LINE
  5
E5
330
1F
100
AcDbEntity
  8
0
100
AcDbLine
 10
-753.490073282514
 20
-585.2065732791974
 30
0.0
 11
-753.8317435044919
 21
-585.42847511841
 31
0.0
  0
LINE
  5
E6
330
1F
100
AcDbEntity
  8
0
100
AcDbLine
 10
-752.5645800559671
 20
-584.9457889687557
 30
0.0
 11
-753.0578674280982
 21
-585.0419380224204
 31
0.0
  0
LINE
  5
E7
330
1F
100
AcDbEntity
  8
0
100
AcDbLine
 10
-754.1205391359564
 20
-586.2734236416636
 30
0.0
 11
-753.9494807886476
 21
-586.5506922740426
 31
0.0
  0
LINE
  5
E8
330
1F
100
AcDbEntity
  8
0
100
AcDbLine
 10
-750.8330570564709
 20
-586.8872180667022
 30
0.0
 11
-750.4913868344937
 21
-586.6653162274894
 31
0.0
  0
LINE
  5
E9
330
1F
100
AcDbEntity
  8
0
100
AcDbLine
 10
-752.2793024536485
 20
-585.5149516800329
 30
0.0
 11
-751.7585502830174
 21
-585.4938412285945
 31
0.0
  0
LINE
  5
EA
330
1F
100
AcDbEntity
  8
0
100
AcDbLine
 10
-753.490073282514
 20
-585.2065732791974
 30
0.0
 11
-753.2617943862009
 21
-585.3315140045521
 31
0.0
  0
LINE
  5
EB
330
1F
100
AcDbEntity
  8
0
100
AcDbLine
 10
-790.3731103998088
 20
-586.5500873099178
 30
0.0
 11
-790.2023489876813
 21
-586.2727608567134
 31
0.0
  0
LINE
  5
EC
330
1F
100
AcDbEntity
  8
0
100
AcDbLine
 10
-794.0592140188393
 20
-586.4019121106643
 30
0.0
 11
-793.8310809862083
 21
-586.66588115641
 31
0.0
  0
LINE
  5
ED
330
1F
100
AcDbEntity
  8
0
100
AcDbLine
 10
-752.7920310229335
 20
-585.4595848868667
 30
0.0
 11
-752.2793024536485
 21
-585.5149516800329
 31
0.0
  0
LINE
  5
EE
330
1F
100
AcDbEntity
  8
0
100
AcDbLine
 10
-794.120781351305
 20
-585.8210304891613
 30
0.0
 11
-794.1580254184005
 21
-586.11374928138
 31
0.0
  0
LINE
  5
EF
330
1F
100
AcDbEntity
  8
0
100
AcDbLine
 10
-790.8339571293133
 20
-585.2061239814958
 30
0.0
 11
-791.2663391998109
 21
-585.0416349748579
 31
0.0
  0
LINE
  5
F0
330
1F
100
AcDbEntity
  8
0
100
AcDbLine
 10
-791.5299570278615
 20
-587.1135325481549
 30
0.0
 11
-791.0603308902685
 21
-586.9853027625743
 31
0.0
  0
LINE
  5
F1
330
1F
100
AcDbEntity
  8
0
100
AcDbLine
 10
-793.6573782900563
 20
-585.3006692612489
 30
0.0
 11
-793.9500199391769
 21
-585.5437040359568
 31
0.0
  0
LINE
  5
F2
330
1F
100
AcDbEntity
  8
0
100
AcDbLine
 10
-792.7931733111255
 20
-584.9802587977198
 30
0.0
 11
-793.2627994487171
 21
-585.1084885833005
 31
0.0
  0
LINE
  5
F3
330
1F
100
AcDbEntity
  8
0
100
AcDbLine
 10
-792.2805041224626
 20
-584.9247185524843
 30
0.0
 11
-792.7931733111255
 21
-584.9802587977198
 31
0.0
  0
LINE
  5
F4
330
1F
100
AcDbEntity
  8
0
100
AcDbLine
 10
-793.0567911391762
 20
-587.0521563710168
 30
0.0
 11
-792.5634008982757
 21
-587.1481385223528
 31
0.0
  0
LINE
  5
F5
330
1F
100
AcDbEntity
  8
0
100
AcDbLine
 10
-790.4920493527786
 20
-585.4279101894647
 30
0.0
 11
-790.8339571293133
 21
-585.2061239814958
 31
0.0
  0
LINE
  5
F6
330
1F
100
AcDbEntity
  8
0
100
AcDbLine
 10
-751.7585502830174
 20
-585.4938412285945
 30
0.0
 11
-751.2652629108869
 21
-585.3976921749298
 31
0.0
  0
LINE
  5
F7
330
1F
100
AcDbEntity
  8
0
100
AcDbLine
 10
-753.2617943862009
 20
-585.3315140045521
 30
0.0
 11
-752.7920310229335
 21
-585.4595848868667
 31
0.0
  0
LINE
  5
F8
330
1F
100
AcDbEntity
  8
0
100
AcDbLine
 10
-791.0603308902685
 20
-586.9853027625743
 30
0.0
 11
-790.6657520489293
 21
-586.7931220846258
 31
0.0
  0
LINE
  5
F9
330
1F
100
AcDbEntity
  8
0
100
AcDbLine
 10
-792.5634008982757
 20
-587.1481385223528
 30
0.0
 11
-792.0426262165244
 21
-587.1690727933905
 31
0.0
  0
LINE
  5
FA
330
1F
100
AcDbEntity
  8
0
100
AcDbLine
 10
-793.4891732096729
 20
-586.8876673643789
 30
0.0
 11
-793.0567911391762
 21
-587.0521563710168
 31
0.0
  0
LINE
  5
FB
330
1F
100
AcDbEntity
  8
0
100
AcDbLine
 10
-794.1580254184005
 20
-586.11374928138
 30
0.0
 11
-794.0592140188393
 21
-586.4019121106643
 31
0.0
  0
LINE
  5
FC
330
1F
100
AcDbEntity
  8
0
100
AcDbLine
 10
-792.0426262165244
 20
-587.1690727933905
 30
0.0
 11
-791.5299570278615
 21
-587.1135325481549
 31
0.0
  0
LINE
  5
FD
330
1F
100
AcDbEntity
  8
0
100
AcDbLine
 10
-790.6657520489293
 20
-586.7931220846258
 30
0.0
 11
-790.3731103998088
 21
-586.5500873099178
 31
0.0
  0
LINE
  5
FE
330
1F
100
AcDbEntity
  8
0
100
AcDbLine
 10
-793.8310809862083
 20
-586.66588115641
 30
0.0
 11
-793.4891732096729
 21
-586.8876673643789
 31
0.0
  0
LINE
  5
FF
330
1F
100
AcDbEntity
  8
0
100
AcDbLine
 10
-793.9500199391769
 20
-585.5437040359568
 30
0.0
 11
-794.120781351305
 21
-585.8210304891613
 31
0.0
  0
LINE
  5
100
330
1F
100
AcDbEntity
  8
0
100
AcDbLine
 10
-791.2663391998109
 20
-585.0416349748579
 30
0.0
 11
-791.7597294407104
 21
-584.945652823522
 31
0.0
  0
LINE
  5
101
330
1F
100
AcDbEntity
  8
0
100
AcDbLine
 10
-751.2652629108869
 20
-585.3976921749298
 30
0.0
 11
-750.8330570564705
 21
-585.2330569181528
 31
0.0
  0
LINE
  5
102
330
1F
100
AcDbEntity
  8
0
100
AcDbLine
 10
-790.263916320147
 20
-585.6918792352103
 30
0.0
 11
-790.4920493527786
 21
-585.4279101894647
 31
0.0
  0
LINE
  5
103
330
1F
100
AcDbEntity
  8
0
100
AcDbLine
 10
-790.3124092938097
 20
-563.1352609371569
 30
0.0
 11
-790.5726342214111
 21
-562.8808436105068
 31
0.0
  0
LINE
  5
104
330
1F
100
AcDbEntity
  8
0
100
AcDbLine
 10
-791.9041400447978
 20
-564.6783764315322
 30
0.0
 11
-791.399579246091
 21
-564.6029403396285
 31
0.0
  0
LINE
  5
105
330
1F
100
AcDbEntity
  8
0
100
AcDbLine
 10
-793.3819881716809
 20
-562.800007653513
 30
0.0
 11
-792.9303104150456
 21
-562.9472054684004
 31
0.0
  0
LINE
  5
106
330
1F
100
AcDbEntity
  8
0
100
AcDbLine
 10
-793.3819881716814
 20
-564.4541688020619
 30
0.0
 11
-792.9303104150462
 21
-564.6013666169492
 31
0.0
  0
LINE
  5
107
330
1F
100
AcDbEntity
  8
0
100
AcDbLine
 10
-794.010721045162
 20
-563.9918601805507
 30
0.0
 11
-793.7504961175612
 21
-564.2462775071996
 31
0.0
  0
LINE
  5
108
330
1F
100
AcDbEntity
  8
0
100
AcDbLine
 10
-791.3928199239255
 20
-562.5257545007572
 30
0.0
 11
-791.8968863986346
 21
-562.4492814536732
 31
0.0
  0
LINE
  5
109
330
1F
100
AcDbEntity
  8
0
100
AcDbLine
 10
-790.5770880646621
 20
-564.2495400423356
 30
0.0
 11
-790.3152090967232
 21
-563.9956594831858
 31
0.0
  0
LINE
  5
10A
330
1F
100
AcDbEntity
  8
0
100
AcDbLine
 10
-794.0079212422492
 20
-563.1314616345217
 30
0.0
 11
-794.1439740950769
 21
-563.4147890212877
 31
0.0
  0
LINE
  5
10B
330
1F
100
AcDbEntity
  8
0
100
AcDbLine
 10
-790.9411421672909
 20
-562.6729523156445
 30
0.0
 11
-791.3928199239255
 21
-562.5257545007572
 31
0.0
  0
LINE
  5
10C
330
1F
100
AcDbEntity
  8
0
100
AcDbLine
 10
-793.7460422743109
 20
-562.8775810753707
 30
0.0
 11
-794.0079212422492
 21
-563.1314616345217
 31
0.0
  0
LINE
  5
10D
330
1F
100
AcDbEntity
  8
0
100
AcDbLine
 10
-793.4943445469306
 20
-562.736622555314
 30
0.0
 11
-793.3819881716809
 21
-562.800007653513
 31
0.0
  0
LINE
  5
10E
330
1F
100
AcDbEntity
  8
0
100
AcDbLine
 10
-793.7504961175612
 20
-564.2462775071996
 30
0.0
 11
-793.3819881716814
 21
-564.4541688020619
 31
0.0
  0
LINE
  5
10F
330
1F
100
AcDbEntity
  8
0
100
AcDbLine
 10
-792.9235510928812
 20
-562.5241807780778
 30
0.0
 11
-793.3761838101509
 21
-562.670448884385
 31
0.0
  0
LINE
  5
110
330
1F
100
AcDbEntity
  8
0
100
AcDbLine
 10
-792.9303104150462
 20
-564.6013666169492
 30
0.0
 11
-792.4262439403384
 21
-564.6778396640332
 31
0.0
  0
LINE
  5
111
330
1F
100
AcDbEntity
  8
0
100
AcDbLine
 10
-794.1449290557105
 20
-563.7082549424814
 30
0.0
 11
-794.010721045162
 21
-563.9918601805507
 31
0.0
  0
LINE
  5
112
330
1F
100
AcDbEntity
  8
0
100
AcDbLine
 10
-792.4189902941737
 20
-562.448744686174
 30
0.0
 11
-792.9235510928812
 21
-562.5241807780778
 31
0.0
  0
LINE
  5
113
330
1F
100
AcDbEntity
  8
0
100
AcDbLine
 10
-790.1782012832618
 20
-563.4188661752606
 30
0.0
 11
-790.3124092938097
 21
-563.1352609371569
 31
0.0
  0
LINE
  5
114
330
1F
100
AcDbEntity
  8
0
100
AcDbLine
 10
-790.3152090967232
 20
-563.9956594831858
 30
0.0
 11
-790.179156243896
 21
-563.7123320964197
 31
0.0
  0
LINE
  5
115
330
1F
100
AcDbEntity
  8
0
100
AcDbLine
 10
-791.8968863986346
 20
-562.4492814536732
 30
0.0
 11
-792.4189902941737
 21
-562.448744686174
 31
0.0
  0
LINE
  5
116
330
1F
100
AcDbEntity
  8
0
100
AcDbLine
 10
-790.9469465288221
 20
-564.4566722333215
 30
0.0
 11
-790.5770880646621
 21
-564.2495400423356
 31
0.0
  0
LINE
  5
117
330
1F
100
AcDbEntity
  8
0
100
AcDbLine
 10
-791.399579246091
 20
-564.6029403396285
 30
0.0
 11
-790.9469465288221
 21
-564.4566722333215
 31
0.0
  0
LINE
  5
118
330
1F
100
AcDbEntity
  8
0
100
AcDbLine
 10
-794.1439740950769
 20
-563.4147890212877
 30
0.0
 11
-794.1449290557105
 21
-563.7082549424814
 31
0.0
  0
LINE
  5
119
330
1F
100
AcDbEntity
  8
0
100
AcDbLine
 10
-792.9303104150456
 20
-562.9472054684004
 30
0.0
 11
-792.4262439403378
 21
-563.0236785154844
 31
0.0
  0
LINE
  5
11A
330
1F
100
AcDbEntity
  8
0
100
AcDbLine
 10
-790.1651049205857
 20
-585.9800420644947
 30
0.0
 11
-790.263916320147
 21
-585.6918792352103
 31
0.0
  0
LINE
  5
11B
330
1F
100
AcDbEntity
  8
0
100
AcDbLine
 10
-791.9041400447973
 20
-563.0242152829835
 30
0.0
 11
-791.3995792460905
 21
-562.9487791910797
 31
0.0
  0
LINE
  5
11C
330
1F
100
AcDbEntity
  8
0
100
AcDbLine
 10
-791.3995792460905
 20
-562.9487791910797
 30
0.0
 11
-790.9469465288216
 21
-562.8025110847726
 31
0.0
  0
LINE
  5
11D
330
1F
100
AcDbEntity
  8
0
100
AcDbLine
 10
-790.9469465288216
 20
-562.8025110847726
 30
0.0
 11
-790.8287857920415
 21
-562.7363374138432
 31
0.0
  0
LINE
  5
11E
330
1F
100
AcDbEntity
  8
0
100
AcDbLine
 10
-797.1615651694851
 20
-560.7531436695908
 30
0.0
 11
-747.161565169485
 21
-560.7531436696064
 31
0.0
  0
LINE
  5
11F
330
1F
100
AcDbEntity
  8
0
100
AcDbLine
 10
-797.1615651694939
 20
-588.8573125621965
 30
0.0
 11
-797.1615651694851
 21
-560.7531436695908
 31
0.0
  0
LINE
  5
120
330
1F
100
AcDbEntity
  8
0
100
AcDbLine
 10
-747.1615651694938
 20
-588.8573125622121
 30
0.0
 11
-797.1615651694939
 21
-588.8573125621965
 31
0.0
  0
LINE
  5
121
330
1F
100
AcDbEntity
  8
0
100
AcDbLine
 10
-764.6615651694794
 20
-544.1230244052264
 30
0.0
 11
-778.16156516948
 21
-544.1230244052222
 31
0.0
  0
LINE
  5
122
330
1F
100
AcDbEntity
  8
0
100
AcDbLine
 10
-779.6615651694851
 20
-559.0989825210469
 30
0.0
 11
-779.6615651694834
 21
-553.9027256798179
 31
0.0
  0
LINE
  5
123
330
1F
100
AcDbEntity
  8
0
100
AcDbLine
 10
-793.4891732096725
 20
-585.2335062158295
 30
0.0
 11
-793.0567911391756
 21
-585.3979952224676
 31
0.0
  0
LINE
  5
124
330
1F
100
AcDbEntity
  8
0
100
AcDbLine
 10
-793.0567911391756
 20
-585.3979952224676
 30
0.0
 11
-792.5634008982753
 21
-585.4939773738034
 31
0.0
  0
LINE
  5
125
330
1F
100
AcDbEntity
  8
0
100
AcDbLine
 10
-792.5634008982753
 20
-585.4939773738034
 30
0.0
 11
-792.0426262165238
 21
-585.5149116448412
 31
0.0
  0
LINE
  5
126
330
1F
100
AcDbEntity
  8
0
100
AcDbLine
 10
-792.0426262165238
 20
-585.5149116448412
 30
0.0
 11
-791.529957027861
 21
-585.4593713996055
 31
0.0
  0
LINE
  5
127
330
1F
100
AcDbEntity
  8
0
100
AcDbLine
 10
-791.529957027861
 20
-585.4593713996055
 30
0.0
 11
-791.0603308902679
 21
-585.3311416140249
 31
0.0
  0
LINE
  5
128
330
1F
100
AcDbEntity
  8
0
100
AcDbLine
 10
-791.0603308902679
 20
-585.3311416140249
 30
0.0
 11
-790.8339571293133
 21
-585.2061239814958
 31
0.0
  0
LINE
  5
129
330
1F
100
AcDbEntity
  8
0
100
AcDbLine
 10
-747.161565169485
 20
-560.7531436696064
 30
0.0
 11
-747.1615651694846
 21
-559.098982521057
 31
0.0
  0
LINE
  5
12A
330
1F
100
AcDbEntity
  8
0
100
AcDbLine
 10
-797.1615651694851
 20
-560.7531436695908
 30
0.0
 11
-797.1615651694848
 21
-559.0989825210415
 31
0.0
  0
LINE
  5
12B
330
1F
100
AcDbEntity
  8
0
100
AcDbLine
 10
-278.132590520645
 20
-532.9374945329112
 30
0.0
 11
-263.1325905206455
 21
-532.9374945329158
 31
0.0
  0
LINE
  5
12C
330
1F
100
AcDbEntity
  8
0
100
AcDbLine
 10
-250.7183769582815
 20
-565.021047075711
 30
0.0
 11
-250.4005397130855
 21
-564.7882245174203
 31
0.0
  0
LINE
  5
12D
330
1F
100
AcDbEntity
  8
0
100
AcDbLine
 10
-252.6502286108599
 20
-565.3120028419579
 30
0.0
 11
-252.1325905206552
 21
-565.3503078952722
 31
0.0
  0
LINE
  5
12E
330
1F
100
AcDbEntity
  8
0
100
AcDbLine
 10
-251.6149524304492
 20
-563.6578416934094
 30
0.0
 11
-251.1325905206541
 21
-563.545536959549
 31
0.0
  0
LINE
  5
12F
330
1F
100
AcDbEntity
  8
0
100
AcDbLine
 10
-251.6149524304497
 20
-565.3120028419582
 30
0.0
 11
-251.1325905206546
 21
-565.1996981080978
 31
0.0
  0
LINE
  5
130
330
1F
100
AcDbEntity
  8
0
100
AcDbLine
 10
-254.1325905206544
 20
-564.2261411395683
 30
0.0
 11
-254.0644421732331
 21
-564.5170969058144
 31
0.0
  0
LINE
  5
131
330
1F
100
AcDbEntity
  8
0
100
AcDbLine
 10
-250.2007388680765
 20
-563.9351853733224
 30
0.0
 11
-250.4005397130851
 21
-563.6640577617175
 31
0.0
  0
LINE
  5
132
330
1F
100
AcDbEntity
  8
0
100
AcDbLine
 10
-253.5468040830279
 20
-565.0210470757102
 30
0.0
 11
-253.1325905206549
 21
-565.1996981080972
 31
0.0
  0
LINE
  5
133
330
1F
100
AcDbEntity
  8
0
100
AcDbLine
 10
-254.0644421732331
 20
-564.5170969058144
 30
0.0
 11
-253.8646413282231
 21
-564.7882245174192
 31
0.0
  0
LINE
  5
134
330
1F
100
AcDbEntity
  8
0
100
AcDbLine
 10
-251.1325905206546
 20
-565.1996981080978
 30
0.0
 11
-250.7183769582815
 21
-565.021047075711
 31
0.0
  0
LINE
  5
135
330
1F
100
AcDbEntity
  8
0
100
AcDbLine
 10
-250.1325905206545
 20
-564.2261411395696
 30
0.0
 11
-250.2007388680765
 21
-563.9351853733224
 31
0.0
  0
LINE
  5
136
330
1F
100
AcDbEntity
  8
0
100
AcDbLine
 10
-251.6149524304491
 20
-563.1402794371775
 30
0.0
 11
-252.1325905206544
 21
-563.1019743838634
 31
0.0
  0
LINE
  5
137
330
1F
100
AcDbEntity
  8
0
100
AcDbLine
 10
-252.1325905206544
 20
-563.1019743838634
 30
0.0
 11
-252.6502286108592
 21
-563.1402794371772
 31
0.0
  0
LINE
  5
138
330
1F
100
AcDbEntity
  8
0
100
AcDbLine
 10
-254.064442173233
 20
-563.9351853733212
 30
0.0
 11
-254.1325905206544
 21
-564.2261411395683
 31
0.0
  0
LINE
  5
139
330
1F
100
AcDbEntity
  8
0
100
AcDbLine
 10
-253.8646413282227
 20
-563.6640577617164
 30
0.0
 11
-254.064442173233
 21
-563.9351853733212
 31
0.0
  0
LINE
  5
13A
330
1F
100
AcDbEntity
  8
0
100
AcDbLine
 10
-251.1325905206541
 20
-563.545536959549
 30
0.0
 11
-250.7929758637589
 21
-563.3990605652938
 31
0.0
  0
LINE
  5
13B
330
1F
100
AcDbEntity
  8
0
100
AcDbLine
 10
-252.1325905206546
 20
-563.6961467467233
 30
0.0
 11
-251.6149524304492
 21
-563.6578416934094
 31
0.0
  0
LINE
  5
13C
330
1F
100
AcDbEntity
  8
0
100
AcDbLine
 10
-252.1325905206552
 20
-565.3503078952722
 30
0.0
 11
-251.6149524304497
 21
-565.3120028419582
 31
0.0
  0
LINE
  5
13D
330
1F
100
AcDbEntity
  8
0
100
AcDbLine
 10
-250.4005397130855
 20
-564.7882245174203
 30
0.0
 11
-250.2007388680767
 21
-564.5170969058155
 31
0.0
  0
LINE
  5
13E
330
1F
100
AcDbEntity
  8
0
100
AcDbLine
 10
-253.5468040830274
 20
-563.4312352034245
 30
0.0
 11
-253.8646413282227
 21
-563.6640577617164
 31
0.0
  0
LINE
  5
13F
330
1F
100
AcDbEntity
  8
0
100
AcDbLine
 10
-252.6502286108592
 20
-563.1402794371772
 30
0.0
 11
-253.1325905206543
 21
-563.2525841710377
 31
0.0
  0
LINE
  5
140
330
1F
100
AcDbEntity
  8
0
100
AcDbLine
 10
-250.4005397130851
 20
-563.6640577617175
 30
0.0
 11
-250.718376958281
 21
-563.4312352034254
 31
0.0
  0
LINE
  5
141
330
1F
100
AcDbEntity
  8
0
100
AcDbLine
 10
-252.6502286108593
 20
-563.6578416934092
 30
0.0
 11
-252.1325905206546
 21
-563.6961467467233
 31
0.0
  0
LINE
  5
142
330
1F
100
AcDbEntity
  8
0
100
AcDbLine
 10
-250.2007388680767
 20
-564.5170969058155
 30
0.0
 11
-250.1325905206545
 21
-564.2261411395696
 31
0.0
  0
LINE
  5
143
330
1F
100
AcDbEntity
  8
0
100
AcDbLine
 10
-251.132590520654
 20
-563.2525841710383
 30
0.0
 11
-251.6149524304491
 21
-563.1402794371775
 31
0.0
  0
LINE
  5
144
330
1F
100
AcDbEntity
  8
0
100
AcDbLine
 10
-253.8646413282231
 20
-564.7882245174192
 30
0.0
 11
-253.5468040830279
 21
-565.0210470757102
 31
0.0
  0
LINE
  5
145
330
1F
100
AcDbEntity
  8
0
100
AcDbLine
 10
-253.1325905206544
 20
-563.5455369595484
 30
0.0
 11
-252.6502286108593
 21
-563.6578416934092
 31
0.0
  0
LINE
  5
146
330
1F
100
AcDbEntity
  8
0
100
AcDbLine
 10
-253.1325905206549
 20
-565.1996981080972
 30
0.0
 11
-252.6502286108599
 21
-565.3120028419579
 31
0.0
  0
LINE
  5
147
330
1F
100
AcDbEntity
  8
0
100
AcDbLine
 10
-251.0323613039522
 20
-585.7706967735003
 30
0.0
 11
-251.5021246672201
 21
-585.6426258911856
 31
0.0
  0
LINE
  5
148
330
1F
100
AcDbEntity
  8
0
100
AcDbLine
 10
-250.1736165541986
 20
-586.4829482849381
 30
0.0
 11
-250.3446749015059
 21
-586.2056796525592
 31
0.0
  0
LINE
  5
149
330
1F
100
AcDbEntity
  8
0
100
AcDbLine
 10
-250.1360590453471
 20
-586.7756544240301
 30
0.0
 11
-250.1736165541986
 21
-586.4829482849381
 31
0.0
  0
LINE
  5
14A
330
1F
100
AcDbEntity
  8
0
100
AcDbLine
 10
-250.2345618571152
 20
-587.0638506301752
 30
0.0
 11
-250.1360590453471
 21
-586.7756544240301
 31
0.0
  0
LINE
  5
14B
330
1F
100
AcDbEntity
  8
0
100
AcDbLine
 10
-250.3446749015059
 20
-586.2056796525592
 30
0.0
 11
-250.637576743589
 21
-585.9627439259812
 31
0.0
  0
LINE
  5
14C
330
1F
100
AcDbEntity
  8
0
100
AcDbLine
 10
-251.5021246672201
 20
-585.6426258911856
 30
0.0
 11
-252.0148532365054
 21
-585.5872590980194
 31
0.0
  0
LINE
  5
14D
330
1F
100
AcDbEntity
  8
0
100
AcDbLine
 10
-253.4722051775495
 20
-563.3990605652929
 30
0.0
 11
-253.1325905206544
 21
-563.5455369595484
 31
0.0
  0
LINE
  5
14E
330
1F
100
AcDbEntity
  8
0
100
AcDbLine
 10
-253.6276042977331
 20
-587.4562085813227
 30
0.0
 11
-253.23281973737
 21
-587.6482557338036
 31
0.0
  0
LINE
  5
14F
330
1F
100
AcDbEntity
  8
0
100
AcDbLine
 10
-253.8027688556605
 20
-586.0910556991122
 30
0.0
 11
-254.0306191842084
 21
-586.3551018771286
 31
0.0
  0
LINE
  5
150
330
1F
100
AcDbEntity
  8
0
100
AcDbLine
 10
-252.7630563741027
 20
-587.7763266161182
 30
0.0
 11
-252.2503278048175
 21
-587.8316934092844
 31
0.0
  0
LINE
  5
151
330
1F
100
AcDbEntity
  8
0
100
AcDbLine
 10
-253.0288927792668
 20
-585.7045186031226
 30
0.0
 11
-253.4610986336826
 21
-585.8691538598995
 31
0.0
  0
LINE
  5
152
330
1F
100
AcDbEntity
  8
0
100
AcDbLine
 10
-251.7295756341865
 20
-587.810582957846
 30
0.0
 11
-251.2362882620561
 21
-587.7144339041814
 31
0.0
  0
LINE
  5
153
330
1F
100
AcDbEntity
  8
0
100
AcDbLine
 10
-250.4624121856623
 20
-587.3278968081916
 30
0.0
 11
-250.2345618571152
 21
-587.0638506301752
 31
0.0
  0
LINE
  5
154
330
1F
100
AcDbEntity
  8
0
100
AcDbLine
 10
-251.2362882620561
 20
-587.7144339041814
 30
0.0
 11
-250.8040824076395
 21
-587.5497986474044
 31
0.0
  0
LINE
  5
155
330
1F
100
AcDbEntity
  8
0
100
AcDbLine
 10
-252.2503278048175
 20
-587.8316934092844
 30
0.0
 11
-251.7295756341865
 21
-587.810582957846
 31
0.0
  0
LINE
  5
156
330
1F
100
AcDbEntity
  8
0
100
AcDbLine
 10
-253.23281973737
 20
-587.6482557338036
 30
0.0
 11
-252.7630563741027
 21
-587.7763266161182
 31
0.0
  0
LINE
  5
157
330
1F
100
AcDbEntity
  8
0
100
AcDbLine
 10
-253.9205061398162
 20
-587.2132728547447
 30
0.0
 11
-253.6276042977331
 21
-587.4562085813227
 31
0.0
  0
LINE
  5
158
330
1F
100
AcDbEntity
  8
0
100
AcDbLine
 10
-254.0306191842084
 20
-586.3551018771286
 30
0.0
 11
-254.129121995975
 21
-586.6432980832737
 31
0.0
  0
LINE
  5
159
330
1F
100
AcDbEntity
  8
0
100
AcDbLine
 10
-253.4610986336826
 20
-585.8691538598995
 30
0.0
 11
-253.8027688556605
 21
-586.0910556991122
 31
0.0
  0
LINE
  5
15A
330
1F
100
AcDbEntity
  8
0
100
AcDbLine
 10
-252.5356054071356
 20
-585.6083695494578
 30
0.0
 11
-253.0288927792668
 21
-585.7045186031226
 31
0.0
  0
LINE
  5
15B
330
1F
100
AcDbEntity
  8
0
100
AcDbLine
 10
-254.091564487125
 20
-586.9360042223658
 30
0.0
 11
-253.9205061398162
 21
-587.2132728547447
 31
0.0
  0
LINE
  5
15C
330
1F
100
AcDbEntity
  8
0
100
AcDbLine
 10
-250.8040824076395
 20
-587.5497986474044
 30
0.0
 11
-250.4624121856623
 21
-587.3278968081916
 31
0.0
  0
LINE
  5
15D
330
1F
100
AcDbEntity
  8
0
100
AcDbLine
 10
-252.250327804817
 20
-586.177532260735
 30
0.0
 11
-251.729575634186
 21
-586.1564218092966
 31
0.0
  0
LINE
  5
15E
330
1F
100
AcDbEntity
  8
0
100
AcDbLine
 10
-253.4610986336826
 20
-585.8691538598995
 30
0.0
 11
-253.2328197373695
 21
-585.9940945852543
 31
0.0
  0
LINE
  5
15F
330
1F
100
AcDbEntity
  8
0
100
AcDbLine
 10
-290.3441357509773
 20
-587.21266789062
 30
0.0
 11
-290.1733743388499
 21
-586.9353414374156
 31
0.0
  0
LINE
  5
160
330
1F
100
AcDbEntity
  8
0
100
AcDbLine
 10
-294.0302393700078
 20
-587.0644926913665
 30
0.0
 11
-293.8021063373769
 21
-587.3284617371122
 31
0.0
  0
LINE
  5
161
330
1F
100
AcDbEntity
  8
0
100
AcDbLine
 10
-252.7630563741022
 20
-586.1221654675688
 30
0.0
 11
-252.250327804817
 21
-586.177532260735
 31
0.0
  0
LINE
  5
162
330
1F
100
AcDbEntity
  8
0
100
AcDbLine
 10
-294.0918067024735
 20
-586.4836110698634
 30
0.0
 11
-294.1290507695691
 21
-586.7763298620821
 31
0.0
  0
LINE
  5
163
330
1F
100
AcDbEntity
  8
0
100
AcDbLine
 10
-290.8049824804819
 20
-585.868704562198
 30
0.0
 11
-291.2373645509795
 21
-585.70421555556
 31
0.0
  0
LINE
  5
164
330
1F
100
AcDbEntity
  8
0
100
AcDbLine
 10
-291.5009823790301
 20
-587.7761131288571
 30
0.0
 11
-291.031356241437
 21
-587.6478833432764
 31
0.0
  0
LINE
  5
165
330
1F
100
AcDbEntity
  8
0
100
AcDbLine
 10
-293.6284036412248
 20
-585.9632498419511
 30
0.0
 11
-293.9210452903454
 21
-586.206284616659
 31
0.0
  0
LINE
  5
166
330
1F
100
AcDbEntity
  8
0
100
AcDbLine
 10
-292.7641986622941
 20
-585.642839378422
 30
0.0
 11
-293.2338247998857
 21
-585.7710691640026
 31
0.0
  0
LINE
  5
167
330
1F
100
AcDbEntity
  8
0
100
AcDbLine
 10
-292.2515294736312
 20
-585.5872991331864
 30
0.0
 11
-292.7641986622941
 21
-585.642839378422
 31
0.0
  0
LINE
  5
168
330
1F
100
AcDbEntity
  8
0
100
AcDbLine
 10
-293.0278164903447
 20
-587.714736951719
 30
0.0
 11
-292.5344262494444
 21
-587.8107191030549
 31
0.0
  0
LINE
  5
169
330
1F
100
AcDbEntity
  8
0
100
AcDbLine
 10
-290.4630747039472
 20
-586.0904907701669
 30
0.0
 11
-290.8049824804819
 21
-585.868704562198
 31
0.0
  0
LINE
  5
16A
330
1F
100
AcDbEntity
  8
0
100
AcDbLine
 10
-251.729575634186
 20
-586.1564218092966
 30
0.0
 11
-251.2362882620555
 21
-586.060272755632
 31
0.0
  0
LINE
  5
16B
330
1F
100
AcDbEntity
  8
0
100
AcDbLine
 10
-253.2328197373695
 20
-585.9940945852543
 30
0.0
 11
-252.7630563741022
 21
-586.1221654675688
 31
0.0
  0
LINE
  5
16C
330
1F
100
AcDbEntity
  8
0
100
AcDbLine
 10
-291.031356241437
 20
-587.6478833432764
 30
0.0
 11
-290.6367774000979
 21
-587.455702665328
 31
0.0
  0
LINE
  5
16D
330
1F
100
AcDbEntity
  8
0
100
AcDbLine
 10
-292.5344262494444
 20
-587.8107191030549
 30
0.0
 11
-292.0136515676929
 21
-587.8316533740926
 31
0.0
  0
LINE
  5
16E
330
1F
100
AcDbEntity
  8
0
100
AcDbLine
 10
-293.4601985608415
 20
-587.5502479450811
 30
0.0
 11
-293.0278164903447
 21
-587.714736951719
 31
0.0
  0
LINE
  5
16F
330
1F
100
AcDbEntity
  8
0
100
AcDbLine
 10
-294.1290507695691
 20
-586.7763298620821
 30
0.0
 11
-294.0302393700078
 21
-587.0644926913665
 31
0.0
  0
LINE
  5
170
330
1F
100
AcDbEntity
  8
0
100
AcDbLine
 10
-292.0136515676929
 20
-587.8316533740926
 30
0.0
 11
-291.5009823790301
 21
-587.7761131288571
 31
0.0
  0
LINE
  5
171
330
1F
100
AcDbEntity
  8
0
100
AcDbLine
 10
-290.6367774000979
 20
-587.455702665328
 30
0.0
 11
-290.3441357509773
 21
-587.21266789062
 31
0.0
  0
LINE
  5
172
330
1F
100
AcDbEntity
  8
0
100
AcDbLine
 10
-293.8021063373769
 20
-587.3284617371122
 30
0.0
 11
-293.4601985608415
 21
-587.5502479450811
 31
0.0
  0
LINE
  5
173
330
1F
100
AcDbEntity
  8
0
100
AcDbLine
 10
-293.9210452903454
 20
-586.206284616659
 30
0.0
 11
-294.0918067024735
 21
-586.4836110698634
 31
0.0
  0
LINE
  5
174
330
1F
100
AcDbEntity
  8
0
100
AcDbLine
 10
-291.2373645509795
 20
-585.70421555556
 30
0.0
 11
-291.730754791879
 21
-585.608233404224
 31
0.0
  0
LINE
  5
175
330
1F
100
AcDbEntity
  8
0
100
AcDbLine
 10
-251.2362882620555
 20
-586.060272755632
 30
0.0
 11
-250.804082407639
 21
-585.895637498855
 31
0.0
  0
LINE
  5
176
330
1F
100
AcDbEntity
  8
0
100
AcDbLine
 10
-290.2349416713156
 20
-586.3544598159125
 30
0.0
 11
-290.4630747039472
 21
-586.0904907701669
 31
0.0
  0
LINE
  5
177
330
1F
100
AcDbEntity
  8
0
100
AcDbLine
 10
-290.2834346449782
 20
-563.7978415178591
 30
0.0
 11
-290.5436595725797
 21
-563.5434241912089
 31
0.0
  0
LINE
  5
178
330
1F
100
AcDbEntity
  8
0
100
AcDbLine
 10
-291.8751653959664
 20
-565.3409570122344
 30
0.0
 11
-291.3706045972596
 21
-565.2655209203307
 31
0.0
  0
LINE
  5
179
330
1F
100
AcDbEntity
  8
0
100
AcDbLine
 10
-293.3530135228496
 20
-563.4625882342152
 30
0.0
 11
-292.9013357662142
 21
-563.6097860491026
 31
0.0
  0
LINE
  5
17A
330
1F
100
AcDbEntity
  8
0
100
AcDbLine
 10
-293.3530135228501
 20
-565.116749382764
 30
0.0
 11
-292.9013357662147
 21
-565.2639471976513
 31
0.0
  0
LINE
  5
17B
330
1F
100
AcDbEntity
  8
0
100
AcDbLine
 10
-293.9817463963305
 20
-564.6544407612529
 30
0.0
 11
-293.7215214687297
 21
-564.9088580879018
 31
0.0
  0
LINE
  5
17C
330
1F
100
AcDbEntity
  8
0
100
AcDbLine
 10
-291.3638452750941
 20
-563.1883350814594
 30
0.0
 11
-291.8679117498032
 21
-563.1118620343753
 31
0.0
  0
LINE
  5
17D
330
1F
100
AcDbEntity
  8
0
100
AcDbLine
 10
-290.5481134158308
 20
-564.9121206230378
 30
0.0
 11
-290.2862344478917
 21
-564.658240063888
 31
0.0
  0
LINE
  5
17E
330
1F
100
AcDbEntity
  8
0
100
AcDbLine
 10
-293.9789465934177
 20
-563.7940422152238
 30
0.0
 11
-294.1149994462456
 21
-564.0773696019899
 31
0.0
  0
LINE
  5
17F
330
1F
100
AcDbEntity
  8
0
100
AcDbLine
 10
-290.9121675184594
 20
-563.3355328963466
 30
0.0
 11
-291.3638452750941
 21
-563.1883350814594
 31
0.0
  0
LINE
  5
180
330
1F
100
AcDbEntity
  8
0
100
AcDbLine
 10
-293.7170676254794
 20
-563.5401616560729
 30
0.0
 11
-293.9789465934177
 21
-563.7940422152238
 31
0.0
  0
LINE
  5
181
330
1F
100
AcDbEntity
  8
0
100
AcDbLine
 10
-293.4653698980992
 20
-563.3992031360162
 30
0.0
 11
-293.3530135228496
 21
-563.4625882342152
 31
0.0
  0
LINE
  5
182
330
1F
100
AcDbEntity
  8
0
100
AcDbLine
 10
-293.7215214687297
 20
-564.9088580879018
 30
0.0
 11
-293.3530135228501
 21
-565.116749382764
 31
0.0
  0
LINE
  5
183
330
1F
100
AcDbEntity
  8
0
100
AcDbLine
 10
-292.8945764440499
 20
-563.18676135878
 30
0.0
 11
-293.3472091613195
 21
-563.3330294650872
 31
0.0
  0
LINE
  5
184
330
1F
100
AcDbEntity
  8
0
100
AcDbLine
 10
-292.9013357662147
 20
-565.2639471976513
 30
0.0
 11
-292.397269291507
 21
-565.3404202447354
 31
0.0
  0
LINE
  5
185
330
1F
100
AcDbEntity
  8
0
100
AcDbLine
 10
-294.115954406879
 20
-564.3708355231836
 30
0.0
 11
-293.9817463963305
 21
-564.6544407612529
 31
0.0
  0
LINE
  5
186
330
1F
100
AcDbEntity
  8
0
100
AcDbLine
 10
-292.3900156453423
 20
-563.1113252668762
 30
0.0
 11
-292.8945764440499
 21
-563.18676135878
 31
0.0
  0
LINE
  5
187
330
1F
100
AcDbEntity
  8
0
100
AcDbLine
 10
-290.1492266344304
 20
-564.0814467559284
 30
0.0
 11
-290.2834346449782
 21
-563.7978415178591
 31
0.0
  0
LINE
  5
188
330
1F
100
AcDbEntity
  8
0
100
AcDbLine
 10
-290.2862344478917
 20
-564.658240063888
 30
0.0
 11
-290.1501815950646
 21
-564.3749126771219
 31
0.0
  0
LINE
  5
189
330
1F
100
AcDbEntity
  8
0
100
AcDbLine
 10
-291.8679117498032
 20
-563.1118620343753
 30
0.0
 11
-292.3900156453423
 21
-563.1113252668762
 31
0.0
  0
LINE
  5
18A
330
1F
100
AcDbEntity
  8
0
100
AcDbLine
 10
-290.9179718799907
 20
-565.1192528140235
 30
0.0
 11
-290.5481134158308
 21
-564.9121206230378
 31
0.0
  0
LINE
  5
18B
330
1F
100
AcDbEntity
  8
0
100
AcDbLine
 10
-291.3706045972596
 20
-565.2655209203307
 30
0.0
 11
-290.9179718799907
 21
-565.1192528140235
 31
0.0
  0
LINE
  5
18C
330
1F
100
AcDbEntity
  8
0
100
AcDbLine
 10
-294.1149994462456
 20
-564.0773696019899
 30
0.0
 11
-294.115954406879
 21
-564.3708355231836
 31
0.0
  0
LINE
  5
18D
330
1F
100
AcDbEntity
  8
0
100
AcDbLine
 10
-292.9013357662142
 20
-563.6097860491026
 30
0.0
 11
-292.3972692915064
 21
-563.6862590961865
 31
0.0
  0
LINE
  5
18E
330
1F
100
AcDbEntity
  8
0
100
AcDbLine
 10
-290.1361302717543
 20
-586.6426226451969
 30
0.0
 11
-290.2349416713156
 21
-586.3544598159125
 31
0.0
  0
LINE
  5
18F
330
1F
100
AcDbEntity
  8
0
100
AcDbLine
 10
-291.8751653959659
 20
-563.6867958636857
 30
0.0
 11
-291.3706045972591
 21
-563.6113597717818
 31
0.0
  0
LINE
  5
190
330
1F
100
AcDbEntity
  8
0
100
AcDbLine
 10
-291.3706045972591
 20
-563.6113597717818
 30
0.0
 11
-290.9179718799902
 21
-563.4650916654748
 31
0.0
  0
LINE
  5
191
330
1F
100
AcDbEntity
  8
0
100
AcDbLine
 10
-290.9179718799902
 20
-563.4650916654748
 30
0.0
 11
-290.7998111432101
 21
-563.3989179945454
 31
0.0
  0
LINE
  5
192
330
1F
100
AcDbEntity
  8
0
100
AcDbLine
 10
-297.1325905206538
 20
-561.415724250293
 30
0.0
 11
-247.1325905206537
 21
-561.4157242503086
 31
0.0
  0
LINE
  5
193
330
1F
100
AcDbEntity
  8
0
100
AcDbLine
 10
-297.1325905206625
 20
-589.5198931428987
 30
0.0
 11
-297.1325905206538
 21
-561.415724250293
 31
0.0
  0
LINE
  5
194
330
1F
100
AcDbEntity
  8
0
100
AcDbLine
 10
-247.1325905206623
 20
-589.5198931429142
 30
0.0
 11
-297.1325905206625
 21
-589.5198931428987
 31
0.0
  0
LINE
  5
195
330
1F
100
AcDbEntity
  8
0
100
AcDbLine
 10
-264.6325905206481
 20
-544.7856049859286
 30
0.0
 11
-278.1325905206486
 21
-544.7856049859242
 31
0.0
  0
LINE
  5
196
330
1F
100
AcDbEntity
  8
0
100
AcDbLine
 10
-279.6325905206537
 20
-559.7615631017491
 30
0.0
 11
-279.6325905206521
 21
-554.5653062605197
 31
0.0
  0
LINE
  5
197
330
1F
100
AcDbEntity
  8
0
100
AcDbLine
 10
-293.460198560841
 20
-585.8960867965317
 30
0.0
 11
-293.0278164903442
 21
-586.0605758031697
 31
0.0
  0
LINE
  5
198
330
1F
100
AcDbEntity
  8
0
100
AcDbLine
 10
-293.0278164903442
 20
-586.0605758031697
 30
0.0
 11
-292.5344262494439
 21
-586.1565579545056
 31
0.0
  0
LINE
  5
199
330
1F
100
AcDbEntity
  8
0
100
AcDbLine
 10
-292.5344262494439
 20
-586.1565579545056
 30
0.0
 11
-292.0136515676924
 21
-586.1774922255433
 31
0.0
  0
LINE
  5
19A
330
1F
100
AcDbEntity
  8
0
100
AcDbLine
 10
-292.0136515676924
 20
-586.1774922255433
 30
0.0
 11
-291.5009823790296
 21
-586.1219519803077
 31
0.0
  0
LINE
  5
19B
330
1F
100
AcDbEntity
  8
0
100
AcDbLine
 10
-291.5009823790296
 20
-586.1219519803077
 30
0.0
 11
-291.0313562414365
 21
-585.9937221947271
 31
0.0
  0
LINE
  5
19C
330
1F
100
AcDbEntity
  8
0
100
AcDbLine
 10
-291.0313562414365
 20
-585.9937221947271
 30
0.0
 11
-290.8049824804819
 21
-585.868704562198
 31
0.0
  0
LINE
  5
19D
330
1F
100
AcDbEntity
  8
0
100
AcDbLine
 10
-247.1325905206537
 20
-561.4157242503086
 30
0.0
 11
-247.1325905206531
 21
-559.7615631017592
 31
0.0
  0
LINE
  5
19E
330
1F
100
AcDbEntity
  8
0
100
AcDbLine
 10
-297.1325905206538
 20
-561.415724250293
 30
0.0
 11
-297.1325905206533
 21
-559.7615631017437
 31
0.0
  0
LINE
  5
19F
330
1F
100
AcDbEntity
  8
0
100
AcDbLine
 10
1207.871543277395
 20
-321.5768526295348
 30
0.0
 11
1222.200718709229
 21
-317.1412318788718
 31
0.0
  0
LINE
  5
1A0
330
1F
100
AcDbEntity
  8
0
100
AcDbLine
 10
1245.870766272531
 20
-351.6254831656771
 30
0.0
 11
1246.142687532265
 21
-351.4290842189382
 31
0.0
  0
LINE
  5
1A1
330
1F
100
AcDbEntity
  8
0
100
AcDbLine
 10
1244.064927556595
 20
-352.3247302836743
 30
0.0
 11
1244.564631748839
 21
-352.1885098193133
 31
0.0
  0
LINE
  5
1A2
330
1F
100
AcDbEntity
  8
0
100
AcDbLine
 10
1245.053904490562
 20
-352.018590783108
 30
0.0
 11
1245.499402652975
 21
-351.8265528765717
 31
0.0
  0
LINE
  5
1A3
330
1F
100
AcDbEntity
  8
0
100
AcDbLine
 10
1242.501005274313
 20
-352.2854374524206
 30
0.0
 11
1242.60572328262
 21
-352.3932684703281
 31
0.0
  0
LINE
  5
1A4
330
1F
100
AcDbEntity
  8
0
100
AcDbLine
 10
1243.323721344138
 20
-351.5614898280903
 30
0.0
 11
1242.952357724582
 21
-351.7625595389849
 31
0.0
  0
LINE
  5
1A5
330
1F
100
AcDbEntity
  8
0
100
AcDbLine
 10
1246.217400714493
 20
-350.9947742343354
 30
0.0
 11
1245.989617781983
 21
-350.9345957519576
 31
0.0
  0
LINE
  5
1A6
330
1F
100
AcDbEntity
  8
0
100
AcDbLine
 10
1243.168831041421
 20
-352.4618718354279
 30
0.0
 11
1243.58884592873
 21
-352.4179689766601
 31
0.0
  0
LINE
  5
1A7
330
1F
100
AcDbEntity
  8
0
100
AcDbLine
 10
1242.60572328262
 20
-352.3932684703281
 30
0.0
 11
1242.833506215132
 21
-352.4534469527055
 31
0.0
  0
LINE
  5
1A8
330
1F
100
AcDbEntity
  8
0
100
AcDbLine
 10
1245.499402652975
 20
-351.8265528765717
 30
0.0
 11
1245.870766272531
 21
-351.6254831656771
 31
0.0
  0
LINE
  5
1A9
330
1F
100
AcDbEntity
  8
0
100
AcDbLine
 10
1246.322118722802
 20
-351.102605252244
 30
0.0
 11
1246.217400714493
 21
-350.9947742343354
 31
0.0
  0
LINE
  5
1AA
330
1F
100
AcDbEntity
  8
0
100
AcDbLine
 10
1244.758196440518
 20
-351.0633124209876
 30
0.0
 11
1244.258492248274
 21
-351.1995328853489
 31
0.0
  0
LINE
  5
1AB
330
1F
100
AcDbEntity
  8
0
100
AcDbLine
 10
1244.258492248274
 20
-351.1995328853489
 30
0.0
 11
1243.769219506552
 21
-351.3694519215539
 31
0.0
  0
LINE
  5
1AC
330
1F
100
AcDbEntity
  8
0
100
AcDbLine
 10
1242.526488549416
 20
-352.1373024046525
 30
0.0
 11
1242.501005274313
 21
-352.2854374524206
 31
0.0
  0
LINE
  5
1AD
330
1F
100
AcDbEntity
  8
0
100
AcDbLine
 10
1242.680436464849
 20
-351.9589584857248
 30
0.0
 11
1242.526488549416
 21
-352.1373024046525
 31
0.0
  0
LINE
  5
1AE
330
1F
100
AcDbEntity
  8
0
100
AcDbLine
 10
1244.564631748839
 20
-352.1885098193133
 30
0.0
 11
1245.053904490562
 21
-352.018590783108
 31
0.0
  0
LINE
  5
1AF
330
1F
100
AcDbEntity
  8
0
100
AcDbLine
 10
1246.142687532265
 20
-351.4290842189382
 30
0.0
 11
1246.296635447697
 21
-351.250740300011
 31
0.0
  0
LINE
  5
1B0
330
1F
100
AcDbEntity
  8
0
100
AcDbLine
 10
1242.952357724582
 20
-351.7625595389849
 30
0.0
 11
1242.680436464849
 21
-351.9589584857248
 31
0.0
  0
LINE
  5
1B1
330
1F
100
AcDbEntity
  8
0
100
AcDbLine
 10
1243.769219506552
 20
-351.3694519215539
 30
0.0
 11
1243.323721344138
 21
-351.5614898280903
 31
0.0
  0
LINE
  5
1B2
330
1F
100
AcDbEntity
  8
0
100
AcDbLine
 10
1245.989617781983
 20
-350.9345957519576
 30
0.0
 11
1245.654292955692
 21
-350.926170869234
 31
0.0
  0
LINE
  5
1B3
330
1F
100
AcDbEntity
  8
0
100
AcDbLine
 10
1246.296635447697
 20
-351.250740300011
 30
0.0
 11
1246.322118722802
 21
-351.102605252244
 31
0.0
  0
LINE
  5
1B4
330
1F
100
AcDbEntity
  8
0
100
AcDbLine
 10
1245.234278068383
 20
-350.9700737280018
 30
0.0
 11
1244.758196440518
 21
-351.0633124209876
 31
0.0
  0
LINE
  5
1B5
330
1F
100
AcDbEntity
  8
0
100
AcDbLine
 10
1242.833506215132
 20
-352.4534469527055
 30
0.0
 11
1243.168831041421
 21
-352.4618718354279
 31
0.0
  0
LINE
  5
1B6
330
1F
100
AcDbEntity
  8
0
100
AcDbLine
 10
1243.58884592873
 20
-352.4179689766601
 30
0.0
 11
1244.064927556595
 21
-352.3247302836743
 31
0.0
  0
LINE
  5
1B7
330
1F
100
AcDbEntity
  8
0
100
AcDbLine
 10
1245.654292955692
 20
-350.926170869234
 30
0.0
 11
1245.234278068383
 21
-350.9700737280018
 31
0.0
  0
LINE
  5
1B8
330
1F
100
AcDbEntity
  8
0
100
AcDbLine
 10
1248.396155277977
 20
-360.8455020934684
 30
0.0
 11
1247.929962005283
 21
-360.9280802217702
 31
0.0
  0
LINE
  5
1B9
330
1F
100
AcDbEntity
  8
0
100
AcDbLine
 10
1248.79943411397
 20
-360.8132371130755
 30
0.0
 11
1248.396155277977
 21
-360.8455020934684
 31
0.0
  0
LINE
  5
1BA
330
1F
100
AcDbEntity
  8
0
100
AcDbLine
 10
1249.313477752319
 20
-360.9048632135714
 30
0.0
 11
1249.112315727041
 21
-360.8334840856842
 31
0.0
  0
LINE
  5
1BB
330
1F
100
AcDbEntity
  8
0
100
AcDbLine
 10
1249.389211330219
 20
-361.0225101271309
 30
0.0
 11
1249.313477752319
 21
-360.9048632135714
 31
0.0
  0
LINE
  5
1BC
330
1F
100
AcDbEntity
  8
0
100
AcDbLine
 10
1249.33435534256
 20
-361.1784073836246
 30
0.0
 11
1249.389211330219
 21
-361.0225101271309
 31
0.0
  0
LINE
  5
1BD
330
1F
100
AcDbEntity
  8
0
100
AcDbLine
 10
1249.112315727041
 20
-360.8334840856842
 30
0.0
 11
1248.79943411397
 21
-360.8132371130755
 31
0.0
  0
LINE
  5
1BE
330
1F
100
AcDbEntity
  8
0
100
AcDbLine
 10
1247.929962005283
 20
-360.9280802217702
 30
0.0
 11
1247.432624597003
 21
-361.0553439350035
 31
0.0
  0
LINE
  5
1BF
330
1F
100
AcDbEntity
  8
0
100
AcDbLine
 10
1246.146479894456
 20
-362.3543442708711
 30
0.0
 11
1246.54975873045
 21
-362.3220792904782
 31
0.0
  0
LINE
  5
1C0
330
1F
100
AcDbEntity
  8
0
100
AcDbLine
 10
1245.793265874175
 20
-361.8056505412926
 30
0.0
 11
1245.611558665864
 21
-361.9891740003225
 31
0.0
  0
LINE
  5
1C1
330
1F
100
AcDbEntity
  8
0
100
AcDbLine
 10
1247.015952003143
 20
-362.2395011621766
 30
0.0
 11
1247.513289411423
 21
-362.1122374489434
 31
0.0
  0
LINE
  5
1C2
330
1F
100
AcDbEntity
  8
0
100
AcDbLine
 10
1246.47990095197
 20
-361.4067826583113
 30
0.0
 11
1246.089441257177
 21
-361.6070077001722
 31
0.0
  0
LINE
  5
1C3
330
1F
100
AcDbEntity
  8
0
100
AcDbLine
 10
1248.007878232804
 20
-361.9489609625222
 30
0.0
 11
1248.466013056455
 21
-361.7607987256356
 31
0.0
  0
LINE
  5
1C4
330
1F
100
AcDbEntity
  8
0
100
AcDbLine
 10
1249.152648134251
 20
-361.3619308426543
 30
0.0
 11
1249.33435534256
 21
-361.1784073836246
 31
0.0
  0
LINE
  5
1C5
330
1F
100
AcDbEntity
  8
0
100
AcDbLine
 10
1248.466013056455
 20
-361.7607987256356
 30
0.0
 11
1248.85647275125
 21
-361.5605736837745
 31
0.0
  0
LINE
  5
1C6
330
1F
100
AcDbEntity
  8
0
100
AcDbLine
 10
1247.513289411423
 20
-362.1122374489434
 30
0.0
 11
1248.007878232804
 21
-361.9489609625222
 31
0.0
  0
LINE
  5
1C7
330
1F
100
AcDbEntity
  8
0
100
AcDbLine
 10
1246.54975873045
 20
-362.3220792904782
 30
0.0
 11
1247.015952003143
 21
-362.2395011621766
 31
0.0
  0
LINE
  5
1C8
330
1F
100
AcDbEntity
  8
0
100
AcDbLine
 10
1245.833598281385
 20
-362.3340972982624
 30
0.0
 11
1246.146479894456
 21
-362.3543442708711
 31
0.0
  0
LINE
  5
1C9
330
1F
100
AcDbEntity
  8
0
100
AcDbLine
 10
1245.611558665864
 20
-361.9891740003225
 30
0.0
 11
1245.556702678207
 21
-362.1450712568158
 31
0.0
  0
LINE
  5
1CA
330
1F
100
AcDbEntity
  8
0
100
AcDbLine
 10
1246.089441257177
 20
-361.6070077001722
 30
0.0
 11
1245.793265874175
 21
-361.8056505412926
 31
0.0
  0
LINE
  5
1CB
330
1F
100
AcDbEntity
  8
0
100
AcDbLine
 10
1246.938035775622
 20
-361.2186204214245
 30
0.0
 11
1246.47990095197
 21
-361.4067826583113
 31
0.0
  0
LINE
  5
1CC
330
1F
100
AcDbEntity
  8
0
100
AcDbLine
 10
1245.632436256106
 20
-362.2627181703756
 30
0.0
 11
1245.833598281385
 21
-362.3340972982624
 31
0.0
  0
LINE
  5
1CD
330
1F
100
AcDbEntity
  8
0
100
AcDbLine
 10
1248.85647275125
 20
-361.5605736837745
 30
0.0
 11
1249.152648134251
 21
-361.3619308426543
 31
0.0
  0
LINE
  5
1CE
330
1F
100
AcDbEntity
  8
0
100
AcDbLine
 10
1211.038810670248
 20
-373.1045916798807
 30
0.0
 11
1211.164173791855
 21
-372.9321082637543
 31
0.0
  0
LINE
  5
1CF
330
1F
100
AcDbEntity
  8
0
100
AcDbLine
 10
1207.497379684892
 20
-374.1294242054943
 30
0.0
 11
1207.751253012453
 21
-374.1780757856807
 31
0.0
  0
LINE
  5
1D0
330
1F
100
AcDbEntity
  8
0
100
AcDbLine
 10
1207.359471246786
 20
-373.8921171237276
 30
0.0
 11
1207.363750220617
 21
-374.0318890311952
 31
0.0
  0
LINE
  5
1D1
330
1F
100
AcDbEntity
  8
0
100
AcDbLine
 10
1210.415575883066
 20
-372.6496971405168
 30
0.0
 11
1209.980133354874
 21
-372.7052020392334
 31
0.0
  0
LINE
  5
1D2
330
1F
100
AcDbEntity
  8
0
100
AcDbLine
 10
1210.010420428109
 20
-373.6945238169786
 30
0.0
 11
1210.44158398247
 21
-373.4992470107944
 31
0.0
  0
LINE
  5
1D3
330
1F
100
AcDbEntity
  8
0
100
AcDbLine
 10
1207.731296295876
 20
-373.5261932425824
 30
0.0
 11
1207.484834368394
 21
-373.719633707601
 31
0.0
  0
LINE
  5
1D4
330
1F
100
AcDbEntity
  8
0
100
AcDbLine
 10
1208.513224610532
 20
-373.1297015705035
 30
0.0
 11
1208.082061056171
 21
-373.3249783766874
 31
0.0
  0
LINE
  5
1D5
330
1F
100
AcDbEntity
  8
0
100
AcDbLine
 10
1208.99540387526
 20
-372.9536706156616
 30
0.0
 11
1208.513224610532
 21
-373.1297015705035
 31
0.0
  0
LINE
  5
1D6
330
1F
100
AcDbEntity
  8
0
100
AcDbLine
 10
1208.543511683766
 20
-374.1190233482488
 30
0.0
 11
1209.027905908337
 21
-374.0153436566528
 31
0.0
  0
LINE
  5
1D7
330
1F
100
AcDbEntity
  8
0
100
AcDbLine
 10
1210.772392026186
 20
-372.6461496018014
 30
0.0
 11
1210.415575883066
 21
-372.6496971405168
 31
0.0
  0
LINE
  5
1D8
330
1F
100
AcDbEntity
  8
0
100
AcDbLine
 10
1210.44158398247
 20
-373.4992470107944
 30
0.0
 11
1210.792348742766
 21
-373.2980321448993
 31
0.0
  0
LINE
  5
1D9
330
1F
100
AcDbEntity
  8
0
100
AcDbLine
 10
1209.027905908337
 20
-374.0153436566528
 30
0.0
 11
1209.52824116338
 21
-373.8705547718205
 31
0.0
  0
LINE
  5
1DA
330
1F
100
AcDbEntity
  8
0
100
AcDbLine
 10
1208.108069155574
 20
-374.1745282469651
 30
0.0
 11
1208.543511683766
 21
-374.1190233482488
 31
0.0
  0
LINE
  5
1DB
330
1F
100
AcDbEntity
  8
0
100
AcDbLine
 10
1207.363750220617
 20
-374.0318890311952
 30
0.0
 11
1207.497379684892
 21
-374.1294242054943
 31
0.0
  0
LINE
  5
1DC
330
1F
100
AcDbEntity
  8
0
100
AcDbLine
 10
1209.52824116338
 20
-373.8705547718205
 30
0.0
 11
1210.010420428109
 21
-373.6945238169786
 31
0.0
  0
LINE
  5
1DD
330
1F
100
AcDbEntity
  8
0
100
AcDbLine
 10
1210.792348742766
 20
-373.2980321448993
 30
0.0
 11
1211.038810670248
 21
-373.1045916798807
 31
0.0
  0
LINE
  5
1DE
330
1F
100
AcDbEntity
  8
0
100
AcDbLine
 10
1207.751253012453
 20
-374.1780757856807
 30
0.0
 11
1208.108069155574
 21
-374.1745282469651
 31
0.0
  0
LINE
  5
1DF
330
1F
100
AcDbEntity
  8
0
100
AcDbLine
 10
1207.484834368394
 20
-373.719633707601
 30
0.0
 11
1207.359471246786
 21
-373.8921171237276
 31
0.0
  0
LINE
  5
1E0
330
1F
100
AcDbEntity
  8
0
100
AcDbLine
 10
1208.082061056171
 20
-373.3249783766874
 30
0.0
 11
1207.731296295876
 21
-373.5261932425824
 31
0.0
  0
LINE
  5
1E1
330
1F
100
AcDbEntity
  8
0
100
AcDbLine
 10
1209.980133354874
 20
-372.7052020392334
 30
0.0
 11
1209.495739130304
 21
-372.8088817308292
 31
0.0
  0
LINE
  5
1E2
330
1F
100
AcDbEntity
  8
0
100
AcDbLine
 10
1211.026265353749
 20
-372.6948011819877
 30
0.0
 11
1210.772392026186
 21
-372.6461496018014
 31
0.0
  0
LINE
  5
1E3
330
1F
100
AcDbEntity
  8
0
100
AcDbLine
 10
1207.908567612383
 20
-362.7871364503148
 30
0.0
 11
1207.625338181259
 21
-362.7521762269934
 31
0.0
  0
LINE
  5
1E4
330
1F
100
AcDbEntity
  8
0
100
AcDbLine
 10
1207.625338181259
 20
-362.7521762269934
 30
0.0
 11
1207.245003442916
 21
-362.7697016206239
 31
0.0
  0
LINE
  5
1E5
330
1F
100
AcDbEntity
  8
0
100
AcDbLine
 10
1206.598136672538
 20
-363.9365959562279
 30
0.0
 11
1207.069861092588
 21
-363.7542111096171
 31
0.0
  0
LINE
  5
1E6
330
1F
100
AcDbEntity
  8
0
100
AcDbLine
 10
1205.155851584413
 20
-364.2749850875732
 30
0.0
 11
1205.607372446092
 21
-364.2061684036055
 31
0.0
  0
LINE
  5
1E7
330
1F
100
AcDbEntity
  8
0
100
AcDbLine
 10
1204.492287414947
 20
-364.2575502578833
 30
0.0
 11
1204.77551684607
 21
-364.2925104812037
 31
0.0
  0
LINE
  5
1E8
330
1F
100
AcDbEntity
  8
0
100
AcDbLine
 10
1206.793482581237
 20
-362.8385183045913
 30
0.0
 11
1206.301545996772
 21
-362.9539365356085
 31
0.0
  0
LINE
  5
1E9
330
1F
100
AcDbEntity
  8
0
100
AcDbLine
 10
1203.93848039112
 20
-362.922341912878
 30
0.0
 11
1203.94993479699
 21
-362.9593451195099
 31
0.0
  0
LINE
  5
1EA
330
1F
100
AcDbEntity
  8
0
100
AcDbLine
 10
1207.807449129274
 20
-363.3555432688038
 30
0.0
 11
1208.023047340133
 21
-363.1664288291229
 31
0.0
  0
LINE
  5
1EB
330
1F
100
AcDbEntity
  8
0
100
AcDbLine
 10
1204.377807687197
 20
-363.8782578790755
 30
0.0
 11
1204.28641800549
 21
-364.043117332056
 31
0.0
  0
LINE
  5
1EC
330
1F
100
AcDbEntity
  8
0
100
AcDbLine
 10
1207.245003442916
 20
-362.7697016206239
 30
0.0
 11
1206.793482581237
 21
-362.8385183045913
 31
0.0
  0
LINE
  5
1ED
330
1F
100
AcDbEntity
  8
0
100
AcDbLine
 10
1204.593405898054
 20
-363.6891434393935
 30
0.0
 11
1204.377807687197
 21
-363.8782578790755
 31
0.0
  0
LINE
  5
1EE
330
1F
100
AcDbEntity
  8
0
100
AcDbLine
 10
1204.77551684607
 20
-364.2925104812037
 30
0.0
 11
1205.155851584413
 21
-364.2749850875732
 31
0.0
  0
LINE
  5
1EF
330
1F
100
AcDbEntity
  8
0
100
AcDbLine
 10
1205.330993934741
 20
-363.2904755985799
 30
0.0
 11
1204.918519976287
 21
-363.4886618495498
 31
0.0
  0
LINE
  5
1F0
330
1F
100
AcDbEntity
  8
0
100
AcDbLine
 10
1205.607372446092
 20
-364.2061684036055
 30
0.0
 11
1206.099309030556
 21
-364.0907501725887
 31
0.0
  0
LINE
  5
1F1
330
1F
100
AcDbEntity
  8
0
100
AcDbLine
 10
1204.325464908716
 20
-364.1724868990569
 30
0.0
 11
1204.492287414947
 21
-364.2575502578833
 31
0.0
  0
LINE
  5
1F2
330
1F
100
AcDbEntity
  8
0
100
AcDbLine
 10
1205.802718354791
 20
-363.1080907519689
 30
0.0
 11
1205.330993934741
 21
-363.2904755985799
 31
0.0
  0
LINE
  5
1F3
330
1F
100
AcDbEntity
  8
0
100
AcDbLine
 10
1208.075390118621
 20
-362.8721998091415
 30
0.0
 11
1207.908567612383
 21
-362.7871364503148
 31
0.0
  0
LINE
  5
1F4
330
1F
100
AcDbEntity
  8
0
100
AcDbLine
 10
1208.023047340133
 20
-363.1664288291229
 30
0.0
 11
1208.114437021839
 21
-363.0015693761426
 31
0.0
  0
LINE
  5
1F5
330
1F
100
AcDbEntity
  8
0
100
AcDbLine
 10
1204.918519976287
 20
-363.4886618495498
 30
0.0
 11
1204.593405898054
 21
-363.6891434393935
 31
0.0
  0
LINE
  5
1F6
330
1F
100
AcDbEntity
  8
0
100
AcDbLine
 10
1206.301545996772
 20
-362.9539365356085
 30
0.0
 11
1205.802718354791
 21
-363.1080907519689
 31
0.0
  0
LINE
  5
1F7
330
1F
100
AcDbEntity
  8
0
100
AcDbLine
 10
1207.482335051041
 20
-363.5560248586474
 30
0.0
 11
1207.807449129274
 21
-363.3555432688038
 31
0.0
  0
LINE
  5
1F8
330
1F
100
AcDbEntity
  8
0
100
AcDbLine
 10
1207.069861092588
 20
-363.7542111096171
 30
0.0
 11
1207.482335051041
 21
-363.5560248586474
 31
0.0
  0
LINE
  5
1F9
330
1F
100
AcDbEntity
  8
0
100
AcDbLine
 10
1204.28641800549
 20
-364.043117332056
 30
0.0
 11
1204.325464908716
 21
-364.1724868990569
 31
0.0
  0
LINE
  5
1FA
330
1F
100
AcDbEntity
  8
0
100
AcDbLine
 10
1211.159894818024
 20
-372.7923363562867
 30
0.0
 11
1211.026265353749
 21
-372.6948011819877
 31
0.0
  0
LINE
  5
1FB
330
1F
100
AcDbEntity
  8
0
100
AcDbLine
 10
1207.748049134889
 20
-361.8147319494022
 30
0.0
 11
1207.774565519787
 21
-361.9003925485337
 31
0.0
  0
LINE
  5
1FC
330
1F
100
AcDbEntity
  8
0
100
AcDbLine
 10
1201.047471523871
 20
-363.7844012925616
 30
0.0
 11
1248.805279433461
 21
-348.9792599346546
 31
0.0
  0
LINE
  5
1FD
330
1F
100
AcDbEntity
  8
0
100
AcDbLine
 10
1204.868105084416
 20
-376.1268741114173
 30
0.0
 11
1201.047471523871
 21
-363.7844012925616
 31
0.0
  0
LINE
  5
1FE
330
1F
100
AcDbEntity
  8
0
100
AcDbLine
 10
1224.287043048758
 20
-328.9536275759073
 30
0.0
 11
1211.390785160107
 21
-332.9456862515037
 31
0.0
  0
LINE
  5
1FF
330
1F
100
AcDbEntity
  8
0
100
AcDbLine
 10
1217.187468579327
 20
-356.7443154785522
 30
0.0
 11
1210.788555814006
 21
-336.0727683059071
 31
0.0
  0
LINE
  5
200
330
1F
100
AcDbEntity
  8
0
100
AcDbLine
 10
1248.805279433461
 20
-348.9792599346546
 30
0.0
 11
1248.234015348302
 21
-347.133803852116
 31
0.0
  0
LINE
  5
201
330
1F
100
AcDbEntity
  8
0
100
AcDbLine
 10
1201.047471523871
 20
-363.7844012925616
 30
0.0
 11
1200.470097242187
 21
-361.9192063543254
 31
0.0
  0
LINE
  5
202
330
1F
100
AcDbEntity
  8
0
100
AcDbLine
 10
-1622.234450882051
 20
-313.1288058748133
 30
0.0
 11
-1607.936590865145
 21
-317.6643542360331
 31
0.0
  0
LINE
  5
203
330
1F
100
AcDbEntity
  8
0
100
AcDbLine
 10
-1608.180580109101
 20
-359.4898871998739
 30
0.0
 11
-1607.845204638141
 21
-359.4838035123559
 31
0.0
  0
LINE
  5
204
330
1F
100
AcDbEntity
  8
0
100
AcDbLine
 10
-1610.062512959921
 20
-359.0334567615764
 30
0.0
 11
-1609.574438390452
 21
-359.2067873973397
 31
0.0
  0
LINE
  5
205
330
1F
100
AcDbEntity
  8
0
100
AcDbLine
 10
-1609.075697366166
 20
-359.3464931071409
 30
0.0
 11
-1608.600278263659
 21
-359.4430531777316
 31
0.0
  0
LINE
  5
206
330
1F
100
AcDbEntity
  8
0
100
AcDbLine
 10
-1611.324301553258
 20
-358.1086398189681
 30
0.0
 11
-1611.29985306849
 21
-358.256949162165
 31
0.0
  0
LINE
  5
207
330
1F
100
AcDbEntity
  8
0
100
AcDbLine
 10
-1610.235562171681
 20
-357.983706023194
 30
0.0
 11
-1610.655260326238
 21
-357.9368720010517
 31
0.0
  0
LINE
  5
208
330
1F
100
AcDbEntity
  8
0
100
AcDbLine
 10
-1607.535987366851
 20
-359.1698100387617
 30
0.0
 11
-1607.68868646536
 21
-358.9903957154804
 31
0.0
  0
LINE
  5
209
330
1F
100
AcDbEntity
  8
0
100
AcDbLine
 10
-1610.876610448944
 20
-358.6346559991755
 30
0.0
 11
-1610.506659599247
 21
-358.8383133962354
 31
0.0
  0
LINE
  5
20A
330
1F
100
AcDbEntity
  8
0
100
AcDbLine
 10
-1611.29985306849
 20
-358.256949162165
 30
0.0
 11
-1611.14715396998
 21
-358.4363634854467
 31
0.0
  0
LINE
  5
20B
330
1F
100
AcDbEntity
  8
0
100
AcDbLine
 10
-1608.600278263659
 20
-359.4430531777316
 30
0.0
 11
-1608.180580109101
 21
-359.4898871998739
 31
0.0
  0
LINE
  5
20C
330
1F
100
AcDbEntity
  8
0
100
AcDbLine
 10
-1607.511538882083
 20
-359.3181193819602
 30
0.0
 11
-1607.535987366851
 21
-359.1698100387617
 31
0.0
  0
LINE
  5
20D
330
1F
100
AcDbEntity
  8
0
100
AcDbLine
 10
-1608.773327475418
 20
-358.3933024393492
 30
0.0
 11
-1609.261402044888
 21
-358.2199718035856
 31
0.0
  0
LINE
  5
20E
330
1F
100
AcDbEntity
  8
0
100
AcDbLine
 10
-1609.261402044888
 20
-358.2199718035856
 30
0.0
 11
-1609.760143069174
 21
-358.0802660937846
 31
0.0
  0
LINE
  5
20F
330
1F
100
AcDbEntity
  8
0
100
AcDbLine
 10
-1611.218833300449
 20
-358.0015424924987
 30
0.0
 11
-1611.324301553258
 21
-358.1086398189681
 31
0.0
  0
LINE
  5
210
330
1F
100
AcDbEntity
  8
0
100
AcDbLine
 10
-1610.990635797198
 20
-357.9429556885712
 30
0.0
 11
-1611.218833300449
 21
-358.0015424924987
 31
0.0
  0
LINE
  5
211
330
1F
100
AcDbEntity
  8
0
100
AcDbLine
 10
-1609.574438390452
 20
-359.2067873973397
 30
0.0
 11
-1609.075697366166
 21
-359.3464931071409
 31
0.0
  0
LINE
  5
212
330
1F
100
AcDbEntity
  8
0
100
AcDbLine
 10
-1607.845204638141
 20
-359.4838035123559
 30
0.0
 11
-1607.617007134891
 21
-359.4252167084279
 31
0.0
  0
LINE
  5
213
330
1F
100
AcDbEntity
  8
0
100
AcDbLine
 10
-1610.655260326238
 20
-357.9368720010517
 30
0.0
 11
-1610.990635797198
 21
-357.9429556885712
 31
0.0
  0
LINE
  5
214
330
1F
100
AcDbEntity
  8
0
100
AcDbLine
 10
-1609.760143069174
 20
-358.0802660937846
 30
0.0
 11
-1610.235562171681
 21
-357.983706023194
 31
0.0
  0
LINE
  5
215
330
1F
100
AcDbEntity
  8
0
100
AcDbLine
 10
-1607.68868646536
 20
-358.9903957154804
 30
0.0
 11
-1607.959229986395
 21
-358.79210320175
 31
0.0
  0
LINE
  5
216
330
1F
100
AcDbEntity
  8
0
100
AcDbLine
 10
-1607.617007134891
 20
-359.4252167084279
 30
0.0
 11
-1607.511538882083
 21
-359.3181193819602
 31
0.0
  0
LINE
  5
217
330
1F
100
AcDbEntity
  8
0
100
AcDbLine
 10
-1608.329180836093
 20
-358.5884458046901
 30
0.0
 11
-1608.773327475418
 21
-358.3933024393492
 31
0.0
  0
LINE
  5
218
330
1F
100
AcDbEntity
  8
0
100
AcDbLine
 10
-1611.14715396998
 20
-358.4363634854467
 30
0.0
 11
-1610.876610448944
 21
-358.6346559991755
 31
0.0
  0
LINE
  5
219
330
1F
100
AcDbEntity
  8
0
100
AcDbLine
 10
-1610.506659599247
 20
-358.8383133962354
 30
0.0
 11
-1610.062512959921
 21
-359.0334567615764
 31
0.0
  0
LINE
  5
21A
330
1F
100
AcDbEntity
  8
0
100
AcDbLine
 10
-1607.959229986395
 20
-358.79210320175
 30
0.0
 11
-1608.329180836093
 21
-358.5884458046901
 31
0.0
  0
LINE
  5
21B
330
1F
100
AcDbEntity
  8
0
100
AcDbLine
 10
-1611.368848820901
 20
-368.5021722197238
 30
0.0
 11
-1611.798791516294
 21
-368.3039183585821
 31
0.0
  0
LINE
  5
21C
330
1F
100
AcDbEntity
  8
0
100
AcDbLine
 10
-1611.019282661593
 20
-368.7058345598521
 30
0.0
 11
-1611.368848820901
 21
-368.5021722197238
 31
0.0
  0
LINE
  5
21D
330
1F
100
AcDbEntity
  8
0
100
AcDbLine
 10
-1610.649468393209
 20
-369.0744449385971
 30
0.0
 11
-1610.773915394439
 21
-368.9010261270552
 31
0.0
  0
LINE
  5
21E
330
1F
100
AcDbEntity
  8
0
100
AcDbLine
 10
-1610.654422515375
 20
-369.2142727890603
 30
0.0
 11
-1610.649468393209
 21
-369.0744449385971
 31
0.0
  0
LINE
  5
21F
330
1F
100
AcDbEntity
  8
0
100
AcDbLine
 10
-1610.788440145703
 20
-369.3109806415111
 30
0.0
 11
-1610.654422515375
 21
-369.2142727890603
 31
0.0
  0
LINE
  5
220
330
1F
100
AcDbEntity
  8
0
100
AcDbLine
 10
-1610.773915394439
 20
-368.9010261270552
 30
0.0
 11
-1611.019282661593
 21
-368.7058345598521
 31
0.0
  0
LINE
  5
221
330
1F
100
AcDbEntity
  8
0
100
AcDbLine
 10
-1611.798791516294
 20
-368.3039183585821
 30
0.0
 11
-1612.279810863592
 21
-368.1245836494337
 31
0.0
  0
LINE
  5
222
330
1F
100
AcDbEntity
  8
0
100
AcDbLine
 10
-1614.077284685025
 20
-368.4572365161513
 30
0.0
 11
-1613.727718525717
 21
-368.6608988562797
 31
0.0
  0
LINE
  5
223
330
1F
100
AcDbEntity
  8
0
100
AcDbLine
 10
-1614.054179142462
 20
-367.8050930603803
 30
0.0
 11
-1614.308127200916
 21
-367.852090434492
 31
0.0
  0
LINE
  5
224
330
1F
100
AcDbEntity
  8
0
100
AcDbLine
 10
-1613.297775830325
 20
-368.8591527174213
 30
0.0
 11
-1612.816756483027
 21
-369.0384874265696
 31
0.0
  0
LINE
  5
225
330
1F
100
AcDbEntity
  8
0
100
AcDbLine
 10
-1613.262709978835
 20
-367.8694349686653
 30
0.0
 11
-1613.697606796394
 21
-367.8110089579866
 31
0.0
  0
LINE
  5
226
330
1F
100
AcDbEntity
  8
0
100
AcDbLine
 10
-1612.317441157418
 20
-369.1866816196609
 30
0.0
 11
-1611.833857367783
 21
-369.293636107338
 31
0.0
  0
LINE
  5
227
330
1F
100
AcDbEntity
  8
0
100
AcDbLine
 10
-1611.042388204157
 20
-369.357978015623
 30
0.0
 11
-1610.788440145703
 21
-369.3109806415111
 31
0.0
  0
LINE
  5
228
330
1F
100
AcDbEntity
  8
0
100
AcDbLine
 10
-1611.833857367783
 20
-369.293636107338
 30
0.0
 11
-1611.398960550224
 21
-369.3520621180169
 31
0.0
  0
LINE
  5
229
330
1F
100
AcDbEntity
  8
0
100
AcDbLine
 10
-1612.816756483027
 20
-369.0384874265696
 30
0.0
 11
-1612.317441157418
 21
-369.1866816196609
 31
0.0
  0
LINE
  5
22A
330
1F
100
AcDbEntity
  8
0
100
AcDbLine
 10
-1613.727718525717
 20
-368.6608988562797
 30
0.0
 11
-1613.297775830325
 21
-368.8591527174213
 31
0.0
  0
LINE
  5
22B
330
1F
100
AcDbEntity
  8
0
100
AcDbLine
 10
-1614.322651952179
 20
-368.2620449489483
 30
0.0
 11
-1614.077284685025
 21
-368.4572365161513
 31
0.0
  0
LINE
  5
22C
330
1F
100
AcDbEntity
  8
0
100
AcDbLine
 10
-1614.308127200916
 20
-367.852090434492
 30
0.0
 11
-1614.442144831243
 21
-367.9487982869432
 31
0.0
  0
LINE
  5
22D
330
1F
100
AcDbEntity
  8
0
100
AcDbLine
 10
-1613.697606796394
 20
-367.8110089579866
 30
0.0
 11
-1614.054179142462
 21
-367.8050930603803
 31
0.0
  0
LINE
  5
22E
330
1F
100
AcDbEntity
  8
0
100
AcDbLine
 10
-1612.7791261892
 20
-367.9763894563426
 30
0.0
 11
-1613.262709978835
 21
-367.8694349686653
 31
0.0
  0
LINE
  5
22F
330
1F
100
AcDbEntity
  8
0
100
AcDbLine
 10
-1614.447098953411
 20
-368.0886261374059
 30
0.0
 11
-1614.322651952179
 21
-368.2620449489483
 31
0.0
  0
LINE
  5
230
330
1F
100
AcDbEntity
  8
0
100
AcDbLine
 10
-1611.398960550224
 20
-369.3520621180169
 30
0.0
 11
-1611.042388204157
 21
-369.357978015623
 31
0.0
  0
LINE
  5
231
330
1F
100
AcDbEntity
  8
0
100
AcDbLine
 10
-1649.041231555325
 20
-357.2483705181018
 30
0.0
 11
-1648.839851101378
 21
-357.1782823317491
 31
0.0
  0
LINE
  5
232
330
1F
100
AcDbEntity
  8
0
100
AcDbLine
 10
-1652.534160635126
 20
-356.0687682236518
 30
0.0
 11
-1652.353458869879
 21
-356.2536073827571
 31
0.0
  0
LINE
  5
233
330
1F
100
AcDbEntity
  8
0
100
AcDbLine
 10
-1652.511969668738
 20
-355.7951974844119
 30
0.0
 11
-1652.588225716734
 21
-355.9124131441094
 31
0.0
  0
LINE
  5
234
330
1F
100
AcDbEntity
  8
0
100
AcDbLine
 10
-1649.293385822444
 20
-356.5191456779673
 30
0.0
 11
-1649.682626508863
 21
-356.3162105228661
 31
0.0
  0
LINE
  5
235
330
1F
100
AcDbEntity
  8
0
100
AcDbLine
 10
-1650.222375663993
 20
-357.1458765618622
 30
0.0
 11
-1649.756878929578
 21
-357.231596057266
 31
0.0
  0
LINE
  5
236
330
1F
100
AcDbEntity
  8
0
100
AcDbLine
 10
-1651.997808100033
 20
-355.7069249791256
 30
0.0
 11
-1652.310589214791
 21
-355.7251092980594
 31
0.0
  0
LINE
  5
237
330
1F
100
AcDbEntity
  8
0
100
AcDbLine
 10
-1651.129445106124
 20
-355.8276032542986
 30
0.0
 11
-1651.594941840538
 21
-355.7418837588953
 31
0.0
  0
LINE
  5
238
330
1F
100
AcDbEntity
  8
0
100
AcDbLine
 10
-1650.633040729971
 20
-355.9582418233825
 30
0.0
 11
-1651.129445106124
 21
-355.8276032542986
 31
0.0
  0
LINE
  5
239
330
1F
100
AcDbEntity
  8
0
100
AcDbLine
 10
-1651.669194261253
 20
-356.6572692932947
 30
0.0
 11
-1651.212262920151
 21
-356.8485831526067
 31
0.0
  0
LINE
  5
23A
330
1F
100
AcDbEntity
  8
0
100
AcDbLine
 10
-1648.998361900238
 20
-356.7198724334037
 30
0.0
 11
-1649.293385822444
 21
-356.5191456779673
 31
0.0
  0
LINE
  5
23B
330
1F
100
AcDbEntity
  8
0
100
AcDbLine
 10
-1649.756878929578
 20
-357.231596057266
 30
0.0
 11
-1649.354012670083
 21
-357.2665548370356
 31
0.0
  0
LINE
  5
23C
330
1F
100
AcDbEntity
  8
0
100
AcDbLine
 10
-1651.212262920151
 20
-356.8485831526067
 30
0.0
 11
-1650.718780040146
 21
-357.0152379927783
 31
0.0
  0
LINE
  5
23D
330
1F
100
AcDbEntity
  8
0
100
AcDbLine
 10
-1652.058434947672
 20
-356.4543341381937
 30
0.0
 11
-1651.669194261253
 21
-356.6572692932947
 31
0.0
  0
LINE
  5
23E
330
1F
100
AcDbEntity
  8
0
100
AcDbLine
 10
-1652.588225716734
 20
-355.9124131441094
 30
0.0
 11
-1652.534160635126
 21
-356.0687682236518
 31
0.0
  0
LINE
  5
23F
330
1F
100
AcDbEntity
  8
0
100
AcDbLine
 10
-1650.718780040146
 20
-357.0152379927783
 30
0.0
 11
-1650.222375663993
 21
-357.1458765618622
 31
0.0
  0
LINE
  5
240
330
1F
100
AcDbEntity
  8
0
100
AcDbLine
 10
-1649.354012670083
 20
-357.2665548370356
 30
0.0
 11
-1649.041231555325
 21
-357.2483705181018
 31
0.0
  0
LINE
  5
241
330
1F
100
AcDbEntity
  8
0
100
AcDbLine
 10
-1652.353458869879
 20
-356.2536073827571
 30
0.0
 11
-1652.058434947672
 21
-356.4543341381937
 31
0.0
  0
LINE
  5
242
330
1F
100
AcDbEntity
  8
0
100
AcDbLine
 10
-1652.310589214791
 20
-355.7251092980594
 30
0.0
 11
-1652.511969668738
 21
-355.7951974844119
 31
0.0
  0
LINE
  5
243
330
1F
100
AcDbEntity
  8
0
100
AcDbLine
 10
-1651.594941840538
 20
-355.7418837588953
 30
0.0
 11
-1651.997808100033
 21
-355.7069249791256
 31
0.0
  0
LINE
  5
244
330
1F
100
AcDbEntity
  8
0
100
AcDbLine
 10
-1649.682626508863
 20
-356.3162105228661
 30
0.0
 11
-1650.139557849966
 21
-356.1248966635543
 31
0.0
  0
LINE
  5
245
330
1F
100
AcDbEntity
  8
0
100
AcDbLine
 10
-1648.817660134991
 20
-356.9047115925092
 30
0.0
 11
-1648.998361900238
 21
-356.7198724334037
 31
0.0
  0
LINE
  5
246
330
1F
100
AcDbEntity
  8
0
100
AcDbLine
 10
-1645.723316483221
 20
-346.9897281327903
 30
0.0
 11
-1645.935937832813
 21
-346.7993776939492
 31
0.0
  0
LINE
  5
247
330
1F
100
AcDbEntity
  8
0
100
AcDbLine
 10
-1645.935937832813
 20
-346.7993776939492
 30
0.0
 11
-1646.258251382334
 21
-346.596706461635
 31
0.0
  0
LINE
  5
248
330
1F
100
AcDbEntity
  8
0
100
AcDbLine
 10
-1647.455387948627
 20
-347.1857251801233
 30
0.0
 11
-1646.963942307673
 21
-347.3051795343
 31
0.0
  0
LINE
  5
249
330
1F
100
AcDbEntity
  8
0
100
AcDbLine
 10
-1648.832842476503
 20
-346.6404614794483
 30
0.0
 11
-1648.422801862804
 21
-346.8416417956848
 31
0.0
  0
LINE
  5
24A
330
1F
100
AcDbEntity
  8
0
100
AcDbLine
 10
-1649.367777375616
 20
-346.2474398082945
 30
0.0
 11
-1649.155156026024
 21
-346.4377902471342
 31
0.0
  0
LINE
  5
24B
330
1F
100
AcDbEntity
  8
0
100
AcDbLine
 10
-1646.668291996033
 20
-346.3955261453987
 30
0.0
 11
-1647.13811608371
 21
-346.2095468513248
 31
0.0
  0
LINE
  5
24C
330
1F
100
AcDbEntity
  8
0
100
AcDbLine
 10
-1646.13074732893
 20
-347.3987652520055
 30
0.0
 11
-1645.845778852022
 21
-347.3665189035307
 31
0.0
  0
LINE
  5
24D
330
1F
100
AcDbEntity
  8
0
100
AcDbLine
 10
-1649.245315006816
 20
-345.870649037554
 30
0.0
 11
-1649.414447098249
 21
-345.9538659156912
 31
0.0
  0
LINE
  5
24E
330
1F
100
AcDbEntity
  8
0
100
AcDbLine
 10
-1646.258251382334
 20
-346.596706461635
 30
0.0
 11
-1646.668291996033
 21
-346.3955261453987
 31
0.0
  0
LINE
  5
24F
330
1F
100
AcDbEntity
  8
0
100
AcDbLine
 10
-1648.960346529908
 20
-345.8384026890776
 30
0.0
 11
-1649.245315006816
 21
-345.870649037554
 31
0.0
  0
LINE
  5
250
330
1F
100
AcDbEntity
  8
0
100
AcDbLine
 10
-1649.155156026024
 20
-346.4377902471342
 30
0.0
 11
-1648.832842476503
 21
-346.6404614794483
 31
0.0
  0
LINE
  5
251
330
1F
100
AcDbEntity
  8
0
100
AcDbLine
 10
-1648.127151551164
 20
-345.9319884067833
 30
0.0
 11
-1648.578961798294
 21
-345.8593244056236
 31
0.0
  0
LINE
  5
252
330
1F
100
AcDbEntity
  8
0
100
AcDbLine
 10
-1648.422801862804
 20
-346.8416417956848
 30
0.0
 11
-1647.952977775128
 21
-347.0276210897582
 31
0.0
  0
LINE
  5
253
330
1F
100
AcDbEntity
  8
0
100
AcDbLine
 10
-1649.456216731679
 20
-346.0823822307671
 30
0.0
 11
-1649.367777375616
 21
-346.2474398082945
 31
0.0
  0
LINE
  5
254
330
1F
100
AcDbEntity
  8
0
100
AcDbLine
 10
-1647.63570591021
 20
-346.0514427609602
 30
0.0
 11
-1648.127151551164
 21
-345.9319884067833
 31
0.0
  0
LINE
  5
255
330
1F
100
AcDbEntity
  8
0
100
AcDbLine
 10
-1645.634877127159
 20
-347.1547857103176
 30
0.0
 11
-1645.723316483221
 21
-346.9897281327903
 31
0.0
  0
LINE
  5
256
330
1F
100
AcDbEntity
  8
0
100
AcDbLine
 10
-1645.845778852022
 20
-347.3665189035307
 30
0.0
 11
-1645.676646760589
 21
-347.2833020253933
 31
0.0
  0
LINE
  5
257
330
1F
100
AcDbEntity
  8
0
100
AcDbLine
 10
-1648.578961798294
 20
-345.8593244056236
 30
0.0
 11
-1648.960346529908
 21
-345.8384026890776
 31
0.0
  0
LINE
  5
258
330
1F
100
AcDbEntity
  8
0
100
AcDbLine
 10
-1647.13811608371
 20
-346.2095468513248
 30
0.0
 11
-1647.63570591021
 21
-346.0514427609602
 31
0.0
  0
LINE
  5
259
330
1F
100
AcDbEntity
  8
0
100
AcDbLine
 10
-1646.512132060544
 20
-347.3778435354595
 30
0.0
 11
-1646.13074732893
 21
-347.3987652520055
 31
0.0
  0
LINE
  5
25A
330
1F
100
AcDbEntity
  8
0
100
AcDbLine
 10
-1646.963942307673
 20
-347.3051795343
 30
0.0
 11
-1646.512132060544
 21
-347.3778435354595
 31
0.0
  0
LINE
  5
25B
330
1F
100
AcDbEntity
  8
0
100
AcDbLine
 10
-1649.414447098249
 20
-345.9538659156912
 30
0.0
 11
-1649.456216731679
 21
-346.0823822307671
 31
0.0
  0
LINE
  5
25C
330
1F
100
AcDbEntity
  8
0
100
AcDbLine
 10
-1648.763595053383
 20
-357.0610666720516
 30
0.0
 11
-1648.817660134991
 21
-356.9047115925092
 31
0.0
  0
LINE
  5
25D
330
1F
100
AcDbEntity
  8
0
100
AcDbLine
 10
-1651.920204836432
 20
-343.8732150246091
 30
0.0
 11
-1604.260671446746
 21
-358.9917095620104
 31
0.0
  0
LINE
  5
25E
330
1F
100
AcDbEntity
  8
0
100
AcDbLine
 10
-1655.833159155982
 20
-356.2084099465328
 30
0.0
 11
-1651.920204836432
 21
-343.8732150246091
 31
0.0
  0
LINE
  5
25F
330
1F
100
AcDbEntity
  8
0
100
AcDbLine
 10
-1612.964901774874
 20
-328.5547872277993
 30
0.0
 11
-1625.832975790089
 21
-324.4727937027009
 31
0.0
  0
LINE
  5
260
330
1F
100
AcDbEntity
  8
0
100
AcDbLine
 10
-1634.655234376911
 20
-347.3232651458995
 30
0.0
 11
-1628.112164097062
 21
-326.6968941998991
 31
0.0
  0
LINE
  5
261
330
1F
100
AcDbEntity
  8
0
100
AcDbLine
 10
-1604.260671446746
 20
-358.9917095620104
 30
0.0
 11
-1603.676537673615
 21
-357.1502865952106
 31
0.0
  0
LINE
  5
262
330
1F
100
AcDbEntity
  8
0
100
AcDbLine
 10
-1651.920204836432
 20
-343.8732150246091
 30
0.0
 11
-1651.336071063301
 21
-342.0317920578092
 31
0.0
  0
LINE
  5
263
330
1F
100
AcDbEntity
  8
0
100
AcDbLine
 10
-614.6662183292782
 20
-108.7911970219447
 30
0.0
 11
-614.6325905203099
 21
-108.791402386542
 31
0.0
  0
LINE
  5
264
330
1F
100
AcDbEntity
  8
0
100
AcDbLine
 10
-614.6325905203099
 20
-108.791402386542
 30
0.0
 11
-613.9251175392195
 21
-108.7921794098839
 31
0.0
  0
LINE
  5
265
330
1F
100
AcDbEntity
  8
0
100
AcDbLine
 10
1035.328182639286
 20
-110.5347021963702
 30
0.0
 11
1054.628165052393
 21
-110.5602851179074
 31
0.0
  0
LINE
  5
266
330
1F
100
AcDbEntity
  8
0
100
AcDbLine
 10
237.7433043058325
 20
14.30076269868993
 30
0.0
 11
237.7433043058217
 21
34.27503359894985
 31
0.0
  0
LINE
  5
267
330
1F
100
AcDbEntity
  8
0
100
AcDbLine
 10
237.7433043058217
 20
34.27503359894985
 30
0.0
 11
237.7433380126445
 21
34.30081258558987
 31
0.0
  0
LINE
  5
268
330
1F
100
AcDbEntity
  8
0
100
AcDbLine
 10
557.7433297990252
 20
34.24888958213004
 30
0.0
 11
557.7433297990256
 21
34.30096219880271
 31
0.0
  0
LINE
  5
269
330
1F
100
AcDbEntity
  8
0
100
AcDbLine
 10
257.7879173546011
 20
68.38332310252017
 30
0.0
 11
255.2879190716972
 21
68.38627499378464
 31
0.0
  0
LINE
  5
26A
330
1F
100
AcDbEntity
  8
0
100
AcDbLine
 10
257.7433534190914
 20
34.30081881892882
 30
0.0
 11
257.7432855200071
 21
34.24888958213004
 31
0.0
  0
LINE
  5
26B
330
1F
100
AcDbEntity
  8
0
100
AcDbLine
 10
537.7433824314288
 20
34.30094973052825
 30
0.0
 11
537.7433485848401
 21
34.27503359894985
 31
0.0
  0
LINE
  5
26C
330
1F
100
AcDbEntity
  8
0
100
AcDbLine
 10
-220.6061170396991
 20
-361.8986717610285
 30
0.0
 11
-220.2707151239587
 21
-108.8702897447639
 31
0.0
  0
LINE
  5
26D
330
1F
100
AcDbEntity
  8
0
100
AcDbLine
 10
-240.034370383888
 20
69.43811184683523
 30
0.0
 11
-220.0343915082393
 21
69.41161046072459
 31
0.0
  0
LINE
  5
26E
330
1F
100
AcDbEntity
  8
0
100
AcDbLine
 10
-613.6623142561588
 20
89.46710205634254
 30
0.0
 11
-613.6882041435737
 21
69.93575544039824
 31
0.0
  0
LINE
  5
26F
330
1F
100
AcDbEntity
  8
0
100
AcDbLine
 10
-614.63259052031
 20
-381.3760825063346
 30
0.0
 11
-614.2864426410256
 21
-381.3765525812221
 31
0.0
  0
LINE
  5
270
330
1F
100
AcDbEntity
  8
0
100
AcDbLine
 10
-634.2599139919723
 20
-361.3500590740578
 30
0.0
 11
-633.9317774894872
 21
-108.3221866131314
 31
0.0
  0
LINE
  5
271
330
1F
100
AcDbEntity
  8
0
100
AcDbLine
 10
-1928.38021515545
 20
-106.6063691266963
 30
0.0
 11
-1928.477017758898
 21
-179.6343448915653
 31
0.0
  0
LINE
  5
272
330
1F
100
AcDbEntity
  8
0
100
AcDbLine
 10
-1928.143889731941
 20
71.67775271198812
 30
0.0
 11
-1908.143907658162
 21
71.65119797142383
 31
0.0
  0
LINE
  5
273
330
1F
100
AcDbEntity
  8
0
100
AcDbLine
 10
-594.63259052031
 20
69.46710205634291
 30
0.0
 11
-594.429910771754
 21
69.46642362770872
 31
0.0
  0
LINE
  5
274
330
1F
100
AcDbEntity
  8
0
100
AcDbLine
 10
-594.429910771754
 20
69.46642362770872
 30
0.0
 11
-280.6325905204582
 21
69.46710205859158
 31
0.0
  0
LINE
  5
275
330
1F
100
AcDbEntity
  8
0
100
AcDbLine
 10
-614.4299271710804
 20
69.46710205634422
 30
0.0
 11
-614.6656304861408
 21
-108.3477190441767
 31
0.0
  0
LINE
  5
276
330
1F
100
AcDbEntity
  8
0
100
AcDbLine
 10
-614.6656304861408
 20
-108.3477190441767
 30
0.0
 11
-614.6662183292782
 21
-108.7911970219447
 31
0.0
  0
LINE
  5
277
330
1F
100
AcDbEntity
  8
0
100
AcDbLine
 10
-613.9251175392195
 20
-108.7921794098839
 30
0.0
 11
-594.6662361725595
 21
-108.8176995928408
 31
0.0
  0
LINE
  5
278
330
1F
100
AcDbEntity
  8
0
100
AcDbLine
 10
-614.6325905203099
 20
-108.791402386542
 30
0.0
 11
-614.63259052031
 21
-381.3760825063346
 31
0.0
  0
LINE
  5
279
330
1F
100
AcDbEntity
  8
0
100
AcDbLine
 10
-614.6325905203099
 20
69.46710205634277
 30
0.0
 11
-614.4299271710804
 21
69.46710205634422
 31
0.0
  0
LINE
  5
27A
330
1F
100
AcDbEntity
  8
0
100
AcDbLine
 10
-240.6325905204462
 20
69.46710205887811
 30
0.0
 11
-240.4299107717536
 21
69.46642363010078
 31
0.0
  0
LINE
  5
27B
330
1F
100
AcDbEntity
  8
0
100
AcDbLine
 10
1015.328200278615
 20
-110.5082605683527
 30
0.0
 11
1034.628182489874
 21
-110.5332178575138
 31
0.0
  0
LINE
  5
27C
330
1F
100
AcDbEntity
  8
0
100
AcDbLine
 10
1244.553887552575
 20
-363.8420723055175
 30
0.0
 11
1303.009148482545
 21
-363.9195591320603
 31
0.0
  0
LINE
  5
27D
330
1F
100
AcDbEntity
  8
0
100
AcDbLine
 10
1511.530944240551
 20
-184.1942674014484
 30
0.0
 11
1511.627764079295
 21
-111.1659283547346
 31
0.0
  0
LINE
  5
27E
330
1F
100
AcDbEntity
  8
0
100
AcDbLine
 10
1035.564508201468
 20
87.74798036340621
 30
0.0
 11
1034.891020026762
 21
87.75052570572298
 31
0.0
  0
LINE
  5
27F
330
1F
100
AcDbEntity
  8
0
100
AcDbLine
 10
1054.864475462744
 20
67.72238012692864
 30
0.0
 11
1035.564508058717
 21
67.74785314156229
 31
0.0
  0
LINE
  5
280
330
1F
100
AcDbEntity
  8
0
100
AcDbLine
 10
1035.564508058717
 20
67.74785314156229
 30
0.0
 11
1034.864493029014
 21
67.74888768204146
 31
0.0
  0
LINE
  5
281
330
1F
100
AcDbEntity
  8
0
100
AcDbLine
 10
1034.992780488626
 20
-383.5627655318096
 30
0.0
 11
1054.266248457636
 21
-383.5898570784918
 31
0.0
  0
LINE
  5
282
330
1F
100
AcDbEntity
  8
0
100
AcDbLine
 10
1491.864091477454
 20
67.14312853562963
 30
0.0
 11
1105.703428611891
 21
67.65499013425459
 31
0.0
  0
LINE
  5
283
330
1F
100
AcDbEntity
  8
0
100
AcDbLine
 10
-778.1615651694764
 20
-532.274913952209
 30
0.0
 11
-778.16156516948
 21
-544.1230244052222
 31
0.0
  0
LINE
  5
284
330
1F
100
AcDbEntity
  8
0
100
AcDbLine
 10
-778.16156516948
 20
-544.1230244052222
 30
0.0
 11
-778.1615651694831
 21
-553.9027256798184
 31
0.0
  0
LINE
  5
285
330
1F
100
AcDbEntity
  8
0
100
AcDbLine
 10
-753.1615651694857
 20
-562.5900035903355
 30
0.0
 11
-753.5011798263808
 21
-562.7364799845907
 31
0.0
  0
LINE
  5
286
330
1F
100
AcDbEntity
  8
0
100
AcDbLine
 10
-753.5011798263808
 20
-562.7364799845907
 30
0.0
 11
-753.5757787318588
 21
-562.7686546227224
 31
0.0
  0
LINE
  5
287
330
1F
100
AcDbEntity
  8
0
100
AcDbLine
 10
-750.7473516071124
 20
-562.7686546227233
 30
0.0
 11
-750.8219505125903
 21
-562.7364799845916
 31
0.0
  0
LINE
  5
288
330
1F
100
AcDbEntity
  8
0
100
AcDbLine
 10
-750.8219505125903
 20
-562.7364799845916
 30
0.0
 11
-751.1615651694855
 21
-562.5900035903361
 31
0.0
  0
LINE
  5
289
330
1F
100
AcDbEntity
  8
0
100
AcDbLine
 10
-750.6665513924204
 20
-585.300163345279
 30
0.0
 11
-750.8330570564705
 21
-585.2330569181528
 31
0.0
  0
LINE
  5
28A
330
1F
100
AcDbEntity
  8
0
100
AcDbLine
 10
-750.8330570564705
 20
-585.2330569181528
 30
0.0
 11
-751.0613359527836
 21
-585.1081161927981
 31
0.0
  0
LINE
  5
28B
330
1F
100
AcDbEntity
  8
0
100
AcDbLine
 10
-793.2627994487171
 20
-585.1084885833005
 30
0.0
 11
-793.4891732096725
 21
-585.2335062158295
 31
0.0
  0
LINE
  5
28C
330
1F
100
AcDbEntity
  8
0
100
AcDbLine
 10
-793.4891732096725
 20
-585.2335062158295
 30
0.0
 11
-793.6573782900563
 21
-585.3006692612489
 31
0.0
  0
LINE
  5
28D
330
1F
100
AcDbEntity
  8
0
100
AcDbLine
 10
-790.5726342214111
 20
-562.8808436105068
 30
0.0
 11
-790.8287857920415
 21
-562.7363374138432
 31
0.0
  0
LINE
  5
28E
330
1F
100
AcDbEntity
  8
0
100
AcDbLine
 10
-790.8287857920415
 20
-562.7363374138432
 30
0.0
 11
-790.9411421672909
 21
-562.6729523156445
 31
0.0
  0
LINE
  5
28F
330
1F
100
AcDbEntity
  8
0
100
AcDbLine
 10
-793.3761838101509
 20
-562.670448884385
 30
0.0
 11
-793.4943445469306
 21
-562.736622555314
 31
0.0
  0
LINE
  5
290
330
1F
100
AcDbEntity
  8
0
100
AcDbLine
 10
-793.4943445469306
 20
-562.736622555314
 30
0.0
 11
-793.7460422743109
 21
-562.8775810753707
 31
0.0
  0
LINE
  5
291
330
1F
100
AcDbEntity
  8
0
100
AcDbLine
 10
-797.1615651694848
 20
-559.0989825210415
 30
0.0
 11
-780.6615651694849
 21
-559.0989825210467
 31
0.0
  0
LINE
  5
292
330
1F
100
AcDbEntity
  8
0
100
AcDbLine
 10
-278.132590520645
 20
-532.9374945329112
 30
0.0
 11
-278.1325905206486
 21
-544.7856049859242
 31
0.0
  0
LINE
  5
293
330
1F
100
AcDbEntity
  8
0
100
AcDbLine
 10
-278.1325905206486
 20
-544.7856049859242
 30
0.0
 11
-278.1325905206517
 21
-554.5653062605203
 31
0.0
  0
LINE
  5
294
330
1F
100
AcDbEntity
  8
0
100
AcDbLine
 10
-253.1325905206543
 20
-563.2525841710377
 30
0.0
 11
-253.4722051775495
 21
-563.3990605652929
 31
0.0
  0
LINE
  5
295
330
1F
100
AcDbEntity
  8
0
100
AcDbLine
 10
-253.4722051775495
 20
-563.3990605652929
 30
0.0
 11
-253.5468040830274
 21
-563.4312352034245
 31
0.0
  0
LINE
  5
296
330
1F
100
AcDbEntity
  8
0
100
AcDbLine
 10
-250.718376958281
 20
-563.4312352034254
 30
0.0
 11
-250.7929758637589
 21
-563.3990605652938
 31
0.0
  0
LINE
  5
297
330
1F
100
AcDbEntity
  8
0
100
AcDbLine
 10
-250.7929758637589
 20
-563.3990605652938
 30
0.0
 11
-251.132590520654
 21
-563.2525841710383
 31
0.0
  0
LINE
  5
298
330
1F
100
AcDbEntity
  8
0
100
AcDbLine
 10
-250.637576743589
 20
-585.9627439259812
 30
0.0
 11
-250.804082407639
 21
-585.895637498855
 31
0.0
  0
LINE
  5
299
330
1F
100
AcDbEntity
  8
0
100
AcDbLine
 10
-250.804082407639
 20
-585.895637498855
 30
0.0
 11
-251.0323613039522
 21
-585.7706967735003
 31
0.0
  0
LINE
  5
29A
330
1F
100
AcDbEntity
  8
0
100
AcDbLine
 10
-293.2338247998857
 20
-585.7710691640026
 30
0.0
 11
-293.460198560841
 21
-585.8960867965317
 31
0.0
  0
LINE
  5
29B
330
1F
100
AcDbEntity
  8
0
100
AcDbLine
 10
-293.460198560841
 20
-585.8960867965317
 30
0.0
 11
-293.6284036412248
 21
-585.9632498419511
 31
0.0
  0
LINE
  5
29C
330
1F
100
AcDbEntity
  8
0
100
AcDbLine
 10
-290.5436595725797
 20
-563.5434241912089
 30
0.0
 11
-290.7998111432101
 21
-563.3989179945454
 31
0.0
  0
LINE
  5
29D
330
1F
100
AcDbEntity
  8
0
100
AcDbLine
 10
-290.7998111432101
 20
-563.3989179945454
 30
0.0
 11
-290.9121675184594
 21
-563.3355328963466
 31
0.0
  0
LINE
  5
29E
330
1F
100
AcDbEntity
  8
0
100
AcDbLine
 10
-293.3472091613195
 20
-563.3330294650872
 30
0.0
 11
-293.4653698980992
 21
-563.3992031360162
 31
0.0
  0
LINE
  5
29F
330
1F
100
AcDbEntity
  8
0
100
AcDbLine
 10
-293.4653698980992
 20
-563.3992031360162
 30
0.0
 11
-293.7170676254794
 21
-563.5401616560729
 31
0.0
  0
LINE
  5
2A0
330
1F
100
AcDbEntity
  8
0
100
AcDbLine
 10
-297.1325905206533
 20
-559.7615631017437
 30
0.0
 11
-280.6325905206534
 21
-559.7615631017488
 31
0.0
  0
LINE
  5
2A1
330
1F
100
AcDbEntity
  8
0
100
AcDbLine
 10
1207.871543277395
 20
-321.5768526295348
 30
0.0
 11
1211.390785160107
 21
-332.9456862515037
 31
0.0
  0
LINE
  5
2A2
330
1F
100
AcDbEntity
  8
0
100
AcDbLine
 10
1211.390785160107
 20
-332.9456862515037
 30
0.0
 11
1212.221473357191
 21
-335.6292062308406
 31
0.0
  0
LINE
  5
2A3
330
1F
100
AcDbEntity
  8
0
100
AcDbLine
 10
1252.632023190531
 20
-361.3414716092079
 30
0.0
 11
1244.553887552575
 21
-363.8420723055175
 31
0.0
  0
LINE
  5
2A4
330
1F
100
AcDbEntity
  8
0
100
AcDbLine
 10
1244.553887552575
 20
-363.8420723055175
 30
0.0
 11
1204.868105084416
 21
-376.1268741114173
 31
0.0
  0
LINE
  5
2A5
330
1F
100
AcDbEntity
  8
0
100
AcDbLine
 10
1235.337757459652
 20
-351.1258625277125
 30
0.0
 11
1248.234015348302
 21
-347.133803852116
 31
0.0
  0
LINE
  5
2A6
330
1F
100
AcDbEntity
  8
0
100
AcDbLine
 10
-1622.234450882051
 20
-313.1288058748133
 30
0.0
 11
-1625.832975790089
 21
-324.4727937027009
 31
0.0
  0
LINE
  5
2A7
330
1F
100
AcDbEntity
  8
0
100
AcDbLine
 10
-1625.832975790089
 20
-324.4727937027009
 30
0.0
 11
-1626.68237809537
 21
-327.1504490360206
 31
0.0
  0
LINE
  5
2A8
330
1F
100
AcDbEntity
  8
0
100
AcDbLine
 10
-1604.260671446746
 20
-358.9917095620104
 30
0.0
 11
-1604.600764542624
 21
-360.0638188397229
 31
0.0
  0
LINE
  5
2A9
330
1F
100
AcDbEntity
  8
0
100
AcDbLine
 10
-1608.173625766296
 20
-371.3269044839342
 30
0.0
 11
-1643.843352582492
 21
-360.0118006281763
 31
0.0
  0
LINE
  5
2AA
330
1F
100
AcDbEntity
  8
0
100
AcDbLine
 10
-1643.843352582492
 20
-360.0118006281763
 30
0.0
 11
-1655.833159155982
 21
-356.2084099465328
 31
0.0
  0
LINE
  5
2AB
330
1F
100
AcDbEntity
  8
0
100
AcDbLine
 10
-1616.54461168883
 20
-353.0682930701122
 30
0.0
 11
-1603.676537673615
 21
-357.1502865952106
 31
0.0
  0
LINE
  5
2AC
330
1F
100
AcDbEntity
  8
0
100
AcDbLine
 10
257.7433534190914
 20
34.30081881892882
 30
0.0
 11
537.7433824314288
 21
34.30094973052825
 31
0.0
  0
LINE
  5
2AD
330
1F
100
AcDbEntity
  8
0
100
AcDbLine
 10
537.7433824314288
 20
34.30094973052825
 30
0.0
 11
557.7433297990256
 21
34.30096219880271
 31
0.0
  0
LINE
  5
2AE
330
1F
100
AcDbEntity
  8
0
100
AcDbLine
 10
-240.2706972809061
 20
-108.8437737582632
 30
0.0
 11
-240.6403767572531
 21
-381.8453295889427
 31
0.0
  0
LINE
  5
2AF
330
1F
100
AcDbEntity
  8
0
100
AcDbLine
 10
-240.6403767572531
 20
-381.8453295889427
 30
0.0
 11
-240.6404133986676
 21
-381.8726092007225
 31
0.0
  0
LINE
  5
2B0
330
1F
100
AcDbEntity
  8
0
100
AcDbLine
 10
-614.6325905203132
 20
69.93667386788728
 30
0.0
 11
-613.6882041435737
 21
69.93575544039824
 31
0.0
  0
LINE
  5
2B1
330
1F
100
AcDbEntity
  8
0
100
AcDbLine
 10
-280.6325905204582
 20
69.46710205859158
 30
0.0
 11
-260.6325905203095
 21
69.46710205873481
 31
0.0
  0
LINE
  5
2B2
330
1F
100
AcDbEntity
  8
0
100
AcDbLine
 10
-240.6662361725591
 20
-108.8176995904488
 30
0.0
 11
-240.6403767572531
 21
-381.8453295889427
 31
0.0
  0
LINE
  5
2B3
330
1F
100
AcDbEntity
  8
0
100
AcDbLine
 10
1054.628165052393
 20
-110.5602851179074
 30
0.0
 11
1054.292759609164
 21
-363.589866930398
 31
0.0
  0
LINE
  5
2B4
330
1F
100
AcDbEntity
  8
0
100
AcDbLine
 10
1054.292759609164
 20
-363.589866930398
 30
0.0
 11
1054.266248457636
 21
-383.5898570784918
 31
0.0
  0
LINE
  5
2B5
330
1F
100
AcDbEntity
  8
0
100
AcDbLine
 10
1105.703428611891
 20
67.65499013425459
 30
0.0
 11
1084.758528425271
 21
67.68275381904161
 31
0.0
  0
LINE
  5
2B6
330
1F
100
AcDbEntity
  8
0
100
AcDbLine
 10
1084.758528425271
 20
67.68275381904161
 30
0.0
 11
1054.864475462744
 21
67.72238012692864
 31
0.0
  0
LINE
  5
2B7
330
1F
100
AcDbEntity
  8
0
100
AcDbLine
 10
-780.6615651694849
 20
-559.0989825210467
 30
0.0
 11
-779.6615651694851
 21
-559.0989825210469
 31
0.0
  0
LINE
  5
2B8
330
1F
100
AcDbEntity
  8
0
100
AcDbLine
 10
-280.6325905206534
 20
-559.7615631017488
 30
0.0
 11
-279.6325905206537
 21
-559.7615631017491
 31
0.0
  0
LINE
  5
2B9
330
1F
100
AcDbEntity
  8
0
100
AcDbLine
 10
1084.758528425271
 20
67.68275381904161
 30
0.0
 11
1085.579491814385
 21
65.0306496183005
 31
0.0
  0
LINE
  5
2BA
330
1F
100
AcDbEntity
  8
0
100
AcDbLine
 10
1232.949561554345
 20
-351.865132652823
 30
0.0
 11
1235.337757459652
 21
-351.1258625277125
 31
0.0
  0
LINE
  5
2BB
330
1F
100
AcDbEntity
  8
0
100
AcDbLine
 10
-1618.927588358314
 20
-352.3123683432421
 30
0.0
 11
-1616.54461168883
 21
-353.0682930701122
 31
0.0
  0
LINE
  5
2BC
330
1F
100
AcDbEntity
  8
0
100
AcDbLine
 10
-220.0343915082393
 20
69.41161046072459
 30
0.0
 11
240.2433117688128
 21
68.80170995990504
 31
0.0
  0
LINE
  5
2BD
330
1F
100
AcDbEntity
  8
0
100
AcDbLine
 10
240.2433117688128
 20
68.80170995990504
 30
0.0
 11
255.2432969102164
 21
68.78183391901734
 31
0.0
  0
LINE
  5
2BE
330
1F
100
AcDbEntity
  8
0
100
AcDbLine
 10
-1481.995215695815
 20
71.08514463013279
 30
0.0
 11
-845.8185058284827
 21
70.24011105602142
 31
0.0
  0
LINE
  5
2BF
330
1F
100
AcDbEntity
  8
0
100
AcDbLine
 10
-594.6662361725595
 20
-108.8176995928408
 30
0.0
 11
-594.6325905203162
 21
-361.8453295913348
 31
0.0
  0
LINE
  5
2C0
330
1F
100
AcDbEntity
  8
0
100
AcDbLine
 10
-760.6615651694851
 20
-559.0989825210529
 30
0.0
 11
-747.1615651694846
 21
-559.098982521057
 31
0.0
  0
LINE
  5
2C1
330
1F
100
AcDbEntity
  8
0
100
AcDbLine
 10
-260.6325905206537
 20
-559.7615631017551
 30
0.0
 11
-247.1325905206531
 21
-559.7615631017592
 31
0.0
  0
LINE
  5
2C2
330
1F
100
AcDbEntity
  8
0
100
AcDbLine
 10
1200.470097242187
 20
-361.9192063543254
 30
0.0
 11
1216.232190217205
 21
-357.0400235285962
 31
0.0
  0
LINE
  5
2C3
330
1F
100
AcDbEntity
  8
0
100
AcDbLine
 10
-1651.336071063301
 20
-342.0317920578092
 30
0.0
 11
-1635.608425044704
 21
-347.0208952551517
 31
0.0
  0
LINE
  5
2C4
330
1F
100
AcDbEntity
  8
0
100
AcDbLine
 10
-845.8185058284827
 20
70.24011105602142
 30
0.0
 11
-780.6615651692896
 21
70.15468110291961
 31
0.0
  0
LINE
  5
2C5
330
1F
100
AcDbEntity
  8
0
100
AcDbLine
 10
-780.6615651692896
 20
70.15468110291961
 30
0.0
 11
-760.6615651692898
 21
70.12845827777224
 31
0.0
  0
LINE
  5
2C6
330
1F
100
AcDbEntity
  8
0
100
AcDbLine
 10
-1502.968539284458
 20
71.11300349751708
 30
0.0
 11
-1481.995215695815
 21
71.08514463013279
 31
0.0
  0
LINE
  5
2C7
330
1F
100
AcDbEntity
  8
0
100
AcDbLine
 10
-763.1615651694852
 20
-559.098982521052
 30
0.0
 11
-760.6615651694851
 21
-559.0989825210529
 31
0.0
  0
LINE
  5
2C8
330
1F
100
AcDbEntity
  8
0
100
AcDbLine
 10
-263.1325905206538
 20
-559.7615631017542
 30
0.0
 11
-260.6325905206537
 21
-559.7615631017551
 31
0.0
  0
LINE
  5
2C9
330
1F
100
AcDbEntity
  8
0
100
AcDbLine
 10
1231.516644011162
 20
-352.3086947278892
 30
0.0
 11
1232.949561554345
 21
-351.865132652823
 31
0.0
  0
LINE
  5
2CA
330
1F
100
AcDbEntity
  8
0
100
AcDbLine
 10
-1635.608425044704
 20
-347.0208952551517
 30
0.0
 11
-1634.655234376911
 21
-347.3232651458995
 31
0.0
  0
LINE
  5
2CB
330
1F
100
AcDbEntity
  8
0
100
AcDbLine
 10
255.2432969102164
 20
68.78183391901734
 30
0.0
 11
537.787977725946
 21
68.40744223958876
 31
0.0
  0
LINE
  5
2CC
330
1F
100
AcDbEntity
  8
0
100
AcDbLine
 10
-779.6615651694851
 20
-559.0989825210469
 30
0.0
 11
-764.6615651694842
 21
-559.0989825210517
 31
0.0
  0
LINE
  5
2CD
330
1F
100
AcDbEntity
  8
0
100
AcDbLine
 10
-764.6615651694842
 20
-559.0989825210517
 30
0.0
 11
-763.1615651694852
 21
-559.098982521052
 31
0.0
  0
LINE
  5
2CE
330
1F
100
AcDbEntity
  8
0
100
AcDbLine
 10
-279.6325905206537
 20
-559.7615631017491
 30
0.0
 11
-264.6325905206527
 21
-559.7615631017537
 31
0.0
  0
LINE
  5
2CF
330
1F
100
AcDbEntity
  8
0
100
AcDbLine
 10
-264.6325905206527
 20
-559.7615631017537
 30
0.0
 11
-263.1325905206538
 21
-559.7615631017542
 31
0.0
  0
LINE
  5
2D0
330
1F
100
AcDbEntity
  8
0
100
AcDbLine
 10
1216.232190217205
 20
-357.0400235285962
 30
0.0
 11
1217.187468579327
 21
-356.7443154785522
 31
0.0
  0
LINE
  5
2D1
330
1F
100
AcDbEntity
  8
0
100
AcDbLine
 10
1217.187468579327
 20
-356.7443154785522
 30
0.0
 11
1231.516644011162
 21
-352.3086947278892
 31
0.0
  0
LINE
  5
2D2
330
1F
100
AcDbEntity
  8
0
100
AcDbLine
 10
-1634.655234376911
 20
-347.3232651458995
 30
0.0
 11
-1620.357374360004
 21
-351.8588135071203
 31
0.0
  0
LINE
  5
2D3
330
1F
100
AcDbEntity
  8
0
100
AcDbLine
 10
-1620.357374360004
 20
-351.8588135071203
 30
0.0
 11
-1618.927588358314
 21
-352.3123683432421
 31
0.0
  0
LINE
  5
2D4
330
1F
100
AcDbEntity
  8
0
100
AcDbLine
 10
1015.564523821983
 20
67.7743545347767
 30
0.0
 11
1034.864493029014
 21
67.74888768204146
 31
0.0
  0
LINE
  5
2D5
330
1F
100
AcDbEntity
  8
0
100
AcDbLine
 10
-780.6615651692896
 20
70.15468110291961
 30
0.0
 11
-780.6615651694235
 21
-361.155995623044
 31
0.0
  0
LINE
  5
2D6
330
1F
100
AcDbEntity
  8
0
100
AcDbLine
 10
-780.6615651694235
 20
-361.155995623044
 30
0.0
 11
-780.6615651694299
 21
-381.1560131939898
 31
0.0
  0
LINE
  5
2D7
330
1F
100
AcDbEntity
  8
0
100
AcDbLine
 10
-280.6325905204582
 20
69.46710205859158
 30
0.0
 11
-280.632590520592
 21
-361.8453295890861
 31
0.0
  0
LINE
  5
2D8
330
1F
100
AcDbEntity
  8
0
100
AcDbLine
 10
-280.632590520592
 20
-361.8453295890861
 30
0.0
 11
-280.6325905205982
 21
-381.8453295890858
 31
0.0
  0
LINE
  5
2D9
330
1F
100
AcDbEntity
  8
0
100
AcDbLine
 10
1106.524392001005
 20
65.00288593351348
 30
0.0
 11
1105.703428611891
 21
67.65499013425459
 31
0.0
  0
LINE
  5
2DA
330
1F
100
AcDbEntity
  8
0
100
AcDbLine
 10
-760.6615651694299
 20
-381.182524295395
 30
0.0
 11
-760.6615651694235
 21
-361.1825067244494
 31
0.0
  0
LINE
  5
2DB
330
1F
100
AcDbEntity
  8
0
100
AcDbLine
 10
-760.6615651694235
 20
-361.1825067244494
 30
0.0
 11
-760.6615651692898
 21
70.12845827777224
 31
0.0
  0
LINE
  5
2DC
330
1F
100
AcDbEntity
  8
0
100
AcDbLine
 10
-260.628725991628
 20
-80.50693528991401
 30
0.0
 11
-260.6325905203095
 21
69.46710205873481
 31
0.0
  0
LINE
  5
2DD
330
1F
100
AcDbEntity
  8
0
100
AcDbLine
 10
240.2427943178106
 20
68.40596330272835
 30
0.0
 11
255.2451100937041
 21
68.38664873799001
 31
0.0
  0
LINE
  5
2DE
330
1F
100
AcDbEntity
  8
0
100
AcDbLine
 10
1015.564523821983
 20
67.7743545347767
 30
0.0
 11
557.7879611573654
 21
68.38296371198439
 31
0.0
  0
LINE
  5
2DF
330
1F
100
AcDbEntity
  8
0
100
AcDbLine
 10
1035.328182639286
 20
-110.5347021963702
 30
0.0
 11
1035.564508058717
 21
67.74785314156229
 31
0.0
  0
LINE
  5
2E0
330
1F
100
AcDbEntity
  8
0
100
AcDbLine
 10
1054.8609750608
 20
65.07138651814306
 30
0.0
 11
1054.628165052393
 21
-110.5602851179074
 31
0.0
  0
LINE
  5
2E1
330
1F
100
AcDbEntity
  8
0
100
AcDbLine
 10
557.7433043058326
 20
14.30076278151194
 30
0.0
 11
237.7433043058325
 21
14.30076269868993
 31
0.0
  0
LINE
  5
2E2
330
1F
100
AcDbEntity
  8
0
100
AcDbLine
 10
237.7433380126445
 20
34.30081258558987
 30
0.0
 11
237.7879361117214
 21
68.40948027457188
 31
0.0
  0
LINE
  5
2E3
330
1F
100
AcDbEntity
  8
0
100
AcDbLine
 10
257.7433534190914
 20
34.30081881892882
 30
0.0
 11
257.7879173546011
 21
68.38332310252017
 31
0.0
  0
LINE
  5
2E4
330
1F
100
AcDbEntity
  8
0
100
AcDbLine
 10
557.7433297990256
 20
34.30096219880271
 30
0.0
 11
557.7879611573654
 21
68.38296371198439
 31
0.0
  0
LINE
  5
2E5
330
1F
100
AcDbEntity
  8
0
100
AcDbLine
 10
-240.0078589313407
 20
89.43881782947723
 30
0.0
 11
1034.891020026762
 21
87.75052570572298
 31
0.0
  0
LINE
  5
2E6
330
1F
100
AcDbEntity
  8
0
100
AcDbLine
 10
1035.564508201468
 20
87.74798036340621
 30
0.0
 11
1054.891002421901
 21
87.72401534407123
 31
0.0
  0
LINE
  5
2E7
330
1F
100
AcDbEntity
  8
0
100
AcDbLine
 10
1035.328182639286
 20
-110.5347021963702
 30
0.0
 11
1034.992780488626
 21
-383.5627655318096
 31
0.0
  0
LINE
  5
2E8
330
1F
100
AcDbEntity
  8
0
100
AcDbLine
 10
-240.034370383888
 20
69.43811184683523
 30
0.0
 11
-240.2706972809061
 21
-108.8437737582632
 31
0.0
  0
LINE
  5
2E9
330
1F
100
AcDbEntity
  8
0
100
AcDbLine
 10
-220.0343915082393
 20
69.41161046072459
 30
0.0
 11
-220.2707151239587
 21
-108.8702897447639
 31
0.0
  0
LINE
  5
2EA
330
1F
100
AcDbEntity
  8
0
100
AcDbLine
 10
-633.6954534839622
 20
69.96087123257374
 30
0.0
 11
-633.9317774894872
 21
-108.3221866131314
 31
0.0
  0
LINE
  5
2EB
330
1F
100
AcDbEntity
  8
0
100
AcDbLine
 10
-1928.143889731941
 20
71.67775271198812
 30
0.0
 11
-1928.38021515545
 21
-106.6063691266963
 31
0.0
  0
LINE
  5
2EC
330
1F
100
AcDbEntity
  8
0
100
AcDbLine
 10
-1908.38023300175
 20
-106.6328798064847
 30
0.0
 11
-1908.143907658162
 21
71.65119797142383
 31
0.0
  0
LINE
  5
2ED
330
1F
100
AcDbEntity
  8
0
100
AcDbLine
 10
-613.6623142561588
 20
89.46710205634254
 30
0.0
 11
-613.6616931180736
 21
89.93569869758724
 31
0.0
  0
LINE
  5
2EE
330
1F
100
AcDbEntity
  8
0
100
AcDbLine
 10
-1928.117378923893
 20
91.67774637860632
 30
0.0
 11
-845.7919947503681
 21
90.2400934850723
 31
0.0
  0
LINE
  5
2EF
330
1F
100
AcDbEntity
  8
0
100
AcDbLine
 10
-1908.143907658162
 20
71.65119797142383
 30
0.0
 11
-1502.968539284458
 21
71.11300349751708
 31
0.0
  0
LINE
  5
2F0
330
1F
100
AcDbEntity
  8
0
100
AcDbLine
 10
-633.6954534839622
 20
69.96087123257374
 30
0.0
 11
-760.6615651692898
 21
70.12845827777224
 31
0.0
  0
LINE
  5
2F1
330
1F
100
AcDbEntity
  8
0
100
AcDbLine
 10
-260.6325905203095
 20
-381.8453295889427
 30
0.0
 11
-260.6325905205138
 21
-108.791233079257
 31
0.0
  0
LINE
  5
2F2
330
1F
100
AcDbEntity
  8
0
100
AcDbLine
 10
-594.63259052031
 20
69.46710205634291
 30
0.0
 11
-614.4299271710804
 21
69.46710205634422
 31
0.0
  0
LINE
  5
2F3
330
1F
100
AcDbEntity
  8
0
100
AcDbLine
 10
-594.6662361725595
 20
-108.8176995928408
 30
0.0
 11
-594.429910771754
 21
69.46642362770872
 31
0.0
  0
LINE
  5
2F4
330
1F
100
AcDbEntity
  8
0
100
AcDbLine
 10
-260.628725991628
 20
-80.50693528991401
 30
0.0
 11
-260.6325905205138
 21
-108.791233079257
 31
0.0
  0
LINE
  5
2F5
330
1F
100
AcDbEntity
  8
0
100
AcDbLine
 10
-240.6325905204462
 20
69.46710205887811
 30
0.0
 11
-260.4299271460094
 21
69.46710205873627
 31
0.0
  0
LINE
  5
2F6
330
1F
100
AcDbEntity
  8
0
100
AcDbLine
 10
-240.6662361725591
 20
-108.8176995904488
 30
0.0
 11
-240.4299107717536
 21
69.46642363010078
 31
0.0
  0
LINE
  5
2F7
330
1F
100
AcDbEntity
  8
0
100
AcDbLine
 10
-240.6325905204519
 20
89.4671020587346
 30
0.0
 11
-240.6325905204462
 21
69.46710205887811
 31
0.0
  0
LINE
  5
2F8
330
1F
100
AcDbEntity
  8
0
100
AcDbLine
 10
1015.564523821983
 20
67.7743545347767
 30
0.0
 11
1015.328200278615
 21
-110.5082605683527
 31
0.0
  0
LINE
  5
2F9
330
1F
100
AcDbEntity
  8
0
100
AcDbLine
 10
1491.890618475201
 20
87.14476655931115
 30
0.0
 11
1491.864091477454
 21
67.14312853562963
 31
0.0
  0
LINE
  5
2FA
330
1F
100
AcDbEntity
  8
0
100
AcDbLine
 10
1491.860575791891
 20
64.49210038435915
 30
0.0
 11
1491.627774853995
 21
-111.1394172586452
 31
0.0
  0
LINE
  5
2FB
330
1F
100
AcDbEntity
  8
0
100
AcDbLine
 10
1511.864072835524
 20
67.11826003977797
 30
0.0
 11
1511.627764079295
 21
-111.1659283547346
 31
0.0
  0
LINE
  5
2FC
330
1F
100
AcDbEntity
  8
0
100
AcDbLine
 10
-760.6615651694299
 20
-381.182524295395
 30
0.0
 11
-760.6615651694851
 21
-559.0989825210529
 31
0.0
  0
LINE
  5
2FD
330
1F
100
AcDbEntity
  8
0
100
AcDbLine
 10
-780.6615651694299
 20
-381.1560131939898
 30
0.0
 11
-780.6615651694849
 21
-559.0989825210467
 31
0.0
  0
LINE
  5
2FE
330
1F
100
AcDbEntity
  8
0
100
AcDbLine
 10
-763.1615651694768
 20
-532.2749139522136
 30
0.0
 11
-763.1615651694852
 21
-559.098982521052
 31
0.0
  0
LINE
  5
2FF
330
1F
100
AcDbEntity
  8
0
100
AcDbLine
 10
-845.7919947503681
 20
90.2400934850723
 30
0.0
 11
-613.6616931180736
 21
89.93569869758724
 31
0.0
  0
LINE
  5
300
330
1F
100
AcDbEntity
  8
0
100
AcDbLine
 10
-752.0438278853367
 20
-584.9246785173173
 30
0.0
 11
-752.5645800559671
 21
-584.9457889687557
 31
0.0
  0
LINE
  5
301
330
1F
100
AcDbEntity
  8
0
100
AcDbLine
 10
-790.1651049205857
 20
-585.9800420644947
 30
0.0
 11
-790.2023489876813
 21
-586.2727608567134
 31
0.0
  0
LINE
  5
302
330
1F
100
AcDbEntity
  8
0
100
AcDbLine
 10
-754.1580966448064
 20
-585.9807175025716
 30
0.0
 11
-754.1205391359564
 21
-586.2734236416636
 31
0.0
  0
LINE
  5
303
330
1F
100
AcDbEntity
  8
0
100
AcDbLine
 10
-792.2805041224626
 20
-584.9247185524843
 30
0.0
 11
-791.7597294407104
 21
-584.945652823522
 31
0.0
  0
LINE
  5
304
330
1F
100
AcDbEntity
  8
0
100
AcDbLine
 10
-792.4262439403384
 20
-564.6778396640332
 30
0.0
 11
-791.9041400447978
 21
-564.6783764315322
 31
0.0
  0
LINE
  5
305
330
1F
100
AcDbEntity
  8
0
100
AcDbLine
 10
-791.9041400447973
 20
-563.0242152829835
 30
0.0
 11
-792.4262439403378
 21
-563.0236785154844
 31
0.0
  0
LINE
  5
306
330
1F
100
AcDbEntity
  8
0
100
AcDbLine
 10
-790.1782012832618
 20
-563.4188661752606
 30
0.0
 11
-790.179156243896
 21
-563.7123320964197
 31
0.0
  0
LINE
  5
307
330
1F
100
AcDbEntity
  8
0
100
AcDbLine
 10
-747.1615651694938
 20
-588.8573125622121
 30
0.0
 11
-747.161565169485
 21
-560.7531436696064
 31
0.0
  0
LINE
  5
308
330
1F
100
AcDbEntity
  8
0
100
AcDbLine
 10
-764.6615651694794
 20
-544.1230244052264
 30
0.0
 11
-764.6615651694842
 21
-559.0989825210517
 31
0.0
  0
LINE
  5
309
330
1F
100
AcDbEntity
  8
0
100
AcDbLine
 10
-260.6325905203095
 20
-381.8453295889427
 30
0.0
 11
-260.6325905206537
 21
-559.7615631017551
 31
0.0
  0
LINE
  5
30A
330
1F
100
AcDbEntity
  8
0
100
AcDbLine
 10
-280.6325905205982
 20
-381.8453295890858
 30
0.0
 11
-280.6325905206534
 21
-559.7615631017488
 31
0.0
  0
LINE
  5
30B
330
1F
100
AcDbEntity
  8
0
100
AcDbLine
 10
-263.1325905206455
 20
-532.9374945329158
 30
0.0
 11
-263.1325905206538
 21
-559.7615631017542
 31
0.0
  0
LINE
  5
30C
330
1F
100
AcDbEntity
  8
0
100
AcDbLine
 10
-260.632590520452
 20
89.4671020587346
 30
0.0
 11
-594.6325905204526
 21
89.4671020563427
 31
0.0
  0
LINE
  5
30D
330
1F
100
AcDbEntity
  8
0
100
AcDbLine
 10
-252.0148532365054
 20
-585.5872590980194
 30
0.0
 11
-252.5356054071356
 21
-585.6083695494578
 31
0.0
  0
LINE
  5
30E
330
1F
100
AcDbEntity
  8
0
100
AcDbLine
 10
-290.1361302717543
 20
-586.6426226451969
 30
0.0
 11
-290.1733743388499
 21
-586.9353414374156
 31
0.0
  0
LINE
  5
30F
330
1F
100
AcDbEntity
  8
0
100
AcDbLine
 10
-254.129121995975
 20
-586.6432980832737
 30
0.0
 11
-254.091564487125
 21
-586.9360042223658
 31
0.0
  0
LINE
  5
310
330
1F
100
AcDbEntity
  8
0
100
AcDbLine
 10
-292.2515294736312
 20
-585.5872991331864
 30
0.0
 11
-291.730754791879
 21
-585.608233404224
 31
0.0
  0
LINE
  5
311
330
1F
100
AcDbEntity
  8
0
100
AcDbLine
 10
-292.397269291507
 20
-565.3404202447354
 30
0.0
 11
-291.8751653959664
 21
-565.3409570122344
 31
0.0
  0
LINE
  5
312
330
1F
100
AcDbEntity
  8
0
100
AcDbLine
 10
-291.8751653959659
 20
-563.6867958636857
 30
0.0
 11
-292.3972692915064
 21
-563.6862590961865
 31
0.0
  0
LINE
  5
313
330
1F
100
AcDbEntity
  8
0
100
AcDbLine
 10
-290.1492266344304
 20
-564.0814467559284
 30
0.0
 11
-290.1501815950646
 21
-564.3749126771219
 31
0.0
  0
LINE
  5
314
330
1F
100
AcDbEntity
  8
0
100
AcDbLine
 10
-247.1325905206623
 20
-589.5198931429142
 30
0.0
 11
-247.1325905206537
 21
-561.4157242503086
 31
0.0
  0
LINE
  5
315
330
1F
100
AcDbEntity
  8
0
100
AcDbLine
 10
-264.6325905206481
 20
-544.7856049859286
 30
0.0
 11
-264.6325905206527
 21
-559.7615631017537
 31
0.0
  0
LINE
  5
316
330
1F
100
AcDbEntity
  8
0
100
AcDbLine
 10
1106.524392001005
 20
65.00288593351348
 30
0.0
 11
1235.337757459652
 21
-351.1258625277125
 31
0.0
  0
LINE
  5
317
330
1F
100
AcDbEntity
  8
0
100
AcDbLine
 10
1085.579491814385
 20
65.0306496183005
 30
0.0
 11
1216.232190217205
 21
-357.0400235285962
 31
0.0
  0
LINE
  5
318
330
1F
100
AcDbEntity
  8
0
100
AcDbLine
 10
1222.200718709229
 20
-317.1412318788718
 30
0.0
 11
1232.949561554345
 21
-351.865132652823
 31
0.0
  0
LINE
  5
319
330
1F
100
AcDbEntity
  8
0
100
AcDbLine
 10
1247.432624597003
 20
-361.0553439350035
 30
0.0
 11
1246.938035775622
 21
-361.2186204214245
 31
0.0
  0
LINE
  5
31A
330
1F
100
AcDbEntity
  8
0
100
AcDbLine
 10
1211.159894818024
 20
-372.7923363562867
 30
0.0
 11
1211.164173791855
 21
-372.9321082637543
 31
0.0
  0
LINE
  5
31B
330
1F
100
AcDbEntity
  8
0
100
AcDbLine
 10
1245.556702678207
 20
-362.1450712568158
 30
0.0
 11
1245.632436256106
 21
-362.2627181703756
 31
0.0
  0
LINE
  5
31C
330
1F
100
AcDbEntity
  8
0
100
AcDbLine
 10
1208.99540387526
 20
-372.9536706156616
 30
0.0
 11
1209.495739130304
 21
-372.8088817308292
 31
0.0
  0
LINE
  5
31D
330
1F
100
AcDbEntity
  8
0
100
AcDbLine
 10
1206.099309030556
 20
-364.0907501725887
 30
0.0
 11
1206.598136672538
 21
-363.9365959562279
 31
0.0
  0
LINE
  5
31E
330
1F
100
AcDbEntity
  8
0
100
AcDbLine
 10
1208.075390118621
 20
-362.8721998091415
 30
0.0
 11
1208.114437021839
 21
-363.0015693761426
 31
0.0
  0
LINE
  5
31F
330
1F
100
AcDbEntity
  8
0
100
AcDbLine
 10
1252.632023190531
 20
-361.3414716092079
 30
0.0
 11
1248.805279433461
 21
-348.9792599346546
 31
0.0
  0
LINE
  5
320
330
1F
100
AcDbEntity
  8
0
100
AcDbLine
 10
1231.516644011162
 20
-352.3086947278892
 30
0.0
 11
1224.287043048758
 21
-328.9536275759073
 31
0.0
  0
LINE
  5
321
330
1F
100
AcDbEntity
  8
0
100
AcDbLine
 10
-1481.995215695815
 20
71.08514463013279
 30
0.0
 11
-1616.54461168883
 21
-353.0682930701122
 31
0.0
  0
LINE
  5
322
330
1F
100
AcDbEntity
  8
0
100
AcDbLine
 10
-1502.968539284458
 20
71.11300349751708
 30
0.0
 11
-1635.608425044704
 21
-347.0208952551517
 31
0.0
  0
LINE
  5
323
330
1F
100
AcDbEntity
  8
0
100
AcDbLine
 10
-1607.936590865145
 20
-317.6643542360331
 30
0.0
 11
-1618.927588358314
 21
-352.3123683432421
 31
0.0
  0
LINE
  5
324
330
1F
100
AcDbEntity
  8
0
100
AcDbLine
 10
-1612.279810863592
 20
-368.1245836494337
 30
0.0
 11
-1612.7791261892
 21
-367.9763894563426
 31
0.0
  0
LINE
  5
325
330
1F
100
AcDbEntity
  8
0
100
AcDbLine
 10
-1648.763595053383
 20
-357.0610666720516
 30
0.0
 11
-1648.839851101378
 21
-357.1782823317491
 31
0.0
  0
LINE
  5
326
330
1F
100
AcDbEntity
  8
0
100
AcDbLine
 10
-1614.442144831243
 20
-367.9487982869432
 30
0.0
 11
-1614.447098953411
 21
-368.0886261374059
 31
0.0
  0
LINE
  5
327
330
1F
100
AcDbEntity
  8
0
100
AcDbLine
 10
-1650.633040729971
 20
-355.9582418233825
 30
0.0
 11
-1650.139557849966
 21
-356.1248966635543
 31
0.0
  0
LINE
  5
328
330
1F
100
AcDbEntity
  8
0
100
AcDbLine
 10
-1647.952977775128
 20
-347.0276210897582
 30
0.0
 11
-1647.455387948627
 21
-347.1857251801233
 31
0.0
  0
LINE
  5
329
330
1F
100
AcDbEntity
  8
0
100
AcDbLine
 10
-1645.634877127159
 20
-347.1547857103176
 30
0.0
 11
-1645.676646760589
 21
-347.2833020253933
 31
0.0
  0
LINE
  5
32A
330
1F
100
AcDbEntity
  8
0
100
AcDbLine
 10
-1608.173625766296
 20
-371.3269044839342
 30
0.0
 11
-1604.600764542624
 21
-360.0638188397229
 31
0.0
  0
LINE
  5
32B
330
1F
100
AcDbEntity
  8
0
100
AcDbLine
 10
-1620.357374360004
 20
-351.8588135071203
 30
0.0
 11
-1612.964901774874
 21
-328.5547872277993
 31
0.0
  0
LINE
  5
32C
330
1F
100
AcDbEntity
  8
0
100
AcDbLine
 10
1034.266267211475
 20
-383.5617960628131
 30
0.0
 11
1034.992780488626
 21
-383.5627655318096
 31
0.0
  0
LINE
  5
32D
330
1F
100
AcDbEntity
  8
0
100
AcDbLine
 10
537.787977725946
 20
68.40744223958876
 30
0.0
 11
537.7433824314288
 21
34.30094973052825
 31
0.0
  0
LINE
  5
32E
330
1F
100
AcDbEntity
  8
0
100
AcDbLine
 10
785.5656296161118
 20
34.30052412985216
 30
0.0
 11
785.5656291398576
 21
34.27503330093636
 31
0.0
  0
LINE
  5
32F
330
1F
100
AcDbEntity
  8
0
100
AcDbLine
 10
785.5656291398578
 20
34.30075188334136
 30
0.0
 11
785.5656291398576
 21
34.27503359895136
 31
0.0
  0
LINE
  5
330
330
1F
100
AcDbEntity
  8
0
100
AcDbLine
 10
-633.6882238753336
 20
69.93412552596912
 30
0.0
 11
-633.6881882313731
 21
69.9610153925623
 31
0.0
  0
LINE
  5
331
330
1F
100
AcDbEntity
  8
0
100
AcDbLine
 10
1282.982871643351
 20
-383.893064898587
 30
0.0
 11
1311.266005859481
 21
-383.9314893377837
 31
0.0
  0
LINE
  5
332
330
1F
100
AcDbEntity
  8
0
100
AcDbLine
 10
1311.266005859481
 20
-383.9314893377837
 30
0.0
 11
1331.293216948589
 21
-363.957051783167
 31
0.0
  0
ENDSEC
  0
SECTION
  2
OBJECTS
  0
DICTIONARY
  5
C
330
0
100
AcDbDictionary
  3
ACAD_GROUP
350
D
  3
ACAD_LAYOUT
350
1A
  3
ACAD_MATERIAL
350
43
  3
ACAD_MLEADERSTYLE
350
6B
  3
ACAD_MLINESTYLE
350
17
  3
ACAD_PLOTSETTINGS
350
19
  3
ACAD_SCALELIST
350
47
  3
ACAD_VISUALSTYLE
350
2A
  3
ACDBHEADERROUNDTRIPXREC
350
333
  3
ACDBVARIABLEDICTIONARY
350
354
  0
DICTIONARY
  5
35B
330
8
100
AcDbDictionary
280
     1
  3
ACAD_XREC_ROUNDTRIP
360
35C
  0
DICTIONARY
  5
D
102
{ACAD_REACTORS
330
C
102
}
330
C
100
AcDbDictionary
  0
DICTIONARY
  5
1A
102
{ACAD_REACTORS
330
C
102
}
330
C
100
AcDbDictionary
  0
DICTIONARY
  5
43
102
{ACAD_REACTORS
330
C
102
}
330
C
100
AcDbDictionary
  3
BYBLOCK
350
45
  3
BYLAYER
350
44
  3
GLOBAL
350
46
  0
DICTIONARY
  5
6B
102
{ACAD_REACTORS
330
C
102
}
330
C
100
AcDbDictionary
  3
STANDARD
350
6C
  0
DICTIONARY
  5
17
102
{ACAD_REACTORS
330
C
102
}
330
C
100
AcDbDictionary
  3
STANDARD
350
18
  0
DICTIONARY
  5
19
102
{ACAD_REACTORS
330
C
102
}
330
C
100
AcDbDictionary
  0
DICTIONARY
  5
47
102
{ACAD_REACTORS
330
C
102
}
330
C
100
AcDbDictionary
  3
A0
350
48
  3
A1
350
49
  3
A2
350
4A
  3
A3
350
4B
  3
A4
350
4C
  3
A5
350
4D
  3
A6
350
4E
  3
A7
350
4F
  3
A8
350
50
  3
A9
350
51
  3
B0
350
52
  3
B1
350
53
  3
B2
350
54
  3
B3
350
55
  3
B4
350
56
  3
B5
350
57
  3
B6
350
58
  3
B7
350
59
  3
B8
350
5A
  3
B9
350
5B
  3
C0
350
5C
  3
C1
350
5D
  3
C2
350
5E
  3
C3
350
5F
  3
C4
350
60
  3
C5
350
61
  3
C6
350
62
  3
C7
350
63
  3
C8
350
64
  3
C9
350
65
  3
D0
350
66
  3
D1
350
67
  3
D2
350
68
  0
DICTIONARY
  5
2A
102
{ACAD_REACTORS
330
C
102
}
330
C
100
AcDbDictionary
  3
2DWIREFRAME
350
2F
  3
BASIC
350
32
  3
BRIGHTEN
350
36
  3
COLORCHANGE
350
3A
  3
CONCEPTUAL
350
34
  3
DIM
350
35
  3
EDGECOLOROFF
350
3D
  3
FACEPATTERN
350
39
  3
FLAT
350
2B
  3
FLATWITHEDGES
350
2C
  3
GOURAUD
350
2D
  3
GOURAUDWITHEDGES
350
2E
  3
HIDDEN
350
31
  3
JITTEROFF
350
3B
  3
LINEPATTERN
350
38
  3
OVERHANGOFF
350
3C
  3
REALISTIC
350
33
  3
SHADED
350
42
  3
SHADED_WITH_EDGES
350
41
  3
SHADES_OF_GRAY
350
3E
  3
SKETCHY
350
3F
  3
THICKEN
350
37
  3
WIREFRAME
350
30
  3
X-RAY
350
40
  0
DICTIONARY
  5
333
102
{ACAD_REACTORS
330
C
102
}
330
C
100
AcDbDictionary
  3
CEPSNID
350
33D
  3
CEPSNTYPE
350
33C
  3
DIMSTYLEDATA
350
353
  3
FINGERPRINTGUID
350
33E
  3
HYPERLINKBASE
350
336
  3
INSUNITS
350
33B
  3
LAYOUTDICT
350
338
  3
LWETCUNION
350
33A
  3
PLOTSETDICT
350
339
  3
PSVPSCALE
350
340
  3
PUCSBASE
350
343
  3
PUCSORGBACK
350
349
  3
PUCSORGBOTTOM
350
345
  3
PUCSORGFRONT
350
348
  3
PUCSORGLEFT
350
346
  3
PUCSORGRIGHT
350
347
  3
PUCSORGTOP
350
344
  3
PUCSORTHOREF
350
341
  3
PUCSORTHOVIEW
350
342
  3
STYLESHEET
350
337
  3
TSTACKALIGN
350
334
  3
TSTACKSIZE
350
335
  3
UCSBASE
350
34C
  3
UCSORGBACK
350
352
  3
UCSORGBOTTOM
350
34E
  3
UCSORGFRONT
350
351
  3
UCSORGLEFT
350
34F
  3
UCSORGRIGHT
350
350
  3
UCSORGTOP
350
34D
  3
UCSORTHOREF
350
34A
  3
UCSORTHOVIEW
350
34B
  3
VERSIONGUID
350
33F
  0
DICTIONARY
  5
354
102
{ACAD_REACTORS
330
C
102
}
330
C
100
AcDbDictionary
  3
CANNOSCALE
350
35D
  3
CMLEADERSTYLE
350
356
  3
CTABLESTYLE
350
355
  3
DIMASSOC
350
359
  3
HIDETEXT
350
35A
  3
MSLTSCALE
350
35E
  0
XRECORD
  5
35C
102
{ACAD_REACTORS
330
35B
102
}
330
35B
100
AcDbXrecord
102
VTR_0.000_0.000_1.000_1.000_VISUALSTYLE
340
2F
102
VTR_0.000_0.000_1.000_1.000_GRIDDISPLAY
 70
     3
102
VTR_0.000_0.000_1.000_1.000_GRIDMAJOR
 70
     5
102
VTR_0.000_0.000_1.000_1.000_DEFAULTLIGHTING
280
     1
102
VTR_0.000_0.000_1.000_1.000_DEFAULTLIGHTINGTYPE
 70
     1
102
VTR_0.000_0.000_1.000_1.000_BRIGHTNESS
141
0.0
102
VTR_0.000_0.000_1.000_1.000_CONTRAST
142
0.0
  0
MATERIAL
  5
45
102
{ACAD_REACTORS
330
43
102
}
102
{ACAD_XDICTIONARY
360
361
102
}
330
43
100
AcDbMaterial
  1
BYBLOCK
  0
MATERIAL
  5
44
102
{ACAD_REACTORS
330
43
102
}
102
{ACAD_XDICTIONARY
360
35F
102
}
330
43
100
AcDbMaterial
  1
BYLAYER
  0
MATERIAL
  5
46
102
{ACAD_REACTORS
330
43
102
}
102
{ACAD_XDICTIONARY
360
363
102
}
330
43
100
AcDbMaterial
  1
GLOBAL
  0
ACAD_PROXY_OBJECT
  5
6C
102
{ACAD_REACTORS
330
6B
102
}
330
6B
100
AcDbProxyObject
 90
      499
 91
      505
 93
      610
310
40901902A4063FBFFFFFE056BD1B81E855B9FC0AD7A3703D0AD73F4214DD185B99185C9900AD7A3703D0AC73F90141901A02B5E8DC0F42B1CFC02B5E8DC0F42B1CFE5764000000000000300FC0
340
14
340
0
340
11
340
0
 94
        0
1001
ACAD_MLEADERVER
1070
     2
  0
MLINESTYLE
  5
18
102
{ACAD_REACTORS
330
17
102
}
330
17
100
AcDbMlineStyle
  2
Standard
 70
     0
  3

 62
   256
 51
90.0
 52
90.0
 71
     2
 49
0.5
 62
   256
  6
BYLAYER
 49
-0.5
 62
   256
  6
BYLAYER
  0
ACAD_PROXY_OBJECT
  5
48
102
{ACAD_REACTORS
330
47
102
}
330
47
100
AcDbProxyObject
 90
      499
 91
      503
 93
       41
310
903313A31580
  0
ACAD_PROXY_OBJECT
  5
49
102
{ACAD_REACTORS
330
47
102
}
330
47
100
AcDbProxyObject
 90
      499
 91
      503
 93
      105
310
903313A324000000000000004000
  0
ACAD_PROXY_OBJECT
  5
4A
102
{ACAD_REACTORS
330
47
102
}
330
47
100
AcDbProxyObject
 90
      499
 91
      503
 93
      105
310
903313A344000000000000104000
  0
ACAD_PROXY_OBJECT
  5
4B
102
{ACAD_REACTORS
330
47
102
}
330
47
100
AcDbProxyObject
 90
      499
 91
      503
 93
      105
310
903313A354000000000000144000
  0
ACAD_PROXY_OBJECT
  5
4C
102
{ACAD_REACTORS
330
47
102
}
330
47
100
AcDbProxyObject
 90
      499
 91
      503
 93
      105
310
903313A384000000000000204000
  0
ACAD_PROXY_OBJECT
  5
4D
102
{ACAD_REACTORS
330
47
102
}
330
47
100
AcDbProxyObject
 90
      499
 91
      503
 93
      113
310
904313A31304000000000000244000
  0
ACAD_PROXY_OBJECT
  5
4E
102
{ACAD_REACTORS
330
47
102
}
330
47
100
AcDbProxyObject
 90
      499
 91
      503
 93
      113
310
904313A31364000000000000304000
  0
ACAD_PROXY_OBJECT
  5
4F
102
{ACAD_REACTORS
330
47
102
}
330
47
100
AcDbProxyObject
 90
      499
 91
      503
 93
      113
310
904313A32304000000000000344000
  0
ACAD_PROXY_OBJECT
  5
50
102
{ACAD_REACTORS
330
47
102
}
330
47
100
AcDbProxyObject
 90
      499
 91
      503
 93
      113
310
904313A333040000000000003E4000
  0
ACAD_PROXY_OBJECT
  5
51
102
{ACAD_REACTORS
330
47
102
}
330
47
100
AcDbProxyObject
 90
      499
 91
      503
 93
      113
310
904313A34304000000000000444000
  0
ACAD_PROXY_OBJECT
  5
52
102
{ACAD_REACTORS
330
47
102
}
330
47
100
AcDbProxyObject
 90
      499
 91
      503
 93
      113
310
904313A35304000000000000494000
  0
ACAD_PROXY_OBJECT
  5
53
102
{ACAD_REACTORS
330
47
102
}
330
47
100
AcDbProxyObject
 90
      499
 91
      503
 93
      121
310
905313A3130304000000000000594000
  0
ACAD_PROXY_OBJECT
  5
54
102
{ACAD_REACTORS
330
47
102
}
330
47
100
AcDbProxyObject
 90
      499
 91
      503
 93
      105
310
903323A310000000000000010100
  0
ACAD_PROXY_OBJECT
  5
55
102
{ACAD_REACTORS
330
47
102
}
330
47
100
AcDbProxyObject
 90
      499
 91
      503
 93
      105
310
903343A310000000000000410100
  0
ACAD_PROXY_OBJECT
  5
56
102
{ACAD_REACTORS
330
47
102
}
330
47
100
AcDbProxyObject
 90
      499
 91
      503
 93
      105
310
903383A310000000000000810100
  0
ACAD_PROXY_OBJECT
  5
57
102
{ACAD_REACTORS
330
47
102
}
330
47
100
AcDbProxyObject
 90
      499
 91
      503
 93
      113
310
90431303A310000000000000910100
  0
ACAD_PROXY_OBJECT
  5
58
102
{ACAD_REACTORS
330
47
102
}
330
47
100
AcDbProxyObject
 90
      499
 91
      503
 93
      121
310
9053130303A310000000000001650100
  0
ACAD_PROXY_OBJECT
  5
59
102
{ACAD_REACTORS
330
47
102
}
330
47
100
AcDbProxyObject
 90
      499
 91
      503
 93
      257
310
90E312F31323822203D2031272D3022000000000000200FC000000000000284000
  0
ACAD_PROXY_OBJECT
  5
5A
102
{ACAD_REACTORS
330
47
102
}
330
47
100
AcDbProxyObject
 90
      499
 91
      503
 93
      249
310
90D312F363422203D2031272D3022000000000000240FC000000000000284000
  0
ACAD_PROXY_OBJECT
  5
5B
102
{ACAD_REACTORS
330
47
102
}
330
47
100
AcDbProxyObject
 90
      499
 91
      503
 93
      249
310
90D312F333222203D2031272D3022000000000000280FC000000000000284000
  0
ACAD_PROXY_OBJECT
  5
5C
102
{ACAD_REACTORS
330
47
102
}
330
47
100
AcDbProxyObject
 90
      499
 91
      503
 93
      249
310
90D312F313622203D2031272D30220000000000002C0FC000000000000284000
  0
ACAD_PROXY_OBJECT
  5
5D
102
{ACAD_REACTORS
330
47
102
}
330
47
100
AcDbProxyObject
 90
      499
 91
      503
 93
      249
310
90D332F333222203D2031272D30220000000000002E0FC000000000000284000
  0
ACAD_PROXY_OBJECT
  5
5E
102
{ACAD_REACTORS
330
47
102
}
330
47
100
AcDbProxyObject
 90
      499
 91
      503
 93
      241
310
90C312F3822203D2031272D3022000000000000300FC000000000000284000
  0
ACAD_PROXY_OBJECT
  5
5F
102
{ACAD_REACTORS
330
47
102
}
330
47
100
AcDbProxyObject
 90
      499
 91
      503
 93
      249
310
90D332F313622203D2031272D3022000000000000320FC000000000000284000
  0
ACAD_PROXY_OBJECT
  5
60
102
{ACAD_REACTORS
330
47
102
}
330
47
100
AcDbProxyObject
 90
      499
 91
      503
 93
      241
310
90C312F3422203D2031272D3022000000000000340FC000000000000284000
  0
ACAD_PROXY_OBJECT
  5
61
102
{ACAD_REACTORS
330
47
102
}
330
47
100
AcDbProxyObject
 90
      499
 91
      503
 93
      241
310
90C332F3822203D2031272D3022000000000000360FC000000000000284000
  0
ACAD_PROXY_OBJECT
  5
62
102
{ACAD_REACTORS
330
47
102
}
330
47
100
AcDbProxyObject
 90
      499
 91
      503
 93
      241
310
90C312F3222203D2031272D3022000000000000380FC000000000000284000
  0
ACAD_PROXY_OBJECT
  5
63
102
{ACAD_REACTORS
330
47
102
}
330
47
100
AcDbProxyObject
 90
      499
 91
      503
 93
      241
310
90C332F3422203D2031272D30220000000000003A0FC000000000000284000
  0
ACAD_PROXY_OBJECT
  5
64
102
{ACAD_REACTORS
330
47
102
}
330
47
100
AcDbProxyObject
 90
      499
 91
      503
 93
      161
310
90A3122203D2031272D30224000000000000284000
  0
ACAD_PROXY_OBJECT
  5
65
102
{ACAD_REACTORS
330
47
102
}
330
47
100
AcDbProxyObject
 90
      499
 91
      503
 93
      257
310
90E312D312F3222203D2031272D30220000000000003E0FC000000000000284000
  0
ACAD_PROXY_OBJECT
  5
66
102
{ACAD_REACTORS
330
47
102
}
330
47
100
AcDbProxyObject
 90
      499
 91
      503
 93
      225
310
90A3322203D2031272D302200000000000002100000000000000284000
  0
ACAD_PROXY_OBJECT
  5
67
102
{ACAD_REACTORS
330
47
102
}
330
47
100
AcDbProxyObject
 90
      499
 91
      503
 93
      225
310
90A3622203D2031272D302200000000000006100000000000000284000
  0
ACAD_PROXY_OBJECT
  5
68
102
{ACAD_REACTORS
330
47
102
}
330
47
100
AcDbProxyObject
 90
      499
 91
      503
 93
      249
310
90D31272D3022203D2031272D30220000000000000A100000000000000284000
  0
ACAD_PROXY_OBJECT
  5
2F
102
{ACAD_REACTORS
330
2A
102
}
330
2A
100
AcDbProxyObject
 90
      499
 91
      501
 93
      436
310
42CC9915DA5C99599C985B595049028333333333333E33F0000000000000F90107901411070040501600405405064090741402480A0340
1001
ACAD
1000
AcDbSavedByObjectVersion
1070
     0
  0
ACAD_PROXY_OBJECT
  5
32
102
{ACAD_REACTORS
330
2A
102
}
330
2A
100
AcDbProxyObject
 90
      499
 91
      501
 93
      388
310
4150985CDA58D07406404333333333333E33F0000000000000F90107A41107004050150841D405064090741402480A0350
1001
ACAD
1000
AcDbSavedByObjectVersion
1070
     0
  0
ACAD_PROXY_OBJECT
  5
36
102
{ACAD_REACTORS
330
2A
102
}
330
2A
100
AcDbProxyObject
 90
      499
 91
      501
 93
      428
310
42109C9A59DA1D195B90C409028333333333333E33F0000000000000F9010790141107004050150841D405064090741402480A029950
1001
ACAD
1000
AcDbSavedByObjectVersion
1070
     0
  0
ACAD_PROXY_OBJECT
  5
3A
102
{ACAD_REACTORS
330
2A
102
}
330
2A
100
AcDbProxyObject
 90
      499
 91
      501
 93
      452
310
42D0DBDB1BDC90DA185B99D95104090240C333333333333E33F0000000000000F90108901411070040501508421405064090741402480A0350
1001
ACAD
1000
AcDbSavedByObjectVersion
1070
     0
  0
ACAD_PROXY_OBJECT
  5
34
102
{ACAD_REACTORS
330
2A
102
}
330
2A
100
AcDbProxyObject
 90
      499
 91
      501
 93
      500
310
4290DBDB98D95C1D1D585B10940D028333333333333E33F0000000000000F90107902409070040501000000000018199010841D405064090740C02480A0340
1001
ACAD
1000
AcDbSavedByObjectVersion
1070
     0
  0
ACAD_PROXY_OBJECT
  5
35
102
{ACAD_REACTORS
330
2A
102
}
330
2A
100
AcDbProxyObject
 90
      499
 91
      501
 93
      412
310
40D11A5B50B409028333333333333E33F0000000000000F9010790141107004050150841D405064090741402480A02677FFFFFD0
1001
ACAD
1000
AcDbSavedByObjectVersion
1070
     0
  0
ACAD_PROXY_OBJECT
  5
3D
102
{ACAD_REACTORS
330
2A
102
}
330
2A
100
AcDbProxyObject
 90
      499
 91
      501
 93
      452
310
43115919D950DBDB1BDC93D999916409028333333333333E33F0000000000000F9010790141107004050150841D405064090741402480A0350
1001
ACAD
1000
AcDbSavedByObjectVersion
1070
     0
  0
ACAD_PROXY_OBJECT
  5
39
102
{ACAD_REACTORS
330
2A
102
}
330
2A
100
AcDbProxyObject
 90
      499
 91
      501
 93
      444
310
42D19858D95C185D1D195C9B90F409028333333333333E33F0000000000000F9010790141107004050150841D405064090741402480A0350
1001
ACAD
1000
AcDbSavedByObjectVersion
1070
     0
  0
ACAD_PROXY_OBJECT
  5
2B
102
{ACAD_REACTORS
330
2A
102
}
330
2A
100
AcDbProxyObject
 90
      499
 91
      501
 93
      380
310
41119B185D240901404333333333333E33F0000000000000F9010740A907004050150841D405064090741402480A1B50
1001
ACAD
1000
AcDbSavedByObjectVersion
1070
     0
  0
ACAD_PROXY_OBJECT
  5
2C
102
{ACAD_REACTORS
330
2A
102
}
330
2A
100
AcDbProxyObject
 90
      499
 91
      501
 93
      468
310
43519B185D15DA5D1A115919D95CD0140901404333333333333E33F0000000000000F90107409019070040501600405405064090741402480A1B50
1001
ACAD
1000
AcDbSavedByObjectVersion
1070
     0
  0
ACAD_PROXY_OBJECT
  5
2D
102
{ACAD_REACTORS
330
2A
102
}
330
2A
100
AcDbProxyObject
 90
      499
 91
      501
 93
      404
310
41D1DBDD5C985D5910240902404333333333333E33F0000000000000F9010740A9070040501641D405064090741402480A1B50
1001
ACAD
1000
AcDbSavedByObjectVersion
1070
     0
  0
ACAD_PROXY_OBJECT
  5
2E
102
{ACAD_REACTORS
330
2A
102
}
330
2A
100
AcDbProxyObject
 90
      499
 91
      501
 93
      492
310
4411DBDD5C985D5915DA5D1A115919D95CD0340902404333333333333E33F0000000000000F90107409019070040501600405405064090741402480A1B50
1001
ACAD
1000
AcDbSavedByObjectVersion
1070
     0
  0
ACAD_PROXY_OBJECT
  5
31
102
{ACAD_REACTORS
330
2A
102
}
330
2A
100
AcDbProxyObject
 90
      499
 91
      501
 93
      476
310
41921A5919195B90640502408333333333333E33F0000000000000F901079024090700405020000000000001110200405405064090740C02480A0340
1001
ACAD
1000
AcDbSavedByObjectVersion
1070
     0
  0
ACAD_PROXY_OBJECT
  5
3B
102
{ACAD_REACTORS
330
2A
102
}
330
2A
100
AcDbProxyObject
 90
      499
 91
      501
 93
      428
310
42529A5D1D195C93D999914409028333333333333E33F0000000000000F9010790141107004050150A41D405064090741402480A0350
1001
ACAD
1000
AcDbSavedByObjectVersion
1070
     0
  0
ACAD_PROXY_OBJECT
  5
38
102
{ACAD_REACTORS
330
2A
102
}
330
2A
100
AcDbProxyObject
 90
      499
 91
      501
 93
      444
310
42D31A5B995C185D1D195C9B90E409028333333333333E33F0000000000000F9010790141107004050750841D405064090741402483A0350
1001
ACAD
1000
AcDbSavedByObjectVersion
1070
     0
  0
ACAD_PROXY_OBJECT
  5
3C
102
{ACAD_REACTORS
330
2A
102
}
330
2A
100
AcDbProxyObject
 90
      499
 91
      501
 93
      444
310
42D3DD995C9A185B99D3D999915409028333333333333E33F0000000000000F9010790141107004050150941D405064090741402480A0350
1001
ACAD
1000
AcDbSavedByObjectVersion
1070
     0
  0
ACAD_PROXY_OBJECT
  5
33
102
{ACAD_REACTORS
330
2A
102
}
330
2A
100
AcDbProxyObject
 90
      499
 91
      501
 93
      428
310
425499585B1A5CDD1A58D08409038333333333333E33F0000000000000F9010740A907004050150800405405064090740C02480A1B40
1001
ACAD
1000
AcDbSavedByObjectVersion
1070
     0
  0
ACAD_PROXY_OBJECT
  5
42
102
{ACAD_REACTORS
330
2A
102
}
330
2A
100
AcDbProxyObject
 90
      499
 91
      501
 93
      420
310
4194DA1859195911B40902404333333333333E33F0000000000000F9010740A41107004050150800405405064090840C02480A0B40
1001
ACAD
1000
AcDbSavedByObjectVersion
1070
     0
  0
ACAD_PROXY_OBJECT
  5
41
102
{ACAD_REACTORS
330
2A
102
}
330
2A
100
AcDbProxyObject
 90
      499
 91
      501
 93
      516
310
4454DA18591959081DDA5D1A08195919D95CD1A40902404333333333333E33F0000000000000F901074090142907004050250800405405064090740C02480A0B40
1001
ACAD
1000
AcDbSavedByObjectVersion
1070
     0
  0
ACAD_PROXY_OBJECT
  5
3E
102
{ACAD_REACTORS
330
2A
102
}
330
2A
100
AcDbProxyObject
 90
      499
 91
      501
 93
      532
310
4394DA1859195CC81BD98811DC985E5174090240C333333333333E33F0000000000000F901079024090741D01000000000000111010841D405064090740C02480A0340
1001
ACAD
1000
AcDbSavedByObjectVersion
1070
     0
  0
ACAD_PROXY_OBJECT
  5
3F
102
{ACAD_REACTORS
330
2A
102
}
330
2A
100
AcDbProxyObject
 90
      499
 91
      501
 93
      476
310
41D4DAD95D18DA1E51840502408333333333333E33F0000000000000F901079024090741D01000000000000111010B41D405064090741802480A0340
1001
ACAD
1000
AcDbSavedByObjectVersion
1070
     0
  0
ACAD_PROXY_OBJECT
  5
37
102
{ACAD_REACTORS
330
2A
102
}
330
2A
100
AcDbProxyObject
 90
      499
 91
      501
 93
      412
310
41D51A1A58DAD95B90D409028333333333333E33F0000000000000F9010790141107004050150C41D405064090741402480A0350
1001
ACAD
1000
AcDbSavedByObjectVersion
1070
     0
  0
ACAD_PROXY_OBJECT
  5
30
102
{ACAD_REACTORS
330
2A
102
}
330
2A
100
AcDbProxyObject
 90
      499
 91
      501
 93
      420
310
4255DA5C99599C985B595059028333333333333E33F0000000000000F90107901411070040501600405405064090740C02480A0340
1001
ACAD
1000
AcDbSavedByObjectVersion
1070
     0
  0
ACAD_PROXY_OBJECT
  5
40
102
{ACAD_REACTORS
330
2A
102
}
330
2A
100
AcDbProxyObject
 90
      499
 91
      501
 93
      404
310
41560B54985E51940902404000000000000E03F0000000000000F9010740501907004050150841D405064090740C02480A1B40
1001
ACAD
1000
AcDbSavedByObjectVersion
1070
     0
  0
XRECORD
  5
33D
102
{ACAD_REACTORS
330
333
102
}
330
333
100
AcDbXrecord
340
0
  0
XRECORD
  5
33C
102
{ACAD_REACTORS
330
333
102
}
330
333
100
AcDbXrecord
 90
        0
  0
XRECORD
  5
353
102
{ACAD_REACTORS
330
333
102
}
330
333
100
AcDbXrecord
1000
DSTYLE
1002
{
1070
   171
 70
     2
1070
   143
 40
25.4
1070
   274
 70
     2
1070
    41
 40
0.18
1070
   141
 40
0.09
1070
   271
 70
     4
1070
    43
 40
0.38
1070
   278
 70
    46
1070
    44
 40
0.18
1070
    42
 40
0.0625
1070
   147
 40
0.09
1070
    77
 70
     0
1070
   272
 70
     4
1070
    73
 70
     1
1070
   172
 70
     0
1070
    74
 70
     1
1070
   283
 70
     1
1070
   340
340
11
1070
   140
 40
0.18
1070
   284
 70
     0
1070
    78
 70
     0
1002
}
  0
XRECORD
  5
33E
102
{ACAD_REACTORS
330
333
102
}
330
333
100
AcDbXrecord
  1
{C48B710A-E972-4872-998E-C3BE7C8814A2}
  0
XRECORD
  5
336
102
{ACAD_REACTORS
330
333
102
}
330
333
100
AcDbXrecord
  1

  0
XRECORD
  5
33B
102
{ACAD_REACTORS
330
333
102
}
330
333
100
AcDbXrecord
 90
        4
  0
XRECORD
  5
338
102
{ACAD_REACTORS
330
333
102
}
330
333
100
AcDbXrecord
340
1A
  0
XRECORD
  5
33A
102
{ACAD_REACTORS
330
333
102
}
330
333
100
AcDbXrecord
 90
    10781
  0
XRECORD
  5
339
102
{ACAD_REACTORS
330
333
102
}
330
333
100
AcDbXrecord
340
19
  0
XRECORD
  5
340
102
{ACAD_REACTORS
330
333
102
}
330
333
100
AcDbXrecord
 40
0.0
  0
XRECORD
  5
343
102
{ACAD_REACTORS
330
333
102
}
330
333
100
AcDbXrecord
340
0
  0
XRECORD
  5
349
102
{ACAD_REACTORS
330
333
102
}
330
333
100
AcDbXrecord
 10
0.0
 20
0.0
 30
0.0
  0
XRECORD
  5
345
102
{ACAD_REACTORS
330
333
102
}
330
333
100
AcDbXrecord
 10
0.0
 20
0.0
 30
0.0
  0
XRECORD
  5
348
102
{ACAD_REACTORS
330
333
102
}
330
333
100
AcDbXrecord
 10
0.0
 20
0.0
 30
0.0
  0
XRECORD
  5
346
102
{ACAD_REACTORS
330
333
102
}
330
333
100
AcDbXrecord
 10
0.0
 20
0.0
 30
0.0
  0
XRECORD
  5
347
102
{ACAD_REACTORS
330
333
102
}
330
333
100
AcDbXrecord
 10
0.0
 20
0.0
 30
0.0
  0
XRECORD
  5
344
102
{ACAD_REACTORS
330
333
102
}
330
333
100
AcDbXrecord
 10
0.0
 20
0.0
 30
0.0
  0
XRECORD
  5
341
102
{ACAD_REACTORS
330
333
102
}
330
333
100
AcDbXrecord
340
0
  0
XRECORD
  5
342
102
{ACAD_REACTORS
330
333
102
}
330
333
100
AcDbXrecord
 70
     0
  0
XRECORD
  5
337
102
{ACAD_REACTORS
330
333
102
}
330
333
100
AcDbXrecord
  1

  0
XRECORD
  5
334
102
{ACAD_REACTORS
330
333
102
}
330
333
100
AcDbXrecord
 90
        1
  0
XRECORD
  5
335
102
{ACAD_REACTORS
330
333
102
}
330
333
100
AcDbXrecord
 90
       70
  0
XRECORD
  5
34C
102
{ACAD_REACTORS
330
333
102
}
330
333
100
AcDbXrecord
340
0
  0
XRECORD
  5
352
102
{ACAD_REACTORS
330
333
102
}
330
333
100
AcDbXrecord
 10
0.0
 20
0.0
 30
0.0
  0
XRECORD
  5
34E
102
{ACAD_REACTORS
330
333
102
}
330
333
100
AcDbXrecord
 10
0.0
 20
0.0
 30
0.0
  0
XRECORD
  5
351
102
{ACAD_REACTORS
330
333
102
}
330
333
100
AcDbXrecord
 10
0.0
 20
0.0
 30
0.0
  0
XRECORD
  5
34F
102
{ACAD_REACTORS
330
333
102
}
330
333
100
AcDbXrecord
 10
0.0
 20
0.0
 30
0.0
  0
XRECORD
  5
350
102
{ACAD_REACTORS
330
333
102
}
330
333
100
AcDbXrecord
 10
0.0
 20
0.0
 30
0.0
  0
XRECORD
  5
34D
102
{ACAD_REACTORS
330
333
102
}
330
333
100
AcDbXrecord
 10
0.0
 20
0.0
 30
0.0
  0
XRECORD
  5
34A
102
{ACAD_REACTORS
330
333
102
}
330
333
100
AcDbXrecord
340
0
  0
XRECORD
  5
34B
102
{ACAD_REACTORS
330
333
102
}
330
333
100
AcDbXrecord
 70
     0
  0
XRECORD
  5
33F
102
{ACAD_REACTORS
330
333
102
}
330
333
100
AcDbXrecord
  1
{FAEB1C32-E019-11D5-929B-00C0DF256EC4}
  0
DICTIONARYVAR
  5
35D
102
{ACAD_REACTORS
330
354
102
}
330
354
100
DictionaryVariables
280
     0
  1
1:1
  0
DICTIONARYVAR
  5
356
102
{ACAD_REACTORS
330
354
102
}
330
354
100
DictionaryVariables
280
     0
  1
Standard
  0
DICTIONARYVAR
  5
355
102
{ACAD_REACTORS
330
354
102
}
330
354
100
DictionaryVariables
280
     0
  1
Standard
  0
DICTIONARYVAR
  5
359
102
{ACAD_REACTORS
330
354
102
}
330
354
100
DictionaryVariables
280
     0
  1
2
  0
DICTIONARYVAR
  5
35A
102
{ACAD_REACTORS
330
354
102
}
330
354
100
DictionaryVariables
280
     0
  1
1
  0
DICTIONARYVAR
  5
35E
102
{ACAD_REACTORS
330
354
102
}
330
354
100
DictionaryVariables
280
     0
  1
1
  0
DICTIONARY
  5
361
330
45
100
AcDbDictionary
280
     1
  3
ACAD_XREC_ROUNDTRIP
360
362
  0
DICTIONARY
  5
35F
330
44
100
AcDbDictionary
280
     1
  3
ACAD_XREC_ROUNDTRIP
360
360
  0
DICTIONARY
  5
363
330
46
100
AcDbDictionary
280
     1
  3
ACAD_XREC_ROUNDTRIP
360
364
  0
XRECORD
  5
362
102
{ACAD_REACTORS
330
361
102
}
330
361
100
AcDbXrecord
102
MATERIAL
148
0.0
149
0.0
149
0.0
 93
        0
 94
      127
282
     0
 72
     1
 77
     1
171
     1
175
     1
179
     1
273
     0
  0
XRECORD
  5
360
102
{ACAD_REACTORS
330
35F
102
}
330
35F
100
AcDbXrecord
102
MATERIAL
148
0.0
149
0.0
149
0.0
 93
        0
 94
      127
282
     0
 72
     1
 77
     1
171
     1
175
     1
179
     1
273
     0
  0
XRECORD
  5
364
102
{ACAD_REACTORS
330
363
102
}
330
363
100
AcDbXrecord
102
MATERIAL
148
0.0
149
0.0
149
0.0
 93
        0
 94
      127
282
     0
 72
     1
 77
     1
171
     1
175
     1
179
     1
273
     0
  0
ENDSEC
  0
EOF
