  0
SECTION
  2
HEADER
  9
$ACADVER
  1
AC1014
  9
$ACADMAINTVER
 70
     9
  9
$DWGCODEPAGE
  3
ANSI_1251
  9
$INSBASE
 10
0.0
 20
0.0
 30
0.0
  9
$EXTMIN
 10
1.000000000000000E+20
 20
1.000000000000000E+20
 30
1.000000000000000E+20
  9
$EXTMAX
 10
-1.000000000000000E+20
 20
-1.000000000000000E+20
 30
-1.000000000000000E+20
  9
$LIMMIN
 10
0.0
 20
0.0
  9
$LIMMAX
 10
12.0
 20
9.0
  9
$ORTHOMODE
 70
     0
  9
$REGENMODE
 70
     1
  9
$FILLMODE
 70
     1
  9
$QTEXTMODE
 70
     0
  9
$MIRRTEXT
 70
     1
  9
$DRAGMODE
 70
     2
  9
$LTSCALE
 40
1.0
  9
$OSMODE
 70
    37
  9
$ATTMODE
 70
     1
  9
$TEXTSIZE
 40
0.2
  9
$TRACEWID
 40
0.05
  9
$TEXTSTYLE
  7
STANDARD
  9
$CLAYER
  8
0
  9
$CELTYPE
  6
BYLAYER
  9
$CECOLOR
 62
   256
  9
$CELTSCALE
 40
1.0
  9
$DELOBJ
 70
     1
  9
$DISPSILH
 70
     0
  9
$DIMSCALE
 40
1.0
  9
$DIMASZ
 40
0.18
  9
$DIMEXO
 40
0.0625
  9
$DIMDLI
 40
0.38
  9
$DIMRND
 40
0.0
  9
$DIMDLE
 40
0.0
  9
$DIMEXE
 40
0.18
  9
$DIMTP
 40
0.0
  9
$DIMTM
 40
0.0
  9
$DIMTXT
 40
0.18
  9
$DIMCEN
 40
0.09
  9
$DIMTSZ
 40
0.0
  9
$DIMTOL
 70
     0
  9
$DIMLIM
 70
     0
  9
$DIMTIH
 70
     1
  9
$DIMTOH
 70
     1
  9
$DIMSE1
 70
     0
  9
$DIMSE2
 70
     0
  9
$DIMTAD
 70
     0
  9
$DIMZIN
 70
     0
  9
$DIMBLK
  1

  9
$DIMASO
 70
     1
  9
$DIMSHO
 70
     1
  9
$DIMPOST
  1

  9
$DIMAPOST
  1

  9
$DIMALT
 70
     0
  9
$DIMALTD
 70
     2
  9
$DIMALTF
 40
25.4
  9
$DIMLFAC
 40
1.0
  9
$DIMTOFL
 70
     0
  9
$DIMTVP
 40
0.0
  9
$DIMTIX
 70
     0
  9
$DIMSOXD
 70
     0
  9
$DIMSAH
 70
     0
  9
$DIMBLK1
  1

  9
$DIMBLK2
  1

  9
$DIMSTYLE
  2
STANDARD
  9
$DIMCLRD
 70
     0
  9
$DIMCLRE
 70
     0
  9
$DIMCLRT
 70
     0
  9
$DIMTFAC
 40
1.0
  9
$DIMGAP
 40
0.09
  9
$DIMJUST
 70
     0
  9
$DIMSD1
 70
     0
  9
$DIMSD2
 70
     0
  9
$DIMTOLJ
 70
     1
  9
$DIMTZIN
 70
     0
  9
$DIMALTZ
 70
     0
  9
$DIMALTTZ
 70
     0
  9
$DIMFIT
 70
     3
  9
$DIMUPT
 70
     0
  9
$DIMUNIT
 70
     2
  9
$DIMDEC
 70
     4
  9
$DIMTDEC
 70
     4
  9
$DIMALTU
 70
     2
  9
$DIMALTTD
 70
     2
  9
$DIMTXSTY
  7
STANDARD
  9
$DIMAUNIT
 70
     0
  9
$LUNITS
 70
     2
  9
$LUPREC
 70
     4
  9
$SKETCHINC
 40
0.1
  9
$FILLETRAD
 40
0.5
  9
$AUNITS
 70
     0
  9
$AUPREC
 70
     0
  9
$MENU
  1
.
  9
$ELEVATION
 40
0.0
  9
$PELEVATION
 40
0.0
  9
$THICKNESS
 40
0.0
  9
$LIMCHECK
 70
     0
  9
$CHAMFERA
 40
0.0
  9
$CHAMFERB
 40
0.0
  9
$CHAMFERC
 40
0.0
  9
$CHAMFERD
 40
0.0
  9
$SKPOLY
 70
     0
  9
$TDCREATE
 40
2459887.492604768
  9
$TDUPDATE
 40
2459887.492606273
  9
$TDINDWG
 40
0.0000000116
  9
$TDUSRTIMER
 40
0.0000000116
  9
$USRTIMER
 70
     1
  9
$ANGBASE
 50
0.0
  9
$ANGDIR
 70
     0
  9
$PDMODE
 70
     0
  9
$PDSIZE
 40
0.0
  9
$PLINEWID
 40
0.0
  9
$COORDS
 70
     1
  9
$SPLFRAME
 70
     0
  9
$SPLINETYPE
 70
     6
  9
$SPLINESEGS
 70
     8
  9
$ATTDIA
 70
     0
  9
$ATTREQ
 70
     1
  9
$HANDLING
 70
     1
  9
$HANDSEED
  5
477
  9
$SURFTAB1
 70
     6
  9
$SURFTAB2
 70
     6
  9
$SURFTYPE
 70
     6
  9
$SURFU
 70
     6
  9
$SURFV
 70
     6
  9
$UCSNAME
  2

  9
$UCSORG
 10
0.0
 20
0.0
 30
0.0
  9
$UCSXDIR
 10
1.0
 20
0.0
 30
0.0
  9
$UCSYDIR
 10
0.0
 20
1.0
 30
0.0
  9
$PUCSNAME
  2

  9
$PUCSORG
 10
0.0
 20
0.0
 30
0.0
  9
$PUCSXDIR
 10
1.0
 20
0.0
 30
0.0
  9
$PUCSYDIR
 10
0.0
 20
1.0
 30
0.0
  9
$USERI1
 70
     0
  9
$USERI2
 70
     0
  9
$USERI3
 70
     0
  9
$USERI4
 70
     0
  9
$USERI5
 70
     0
  9
$USERR1
 40
0.0
  9
$USERR2
 40
0.0
  9
$USERR3
 40
0.0
  9
$USERR4
 40
0.0
  9
$USERR5
 40
0.0
  9
$WORLDVIEW
 70
     1
  9
$SHADEDGE
 70
     3
  9
$SHADEDIF
 70
    70
  9
$TILEMODE
 70
     1
  9
$MAXACTVP
 70
    64
  9
$PINSBASE
 10
0.0
 20
0.0
 30
0.0
  9
$PLIMCHECK
 70
     0
  9
$PEXTMIN
 10
1.000000000000000E+20
 20
1.000000000000000E+20
 30
1.000000000000000E+20
  9
$PEXTMAX
 10
-1.000000000000000E+20
 20
-1.000000000000000E+20
 30
-1.000000000000000E+20
  9
$PLIMMIN
 10
0.0
 20
0.0
  9
$PLIMMAX
 10
12.0
 20
9.0
  9
$UNITMODE
 70
     0
  9
$VISRETAIN
 70
     1
  9
$PLINEGEN
 70
     0
  9
$PSLTSCALE
 70
     1
  9
$TREEDEPTH
 70
  3020
  9
$PICKSTYLE
 70
     1
  9
$CMLSTYLE
  2
STANDARD
  9
$CMLJUST
 70
     0
  9
$CMLSCALE
 40
1.0
  9
$PROXYGRAPHICS
 70
     1
  9
$MEASUREMENT
 70
     1
  0
ENDSEC
  0
SECTION
  2
CLASSES
  0
CLASS
  1
ACDBDICTIONARYWDFLT
  2
AcDbDictionaryWithDefault
  3
ObjectDBX Classes
 90
        0
280
     0
281
     0
  0
CLASS
  1
VISUALSTYLE
  2
AcDbVisualStyle
  3
ObjectDBX Classes
 90
     4095
280
     0
281
     0
  0
CLASS
  1
MATERIAL
  2
AcDbMaterial
  3
ObjectDBX Classes
 90
     1153
280
     0
281
     0
  0
CLASS
  1
SCALE
  2
AcDbScale
  3
ObjectDBX Classes
 90
     1153
280
     0
281
     0
  0
CLASS
  1
TABLESTYLE
  2
AcDbTableStyle
  3
ObjectDBX Classes
 90
     4095
280
     0
281
     0
  0
CLASS
  1
MLEADERSTYLE
  2
AcDbMLeaderStyle
  3
ACDB_MLEADERSTYLE_CLASS
 90
     4095
280
     0
281
     0
  0
CLASS
  1
SUN
  2
AcDbSun
  3
SCENEOE
 90
     1153
280
     0
281
     0
  0
CLASS
  1
DICTIONARYVAR
  2
AcDbDictionaryVar
  3
ObjectDBX Classes
 90
        0
280
     0
281
     0
  0
CLASS
  1
XRECORD
  2
AcDbXrecord
  3
ObjectDBX Classes
 90
        0
280
     0
281
     0
  0
CLASS
  1
LWPOLYLINE
  2
AcDbPolyline
  3
ObjectDBX Classes
 90
        0
280
     0
281
     1
  0
CLASS
  1
HATCH
  2
AcDbHatch
  3
ObjectDBX Classes
 90
        0
280
     0
281
     1
  0
CLASS
  1
ACDBPLACEHOLDER
  2
AcDbPlaceHolder
  3
ObjectDBX Classes
 90
        0
280
     0
281
     0
  0
CLASS
  1
LAYOUT
  2
AcDbLayout
  3
ObjectDBX Classes
 90
        0
280
     0
281
     0
  0
ENDSEC
  0
SECTION
  2
TABLES
  0
TABLE
  2
VPORT
  5
8
102
{ACAD_XDICTIONARY
360
46C
102
}
330
0
100
AcDbSymbolTable
 70
     1
  0
VPORT
  5
29
330
8
100
AcDbSymbolTableRecord
100
AcDbViewportTableRecord
  2
*ACTIVE
 70
     0
 10
0.0
 20
0.0
 11
1.0
 21
1.0
 12
0.0
 22
0.0
 13
0.0
 23
0.0
 14
0.5
 24
0.5
 15
0.5
 25
0.5
 16
0.0
 26
0.0
 36
1.0
 17
0.0
 27
0.0
 37
-1000.0
 40
3502.618610069225
 41
1.777520278099652
 42
50.0
 43
11507.39259217106
 44
22432.22615859766
 50
0.0
 51
0.0
 71
     0
 72
   100
 73
     1
 74
     3
 75
     0
 76
     0
 77
     0
 78
     0
  0
ENDTAB
  0
TABLE
  2
LTYPE
  5
5
330
0
100
AcDbSymbolTable
 70
     1
  0
LTYPE
  5
14
330
5
100
AcDbSymbolTableRecord
100
AcDbLinetypeTableRecord
  2
BYBLOCK
 70
     0
  3

 72
    65
 73
     0
 40
0.0
  0
LTYPE
  5
15
330
5
100
AcDbSymbolTableRecord
100
AcDbLinetypeTableRecord
  2
BYLAYER
 70
     0
  3

 72
    65
 73
     0
 40
0.0
  0
LTYPE
  5
16
330
5
100
AcDbSymbolTableRecord
100
AcDbLinetypeTableRecord
  2
CONTINUOUS
 70
     0
  3
Solid line
 72
    65
 73
     0
 40
0.0
  0
ENDTAB
  0
TABLE
  2
LAYER
  5
2
330
0
100
AcDbSymbolTable
 70
     3
  0
LAYER
  5
10
330
2
100
AcDbSymbolTableRecord
100
AcDbLayerTableRecord
  2
0
 70
     0
 62
     7
  6
CONTINUOUS
  0
LAYER
  5
6E
330
2
100
AcDbSymbolTableRecord
100
AcDbLayerTableRecord
  2
PROFILEEDGES
 70
     0
 62
     7
  6
CONTINUOUS
  0
LAYER
  5
6F
330
2
100
AcDbSymbolTableRecord
100
AcDbLayerTableRecord
  2
SECTIONCUTEDGES
 70
     0
 62
     7
  6
CONTINUOUS
  0
ENDTAB
  0
TABLE
  2
STYLE
  5
3
330
0
100
AcDbSymbolTable
 70
     1
  0
STYLE
  5
11
330
3
100
AcDbSymbolTableRecord
100
AcDbTextStyleTableRecord
  2
STANDARD
 70
     0
 40
0.0
 41
1.0
 50
0.0
 71
     0
 42
0.2
  3
txt
  4

  0
ENDTAB
  0
TABLE
  2
VIEW
  5
6
330
0
100
AcDbSymbolTable
 70
     0
  0
ENDTAB
  0
TABLE
  2
UCS
  5
7
330
0
100
AcDbSymbolTable
 70
     0
  0
ENDTAB
  0
TABLE
  2
APPID
  5
9
330
0
100
AcDbSymbolTable
 70
     2
  0
APPID
  5
12
330
9
100
AcDbSymbolTableRecord
100
AcDbRegAppTableRecord
  2
ACAD
 70
     0
  0
APPID
  5
476
330
9
100
AcDbSymbolTableRecord
100
AcDbRegAppTableRecord
  2
ACAD_MLEADERVER
 70
     0
  0
ENDTAB
  0
TABLE
  2
DIMSTYLE
  5
A
330
0
100
AcDbSymbolTable
 70
     1
  0
DIMSTYLE
105
27
330
A
100
AcDbSymbolTableRecord
100
AcDbDimStyleTableRecord
  2
STANDARD
 70
     0
  3

  4

  5

  6

  7

 40
1.0
 41
0.18
 42
0.0625
 43
0.38
 44
0.18
 45
0.0
 46
0.0
 47
0.0
 48
0.0
140
0.18
141
0.09
142
0.0
143
25.4
144
1.0
145
0.0
146
1.0
147
0.09
 71
     0
 72
     0
 73
     1
 74
     1
 75
     0
 76
     0
 77
     0
 78
     0
170
     0
171
     2
172
     0
173
     0
174
     0
175
     0
176
     0
177
     0
178
     0
270
     2
271
     4
272
     4
273
     2
274
     2
340
11
275
     0
280
     0
281
     0
282
     0
283
     1
284
     0
285
     0
286
     0
287
     3
288
     0
  0
ENDTAB
  0
TABLE
  2
BLOCK_RECORD
  5
1
330
0
100
AcDbSymbolTable
 70
     1
  0
BLOCK_RECORD
  5
1F
330
1
100
AcDbSymbolTableRecord
100
AcDbBlockTableRecord
  2
*MODEL_SPACE
  0
BLOCK_RECORD
  5
1B
330
1
100
AcDbSymbolTableRecord
100
AcDbBlockTableRecord
  2
*PAPER_SPACE
  0
ENDTAB
  0
ENDSEC
  0
SECTION
  2
BLOCKS
  0
BLOCK
  5
20
330
1F
100
AcDbEntity
  8
0
100
AcDbBlockBegin
  2
*MODEL_SPACE
 70
     0
 10
0.0
 20
0.0
 30
0.0
  3
*MODEL_SPACE
  1

  0
ENDBLK
  5
21
330
1F
100
AcDbEntity
  8
0
100
AcDbBlockEnd
  0
BLOCK
  5
1C
330
1B
100
AcDbEntity
 67
     1
  8
0
100
AcDbBlockBegin
  2
*PAPER_SPACE
 70
     0
 10
0.0
 20
0.0
 30
0.0
  3
*PAPER_SPACE
  1

  0
ENDBLK
  5
1D
330
1B
100
AcDbEntity
 67
     1
  8
0
100
AcDbBlockEnd
  0
ENDSEC
  0
SECTION
  2
ENTITIES
  0
LINE
  5
70
330
1F
100
AcDbEntity
  8
0
100
AcDbLine
 10
-653.0580498523524
 20
-595.8396809005204
 30
0.0
 11
-653.0580498523524
 21
-567.5555554919755
 31
0.0
  0
LINE
  5
71
330
1F
100
AcDbEntity
  8
0
100
AcDbLine
 10
641.5892208994685
 20
-745.8399122080561
 30
0.0
 11
641.6267132210543
 21
-745.839925838906
 31
0.0
  0
LINE
  5
72
330
1F
100
AcDbEntity
  8
0
100
AcDbLine
 10
-1544.496806224164
 20
896.2237285870572
 30
0.0
 11
-1524.496806224164
 21
896.2237285870575
 31
0.0
  0
LINE
  5
73
330
1F
100
AcDbEntity
  8
0
100
AcDbLine
 10
-1544.496806224164
 20
896.2237285870572
 30
0.0
 11
-1544.496806224153
 21
180.4243531871792
 31
0.0
  0
LINE
  5
74
330
1F
100
AcDbEntity
  8
0
100
AcDbLine
 10
-1524.496806224164
 20
896.2237285870575
 30
0.0
 11
-1524.496806224153
 21
180.4237472245002
 31
0.0
  0
LINE
  5
75
330
1F
100
AcDbEntity
  8
0
100
AcDbLine
 10
-1537.996619469988
 20
230.3875727537725
 30
0.0
 11
-1537.868008407249
 21
229.4829864115923
 31
0.0
  0
LINE
  5
76
330
1F
100
AcDbEntity
  8
0
100
AcDbLine
 10
-1537.886724043739
 20
231.2946230562404
 30
0.0
 11
-1537.996619469988
 21
230.3875727537725
 31
0.0
  0
LINE
  5
77
330
1F
100
AcDbEntity
  8
0
100
AcDbLine
 10
-1537.545811320189
 20
232.1423233398547
 30
0.0
 11
-1537.886724043739
 21
231.2946230562404
 31
0.0
  0
LINE
  5
78
330
1F
100
AcDbEntity
  8
0
100
AcDbLine
 10
-1536.997113938063
 20
232.8729042311774
 30
0.0
 11
-1537.545811320189
 21
232.1423233398547
 31
0.0
  0
LINE
  5
79
330
1F
100
AcDbEntity
  8
0
100
AcDbLine
 10
-1536.278024717188
 20
233.4365778498073
 30
0.0
 11
-1536.997113938063
 21
232.8729042311774
 31
0.0
  0
LINE
  5
7A
330
1F
100
AcDbEntity
  8
0
100
AcDbLine
 10
-1535.437548399616
 20
233.7949307701495
 30
0.0
 11
-1536.278024717188
 21
233.4365778498073
 31
0.0
  0
LINE
  5
7B
330
1F
100
AcDbEntity
  8
0
100
AcDbLine
 10
-1534.532962057436
 20
233.9235418328889
 30
0.0
 11
-1535.437548399616
 21
233.7949307701495
 31
0.0
  0
LINE
  5
7C
330
1F
100
AcDbEntity
  8
0
100
AcDbLine
 10
-1533.625911754968
 20
233.8136464066393
 30
0.0
 11
-1534.532962057436
 21
233.9235418328889
 31
0.0
  0
LINE
  5
7D
330
1F
100
AcDbEntity
  8
0
100
AcDbLine
 10
-1532.778211471354
 20
233.4727336830891
 30
0.0
 11
-1533.625911754968
 21
233.8136464066393
 31
0.0
  0
LINE
  5
7E
330
1F
100
AcDbEntity
  8
0
100
AcDbLine
 10
-1532.047630580031
 20
232.9240363009633
 30
0.0
 11
-1532.778211471354
 21
233.4727336830891
 31
0.0
  0
LINE
  5
7F
330
1F
100
AcDbEntity
  8
0
100
AcDbLine
 10
-1531.483956961401
 20
232.2049470800884
 30
0.0
 11
-1532.047630580031
 21
232.9240363009633
 31
0.0
  0
LINE
  5
80
330
1F
100
AcDbEntity
  8
0
100
AcDbLine
 10
-1531.125604041059
 20
231.3644707625161
 30
0.0
 11
-1531.483956961401
 21
232.2049470800884
 31
0.0
  0
LINE
  5
81
330
1F
100
AcDbEntity
  8
0
100
AcDbLine
 10
-1530.996992978319
 20
230.4598844203359
 30
0.0
 11
-1531.125604041059
 21
231.3644707625161
 31
0.0
  0
LINE
  5
82
330
1F
100
AcDbEntity
  8
0
100
AcDbLine
 10
-1531.106888404569
 20
229.552834117868
 30
0.0
 11
-1530.996992978319
 21
230.4598844203359
 31
0.0
  0
LINE
  5
83
330
1F
100
AcDbEntity
  8
0
100
AcDbLine
 10
-1531.447801128119
 20
228.7051338342537
 30
0.0
 11
-1531.106888404569
 21
229.552834117868
 31
0.0
  0
LINE
  5
84
330
1F
100
AcDbEntity
  8
0
100
AcDbLine
 10
-1531.996498510245
 20
227.974552942931
 30
0.0
 11
-1531.447801128119
 21
228.7051338342537
 31
0.0
  0
LINE
  5
85
330
1F
100
AcDbEntity
  8
0
100
AcDbLine
 10
-1532.71558773112
 20
227.410879324301
 30
0.0
 11
-1531.996498510245
 21
227.974552942931
 31
0.0
  0
LINE
  5
86
330
1F
100
AcDbEntity
  8
0
100
AcDbLine
 10
-1533.556064048692
 20
227.0525264039589
 30
0.0
 11
-1532.71558773112
 21
227.410879324301
 31
0.0
  0
LINE
  5
87
330
1F
100
AcDbEntity
  8
0
100
AcDbLine
 10
-1534.460650390872
 20
226.9239153412195
 30
0.0
 11
-1533.556064048692
 21
227.0525264039589
 31
0.0
  0
LINE
  5
88
330
1F
100
AcDbEntity
  8
0
100
AcDbLine
 10
-1535.36770069334
 20
227.0338107674691
 30
0.0
 11
-1534.460650390872
 21
226.9239153412195
 31
0.0
  0
LINE
  5
89
330
1F
100
AcDbEntity
  8
0
100
AcDbLine
 10
-1536.215400976954
 20
227.3747234910193
 30
0.0
 11
-1535.36770069334
 21
227.0338107674691
 31
0.0
  0
LINE
  5
8A
330
1F
100
AcDbEntity
  8
0
100
AcDbLine
 10
-1536.945981868277
 20
227.9234208731451
 30
0.0
 11
-1536.215400976954
 21
227.3747234910193
 31
0.0
  0
LINE
  5
8B
330
1F
100
AcDbEntity
  8
0
100
AcDbLine
 10
-1537.509655486907
 20
228.64251009402
 30
0.0
 11
-1536.945981868277
 21
227.9234208731451
 31
0.0
  0
LINE
  5
8C
330
1F
100
AcDbEntity
  8
0
100
AcDbLine
 10
-1537.868008407249
 20
229.4829864115923
 30
0.0
 11
-1537.509655486907
 21
228.64251009402
 31
0.0
  0
LINE
  5
8D
330
1F
100
AcDbEntity
  8
0
100
AcDbLine
 10
-1535.13081984042
 20
526.9816323166987
 30
0.0
 11
-1534.21833628048
 21
526.9348241042017
 31
0.0
  0
LINE
  5
8E
330
1F
100
AcDbEntity
  8
0
100
AcDbLine
 10
-1536.000096420169
 20
527.2630137016876
 30
0.0
 11
-1535.13081984042
 21
526.9816323166987
 31
0.0
  0
LINE
  5
8F
330
1F
100
AcDbEntity
  8
0
100
AcDbLine
 10
-1536.766926257364
 20
527.7597925827856
 30
0.0
 11
-1536.000096420169
 21
527.2630137016876
 31
0.0
  0
LINE
  5
90
330
1F
100
AcDbEntity
  8
0
100
AcDbLine
 10
-1537.379051165847
 20
528.4381143002123
 30
0.0
 11
-1536.766926257364
 21
527.7597925827856
 31
0.0
  0
LINE
  5
91
330
1F
100
AcDbEntity
  8
0
100
AcDbLine
 10
-1537.794755844689
 20
529.2517523499046
 30
0.0
 11
-1537.379051165847
 21
528.4381143002123
 31
0.0
  0
LINE
  5
92
330
1F
100
AcDbEntity
  8
0
100
AcDbLine
 10
-1537.985710707011
 20
530.145258643376
 30
0.0
 11
-1537.794755844689
 21
529.2517523499046
 31
0.0
  0
LINE
  5
93
330
1F
100
AcDbEntity
  8
0
100
AcDbLine
 10
-1537.938902494514
 20
531.0577422033159
 30
0.0
 11
-1537.985710707011
 21
530.145258643376
 31
0.0
  0
LINE
  5
94
330
1F
100
AcDbEntity
  8
0
100
AcDbLine
 10
-1537.657521109525
 20
531.9270187830648
 30
0.0
 11
-1537.938902494514
 21
531.0577422033159
 31
0.0
  0
LINE
  5
95
330
1F
100
AcDbEntity
  8
0
100
AcDbLine
 10
-1537.160742228427
 20
532.6938486202598
 30
0.0
 11
-1537.657521109525
 21
531.9270187830648
 31
0.0
  0
LINE
  5
96
330
1F
100
AcDbEntity
  8
0
100
AcDbLine
 10
-1536.482420511
 20
533.3059735287428
 30
0.0
 11
-1537.160742228427
 21
532.6938486202598
 31
0.0
  0
LINE
  5
97
330
1F
100
AcDbEntity
  8
0
100
AcDbLine
 10
-1535.668782461308
 20
533.7216782075844
 30
0.0
 11
-1536.482420511
 21
533.3059735287428
 31
0.0
  0
LINE
  5
98
330
1F
100
AcDbEntity
  8
0
100
AcDbLine
 10
-1534.775276167836
 20
533.9126330699065
 30
0.0
 11
-1535.668782461308
 21
533.7216782075844
 31
0.0
  0
LINE
  5
99
330
1F
100
AcDbEntity
  8
0
100
AcDbLine
 10
-1533.862792607896
 20
533.8658248574095
 30
0.0
 11
-1534.775276167836
 21
533.9126330699065
 31
0.0
  0
LINE
  5
9A
330
1F
100
AcDbEntity
  8
0
100
AcDbLine
 10
-1532.993516028148
 20
533.5844434724207
 30
0.0
 11
-1533.862792607896
 21
533.8658248574095
 31
0.0
  0
LINE
  5
9B
330
1F
100
AcDbEntity
  8
0
100
AcDbLine
 10
-1532.226686190952
 20
533.0876645913227
 30
0.0
 11
-1532.993516028148
 21
533.5844434724207
 31
0.0
  0
LINE
  5
9C
330
1F
100
AcDbEntity
  8
0
100
AcDbLine
 10
-1531.61456128247
 20
532.4093428738959
 30
0.0
 11
-1532.226686190952
 21
533.0876645913227
 31
0.0
  0
LINE
  5
9D
330
1F
100
AcDbEntity
  8
0
100
AcDbLine
 10
-1531.198856603628
 20
531.5957048242036
 30
0.0
 11
-1531.61456128247
 21
532.4093428738959
 31
0.0
  0
LINE
  5
9E
330
1F
100
AcDbEntity
  8
0
100
AcDbLine
 10
-1531.007901741306
 20
530.7021985307322
 30
0.0
 11
-1531.198856603628
 21
531.5957048242036
 31
0.0
  0
LINE
  5
9F
330
1F
100
AcDbEntity
  8
0
100
AcDbLine
 10
-1531.054709953803
 20
529.7897149707923
 30
0.0
 11
-1531.007901741306
 21
530.7021985307322
 31
0.0
  0
LINE
  5
A0
330
1F
100
AcDbEntity
  8
0
100
AcDbLine
 10
-1531.336091338791
 20
528.9204383910435
 30
0.0
 11
-1531.054709953803
 21
529.7897149707923
 31
0.0
  0
LINE
  5
A1
330
1F
100
AcDbEntity
  8
0
100
AcDbLine
 10
-1531.83287021989
 20
528.1536085538485
 30
0.0
 11
-1531.336091338791
 21
528.9204383910435
 31
0.0
  0
LINE
  5
A2
330
1F
100
AcDbEntity
  8
0
100
AcDbLine
 10
-1532.511191937316
 20
527.5414836453654
 30
0.0
 11
-1531.83287021989
 21
528.1536085538485
 31
0.0
  0
LINE
  5
A3
330
1F
100
AcDbEntity
  8
0
100
AcDbLine
 10
-1533.324829987009
 20
527.1257789665237
 30
0.0
 11
-1532.511191937316
 21
527.5414836453654
 31
0.0
  0
LINE
  5
A4
330
1F
100
AcDbEntity
  8
0
100
AcDbLine
 10
-1534.21833628048
 20
526.9348241042017
 30
0.0
 11
-1533.324829987009
 21
527.1257789665237
 31
0.0
  0
LINE
  5
A5
330
1F
100
AcDbEntity
  8
0
100
AcDbLine
 10
-1844.496806224164
 20
896.2237285870583
 30
0.0
 11
-1824.496806224164
 21
896.2237285870586
 31
0.0
  0
LINE
  5
A6
330
1F
100
AcDbEntity
  8
0
100
AcDbLine
 10
-1844.496806224164
 20
896.2237285870583
 30
0.0
 11
-1844.496806224153
 21
180.4243532307882
 31
0.0
  0
LINE
  5
A7
330
1F
100
AcDbEntity
  8
0
100
AcDbLine
 10
-1824.496806224164
 20
896.2237285870586
 30
0.0
 11
-1824.496806224153
 21
180.4237465307441
 31
0.0
  0
LINE
  5
A8
330
1F
100
AcDbEntity
  8
0
100
AcDbLine
 10
-1832.286194829224
 20
533.1372497792665
 30
0.0
 11
-1833.063830549736
 21
533.6169371171246
 31
0.0
  0
LINE
  5
A9
330
1F
100
AcDbEntity
  8
0
100
AcDbLine
 10
-1831.659208622068
 20
532.4726404564651
 30
0.0
 11
-1832.286194829224
 21
533.1372497792665
 31
0.0
  0
LINE
  5
AA
330
1F
100
AcDbEntity
  8
0
100
AcDbLine
 10
-1831.225600002144
 20
531.6684011757501
 30
0.0
 11
-1831.659208622068
 21
532.4726404564651
 31
0.0
  0
LINE
  5
AB
330
1F
100
AcDbEntity
  8
0
100
AcDbLine
 10
-1831.014918680326
 20
530.7793395150343
 30
0.0
 11
-1831.225600002144
 21
531.6684011757501
 31
0.0
  0
LINE
  5
AC
330
1F
100
AcDbEntity
  8
0
100
AcDbLine
 10
-1831.041522240528
 20
529.8660435572516
 30
0.0
 11
-1831.014918680326
 21
530.7793395150343
 31
0.0
  0
LINE
  5
AD
330
1F
100
AcDbEntity
  8
0
100
AcDbLine
 10
-1831.303597694088
 20
528.9907529126318
 30
0.0
 11
-1831.041522240528
 21
529.8660435572516
 31
0.0
  0
LINE
  5
AE
330
1F
100
AcDbEntity
  8
0
100
AcDbLine
 10
-1831.783285031946
 20
528.2131171921196
 30
0.0
 11
-1831.303597694088
 21
528.9907529126318
 31
0.0
  0
LINE
  5
AF
330
1F
100
AcDbEntity
  8
0
100
AcDbLine
 10
-1832.447894354748
 20
527.5861309849641
 30
0.0
 11
-1831.783285031946
 21
528.2131171921196
 31
0.0
  0
LINE
  5
B0
330
1F
100
AcDbEntity
  8
0
100
AcDbLine
 10
-1833.252133635463
 20
527.1525223650394
 30
0.0
 11
-1832.447894354748
 21
527.5861309849641
 31
0.0
  0
LINE
  5
B1
330
1F
100
AcDbEntity
  8
0
100
AcDbLine
 10
-1834.141195296178
 20
526.941841043221
 30
0.0
 11
-1833.252133635463
 21
527.1525223650394
 31
0.0
  0
LINE
  5
B2
330
1F
100
AcDbEntity
  8
0
100
AcDbLine
 10
-1835.054491253961
 20
526.9684446034237
 30
0.0
 11
-1834.141195296178
 21
526.941841043221
 31
0.0
  0
LINE
  5
B3
330
1F
100
AcDbEntity
  8
0
100
AcDbLine
 10
-1835.929781898581
 20
527.230520056984
 30
0.0
 11
-1835.054491253961
 21
526.9684446034237
 31
0.0
  0
LINE
  5
B4
330
1F
100
AcDbEntity
  8
0
100
AcDbLine
 10
-1836.707417619093
 20
527.7102073948421
 30
0.0
 11
-1835.929781898581
 21
527.230520056984
 31
0.0
  0
LINE
  5
B5
330
1F
100
AcDbEntity
  8
0
100
AcDbLine
 10
-1837.334403826249
 20
528.3748167176434
 30
0.0
 11
-1836.707417619093
 21
527.7102073948421
 31
0.0
  0
LINE
  5
B6
330
1F
100
AcDbEntity
  8
0
100
AcDbLine
 10
-1837.768012446174
 20
529.1790559983584
 30
0.0
 11
-1837.334403826249
 21
528.3748167176434
 31
0.0
  0
LINE
  5
B7
330
1F
100
AcDbEntity
  8
0
100
AcDbLine
 10
-1837.978693767992
 20
530.0681176590742
 30
0.0
 11
-1837.768012446174
 21
529.1790559983584
 31
0.0
  0
LINE
  5
B8
330
1F
100
AcDbEntity
  8
0
100
AcDbLine
 10
-1837.952090207789
 20
530.9814136168569
 30
0.0
 11
-1837.978693767992
 21
530.0681176590742
 31
0.0
  0
LINE
  5
B9
330
1F
100
AcDbEntity
  8
0
100
AcDbLine
 10
-1837.690014754229
 20
531.8567042614768
 30
0.0
 11
-1837.952090207789
 21
530.9814136168569
 31
0.0
  0
LINE
  5
BA
330
1F
100
AcDbEntity
  8
0
100
AcDbLine
 10
-1837.210327416371
 20
532.6343399819889
 30
0.0
 11
-1837.690014754229
 21
531.8567042614768
 31
0.0
  0
LINE
  5
BB
330
1F
100
AcDbEntity
  8
0
100
AcDbLine
 10
-1836.54571809357
 20
533.2613261891444
 30
0.0
 11
-1837.210327416371
 21
532.6343399819889
 31
0.0
  0
LINE
  5
BC
330
1F
100
AcDbEntity
  8
0
100
AcDbLine
 10
-1835.741478812854
 20
533.6949348090692
 30
0.0
 11
-1836.54571809357
 21
533.2613261891444
 31
0.0
  0
LINE
  5
BD
330
1F
100
AcDbEntity
  8
0
100
AcDbLine
 10
-1834.852417152139
 20
533.9056161308876
 30
0.0
 11
-1835.741478812854
 21
533.6949348090692
 31
0.0
  0
LINE
  5
BE
330
1F
100
AcDbEntity
  8
0
100
AcDbLine
 10
-1833.939121194356
 20
533.879012570685
 30
0.0
 11
-1834.852417152139
 21
533.9056161308876
 31
0.0
  0
LINE
  5
BF
330
1F
100
AcDbEntity
  8
0
100
AcDbLine
 10
-1833.063830549736
 20
533.6169371171246
 30
0.0
 11
-1833.939121194356
 21
533.879012570685
 31
0.0
  0
LINE
  5
C0
330
1F
100
AcDbEntity
  8
0
100
AcDbLine
 10
-1836.098775543533
 20
233.5355920640992
 30
0.0
 11
-1836.849599296283
 21
233.0149377178922
 31
0.0
  0
LINE
  5
C1
330
1F
100
AcDbEntity
  8
0
100
AcDbLine
 10
-1835.238780229047
 20
233.844178056943
 30
0.0
 11
-1836.098775543533
 21
233.5355920640992
 31
0.0
  0
LINE
  5
C2
330
1F
100
AcDbEntity
  8
0
100
AcDbLine
 10
-1834.328220612297
 20
233.9196660709739
 30
0.0
 11
-1835.238780229047
 21
233.844178056943
 31
0.0
  0
LINE
  5
C3
330
1F
100
AcDbEntity
  8
0
100
AcDbLine
 10
-1833.429149826394
 20
233.7569117227857
 30
0.0
 11
-1834.328220612297
 21
233.9196660709739
 31
0.0
  0
LINE
  5
C4
330
1F
100
AcDbEntity
  8
0
100
AcDbLine
 10
-1832.602838059614
 20
233.3670064522427
 30
0.0
 11
-1833.429149826394
 21
233.7569117227857
 31
0.0
  0
LINE
  5
C5
330
1F
100
AcDbEntity
  8
0
100
AcDbLine
 10
-1831.905597093316
 20
232.776521659184
 30
0.0
 11
-1832.602838059614
 21
233.3670064522427
 31
0.0
  0
LINE
  5
C6
330
1F
100
AcDbEntity
  8
0
100
AcDbLine
 10
-1831.384942747109
 20
232.0256979064338
 30
0.0
 11
-1831.905597093316
 21
232.776521659184
 31
0.0
  0
LINE
  5
C7
330
1F
100
AcDbEntity
  8
0
100
AcDbLine
 10
-1831.076356754265
 20
231.1657025919476
 30
0.0
 11
-1831.384942747109
 21
232.0256979064338
 31
0.0
  0
LINE
  5
C8
330
1F
100
AcDbEntity
  8
0
100
AcDbLine
 10
-1831.000868740234
 20
230.2551429751977
 30
0.0
 11
-1831.076356754265
 21
231.1657025919476
 31
0.0
  0
LINE
  5
C9
330
1F
100
AcDbEntity
  8
0
100
AcDbLine
 10
-1831.163623088422
 20
229.3560721892951
 30
0.0
 11
-1831.000868740234
 21
230.2551429751977
 31
0.0
  0
LINE
  5
CA
330
1F
100
AcDbEntity
  8
0
100
AcDbLine
 10
-1831.553528358965
 20
228.5297604225142
 30
0.0
 11
-1831.163623088422
 21
229.3560721892951
 31
0.0
  0
LINE
  5
CB
330
1F
100
AcDbEntity
  8
0
100
AcDbLine
 10
-1832.144013152024
 20
227.8325194562162
 30
0.0
 11
-1831.553528358965
 21
228.5297604225142
 31
0.0
  0
LINE
  5
CC
330
1F
100
AcDbEntity
  8
0
100
AcDbLine
 10
-1832.894836904774
 20
227.3118651100092
 30
0.0
 11
-1832.144013152024
 21
227.8325194562162
 31
0.0
  0
LINE
  5
CD
330
1F
100
AcDbEntity
  8
0
100
AcDbLine
 10
-1833.75483221926
 20
227.0032791171654
 30
0.0
 11
-1832.894836904774
 21
227.3118651100092
 31
0.0
  0
LINE
  5
CE
330
1F
100
AcDbEntity
  8
0
100
AcDbLine
 10
-1834.66539183601
 20
226.9277911031345
 30
0.0
 11
-1833.75483221926
 21
227.0032791171654
 31
0.0
  0
LINE
  5
CF
330
1F
100
AcDbEntity
  8
0
100
AcDbLine
 10
-1835.564462621913
 20
227.0905454513227
 30
0.0
 11
-1834.66539183601
 21
226.9277911031345
 31
0.0
  0
LINE
  5
D0
330
1F
100
AcDbEntity
  8
0
100
AcDbLine
 10
-1836.390774388694
 20
227.4804507218657
 30
0.0
 11
-1835.564462621913
 21
227.0905454513227
 31
0.0
  0
LINE
  5
D1
330
1F
100
AcDbEntity
  8
0
100
AcDbLine
 10
-1837.088015354992
 20
228.0709355149244
 30
0.0
 11
-1836.390774388694
 21
227.4804507218657
 31
0.0
  0
LINE
  5
D2
330
1F
100
AcDbEntity
  8
0
100
AcDbLine
 10
-1837.608669701199
 20
228.8217592676745
 30
0.0
 11
-1837.088015354992
 21
228.0709355149244
 31
0.0
  0
LINE
  5
D3
330
1F
100
AcDbEntity
  8
0
100
AcDbLine
 10
-1837.917255694043
 20
229.6817545821607
 30
0.0
 11
-1837.608669701199
 21
228.8217592676745
 31
0.0
  0
LINE
  5
D4
330
1F
100
AcDbEntity
  8
0
100
AcDbLine
 10
-1837.992743708073
 20
230.5923141989105
 30
0.0
 11
-1837.917255694043
 21
229.6817545821607
 31
0.0
  0
LINE
  5
D5
330
1F
100
AcDbEntity
  8
0
100
AcDbLine
 10
-1837.829989359885
 20
231.4913849848133
 30
0.0
 11
-1837.992743708073
 21
230.5923141989105
 31
0.0
  0
LINE
  5
D6
330
1F
100
AcDbEntity
  8
0
100
AcDbLine
 10
-1837.440084089342
 20
232.3176967515942
 30
0.0
 11
-1837.829989359885
 21
231.4913849848133
 31
0.0
  0
LINE
  5
D7
330
1F
100
AcDbEntity
  8
0
100
AcDbLine
 10
-1836.849599296283
 20
233.0149377178922
 30
0.0
 11
-1837.440084089342
 21
232.3176967515942
 31
0.0
  0
LINE
  5
D8
330
1F
100
AcDbEntity
  8
0
100
AcDbLine
 10
-1824.496806224164
 20
896.2237285870586
 30
0.0
 11
-1544.496806224164
 21
896.2237285870572
 31
0.0
  0
LINE
  5
D9
330
1F
100
AcDbEntity
  8
0
100
AcDbLine
 10
-1544.541418796693
 20
180.423728885082
 30
0.0
 11
-1824.496806224153
 21
180.4237465307441
 31
0.0
  0
LINE
  5
DA
330
1F
100
AcDbEntity
  8
0
100
AcDbLine
 10
-1524.541437582493
 20
180.4243531876771
 30
0.0
 11
-1524.496806224153
 21
180.4237472245002
 31
0.0
  0
LINE
  5
DB
330
1F
100
AcDbEntity
  8
0
100
AcDbLine
 10
-1524.541437582493
 20
916.2243532719693
 30
0.0
 11
-1524.497847341667
 21
916.2237432418138
 31
0.0
  0
LINE
  5
DC
330
1F
100
AcDbEntity
  8
0
100
AcDbLine
 10
-1824.541481861511
 20
916.2243532719693
 30
0.0
 11
-1824.502291956004
 21
916.2238048229657
 31
0.0
  0
LINE
  5
DD
330
1F
100
AcDbEntity
  8
0
100
AcDbLine
 10
-1824.541446648585
 20
180.4243527451586
 30
0.0
 11
-1824.496806224153
 21
180.4237465307441
 31
0.0
  0
LINE
  5
DE
330
1F
100
AcDbEntity
  8
0
100
AcDbLine
 10
-1046.719131534443
 20
916.2237285870607
 30
0.0
 11
-1046.745642986991
 21
916.2237483266691
 31
0.0
  0
LINE
  5
DF
330
1F
100
AcDbEntity
  8
0
100
AcDbLine
 10
-2302.318027720046
 20
160.4237256861187
 30
0.0
 11
-2302.344539172594
 21
160.4237454257269
 31
0.0
  0
LINE
  5
E0
330
1F
100
AcDbEntity
  8
0
100
AcDbLine
 10
-2302.344538829964
 20
896.2237480631936
 30
0.0
 11
-2302.318027740132
 21
896.2237480631936
 31
0.0
  0
LINE
  5
E1
330
1F
100
AcDbEntity
  8
0
100
AcDbLine
 10
-1046.719131982003
 20
896.2237285432211
 30
0.0
 11
-1046.719131534443
 21
916.2237285870607
 31
0.0
  0
LINE
  5
E2
330
1F
100
AcDbEntity
  8
0
100
AcDbLine
 10
-1066.74562467743
 20
180.4237482830593
 30
0.0
 11
-1066.745624732236
 21
896.2237480631933
 31
0.0
  0
LINE
  5
E3
330
1F
100
AcDbEntity
  8
0
100
AcDbLine
 10
-1066.745624618184
 20
-745.8398399085261
 30
0.0
 11
-1066.745623408611
 21
160.4237285693148
 31
0.0
  0
LINE
  5
E4
330
1F
100
AcDbEntity
  8
0
100
AcDbLine
 10
-2322.3180101198
 20
896.2237285434423
 30
0.0
 11
-2322.344521230027
 21
896.2207042415696
 31
0.0
  0
LINE
  5
E5
330
1F
100
AcDbEntity
  8
0
100
AcDbLine
 10
-1066.745623408611
 20
160.4237285693148
 30
0.0
 11
-1046.74564013153
 21
160.4237482825309
 31
0.0
  0
LINE
  5
E6
330
1F
100
AcDbEntity
  8
0
100
AcDbLine
 10
-2322.318009977048
 20
916.2237347503824
 30
0.0
 11
-2322.3180101198
 21
896.2237285434423
 31
0.0
  0
LINE
  5
E7
330
1F
100
AcDbEntity
  8
0
100
AcDbLine
 10
-2302.331468849665
 20
30.66529168737866
 30
0.0
 11
-2302.330261284222
 21
30.73539753923825
 31
0.0
  0
LINE
  5
E8
330
1F
100
AcDbEntity
  8
0
100
AcDbLine
 10
-2302.330967159311
 20
37.6550520998814
 30
0.0
 11
-2302.332174724754
 21
37.5849462480219
 31
0.0
  0
LINE
  5
E9
330
1F
100
AcDbEntity
  8
0
100
AcDbLine
 10
-2302.333603026771
 20
-362.8087377734647
 30
0.0
 11
-2302.334563885398
 21
-363.3649523804326
 31
0.0
  0
LINE
  5
EA
330
1F
100
AcDbEntity
  8
0
100
AcDbLine
 10
-2302.332484083128
 20
-362.4590869609515
 30
0.0
 11
-2302.333603026771
 21
-362.8087377734647
 31
0.0
  0
LINE
  5
EB
330
1F
100
AcDbEntity
  8
0
100
AcDbLine
 10
-2302.331283308629
 20
-362.3398280679409
 30
0.0
 11
-2302.332484083128
 21
-362.4590869609515
 31
0.0
  0
LINE
  5
EC
330
1F
100
AcDbEntity
  8
0
100
AcDbLine
 10
-2302.330082532418
 20
-369.220569174928
 30
0.0
 11
-2302.333603025289
 21
-368.8709155999538
 31
0.0
  0
LINE
  5
ED
330
1F
100
AcDbEntity
  8
0
100
AcDbLine
 10
-2302.331283306917
 20
-369.3398280679386
 30
0.0
 11
-2302.330082532418
 21
-369.220569174928
 31
0.0
  0
LINE
  5
EE
330
1F
100
AcDbEntity
  8
0
100
AcDbLine
 10
-1046.73874185951
 20
-369.334000752864
 30
0.0
 11
-1046.739965072977
 21
-369.2671675444168
 31
0.0
  0
LINE
  5
EF
330
1F
100
AcDbEntity
  8
0
100
AcDbLine
 10
-1046.739283858245
 20
-362.3456449066732
 30
0.0
 11
-1046.738060644778
 21
-362.4124781151204
 31
0.0
  0
LINE
  5
F0
330
1F
100
AcDbEntity
  8
0
100
AcDbLine
 10
-1046.738634691763
 20
30.67151430165262
 30
0.0
 11
-1046.739859633318
 21
30.71753503775509
 31
0.0
  0
LINE
  5
F1
330
1F
100
AcDbEntity
  8
0
100
AcDbLine
 10
-1046.739390628638
 20
37.64884003865818
 30
0.0
 11
-1046.738165687083
 21
37.60281930255571
 31
0.0
  0
LINE
  5
F2
330
1F
100
AcDbEntity
  8
0
100
AcDbLine
 10
-1046.719130060933
 20
-595.8398399091617
 30
0.0
 11
-1046.719130038231
 21
-567.5555600575077
 31
0.0
  0
LINE
  5
F3
330
1F
100
AcDbEntity
  8
0
100
AcDbLine
 10
-1046.719130060933
 20
-595.8398399091617
 30
0.0
 11
-1046.520296975075
 21
-745.8399121976528
 31
0.0
  0
LINE
  5
F4
330
1F
100
AcDbEntity
  8
0
100
AcDbLine
 10
-1046.719130038231
 20
-567.5555600575077
 30
0.0
 11
-1046.482804637425
 21
-745.8399258285046
 31
0.0
  0
LINE
  5
F5
330
1F
100
AcDbEntity
  8
0
100
AcDbLine
 10
-1046.482804637425
 20
-745.8399258285046
 30
0.0
 11
-1046.520296975075
 21
-745.8399121976528
 31
0.0
  0
LINE
  5
F6
330
1F
100
AcDbEntity
  8
0
100
AcDbLine
 10
-653.0580498523524
 20
-595.8396809005204
 30
0.0
 11
-652.8592168823823
 21
-745.8398202058698
 31
0.0
  0
LINE
  5
F7
330
1F
100
AcDbEntity
  8
0
100
AcDbLine
 10
-653.0580498523524
 20
-567.5555554919755
 30
0.0
 11
-652.8217245628007
 21
-745.8398202058698
 31
0.0
  0
LINE
  5
F8
330
1F
100
AcDbEntity
  8
0
100
AcDbLine
 10
641.3903878136102
 20
-595.839839919563
 30
0.0
 11
641.3903878363129
 21
-567.5555600679093
 31
0.0
  0
LINE
  5
F9
330
1F
100
AcDbEntity
  8
0
100
AcDbLine
 10
641.3903878136102
 20
-595.839839919563
 30
0.0
 11
641.5892208994685
 21
-745.8399122080561
 31
0.0
  0
LINE
  5
FA
330
1F
100
AcDbEntity
  8
0
100
AcDbLine
 10
641.3903878363129
 20
-567.5555600679093
 30
0.0
 11
641.6267132210543
 21
-745.839925838906
 31
0.0
  0
LINE
  5
FB
330
1F
100
AcDbEntity
  8
0
100
AcDbLine
 10
-673.0918088528722
 20
702.3566817639806
 30
0.0
 11
-673.0918088002578
 21
-765.8398202062426
 31
0.0
  0
LINE
  5
FC
330
1F
100
AcDbEntity
  8
0
100
AcDbLine
 10
641.3903880836765
 20
-765.8398399195598
 30
0.0
 11
641.3903878136102
 21
-745.839839919563
 31
0.0
  0
LINE
  5
FD
330
1F
100
AcDbEntity
  8
0
100
AcDbLine
 10
-653.0918245615119
 20
692.8827524480574
 30
0.0
 11
-653.0653134833973
 21
692.8827327343437
 31
0.0
  0
LINE
  5
FE
330
1F
100
AcDbEntity
  8
0
100
AcDbLine
 10
-653.0802621112224
 20
430.9009698686513
 30
0.0
 11
-653.0778754223803
 21
430.6997422033702
 31
0.0
  0
LINE
  5
FF
330
1F
100
AcDbEntity
  8
0
100
AcDbLine
 10
-653.0768799424695
 20
437.4193875513655
 30
0.0
 11
-653.0792666313116
 21
437.6206152166466
 31
0.0
  0
LINE
  5
100
330
1F
100
AcDbEntity
  8
0
100
AcDbLine
 10
641.3903880836765
 20
-765.8398399195598
 30
0.0
 11
641.7235159821711
 21
-765.8399610328205
 31
0.0
  0
LINE
  5
101
330
1F
100
AcDbEntity
  8
0
100
AcDbLine
 10
-653.0653136949426
 20
160.423729454168
 30
0.0
 11
621.3638952362844
 21
160.4237288641563
 31
0.0
  0
LINE
  5
102
330
1F
100
AcDbEntity
  8
0
100
AcDbLine
 10
621.3638952809057
 20
180.423748877285
 30
0.0
 11
621.3638952362844
 21
160.4237288641563
 31
0.0
  0
LINE
  5
103
330
1F
100
AcDbEntity
  8
0
100
AcDbLine
 10
641.363877005562
 20
-765.8398202058462
 30
0.0
 11
641.363877005562
 21
374.1601797941538
 31
0.0
  0
LINE
  5
104
330
1F
100
AcDbEntity
  8
0
100
AcDbLine
 10
621.3638955089439
 20
361.5620775118645
 30
0.0
 11
621.3638952809057
 21
180.423748877285
 31
0.0
  0
LINE
  5
105
330
1F
100
AcDbEntity
  8
0
100
AcDbLine
 10
-440.9615071679632
 20
892.3972837608508
 30
0.0
 11
-673.0918088528722
 21
702.3566817639806
 31
0.0
  0
LINE
  5
106
330
1F
100
AcDbEntity
  8
0
100
AcDbLine
 10
-438.1306235441949
 20
868.8673459641642
 30
0.0
 11
621.3638955089439
 21
361.5620775118645
 31
0.0
  0
LINE
  5
107
330
1F
100
AcDbEntity
  8
0
100
AcDbLine
 10
621.3638952362844
 20
160.4237288641563
 30
0.0
 11
621.3638940620361
 21
-745.8398399190521
 31
0.0
  0
LINE
  5
108
330
1F
100
AcDbEntity
  8
0
100
AcDbLine
 10
641.363877005562
 20
374.1601797941538
 30
0.0
 11
641.3903880836765
 21
374.1601600804402
 31
0.0
  0
LINE
  5
109
330
1F
100
AcDbEntity
  8
0
100
AcDbLine
 10
641.363877005562
 20
-765.8398202058462
 30
0.0
 11
641.3903880836765
 21
-765.8398399195598
 31
0.0
  0
LINE
  5
10A
330
1F
100
AcDbEntity
  8
0
100
AcDbLine
 10
-653.0653136949426
 20
160.423729454168
 30
0.0
 11
-653.0918252186166
 21
160.423749440836
 31
0.0
  0
LINE
  5
10B
330
1F
100
AcDbEntity
  8
0
100
AcDbLine
 10
-653.078571045524
 20
-169.3398212899933
 30
0.0
 11
-653.0773702715118
 21
-169.220561682236
 31
0.0
  0
LINE
  5
10C
330
1F
100
AcDbEntity
  8
0
100
AcDbLine
 10
-653.080890762721
 20
-168.8709102027926
 30
0.0
 11
-653.0773702715118
 21
-169.220561682236
 31
0.0
  0
LINE
  5
10D
330
1F
100
AcDbEntity
  8
0
100
AcDbLine
 10
-653.0808907621752
 20
-162.8087323763015
 30
0.0
 11
-653.0818516205665
 21
-163.3649475552093
 31
0.0
  0
LINE
  5
10E
330
1F
100
AcDbEntity
  8
0
100
AcDbLine
 10
-653.0797718189066
 20
-162.4590808977506
 30
0.0
 11
-653.0808907621752
 21
-162.8087323763015
 31
0.0
  0
LINE
  5
10F
330
1F
100
AcDbEntity
  8
0
100
AcDbLine
 10
-653.0785710448945
 20
-162.3398212899933
 30
0.0
 11
-653.0797718189066
 21
-162.4590808977506
 31
0.0
  0
LINE
  5
110
330
1F
100
AcDbEntity
  8
0
100
AcDbLine
 10
-440.9615071679632
 20
892.3972837608508
 30
0.0
 11
-440.9349960898489
 21
892.397264047137
 31
0.0
  0
LINE
  5
111
330
1F
100
AcDbEntity
  8
0
100
AcDbLine
 10
-653.0653134833973
 20
692.8827327343437
 30
0.0
 11
-438.1306235441949
 21
868.8673459641642
 31
0.0
  0
LINE
  5
112
330
1F
100
AcDbEntity
  8
0
100
AcDbLine
 10
641.7235158405667
 20
-745.8399610328182
 30
0.0
 11
641.7235159821711
 21
-765.8399610328205
 31
0.0
  0
LINE
  5
113
330
1F
100
AcDbEntity
  8
0
100
AcDbLine
 10
-1026.120911397879
 20
-765.8400998784248
 30
0.0
 11
-692.1209113978788
 21
-765.8400998784248
 31
0.0
  0
LINE
  5
114
330
1F
100
AcDbEntity
  8
0
100
AcDbLine
 10
-692.1209113978788
 20
-765.8400998784248
 30
0.0
 11
-692.1209113978788
 21
-745.8400998784248
 31
0.0
  0
LINE
  5
115
330
1F
100
AcDbEntity
  8
0
100
AcDbLine
 10
-1026.120911397879
 20
-765.8400998784248
 30
0.0
 11
-1026.120911397879
 21
-745.8400998784248
 31
0.0
  0
LINE
  5
116
330
1F
100
AcDbEntity
  8
0
100
AcDbLine
 10
-1026.120911397879
 20
160.4237286372818
 30
0.0
 11
-692.1209113978788
 21
160.4237286372818
 31
0.0
  0
LINE
  5
117
330
1F
100
AcDbEntity
  8
0
100
AcDbLine
 10
-692.1209113978788
 20
180.4237286372819
 30
0.0
 11
-1006.120911397879
 21
180.4237286372819
 31
0.0
  0
LINE
  5
118
330
1F
100
AcDbEntity
  8
0
100
AcDbLine
 10
-692.1209113978788
 20
160.4237286372818
 30
0.0
 11
-692.1209113978788
 21
180.4237286372819
 31
0.0
  0
LINE
  5
119
330
1F
100
AcDbEntity
  8
0
100
AcDbLine
 10
-1026.120911397879
 20
160.4237286372818
 30
0.0
 11
-1026.120911397879
 21
180.4237286372819
 31
0.0
  0
LINE
  5
11A
330
1F
100
AcDbEntity
  8
0
100
AcDbLine
 10
-1026.120911397879
 20
682.3566439356214
 30
0.0
 11
-692.1209113978788
 21
682.3566439356214
 31
0.0
  0
LINE
  5
11B
330
1F
100
AcDbEntity
  8
0
100
AcDbLine
 10
-1026.120911397879
 20
702.3566439356213
 30
0.0
 11
-692.1209113978788
 21
702.3566439356213
 31
0.0
  0
LINE
  5
11C
330
1F
100
AcDbEntity
  8
0
100
AcDbLine
 10
-692.1209113978788
 20
682.3566439356214
 30
0.0
 11
-692.1209113978788
 21
702.3566439356213
 31
0.0
  0
LINE
  5
11D
330
1F
100
AcDbEntity
  8
0
100
AcDbLine
 10
-1026.120911397879
 20
682.3566439356214
 30
0.0
 11
-1026.120911397879
 21
702.3566439356213
 31
0.0
  0
LINE
  5
11E
330
1F
100
AcDbEntity
  8
0
100
AcDbLine
 10
-692.3235911692801
 20
-595.8398446438177
 30
0.0
 11
-692.3235911465774
 21
-567.5555647921638
 31
0.0
  0
LINE
  5
11F
330
1F
100
AcDbEntity
  8
0
100
AcDbLine
 10
-692.3235911692801
 20
-595.8398446438177
 30
0.0
 11
-692.1209113978788
 21
-745.8400998784248
 31
0.0
  0
LINE
  5
120
330
1F
100
AcDbEntity
  8
0
100
AcDbLine
 10
-692.120911397879
 20
-567.5555647922697
 30
0.0
 11
-692.3235911465774
 21
-567.5555647921638
 31
0.0
  0
LINE
  5
121
330
1F
100
AcDbEntity
  8
0
100
AcDbLine
 10
-692.120911397879
 20
-595.8398446439237
 30
0.0
 11
-692.3235911692801
 21
-595.8398446438177
 31
0.0
  0
LINE
  5
122
330
1F
100
AcDbEntity
  8
0
100
AcDbLine
 10
-673.0918088528722
 20
702.3566817639806
 30
0.0
 11
-692.1209113978788
 21
702.3566439356213
 31
0.0
  0
LINE
  5
123
330
1F
100
AcDbEntity
  8
0
100
AcDbLine
 10
-1026.12091139788
 20
-720.4710428095268
 30
0.0
 11
-1026.087283589053
 21
-745.8399305736166
 31
0.0
  0
LINE
  5
124
330
1F
100
AcDbEntity
  8
0
100
AcDbLine
 10
-1026.087283589053
 20
-745.8399305736166
 30
0.0
 11
-1026.120911397879
 21
-745.8400998784248
 31
0.0
  0
LINE
  5
125
330
1F
100
AcDbEntity
  8
0
100
AcDbLine
 10
-1046.32359116928
 20
-595.8398446438177
 30
0.0
 11
-1046.323591146578
 21
-567.5555647921638
 31
0.0
  0
LINE
  5
126
330
1F
100
AcDbEntity
  8
0
100
AcDbLine
 10
-1046.32359116928
 20
-595.8398446438177
 30
0.0
 11
-1046.120911397885
 21
-745.8399745826102
 31
0.0
  0
LINE
  5
127
330
1F
100
AcDbEntity
  8
0
100
AcDbLine
 10
-1046.120911397879
 20
-567.5555647922697
 30
0.0
 11
-1046.323591146578
 21
-567.5555647921638
 31
0.0
  0
LINE
  5
128
330
1F
100
AcDbEntity
  8
0
100
AcDbLine
 10
-1046.120911397879
 20
-595.8398446439237
 30
0.0
 11
-1046.32359116928
 21
-595.8398446438177
 31
0.0
  0
LINE
  5
129
330
1F
100
AcDbEntity
  8
0
100
AcDbLine
 10
-1026.120911397879
 20
-765.8400998784248
 30
0.0
 11
-1046.120911398022
 21
-765.8399763445968
 31
0.0
  0
LINE
  5
12A
330
1F
100
AcDbEntity
  8
0
100
AcDbLine
 10
-1026.120911397879
 20
702.3566439356213
 30
0.0
 11
-1046.120911397879
 21
702.3566439356213
 31
0.0
  0
LINE
  5
12B
330
1F
100
AcDbEntity
  8
0
100
AcDbLine
 10
-2302.318027737036
 20
-595.8398398740355
 30
0.0
 11
-2302.318027714333
 21
-567.5555600223817
 31
0.0
  0
LINE
  5
12C
330
1F
100
AcDbEntity
  8
0
100
AcDbLine
 10
-2302.318027737036
 20
-595.8398398740355
 30
0.0
 11
-2302.119194773131
 21
-745.8398201600754
 31
0.0
  0
LINE
  5
12D
330
1F
100
AcDbEntity
  8
0
100
AcDbLine
 10
-2302.318027714333
 20
-567.5555600223817
 30
0.0
 11
-2302.08170245355
 21
-745.8398201600764
 31
0.0
  0
LINE
  5
12E
330
1F
100
AcDbEntity
  8
0
100
AcDbLine
 10
-2798.64408690763
 20
916.2237481520364
 30
0.0
 11
-2778.644122048553
 21
916.2237481520425
 31
0.0
  0
LINE
  5
12F
330
1F
100
AcDbEntity
  8
0
100
AcDbLine
 10
-2778.617592671814
 20
180.4233374461026
 30
0.0
 11
-2778.617593376106
 21
896.2237090521596
 31
0.0
  0
LINE
  5
130
330
1F
100
AcDbEntity
  8
0
100
AcDbLine
 10
-2798.644085252609
 20
-765.8398202068837
 30
0.0
 11
-2798.64408690763
 21
916.2237481520364
 31
0.0
  0
LINE
  5
131
330
1F
100
AcDbEntity
  8
0
100
AcDbLine
 10
-2778.644120393533
 20
-765.8398202068776
 30
0.0
 11
-2778.644120413211
 21
-745.8398398944955
 31
0.0
  0
LINE
  5
132
330
1F
100
AcDbEntity
  8
0
100
AcDbLine
 10
-2341.644486804169
 20
-765.8394562111284
 30
0.0
 11
-2341.644504340232
 21
-745.8394563502261
 31
0.0
  0
LINE
  5
133
330
1F
100
AcDbEntity
  8
0
100
AcDbLine
 10
-2321.644523600113
 20
916.2241121477977
 30
0.0
 11
-2321.617994948175
 21
916.2237285553645
 31
0.0
  0
LINE
  5
134
330
1F
100
AcDbEntity
  8
0
100
AcDbLine
 10
-2321.644521945093
 20
-765.8394562111224
 30
0.0
 11
-2321.644523600113
 21
916.2241121477977
 31
0.0
  0
LINE
  5
135
330
1F
100
AcDbEntity
  8
0
100
AcDbLine
 10
-2778.617592652136
 20
160.4233375851846
 30
0.0
 11
-2778.617592671814
 21
180.4233374461026
 31
0.0
  0
LINE
  5
136
330
1F
100
AcDbEntity
  8
0
100
AcDbLine
 10
-2778.617592652136
 20
160.4233375851846
 30
0.0
 11
-2341.644487715541
 21
160.4237210829176
 31
0.0
  0
LINE
  5
137
330
1F
100
AcDbEntity
  8
0
100
AcDbLine
 10
-2778.64408704299
 20
896.2237090289065
 30
0.0
 11
-2778.644122048553
 21
916.2237481520425
 31
0.0
  0
LINE
  5
138
330
1F
100
AcDbEntity
  8
0
100
AcDbLine
 10
-2778.617593376106
 20
896.2237090521596
 30
0.0
 11
-2778.64408704299
 21
896.2237090289065
 31
0.0
  0
LINE
  5
139
330
1F
100
AcDbEntity
  8
0
100
AcDbLine
 10
-2341.644470970011
 20
896.2240925731759
 30
0.0
 11
-2341.64448845919
 21
916.2241121477915
 31
0.0
  0
LINE
  5
13A
330
1F
100
AcDbEntity
  8
0
100
AcDbLine
 10
-2778.617593376106
 20
896.2237090521596
 30
0.0
 11
-2341.644470970011
 21
896.2240925731759
 31
0.0
  0
LINE
  5
13B
330
1F
100
AcDbEntity
  8
0
100
AcDbLine
 10
-2778.617609264416
 20
-595.8398399187298
 30
0.0
 11
-2778.617609241713
 21
-567.5555600670759
 31
0.0
  0
LINE
  5
13C
330
1F
100
AcDbEntity
  8
0
100
AcDbLine
 10
-2778.617609264416
 20
-595.8398399187298
 30
0.0
 11
-2778.418776274674
 21
-745.8398396967162
 31
0.0
  0
LINE
  5
13D
330
1F
100
AcDbEntity
  8
0
100
AcDbLine
 10
-2778.617609241713
 20
-567.5555600670759
 30
0.0
 11
-2778.381283955136
 21
-745.8398396638102
 31
0.0
  0
LINE
  5
13E
330
1F
100
AcDbEntity
  8
0
100
AcDbLine
 10
-506.0919367488424
 20
200.4237493166104
 30
0.0
 11
-507.0919367488479
 21
200.4237493166104
 31
0.0
  0
LINE
  5
13F
330
1F
100
AcDbEntity
  8
0
100
AcDbLine
 10
-536.0061503112184
 20
220.9329778979347
 30
0.0
 11
-536.3239875564145
 21
221.2755658889746
 31
0.0
  0
LINE
  5
140
330
1F
100
AcDbEntity
  8
0
100
AcDbLine
 10
-534.07429865864
 20
220.5048494890212
 30
0.0
 11
-534.5919367488448
 21
220.4484853146996
 31
0.0
  0
LINE
  5
141
330
1F
100
AcDbEntity
  8
0
100
AcDbLine
 10
-535.1095748390508
 20
219.3806827333173
 30
0.0
 11
-535.5919367488458
 21
219.5459341309483
 31
0.0
  0
LINE
  5
142
330
1F
100
AcDbEntity
  8
0
100
AcDbLine
 10
-535.1095748390502
 20
220.5048494890212
 30
0.0
 11
-535.5919367488453
 21
220.6701008866522
 31
0.0
  0
LINE
  5
143
330
1F
100
AcDbEntity
  8
0
100
AcDbLine
 10
-532.5919367488461
 20
220.9784797075454
 30
0.0
 11
-532.6600850962674
 21
220.5503512986321
 31
0.0
  0
LINE
  5
144
330
1F
100
AcDbEntity
  8
0
100
AcDbLine
 10
-533.5919367488461
 20
222.4110252841413
 30
0.0
 11
-533.177723186473
 21
222.1481482728588
 31
0.0
  0
LINE
  5
145
330
1F
100
AcDbEntity
  8
0
100
AcDbLine
 10
-533.177723186472
 20
220.9329778979347
 30
0.0
 11
-533.5919367488451
 21
220.6701008866522
 31
0.0
  0
LINE
  5
146
330
1F
100
AcDbEntity
  8
0
100
AcDbLine
 10
-532.7271716252075
 20
221.5405630853964
 30
0.0
 11
-532.859885941277
 21
221.2755658889746
 31
0.0
  0
LINE
  5
147
330
1F
100
AcDbEntity
  8
0
100
AcDbLine
 10
-535.5919367488453
 20
220.6701008866522
 30
0.0
 11
-536.0061503112184
 21
220.9329778979347
 31
0.0
  0
LINE
  5
148
330
1F
100
AcDbEntity
  8
0
100
AcDbLine
 10
-536.5919367488459
 20
220.9784797075454
 30
0.0
 11
-536.523788401424
 21
221.4066081164583
 31
0.0
  0
LINE
  5
149
330
1F
100
AcDbEntity
  8
0
100
AcDbLine
 10
-535.1095748390513
 20
222.5762766817723
 30
0.0
 11
-534.591936748846
 21
222.632640856094
 31
0.0
  0
LINE
  5
14A
330
1F
100
AcDbEntity
  8
0
100
AcDbLine
 10
-534.591936748846
 20
222.632640856094
 30
0.0
 11
-534.0742986586413
 21
222.5762766817723
 31
0.0
  0
LINE
  5
14B
330
1F
100
AcDbEntity
  8
0
100
AcDbLine
 10
-532.6600850962675
 20
221.4066081164583
 30
0.0
 11
-532.5919367488461
 21
220.9784797075454
 31
0.0
  0
LINE
  5
14C
330
1F
100
AcDbEntity
  8
0
100
AcDbLine
 10
-535.5919367488458
 20
219.5459341309483
 30
0.0
 11
-536.006150311219
 21
219.8088111422308
 31
0.0
  0
LINE
  5
14D
330
1F
100
AcDbEntity
  8
0
100
AcDbLine
 10
-534.5919367488453
 20
219.3243185589956
 30
0.0
 11
-535.1095748390508
 21
219.3806827333173
 31
0.0
  0
LINE
  5
14E
330
1F
100
AcDbEntity
  8
0
100
AcDbLine
 10
-534.5919367488448
 20
220.4484853146996
 30
0.0
 11
-535.1095748390502
 21
220.5048494890212
 31
0.0
  0
LINE
  5
14F
330
1F
100
AcDbEntity
  8
0
100
AcDbLine
 10
-536.3239875564145
 20
221.2755658889746
 30
0.0
 11
-536.4567018724839
 21
221.540563085398
 31
0.0
  0
LINE
  5
150
330
1F
100
AcDbEntity
  8
0
100
AcDbLine
 10
-533.177723186473
 20
222.1481482728588
 30
0.0
 11
-532.8598859412779
 21
221.8055602818198
 31
0.0
  0
LINE
  5
151
330
1F
100
AcDbEntity
  8
0
100
AcDbLine
 10
-534.0742986586413
 20
222.5762766817723
 30
0.0
 11
-533.5919367488461
 21
222.4110252841413
 31
0.0
  0
LINE
  5
152
330
1F
100
AcDbEntity
  8
0
100
AcDbLine
 10
-536.323987556415
 20
220.1513991332706
 30
0.0
 11
-536.5237884014239
 21
220.5503512986321
 31
0.0
  0
LINE
  5
153
330
1F
100
AcDbEntity
  8
0
100
AcDbLine
 10
-536.3239875564153
 20
221.8055602818198
 30
0.0
 11
-536.0061503112195
 21
222.1481482728588
 31
0.0
  0
LINE
  5
154
330
1F
100
AcDbEntity
  8
0
100
AcDbLine
 10
-534.0742986586406
 20
219.3806827333173
 30
0.0
 11
-534.5919367488453
 21
219.3243185589956
 31
0.0
  0
LINE
  5
155
330
1F
100
AcDbEntity
  8
0
100
AcDbLine
 10
-536.5237884014239
 20
220.5503512986321
 30
0.0
 11
-536.5919367488459
 21
220.9784797075454
 31
0.0
  0
LINE
  5
156
330
1F
100
AcDbEntity
  8
0
100
AcDbLine
 10
-535.5919367488465
 20
222.4110252841413
 30
0.0
 11
-535.1095748390513
 21
222.5762766817723
 31
0.0
  0
LINE
  5
157
330
1F
100
AcDbEntity
  8
0
100
AcDbLine
 10
-532.859885941277
 20
221.2755658889746
 30
0.0
 11
-533.177723186472
 21
220.9329778979347
 31
0.0
  0
LINE
  5
158
330
1F
100
AcDbEntity
  8
0
100
AcDbLine
 10
-533.5919367488456
 20
219.5459341309483
 30
0.0
 11
-534.0742986586406
 21
219.3806827333173
 31
0.0
  0
LINE
  5
159
330
1F
100
AcDbEntity
  8
0
100
AcDbLine
 10
-533.5919367488451
 20
220.6701008866522
 30
0.0
 11
-534.07429865864
 21
220.5048494890212
 31
0.0
  0
LINE
  5
15A
330
1F
100
AcDbEntity
  8
0
100
AcDbLine
 10
-536.0061503112195
 20
222.1481482728588
 30
0.0
 11
-535.5919367488465
 21
222.4110252841413
 31
0.0
  0
LINE
  5
15B
330
1F
100
AcDbEntity
  8
0
100
AcDbLine
 10
-536.006150311219
 20
219.8088111422308
 30
0.0
 11
-536.323987556415
 21
220.1513991332706
 31
0.0
  0
LINE
  5
15C
330
1F
100
AcDbEntity
  8
0
100
AcDbLine
 10
-532.6600850962674
 20
220.5503512986321
 30
0.0
 11
-532.8598859412774
 21
220.1513991332706
 31
0.0
  0
LINE
  5
15D
330
1F
100
AcDbEntity
  8
0
100
AcDbLine
 10
-532.8598859412774
 20
220.1513991332706
 30
0.0
 11
-533.1777231864726
 21
219.8088111422308
 31
0.0
  0
LINE
  5
15E
330
1F
100
AcDbEntity
  8
0
100
AcDbLine
 10
-533.1777231864726
 20
219.8088111422308
 30
0.0
 11
-533.5919367488456
 21
219.5459341309483
 31
0.0
  0
LINE
  5
15F
330
1F
100
AcDbEntity
  8
0
100
AcDbLine
 10
-533.0969229717668
 20
187.9206402392198
 30
0.0
 11
-533.4917075321299
 21
187.6380514358138
 31
0.0
  0
LINE
  5
160
330
1F
100
AcDbEntity
  8
0
100
AcDbLine
 10
-533.9614708953973
 20
187.4496008552305
 30
0.0
 11
-534.4741994646824
 21
187.3681310931064
 31
0.0
  0
LINE
  5
161
330
1F
100
AcDbEntity
  8
0
100
AcDbLine
 10
-535.2224026022803
 20
189.4650793735981
 30
0.0
 11
-534.709674032995
 21
189.5465491357222
 31
0.0
  0
LINE
  5
162
330
1F
100
AcDbEntity
  8
0
100
AcDbLine
 10
-536.3798523679945
 20
188.6365709233332
 30
0.0
 11
-536.0869505259114
 21
188.9940399896088
 31
0.0
  0
LINE
  5
163
330
1F
100
AcDbEntity
  8
0
100
AcDbLine
 10
-534.9949516353134
 20
187.399194179095
 30
0.0
 11
-535.4882390074439
 21
187.5406732152211
 31
0.0
  0
LINE
  5
164
330
1F
100
AcDbEntity
  8
0
100
AcDbLine
 10
-536.2621150838377
 20
188.1094452798773
 30
0.0
 11
-536.4596410937302
 21
188.4462681681351
 31
0.0
  0
LINE
  5
165
330
1F
100
AcDbEntity
  8
0
100
AcDbLine
 10
-535.4882390074439
 20
187.5406732152211
 30
0.0
 11
-535.9204448618605
 21
187.7829266389773
 31
0.0
  0
LINE
  5
166
330
1F
100
AcDbEntity
  8
0
100
AcDbLine
 10
-534.4741994646824
 20
187.3681310931064
 30
0.0
 11
-534.9949516353134
 21
187.399194179095
 31
0.0
  0
LINE
  5
167
330
1F
100
AcDbEntity
  8
0
100
AcDbLine
 10
-533.4917075321299
 20
187.6380514358138
 30
0.0
 11
-533.9614708953973
 21
187.4496008552305
 31
0.0
  0
LINE
  5
168
330
1F
100
AcDbEntity
  8
0
100
AcDbLine
 10
-532.8040211296837
 20
188.2781093054954
 30
0.0
 11
-533.0969229717668
 21
187.9206402392198
 31
0.0
  0
LINE
  5
169
330
1F
100
AcDbEntity
  8
0
100
AcDbLine
 10
-536.0869505259114
 20
188.9940399896088
 30
0.0
 11
-535.6921659655484
 21
189.2766287930148
 31
0.0
  0
LINE
  5
16A
330
1F
100
AcDbEntity
  8
0
100
AcDbLine
 10
-535.6921659655484
 20
189.2766287930148
 30
0.0
 11
-535.2224026022803
 21
189.4650793735981
 31
0.0
  0
LINE
  5
16B
330
1F
100
AcDbEntity
  8
0
100
AcDbLine
 10
-536.5884682241533
 20
187.797878515969
 30
0.0
 11
-536.5509107153018
 21
188.2285825203092
 31
0.0
  0
LINE
  5
16C
330
1F
100
AcDbEntity
  8
0
100
AcDbLine
 10
-536.2621150838381
 20
186.9852785241733
 30
0.0
 11
-536.4899654123852
 21
187.3738106764376
 31
0.0
  0
LINE
  5
16D
330
1F
100
AcDbEntity
  8
0
100
AcDbLine
 10
-536.4899654123852
 20
187.3738106764376
 30
0.0
 11
-536.5884682241533
 21
187.797878515969
 31
0.0
  0
LINE
  5
16E
330
1F
100
AcDbEntity
  8
0
100
AcDbLine
 10
-532.7242324039471
 20
188.4684120606942
 30
0.0
 11
-532.8040211296837
 21
188.2781093054954
 31
0.0
  0
LINE
  5
16F
330
1F
100
AcDbEntity
  8
0
100
AcDbLine
 10
-535.9204448618609
 20
186.6587598832729
 30
0.0
 11
-536.2621150838381
 21
186.9852785241733
 31
0.0
  0
LINE
  5
170
330
1F
100
AcDbEntity
  8
0
100
AcDbLine
 10
-535.9204448618605
 20
187.7829266389773
 30
0.0
 11
-536.2621150838377
 21
188.1094452798773
 31
0.0
  0
LINE
  5
171
330
1F
100
AcDbEntity
  8
0
100
AcDbLine
 10
-534.4741994646829
 20
186.243964337402
 30
0.0
 11
-534.994951635314
 21
186.2750274233907
 31
0.0
  0
LINE
  5
172
330
1F
100
AcDbEntity
  8
0
100
AcDbLine
 10
-533.6956344902337
 20
189.3740070136075
 30
0.0
 11
-533.2634286358178
 21
189.1317535898513
 31
0.0
  0
LINE
  5
173
330
1F
100
AcDbEntity
  8
0
100
AcDbLine
 10
-533.0969229717674
 20
186.7964734835154
 30
0.0
 11
-533.4917075321305
 21
186.5138846801095
 31
0.0
  0
LINE
  5
174
330
1F
100
AcDbEntity
  8
0
100
AcDbLine
 10
-532.8040211296843
 20
187.1539425497915
 30
0.0
 11
-533.0969229717674
 21
186.7964734835154
 31
0.0
  0
LINE
  5
175
330
1F
100
AcDbEntity
  8
0
100
AcDbLine
 10
-496.3803915185226
 20
188.2789994831559
 30
0.0
 11
-496.4597013296944
 21
188.4685284319976
 31
0.0
  0
LINE
  5
176
330
1F
100
AcDbEntity
  8
0
100
AcDbLine
 10
-492.7241721679828
 20
188.4461517968306
 30
0.0
 11
-492.922420932123
 21
188.1086140121943
 31
0.0
  0
LINE
  5
177
330
1F
100
AcDbEntity
  8
0
100
AcDbLine
 10
-533.9614708953978
 20
186.3254340995261
 30
0.0
 11
-534.4741994646829
 21
186.243964337402
 31
0.0
  0
LINE
  5
178
330
1F
100
AcDbEntity
  8
0
100
AcDbLine
 10
-495.2235448904698
 20
187.449914992178
 30
0.0
 11
-495.6931710280629
 21
187.6385993918175
 31
0.0
  0
LINE
  5
179
330
1F
100
AcDbEntity
  8
0
100
AcDbLine
 10
-532.6939080852922
 20
188.4167027966871
 30
0.0
 11
-532.5954052735256
 21
187.9926349571557
 31
0.0
  0
LINE
  5
17A
330
1F
100
AcDbEntity
  8
0
100
AcDbLine
 10
-493.6967107791552
 20
187.5402272942918
 30
0.0
 11
-494.1901010200556
 21
187.398993847485
 31
0.0
  0
LINE
  5
17B
330
1F
100
AcDbEntity
  8
0
100
AcDbLine
 10
-534.994951635314
 20
186.2750274233907
 30
0.0
 11
-535.4882390074445
 21
186.4165064595167
 31
0.0
  0
LINE
  5
17C
330
1F
100
AcDbEntity
  8
0
100
AcDbLine
 10
-533.4917075321305
 20
186.5138846801095
 30
0.0
 11
-533.9614708953978
 21
186.3254340995261
 31
0.0
  0
LINE
  5
17D
330
1F
100
AcDbEntity
  8
0
100
AcDbLine
 10
-534.1889218623649
 20
189.5154860497336
 30
0.0
 11
-533.6956344902337
 21
189.3740070136075
 31
0.0
  0
LINE
  5
17E
330
1F
100
AcDbEntity
  8
0
100
AcDbLine
 10
-533.2634286358178
 20
189.1317535898513
 30
0.0
 11
-532.9217584138399
 21
188.8052349489514
 31
0.0
  0
LINE
  5
17F
330
1F
100
AcDbEntity
  8
0
100
AcDbLine
 10
-495.6931710280629
 20
187.6385993918175
 30
0.0
 11
-496.087749869402
 21
187.9213846719827
 31
0.0
  0
LINE
  5
180
330
1F
100
AcDbEntity
  8
0
100
AcDbLine
 10
-494.1901010200556
 20
187.398993847485
 30
0.0
 11
-494.710875701807
 21
187.368190003084
 31
0.0
  0
LINE
  5
181
330
1F
100
AcDbEntity
  8
0
100
AcDbLine
 10
-493.2643287086584
 20
187.782265517503
 30
0.0
 11
-493.6967107791552
 21
187.5402272942918
 31
0.0
  0
LINE
  5
182
330
1F
100
AcDbEntity
  8
0
100
AcDbLine
 10
-494.710875701807
 20
187.368190003084
 30
0.0
 11
-495.2235448904698
 21
187.449914992178
 31
0.0
  0
LINE
  5
183
330
1F
100
AcDbEntity
  8
0
100
AcDbLine
 10
-532.6329627823756
 20
187.5619309528155
 30
0.0
 11
-532.8040211296843
 21
187.1539425497915
 31
0.0
  0
LINE
  5
184
330
1F
100
AcDbEntity
  8
0
100
AcDbLine
 10
-496.087749869402
 20
187.9213846719827
 30
0.0
 11
-496.3803915185226
 21
188.2789994831559
 31
0.0
  0
LINE
  5
185
330
1F
100
AcDbEntity
  8
0
100
AcDbLine
 10
-492.922420932123
 20
188.1086140121943
 30
0.0
 11
-493.2643287086584
 21
187.782265517503
 31
0.0
  0
LINE
  5
186
330
1F
100
AcDbEntity
  8
0
100
AcDbLine
 10
-535.4882390074445
 20
186.4165064595167
 30
0.0
 11
-535.9204448618609
 21
186.6587598832729
 31
0.0
  0
LINE
  5
187
330
1F
100
AcDbEntity
  8
0
100
AcDbLine
 10
-494.8493618735336
 20
220.4622447212348
 30
0.0
 11
-495.3539226722403
 21
220.5732455596716
 31
0.0
  0
LINE
  5
188
330
1F
100
AcDbEntity
  8
0
100
AcDbLine
 10
-493.3715137466505
 20
219.6679894737618
 30
0.0
 11
-493.8231915032858
 21
219.451394466569
 31
0.0
  0
LINE
  5
189
330
1F
100
AcDbEntity
  8
0
100
AcDbLine
 10
-493.3715137466499
 20
220.7921562294658
 30
0.0
 11
-493.8231915032852
 21
220.575561222273
 31
0.0
  0
LINE
  5
18A
330
1F
100
AcDbEntity
  8
0
100
AcDbLine
 10
-492.7427808731699
 20
220.3482559524336
 30
0.0
 11
-493.0030058007707
 21
219.9738922246995
 31
0.0
  0
LINE
  5
18B
330
1F
100
AcDbEntity
  8
0
100
AcDbLine
 10
-492.7427808731694
 20
221.4724227081376
 30
0.0
 11
-493.0030058007702
 21
221.0980589804034
 31
0.0
  0
LINE
  5
18C
330
1F
100
AcDbEntity
  8
0
100
AcDbLine
 10
-496.1764138536692
 20
221.0932583057358
 30
0.0
 11
-496.4382928216082
 21
221.4668322040804
 31
0.0
  0
LINE
  5
18D
330
1F
100
AcDbEntity
  8
0
100
AcDbLine
 10
-493.007459644021
 20
221.9878678650577
 30
0.0
 11
-492.7455806760827
 21
221.614293966714
 31
0.0
  0
LINE
  5
18E
330
1F
100
AcDbEntity
  8
0
100
AcDbLine
 10
-493.0030058007707
 20
219.9738922246995
 30
0.0
 11
-493.3715137466505
 21
219.6679894737618
 31
0.0
  0
LINE
  5
18F
330
1F
100
AcDbEntity
  8
0
100
AcDbLine
 10
-493.0030058007702
 20
221.0980589804034
 30
0.0
 11
-493.3715137466499
 21
220.7921562294658
 31
0.0
  0
LINE
  5
190
330
1F
100
AcDbEntity
  8
0
100
AcDbLine
 10
-493.8299508254506
 20
222.5078806111219
 30
0.0
 11
-493.377318108181
 21
222.2926536285612
 31
0.0
  0
LINE
  5
191
330
1F
100
AcDbEntity
  8
0
100
AcDbLine
 10
-493.8231915032852
 20
220.575561222273
 30
0.0
 11
-494.327257977993
 21
220.4630345506245
 31
0.0
  0
LINE
  5
192
330
1F
100
AcDbEntity
  8
0
100
AcDbLine
 10
-492.6085728626214
 20
220.7655683875851
 30
0.0
 11
-492.7427808731699
 21
220.3482559524336
 31
0.0
  0
LINE
  5
193
330
1F
100
AcDbEntity
  8
0
100
AcDbLine
 10
-492.7211906732022
 20
221.5395562487284
 30
0.0
 11
-492.7427808731694
 21
221.4724227081376
 31
0.0
  0
LINE
  5
194
330
1F
100
AcDbEntity
  8
0
100
AcDbLine
 10
-494.3345116241581
 20
222.6188814495587
 30
0.0
 11
-493.8299508254506
 21
222.5078806111219
 31
0.0
  0
LINE
  5
195
330
1F
100
AcDbEntity
  8
0
100
AcDbLine
 10
-496.4382928216082
 20
221.4668322040804
 30
0.0
 11
-496.4626828244891
 21
221.5415699220671
 31
0.0
  0
LINE
  5
196
330
1F
100
AcDbEntity
  8
0
100
AcDbLine
 10
-493.377318108181
 20
222.2926536285612
 30
0.0
 11
-493.007459644021
 21
221.9878678650577
 31
0.0
  0
LINE
  5
197
330
1F
100
AcDbEntity
  8
0
100
AcDbLine
 10
-494.8566155196972
 20
222.618091620169
 30
0.0
 11
-494.3345116241581
 21
222.6188814495587
 31
0.0
  0
LINE
  5
198
330
1F
100
AcDbEntity
  8
0
100
AcDbLine
 10
-495.8065553895092
 20
220.7884725422323
 30
0.0
 11
-496.1764138536692
 21
221.0932583057358
 31
0.0
  0
LINE
  5
199
330
1F
100
AcDbEntity
  8
0
100
AcDbLine
 10
-495.3539226722403
 20
220.5732455596716
 30
0.0
 11
-495.8065553895092
 21
220.7884725422323
 31
0.0
  0
LINE
  5
19A
330
1F
100
AcDbEntity
  8
0
100
AcDbLine
 10
-492.6095278232549
 20
221.1973903773396
 30
0.0
 11
-492.6085728626214
 21
220.7655683875851
 31
0.0
  0
LINE
  5
19B
330
1F
100
AcDbEntity
  8
0
100
AcDbLine
 10
-495.3606819944064
 20
222.5055649485206
 30
0.0
 11
-494.8566155196972
 21
222.618091620169
 31
0.0
  0
LINE
  5
19C
330
1F
100
AcDbEntity
  8
0
100
AcDbLine
 10
-493.8231915032858
 20
219.451394466569
 30
0.0
 11
-494.3272579779936
 21
219.3388677949205
 31
0.0
  0
LINE
  5
19D
330
1F
100
AcDbEntity
  8
0
100
AcDbLine
 10
-495.8123597510411
 20
222.2889699413278
 30
0.0
 11
-495.3606819944064
 21
222.5055649485206
 31
0.0
  0
LINE
  5
19E
330
1F
100
AcDbEntity
  8
0
100
AcDbLine
 10
-496.1764138536697
 20
219.9690915500319
 30
0.0
 11
-496.4382928216087
 21
220.3426654483764
 31
0.0
  0
LINE
  5
19F
330
1F
100
AcDbEntity
  8
0
100
AcDbLine
 10
-494.8493618735341
 20
219.3380779655309
 30
0.0
 11
-495.3539226722409
 21
219.4490788039676
 31
0.0
  0
LINE
  5
1A0
330
1F
100
AcDbEntity
  8
0
100
AcDbLine
 10
-495.3539226722409
 20
219.4490788039676
 30
0.0
 11
-495.8065553895098
 21
219.6643057865283
 31
0.0
  0
LINE
  5
1A1
330
1F
100
AcDbEntity
  8
0
100
AcDbLine
 10
-496.1808676969208
 20
221.9830671903901
 30
0.0
 11
-495.8123597510411
 21
222.2889699413278
 31
0.0
  0
LINE
  5
1A2
330
1F
100
AcDbEntity
  8
0
100
AcDbLine
 10
-496.4382928216087
 20
220.3426654483764
 30
0.0
 11
-496.5743456744358
 21
220.7595690377509
 31
0.0
  0
LINE
  5
1A3
330
1F
100
AcDbEntity
  8
0
100
AcDbLine
 10
-496.4410926245223
 20
221.6087034626568
 30
0.0
 11
-496.1808676969208
 21
221.9830671903901
 31
0.0
  0
LINE
  5
1A4
330
1F
100
AcDbEntity
  8
0
100
AcDbLine
 10
-495.8065553895098
 20
219.6643057865283
 30
0.0
 11
-496.1764138536697
 21
219.9690915500319
 31
0.0
  0
LINE
  5
1A5
330
1F
100
AcDbEntity
  8
0
100
AcDbLine
 10
-489.5919367488462
 20
226.2380493346221
 30
0.0
 11
-539.5919367488464
 21
226.2380493346221
 31
0.0
  0
LINE
  5
1A6
330
1F
100
AcDbEntity
  8
0
100
AcDbLine
 10
-522.0919367488441
 20
210.639972529113
 30
0.0
 11
-507.0919367488432
 21
210.639972529113
 31
0.0
  0
LINE
  5
1A7
330
1F
100
AcDbEntity
  8
0
100
AcDbLine
 10
-522.0919367488441
 20
210.639972529113
 30
0.0
 11
-522.0919367488488
 21
200.4237493166104
 31
0.0
  0
LINE
  5
1A8
330
1F
100
AcDbEntity
  8
0
100
AcDbLine
 10
-507.0919367488432
 20
210.639972529113
 30
0.0
 11
-507.0919367488479
 21
200.4237493166104
 31
0.0
  0
LINE
  5
1A9
330
1F
100
AcDbEntity
  8
0
100
AcDbLine
 10
-539.5919367488382
 20
183.7598538651888
 30
0.0
 11
-526.0919367490478
 21
183.7598538651888
 31
0.0
  0
LINE
  5
1AA
330
1F
100
AcDbEntity
  8
0
100
AcDbLine
 10
-506.0919367488424
 20
183.7598538651888
 30
0.0
 11
-489.591936748838
 21
183.7598538651888
 31
0.0
  0
LINE
  5
1AB
330
1F
100
AcDbEntity
  8
0
100
AcDbLine
 10
-489.5919367488466
 20
225.1138825789177
 30
0.0
 11
-539.5919367488468
 21
225.1138825789177
 31
0.0
  0
LINE
  5
1AC
330
1F
100
AcDbEntity
  8
0
100
AcDbLine
 10
-494.4729977958692
 20
189.5464902257447
 30
0.0
 11
-493.9603286072064
 21
189.4647652366506
 31
0.0
  0
LINE
  5
1AD
330
1F
100
AcDbEntity
  8
0
100
AcDbLine
 10
-493.9603286072064
 20
189.4647652366506
 30
0.0
 11
-493.4907024696148
 21
189.2760808370112
 31
0.0
  0
LINE
  5
1AE
330
1F
100
AcDbEntity
  8
0
100
AcDbLine
 10
-493.4907024696148
 20
189.2760808370112
 30
0.0
 11
-493.0961236282757
 21
188.9932955568459
 31
0.0
  0
LINE
  5
1AF
330
1F
100
AcDbEntity
  8
0
100
AcDbLine
 10
-493.0961236282757
 20
188.9932955568459
 30
0.0
 11
-492.8034819791551
 21
188.6356807456727
 31
0.0
  0
LINE
  5
1B0
330
1F
100
AcDbEntity
  8
0
100
AcDbLine
 10
-492.6327205670269
 20
188.2276072618874
 30
0.0
 11
-492.5954764999314
 21
187.7968846390367
 31
0.0
  0
LINE
  5
1B1
330
1F
100
AcDbEntity
  8
0
100
AcDbLine
 10
-492.5954764999314
 20
187.7968846390367
 30
0.0
 11
-492.6942878994926
 21
187.3728659120646
 31
0.0
  0
LINE
  5
1B2
330
1F
100
AcDbEntity
  8
0
100
AcDbLine
 10
-492.6942878994926
 20
187.3728659120646
 30
0.0
 11
-492.9224209321235
 21
186.9844472564904
 31
0.0
  0
LINE
  5
1B3
330
1F
100
AcDbEntity
  8
0
100
AcDbLine
 10
-492.9224209321235
 20
186.9844472564904
 30
0.0
 11
-493.2643287086589
 21
186.6580987617987
 31
0.0
  0
LINE
  5
1B4
330
1F
100
AcDbEntity
  8
0
100
AcDbLine
 10
-493.2643287086589
 20
186.6580987617987
 30
0.0
 11
-493.6967107791558
 21
186.4160605385875
 31
0.0
  0
LINE
  5
1B5
330
1F
100
AcDbEntity
  8
0
100
AcDbLine
 10
-493.6967107791558
 20
186.4160605385875
 30
0.0
 11
-494.1901010200561
 21
186.2748270917806
 31
0.0
  0
LINE
  5
1B6
330
1F
100
AcDbEntity
  8
0
100
AcDbLine
 10
-494.1901010200561
 20
186.2748270917806
 30
0.0
 11
-494.7108757018076
 21
186.2440232473796
 31
0.0
  0
LINE
  5
1B7
330
1F
100
AcDbEntity
  8
0
100
AcDbLine
 10
-494.7108757018076
 20
186.2440232473796
 30
0.0
 11
-495.2235448904704
 21
186.3257482364736
 31
0.0
  0
LINE
  5
1B8
330
1F
100
AcDbEntity
  8
0
100
AcDbLine
 10
-495.2235448904704
 20
186.3257482364736
 30
0.0
 11
-495.6931710280635
 21
186.5144326361131
 31
0.0
  0
LINE
  5
1B9
330
1F
100
AcDbEntity
  8
0
100
AcDbLine
 10
-495.6931710280635
 20
186.5144326361131
 30
0.0
 11
-496.0877498694026
 21
186.7972179162784
 31
0.0
  0
LINE
  5
1BA
330
1F
100
AcDbEntity
  8
0
100
AcDbLine
 10
-496.0877498694026
 20
186.7972179162784
 30
0.0
 11
-496.3803915185231
 21
187.154832727452
 31
0.0
  0
LINE
  5
1BB
330
1F
100
AcDbEntity
  8
0
100
AcDbLine
 10
-496.3803915185231
 20
187.154832727452
 30
0.0
 11
-496.5511529306506
 21
187.5629062112373
 31
0.0
  0
LINE
  5
1BC
330
1F
100
AcDbEntity
  8
0
100
AcDbLine
 10
-496.5883969977461
 20
187.993628834088
 30
0.0
 11
-496.4895855981849
 21
188.4176475610601
 31
0.0
  0
LINE
  5
1BD
330
1F
100
AcDbEntity
  8
0
100
AcDbLine
 10
-496.2614525655533
 20
188.8060662166343
 30
0.0
 11
-495.9195447890186
 21
189.1324147113256
 31
0.0
  0
LINE
  5
1BE
330
1F
100
AcDbEntity
  8
0
100
AcDbLine
 10
-495.9195447890186
 20
189.1324147113256
 30
0.0
 11
-495.4871627185211
 21
189.3744529345368
 31
0.0
  0
LINE
  5
1BF
330
1F
100
AcDbEntity
  8
0
100
AcDbLine
 10
-495.4871627185211
 20
189.3744529345368
 30
0.0
 11
-494.9937724776214
 21
189.5156863813436
 31
0.0
  0
LINE
  5
1C0
330
1F
100
AcDbEntity
  8
0
100
AcDbLine
 10
-539.5919367488464
 20
226.2380493346221
 30
0.0
 11
-539.5919367488468
 21
225.1138825789177
 31
0.0
  0
LINE
  5
1C1
330
1F
100
AcDbEntity
  8
0
100
AcDbLine
 10
-489.5919367488462
 20
226.2380493346221
 30
0.0
 11
-489.5919367488466
 21
225.1138825789177
 31
0.0
  0
LINE
  5
1C2
330
1F
100
AcDbEntity
  8
0
100
AcDbLine
 10
-1006.120911397674
 20
200.4237286372817
 30
0.0
 11
-1007.120911397679
 21
200.4237286372817
 31
0.0
  0
LINE
  5
1C3
330
1F
100
AcDbEntity
  8
0
100
AcDbLine
 10
-1026.120911397879
 20
180.4237286372819
 30
0.0
 11
-1006.120911397879
 21
180.4237286372819
 31
0.0
  0
LINE
  5
1C4
330
1F
100
AcDbEntity
  8
0
100
AcDbLine
 10
-1026.120911398022
 20
200.4237286372816
 30
0.0
 11
-1026.120911397879
 21
180.4237286372819
 31
0.0
  0
LINE
  5
1C5
330
1F
100
AcDbEntity
  8
0
100
AcDbLine
 10
-996.409366167354
 20
188.2789788038272
 30
0.0
 11
-996.4886759785257
 21
188.4685077526688
 31
0.0
  0
LINE
  5
1C6
330
1F
100
AcDbEntity
  8
0
100
AcDbLine
 10
-992.7531468168141
 20
188.4461311175018
 30
0.0
 11
-992.9513955809545
 21
188.1085933328656
 31
0.0
  0
LINE
  5
1C7
330
1F
100
AcDbEntity
  8
0
100
AcDbLine
 10
-995.2525195393013
 20
187.4498943128492
 30
0.0
 11
-995.7221456768943
 21
187.6385787124887
 31
0.0
  0
LINE
  5
1C8
330
1F
100
AcDbEntity
  8
0
100
AcDbLine
 10
-993.7256854279866
 20
187.540206614963
 30
0.0
 11
-994.219075668887
 21
187.3989731681562
 31
0.0
  0
LINE
  5
1C9
330
1F
100
AcDbEntity
  8
0
100
AcDbLine
 10
-995.7221456768943
 20
187.6385787124887
 30
0.0
 11
-996.1167245182336
 21
187.9213639926539
 31
0.0
  0
LINE
  5
1CA
330
1F
100
AcDbEntity
  8
0
100
AcDbLine
 10
-994.219075668887
 20
187.3989731681562
 30
0.0
 11
-994.7398503506384
 21
187.3681693237552
 31
0.0
  0
LINE
  5
1CB
330
1F
100
AcDbEntity
  8
0
100
AcDbLine
 10
-993.2933033574898
 20
187.7822448381743
 30
0.0
 11
-993.7256854279866
 21
187.540206614963
 31
0.0
  0
LINE
  5
1CC
330
1F
100
AcDbEntity
  8
0
100
AcDbLine
 10
-994.7398503506384
 20
187.3681693237552
 30
0.0
 11
-995.2525195393013
 21
187.4498943128492
 31
0.0
  0
LINE
  5
1CD
330
1F
100
AcDbEntity
  8
0
100
AcDbLine
 10
-996.1167245182336
 20
187.9213639926539
 30
0.0
 11
-996.409366167354
 21
188.2789788038272
 31
0.0
  0
LINE
  5
1CE
330
1F
100
AcDbEntity
  8
0
100
AcDbLine
 10
-992.9513955809545
 20
188.1085933328656
 30
0.0
 11
-993.2933033574898
 21
187.7822448381743
 31
0.0
  0
LINE
  5
1CF
330
1F
100
AcDbEntity
  8
0
100
AcDbLine
 10
-994.878336522365
 20
220.462224041906
 30
0.0
 11
-995.3828973210718
 21
220.5732248803428
 31
0.0
  0
LINE
  5
1D0
330
1F
100
AcDbEntity
  8
0
100
AcDbLine
 10
-993.4004883954818
 20
219.667968794433
 30
0.0
 11
-993.8521661521173
 21
219.4513737872403
 31
0.0
  0
LINE
  5
1D1
330
1F
100
AcDbEntity
  8
0
100
AcDbLine
 10
-993.4004883954813
 20
220.792135550137
 30
0.0
 11
-993.8521661521168
 21
220.5755405429442
 31
0.0
  0
LINE
  5
1D2
330
1F
100
AcDbEntity
  8
0
100
AcDbLine
 10
-992.7717555220014
 20
220.3482352731048
 30
0.0
 11
-993.0319804496021
 21
219.9738715453707
 31
0.0
  0
LINE
  5
1D3
330
1F
100
AcDbEntity
  8
0
100
AcDbLine
 10
-992.7717555220008
 20
221.4724020288088
 30
0.0
 11
-993.0319804496015
 21
221.0980383010747
 31
0.0
  0
LINE
  5
1D4
330
1F
100
AcDbEntity
  8
0
100
AcDbLine
 10
-996.2053885025006
 20
221.0932376264071
 30
0.0
 11
-996.4672674704397
 21
221.4668115247516
 31
0.0
  0
LINE
  5
1D5
330
1F
100
AcDbEntity
  8
0
100
AcDbLine
 10
-993.0364342928525
 20
221.9878471857289
 30
0.0
 11
-992.7745553249141
 21
221.6142732873852
 31
0.0
  0
LINE
  5
1D6
330
1F
100
AcDbEntity
  8
0
100
AcDbLine
 10
-993.0319804496021
 20
219.9738715453707
 30
0.0
 11
-993.4004883954818
 21
219.667968794433
 31
0.0
  0
LINE
  5
1D7
330
1F
100
AcDbEntity
  8
0
100
AcDbLine
 10
-993.0319804496015
 20
221.0980383010747
 30
0.0
 11
-993.4004883954813
 21
220.792135550137
 31
0.0
  0
LINE
  5
1D8
330
1F
100
AcDbEntity
  8
0
100
AcDbLine
 10
-993.8589254742819
 20
222.5078599317932
 30
0.0
 11
-993.4062927570125
 21
222.2926329492325
 31
0.0
  0
LINE
  5
1D9
330
1F
100
AcDbEntity
  8
0
100
AcDbLine
 10
-993.8521661521168
 20
220.5755405429442
 30
0.0
 11
-994.3562326268245
 21
220.4630138712957
 31
0.0
  0
LINE
  5
1DA
330
1F
100
AcDbEntity
  8
0
100
AcDbLine
 10
-992.6375475114528
 20
220.7655477082563
 30
0.0
 11
-992.7717555220014
 21
220.3482352731048
 31
0.0
  0
LINE
  5
1DB
330
1F
100
AcDbEntity
  8
0
100
AcDbLine
 10
-992.7501653220336
 20
221.5395355693996
 30
0.0
 11
-992.7717555220008
 21
221.4724020288088
 31
0.0
  0
LINE
  5
1DC
330
1F
100
AcDbEntity
  8
0
100
AcDbLine
 10
-994.3634862729895
 20
222.61886077023
 30
0.0
 11
-993.8589254742819
 21
222.5078599317932
 31
0.0
  0
LINE
  5
1DD
330
1F
100
AcDbEntity
  8
0
100
AcDbLine
 10
-996.4672674704397
 20
221.4668115247516
 30
0.0
 11
-996.4916574733204
 21
221.5415492427384
 31
0.0
  0
LINE
  5
1DE
330
1F
100
AcDbEntity
  8
0
100
AcDbLine
 10
-993.4062927570125
 20
222.2926329492325
 30
0.0
 11
-993.0364342928525
 21
221.9878471857289
 31
0.0
  0
LINE
  5
1DF
330
1F
100
AcDbEntity
  8
0
100
AcDbLine
 10
-994.8855901685286
 20
222.6180709408403
 30
0.0
 11
-994.3634862729895
 21
222.61886077023
 31
0.0
  0
LINE
  5
1E0
330
1F
100
AcDbEntity
  8
0
100
AcDbLine
 10
-995.8355300383406
 20
220.7884518629035
 30
0.0
 11
-996.2053885025006
 21
221.0932376264071
 31
0.0
  0
LINE
  5
1E1
330
1F
100
AcDbEntity
  8
0
100
AcDbLine
 10
-995.3828973210718
 20
220.5732248803428
 30
0.0
 11
-995.8355300383406
 21
220.7884518629035
 31
0.0
  0
LINE
  5
1E2
330
1F
100
AcDbEntity
  8
0
100
AcDbLine
 10
-992.6385024720863
 20
221.1973696980108
 30
0.0
 11
-992.6375475114528
 21
220.7655477082563
 31
0.0
  0
LINE
  5
1E3
330
1F
100
AcDbEntity
  8
0
100
AcDbLine
 10
-995.3896566432378
 20
222.5055442691918
 30
0.0
 11
-994.8855901685286
 21
222.6180709408403
 31
0.0
  0
LINE
  5
1E4
330
1F
100
AcDbEntity
  8
0
100
AcDbLine
 10
-993.8521661521173
 20
219.4513737872403
 30
0.0
 11
-994.3562326268249
 21
219.3388471155918
 31
0.0
  0
LINE
  5
1E5
330
1F
100
AcDbEntity
  8
0
100
AcDbLine
 10
-995.8413343998725
 20
222.288949261999
 30
0.0
 11
-995.3896566432378
 21
222.5055442691918
 31
0.0
  0
LINE
  5
1E6
330
1F
100
AcDbEntity
  8
0
100
AcDbLine
 10
-996.2053885025011
 20
219.9690708707031
 30
0.0
 11
-996.4672674704402
 21
220.3426447690476
 31
0.0
  0
LINE
  5
1E7
330
1F
100
AcDbEntity
  8
0
100
AcDbLine
 10
-994.8783365223654
 20
219.3380572862021
 30
0.0
 11
-995.3828973210724
 21
219.4490581246389
 31
0.0
  0
LINE
  5
1E8
330
1F
100
AcDbEntity
  8
0
100
AcDbLine
 10
-995.3828973210724
 20
219.4490581246389
 30
0.0
 11
-995.8355300383412
 21
219.6642851071996
 31
0.0
  0
LINE
  5
1E9
330
1F
100
AcDbEntity
  8
0
100
AcDbLine
 10
-996.2098423457522
 20
221.9830465110613
 30
0.0
 11
-995.8413343998725
 21
222.288949261999
 31
0.0
  0
LINE
  5
1EA
330
1F
100
AcDbEntity
  8
0
100
AcDbLine
 10
-996.4672674704402
 20
220.3426447690476
 30
0.0
 11
-996.6033203232672
 21
220.7595483584221
 31
0.0
  0
LINE
  5
1EB
330
1F
100
AcDbEntity
  8
0
100
AcDbLine
 10
-996.4700672733537
 20
221.608682783328
 30
0.0
 11
-996.2098423457522
 21
221.9830465110613
 31
0.0
  0
LINE
  5
1EC
330
1F
100
AcDbEntity
  8
0
100
AcDbLine
 10
-995.8355300383412
 20
219.6642851071996
 30
0.0
 11
-996.2053885025011
 21
219.9690708707031
 31
0.0
  0
LINE
  5
1ED
330
1F
100
AcDbEntity
  8
0
100
AcDbLine
 10
-989.6209113976774
 20
226.2380286552933
 30
0.0
 11
-1026.12091139788
 21
226.2380286552933
 31
0.0
  0
LINE
  5
1EE
330
1F
100
AcDbEntity
  8
0
100
AcDbLine
 10
-1022.120911397676
 20
210.6399518497842
 30
0.0
 11
-1007.120911397675
 21
210.6399518497842
 31
0.0
  0
LINE
  5
1EF
330
1F
100
AcDbEntity
  8
0
100
AcDbLine
 10
-1022.120911397676
 20
210.6399518497842
 30
0.0
 11
-1022.12091139768
 21
200.4237286372817
 31
0.0
  0
LINE
  5
1F0
330
1F
100
AcDbEntity
  8
0
100
AcDbLine
 10
-1007.120911397675
 20
210.6399518497842
 30
0.0
 11
-1007.120911397679
 21
200.4237286372817
 31
0.0
  0
LINE
  5
1F1
330
1F
100
AcDbEntity
  8
0
100
AcDbLine
 10
-1006.120911397674
 20
183.75983318586
 30
0.0
 11
-989.6209113976694
 21
183.75983318586
 31
0.0
  0
LINE
  5
1F2
330
1F
100
AcDbEntity
  8
0
100
AcDbLine
 10
-989.620911397678
 20
225.113861899589
 30
0.0
 11
-1026.12091139788
 21
225.113861899589
 31
0.0
  0
LINE
  5
1F3
330
1F
100
AcDbEntity
  8
0
100
AcDbLine
 10
-994.5019724447008
 20
189.5464695464159
 30
0.0
 11
-993.9893032560379
 21
189.4647445573219
 31
0.0
  0
LINE
  5
1F4
330
1F
100
AcDbEntity
  8
0
100
AcDbLine
 10
-993.9893032560379
 20
189.4647445573219
 30
0.0
 11
-993.5196771184461
 21
189.2760601576824
 31
0.0
  0
LINE
  5
1F5
330
1F
100
AcDbEntity
  8
0
100
AcDbLine
 10
-993.5196771184461
 20
189.2760601576824
 30
0.0
 11
-993.1250982771071
 21
188.9932748775171
 31
0.0
  0
LINE
  5
1F6
330
1F
100
AcDbEntity
  8
0
100
AcDbLine
 10
-993.1250982771071
 20
188.9932748775171
 30
0.0
 11
-992.8324566279866
 21
188.635660066344
 31
0.0
  0
LINE
  5
1F7
330
1F
100
AcDbEntity
  8
0
100
AcDbLine
 10
-992.6616952158583
 20
188.2275865825586
 30
0.0
 11
-992.6244511487629
 21
187.796863959708
 31
0.0
  0
LINE
  5
1F8
330
1F
100
AcDbEntity
  8
0
100
AcDbLine
 10
-992.6244511487629
 20
187.796863959708
 30
0.0
 11
-992.723262548324
 21
187.3728452327358
 31
0.0
  0
LINE
  5
1F9
330
1F
100
AcDbEntity
  8
0
100
AcDbLine
 10
-992.723262548324
 20
187.3728452327358
 30
0.0
 11
-992.951395580955
 21
186.9844265771616
 31
0.0
  0
LINE
  5
1FA
330
1F
100
AcDbEntity
  8
0
100
AcDbLine
 10
-992.951395580955
 20
186.9844265771616
 30
0.0
 11
-993.2933033574902
 21
186.6580780824699
 31
0.0
  0
LINE
  5
1FB
330
1F
100
AcDbEntity
  8
0
100
AcDbLine
 10
-993.2933033574902
 20
186.6580780824699
 30
0.0
 11
-993.7256854279872
 21
186.4160398592587
 31
0.0
  0
LINE
  5
1FC
330
1F
100
AcDbEntity
  8
0
100
AcDbLine
 10
-993.7256854279872
 20
186.4160398592587
 30
0.0
 11
-994.2190756688875
 21
186.2748064124519
 31
0.0
  0
LINE
  5
1FD
330
1F
100
AcDbEntity
  8
0
100
AcDbLine
 10
-994.2190756688875
 20
186.2748064124519
 30
0.0
 11
-994.739850350639
 21
186.2440025680508
 31
0.0
  0
LINE
  5
1FE
330
1F
100
AcDbEntity
  8
0
100
AcDbLine
 10
-994.739850350639
 20
186.2440025680508
 30
0.0
 11
-995.2525195393018
 21
186.3257275571449
 31
0.0
  0
LINE
  5
1FF
330
1F
100
AcDbEntity
  8
0
100
AcDbLine
 10
-995.2525195393018
 20
186.3257275571449
 30
0.0
 11
-995.7221456768949
 21
186.5144119567843
 31
0.0
  0
LINE
  5
200
330
1F
100
AcDbEntity
  8
0
100
AcDbLine
 10
-995.7221456768949
 20
186.5144119567843
 30
0.0
 11
-996.1167245182339
 21
186.7971972369496
 31
0.0
  0
LINE
  5
201
330
1F
100
AcDbEntity
  8
0
100
AcDbLine
 10
-996.1167245182339
 20
186.7971972369496
 30
0.0
 11
-996.4093661673545
 21
187.1548120481232
 31
0.0
  0
LINE
  5
202
330
1F
100
AcDbEntity
  8
0
100
AcDbLine
 10
-996.4093661673545
 20
187.1548120481232
 30
0.0
 11
-996.5801275794819
 21
187.5628855319085
 31
0.0
  0
LINE
  5
203
330
1F
100
AcDbEntity
  8
0
100
AcDbLine
 10
-996.6173716465776
 20
187.9936081547592
 30
0.0
 11
-996.5185602470162
 21
188.4176268817313
 31
0.0
  0
LINE
  5
204
330
1F
100
AcDbEntity
  8
0
100
AcDbLine
 10
-996.2904272143847
 20
188.8060455373056
 30
0.0
 11
-995.94851943785
 21
189.1323940319968
 31
0.0
  0
LINE
  5
205
330
1F
100
AcDbEntity
  8
0
100
AcDbLine
 10
-995.94851943785
 20
189.1323940319968
 30
0.0
 11
-995.5161373673524
 21
189.374432255208
 31
0.0
  0
LINE
  5
206
330
1F
100
AcDbEntity
  8
0
100
AcDbLine
 10
-995.5161373673524
 20
189.374432255208
 30
0.0
 11
-995.0227471264529
 21
189.5156657020149
 31
0.0
  0
LINE
  5
207
330
1F
100
AcDbEntity
  8
0
100
AcDbLine
 10
-989.6209113976774
 20
226.2380286552933
 30
0.0
 11
-989.620911397678
 21
225.113861899589
 31
0.0
  0
LINE
  5
208
330
1F
100
AcDbEntity
  8
0
100
AcDbLine
 10
-2523.170738534634
 20
180.4236773630772
 30
0.0
 11
-2523.170738534634
 21
200.4236773630772
 31
0.0
  0
LINE
  5
209
330
1F
100
AcDbEntity
  8
0
100
AcDbLine
 10
-2516.224928145591
 20
190.143191508202
 30
0.0
 11
-2516.281547695934
 21
189.2497957013685
 31
0.0
  0
LINE
  5
20A
330
1F
100
AcDbEntity
  8
0
100
AcDbLine
 10
-2516.281547695934
 20
189.2497957013685
 30
0.0
 11
-2516.404613918411
 21
188.4363979898492
 31
0.0
  0
LINE
  5
20B
330
1F
100
AcDbEntity
  8
0
100
AcDbLine
 10
-2516.404613918411
 20
188.4363979898492
 30
0.0
 11
-2516.585740053337
 21
187.7584300834811
 31
0.0
  0
LINE
  5
20C
330
1F
100
AcDbEntity
  8
0
100
AcDbLine
 10
-2516.585740053337
 20
187.7584300834811
 30
0.0
 11
-2516.812582653941
 21
187.2620943746879
 31
0.0
  0
LINE
  5
20D
330
1F
100
AcDbEntity
  8
0
100
AcDbLine
 10
-2516.812582653941
 20
187.2620943746879
 30
0.0
 11
-2517.069682771869
 21
186.9812153217907
 31
0.0
  0
LINE
  5
20E
330
1F
100
AcDbEntity
  8
0
100
AcDbLine
 10
-2517.069682771869
 20
186.9812153217907
 30
0.0
 11
-2517.339519458961
 21
186.9349343680695
 31
0.0
  0
LINE
  5
20F
330
1F
100
AcDbEntity
  8
0
100
AcDbLine
 10
-2517.339519458961
 20
186.9349343680695
 30
0.0
 11
-2517.603703790917
 21
187.1264054840379
 31
0.0
  0
LINE
  5
210
330
1F
100
AcDbEntity
  8
0
100
AcDbLine
 10
-2517.603703790917
 20
187.1264054840379
 30
0.0
 11
-2517.8442320421
 21
187.5425802295632
 31
0.0
  0
LINE
  5
211
330
1F
100
AcDbEntity
  8
0
100
AcDbLine
 10
-2517.8442320421
 20
187.5425802295632
 30
0.0
 11
-2518.044712609685
 21
188.1550969834993
 31
0.0
  0
LINE
  5
212
330
1F
100
AcDbEntity
  8
0
100
AcDbLine
 10
-2518.044712609685
 20
188.1550969834993
 30
0.0
 11
-2518.1914830743
 21
188.9222137412976
 31
0.0
  0
LINE
  5
213
330
1F
100
AcDbEntity
  8
0
100
AcDbLine
 10
-2518.1914830743
 20
188.9222137412976
 30
0.0
 11
-2518.274541271331
 21
189.791652763634
 31
0.0
  0
LINE
  5
214
330
1F
100
AcDbEntity
  8
0
100
AcDbLine
 10
-2518.274541271331
 20
189.791652763634
 30
0.0
 11
-2518.288226921909
 21
190.7041632179524
 31
0.0
  0
LINE
  5
215
330
1F
100
AcDbEntity
  8
0
100
AcDbLine
 10
-2518.288226921909
 20
190.7041632179524
 30
0.0
 11
-2518.231607371567
 21
191.5975590247859
 31
0.0
  0
LINE
  5
216
330
1F
100
AcDbEntity
  8
0
100
AcDbLine
 10
-2518.231607371567
 20
191.5975590247859
 30
0.0
 11
-2518.10854114909
 21
192.4109567363051
 31
0.0
  0
LINE
  5
217
330
1F
100
AcDbEntity
  8
0
100
AcDbLine
 10
-2518.10854114909
 20
192.4109567363051
 30
0.0
 11
-2517.927415014165
 21
193.0889246426733
 31
0.0
  0
LINE
  5
218
330
1F
100
AcDbEntity
  8
0
100
AcDbLine
 10
-2517.927415014165
 20
193.0889246426733
 30
0.0
 11
-2517.700572413559
 21
193.5852603514665
 31
0.0
  0
LINE
  5
219
330
1F
100
AcDbEntity
  8
0
100
AcDbLine
 10
-2517.700572413559
 20
193.5852603514665
 30
0.0
 11
-2517.443472295632
 21
193.8661394043636
 31
0.0
  0
LINE
  5
21A
330
1F
100
AcDbEntity
  8
0
100
AcDbLine
 10
-2517.443472295632
 20
193.8661394043636
 30
0.0
 11
-2517.17363560854
 21
193.9124203580849
 31
0.0
  0
LINE
  5
21B
330
1F
100
AcDbEntity
  8
0
100
AcDbLine
 10
-2517.17363560854
 20
193.9124203580849
 30
0.0
 11
-2516.909451276584
 21
193.7209492421165
 31
0.0
  0
LINE
  5
21C
330
1F
100
AcDbEntity
  8
0
100
AcDbLine
 10
-2516.909451276584
 20
193.7209492421165
 30
0.0
 11
-2516.6689230254
 21
193.3047744965912
 31
0.0
  0
LINE
  5
21D
330
1F
100
AcDbEntity
  8
0
100
AcDbLine
 10
-2516.6689230254
 20
193.3047744965912
 30
0.0
 11
-2516.468442457815
 21
192.692257742655
 31
0.0
  0
LINE
  5
21E
330
1F
100
AcDbEntity
  8
0
100
AcDbLine
 10
-2516.468442457815
 20
192.692257742655
 30
0.0
 11
-2516.321671993201
 21
191.9251409848568
 31
0.0
  0
LINE
  5
21F
330
1F
100
AcDbEntity
  8
0
100
AcDbLine
 10
-2516.321671993201
 20
191.9251409848568
 30
0.0
 11
-2516.23861379617
 21
191.0557019625203
 31
0.0
  0
LINE
  5
220
330
1F
100
AcDbEntity
  8
0
100
AcDbLine
 10
-2516.23861379617
 20
191.0557019625203
 30
0.0
 11
-2516.224928145591
 21
190.143191508202
 31
0.0
  0
LINE
  5
221
330
1F
100
AcDbEntity
  8
0
100
AcDbLine
 10
-2367.978745373032
 20
200.4236773630772
 30
0.0
 11
-2367.978745373032
 21
180.4236978541459
 31
0.0
  0
LINE
  5
222
330
1F
100
AcDbEntity
  8
0
100
AcDbLine
 10
-2387.084312615478
 20
200.4236773630772
 30
0.0
 11
-2387.084312615478
 21
180.4236773630772
 31
0.0
  0
LINE
  5
223
330
1F
100
AcDbEntity
  8
0
100
AcDbLine
 10
-2530.818429474927
 20
218.1612248222214
 30
0.0
 11
-2531.318133667171
 21
218.0953985734275
 31
0.0
  0
LINE
  5
224
330
1F
100
AcDbEntity
  8
0
100
AcDbLine
 10
-2531.236142323735
 20
217.6435867320175
 30
0.0
 11
-2531.681640486148
 21
217.8365795283266
 31
0.0
  0
LINE
  5
225
330
1F
100
AcDbEntity
  8
0
100
AcDbLine
 10
-2531.807406408893
 20
218.1612248222214
 30
0.0
 11
-2532.172476096997
 21
218.3193754632324
 31
0.0
  0
LINE
  5
226
330
1F
100
AcDbEntity
  8
0
100
AcDbLine
 10
-2528.683243107485
 20
219.5096121358026
 30
0.0
 11
-2528.787961115793
 21
219.0096121358026
 31
0.0
  0
LINE
  5
227
330
1F
100
AcDbEntity
  8
0
100
AcDbLine
 10
-2529.254507192644
 20
220.0272502260066
 30
0.0
 11
-2529.359225200952
 21
219.5272502260064
 31
0.0
  0
LINE
  5
228
330
1F
100
AcDbEntity
  8
0
100
AcDbLine
 10
-2529.505959177312
 20
221.1826447432782
 30
0.0
 11
-2529.134595557755
 21
220.8756375395866
 31
0.0
  0
LINE
  5
229
330
1F
100
AcDbEntity
  8
0
100
AcDbLine
 10
-2532.399638547665
 20
220.0096121358023
 30
0.0
 11
-2532.171855615156
 21
220.4755379620916
 31
0.0
  0
LINE
  5
22A
330
1F
100
AcDbEntity
  8
0
100
AcDbLine
 10
-2529.922332959753
 20
218.6612248222218
 30
0.0
 11
-2530.342347847062
 21
218.3542176185304
 31
0.0
  0
LINE
  5
22B
330
1F
100
AcDbEntity
  8
0
100
AcDbLine
 10
-2529.359225200952
 20
219.5272502260064
 30
0.0
 11
-2529.587008133463
 21
219.0613243997172
 31
0.0
  0
LINE
  5
22C
330
1F
100
AcDbEntity
  8
0
100
AcDbLine
 10
-2532.504356555974
 20
219.5096121358026
 30
0.0
 11
-2532.399638547665
 21
220.0096121358023
 31
0.0
  0
LINE
  5
22D
330
1F
100
AcDbEntity
  8
0
100
AcDbLine
 10
-2530.940434273691
 20
221.375637539587
 30
0.0
 11
-2530.440730081446
 21
221.4414637883809
 31
0.0
  0
LINE
  5
22E
330
1F
100
AcDbEntity
  8
0
100
AcDbLine
 10
-2530.440730081446
 20
221.4414637883809
 30
0.0
 11
-2529.951457339725
 21
221.375637539587
 31
0.0
  0
LINE
  5
22F
330
1F
100
AcDbEntity
  8
0
100
AcDbLine
 10
-2528.708726382589
 20
220.0096121358023
 30
0.0
 11
-2528.683243107485
 21
219.5096121358026
 31
0.0
  0
LINE
  5
230
330
1F
100
AcDbEntity
  8
0
100
AcDbLine
 10
-2529.279990467748
 20
220.5272502260063
 30
0.0
 11
-2529.254507192644
 21
220.0272502260066
 31
0.0
  0
LINE
  5
231
330
1F
100
AcDbEntity
  8
0
100
AcDbLine
 10
-2528.862674298022
 20
220.4755379620916
 30
0.0
 11
-2528.708726382589
 21
220.0096121358023
 31
0.0
  0
LINE
  5
232
330
1F
100
AcDbEntity
  8
0
100
AcDbLine
 10
-2529.433938383181
 20
220.9931760522956
 30
0.0
 11
-2529.279990467748
 21
220.5272502260063
 31
0.0
  0
LINE
  5
233
330
1F
100
AcDbEntity
  8
0
100
AcDbLine
 10
-2531.681640486148
 20
217.8365795283266
 30
0.0
 11
-2532.053004105704
 21
218.143586732018
 31
0.0
  0
LINE
  5
234
330
1F
100
AcDbEntity
  8
0
100
AcDbLine
 10
-2530.746869582012
 20
217.5777604832237
 30
0.0
 11
-2531.236142323735
 21
217.6435867320175
 31
0.0
  0
LINE
  5
235
330
1F
100
AcDbEntity
  8
0
100
AcDbLine
 10
-2531.318133667171
 20
218.0953985734275
 30
0.0
 11
-2531.807406408893
 21
218.1612248222214
 31
0.0
  0
LINE
  5
236
330
1F
100
AcDbEntity
  8
0
100
AcDbLine
 10
-2529.134595557755
 20
220.8756375395866
 30
0.0
 11
-2528.862674298022
 21
220.4755379620916
 31
0.0
  0
LINE
  5
237
330
1F
100
AcDbEntity
  8
0
100
AcDbLine
 10
-2529.586387651621
 20
221.2174868985764
 30
0.0
 11
-2529.433938383181
 21
220.9931760522956
 31
0.0
  0
LINE
  5
238
330
1F
100
AcDbEntity
  8
0
100
AcDbLine
 10
-2532.324925365438
 20
218.5436863095134
 30
0.0
 11
-2532.47887328087
 21
219.0096121358026
 31
0.0
  0
LINE
  5
239
330
1F
100
AcDbEntity
  8
0
100
AcDbLine
 10
-2532.171855615156
 20
220.4755379620916
 30
0.0
 11
-2531.836530788865
 21
220.8756375395866
 31
0.0
  0
LINE
  5
23A
330
1F
100
AcDbEntity
  8
0
100
AcDbLine
 10
-2530.247165389768
 20
217.6435867320175
 30
0.0
 11
-2530.746869582012
 21
217.5777604832237
 31
0.0
  0
LINE
  5
23B
330
1F
100
AcDbEntity
  8
0
100
AcDbLine
 10
-2532.47887328087
 20
219.0096121358026
 30
0.0
 11
-2532.504356555974
 21
219.5096121358026
 31
0.0
  0
LINE
  5
23C
330
1F
100
AcDbEntity
  8
0
100
AcDbLine
 10
-2531.416515901556
 20
221.182644743278
 30
0.0
 11
-2530.940434273691
 21
221.375637539587
 31
0.0
  0
LINE
  5
23D
330
1F
100
AcDbEntity
  8
0
100
AcDbLine
 10
-2529.587008133463
 20
219.0613243997172
 30
0.0
 11
-2529.922332959753
 21
218.6612248222218
 31
0.0
  0
LINE
  5
23E
330
1F
100
AcDbEntity
  8
0
100
AcDbLine
 10
-2529.771083761903
 20
217.8365795283266
 30
0.0
 11
-2530.247165389768
 21
217.6435867320175
 31
0.0
  0
LINE
  5
23F
330
1F
100
AcDbEntity
  8
0
100
AcDbLine
 10
-2530.342347847062
 20
218.3542176185304
 30
0.0
 11
-2530.818429474927
 21
218.1612248222214
 31
0.0
  0
LINE
  5
240
330
1F
100
AcDbEntity
  8
0
100
AcDbLine
 10
-2531.836530788865
 20
220.8756375395866
 30
0.0
 11
-2531.416515901556
 21
221.182644743278
 31
0.0
  0
LINE
  5
241
330
1F
100
AcDbEntity
  8
0
100
AcDbLine
 10
-2528.787961115793
 20
219.0096121358026
 30
0.0
 11
-2529.015744048304
 21
218.5436863095134
 31
0.0
  0
LINE
  5
242
330
1F
100
AcDbEntity
  8
0
100
AcDbLine
 10
-2529.015744048304
 20
218.5436863095134
 30
0.0
 11
-2529.351068874594
 21
218.143586732018
 31
0.0
  0
LINE
  5
243
330
1F
100
AcDbEntity
  8
0
100
AcDbLine
 10
-2529.351068874594
 20
218.143586732018
 30
0.0
 11
-2529.771083761903
 21
217.8365795283266
 31
0.0
  0
LINE
  5
244
330
1F
100
AcDbEntity
  8
0
100
AcDbLine
 10
-2532.546767792506
 20
182.4529569896947
 30
0.0
 11
-2532.365060584195
 21
181.9992004248704
 31
0.0
  0
LINE
  5
245
330
1F
100
AcDbEntity
  8
0
100
AcDbLine
 10
-2534.112199838456
 20
182.7059339893911
 30
0.0
 11
-2533.614862430176
 21
182.8010803992392
 31
0.0
  0
LINE
  5
246
330
1F
100
AcDbEntity
  8
0
100
AcDbLine
 10
-2535.294553560214
 20
181.7383405839824
 30
0.0
 11
-2534.981671947143
 21
182.1558193810367
 31
0.0
  0
LINE
  5
247
330
1F
100
AcDbEntity
  8
0
100
AcDbLine
 10
-2532.587100199717
 20
180.5244556746897
 30
0.0
 11
-2532.662721987737
 21
180.4235533148988
 31
0.0
  0
LINE
  5
248
330
1F
100
AcDbEntity
  8
0
100
AcDbLine
 10
-2534.981671947143
 20
182.1558193810367
 30
0.0
 11
-2534.57839311115
 21
182.485847472519
 31
0.0
  0
LINE
  5
249
330
1F
100
AcDbEntity
  8
0
100
AcDbLine
 10
-2535.495715585492
 20
181.2618615714593
 30
0.0
 11
-2535.294553560214
 21
181.7383405839824
 31
0.0
  0
LINE
  5
24A
330
1F
100
AcDbEntity
  8
0
100
AcDbLine
 10
-2532.365060584195
 20
181.9992004248704
 30
0.0
 11
-2532.310204596539
 21
181.5039426579214
 31
0.0
  0
LINE
  5
24B
330
1F
100
AcDbEntity
  8
0
100
AcDbLine
 10
-2534.57839311115
 20
182.485847472519
 30
0.0
 11
-2534.112199838456
 21
182.7059339893911
 31
0.0
  0
LINE
  5
24C
330
1F
100
AcDbEntity
  8
0
100
AcDbLine
 10
-2532.658715963308
 20
182.5970928287498
 30
0.0
 11
-2532.546767792506
 21
182.4529569896947
 31
0.0
  0
LINE
  5
24D
330
1F
100
AcDbEntity
  8
0
100
AcDbLine
 10
-2535.571449163392
 20
180.7588536007507
 30
0.0
 11
-2535.495715585492
 21
181.2618615714593
 31
0.0
  0
LINE
  5
24E
330
1F
100
AcDbEntity
  8
0
100
AcDbLine
 10
-2535.534310186832
 20
180.4235507945735
 30
0.0
 11
-2535.571449163392
 21
180.7588536007507
 31
0.0
  0
LINE
  5
24F
330
1F
100
AcDbEntity
  8
0
100
AcDbLine
 10
-2532.385938174437
 20
181.0009346872128
 30
0.0
 11
-2532.587100199717
 21
180.5244556746897
 31
0.0
  0
LINE
  5
250
330
1F
100
AcDbEntity
  8
0
100
AcDbLine
 10
-2532.658715963308
 20
182.5970928287498
 30
0.0
 11
-2532.271679090349
 21
182.316651502166
 31
0.0
  0
LINE
  5
251
330
1F
100
AcDbEntity
  8
0
100
AcDbLine
 10
-2531.793796499037
 20
181.4815623346666
 30
0.0
 11
-2531.73894051138
 21
180.9863045677176
 31
0.0
  0
LINE
  5
252
330
1F
100
AcDbEntity
  8
0
100
AcDbLine
 10
-2533.120273608795
 20
182.7648026314691
 30
0.0
 11
-2532.658715963308
 21
182.5970928287498
 31
0.0
  0
LINE
  5
253
330
1F
100
AcDbEntity
  8
0
100
AcDbLine
 10
-2531.975503707348
 20
181.9353188994909
 30
0.0
 11
-2531.793796499037
 21
181.4815623346666
 31
0.0
  0
LINE
  5
254
330
1F
100
AcDbEntity
  8
0
100
AcDbLine
 10
-2532.271679090349
 20
182.316651502166
 30
0.0
 11
-2531.975503707348
 21
181.9353188994909
 31
0.0
  0
LINE
  5
255
330
1F
100
AcDbEntity
  8
0
100
AcDbLine
 10
-2531.814674089278
 20
180.483296597009
 30
0.0
 11
-2531.839896468515
 21
180.4235540370734
 31
0.0
  0
LINE
  5
256
330
1F
100
AcDbEntity
  8
0
100
AcDbLine
 10
-2493.35163859087
 20
218.1114678253725
 30
0.0
 11
-2493.823363010919
 21
218.2411028088562
 31
0.0
  0
LINE
  5
257
330
1F
100
AcDbEntity
  8
0
100
AcDbLine
 10
-2491.338089417586
 20
217.9791247790884
 30
0.0
 11
-2491.789610279265
 21
217.7261691205949
 31
0.0
  0
LINE
  5
258
330
1F
100
AcDbEntity
  8
0
100
AcDbLine
 10
-2491.909353502745
 20
218.4967628692922
 30
0.0
 11
-2492.360874364424
 21
218.2438072107987
 31
0.0
  0
LINE
  5
259
330
1F
100
AcDbEntity
  8
0
100
AcDbLine
 10
-2490.67452524812
 20
218.7735902531255
 30
0.0
 11
-2490.957754679242
 21
218.3363806216921
 31
0.0
  0
LINE
  5
25A
330
1F
100
AcDbEntity
  8
0
100
AcDbLine
 10
-2491.245789333278
 20
219.2912283433293
 30
0.0
 11
-2491.529018764401
 21
218.8540187118959
 31
0.0
  0
LINE
  5
25B
330
1F
100
AcDbEntity
  8
0
100
AcDbLine
 10
-2490.560045520369
 20
220.252163022326
 30
0.0
 11
-2490.468655838662
 21
219.7652721962385
 31
0.0
  0
LINE
  5
25C
330
1F
100
AcDbEntity
  8
0
100
AcDbLine
 10
-2491.131309605528
 20
220.76980111253
 30
0.0
 11
-2491.039919923821
 21
220.2829102864425
 31
0.0
  0
LINE
  5
25D
330
1F
100
AcDbEntity
  8
0
100
AcDbLine
 10
-2490.775643731227
 20
220.6884502326195
 30
0.0
 11
-2490.560045520369
 21
220.252163022326
 31
0.0
  0
LINE
  5
25E
330
1F
100
AcDbEntity
  8
0
100
AcDbLine
 10
-2491.338645238407
 20
221.1893680676696
 30
0.0
 11
-2491.131309605528
 21
220.76980111253
 31
0.0
  0
LINE
  5
25F
330
1F
100
AcDbEntity
  8
0
100
AcDbLine
 10
-2490.957754679242
 20
218.3363806216921
 30
0.0
 11
-2491.338089417586
 21
217.9791247790884
 31
0.0
  0
LINE
  5
260
330
1F
100
AcDbEntity
  8
0
100
AcDbLine
 10
-2491.529018764401
 20
218.8540187118959
 30
0.0
 11
-2491.909353502745
 21
218.4967628692922
 31
0.0
  0
LINE
  5
261
330
1F
100
AcDbEntity
  8
0
100
AcDbLine
 10
-2492.360874364424
 20
218.2438072107987
 30
0.0
 11
-2492.852810948887
 21
218.1123902465121
 31
0.0
  0
LINE
  5
262
330
1F
100
AcDbEntity
  8
0
100
AcDbLine
 10
-2490.507702741889
 20
219.2609585595302
 30
0.0
 11
-2490.67452524812
 21
218.7735902531255
 31
0.0
  0
LINE
  5
263
330
1F
100
AcDbEntity
  8
0
100
AcDbLine
 10
-2491.078966827047
 20
219.778596649734
 30
0.0
 11
-2491.245789333278
 21
219.2912283433293
 31
0.0
  0
LINE
  5
264
330
1F
100
AcDbEntity
  8
0
100
AcDbLine
 10
-2491.984956187964
 20
221.4253945364359
 30
0.0
 11
-2491.513231767914
 21
221.2957595529521
 31
0.0
  0
LINE
  5
265
330
1F
100
AcDbEntity
  8
0
100
AcDbLine
 10
-2491.10075780946
 20
221.0444015747382
 30
0.0
 11
-2490.775643731227
 21
220.6884502326195
 31
0.0
  0
LINE
  5
266
330
1F
100
AcDbEntity
  8
0
100
AcDbLine
 10
-2492.483783829945
 20
221.4244721152963
 30
0.0
 11
-2491.984956187964
 21
221.4253945364359
 31
0.0
  0
LINE
  5
267
330
1F
100
AcDbEntity
  8
0
100
AcDbLine
 10
-2493.823363010919
 20
218.2411028088562
 30
0.0
 11
-2493.997949540426
 21
218.3474942941387
 31
0.0
  0
LINE
  5
268
330
1F
100
AcDbEntity
  8
0
100
AcDbLine
 10
-2490.468655838662
 20
219.7652721962385
 30
0.0
 11
-2490.507702741889
 21
219.2609585595302
 31
0.0
  0
LINE
  5
269
330
1F
100
AcDbEntity
  8
0
100
AcDbLine
 10
-2491.039919923821
 20
220.2829102864425
 30
0.0
 11
-2491.078966827047
 21
219.778596649734
 31
0.0
  0
LINE
  5
26A
330
1F
100
AcDbEntity
  8
0
100
AcDbLine
 10
-2492.97572041441
 20
221.2930551510097
 30
0.0
 11
-2492.483783829945
 21
221.4244721152963
 31
0.0
  0
LINE
  5
26B
330
1F
100
AcDbEntity
  8
0
100
AcDbLine
 10
-2491.789610279265
 20
217.7261691205949
 30
0.0
 11
-2492.281546863729
 21
217.5947521563083
 31
0.0
  0
LINE
  5
26C
330
1F
100
AcDbEntity
  8
0
100
AcDbLine
 10
-2493.427241276088
 20
221.0400994925162
 30
0.0
 11
-2492.97572041441
 21
221.2930551510097
 31
0.0
  0
LINE
  5
26D
330
1F
100
AcDbEntity
  8
0
100
AcDbLine
 10
-2493.997949540426
 20
218.3474942941387
 30
0.0
 11
-2494.205285173305
 21
218.767061249279
 31
0.0
  0
LINE
  5
26E
330
1F
100
AcDbEntity
  8
0
100
AcDbLine
 10
-2492.780374505711
 20
217.5938297351687
 30
0.0
 11
-2493.252098925761
 21
217.7234647186524
 31
0.0
  0
LINE
  5
26F
330
1F
100
AcDbEntity
  8
0
100
AcDbLine
 10
-2494.257627951786
 20
219.7582657120746
 30
0.0
 11
-2494.090805445556
 21
220.2456340184794
 31
0.0
  0
LINE
  5
270
330
1F
100
AcDbEntity
  8
0
100
AcDbLine
 10
-2493.252098925761
 20
217.7234647186524
 30
0.0
 11
-2493.664572884214
 21
217.9748226968664
 31
0.0
  0
LINE
  5
271
330
1F
100
AcDbEntity
  8
0
100
AcDbLine
 10
-2493.807576014432
 20
220.6828436499125
 30
0.0
 11
-2493.427241276088
 21
221.0400994925162
 31
0.0
  0
LINE
  5
272
330
1F
100
AcDbEntity
  8
0
100
AcDbLine
 10
-2494.205285173305
 20
218.767061249279
 30
0.0
 11
-2494.296674855012
 21
219.2539520753664
 31
0.0
  0
LINE
  5
273
330
1F
100
AcDbEntity
  8
0
100
AcDbLine
 10
-2494.090805445556
 20
220.2456340184794
 30
0.0
 11
-2493.807576014432
 21
220.6828436499125
 31
0.0
  0
LINE
  5
274
330
1F
100
AcDbEntity
  8
0
100
AcDbLine
 10
-2493.664572884214
 20
217.9748226968664
 30
0.0
 11
-2493.997949540426
 21
218.3474942941387
 31
0.0
  0
LINE
  5
275
330
1F
100
AcDbEntity
  8
0
100
AcDbLine
 10
-2535.558781351793
 20
224.8568793574526
 30
0.0
 11
-2539.079444532399
 21
180.4235476830926
 31
0.0
  0
LINE
  5
276
330
1F
100
AcDbEntity
  8
0
100
AcDbLine
 10
-2487.794863245677
 20
224.8568793574526
 30
0.0
 11
-2535.558781351793
 21
224.8568793574526
 31
0.0
  0
LINE
  5
277
330
1F
100
AcDbEntity
  8
0
100
AcDbLine
 10
-2487.841582172608
 20
224.2672524975972
 30
0.0
 11
-2487.839261670506
 21
224.2965389229858
 31
0.0
  0
LINE
  5
278
330
1F
100
AcDbEntity
  8
0
100
AcDbLine
 10
-2519.609506244468
 20
207.4355393071876
 30
0.0
 11
-2505.280330812633
 21
207.4355393071876
 31
0.0
  0
LINE
  5
279
330
1F
100
AcDbEntity
  8
0
100
AcDbLine
 10
-2519.609506244468
 20
207.4355393071876
 30
0.0
 11
-2511.871233164173
 21
200.4236773630772
 31
0.0
  0
LINE
  5
27A
330
1F
100
AcDbEntity
  8
0
100
AcDbLine
 10
-2505.280330812633
 20
207.4355393071876
 30
0.0
 11
-2497.542057732338
 21
200.4236773630772
 31
0.0
  0
LINE
  5
27B
330
1F
100
AcDbEntity
  8
0
100
AcDbLine
 10
-2520.165089254877
 20
200.4236773630772
 30
0.0
 11
-2519.609506244468
 21
207.4355393071876
 31
0.0
  0
LINE
  5
27C
330
1F
100
AcDbEntity
  8
0
100
AcDbLine
 10
-2534.987517266634
 20
224.3392412672486
 30
0.0
 11
-2538.467165488687
 21
180.4235482204755
 31
0.0
  0
LINE
  5
27D
330
1F
100
AcDbEntity
  8
0
100
AcDbLine
 10
-2489.118542485902
 20
200.4236773630772
 30
0.0
 11
-2487.223599160518
 21
224.3392412672486
 31
0.0
  0
LINE
  5
27E
330
1F
100
AcDbEntity
  8
0
100
AcDbLine
 10
-2487.223599160518
 20
224.3392412672486
 30
0.0
 11
-2534.987517266634
 21
224.3392412672486
 31
0.0
  0
LINE
  5
27F
330
1F
100
AcDbEntity
  8
0
100
AcDbLine
 10
-2535.558781351793
 20
224.8568793574526
 30
0.0
 11
-2534.987517266634
 21
224.3392412672486
 31
0.0
  0
LINE
  5
280
330
1F
100
AcDbEntity
  8
0
100
AcDbLine
 10
-2487.794863245677
 20
224.8568793574526
 30
0.0
 11
-2487.223599160518
 21
224.3392412672486
 31
0.0
  0
LINE
  5
281
330
1F
100
AcDbEntity
  8
0
100
AcDbLine
 10
342.8564326099159
 20
198.8305748898276
 30
0.0
 11
342.9143277103326
 21
197.9371790829941
 31
0.0
  0
LINE
  5
282
330
1F
100
AcDbEntity
  8
0
100
AcDbLine
 10
342.9553559453743
 20
200.6125243664824
 30
0.0
 11
342.8704265768362
 21
199.7430853441459
 31
0.0
  0
LINE
  5
283
330
1F
100
AcDbEntity
  8
0
100
AcDbLine
 10
343.1054329194165
 20
201.3796411242807
 30
0.0
 11
342.9553559453743
 21
200.6125243664824
 31
0.0
  0
LINE
  5
284
330
1F
100
AcDbEntity
  8
0
100
AcDbLine
 10
343.5563769783624
 20
202.4083326237421
 30
0.0
 11
343.3104300011956
 21
201.9921578782168
 31
0.0
  0
LINE
  5
285
330
1F
100
AcDbEntity
  8
0
100
AcDbLine
 10
343.8265129708692
 20
202.5998037397105
 30
0.0
 11
343.5563769783624
 21
202.4083326237421
 31
0.0
  0
LINE
  5
286
330
1F
100
AcDbEntity
  8
0
100
AcDbLine
 10
344.1024286572481
 20
202.5535227859893
 30
0.0
 11
343.8265129708692
 21
202.5998037397105
 31
0.0
  0
LINE
  5
287
330
1F
100
AcDbEntity
  8
0
100
AcDbLine
 10
344.365320839444
 20
202.2726437330921
 30
0.0
 11
344.1024286572481
 21
202.5535227859893
 31
0.0
  0
LINE
  5
288
330
1F
100
AcDbEntity
  8
0
100
AcDbLine
 10
344.5972738496895
 20
201.7763080242989
 30
0.0
 11
344.365320839444
 21
202.2726437330921
 31
0.0
  0
LINE
  5
289
330
1F
100
AcDbEntity
  8
0
100
AcDbLine
 10
344.7824804736594
 20
201.0983401179307
 30
0.0
 11
344.5972738496895
 21
201.7763080242989
 31
0.0
  0
LINE
  5
28A
330
1F
100
AcDbEntity
  8
0
100
AcDbLine
 10
344.9083191859951
 20
200.2849424064115
 30
0.0
 11
344.7824804736594
 21
201.0983401179307
 31
0.0
  0
LINE
  5
28B
330
1F
100
AcDbEntity
  8
0
100
AcDbLine
 10
344.9662142864128
 20
199.391546599578
 30
0.0
 11
344.9083191859951
 21
200.2849424064115
 31
0.0
  0
LINE
  5
28C
330
1F
100
AcDbEntity
  8
0
100
AcDbLine
 10
344.9522203194916
 20
198.4790361452597
 30
0.0
 11
344.9662142864128
 21
199.391546599578
 31
0.0
  0
LINE
  5
28D
330
1F
100
AcDbEntity
  8
0
100
AcDbLine
 10
344.8672909509544
 20
197.6095971229232
 30
0.0
 11
344.9522203194916
 21
198.4790361452597
 31
0.0
  0
LINE
  5
28E
330
1F
100
AcDbEntity
  8
0
100
AcDbLine
 10
344.717213976912
 20
196.842480365125
 30
0.0
 11
344.8672909509544
 21
197.6095971229232
 31
0.0
  0
LINE
  5
28F
330
1F
100
AcDbEntity
  8
0
100
AcDbLine
 10
344.5122168951329
 20
196.2299636111888
 30
0.0
 11
344.717213976912
 21
196.842480365125
 31
0.0
  0
LINE
  5
290
330
1F
100
AcDbEntity
  8
0
100
AcDbLine
 10
344.2662699179663
 20
195.8137888656635
 30
0.0
 11
344.5122168951329
 21
196.2299636111888
 31
0.0
  0
LINE
  5
291
330
1F
100
AcDbEntity
  8
0
100
AcDbLine
 10
343.9961339254593
 20
195.6223177496951
 30
0.0
 11
344.2662699179663
 21
195.8137888656635
 31
0.0
  0
LINE
  5
292
330
1F
100
AcDbEntity
  8
0
100
AcDbLine
 10
343.7202182390805
 20
195.6685987034163
 30
0.0
 11
343.9961339254593
 21
195.6223177496951
 31
0.0
  0
LINE
  5
293
330
1F
100
AcDbEntity
  8
0
100
AcDbLine
 10
343.4573260568847
 20
195.9494777563135
 30
0.0
 11
343.7202182390805
 21
195.6685987034163
 31
0.0
  0
LINE
  5
294
330
1F
100
AcDbEntity
  8
0
100
AcDbLine
 10
343.0401664226692
 20
197.1237813714748
 30
0.0
 11
343.2253730466383
 21
196.4458134651067
 31
0.0
  0
LINE
  5
295
330
1F
100
AcDbEntity
  8
0
100
AcDbLine
 10
342.9143277103326
 20
197.9371790829941
 30
0.0
 11
343.0401664226692
 21
197.1237813714748
 31
0.0
  0
LINE
  5
296
330
1F
100
AcDbEntity
  8
0
100
AcDbLine
 10
210.8064806280929
 20
209.1110607447028
 30
0.0
 11
210.8064806280929
 21
189.1110607447028
 31
0.0
  0
LINE
  5
297
330
1F
100
AcDbEntity
  8
0
100
AcDbLine
 10
191.7426672722188
 20
209.1110607447028
 30
0.0
 11
191.7426672722188
 21
189.1110607447028
 31
0.0
  0
LINE
  5
298
330
1F
100
AcDbEntity
  8
0
100
AcDbLine
 10
321.42707819077
 20
227.3486082038474
 30
0.0
 11
321.0917027198099
 21
227.7487077813428
 31
0.0
  0
LINE
  5
299
330
1F
100
AcDbEntity
  8
0
100
AcDbLine
 10
323.3090110415901
 20
226.848608203847
 30
0.0
 11
322.8209364721208
 21
226.7827819550531
 31
0.0
  0
LINE
  5
29A
330
1F
100
AcDbEntity
  8
0
100
AcDbLine
 10
321.7380616747026
 20
226.3309701136432
 30
0.0
 11
321.2626425721963
 21
226.5239629099522
 31
0.0
  0
LINE
  5
29B
330
1F
100
AcDbEntity
  8
0
100
AcDbLine
 10
322.322195447834
 20
226.848608203847
 30
0.0
 11
321.8467763453276
 21
227.041601000156
 31
0.0
  0
LINE
  5
29C
330
1F
100
AcDbEntity
  8
0
100
AcDbLine
 10
323.9866658617945
 20
228.1969955174282
 30
0.0
 11
323.9622173770274
 21
227.6969955174283
 31
0.0
  0
LINE
  5
29D
330
1F
100
AcDbEntity
  8
0
100
AcDbLine
 10
322.8979264802175
 20
229.8700281249036
 30
0.0
 11
323.3176246347751
 21
229.5630209212122
 31
0.0
  0
LINE
  5
29E
330
1F
100
AcDbEntity
  8
0
100
AcDbLine
 10
320.1983516753875
 20
228.696995517428
 30
0.0
 11
320.3510507738968
 21
229.1629213437172
 31
0.0
  0
LINE
  5
29F
330
1F
100
AcDbEntity
  8
0
100
AcDbLine
 10
320.7824854485191
 20
229.214633607632
 30
0.0
 11
320.9351845470284
 21
229.6805594339212
 31
0.0
  0
LINE
  5
2A0
330
1F
100
AcDbEntity
  8
0
100
AcDbLine
 10
321.8467763453276
 20
227.041601000156
 30
0.0
 11
321.42707819077
 21
227.3486082038474
 31
0.0
  0
LINE
  5
2A1
330
1F
100
AcDbEntity
  8
0
100
AcDbLine
 10
320.1739031906199
 20
228.1969955174282
 30
0.0
 11
320.1983516753875
 21
228.696995517428
 31
0.0
  0
LINE
  5
2A2
330
1F
100
AcDbEntity
  8
0
100
AcDbLine
 10
320.7580369637515
 20
228.7146336076322
 30
0.0
 11
320.7824854485191
 21
229.214633607632
 31
0.0
  0
LINE
  5
2A3
330
1F
100
AcDbEntity
  8
0
100
AcDbLine
 10
321.4356917839551
 20
230.0630209212127
 30
0.0
 11
321.9237663534251
 21
230.1288471700065
 31
0.0
  0
LINE
  5
2A4
330
1F
100
AcDbEntity
  8
0
100
AcDbLine
 10
321.9237663534251
 20
230.1288471700065
 30
0.0
 11
322.4225073777111
 21
230.0630209212127
 31
0.0
  0
LINE
  5
2A5
330
1F
100
AcDbEntity
  8
0
100
AcDbLine
 10
323.8811976089864
 20
228.696995517428
 30
0.0
 11
323.9866658617945
 21
228.1969955174282
 31
0.0
  0
LINE
  5
2A6
330
1F
100
AcDbEntity
  8
0
100
AcDbLine
 10
323.653000105735
 20
229.1629213437172
 30
0.0
 11
323.8811976089864
 21
228.696995517428
 31
0.0
  0
LINE
  5
2A7
330
1F
100
AcDbEntity
  8
0
100
AcDbLine
 10
321.2626425721963
 20
226.5239629099522
 30
0.0
 11
320.8429444176386
 21
226.8309701136436
 31
0.0
  0
LINE
  5
2A8
330
1F
100
AcDbEntity
  8
0
100
AcDbLine
 10
322.2368026989893
 20
226.2651438648493
 30
0.0
 11
321.7380616747026
 21
226.3309701136432
 31
0.0
  0
LINE
  5
2A9
330
1F
100
AcDbEntity
  8
0
100
AcDbLine
 10
322.8209364721208
 20
226.7827819550531
 30
0.0
 11
322.322195447834
 21
226.848608203847
 31
0.0
  0
LINE
  5
2AA
330
1F
100
AcDbEntity
  8
0
100
AcDbLine
 10
321.0917027198099
 20
227.7487077813428
 30
0.0
 11
320.8635052165599
 21
228.2146336076321
 31
0.0
  0
LINE
  5
2AB
330
1F
100
AcDbEntity
  8
0
100
AcDbLine
 10
323.3176246347751
 20
229.5630209212122
 30
0.0
 11
323.653000105735
 21
229.1629213437172
 31
0.0
  0
LINE
  5
2AC
330
1F
100
AcDbEntity
  8
0
100
AcDbLine
 10
322.4225073777111
 20
230.0630209212127
 30
0.0
 11
322.8979264802175
 21
229.8700281249036
 31
0.0
  0
LINE
  5
2AD
330
1F
100
AcDbEntity
  8
0
100
AcDbLine
 10
320.5075689466785
 20
227.231069691139
 30
0.0
 11
320.2793714434285
 21
227.6969955174283
 31
0.0
  0
LINE
  5
2AE
330
1F
100
AcDbEntity
  8
0
100
AcDbLine
 10
320.3510507738968
 20
229.1629213437172
 30
0.0
 11
320.6215942949323
 21
229.5630209212122
 31
0.0
  0
LINE
  5
2AF
330
1F
100
AcDbEntity
  8
0
100
AcDbLine
 10
320.9351845470284
 20
229.6805594339212
 30
0.0
 11
321.0931573271802
 21
229.9141811534603
 31
0.0
  0
LINE
  5
2B0
330
1F
100
AcDbEntity
  8
0
100
AcDbLine
 10
322.7248772684587
 20
226.3309701136432
 30
0.0
 11
322.2368026989893
 21
226.2651438648493
 31
0.0
  0
LINE
  5
2B1
330
1F
100
AcDbEntity
  8
0
100
AcDbLine
 10
320.2793714434285
 20
227.6969955174283
 30
0.0
 11
320.1739031906199
 21
228.1969955174282
 31
0.0
  0
LINE
  5
2B2
330
1F
100
AcDbEntity
  8
0
100
AcDbLine
 10
320.8635052165599
 20
228.2146336076321
 30
0.0
 11
320.7580369637515
 21
228.7146336076322
 31
0.0
  0
LINE
  5
2B3
330
1F
100
AcDbEntity
  8
0
100
AcDbLine
 10
323.1690239077839
 20
226.5239629099522
 30
0.0
 11
322.7248772684587
 21
226.3309701136432
 31
0.0
  0
LINE
  5
2B4
330
1F
100
AcDbEntity
  8
0
100
AcDbLine
 10
323.6515454983647
 20
226.9974479715993
 30
0.0
 11
323.3090110415901
 21
226.848608203847
 31
0.0
  0
LINE
  5
2B5
330
1F
100
AcDbEntity
  8
0
100
AcDbLine
 10
320.6215942949323
 20
229.5630209212122
 30
0.0
 11
320.9915451446289
 21
229.8700281249036
 31
0.0
  0
LINE
  5
2B6
330
1F
100
AcDbEntity
  8
0
100
AcDbLine
 10
320.8429444176386
 20
226.8309701136436
 30
0.0
 11
320.5075689466785
 21
227.231069691139
 31
0.0
  0
LINE
  5
2B7
330
1F
100
AcDbEntity
  8
0
100
AcDbLine
 10
323.9622173770274
 20
227.6969955174283
 30
0.0
 11
323.8095182785167
 21
227.231069691139
 31
0.0
  0
LINE
  5
2B8
330
1F
100
AcDbEntity
  8
0
100
AcDbLine
 10
323.5389747574815
 20
226.8309701136436
 30
0.0
 11
323.1690239077839
 21
226.5239629099522
 31
0.0
  0
LINE
  5
2B9
330
1F
100
AcDbEntity
  8
0
100
AcDbLine
 10
326.5442739119935
 20
188.2442456509066
 30
0.0
 11
326.0632545646955
 21
188.1490992410585
 31
0.0
  0
LINE
  5
2BA
330
1F
100
AcDbEntity
  8
0
100
AcDbLine
 10
325.5639392390869
 20
188.1853770088286
 30
0.0
 11
325.0803554494518
 21
188.3506066842959
 31
0.0
  0
LINE
  5
2BB
330
1F
100
AcDbEntity
  8
0
100
AcDbLine
 10
324.2888862858257
 20
189.0148607408068
 30
0.0
 11
324.2350472758663
 21
189.1110607447028
 31
0.0
  0
LINE
  5
2BC
330
1F
100
AcDbEntity
  8
0
100
AcDbLine
 10
325.0803554494518
 20
188.3506066842959
 30
0.0
 11
324.6454586318926
 21
188.6335281381317
 31
0.0
  0
LINE
  5
2BD
330
1F
100
AcDbEntity
  8
0
100
AcDbLine
 10
326.0632545646955
 20
188.1490992410585
 30
0.0
 11
325.5639392390869
 21
188.1853770088286
 31
0.0
  0
LINE
  5
2BE
330
1F
100
AcDbEntity
  8
0
100
AcDbLine
 10
326.7964230865218
 20
188.3733201395511
 30
0.0
 11
326.5442739119935
 21
188.2442456509066
 31
0.0
  0
LINE
  5
2BF
330
1F
100
AcDbEntity
  8
0
100
AcDbLine
 10
323.7047525126943
 20
188.497222650603
 30
0.0
 11
323.4508044542402
 21
188.9509792154273
 31
0.0
  0
LINE
  5
2C0
330
1F
100
AcDbEntity
  8
0
100
AcDbLine
 10
323.4508044542402
 20
188.9509792154273
 30
0.0
 11
323.4074861084324
 21
189.1110607447028
 31
0.0
  0
LINE
  5
2C1
330
1F
100
AcDbEntity
  8
0
100
AcDbLine
 10
324.0613248587609
 20
188.1158900479277
 30
0.0
 11
323.7047525126943
 21
188.497222650603
 31
0.0
  0
LINE
  5
2C2
330
1F
100
AcDbEntity
  8
0
100
AcDbLine
 10
324.6454586318926
 20
188.6335281381317
 30
0.0
 11
324.2888862858257
 21
189.0148607408068
 31
0.0
  0
LINE
  5
2C3
330
1F
100
AcDbEntity
  8
0
100
AcDbLine
 10
325.4791207915638
 20
187.6314611508545
 30
0.0
 11
324.9798054659553
 21
187.6677389186246
 31
0.0
  0
LINE
  5
2C4
330
1F
100
AcDbEntity
  8
0
100
AcDbLine
 10
326.739648993562
 20
188.2767221690571
 30
0.0
 11
326.3900828342537
 21
187.9466940775747
 31
0.0
  0
LINE
  5
2C5
330
1F
100
AcDbEntity
  8
0
100
AcDbLine
 10
362.2877296369932
 20
189.2128786715826
 30
0.0
 11
362.086349183047
 21
189.6894570477073
 31
0.0
  0
LINE
  5
2C6
330
1F
100
AcDbEntity
  8
0
100
AcDbLine
 10
325.9601401388619
 20
187.7266075607026
 30
0.0
 11
325.4791207915638
 21
187.6314611508545
 31
0.0
  0
LINE
  5
2C7
330
1F
100
AcDbEntity
  8
0
100
AcDbLine
 10
363.4688737456614
 20
188.2446125232526
 30
0.0
 11
363.0033770112464
 21
188.4649721113005
 31
0.0
  0
LINE
  5
2C8
330
1F
100
AcDbEntity
  8
0
100
AcDbLine
 10
364.8976350402935
 20
188.3435675883642
 30
0.0
 11
364.4587610018193
 21
188.1851430467674
 31
0.0
  0
LINE
  5
2C9
330
1F
100
AcDbEntity
  8
0
100
AcDbLine
 10
362.2448599819061
 20
191.1413111871616
 30
0.0
 11
362.3630481200289
 21
191.293995433559
 31
0.0
  0
LINE
  5
2CA
330
1F
100
AcDbEntity
  8
0
100
AcDbLine
 10
324.9798054659553
 20
187.6677389186246
 30
0.0
 11
324.4962216763201
 21
187.8329685940919
 31
0.0
  0
LINE
  5
2CB
330
1F
100
AcDbEntity
  8
0
100
AcDbLine
 10
326.3900828342537
 20
187.9466940775747
 30
0.0
 11
325.9601401388619
 21
187.7266075607026
 31
0.0
  0
LINE
  5
2CC
330
1F
100
AcDbEntity
  8
0
100
AcDbLine
 10
363.0033770112464
 20
188.4649721113005
 30
0.0
 11
362.6005107517516
 21
188.7952296628645
 31
0.0
  0
LINE
  5
2CD
330
1F
100
AcDbEntity
  8
0
100
AcDbLine
 10
364.4587610018193
 20
188.1851430467674
 30
0.0
 11
363.9652781218148
 21
188.1491680404845
 31
0.0
  0
LINE
  5
2CE
330
1F
100
AcDbEntity
  8
0
100
AcDbLine
 10
363.9652781218148
 20
188.1491680404845
 30
0.0
 11
363.4688737456614
 21
188.2446125232526
 31
0.0
  0
LINE
  5
2CF
330
1F
100
AcDbEntity
  8
0
100
AcDbLine
 10
327.0938918838104
 20
189.1110607447028
 30
0.0
 11
326.985016260716
 21
188.6942009661115
 31
0.0
  0
LINE
  5
2D0
330
1F
100
AcDbEntity
  8
0
100
AcDbLine
 10
362.6005107517516
 20
188.7952296628645
 30
0.0
 11
362.2877296369932
 21
189.2128786715826
 31
0.0
  0
LINE
  5
2D1
330
1F
100
AcDbEntity
  8
0
100
AcDbLine
 10
324.4962216763201
 20
187.8329685940919
 30
0.0
 11
324.0613248587609
 21
188.1158900479277
 31
0.0
  0
LINE
  5
2D2
330
1F
100
AcDbEntity
  8
0
100
AcDbLine
 10
362.0641582166594
 20
190.6876871721608
 30
0.0
 11
362.2448599819061
 21
191.1413111871616
 31
0.0
  0
LINE
  5
2D3
330
1F
100
AcDbEntity
  8
0
100
AcDbLine
 10
358.9698145648892
 20
229.4506554903091
 30
0.0
 11
359.1824359144818
 21
229.8878651217422
 31
0.0
  0
LINE
  5
2D4
330
1F
100
AcDbEntity
  8
0
100
AcDbLine
 10
360.7018860302952
 20
226.7988512069981
 30
0.0
 11
360.2104403893414
 21
226.9284861904819
 31
0.0
  0
LINE
  5
2D5
330
1F
100
AcDbEntity
  8
0
100
AcDbLine
 10
361.49520678504
 20
226.666508160714
 30
0.0
 11
361.0851661713409
 21
226.4135525022205
 31
0.0
  0
LINE
  5
2D6
330
1F
100
AcDbEntity
  8
0
100
AcDbLine
 10
361.8152097417037
 20
227.0212029170727
 30
0.0
 11
361.6692999444723
 21
226.9311905924243
 31
0.0
  0
LINE
  5
2D7
330
1F
100
AcDbEntity
  8
0
100
AcDbLine
 10
362.0301416841536
 20
227.4609736347512
 30
0.0
 11
361.8152097417037
 21
227.0212029170727
 31
0.0
  0
LINE
  5
2D8
330
1F
100
AcDbEntity
  8
0
100
AcDbLine
 10
359.3772454105983
 20
227.5357955108146
 30
0.0
 11
359.0922769336901
 21
227.9720827211084
 31
0.0
  0
LINE
  5
2D9
330
1F
100
AcDbEntity
  8
0
100
AcDbLine
 10
361.9076793153532
 20
228.9395464039517
 30
0.0
 11
362.0768114067863
 21
228.4526555778642
 31
0.0
  0
LINE
  5
2DA
330
1F
100
AcDbEntity
  8
0
100
AcDbLine
 10
361.6227108384452
 20
229.3758336142451
 30
0.0
 11
361.9076793153532
 21
228.9395464039517
 31
0.0
  0
LINE
  5
2DB
330
1F
100
AcDbEntity
  8
0
100
AcDbLine
 10
361.8152097417037
 20
227.0212029170727
 30
0.0
 11
361.49520678504
 21
226.666508160714
 31
0.0
  0
LINE
  5
2DC
330
1F
100
AcDbEntity
  8
0
100
AcDbLine
 10
360.7895158597014
 20
229.9831429345778
 30
0.0
 11
361.2413261068311
 21
229.7317849563639
 31
0.0
  0
LINE
  5
2DD
330
1F
100
AcDbEntity
  8
0
100
AcDbLine
 10
361.6692999444723
 20
226.9311905924243
 30
0.0
 11
361.1994758567964
 21
226.7997736281377
 31
0.0
  0
LINE
  5
2DE
330
1F
100
AcDbEntity
  8
0
100
AcDbLine
 10
362.1185810402161
 20
227.9483419411558
 30
0.0
 11
362.0301416841536
 21
227.4609736347512
 31
0.0
  0
LINE
  5
2DF
330
1F
100
AcDbEntity
  8
0
100
AcDbLine
 10
360.298070218747
 20
230.1127779180616
 30
0.0
 11
360.7895158597014
 21
229.9831429345778
 31
0.0
  0
LINE
  5
2E0
330
1F
100
AcDbEntity
  8
0
100
AcDbLine
 10
358.8813752088274
 20
228.9632871839044
 30
0.0
 11
358.9698145648892
 21
229.4506554903091
 31
0.0
  0
LINE
  5
2E1
330
1F
100
AcDbEntity
  8
0
100
AcDbLine
 10
359.0922769336901
 20
227.9720827211084
 30
0.0
 11
358.9231448422577
 21
228.4589735471959
 31
0.0
  0
LINE
  5
2E2
330
1F
100
AcDbEntity
  8
0
100
AcDbLine
 10
361.2413261068311
 20
229.7317849563639
 30
0.0
 11
361.6227108384452
 21
229.3758336142451
 31
0.0
  0
LINE
  5
2E3
330
1F
100
AcDbEntity
  8
0
100
AcDbLine
 10
359.8004803922472
 20
230.111855496922
 30
0.0
 11
360.298070218747
 21
230.1127779180616
 31
0.0
  0
LINE
  5
2E4
330
1F
100
AcDbEntity
  8
0
100
AcDbLine
 10
359.7586301422124
 20
227.1798441686958
 30
0.0
 11
359.3772454105983
 21
227.5357955108146
 31
0.0
  0
LINE
  5
2E5
330
1F
100
AcDbEntity
  8
0
100
AcDbLine
 10
360.2104403893414
 20
226.9284861904819
 30
0.0
 11
359.7586301422124
 21
227.1798441686958
 31
0.0
  0
LINE
  5
2E6
330
1F
100
AcDbEntity
  8
0
100
AcDbLine
 10
362.0768114067863
 20
228.4526555778642
 30
0.0
 11
362.1185810402161
 21
227.9483419411558
 31
0.0
  0
LINE
  5
2E7
330
1F
100
AcDbEntity
  8
0
100
AcDbLine
 10
359.3306563045699
 20
229.9804385326353
 30
0.0
 11
359.8004803922472
 21
230.111855496922
 31
0.0
  0
LINE
  5
2E8
330
1F
100
AcDbEntity
  8
0
100
AcDbLine
 10
361.0851661713409
 20
226.4135525022205
 30
0.0
 11
360.615342083665
 21
226.2821355379339
 31
0.0
  0
LINE
  5
2E9
330
1F
100
AcDbEntity
  8
0
100
AcDbLine
 10
362.0100931350515
 20
190.1924867624886
 30
0.0
 11
362.0641582166594
 21
190.6876871721608
 31
0.0
  0
LINE
  5
2EA
330
1F
100
AcDbEntity
  8
0
100
AcDbLine
 10
358.7931116374669
 20
227.0181574206107
 30
0.0
 11
358.5081431605587
 21
227.4544446309046
 31
0.0
  0
LINE
  5
2EB
330
1F
100
AcDbEntity
  8
0
100
AcDbLine
 10
360.1177522571638
 20
226.2812131167943
 30
0.0
 11
359.62630661621
 21
226.4108481002781
 31
0.0
  0
LINE
  5
2EC
330
1F
100
AcDbEntity
  8
0
100
AcDbLine
 10
358.2972414356958
 20
228.4456490937004
 30
0.0
 11
358.3856807917576
 21
228.9330174001051
 31
0.0
  0
LINE
  5
2ED
330
1F
100
AcDbEntity
  8
0
100
AcDbLine
 10
359.62630661621
 20
226.4108481002781
 30
0.0
 11
359.1744963690811
 21
226.662206078492
 31
0.0
  0
LINE
  5
2EE
330
1F
100
AcDbEntity
  8
0
100
AcDbLine
 10
358.5983021413502
 20
229.3702270315381
 30
0.0
 11
358.9206156908715
 21
229.7274828741419
 31
0.0
  0
LINE
  5
2EF
330
1F
100
AcDbEntity
  8
0
100
AcDbLine
 10
358.5081431605587
 20
227.4544446309046
 30
0.0
 11
358.3390110691262
 21
227.9413354569921
 31
0.0
  0
LINE
  5
2F0
330
1F
100
AcDbEntity
  8
0
100
AcDbLine
 10
358.3856807917576
 20
228.9330174001051
 30
0.0
 11
358.5983021413502
 21
229.3702270315381
 31
0.0
  0
LINE
  5
2F1
330
1F
100
AcDbEntity
  8
0
100
AcDbLine
 10
359.1744963690811
 20
226.662206078492
 30
0.0
 11
358.7931116374669
 21
227.0181574206107
 31
0.0
  0
LINE
  5
2F2
330
1F
100
AcDbEntity
  8
0
100
AcDbLine
 10
365.1667029181008
 20
233.5442627390782
 30
0.0
 11
317.5071695284149
 21
233.5442627390782
 31
0.0
  0
LINE
  5
2F3
330
1F
100
AcDbEntity
  8
0
100
AcDbLine
 10
369.0796572376503
 20
185.2479714246172
 30
0.0
 11
365.1667029181008
 21
233.5442627390782
 31
0.0
  0
LINE
  5
2F4
330
1F
100
AcDbEntity
  8
0
100
AcDbLine
 10
334.9734064535152
 20
216.1229226888133
 30
0.0
 11
349.2712664704218
 21
216.1229226888133
 31
0.0
  0
LINE
  5
2F5
330
1F
100
AcDbEntity
  8
0
100
AcDbLine
 10
334.9734064535152
 20
216.1229226888133
 30
0.0
 11
327.0608021618236
 21
209.1110607447028
 31
0.0
  0
LINE
  5
2F6
330
1F
100
AcDbEntity
  8
0
100
AcDbLine
 10
349.2712664704218
 20
216.1229226888133
 30
0.0
 11
341.3586621787302
 21
209.1110607447028
 31
0.0
  0
LINE
  5
2F7
330
1F
100
AcDbEntity
  8
0
100
AcDbLine
 10
350.4451527662868
 20
201.6340352944741
 30
0.0
 11
349.9587212631248
 21
201.2029774000437
 31
0.0
  0
LINE
  5
2F8
330
1F
100
AcDbEntity
  8
0
100
AcDbLine
 10
369.0796572376503
 20
185.2479714246172
 30
0.0
 11
368.4955234645187
 21
184.7303333344132
 31
0.0
  0
LINE
  5
2F9
330
1F
100
AcDbEntity
  8
0
100
AcDbLine
 10
320.8359900748328
 20
184.7303333344132
 30
0.0
 11
368.4955234645187
 21
184.7303333344132
 31
0.0
  0
LINE
  5
2FA
330
1F
100
AcDbEntity
  8
0
100
AcDbLine
 10
316.9230357552833
 20
233.0266246488742
 30
0.0
 11
318.8606691953746
 21
209.1110607447028
 31
0.0
  0
LINE
  5
2FB
330
1F
100
AcDbEntity
  8
0
100
AcDbLine
 10
320.4810645561993
 20
189.1110607447028
 30
0.0
 11
320.8359900748328
 21
184.7303333344132
 31
0.0
  0
LINE
  5
2FC
330
1F
100
AcDbEntity
  8
0
100
AcDbLine
 10
368.4955234645187
 20
184.7303333344132
 30
0.0
 11
364.5825691449692
 21
233.0266246488742
 31
0.0
  0
LINE
  5
2FD
330
1F
100
AcDbEntity
  8
0
100
AcDbLine
 10
364.5825691449692
 20
233.0266246488742
 30
0.0
 11
316.9230357552833
 21
233.0266246488742
 31
0.0
  0
LINE
  5
2FE
330
1F
100
AcDbEntity
  8
0
100
AcDbLine
 10
349.2712664704218
 20
216.1229226888133
 30
0.0
 11
349.8393658986708
 21
209.1110607447028
 31
0.0
  0
LINE
  5
2FF
330
1F
100
AcDbEntity
  8
0
100
AcDbLine
 10
349.9587212631248
 20
207.6378972521435
 30
0.0
 11
350.4451527662868
 21
201.6340352944741
 31
0.0
  0
LINE
  5
300
330
1F
100
AcDbEntity
  8
0
100
AcDbLine
 10
363.295405038508
 20
191.4883949814388
 30
0.0
 11
363.7918094146615
 21
191.3929504986707
 31
0.0
  0
LINE
  5
301
330
1F
100
AcDbEntity
  8
0
100
AcDbLine
 10
363.7918094146615
 20
191.3929504986707
 30
0.0
 11
364.2573061490751
 21
191.1725909106228
 31
0.0
  0
LINE
  5
302
330
1F
100
AcDbEntity
  8
0
100
AcDbLine
 10
364.2573061490751
 20
191.1725909106228
 30
0.0
 11
364.6601724085699
 21
190.8423333590588
 31
0.0
  0
LINE
  5
303
330
1F
100
AcDbEntity
  8
0
100
AcDbLine
 10
364.6601724085699
 20
190.8423333590588
 30
0.0
 11
364.9729535233283
 21
190.4246843503408
 31
0.0
  0
LINE
  5
304
330
1F
100
AcDbEntity
  8
0
100
AcDbLine
 10
364.9729535233283
 20
190.4246843503408
 30
0.0
 11
365.1743339772752
 21
189.948105974216
 31
0.0
  0
LINE
  5
305
330
1F
100
AcDbEntity
  8
0
100
AcDbLine
 10
365.1743339772752
 20
189.948105974216
 30
0.0
 11
365.2505900252706
 21
189.4450762594348
 31
0.0
  0
LINE
  5
306
330
1F
100
AcDbEntity
  8
0
100
AcDbLine
 10
365.2505900252706
 20
189.4450762594348
 30
0.0
 11
365.1965249436627
 21
188.9498758497626
 31
0.0
  0
LINE
  5
307
330
1F
100
AcDbEntity
  8
0
100
AcDbLine
 10
365.1965249436627
 20
188.9498758497626
 30
0.0
 11
365.0158231784167
 21
188.4962518347617
 31
0.0
  0
LINE
  5
308
330
1F
100
AcDbEntity
  8
0
100
AcDbLine
 10
364.7207992562092
 20
188.1151179414049
 30
0.0
 11
364.3315585697904
 21
187.8324478146715
 31
0.0
  0
LINE
  5
309
330
1F
100
AcDbEntity
  8
0
100
AcDbLine
 10
364.3315585697904
 20
187.8324478146715
 30
0.0
 11
363.8746272286876
 21
187.6675049565634
 31
0.0
  0
LINE
  5
30A
330
1F
100
AcDbEntity
  8
0
100
AcDbLine
 10
363.8746272286876
 20
187.6675049565634
 30
0.0
 11
363.3811443486832
 21
187.6315299502805
 31
0.0
  0
LINE
  5
30B
330
1F
100
AcDbEntity
  8
0
100
AcDbLine
 10
363.3811443486832
 20
187.6315299502805
 30
0.0
 11
362.8847399725298
 21
187.7269744330486
 31
0.0
  0
LINE
  5
30C
330
1F
100
AcDbEntity
  8
0
100
AcDbLine
 10
362.8847399725298
 20
187.7269744330486
 30
0.0
 11
362.4192432381147
 21
187.9473340210965
 31
0.0
  0
LINE
  5
30D
330
1F
100
AcDbEntity
  8
0
100
AcDbLine
 10
362.4192432381147
 20
187.9473340210965
 30
0.0
 11
362.0163769786199
 21
188.2775915726606
 31
0.0
  0
LINE
  5
30E
330
1F
100
AcDbEntity
  8
0
100
AcDbLine
 10
362.0163769786199
 20
188.2775915726606
 30
0.0
 11
361.7035958638618
 21
188.6952405813788
 31
0.0
  0
LINE
  5
30F
330
1F
100
AcDbEntity
  8
0
100
AcDbLine
 10
361.7035958638618
 20
188.6952405813788
 30
0.0
 11
361.5022154099156
 21
189.1718189575035
 31
0.0
  0
LINE
  5
310
330
1F
100
AcDbEntity
  8
0
100
AcDbLine
 10
361.4259593619201
 20
189.6748486722848
 30
0.0
 11
361.4800244435281
 21
190.170049081957
 31
0.0
  0
LINE
  5
311
330
1F
100
AcDbEntity
  8
0
100
AcDbLine
 10
361.4800244435281
 20
190.170049081957
 30
0.0
 11
361.6607262087747
 21
190.6236730969578
 31
0.0
  0
LINE
  5
312
330
1F
100
AcDbEntity
  8
0
100
AcDbLine
 10
361.6607262087747
 20
190.6236730969578
 30
0.0
 11
361.9557501309814
 21
191.0048069903145
 31
0.0
  0
LINE
  5
313
330
1F
100
AcDbEntity
  8
0
100
AcDbLine
 10
361.9557501309814
 20
191.0048069903145
 30
0.0
 11
362.3630481200289
 21
191.293995433559
 31
0.0
  0
LINE
  5
314
330
1F
100
AcDbEntity
  8
0
100
AcDbLine
 10
362.3630481200289
 20
191.293995433559
 30
0.0
 11
362.8019221585029
 21
191.4524199751559
 31
0.0
  0
LINE
  5
315
330
1F
100
AcDbEntity
  8
0
100
AcDbLine
 10
317.5071695284149
 20
233.5442627390782
 30
0.0
 11
316.9230357552833
 21
233.0266246488742
 31
0.0
  0
LINE
  5
316
330
1F
100
AcDbEntity
  8
0
100
AcDbLine
 10
365.1667029181008
 20
233.5442627390782
 30
0.0
 11
364.5825691449692
 21
233.0266246488742
 31
0.0
  0
LINE
  5
317
330
1F
100
AcDbEntity
  8
0
100
AcDbLine
 10
343.5989213876983
 20
201.8729457489408
 30
0.0
 11
343.5974343255379
 21
201.77597826465
 31
0.0
  0
LINE
  5
318
330
1F
100
AcDbEntity
  8
0
100
AcDbLine
 10
342.9114839240118
 20
199.1107309850557
 30
0.0
 11
342.8601712321148
 21
199.074360791326
 31
0.0
  0
LINE
  5
319
330
1F
100
AcDbEntity
  8
0
100
AcDbLine
 10
343.3624279829579
 20
200.1394224845166
 30
0.0
 11
343.1574309011787
 21
199.5269057305808
 31
0.0
  0
LINE
  5
31A
330
1F
100
AcDbEntity
  8
0
100
AcDbLine
 10
343.1574309011787
 20
199.5269057305808
 30
0.0
 11
342.9114839240118
 21
199.1107309850557
 31
0.0
  0
LINE
  5
31B
330
1F
100
AcDbEntity
  8
0
100
AcDbLine
 10
343.5974343255379
 20
201.77597826465
 30
0.0
 11
343.5125049569999
 21
200.906539242314
 31
0.0
  0
LINE
  5
31C
330
1F
100
AcDbEntity
  8
0
100
AcDbLine
 10
343.5125049569999
 20
200.906539242314
 30
0.0
 11
343.3624279829579
 21
200.1394224845166
 31
0.0
  0
LINE
  5
31D
330
1F
100
AcDbEntity
  8
0
100
AcDbLine
 10
-2529.586387651621
 20
221.2174868985764
 30
0.0
 11
-2529.505959177312
 21
221.1826447432782
 31
0.0
  0
LINE
  5
31E
330
1F
100
AcDbEntity
  8
0
100
AcDbLine
 10
-1544.496806224153
 20
180.4243531871792
 30
0.0
 11
-1544.541418796693
 21
180.423728885082
 31
0.0
  0
LINE
  5
31F
330
1F
100
AcDbEntity
  8
0
100
AcDbLine
 10
-1824.541446648585
 20
180.4243527451586
 30
0.0
 11
-1844.496806224153
 21
180.4243532307882
 31
0.0
  0
LINE
  5
320
330
1F
100
AcDbEntity
  8
0
100
AcDbLine
 10
-1046.74564013153
 20
160.4237482825309
 30
0.0
 11
-1046.745386384176
 21
896.2237285432211
 31
0.0
  0
LINE
  5
321
330
1F
100
AcDbEntity
  8
0
100
AcDbLine
 10
-1046.745386384176
 20
896.2237285432211
 30
0.0
 11
-1046.745642986991
 21
916.2237483266691
 31
0.0
  0
LINE
  5
322
330
1F
100
AcDbEntity
  8
0
100
AcDbLine
 10
-1046.719130261135
 20
-745.8398399090887
 30
0.0
 11
-1046.719130060933
 21
-595.8398399091617
 31
0.0
  0
LINE
  5
323
330
1F
100
AcDbEntity
  8
0
100
AcDbLine
 10
-2321.644521945093
 20
-765.8394562111224
 30
0.0
 11
-2321.746281827596
 21
-765.8401186016823
 31
0.0
  0
LINE
  5
324
330
1F
100
AcDbEntity
  8
0
100
AcDbLine
 10
-2302.119194773131
 20
-745.8398201600754
 30
0.0
 11
-2302.318027740405
 21
-745.8398398738027
 31
0.0
  0
LINE
  5
325
330
1F
100
AcDbEntity
  8
0
100
AcDbLine
 10
-2302.318027740405
 20
-745.8398398738027
 30
0.0
 11
-2302.344538845683
 21
-745.839820160069
 31
0.0
  0
LINE
  5
326
330
1F
100
AcDbEntity
  8
0
100
AcDbLine
 10
-1046.719130261135
 20
-745.8398399090887
 30
0.0
 11
-1046.520296975075
 21
-745.8399121976528
 31
0.0
  0
LINE
  5
327
330
1F
100
AcDbEntity
  8
0
100
AcDbLine
 10
-2302.330261284222
 20
30.73539753923825
 30
0.0
 11
-2302.332659320424
 21
30.8333561460126
 31
0.0
  0
LINE
  5
328
330
1F
100
AcDbEntity
  8
0
100
AcDbLine
 10
-2302.332659320424
 20
30.8333561460126
 30
0.0
 11
-2302.329118917685
 21
31.03889610364227
 31
0.0
  0
LINE
  5
329
330
1F
100
AcDbEntity
  8
0
100
AcDbLine
 10
-2302.333751567883
 20
31.22813760002365
 30
0.0
 11
-2302.329118917685
 21
31.03889610364227
 31
0.0
  0
LINE
  5
32A
330
1F
100
AcDbEntity
  8
0
100
AcDbLine
 10
-2302.334671157184
 20
31.82273234572823
 30
0.0
 11
-2302.328119600444
 21
31.55510445498192
 31
0.0
  0
LINE
  5
32B
330
1F
100
AcDbEntity
  8
0
100
AcDbLine
 10
-2302.328119600444
 20
31.55510445498192
 30
0.0
 11
-2302.333751567883
 21
31.22813760002365
 31
0.0
  0
LINE
  5
32C
330
1F
100
AcDbEntity
  8
0
100
AcDbLine
 10
-2302.335355419835
 20
32.57661973382085
 30
0.0
 11
-2302.327331434318
 21
32.24884384718793
 31
0.0
  0
LINE
  5
32D
330
1F
100
AcDbEntity
  8
0
100
AcDbLine
 10
-2302.327331434318
 20
32.24884384718793
 30
0.0
 11
-2302.334671157184
 21
31.82273234572823
 31
0.0
  0
LINE
  5
32E
330
1F
100
AcDbEntity
  8
0
100
AcDbLine
 10
-2302.335757724468
 20
33.43842358466072
 30
0.0
 11
-2302.326808131526
 21
33.07283708714004
 31
0.0
  0
LINE
  5
32F
330
1F
100
AcDbEntity
  8
0
100
AcDbLine
 10
-2302.326808131526
 20
33.07283708714004
 30
0.0
 11
-2302.335355419835
 21
32.57661973382085
 31
0.0
  0
LINE
  5
330
330
1F
100
AcDbEntity
  8
0
100
AcDbLine
 10
-2302.335850654687
 20
34.34941339001141
 30
0.0
 11
-2302.326585354289
 21
33.97093039724864
 31
0.0
  0
LINE
  5
331
330
1F
100
AcDbEntity
  8
0
100
AcDbLine
 10
-2302.326585354289
 20
33.97093039724864
 30
0.0
 11
-2302.335757724468
 21
33.43842358466072
 31
0.0
  0
LINE
  5
332
330
1F
100
AcDbEntity
  8
0
100
AcDbLine
 10
-2302.33562787745
 20
35.24750670012002
 30
0.0
 11
-2302.326678284508
 21
34.88192020259934
 31
0.0
  0
LINE
  5
333
330
1F
100
AcDbEntity
  8
0
100
AcDbLine
 10
-2302.326678284508
 20
34.88192020259934
 30
0.0
 11
-2302.335850654687
 21
34.34941339001141
 31
0.0
  0
LINE
  5
334
330
1F
100
AcDbEntity
  8
0
100
AcDbLine
 10
-2302.335104574659
 20
36.07149994007213
 30
0.0
 11
-2302.327080589141
 21
35.74372405343921
 31
0.0
  0
LINE
  5
335
330
1F
100
AcDbEntity
  8
0
100
AcDbLine
 10
-2302.327080589141
 20
35.74372405343921
 30
0.0
 11
-2302.33562787745
 21
35.24750670012002
 31
0.0
  0
LINE
  5
336
330
1F
100
AcDbEntity
  8
0
100
AcDbLine
 10
-2302.334316408533
 20
36.76523933227814
 30
0.0
 11
-2302.327764851792
 21
36.49761144153182
 31
0.0
  0
LINE
  5
337
330
1F
100
AcDbEntity
  8
0
100
AcDbLine
 10
-2302.327764851792
 20
36.49761144153182
 30
0.0
 11
-2302.335104574659
 21
36.07149994007213
 31
0.0
  0
LINE
  5
338
330
1F
100
AcDbEntity
  8
0
100
AcDbLine
 10
-2302.333317091292
 20
37.28144768361778
 30
0.0
 11
-2302.328684441093
 21
37.0922061872364
 31
0.0
  0
LINE
  5
339
330
1F
100
AcDbEntity
  8
0
100
AcDbLine
 10
-2302.328684441093
 20
37.0922061872364
 30
0.0
 11
-2302.334316408533
 21
36.76523933227814
 31
0.0
  0
LINE
  5
33A
330
1F
100
AcDbEntity
  8
0
100
AcDbLine
 10
-2302.332174724754
 20
37.5849462480219
 30
0.0
 11
-2302.329776688553
 21
37.48698764124745
 31
0.0
  0
LINE
  5
33B
330
1F
100
AcDbEntity
  8
0
100
AcDbLine
 10
-2302.329776688553
 20
37.48698764124745
 30
0.0
 11
-2302.333317091292
 21
37.28144768361778
 31
0.0
  0
LINE
  5
33C
330
1F
100
AcDbEntity
  8
0
100
AcDbLine
 10
-1046.736902323129
 20
-362.7128792019159
 30
0.0
 11
-1046.7415927793
 21
-362.9146727641347
 31
0.0
  0
LINE
  5
33D
330
1F
100
AcDbEntity
  8
0
100
AcDbLine
 10
-1046.7415927793
 20
-362.9146727641347
 30
0.0
 11
-1046.735887831003
 21
-363.2263763294309
 31
0.0
  0
LINE
  5
33E
330
1F
100
AcDbEntity
  8
0
100
AcDbLine
 10
-1046.735887831003
 20
-363.2263763294309
 30
0.0
 11
-1046.742521137734
 21
-363.5117555219202
 31
0.0
  0
LINE
  5
33F
330
1F
100
AcDbEntity
  8
0
100
AcDbLine
 10
-1046.742521137734
 20
-363.5117555219202
 30
0.0
 11
-1046.735086304362
 21
-363.9179755170193
 31
0.0
  0
LINE
  5
340
330
1F
100
AcDbEntity
  8
0
100
AcDbLine
 10
-1046.735086304362
 20
-363.9179755170193
 30
0.0
 11
-1046.743210412761
 21
-364.2674922194225
 31
0.0
  0
LINE
  5
341
330
1F
100
AcDbEntity
  8
0
100
AcDbLine
 10
-1046.743210412761
 20
-364.2674922194225
 30
0.0
 11
-1046.734552365923
 21
-364.7405454229688
 31
0.0
  0
LINE
  5
342
330
1F
100
AcDbEntity
  8
0
100
AcDbLine
 10
-1046.734552365923
 20
-364.7405454229688
 30
0.0
 11
-1046.743613631428
 21
-365.1303806496207
 31
0.0
  0
LINE
  5
343
330
1F
100
AcDbEntity
  8
0
100
AcDbLine
 10
-1046.743613631428
 20
-365.1303806496207
 30
0.0
 11
-1046.734322402707
 21
-365.6380292675498
 31
0.0
  0
LINE
  5
344
330
1F
100
AcDbEntity
  8
0
100
AcDbLine
 10
-1046.734322402707
 20
-365.6380292675498
 30
0.0
 11
-1046.743703315048
 21
-366.0416163919874
 31
0.0
  0
LINE
  5
345
330
1F
100
AcDbEntity
  8
0
100
AcDbLine
 10
-1046.743703315048
 20
-366.0416163919874
 30
0.0
 11
-1046.734412086328
 21
-366.5492650099164
 31
0.0
  0
LINE
  5
346
330
1F
100
AcDbEntity
  8
0
100
AcDbLine
 10
-1046.734412086328
 20
-366.5492650099164
 30
0.0
 11
-1046.743473351833
 21
-366.9391002365684
 31
0.0
  0
LINE
  5
347
330
1F
100
AcDbEntity
  8
0
100
AcDbLine
 10
-1046.743473351833
 20
-366.9391002365684
 30
0.0
 11
-1046.734815304995
 21
-367.4121534401147
 31
0.0
  0
LINE
  5
348
330
1F
100
AcDbEntity
  8
0
100
AcDbLine
 10
-1046.734815304995
 20
-367.4121534401147
 30
0.0
 11
-1046.742939413393
 21
-367.7616701425179
 31
0.0
  0
LINE
  5
349
330
1F
100
AcDbEntity
  8
0
100
AcDbLine
 10
-1046.742939413393
 20
-367.7616701425179
 30
0.0
 11
-1046.735504580022
 21
-368.167890137617
 31
0.0
  0
LINE
  5
34A
330
1F
100
AcDbEntity
  8
0
100
AcDbLine
 10
-1046.735504580022
 20
-368.167890137617
 30
0.0
 11
-1046.742137886753
 21
-368.4532693301064
 31
0.0
  0
LINE
  5
34B
330
1F
100
AcDbEntity
  8
0
100
AcDbLine
 10
-1046.742137886753
 20
-368.4532693301064
 30
0.0
 11
-1046.736432938456
 21
-368.7649728954025
 31
0.0
  0
LINE
  5
34C
330
1F
100
AcDbEntity
  8
0
100
AcDbLine
 10
-1046.736432938456
 20
-368.7649728954025
 30
0.0
 11
-1046.741123394627
 21
-368.9667664576213
 31
0.0
  0
LINE
  5
34D
330
1F
100
AcDbEntity
  8
0
100
AcDbLine
 10
-1046.741123394627
 20
-368.9667664576213
 30
0.0
 11
-1046.737537114202
 21
-369.1627115102543
 31
0.0
  0
LINE
  5
34E
330
1F
100
AcDbEntity
  8
0
100
AcDbLine
 10
-1046.737537114202
 20
-369.1627115102543
 30
0.0
 11
-1046.739965072977
 21
-369.2671675444168
 31
0.0
  0
LINE
  5
34F
330
1F
100
AcDbEntity
  8
0
100
AcDbLine
 10
-1046.736902323129
 20
-362.7128792019159
 30
0.0
 11
-1046.740488603553
 21
-362.516934149283
 31
0.0
  0
LINE
  5
350
330
1F
100
AcDbEntity
  8
0
100
AcDbLine
 10
-1046.740488603553
 20
-362.516934149283
 30
0.0
 11
-1046.738060644778
 21
-362.4124781151204
 31
0.0
  0
LINE
  5
351
330
1F
100
AcDbEntity
  8
0
100
AcDbLine
 10
-1046.73596850766
 20
36.82607126034517
 30
0.0
 11
-1046.742591340832
 21
36.42799742314971
 31
0.0
  0
LINE
  5
352
330
1F
100
AcDbEntity
  8
0
100
AcDbLine
 10
-1046.742591340832
 20
36.42799742314971
 30
0.0
 11
-1046.735146003939
 21
36.14827804967697
 31
0.0
  0
LINE
  5
353
330
1F
100
AcDbEntity
  8
0
100
AcDbLine
 10
-1046.735146003939
 20
36.14827804967697
 30
0.0
 11
-1046.7432572849
 21
35.6607391591367
 31
0.0
  0
LINE
  5
354
330
1F
100
AcDbEntity
  8
0
100
AcDbLine
 10
-1046.7432572849
 20
35.6607391591367
 30
0.0
 11
-1046.734587006452
 21
35.3349990495614
 31
0.0
  0
LINE
  5
355
330
1F
100
AcDbEntity
  8
0
100
AcDbLine
 10
-1046.734587006452
 20
35.3349990495614
 30
0.0
 11
-1046.743633964809
 21
34.79122007537048
 31
0.0
  0
LINE
  5
356
330
1F
100
AcDbEntity
  8
0
100
AcDbLine
 10
-1046.743633964809
 20
34.79122007537048
 30
0.0
 11
-1046.734329609955
 21
34.4416578798492
 31
0.0
  0
LINE
  5
357
330
1F
100
AcDbEntity
  8
0
100
AcDbLine
 10
-1046.734329609955
 20
34.4416578798492
 30
0.0
 11
-1046.743695710446
 21
33.8786964604616
 31
0.0
  0
LINE
  5
358
330
1F
100
AcDbEntity
  8
0
100
AcDbLine
 10
-1046.743695710446
 20
33.8786964604616
 30
0.0
 11
-1046.734391355592
 21
33.52913426494032
 31
0.0
  0
LINE
  5
359
330
1F
100
AcDbEntity
  8
0
100
AcDbLine
 10
-1046.734391355592
 20
33.52913426494032
 30
0.0
 11
-1046.743438313949
 21
32.9853552907494
 31
0.0
  0
LINE
  5
35A
330
1F
100
AcDbEntity
  8
0
100
AcDbLine
 10
-1046.743438313949
 20
32.9853552907494
 30
0.0
 11
-1046.734768035501
 21
32.6596151811741
 31
0.0
  0
LINE
  5
35B
330
1F
100
AcDbEntity
  8
0
100
AcDbLine
 10
-1046.734768035501
 20
32.6596151811741
 30
0.0
 11
-1046.742879316462
 21
32.17207629063383
 31
0.0
  0
LINE
  5
35C
330
1F
100
AcDbEntity
  8
0
100
AcDbLine
 10
-1046.742879316462
 20
32.17207629063383
 30
0.0
 11
-1046.73543397957
 21
31.89235691716109
 31
0.0
  0
LINE
  5
35D
330
1F
100
AcDbEntity
  8
0
100
AcDbLine
 10
-1046.73543397957
 20
31.89235691716109
 30
0.0
 11
-1046.742056812741
 21
31.49428307996563
 31
0.0
  0
LINE
  5
35E
330
1F
100
AcDbEntity
  8
0
100
AcDbLine
 10
-1046.742056812741
 20
31.49428307996563
 30
0.0
 11
-1046.736343804809
 21
31.27964685563942
 31
0.0
  0
LINE
  5
35F
330
1F
100
AcDbEntity
  8
0
100
AcDbLine
 10
-1046.736343804809
 20
31.27964685563942
 30
0.0
 11
-1046.741026855055
 21
30.99816614594553
 31
0.0
  0
LINE
  5
360
330
1F
100
AcDbEntity
  8
0
100
AcDbLine
 10
-1046.741026855055
 20
30.99816614594553
 30
0.0
 11
-1046.737435508132
 21
30.86324017475055
 31
0.0
  0
LINE
  5
361
330
1F
100
AcDbEntity
  8
0
100
AcDbLine
 10
-1046.737435508132
 20
30.86324017475055
 30
0.0
 11
-1046.739859633318
 21
30.71753503775509
 31
0.0
  0
LINE
  5
362
330
1F
100
AcDbEntity
  8
0
100
AcDbLine
 10
-1046.73596850766
 20
36.82607126034517
 30
0.0
 11
-1046.741681515593
 21
37.04070748467138
 31
0.0
  0
LINE
  5
363
330
1F
100
AcDbEntity
  8
0
100
AcDbLine
 10
-1046.741681515593
 20
37.04070748467138
 30
0.0
 11
-1046.736998465347
 21
37.32218819436527
 31
0.0
  0
LINE
  5
364
330
1F
100
AcDbEntity
  8
0
100
AcDbLine
 10
-1046.736998465347
 20
37.32218819436527
 30
0.0
 11
-1046.740589812269
 21
37.45711416556024
 31
0.0
  0
LINE
  5
365
330
1F
100
AcDbEntity
  8
0
100
AcDbLine
 10
-1046.740589812269
 20
37.45711416556024
 30
0.0
 11
-1046.738165687083
 21
37.60281930255571
 31
0.0
  0
LINE
  5
366
330
1F
100
AcDbEntity
  8
0
100
AcDbLine
 10
-653.0802621112224
 20
430.9009698686513
 30
0.0
 11
-653.0767119238897
 21
430.9534731108092
 31
0.0
  0
LINE
  5
367
330
1F
100
AcDbEntity
  8
0
100
AcDbLine
 10
-653.0918251739952
 20
180.423749467309
 30
0.0
 11
-653.0778754223803
 21
430.6997422033702
 31
0.0
  0
LINE
  5
368
330
1F
100
AcDbEntity
  8
0
100
AcDbLine
 10
641.3903878136102
 20
-745.839839919563
 30
0.0
 11
641.5892208994685
 21
-745.8399122080561
 31
0.0
  0
LINE
  5
369
330
1F
100
AcDbEntity
  8
0
100
AcDbLine
 10
-653.0653136869582
 20
180.4237494672967
 30
0.0
 11
-653.0778754223803
 21
430.6997422033702
 31
0.0
  0
LINE
  5
36A
330
1F
100
AcDbEntity
  8
0
100
AcDbLine
 10
-653.0739602980626
 20
433.7714367122908
 30
0.0
 11
-653.0831817556293
 21
434.548920707726
 31
0.0
  0
LINE
  5
36B
330
1F
100
AcDbEntity
  8
0
100
AcDbLine
 10
-653.0831817556293
 20
434.548920707726
 30
0.0
 11
-653.0739840358168
 21
434.6849445468593
 31
0.0
  0
LINE
  5
36C
330
1F
100
AcDbEntity
  8
0
100
AcDbLine
 10
-653.074250773855
 20
432.8844210024403
 30
0.0
 11
-653.0831580178751
 21
433.6354128731575
 31
0.0
  0
LINE
  5
36D
330
1F
100
AcDbEntity
  8
0
100
AcDbLine
 10
-653.0831580178751
 20
433.6354128731575
 30
0.0
 11
-653.0739602980626
 21
433.7714367122908
 31
0.0
  0
LINE
  5
36E
330
1F
100
AcDbEntity
  8
0
100
AcDbLine
 10
-653.0748356677491
 20
432.0843460720714
 30
0.0
 11
-653.0828216842624
 21
432.757666963154
 31
0.0
  0
LINE
  5
36F
330
1F
100
AcDbEntity
  8
0
100
AcDbLine
 10
-653.0828216842624
 20
432.757666963154
 30
0.0
 11
-653.074250773855
 21
432.8844210024403
 31
0.0
  0
LINE
  5
370
330
1F
100
AcDbEntity
  8
0
100
AcDbLine
 10
-653.0756751201932
 20
431.4257357055021
 30
0.0
 11
-653.0821956753712
 21
431.9754999109383
 31
0.0
  0
LINE
  5
371
330
1F
100
AcDbEntity
  8
0
100
AcDbLine
 10
-653.0821956753712
 20
431.9754999109383
 30
0.0
 11
-653.0748356677491
 21
432.0843460720714
 31
0.0
  0
LINE
  5
372
330
1F
100
AcDbEntity
  8
0
100
AcDbLine
 10
-653.0767119238897
 20
430.9534731108092
 30
0.0
 11
-653.081322652673
 21
431.3422151085268
 31
0.0
  0
LINE
  5
373
330
1F
100
AcDbEntity
  8
0
100
AcDbLine
 10
-653.081322652673
 20
431.3422151085268
 30
0.0
 11
-653.0756751201932
 21
431.4257357055021
 31
0.0
  0
LINE
  5
374
330
1F
100
AcDbEntity
  8
0
100
AcDbLine
 10
-653.0828912798369
 20
435.4359364175765
 30
0.0
 11
-653.0739840358168
 21
434.6849445468593
 31
0.0
  0
LINE
  5
375
330
1F
100
AcDbEntity
  8
0
100
AcDbLine
 10
-653.0823063859428
 20
436.2360113479455
 30
0.0
 11
-653.0743203694295
 21
435.5626904568629
 31
0.0
  0
LINE
  5
376
330
1F
100
AcDbEntity
  8
0
100
AcDbLine
 10
-653.0743203694295
 20
435.5626904568629
 30
0.0
 11
-653.0828912798369
 21
435.4359364175765
 31
0.0
  0
LINE
  5
377
330
1F
100
AcDbEntity
  8
0
100
AcDbLine
 10
-653.0814669334986
 20
436.8946217145148
 30
0.0
 11
-653.0749463783208
 21
436.3448575090785
 31
0.0
  0
LINE
  5
378
330
1F
100
AcDbEntity
  8
0
100
AcDbLine
 10
-653.0749463783208
 20
436.3448575090785
 30
0.0
 11
-653.0823063859428
 21
436.2360113479455
 31
0.0
  0
LINE
  5
379
330
1F
100
AcDbEntity
  8
0
100
AcDbLine
 10
-653.0804301298023
 20
437.3668843092076
 30
0.0
 11
-653.075819401019
 21
436.97814231149
 31
0.0
  0
LINE
  5
37A
330
1F
100
AcDbEntity
  8
0
100
AcDbLine
 10
-653.075819401019
 20
436.97814231149
 30
0.0
 11
-653.0814669334986
 21
436.8946217145148
 31
0.0
  0
LINE
  5
37B
330
1F
100
AcDbEntity
  8
0
100
AcDbLine
 10
-653.0768799424695
 20
437.4193875513655
 30
0.0
 11
-653.0804301298023
 21
437.3668843092076
 31
0.0
  0
LINE
  5
37C
330
1F
100
AcDbEntity
  8
0
100
AcDbLine
 10
641.363877005562
 20
374.1601797941538
 30
0.0
 11
-440.9349960898489
 21
892.397264047137
 31
0.0
  0
LINE
  5
37D
330
1F
100
AcDbEntity
  8
0
100
AcDbLine
 10
-653.0918251739952
 20
180.423749467309
 30
0.0
 11
-653.0653136869582
 21
180.4237494672967
 31
0.0
  0
LINE
  5
37E
330
1F
100
AcDbEntity
  8
0
100
AcDbLine
 10
-653.0653153625002
 20
-745.83982020587
 30
0.0
 11
-653.0918264406149
 21
-745.83982020587
 31
0.0
  0
LINE
  5
37F
330
1F
100
AcDbEntity
  8
0
100
AcDbLine
 10
-653.0918264406149
 20
-745.83982020587
 30
0.0
 11
-653.078571045524
 21
-169.3398212899933
 31
0.0
  0
LINE
  5
380
330
1F
100
AcDbEntity
  8
0
100
AcDbLine
 10
641.3903878136102
 20
-745.839839919563
 30
0.0
 11
641.3903878136102
 21
-595.839839919563
 31
0.0
  0
LINE
  5
381
330
1F
100
AcDbEntity
  8
0
100
AcDbLine
 10
-653.0653153625002
 20
-745.83982020587
 30
0.0
 11
-653.0580498523524
 21
-595.8396809005204
 31
0.0
  0
LINE
  5
382
330
1F
100
AcDbEntity
  8
0
100
AcDbLine
 10
-1026.087283589053
 20
-745.8399305736166
 30
0.0
 11
-692.1209113978788
 21
-745.8400998784248
 31
0.0
  0
LINE
  5
383
330
1F
100
AcDbEntity
  8
0
100
AcDbLine
 10
-673.0918088002578
 20
-765.8398202062426
 30
0.0
 11
-692.1209113978788
 21
-765.8400998784248
 31
0.0
  0
LINE
  5
384
330
1F
100
AcDbEntity
  8
0
100
AcDbLine
 10
-1046.120911398022
 20
-765.8399763445968
 30
0.0
 11
-1046.120911397885
 21
-745.8399745826102
 31
0.0
  0
LINE
  5
385
330
1F
100
AcDbEntity
  8
0
100
AcDbLine
 10
-1026.120911397879
 20
-745.8400998784248
 30
0.0
 11
-1026.12091139788
 21
-720.4710428095268
 31
0.0
  0
LINE
  5
386
330
1F
100
AcDbEntity
  8
0
100
AcDbLine
 10
-1026.12091139788
 20
226.2380286552933
 30
0.0
 11
-1026.120911397879
 21
682.3566439356214
 31
0.0
  0
LINE
  5
387
330
1F
100
AcDbEntity
  8
0
100
AcDbLine
 10
-2778.617591760443
 20
-745.8398398712119
 30
0.0
 11
-2778.617609264416
 21
-595.8398399187298
 31
0.0
  0
LINE
  5
388
330
1F
100
AcDbEntity
  8
0
100
AcDbLine
 10
-2778.644120413211
 20
-745.8398398944955
 30
0.0
 11
-2778.617591760443
 21
-745.8398398712119
 31
0.0
  0
LINE
  5
389
330
1F
100
AcDbEntity
  8
0
100
AcDbLine
 10
-2341.64448845919
 20
916.2241121477915
 30
0.0
 11
-2322.318009977048
 21
916.2237347503824
 31
0.0
  0
LINE
  5
38A
330
1F
100
AcDbEntity
  8
0
100
AcDbLine
 10
-2322.318009977048
 20
916.2237347503824
 30
0.0
 11
-2321.644523600113
 21
916.2241121477977
 31
0.0
  0
LINE
  5
38B
330
1F
100
AcDbEntity
  8
0
100
AcDbLine
 10
-536.523788401424
 20
221.4066081164583
 30
0.0
 11
-536.4567018724839
 21
221.540563085398
 31
0.0
  0
LINE
  5
38C
330
1F
100
AcDbEntity
  8
0
100
AcDbLine
 10
-536.4567018724839
 20
221.540563085398
 30
0.0
 11
-536.3239875564153
 21
221.8055602818198
 31
0.0
  0
LINE
  5
38D
330
1F
100
AcDbEntity
  8
0
100
AcDbLine
 10
-532.8598859412779
 20
221.8055602818198
 30
0.0
 11
-532.7271716252075
 21
221.5405630853964
 31
0.0
  0
LINE
  5
38E
330
1F
100
AcDbEntity
  8
0
100
AcDbLine
 10
-532.7271716252075
 20
221.5405630853964
 30
0.0
 11
-532.6600850962675
 21
221.4066081164583
 31
0.0
  0
LINE
  5
38F
330
1F
100
AcDbEntity
  8
0
100
AcDbLine
 10
-536.5509107153018
 20
188.2285825203092
 30
0.0
 11
-536.4596410937302
 21
188.4462681681351
 31
0.0
  0
LINE
  5
390
330
1F
100
AcDbEntity
  8
0
100
AcDbLine
 10
-536.4596410937302
 20
188.4462681681351
 30
0.0
 11
-536.3798523679945
 21
188.6365709233332
 31
0.0
  0
LINE
  5
391
330
1F
100
AcDbEntity
  8
0
100
AcDbLine
 10
-532.9217584138399
 20
188.8052349489514
 30
0.0
 11
-532.7242324039471
 21
188.4684120606942
 31
0.0
  0
LINE
  5
392
330
1F
100
AcDbEntity
  8
0
100
AcDbLine
 10
-532.7242324039471
 20
188.4684120606942
 30
0.0
 11
-532.6939080852922
 21
188.4167027966871
 31
0.0
  0
LINE
  5
393
330
1F
100
AcDbEntity
  8
0
100
AcDbLine
 10
-492.7455806760827
 20
221.614293966714
 30
0.0
 11
-492.7211906732022
 21
221.5395562487284
 31
0.0
  0
LINE
  5
394
330
1F
100
AcDbEntity
  8
0
100
AcDbLine
 10
-492.7211906732022
 20
221.5395562487284
 30
0.0
 11
-492.6095278232549
 21
221.1973903773396
 31
0.0
  0
LINE
  5
395
330
1F
100
AcDbEntity
  8
0
100
AcDbLine
 10
-496.5753006350701
 20
221.1913910275048
 30
0.0
 11
-496.4626828244891
 21
221.5415699220671
 31
0.0
  0
LINE
  5
396
330
1F
100
AcDbEntity
  8
0
100
AcDbLine
 10
-496.4626828244891
 20
221.5415699220671
 30
0.0
 11
-496.4410926245223
 21
221.6087034626568
 31
0.0
  0
LINE
  5
397
330
1F
100
AcDbEntity
  8
0
100
AcDbLine
 10
-492.8034819791551
 20
188.6356807456727
 30
0.0
 11
-492.7241721679828
 21
188.4461517968306
 31
0.0
  0
LINE
  5
398
330
1F
100
AcDbEntity
  8
0
100
AcDbLine
 10
-492.7241721679828
 20
188.4461517968306
 30
0.0
 11
-492.6327205670269
 21
188.2276072618874
 31
0.0
  0
LINE
  5
399
330
1F
100
AcDbEntity
  8
0
100
AcDbLine
 10
-496.4895855981849
 20
188.4176475610601
 30
0.0
 11
-496.4597013296944
 21
188.4685284319976
 31
0.0
  0
LINE
  5
39A
330
1F
100
AcDbEntity
  8
0
100
AcDbLine
 10
-496.4597013296944
 20
188.4685284319976
 30
0.0
 11
-496.2614525655533
 21
188.8060662166343
 31
0.0
  0
LINE
  5
39B
330
1F
100
AcDbEntity
  8
0
100
AcDbLine
 10
-992.7745553249141
 20
221.6142732873852
 30
0.0
 11
-992.7501653220336
 21
221.5395355693996
 31
0.0
  0
LINE
  5
39C
330
1F
100
AcDbEntity
  8
0
100
AcDbLine
 10
-992.7501653220336
 20
221.5395355693996
 30
0.0
 11
-992.6385024720863
 21
221.1973696980108
 31
0.0
  0
LINE
  5
39D
330
1F
100
AcDbEntity
  8
0
100
AcDbLine
 10
-996.6042752839015
 20
221.1913703481765
 30
0.0
 11
-996.4916574733204
 21
221.5415492427384
 31
0.0
  0
LINE
  5
39E
330
1F
100
AcDbEntity
  8
0
100
AcDbLine
 10
-996.4916574733204
 20
221.5415492427384
 30
0.0
 11
-996.4700672733537
 21
221.608682783328
 31
0.0
  0
LINE
  5
39F
330
1F
100
AcDbEntity
  8
0
100
AcDbLine
 10
-992.8324566279866
 20
188.635660066344
 30
0.0
 11
-992.7531468168141
 21
188.4461311175018
 31
0.0
  0
LINE
  5
3A0
330
1F
100
AcDbEntity
  8
0
100
AcDbLine
 10
-992.7531468168141
 20
188.4461311175018
 30
0.0
 11
-992.6616952158583
 21
188.2275865825586
 31
0.0
  0
LINE
  5
3A1
330
1F
100
AcDbEntity
  8
0
100
AcDbLine
 10
-996.5185602470162
 20
188.4176268817313
 30
0.0
 11
-996.4886759785257
 21
188.4685077526688
 31
0.0
  0
LINE
  5
3A2
330
1F
100
AcDbEntity
  8
0
100
AcDbLine
 10
-996.4886759785257
 20
188.4685077526688
 30
0.0
 11
-996.2904272143847
 21
188.8060455373056
 31
0.0
  0
LINE
  5
3A3
330
1F
100
AcDbEntity
  8
0
100
AcDbLine
 10
-2529.951457339725
 20
221.375637539587
 30
0.0
 11
-2529.586387651621
 21
221.2174868985764
 31
0.0
  0
LINE
  5
3A4
330
1F
100
AcDbEntity
  8
0
100
AcDbLine
 10
-2532.053004105704
 20
218.143586732018
 30
0.0
 11
-2532.172476096997
 21
218.3193754632324
 31
0.0
  0
LINE
  5
3A5
330
1F
100
AcDbEntity
  8
0
100
AcDbLine
 10
-2532.172476096997
 20
218.3193754632324
 30
0.0
 11
-2532.324925365438
 21
218.5436863095134
 31
0.0
  0
LINE
  5
3A6
330
1F
100
AcDbEntity
  8
0
100
AcDbLine
 10
-2491.513231767914
 20
221.2957595529521
 30
0.0
 11
-2491.338645238407
 21
221.1893680676696
 31
0.0
  0
LINE
  5
3A7
330
1F
100
AcDbEntity
  8
0
100
AcDbLine
 10
-2491.338645238407
 20
221.1893680676696
 30
0.0
 11
-2491.10075780946
 21
221.0444015747382
 31
0.0
  0
LINE
  5
3A8
330
1F
100
AcDbEntity
  8
0
100
AcDbLine
 10
349.9587212631248
 20
209.1110607447028
 30
0.0
 11
349.8393658986708
 21
209.1110607447028
 31
0.0
  0
LINE
  5
3A9
330
1F
100
AcDbEntity
  8
0
100
AcDbLine
 10
349.9587212631248
 20
189.1110607447028
 30
0.0
 11
349.9587212631248
 21
201.2029774000437
 31
0.0
  0
LINE
  5
3AA
330
1F
100
AcDbEntity
  8
0
100
AcDbLine
 10
342.8704265768362
 20
199.7430853441459
 30
0.0
 11
342.8601712321148
 21
199.074360791326
 31
0.0
  0
LINE
  5
3AB
330
1F
100
AcDbEntity
  8
0
100
AcDbLine
 10
342.8601712321148
 20
199.074360791326
 30
0.0
 11
342.8564326099159
 21
198.8305748898276
 31
0.0
  0
LINE
  5
3AC
330
1F
100
AcDbEntity
  8
0
100
AcDbLine
 10
343.3104300011956
 20
201.9921578782168
 30
0.0
 11
343.2705320907186
 21
201.8729457489408
 31
0.0
  0
LINE
  5
3AD
330
1F
100
AcDbEntity
  8
0
100
AcDbLine
 10
343.2705320907186
 20
201.8729457489408
 30
0.0
 11
343.1054329194165
 21
201.3796411242807
 31
0.0
  0
LINE
  5
3AE
330
1F
100
AcDbEntity
  8
0
100
AcDbLine
 10
343.2253730466383
 20
196.4458134651067
 30
0.0
 11
343.4290386497714
 21
196.0100074741412
 31
0.0
  0
LINE
  5
3AF
330
1F
100
AcDbEntity
  8
0
100
AcDbLine
 10
343.4290386497714
 20
196.0100074741412
 30
0.0
 11
343.4573260568847
 21
195.9494777563135
 31
0.0
  0
LINE
  5
3B0
330
1F
100
AcDbEntity
  8
0
100
AcDbLine
 10
320.9915451446289
 20
229.8700281249036
 30
0.0
 11
321.0931573271802
 21
229.9141811534603
 31
0.0
  0
LINE
  5
3B1
330
1F
100
AcDbEntity
  8
0
100
AcDbLine
 10
321.0931573271802
 20
229.9141811534603
 30
0.0
 11
321.4356917839551
 21
230.0630209212127
 31
0.0
  0
LINE
  5
3B2
330
1F
100
AcDbEntity
  8
0
100
AcDbLine
 10
323.8095182785167
 20
227.231069691139
 30
0.0
 11
323.6515454983647
 21
226.9974479715993
 31
0.0
  0
LINE
  5
3B3
330
1F
100
AcDbEntity
  8
0
100
AcDbLine
 10
323.6515454983647
 20
226.9974479715993
 30
0.0
 11
323.5389747574815
 21
226.8309701136436
 31
0.0
  0
LINE
  5
3B4
330
1F
100
AcDbEntity
  8
0
100
AcDbLine
 10
326.985016260716
 20
188.6942009661115
 30
0.0
 11
326.7964230865218
 21
188.3733201395511
 31
0.0
  0
LINE
  5
3B5
330
1F
100
AcDbEntity
  8
0
100
AcDbLine
 10
326.7964230865218
 20
188.3733201395511
 30
0.0
 11
326.739648993562
 21
188.2767221690571
 31
0.0
  0
LINE
  5
3B6
330
1F
100
AcDbEntity
  8
0
100
AcDbLine
 10
358.9206156908715
 20
229.7274828741419
 30
0.0
 11
359.1824359144818
 21
229.8878651217422
 31
0.0
  0
LINE
  5
3B7
330
1F
100
AcDbEntity
  8
0
100
AcDbLine
 10
359.1824359144818
 20
229.8878651217422
 30
0.0
 11
359.3306563045699
 21
229.9804385326353
 31
0.0
  0
LINE
  5
3B8
330
1F
100
AcDbEntity
  8
0
100
AcDbLine
 10
365.0158231784167
 20
188.4962518347617
 30
0.0
 11
364.8976350402935
 21
188.3435675883642
 31
0.0
  0
LINE
  5
3B9
330
1F
100
AcDbEntity
  8
0
100
AcDbLine
 10
364.8976350402935
 20
188.3435675883642
 30
0.0
 11
364.7207992562092
 21
188.1151179414049
 31
0.0
  0
LINE
  5
3BA
330
1F
100
AcDbEntity
  8
0
100
AcDbLine
 10
-1524.496806224153
 20
180.4237472245002
 30
0.0
 11
-1066.74562467743
 21
180.4237482830593
 31
0.0
  0
LINE
  5
3BB
330
1F
100
AcDbEntity
  8
0
100
AcDbLine
 10
-1066.745624618184
 20
-745.8398399085261
 30
0.0
 11
-2302.08170245355
 21
-745.8398201600764
 31
0.0
  0
LINE
  5
3BC
330
1F
100
AcDbEntity
  8
0
100
AcDbLine
 10
-2302.08170245355
 20
-745.8398201600764
 30
0.0
 11
-2302.119194773131
 21
-745.8398201600754
 31
0.0
  0
LINE
  5
3BD
330
1F
100
AcDbEntity
  8
0
100
AcDbLine
 10
-1066.745624732236
 20
896.2237480631933
 30
0.0
 11
-1524.496806224164
 21
896.2237285870575
 31
0.0
  0
LINE
  5
3BE
330
1F
100
AcDbEntity
  8
0
100
AcDbLine
 10
-1046.482804637425
 20
-745.8399258285046
 30
0.0
 11
-1046.120911397885
 21
-745.8399745826102
 31
0.0
  0
LINE
  5
3BF
330
1F
100
AcDbEntity
  8
0
100
AcDbLine
 10
621.3638940620361
 20
-745.8398399190521
 30
0.0
 11
-652.8217245628007
 21
-745.8398202058698
 31
0.0
  0
LINE
  5
3C0
330
1F
100
AcDbEntity
  8
0
100
AcDbLine
 10
-652.8217245628007
 20
-745.8398202058698
 30
0.0
 11
-652.8592168823823
 21
-745.8398202058698
 31
0.0
  0
LINE
  5
3C1
330
1F
100
AcDbEntity
  8
0
100
AcDbLine
 10
641.6267132210543
 20
-745.839925838906
 30
0.0
 11
641.7235158405667
 21
-745.8399610328182
 31
0.0
  0
LINE
  5
3C2
330
1F
100
AcDbEntity
  8
0
100
AcDbLine
 10
-653.0653136869582
 20
180.4237494672967
 30
0.0
 11
-526.0919367490478
 21
180.4237493166105
 31
0.0
  0
LINE
  5
3C3
330
1F
100
AcDbEntity
  8
0
100
AcDbLine
 10
641.3903878363129
 20
-567.5555600679093
 30
0.0
 11
641.3903880836765
 21
374.1601600804402
 31
0.0
  0
LINE
  5
3C4
330
1F
100
AcDbEntity
  8
0
100
AcDbLine
 10
-692.1209113978788
 20
-745.8400998784248
 30
0.0
 11
-692.120911397879
 21
-595.8398446439237
 31
0.0
  0
LINE
  5
3C5
330
1F
100
AcDbEntity
  8
0
100
AcDbLine
 10
-1046.120911397885
 20
-745.8399745826102
 30
0.0
 11
-1046.120911397879
 21
-595.8398446439237
 31
0.0
  0
LINE
  5
3C6
330
1F
100
AcDbEntity
  8
0
100
AcDbLine
 10
-1026.120911398022
 20
200.4237286372816
 30
0.0
 11
-1026.12091139788
 21
225.113861899589
 31
0.0
  0
LINE
  5
3C7
330
1F
100
AcDbEntity
  8
0
100
AcDbLine
 10
-1026.12091139788
 20
225.113861899589
 30
0.0
 11
-1026.12091139788
 21
226.2380286552933
 31
0.0
  0
LINE
  5
3C8
330
1F
100
AcDbEntity
  8
0
100
AcDbLine
 10
-2778.617609241713
 20
-567.5555600670759
 30
0.0
 11
-2778.617592652136
 21
160.4233375851846
 31
0.0
  0
LINE
  5
3C9
330
1F
100
AcDbEntity
  8
0
100
AcDbLine
 10
-2778.644120413211
 20
-745.8398398944955
 30
0.0
 11
-2778.64408704299
 21
896.2237090289065
 31
0.0
  0
LINE
  5
3CA
330
1F
100
AcDbEntity
  8
0
100
AcDbLine
 10
-2778.617591760443
 20
-745.8398398712119
 30
0.0
 11
-2778.418776274674
 21
-745.8398396967162
 31
0.0
  0
LINE
  5
3CB
330
1F
100
AcDbEntity
  8
0
100
AcDbLine
 10
-2341.644504340232
 20
-745.8394563502261
 30
0.0
 11
-2341.644487715541
 21
160.4237210829176
 31
0.0
  0
LINE
  5
3CC
330
1F
100
AcDbEntity
  8
0
100
AcDbLine
 10
-506.0919367488424
 20
180.4237493992537
 30
0.0
 11
-506.0919367488424
 21
183.7598538651888
 31
0.0
  0
LINE
  5
3CD
330
1F
100
AcDbEntity
  8
0
100
AcDbLine
 10
-526.0919367490478
 20
183.7598538651888
 30
0.0
 11
-526.0919367490478
 21
180.4237493166105
 31
0.0
  0
LINE
  5
3CE
330
1F
100
AcDbEntity
  8
0
100
AcDbLine
 10
-2511.871233164173
 20
200.4236773630772
 30
0.0
 11
-2520.165089254877
 21
200.4236773630772
 31
0.0
  0
LINE
  5
3CF
330
1F
100
AcDbEntity
  8
0
100
AcDbLine
 10
349.9587212631248
 20
201.2029774000437
 30
0.0
 11
349.9587212631248
 21
207.6378972521435
 31
0.0
  0
LINE
  5
3D0
330
1F
100
AcDbEntity
  8
0
100
AcDbLine
 10
349.9587212631248
 20
207.6378972521435
 30
0.0
 11
349.9587212631248
 21
209.1110607447028
 31
0.0
  0
LINE
  5
3D1
330
1F
100
AcDbEntity
  8
0
100
AcDbLine
 10
323.4074861084324
 20
189.1110607447028
 30
0.0
 11
324.2350472758663
 21
189.1110607447028
 31
0.0
  0
LINE
  5
3D2
330
1F
100
AcDbEntity
  8
0
100
AcDbLine
 10
324.2350472758663
 20
189.1110607447028
 30
0.0
 11
327.0938918838104
 21
189.1110607447028
 31
0.0
  0
LINE
  5
3D3
330
1F
100
AcDbEntity
  8
0
100
AcDbLine
 10
210.8064806280929
 20
189.1110607447028
 30
0.0
 11
320.4810645561993
 21
189.1110607447028
 31
0.0
  0
LINE
  5
3D4
330
1F
100
AcDbEntity
  8
0
100
AcDbLine
 10
-1046.74564013153
 20
160.4237482825309
 30
0.0
 11
-1046.719131982003
 21
896.2237285432211
 31
0.0
  0
LINE
  5
3D5
330
1F
100
AcDbEntity
  8
0
100
AcDbLine
 10
-2302.344539192679
 20
180.4237454257115
 30
0.0
 11
-2302.318027740132
 21
180.4237454257728
 31
0.0
  0
LINE
  5
3D6
330
1F
100
AcDbEntity
  8
0
100
AcDbLine
 10
-1844.496806224164
 20
896.2237285870583
 30
0.0
 11
-2302.318027740132
 21
896.2237480631936
 31
0.0
  0
LINE
  5
3D7
330
1F
100
AcDbEntity
  8
0
100
AcDbLine
 10
-1046.745641208158
 20
-765.8398202063553
 30
0.0
 11
-1046.719130261135
 21
-745.8398399090887
 31
0.0
  0
LINE
  5
3D8
330
1F
100
AcDbEntity
  8
0
100
AcDbLine
 10
-526.0919367490478
 20
180.4237493166105
 30
0.0
 11
-506.0919367488424
 21
180.4237493992537
 31
0.0
  0
LINE
  5
3D9
330
1F
100
AcDbEntity
  8
0
100
AcDbLine
 10
-506.0919367488424
 20
180.4237493992537
 30
0.0
 11
621.3638952809057
 21
180.423748877285
 31
0.0
  0
LINE
  5
3DA
330
1F
100
AcDbEntity
  8
0
100
AcDbLine
 10
-653.0580498523524
 20
-567.5555554919755
 30
0.0
 11
-653.078571045524
 21
-169.3398212899933
 31
0.0
  0
LINE
  5
3DB
330
1F
100
AcDbEntity
  8
0
100
AcDbLine
 10
-1046.120911397879
 20
-595.8398446439237
 30
0.0
 11
-1046.120911397879
 21
-567.5555647922697
 31
0.0
  0
LINE
  5
3DC
330
1F
100
AcDbEntity
  8
0
100
AcDbLine
 10
-2778.418776274674
 20
-745.8398396967162
 30
0.0
 11
-2778.381283955136
 21
-745.8398396638102
 31
0.0
  0
LINE
  5
3DD
330
1F
100
AcDbEntity
  8
0
100
AcDbLine
 10
-2778.381283955136
 20
-745.8398396638102
 30
0.0
 11
-2341.644504340232
 21
-745.8394563502261
 31
0.0
  0
LINE
  5
3DE
330
1F
100
AcDbEntity
  8
0
100
AcDbLine
 10
-2341.644487715541
 20
160.4237210829176
 30
0.0
 11
-2341.644487735219
 21
180.4237209671035
 31
0.0
  0
LINE
  5
3DF
330
1F
100
AcDbEntity
  8
0
100
AcDbLine
 10
-2535.534310186832
 20
180.4235507945735
 30
0.0
 11
-2532.662721987737
 21
180.4235533148988
 31
0.0
  0
LINE
  5
3E0
330
1F
100
AcDbEntity
  8
0
100
AcDbLine
 10
-2532.662721987737
 20
180.4235533148988
 30
0.0
 11
-2531.839896468515
 21
180.4235540370734
 31
0.0
  0
LINE
  5
3E1
330
1F
100
AcDbEntity
  8
0
100
AcDbLine
 10
-2367.978745373032
 20
180.4236978541459
 30
0.0
 11
-2341.644487735219
 21
180.4237209671035
 31
0.0
  0
LINE
  5
3E2
330
1F
100
AcDbEntity
  8
0
100
AcDbLine
 10
-2387.084312615478
 20
200.4236773630772
 30
0.0
 11
-2489.118542485902
 21
200.4236773630772
 31
0.0
  0
LINE
  5
3E3
330
1F
100
AcDbEntity
  8
0
100
AcDbLine
 10
318.8606691953746
 20
209.1110607447028
 30
0.0
 11
210.8064806280929
 21
209.1110607447028
 31
0.0
  0
LINE
  5
3E4
330
1F
100
AcDbEntity
  8
0
100
AcDbLine
 10
-692.120911397879
 20
-595.8398446439237
 30
0.0
 11
-692.120911397879
 21
-567.5555647922697
 31
0.0
  0
LINE
  5
3E5
330
1F
100
AcDbEntity
  8
0
100
AcDbLine
 10
-2341.644487735219
 20
180.4237209671035
 30
0.0
 11
-2341.644470970011
 21
896.2240925731759
 31
0.0
  0
LINE
  5
3E6
330
1F
100
AcDbEntity
  8
0
100
AcDbLine
 10
-2778.617592671814
 20
180.4233374461026
 30
0.0
 11
-2539.079444532399
 21
180.4235476830926
 31
0.0
  0
LINE
  5
3E7
330
1F
100
AcDbEntity
  8
0
100
AcDbLine
 10
-2531.839896468515
 20
180.4235540370734
 30
0.0
 11
-2523.170738534634
 21
180.4236773630772
 31
0.0
  0
LINE
  5
3E8
330
1F
100
AcDbEntity
  8
0
100
AcDbLine
 10
-2387.084312615478
 20
180.4236773630772
 30
0.0
 11
-2367.978745373032
 21
180.4236978541459
 31
0.0
  0
LINE
  5
3E9
330
1F
100
AcDbEntity
  8
0
100
AcDbLine
 10
-1046.719130038231
 20
-567.5555600575077
 30
0.0
 11
-1046.73874185951
 21
-369.334000752864
 31
0.0
  0
LINE
  5
3EA
330
1F
100
AcDbEntity
  8
0
100
AcDbLine
 10
-2539.079444532399
 20
180.4235476830926
 30
0.0
 11
-2538.467165488687
 21
180.4235482204755
 31
0.0
  0
LINE
  5
3EB
330
1F
100
AcDbEntity
  8
0
100
AcDbLine
 10
-2538.467165488687
 20
180.4235482204755
 30
0.0
 11
-2535.534310186832
 21
180.4235507945735
 31
0.0
  0
LINE
  5
3EC
330
1F
100
AcDbEntity
  8
0
100
AcDbLine
 10
-1006.120911397879
 20
180.4237286372819
 30
0.0
 11
-1006.120911397674
 21
183.75983318586
 31
0.0
  0
LINE
  5
3ED
330
1F
100
AcDbEntity
  8
0
100
AcDbLine
 10
-2302.344538845683
 20
-745.839820160069
 30
0.0
 11
-2302.318027737036
 21
-595.8398398740355
 31
0.0
  0
LINE
  5
3EE
330
1F
100
AcDbEntity
  8
0
100
AcDbLine
 10
-2302.318027740405
 20
-745.8398398738027
 30
0.0
 11
-2302.318027737036
 21
-595.8398398740355
 31
0.0
  0
LINE
  5
3EF
330
1F
100
AcDbEntity
  8
0
100
AcDbLine
 10
-1046.739283858245
 20
-362.3456449066732
 30
0.0
 11
-1046.738634691763
 21
30.67151430165262
 31
0.0
  0
LINE
  5
3F0
330
1F
100
AcDbEntity
  8
0
100
AcDbLine
 10
-1046.745642986991
 20
916.2237483266691
 30
0.0
 11
-1524.497847341667
 21
916.2237432418138
 31
0.0
  0
LINE
  5
3F1
330
1F
100
AcDbEntity
  8
0
100
AcDbLine
 10
-2302.318027714333
 20
-567.5555600223817
 30
0.0
 11
-2302.331283306917
 21
-369.3398280679386
 31
0.0
  0
LINE
  5
3F2
330
1F
100
AcDbEntity
  8
0
100
AcDbLine
 10
-2302.331283308629
 20
-362.3398280679409
 30
0.0
 11
-2302.331468849665
 21
30.66529168737866
 31
0.0
  0
LINE
  5
3F3
330
1F
100
AcDbEntity
  8
0
100
AcDbLine
 10
-653.0792666313116
 20
437.6206152166466
 30
0.0
 11
-653.0918245615119
 21
692.8827524480574
 31
0.0
  0
LINE
  5
3F4
330
1F
100
AcDbEntity
  8
0
100
AcDbLine
 10
-653.0792666313116
 20
437.6206152166466
 30
0.0
 11
-653.0653134833973
 21
692.8827327343437
 31
0.0
  0
LINE
  5
3F5
330
1F
100
AcDbEntity
  8
0
100
AcDbLine
 10
-653.0785710448945
 20
-162.3398212899933
 30
0.0
 11
-653.0918252186166
 21
160.423749440836
 31
0.0
  0
LINE
  5
3F6
330
1F
100
AcDbEntity
  8
0
100
AcDbLine
 10
-2302.330967159311
 20
37.6550520998814
 30
0.0
 11
-2302.344539172594
 21
160.4237454257269
 31
0.0
  0
LINE
  5
3F7
330
1F
100
AcDbEntity
  8
0
100
AcDbLine
 10
-2302.330967159311
 20
37.6550520998814
 30
0.0
 11
-2302.318027720046
 21
160.4237256861187
 31
0.0
  0
LINE
  5
3F8
330
1F
100
AcDbEntity
  8
0
100
AcDbLine
 10
-1046.739390628638
 20
37.64884003865818
 30
0.0
 11
-1046.74564013153
 21
160.4237482825309
 31
0.0
  0
LINE
  5
3F9
330
1F
100
AcDbEntity
  8
0
100
AcDbLine
 10
-653.0785710448945
 20
-162.3398212899933
 30
0.0
 11
-653.0653136949426
 21
160.423729454168
 31
0.0
  0
LINE
  5
3FA
330
1F
100
AcDbEntity
  8
0
100
AcDbLine
 10
-2322.344521230027
 20
896.2207042415696
 30
0.0
 11
-2322.344521253919
 21
-765.8398202067401
 31
0.0
  0
LINE
  5
3FB
330
1F
100
AcDbEntity
  8
0
100
AcDbLine
 10
-2523.170738534634
 20
180.4236773630772
 30
0.0
 11
-2387.084312615478
 21
180.4236773630772
 31
0.0
  0
LINE
  5
3FC
330
1F
100
AcDbEntity
  8
0
100
AcDbLine
 10
-2494.257627951786
 20
219.7582657120746
 30
0.0
 11
-2494.296674855012
 21
219.2539520753664
 31
0.0
  0
LINE
  5
3FD
330
1F
100
AcDbEntity
  8
0
100
AcDbLine
 10
-1524.541437582493
 20
916.2243532719693
 30
0.0
 11
-1824.502291956004
 21
916.2238048229657
 31
0.0
  0
LINE
  5
3FE
330
1F
100
AcDbEntity
  8
0
100
AcDbLine
 10
-1824.541481861511
 20
916.2243532719693
 30
0.0
 11
-2321.617994948175
 21
916.2237285553645
 31
0.0
  0
LINE
  5
3FF
330
1F
100
AcDbEntity
  8
0
100
AcDbLine
 10
-2302.318027720046
 20
160.4237256861187
 30
0.0
 11
-1066.745623408611
 21
160.4237285693148
 31
0.0
  0
LINE
  5
400
330
1F
100
AcDbEntity
  8
0
100
AcDbLine
 10
-1844.496806224153
 20
180.4243532307882
 30
0.0
 11
-2302.318027740132
 21
180.4237454257728
 31
0.0
  0
LINE
  5
401
330
1F
100
AcDbEntity
  8
0
100
AcDbLine
 10
-2302.344539192679
 20
180.4237454257115
 30
0.0
 11
-2302.344538829964
 21
896.2237480631936
 31
0.0
  0
LINE
  5
402
330
1F
100
AcDbEntity
  8
0
100
AcDbLine
 10
-1046.745641208158
 20
-765.8398202063553
 30
0.0
 11
-1046.120911398022
 21
-765.8399763445968
 31
0.0
  0
LINE
  5
403
330
1F
100
AcDbEntity
  8
0
100
AcDbLine
 10
-2321.644521945093
 20
-765.8394562111224
 30
0.0
 11
-1046.745641208158
 21
-765.8398202063553
 31
0.0
  0
LINE
  5
404
330
1F
100
AcDbEntity
  8
0
100
AcDbLine
 10
-2302.318027740132
 20
180.4237454257728
 30
0.0
 11
-2302.318027740132
 21
896.2237480631936
 31
0.0
  0
LINE
  5
405
330
1F
100
AcDbEntity
  8
0
100
AcDbLine
 10
-2321.746281827596
 20
-765.8401186016823
 30
0.0
 11
-2322.344521253919
 21
-765.8398202067401
 31
0.0
  0
LINE
  5
406
330
1F
100
AcDbEntity
  8
0
100
AcDbLine
 10
-2302.334563885398
 20
-363.3649523804326
 30
0.0
 11
-2302.333603025289
 21
-368.8709155999538
 31
0.0
  0
LINE
  5
407
330
1F
100
AcDbEntity
  8
0
100
AcDbLine
 10
-652.8592168823823
 20
-745.8398202058698
 30
0.0
 11
-653.0653153625002
 21
-745.83982020587
 31
0.0
  0
LINE
  5
408
330
1F
100
AcDbEntity
  8
0
100
AcDbLine
 10
-653.0818516205665
 20
-163.3649475552093
 30
0.0
 11
-653.080890762721
 21
-168.8709102027926
 31
0.0
  0
LINE
  5
409
330
1F
100
AcDbEntity
  8
0
100
AcDbLine
 10
641.363877005562
 20
-765.8398202058462
 30
0.0
 11
-673.0918088002578
 21
-765.8398202062426
 31
0.0
  0
LINE
  5
40A
330
1F
100
AcDbEntity
  8
0
100
AcDbLine
 10
-692.120911397879
 20
-567.5555647922697
 30
0.0
 11
-692.1209113978788
 21
160.4237286372818
 31
0.0
  0
LINE
  5
40B
330
1F
100
AcDbEntity
  8
0
100
AcDbLine
 10
-692.1209113978788
 20
180.4237286372819
 30
0.0
 11
-692.1209113978788
 21
682.3566439356214
 31
0.0
  0
LINE
  5
40C
330
1F
100
AcDbEntity
  8
0
100
AcDbLine
 10
-1046.120911397879
 20
702.3566439356213
 30
0.0
 11
-1046.120911397879
 21
-567.5555647922697
 31
0.0
  0
LINE
  5
40D
330
1F
100
AcDbEntity
  8
0
100
AcDbLine
 10
-1026.12091139788
 20
-720.4710428095268
 30
0.0
 11
-1026.120911397879
 21
160.4237286372818
 31
0.0
  0
LINE
  5
40E
330
1F
100
AcDbEntity
  8
0
100
AcDbLine
 10
-2798.644085252609
 20
-765.8398202068837
 30
0.0
 11
-2778.644120393533
 21
-765.8398202068776
 31
0.0
  0
LINE
  5
40F
330
1F
100
AcDbEntity
  8
0
100
AcDbLine
 10
-2778.644120393533
 20
-765.8398202068776
 30
0.0
 11
-2341.644486804169
 21
-765.8394562111284
 31
0.0
  0
LINE
  5
410
330
1F
100
AcDbEntity
  8
0
100
AcDbLine
 10
-2778.644122048553
 20
916.2237481520425
 30
0.0
 11
-2341.64448845919
 21
916.2241121477915
 31
0.0
  0
LINE
  5
411
330
1F
100
AcDbEntity
  8
0
100
AcDbLine
 10
-2341.644486804169
 20
-765.8394562111284
 30
0.0
 11
-2322.344521253919
 21
-765.8398202067401
 31
0.0
  0
LINE
  5
412
330
1F
100
AcDbEntity
  8
0
100
AcDbLine
 10
-526.0919367488422
 20
200.4237493166104
 30
0.0
 11
-522.0919367488488
 21
200.4237493166104
 31
0.0
  0
LINE
  5
413
330
1F
100
AcDbEntity
  8
0
100
AcDbLine
 10
-526.0919367490478
 20
183.7598538651888
 30
0.0
 11
-526.0919367488422
 21
200.4237493166104
 31
0.0
  0
LINE
  5
414
330
1F
100
AcDbEntity
  8
0
100
AcDbLine
 10
-506.0919367488424
 20
183.7598538651888
 30
0.0
 11
-506.0919367488424
 21
200.4237493166104
 31
0.0
  0
LINE
  5
415
330
1F
100
AcDbEntity
  8
0
100
AcDbLine
 10
-522.0919367488488
 20
200.4237493166104
 30
0.0
 11
-507.0919367488479
 21
200.4237493166104
 31
0.0
  0
LINE
  5
416
330
1F
100
AcDbEntity
  8
0
100
AcDbLine
 10
-496.5883969977461
 20
187.993628834088
 30
0.0
 11
-496.5511529306506
 21
187.5629062112373
 31
0.0
  0
LINE
  5
417
330
1F
100
AcDbEntity
  8
0
100
AcDbLine
 10
-534.1889218623649
 20
189.5154860497336
 30
0.0
 11
-534.709674032995
 21
189.5465491357222
 31
0.0
  0
LINE
  5
418
330
1F
100
AcDbEntity
  8
0
100
AcDbLine
 10
-532.6329627823756
 20
187.5619309528155
 30
0.0
 11
-532.5954052735256
 21
187.9926349571557
 31
0.0
  0
LINE
  5
419
330
1F
100
AcDbEntity
  8
0
100
AcDbLine
 10
-494.327257977993
 20
220.4630345506245
 30
0.0
 11
-494.8493618735336
 21
220.4622447212348
 31
0.0
  0
LINE
  5
41A
330
1F
100
AcDbEntity
  8
0
100
AcDbLine
 10
-494.8493618735341
 20
219.3380779655309
 30
0.0
 11
-494.3272579779936
 21
219.3388677949205
 31
0.0
  0
LINE
  5
41B
330
1F
100
AcDbEntity
  8
0
100
AcDbLine
 10
-496.5753006350701
 20
221.1913910275048
 30
0.0
 11
-496.5743456744358
 21
220.7595690377509
 31
0.0
  0
LINE
  5
41C
330
1F
100
AcDbEntity
  8
0
100
AcDbLine
 10
-539.5919367488382
 20
183.7598538651888
 30
0.0
 11
-539.5919367488468
 21
225.1138825789177
 31
0.0
  0
LINE
  5
41D
330
1F
100
AcDbEntity
  8
0
100
AcDbLine
 10
-489.5919367488466
 20
225.1138825789177
 30
0.0
 11
-489.591936748838
 21
183.7598538651888
 31
0.0
  0
LINE
  5
41E
330
1F
100
AcDbEntity
  8
0
100
AcDbLine
 10
-494.9937724776214
 20
189.5156863813436
 30
0.0
 11
-494.4729977958692
 21
189.5464902257447
 31
0.0
  0
LINE
  5
41F
330
1F
100
AcDbEntity
  8
0
100
AcDbLine
 10
-1026.120911398022
 20
200.4237286372816
 30
0.0
 11
-1022.12091139768
 21
200.4237286372817
 31
0.0
  0
LINE
  5
420
330
1F
100
AcDbEntity
  8
0
100
AcDbLine
 10
-1006.120911397674
 20
183.75983318586
 30
0.0
 11
-1006.120911397674
 21
200.4237286372817
 31
0.0
  0
LINE
  5
421
330
1F
100
AcDbEntity
  8
0
100
AcDbLine
 10
-1022.12091139768
 20
200.4237286372817
 30
0.0
 11
-1007.120911397679
 21
200.4237286372817
 31
0.0
  0
LINE
  5
422
330
1F
100
AcDbEntity
  8
0
100
AcDbLine
 10
-996.6173716465776
 20
187.9936081547592
 30
0.0
 11
-996.5801275794819
 21
187.5628855319085
 31
0.0
  0
LINE
  5
423
330
1F
100
AcDbEntity
  8
0
100
AcDbLine
 10
-994.3562326268245
 20
220.4630138712957
 30
0.0
 11
-994.878336522365
 21
220.462224041906
 31
0.0
  0
LINE
  5
424
330
1F
100
AcDbEntity
  8
0
100
AcDbLine
 10
-994.8783365223654
 20
219.3380572862021
 30
0.0
 11
-994.3562326268249
 21
219.3388471155918
 31
0.0
  0
LINE
  5
425
330
1F
100
AcDbEntity
  8
0
100
AcDbLine
 10
-996.6042752839015
 20
221.1913703481765
 30
0.0
 11
-996.6033203232672
 21
220.7595483584221
 31
0.0
  0
LINE
  5
426
330
1F
100
AcDbEntity
  8
0
100
AcDbLine
 10
-989.620911397678
 20
225.113861899589
 30
0.0
 11
-989.6209113976694
 21
183.75983318586
 31
0.0
  0
LINE
  5
427
330
1F
100
AcDbEntity
  8
0
100
AcDbLine
 10
-995.0227471264529
 20
189.5156657020149
 30
0.0
 11
-994.5019724447008
 21
189.5464695464159
 31
0.0
  0
LINE
  5
428
330
1F
100
AcDbEntity
  8
0
100
AcDbLine
 10
-2523.170738534634
 20
200.4236773630772
 30
0.0
 11
-2520.165089254877
 21
200.4236773630772
 31
0.0
  0
LINE
  5
429
330
1F
100
AcDbEntity
  8
0
100
AcDbLine
 10
-2497.542057732338
 20
200.4236773630772
 30
0.0
 11
-2489.118542485902
 21
200.4236773630772
 31
0.0
  0
LINE
  5
42A
330
1F
100
AcDbEntity
  8
0
100
AcDbLine
 10
-2497.542057732338
 20
200.4236773630772
 30
0.0
 11
-2511.871233164173
 21
200.4236773630772
 31
0.0
  0
LINE
  5
42B
330
1F
100
AcDbEntity
  8
0
100
AcDbLine
 10
-2387.084312615478
 20
200.4236773630772
 30
0.0
 11
-2367.978745373032
 21
200.4236773630772
 31
0.0
  0
LINE
  5
42C
330
1F
100
AcDbEntity
  8
0
100
AcDbLine
 10
-2533.120273608795
 20
182.7648026314691
 30
0.0
 11
-2533.614862430176
 21
182.8010803992392
 31
0.0
  0
LINE
  5
42D
330
1F
100
AcDbEntity
  8
0
100
AcDbLine
 10
-2532.310204596539
 20
181.5039426579214
 30
0.0
 11
-2532.385938174437
 21
181.0009346872128
 31
0.0
  0
LINE
  5
42E
330
1F
100
AcDbEntity
  8
0
100
AcDbLine
 10
-2531.814674089278
 20
180.483296597009
 30
0.0
 11
-2531.73894051138
 21
180.9863045677176
 31
0.0
  0
LINE
  5
42F
330
1F
100
AcDbEntity
  8
0
100
AcDbLine
 10
-2492.852810948887
 20
218.1123902465121
 30
0.0
 11
-2493.35163859087
 21
218.1114678253725
 31
0.0
  0
LINE
  5
430
330
1F
100
AcDbEntity
  8
0
100
AcDbLine
 10
-2492.780374505711
 20
217.5938297351687
 30
0.0
 11
-2492.281546863729
 21
217.5947521563083
 31
0.0
  0
LINE
  5
431
330
1F
100
AcDbEntity
  8
0
100
AcDbLine
 10
349.8393658986708
 20
209.1110607447028
 30
0.0
 11
341.3586621787302
 21
209.1110607447028
 31
0.0
  0
LINE
  5
432
330
1F
100
AcDbEntity
  8
0
100
AcDbLine
 10
327.0608021618236
 20
209.1110607447028
 30
0.0
 11
341.3586621787302
 21
209.1110607447028
 31
0.0
  0
LINE
  5
433
330
1F
100
AcDbEntity
  8
0
100
AcDbLine
 10
327.0608021618236
 20
209.1110607447028
 30
0.0
 11
318.8606691953746
 21
209.1110607447028
 31
0.0
  0
LINE
  5
434
330
1F
100
AcDbEntity
  8
0
100
AcDbLine
 10
323.4074861084324
 20
189.1110607447028
 30
0.0
 11
320.4810645561993
 21
189.1110607447028
 31
0.0
  0
LINE
  5
435
330
1F
100
AcDbEntity
  8
0
100
AcDbLine
 10
349.9587212631248
 20
189.1110607447028
 30
0.0
 11
327.0938918838104
 21
189.1110607447028
 31
0.0
  0
LINE
  5
436
330
1F
100
AcDbEntity
  8
0
100
AcDbLine
 10
191.7426672722188
 20
209.1110607447028
 30
0.0
 11
210.8064806280929
 21
209.1110607447028
 31
0.0
  0
LINE
  5
437
330
1F
100
AcDbEntity
  8
0
100
AcDbLine
 10
191.7426672722188
 20
189.1110607447028
 30
0.0
 11
210.8064806280929
 21
189.1110607447028
 31
0.0
  0
LINE
  5
438
330
1F
100
AcDbEntity
  8
0
100
AcDbLine
 10
361.4259593619201
 20
189.6748486722848
 30
0.0
 11
361.5022154099156
 21
189.1718189575035
 31
0.0
  0
LINE
  5
439
330
1F
100
AcDbEntity
  8
0
100
AcDbLine
 10
362.0100931350515
 20
190.1924867624886
 30
0.0
 11
362.086349183047
 21
189.6894570477073
 31
0.0
  0
LINE
  5
43A
330
1F
100
AcDbEntity
  8
0
100
AcDbLine
 10
361.1994758567964
 20
226.7997736281377
 30
0.0
 11
360.7018860302952
 21
226.7988512069981
 31
0.0
  0
LINE
  5
43B
330
1F
100
AcDbEntity
  8
0
100
AcDbLine
 10
360.1177522571638
 20
226.2812131167943
 30
0.0
 11
360.615342083665
 21
226.2821355379339
 31
0.0
  0
LINE
  5
43C
330
1F
100
AcDbEntity
  8
0
100
AcDbLine
 10
358.8813752088274
 20
228.9632871839044
 30
0.0
 11
358.9231448422577
 21
228.4589735471959
 31
0.0
  0
LINE
  5
43D
330
1F
100
AcDbEntity
  8
0
100
AcDbLine
 10
358.2972414356958
 20
228.4456490937004
 30
0.0
 11
358.3390110691262
 21
227.9413354569921
 31
0.0
  0
LINE
  5
43E
330
1F
100
AcDbEntity
  8
0
100
AcDbLine
 10
362.8019221585029
 20
191.4524199751559
 30
0.0
 11
363.295405038508
 21
191.4883949814388
 31
0.0
  0
LINE
  5
43F
330
1F
100
AcDbEntity
  8
0
100
AcDbLine
 10
-1524.541437582493
 20
180.4243531876771
 30
0.0
 11
-1544.496806224153
 21
180.4243531871792
 31
0.0
  0
LINE
  5
440
330
1F
100
AcDbEntity
  8
0
100
AcDbLine
 10
-2387.084312615479
 20
180.4236792243583
 30
0.0
 11
-2387.084312615478
 21
200.4236773630772
 31
0.0
  0
LINE
  5
441
330
1F
100
AcDbEntity
  8
0
100
AcDbLine
 10
-2387.084312615478
 20
200.4236773630772
 30
0.0
 11
-2367.978745373031
 21
200.4236773630772
 31
0.0
  0
LINE
  5
442
330
1F
100
AcDbEntity
  8
0
100
AcDbLine
 10
191.7426672722169
 20
189.1110626059839
 30
0.0
 11
191.7426672722178
 21
209.1110607447028
 31
0.0
  0
LINE
  5
443
330
1F
100
AcDbEntity
  8
0
100
AcDbLine
 10
191.7426672722178
 20
209.1110607447028
 30
0.0
 11
210.8064806280929
 21
209.1110607447028
 31
0.0
  0
ENDSEC
  0
SECTION
  2
OBJECTS
  0
DICTIONARY
  5
C
330
0
100
AcDbDictionary
  3
ACAD_GROUP
350
D
  3
ACAD_LAYOUT
350
1A
  3
ACAD_MATERIAL
350
43
  3
ACAD_MLEADERSTYLE
350
6B
  3
ACAD_MLINESTYLE
350
17
  3
ACAD_PLOTSETTINGS
350
19
  3
ACAD_SCALELIST
350
47
  3
ACAD_VISUALSTYLE
350
2A
  3
ACDBHEADERROUNDTRIPXREC
350
444
  3
ACDBVARIABLEDICTIONARY
350
465
  0
DICTIONARY
  5
46C
330
8
100
AcDbDictionary
280
     1
  3
ACAD_XREC_ROUNDTRIP
360
46D
  0
DICTIONARY
  5
D
102
{ACAD_REACTORS
330
C
102
}
330
C
100
AcDbDictionary
  0
DICTIONARY
  5
1A
102
{ACAD_REACTORS
330
C
102
}
330
C
100
AcDbDictionary
  0
DICTIONARY
  5
43
102
{ACAD_REACTORS
330
C
102
}
330
C
100
AcDbDictionary
  3
BYBLOCK
350
45
  3
BYLAYER
350
44
  3
GLOBAL
350
46
  0
DICTIONARY
  5
6B
102
{ACAD_REACTORS
330
C
102
}
330
C
100
AcDbDictionary
  3
STANDARD
350
6C
  0
DICTIONARY
  5
17
102
{ACAD_REACTORS
330
C
102
}
330
C
100
AcDbDictionary
  3
STANDARD
350
18
  0
DICTIONARY
  5
19
102
{ACAD_REACTORS
330
C
102
}
330
C
100
AcDbDictionary
  0
DICTIONARY
  5
47
102
{ACAD_REACTORS
330
C
102
}
330
C
100
AcDbDictionary
  3
A0
350
48
  3
A1
350
49
  3
A2
350
4A
  3
A3
350
4B
  3
A4
350
4C
  3
A5
350
4D
  3
A6
350
4E
  3
A7
350
4F
  3
A8
350
50
  3
A9
350
51
  3
B0
350
52
  3
B1
350
53
  3
B2
350
54
  3
B3
350
55
  3
B4
350
56
  3
B5
350
57
  3
B6
350
58
  3
B7
350
59
  3
B8
350
5A
  3
B9
350
5B
  3
C0
350
5C
  3
C1
350
5D
  3
C2
350
5E
  3
C3
350
5F
  3
C4
350
60
  3
C5
350
61
  3
C6
350
62
  3
C7
350
63
  3
C8
350
64
  3
C9
350
65
  3
D0
350
66
  3
D1
350
67
  3
D2
350
68
  0
DICTIONARY
  5
2A
102
{ACAD_REACTORS
330
C
102
}
330
C
100
AcDbDictionary
  3
2DWIREFRAME
350
2F
  3
BASIC
350
32
  3
BRIGHTEN
350
36
  3
COLORCHANGE
350
3A
  3
CONCEPTUAL
350
34
  3
DIM
350
35
  3
EDGECOLOROFF
350
3D
  3
FACEPATTERN
350
39
  3
FLAT
350
2B
  3
FLATWITHEDGES
350
2C
  3
GOURAUD
350
2D
  3
GOURAUDWITHEDGES
350
2E
  3
HIDDEN
350
31
  3
JITTEROFF
350
3B
  3
LINEPATTERN
350
38
  3
OVERHANGOFF
350
3C
  3
REALISTIC
350
33
  3
SHADED
350
42
  3
SHADED_WITH_EDGES
350
41
  3
SHADES_OF_GRAY
350
3E
  3
SKETCHY
350
3F
  3
THICKEN
350
37
  3
WIREFRAME
350
30
  3
X-RAY
350
40
  0
DICTIONARY
  5
444
102
{ACAD_REACTORS
330
C
102
}
330
C
100
AcDbDictionary
  3
CEPSNID
350
44E
  3
CEPSNTYPE
350
44D
  3
DIMSTYLEDATA
350
464
  3
FINGERPRINTGUID
350
44F
  3
HYPERLINKBASE
350
447
  3
INSUNITS
350
44C
  3
LAYOUTDICT
350
449
  3
LWETCUNION
350
44B
  3
PLOTSETDICT
350
44A
  3
PSVPSCALE
350
451
  3
PUCSBASE
350
454
  3
PUCSORGBACK
350
45A
  3
PUCSORGBOTTOM
350
456
  3
PUCSORGFRONT
350
459
  3
PUCSORGLEFT
350
457
  3
PUCSORGRIGHT
350
458
  3
PUCSORGTOP
350
455
  3
PUCSORTHOREF
350
452
  3
PUCSORTHOVIEW
350
453
  3
STYLESHEET
350
448
  3
TSTACKALIGN
350
445
  3
TSTACKSIZE
350
446
  3
UCSBASE
350
45D
  3
UCSORGBACK
350
463
  3
UCSORGBOTTOM
350
45F
  3
UCSORGFRONT
350
462
  3
UCSORGLEFT
350
460
  3
UCSORGRIGHT
350
461
  3
UCSORGTOP
350
45E
  3
UCSORTHOREF
350
45B
  3
UCSORTHOVIEW
350
45C
  3
VERSIONGUID
350
450
  0
DICTIONARY
  5
465
102
{ACAD_REACTORS
330
C
102
}
330
C
100
AcDbDictionary
  3
CANNOSCALE
350
46E
  3
CMLEADERSTYLE
350
467
  3
CTABLESTYLE
350
466
  3
DIMASSOC
350
46A
  3
HIDETEXT
350
46B
  3
MSLTSCALE
350
46F
  0
XRECORD
  5
46D
102
{ACAD_REACTORS
330
46C
102
}
330
46C
100
AcDbXrecord
102
VTR_0.000_0.000_1.000_1.000_VISUALSTYLE
340
2F
102
VTR_0.000_0.000_1.000_1.000_GRIDDISPLAY
 70
     3
102
VTR_0.000_0.000_1.000_1.000_GRIDMAJOR
 70
     5
102
VTR_0.000_0.000_1.000_1.000_DEFAULTLIGHTING
280
     1
102
VTR_0.000_0.000_1.000_1.000_DEFAULTLIGHTINGTYPE
 70
     1
102
VTR_0.000_0.000_1.000_1.000_BRIGHTNESS
141
0.0
102
VTR_0.000_0.000_1.000_1.000_CONTRAST
142
0.0
  0
MATERIAL
  5
45
102
{ACAD_REACTORS
330
43
102
}
102
{ACAD_XDICTIONARY
360
472
102
}
330
43
100
AcDbMaterial
  1
BYBLOCK
  0
MATERIAL
  5
44
102
{ACAD_REACTORS
330
43
102
}
102
{ACAD_XDICTIONARY
360
470
102
}
330
43
100
AcDbMaterial
  1
BYLAYER
  0
MATERIAL
  5
46
102
{ACAD_REACTORS
330
43
102
}
102
{ACAD_XDICTIONARY
360
474
102
}
330
43
100
AcDbMaterial
  1
GLOBAL
  0
ACAD_PROXY_OBJECT
  5
6C
102
{ACAD_REACTORS
330
6B
102
}
330
6B
100
AcDbProxyObject
 90
      499
 91
      505
 93
      610
310
40901902A4063FBFFFFFE056BD1B81E855B9FC0AD7A3703D0AD73F4214DD185B99185C9900AD7A3703D0AC73F90141901A02B5E8DC0F42B1CFC02B5E8DC0F42B1CFE5764000000000000300FC0
340
14
340
0
340
11
340
0
 94
        0
1001
ACAD_MLEADERVER
1070
     2
  0
MLINESTYLE
  5
18
102
{ACAD_REACTORS
330
17
102
}
330
17
100
AcDbMlineStyle
  2
Standard
 70
     0
  3

 62
   256
 51
90.0
 52
90.0
 71
     2
 49
0.5
 62
   256
  6
BYLAYER
 49
-0.5
 62
   256
  6
BYLAYER
  0
ACAD_PROXY_OBJECT
  5
48
102
{ACAD_REACTORS
330
47
102
}
330
47
100
AcDbProxyObject
 90
      499
 91
      503
 93
       41
310
903313A31580
  0
ACAD_PROXY_OBJECT
  5
49
102
{ACAD_REACTORS
330
47
102
}
330
47
100
AcDbProxyObject
 90
      499
 91
      503
 93
      105
310
903313A324000000000000004000
  0
ACAD_PROXY_OBJECT
  5
4A
102
{ACAD_REACTORS
330
47
102
}
330
47
100
AcDbProxyObject
 90
      499
 91
      503
 93
      105
310
903313A344000000000000104000
  0
ACAD_PROXY_OBJECT
  5
4B
102
{ACAD_REACTORS
330
47
102
}
330
47
100
AcDbProxyObject
 90
      499
 91
      503
 93
      105
310
903313A354000000000000144000
  0
ACAD_PROXY_OBJECT
  5
4C
102
{ACAD_REACTORS
330
47
102
}
330
47
100
AcDbProxyObject
 90
      499
 91
      503
 93
      105
310
903313A384000000000000204000
  0
ACAD_PROXY_OBJECT
  5
4D
102
{ACAD_REACTORS
330
47
102
}
330
47
100
AcDbProxyObject
 90
      499
 91
      503
 93
      113
310
904313A31304000000000000244000
  0
ACAD_PROXY_OBJECT
  5
4E
102
{ACAD_REACTORS
330
47
102
}
330
47
100
AcDbProxyObject
 90
      499
 91
      503
 93
      113
310
904313A31364000000000000304000
  0
ACAD_PROXY_OBJECT
  5
4F
102
{ACAD_REACTORS
330
47
102
}
330
47
100
AcDbProxyObject
 90
      499
 91
      503
 93
      113
310
904313A32304000000000000344000
  0
ACAD_PROXY_OBJECT
  5
50
102
{ACAD_REACTORS
330
47
102
}
330
47
100
AcDbProxyObject
 90
      499
 91
      503
 93
      113
310
904313A333040000000000003E4000
  0
ACAD_PROXY_OBJECT
  5
51
102
{ACAD_REACTORS
330
47
102
}
330
47
100
AcDbProxyObject
 90
      499
 91
      503
 93
      113
310
904313A34304000000000000444000
  0
ACAD_PROXY_OBJECT
  5
52
102
{ACAD_REACTORS
330
47
102
}
330
47
100
AcDbProxyObject
 90
      499
 91
      503
 93
      113
310
904313A35304000000000000494000
  0
ACAD_PROXY_OBJECT
  5
53
102
{ACAD_REACTORS
330
47
102
}
330
47
100
AcDbProxyObject
 90
      499
 91
      503
 93
      121
310
905313A3130304000000000000594000
  0
ACAD_PROXY_OBJECT
  5
54
102
{ACAD_REACTORS
330
47
102
}
330
47
100
AcDbProxyObject
 90
      499
 91
      503
 93
      105
310
903323A310000000000000010100
  0
ACAD_PROXY_OBJECT
  5
55
102
{ACAD_REACTORS
330
47
102
}
330
47
100
AcDbProxyObject
 90
      499
 91
      503
 93
      105
310
903343A310000000000000410100
  0
ACAD_PROXY_OBJECT
  5
56
102
{ACAD_REACTORS
330
47
102
}
330
47
100
AcDbProxyObject
 90
      499
 91
      503
 93
      105
310
903383A310000000000000810100
  0
ACAD_PROXY_OBJECT
  5
57
102
{ACAD_REACTORS
330
47
102
}
330
47
100
AcDbProxyObject
 90
      499
 91
      503
 93
      113
310
90431303A310000000000000910100
  0
ACAD_PROXY_OBJECT
  5
58
102
{ACAD_REACTORS
330
47
102
}
330
47
100
AcDbProxyObject
 90
      499
 91
      503
 93
      121
310
9053130303A310000000000001650100
  0
ACAD_PROXY_OBJECT
  5
59
102
{ACAD_REACTORS
330
47
102
}
330
47
100
AcDbProxyObject
 90
      499
 91
      503
 93
      257
310
90E312F31323822203D2031272D3022000000000000200FC000000000000284000
  0
ACAD_PROXY_OBJECT
  5
5A
102
{ACAD_REACTORS
330
47
102
}
330
47
100
AcDbProxyObject
 90
      499
 91
      503
 93
      249
310
90D312F363422203D2031272D3022000000000000240FC000000000000284000
  0
ACAD_PROXY_OBJECT
  5
5B
102
{ACAD_REACTORS
330
47
102
}
330
47
100
AcDbProxyObject
 90
      499
 91
      503
 93
      249
310
90D312F333222203D2031272D3022000000000000280FC000000000000284000
  0
ACAD_PROXY_OBJECT
  5
5C
102
{ACAD_REACTORS
330
47
102
}
330
47
100
AcDbProxyObject
 90
      499
 91
      503
 93
      249
310
90D312F313622203D2031272D30220000000000002C0FC000000000000284000
  0
ACAD_PROXY_OBJECT
  5
5D
102
{ACAD_REACTORS
330
47
102
}
330
47
100
AcDbProxyObject
 90
      499
 91
      503
 93
      249
310
90D332F333222203D2031272D30220000000000002E0FC000000000000284000
  0
ACAD_PROXY_OBJECT
  5
5E
102
{ACAD_REACTORS
330
47
102
}
330
47
100
AcDbProxyObject
 90
      499
 91
      503
 93
      241
310
90C312F3822203D2031272D3022000000000000300FC000000000000284000
  0
ACAD_PROXY_OBJECT
  5
5F
102
{ACAD_REACTORS
330
47
102
}
330
47
100
AcDbProxyObject
 90
      499
 91
      503
 93
      249
310
90D332F313622203D2031272D3022000000000000320FC000000000000284000
  0
ACAD_PROXY_OBJECT
  5
60
102
{ACAD_REACTORS
330
47
102
}
330
47
100
AcDbProxyObject
 90
      499
 91
      503
 93
      241
310
90C312F3422203D2031272D3022000000000000340FC000000000000284000
  0
ACAD_PROXY_OBJECT
  5
61
102
{ACAD_REACTORS
330
47
102
}
330
47
100
AcDbProxyObject
 90
      499
 91
      503
 93
      241
310
90C332F3822203D2031272D3022000000000000360FC000000000000284000
  0
ACAD_PROXY_OBJECT
  5
62
102
{ACAD_REACTORS
330
47
102
}
330
47
100
AcDbProxyObject
 90
      499
 91
      503
 93
      241
310
90C312F3222203D2031272D3022000000000000380FC000000000000284000
  0
ACAD_PROXY_OBJECT
  5
63
102
{ACAD_REACTORS
330
47
102
}
330
47
100
AcDbProxyObject
 90
      499
 91
      503
 93
      241
310
90C332F3422203D2031272D30220000000000003A0FC000000000000284000
  0
ACAD_PROXY_OBJECT
  5
64
102
{ACAD_REACTORS
330
47
102
}
330
47
100
AcDbProxyObject
 90
      499
 91
      503
 93
      161
310
90A3122203D2031272D30224000000000000284000
  0
ACAD_PROXY_OBJECT
  5
65
102
{ACAD_REACTORS
330
47
102
}
330
47
100
AcDbProxyObject
 90
      499
 91
      503
 93
      257
310
90E312D312F3222203D2031272D30220000000000003E0FC000000000000284000
  0
ACAD_PROXY_OBJECT
  5
66
102
{ACAD_REACTORS
330
47
102
}
330
47
100
AcDbProxyObject
 90
      499
 91
      503
 93
      225
310
90A3322203D2031272D302200000000000002100000000000000284000
  0
ACAD_PROXY_OBJECT
  5
67
102
{ACAD_REACTORS
330
47
102
}
330
47
100
AcDbProxyObject
 90
      499
 91
      503
 93
      225
310
90A3622203D2031272D302200000000000006100000000000000284000
  0
ACAD_PROXY_OBJECT
  5
68
102
{ACAD_REACTORS
330
47
102
}
330
47
100
AcDbProxyObject
 90
      499
 91
      503
 93
      249
310
90D31272D3022203D2031272D30220000000000000A100000000000000284000
  0
ACAD_PROXY_OBJECT
  5
2F
102
{ACAD_REACTORS
330
2A
102
}
330
2A
100
AcDbProxyObject
 90
      499
 91
      501
 93
      436
310
42CC9915DA5C99599C985B595049028333333333333E33F0000000000000F90107901411070040501600405405064090741402480A0340
1001
ACAD
1000
AcDbSavedByObjectVersion
1070
     0
  0
ACAD_PROXY_OBJECT
  5
32
102
{ACAD_REACTORS
330
2A
102
}
330
2A
100
AcDbProxyObject
 90
      499
 91
      501
 93
      388
310
4150985CDA58D07406404333333333333E33F0000000000000F90107A41107004050150841D405064090741402480A0350
1001
ACAD
1000
AcDbSavedByObjectVersion
1070
     0
  0
ACAD_PROXY_OBJECT
  5
36
102
{ACAD_REACTORS
330
2A
102
}
330
2A
100
AcDbProxyObject
 90
      499
 91
      501
 93
      428
310
42109C9A59DA1D195B90C409028333333333333E33F0000000000000F9010790141107004050150841D405064090741402480A029950
1001
ACAD
1000
AcDbSavedByObjectVersion
1070
     0
  0
ACAD_PROXY_OBJECT
  5
3A
102
{ACAD_REACTORS
330
2A
102
}
330
2A
100
AcDbProxyObject
 90
      499
 91
      501
 93
      452
310
42D0DBDB1BDC90DA185B99D95104090240C333333333333E33F0000000000000F90108901411070040501508421405064090741402480A0350
1001
ACAD
1000
AcDbSavedByObjectVersion
1070
     0
  0
ACAD_PROXY_OBJECT
  5
34
102
{ACAD_REACTORS
330
2A
102
}
330
2A
100
AcDbProxyObject
 90
      499
 91
      501
 93
      500
310
4290DBDB98D95C1D1D585B10940D028333333333333E33F0000000000000F90107902409070040501000000000018199010841D405064090740C02480A0340
1001
ACAD
1000
AcDbSavedByObjectVersion
1070
     0
  0
ACAD_PROXY_OBJECT
  5
35
102
{ACAD_REACTORS
330
2A
102
}
330
2A
100
AcDbProxyObject
 90
      499
 91
      501
 93
      412
310
40D11A5B50B409028333333333333E33F0000000000000F9010790141107004050150841D405064090741402480A02677FFFFFD0
1001
ACAD
1000
AcDbSavedByObjectVersion
1070
     0
  0
ACAD_PROXY_OBJECT
  5
3D
102
{ACAD_REACTORS
330
2A
102
}
330
2A
100
AcDbProxyObject
 90
      499
 91
      501
 93
      452
310
43115919D950DBDB1BDC93D999916409028333333333333E33F0000000000000F9010790141107004050150841D405064090741402480A0350
1001
ACAD
1000
AcDbSavedByObjectVersion
1070
     0
  0
ACAD_PROXY_OBJECT
  5
39
102
{ACAD_REACTORS
330
2A
102
}
330
2A
100
AcDbProxyObject
 90
      499
 91
      501
 93
      444
310
42D19858D95C185D1D195C9B90F409028333333333333E33F0000000000000F9010790141107004050150841D405064090741402480A0350
1001
ACAD
1000
AcDbSavedByObjectVersion
1070
     0
  0
ACAD_PROXY_OBJECT
  5
2B
102
{ACAD_REACTORS
330
2A
102
}
330
2A
100
AcDbProxyObject
 90
      499
 91
      501
 93
      380
310
41119B185D240901404333333333333E33F0000000000000F9010740A907004050150841D405064090741402480A1B50
1001
ACAD
1000
AcDbSavedByObjectVersion
1070
     0
  0
ACAD_PROXY_OBJECT
  5
2C
102
{ACAD_REACTORS
330
2A
102
}
330
2A
100
AcDbProxyObject
 90
      499
 91
      501
 93
      468
310
43519B185D15DA5D1A115919D95CD0140901404333333333333E33F0000000000000F90107409019070040501600405405064090741402480A1B50
1001
ACAD
1000
AcDbSavedByObjectVersion
1070
     0
  0
ACAD_PROXY_OBJECT
  5
2D
102
{ACAD_REACTORS
330
2A
102
}
330
2A
100
AcDbProxyObject
 90
      499
 91
      501
 93
      404
310
41D1DBDD5C985D5910240902404333333333333E33F0000000000000F9010740A9070040501641D405064090741402480A1B50
1001
ACAD
1000
AcDbSavedByObjectVersion
1070
     0
  0
ACAD_PROXY_OBJECT
  5
2E
102
{ACAD_REACTORS
330
2A
102
}
330
2A
100
AcDbProxyObject
 90
      499
 91
      501
 93
      492
310
4411DBDD5C985D5915DA5D1A115919D95CD0340902404333333333333E33F0000000000000F90107409019070040501600405405064090741402480A1B50
1001
ACAD
1000
AcDbSavedByObjectVersion
1070
     0
  0
ACAD_PROXY_OBJECT
  5
31
102
{ACAD_REACTORS
330
2A
102
}
330
2A
100
AcDbProxyObject
 90
      499
 91
      501
 93
      476
310
41921A5919195B90640502408333333333333E33F0000000000000F901079024090700405020000000000001110200405405064090740C02480A0340
1001
ACAD
1000
AcDbSavedByObjectVersion
1070
     0
  0
ACAD_PROXY_OBJECT
  5
3B
102
{ACAD_REACTORS
330
2A
102
}
330
2A
100
AcDbProxyObject
 90
      499
 91
      501
 93
      428
310
42529A5D1D195C93D999914409028333333333333E33F0000000000000F9010790141107004050150A41D405064090741402480A0350
1001
ACAD
1000
AcDbSavedByObjectVersion
1070
     0
  0
ACAD_PROXY_OBJECT
  5
38
102
{ACAD_REACTORS
330
2A
102
}
330
2A
100
AcDbProxyObject
 90
      499
 91
      501
 93
      444
310
42D31A5B995C185D1D195C9B90E409028333333333333E33F0000000000000F9010790141107004050750841D405064090741402483A0350
1001
ACAD
1000
AcDbSavedByObjectVersion
1070
     0
  0
ACAD_PROXY_OBJECT
  5
3C
102
{ACAD_REACTORS
330
2A
102
}
330
2A
100
AcDbProxyObject
 90
      499
 91
      501
 93
      444
310
42D3DD995C9A185B99D3D999915409028333333333333E33F0000000000000F9010790141107004050150941D405064090741402480A0350
1001
ACAD
1000
AcDbSavedByObjectVersion
1070
     0
  0
ACAD_PROXY_OBJECT
  5
33
102
{ACAD_REACTORS
330
2A
102
}
330
2A
100
AcDbProxyObject
 90
      499
 91
      501
 93
      428
310
425499585B1A5CDD1A58D08409038333333333333E33F0000000000000F9010740A907004050150800405405064090740C02480A1B40
1001
ACAD
1000
AcDbSavedByObjectVersion
1070
     0
  0
ACAD_PROXY_OBJECT
  5
42
102
{ACAD_REACTORS
330
2A
102
}
330
2A
100
AcDbProxyObject
 90
      499
 91
      501
 93
      420
310
4194DA1859195911B40902404333333333333E33F0000000000000F9010740A41107004050150800405405064090840C02480A0B40
1001
ACAD
1000
AcDbSavedByObjectVersion
1070
     0
  0
ACAD_PROXY_OBJECT
  5
41
102
{ACAD_REACTORS
330
2A
102
}
330
2A
100
AcDbProxyObject
 90
      499
 91
      501
 93
      516
310
4454DA18591959081DDA5D1A08195919D95CD1A40902404333333333333E33F0000000000000F901074090142907004050250800405405064090740C02480A0B40
1001
ACAD
1000
AcDbSavedByObjectVersion
1070
     0
  0
ACAD_PROXY_OBJECT
  5
3E
102
{ACAD_REACTORS
330
2A
102
}
330
2A
100
AcDbProxyObject
 90
      499
 91
      501
 93
      532
310
4394DA1859195CC81BD98811DC985E5174090240C333333333333E33F0000000000000F901079024090741D01000000000000111010841D405064090740C02480A0340
1001
ACAD
1000
AcDbSavedByObjectVersion
1070
     0
  0
ACAD_PROXY_OBJECT
  5
3F
102
{ACAD_REACTORS
330
2A
102
}
330
2A
100
AcDbProxyObject
 90
      499
 91
      501
 93
      476
310
41D4DAD95D18DA1E51840502408333333333333E33F0000000000000F901079024090741D01000000000000111010B41D405064090741802480A0340
1001
ACAD
1000
AcDbSavedByObjectVersion
1070
     0
  0
ACAD_PROXY_OBJECT
  5
37
102
{ACAD_REACTORS
330
2A
102
}
330
2A
100
AcDbProxyObject
 90
      499
 91
      501
 93
      412
310
41D51A1A58DAD95B90D409028333333333333E33F0000000000000F9010790141107004050150C41D405064090741402480A0350
1001
ACAD
1000
AcDbSavedByObjectVersion
1070
     0
  0
ACAD_PROXY_OBJECT
  5
30
102
{ACAD_REACTORS
330
2A
102
}
330
2A
100
AcDbProxyObject
 90
      499
 91
      501
 93
      420
310
4255DA5C99599C985B595059028333333333333E33F0000000000000F90107901411070040501600405405064090740C02480A0340
1001
ACAD
1000
AcDbSavedByObjectVersion
1070
     0
  0
ACAD_PROXY_OBJECT
  5
40
102
{ACAD_REACTORS
330
2A
102
}
330
2A
100
AcDbProxyObject
 90
      499
 91
      501
 93
      404
310
41560B54985E51940902404000000000000E03F0000000000000F9010740501907004050150841D405064090740C02480A1B40
1001
ACAD
1000
AcDbSavedByObjectVersion
1070
     0
  0
XRECORD
  5
44E
102
{ACAD_REACTORS
330
444
102
}
330
444
100
AcDbXrecord
340
0
  0
XRECORD
  5
44D
102
{ACAD_REACTORS
330
444
102
}
330
444
100
AcDbXrecord
 90
        0
  0
XRECORD
  5
464
102
{ACAD_REACTORS
330
444
102
}
330
444
100
AcDbXrecord
1000
DSTYLE
1002
{
1070
   171
 70
     2
1070
   143
 40
25.4
1070
   274
 70
     2
1070
    41
 40
0.18
1070
   141
 40
0.09
1070
   271
 70
     4
1070
    43
 40
0.38
1070
   278
 70
    46
1070
    44
 40
0.18
1070
    42
 40
0.0625
1070
   147
 40
0.09
1070
    77
 70
     0
1070
   272
 70
     4
1070
    73
 70
     1
1070
   172
 70
     0
1070
    74
 70
     1
1070
   283
 70
     1
1070
   340
340
11
1070
   140
 40
0.18
1070
   284
 70
     0
1070
    78
 70
     0
1002
}
  0
XRECORD
  5
44F
102
{ACAD_REACTORS
330
444
102
}
330
444
100
AcDbXrecord
  1
{06FAB53E-1E2B-44AA-B8AC-A49BF3360DE5}
  0
XRECORD
  5
447
102
{ACAD_REACTORS
330
444
102
}
330
444
100
AcDbXrecord
  1

  0
XRECORD
  5
44C
102
{ACAD_REACTORS
330
444
102
}
330
444
100
AcDbXrecord
 90
        4
  0
XRECORD
  5
449
102
{ACAD_REACTORS
330
444
102
}
330
444
100
AcDbXrecord
340
1A
  0
XRECORD
  5
44B
102
{ACAD_REACTORS
330
444
102
}
330
444
100
AcDbXrecord
 90
    10781
  0
XRECORD
  5
44A
102
{ACAD_REACTORS
330
444
102
}
330
444
100
AcDbXrecord
340
19
  0
XRECORD
  5
451
102
{ACAD_REACTORS
330
444
102
}
330
444
100
AcDbXrecord
 40
0.0
  0
XRECORD
  5
454
102
{ACAD_REACTORS
330
444
102
}
330
444
100
AcDbXrecord
340
0
  0
XRECORD
  5
45A
102
{ACAD_REACTORS
330
444
102
}
330
444
100
AcDbXrecord
 10
0.0
 20
0.0
 30
0.0
  0
XRECORD
  5
456
102
{ACAD_REACTORS
330
444
102
}
330
444
100
AcDbXrecord
 10
0.0
 20
0.0
 30
0.0
  0
XRECORD
  5
459
102
{ACAD_REACTORS
330
444
102
}
330
444
100
AcDbXrecord
 10
0.0
 20
0.0
 30
0.0
  0
XRECORD
  5
457
102
{ACAD_REACTORS
330
444
102
}
330
444
100
AcDbXrecord
 10
0.0
 20
0.0
 30
0.0
  0
XRECORD
  5
458
102
{ACAD_REACTORS
330
444
102
}
330
444
100
AcDbXrecord
 10
0.0
 20
0.0
 30
0.0
  0
XRECORD
  5
455
102
{ACAD_REACTORS
330
444
102
}
330
444
100
AcDbXrecord
 10
0.0
 20
0.0
 30
0.0
  0
XRECORD
  5
452
102
{ACAD_REACTORS
330
444
102
}
330
444
100
AcDbXrecord
340
0
  0
XRECORD
  5
453
102
{ACAD_REACTORS
330
444
102
}
330
444
100
AcDbXrecord
 70
     0
  0
XRECORD
  5
448
102
{ACAD_REACTORS
330
444
102
}
330
444
100
AcDbXrecord
  1

  0
XRECORD
  5
445
102
{ACAD_REACTORS
330
444
102
}
330
444
100
AcDbXrecord
 90
        1
  0
XRECORD
  5
446
102
{ACAD_REACTORS
330
444
102
}
330
444
100
AcDbXrecord
 90
       70
  0
XRECORD
  5
45D
102
{ACAD_REACTORS
330
444
102
}
330
444
100
AcDbXrecord
340
0
  0
XRECORD
  5
463
102
{ACAD_REACTORS
330
444
102
}
330
444
100
AcDbXrecord
 10
0.0
 20
0.0
 30
0.0
  0
XRECORD
  5
45F
102
{ACAD_REACTORS
330
444
102
}
330
444
100
AcDbXrecord
 10
0.0
 20
0.0
 30
0.0
  0
XRECORD
  5
462
102
{ACAD_REACTORS
330
444
102
}
330
444
100
AcDbXrecord
 10
0.0
 20
0.0
 30
0.0
  0
XRECORD
  5
460
102
{ACAD_REACTORS
330
444
102
}
330
444
100
AcDbXrecord
 10
0.0
 20
0.0
 30
0.0
  0
XRECORD
  5
461
102
{ACAD_REACTORS
330
444
102
}
330
444
100
AcDbXrecord
 10
0.0
 20
0.0
 30
0.0
  0
XRECORD
  5
45E
102
{ACAD_REACTORS
330
444
102
}
330
444
100
AcDbXrecord
 10
0.0
 20
0.0
 30
0.0
  0
XRECORD
  5
45B
102
{ACAD_REACTORS
330
444
102
}
330
444
100
AcDbXrecord
340
0
  0
XRECORD
  5
45C
102
{ACAD_REACTORS
330
444
102
}
330
444
100
AcDbXrecord
 70
     0
  0
XRECORD
  5
450
102
{ACAD_REACTORS
330
444
102
}
330
444
100
AcDbXrecord
  1
{FAEB1C32-E019-11D5-929B-00C0DF256EC4}
  0
DICTIONARYVAR
  5
46E
102
{ACAD_REACTORS
330
465
102
}
330
465
100
DictionaryVariables
280
     0
  1
1:1
  0
DICTIONARYVAR
  5
467
102
{ACAD_REACTORS
330
465
102
}
330
465
100
DictionaryVariables
280
     0
  1
Standard
  0
DICTIONARYVAR
  5
466
102
{ACAD_REACTORS
330
465
102
}
330
465
100
DictionaryVariables
280
     0
  1
Standard
  0
DICTIONARYVAR
  5
46A
102
{ACAD_REACTORS
330
465
102
}
330
465
100
DictionaryVariables
280
     0
  1
2
  0
DICTIONARYVAR
  5
46B
102
{ACAD_REACTORS
330
465
102
}
330
465
100
DictionaryVariables
280
     0
  1
1
  0
DICTIONARYVAR
  5
46F
102
{ACAD_REACTORS
330
465
102
}
330
465
100
DictionaryVariables
280
     0
  1
1
  0
DICTIONARY
  5
472
330
45
100
AcDbDictionary
280
     1
  3
ACAD_XREC_ROUNDTRIP
360
473
  0
DICTIONARY
  5
470
330
44
100
AcDbDictionary
280
     1
  3
ACAD_XREC_ROUNDTRIP
360
471
  0
DICTIONARY
  5
474
330
46
100
AcDbDictionary
280
     1
  3
ACAD_XREC_ROUNDTRIP
360
475
  0
XRECORD
  5
473
102
{ACAD_REACTORS
330
472
102
}
330
472
100
AcDbXrecord
102
MATERIAL
148
0.0
149
0.0
149
0.0
 93
        0
 94
      127
282
     0
 72
     1
 77
     1
171
     1
175
     1
179
     1
273
     0
  0
XRECORD
  5
471
102
{ACAD_REACTORS
330
470
102
}
330
470
100
AcDbXrecord
102
MATERIAL
148
0.0
149
0.0
149
0.0
 93
        0
 94
      127
282
     0
 72
     1
 77
     1
171
     1
175
     1
179
     1
273
     0
  0
XRECORD
  5
475
102
{ACAD_REACTORS
330
474
102
}
330
474
100
AcDbXrecord
102
MATERIAL
148
0.0
149
0.0
149
0.0
 93
        0
 94
      127
282
     0
 72
     1
 77
     1
171
     1
175
     1
179
     1
273
     0
  0
ENDSEC
  0
EOF
