  0
SECTION
  2
HEADER
  9
$ACADVER
  1
AC1014
  9
$ACADMAINTVER
 70
     9
  9
$DWGCODEPAGE
  3
ANSI_1251
  9
$INSBASE
 10
0.0
 20
0.0
 30
0.0
  9
$EXTMIN
 10
1.000000000000000E+20
 20
1.000000000000000E+20
 30
1.000000000000000E+20
  9
$EXTMAX
 10
-1.000000000000000E+20
 20
-1.000000000000000E+20
 30
-1.000000000000000E+20
  9
$LIMMIN
 10
0.0
 20
0.0
  9
$LIMMAX
 10
12.0
 20
9.0
  9
$ORTHOMODE
 70
     0
  9
$REGENMODE
 70
     1
  9
$FILLMODE
 70
     1
  9
$QTEXTMODE
 70
     0
  9
$MIRRTEXT
 70
     1
  9
$DRAGMODE
 70
     2
  9
$LTSCALE
 40
1.0
  9
$OSMODE
 70
    37
  9
$ATTMODE
 70
     1
  9
$TEXTSIZE
 40
0.2
  9
$TRACEWID
 40
0.05
  9
$TEXTSTYLE
  7
STANDARD
  9
$CLAYER
  8
0
  9
$CELTYPE
  6
BYLAYER
  9
$CECOLOR
 62
   256
  9
$CELTSCALE
 40
1.0
  9
$DELOBJ
 70
     1
  9
$DISPSILH
 70
     0
  9
$DIMSCALE
 40
1.0
  9
$DIMASZ
 40
0.18
  9
$DIMEXO
 40
0.0625
  9
$DIMDLI
 40
0.38
  9
$DIMRND
 40
0.0
  9
$DIMDLE
 40
0.0
  9
$DIMEXE
 40
0.18
  9
$DIMTP
 40
0.0
  9
$DIMTM
 40
0.0
  9
$DIMTXT
 40
0.18
  9
$DIMCEN
 40
0.09
  9
$DIMTSZ
 40
0.0
  9
$DIMTOL
 70
     0
  9
$DIMLIM
 70
     0
  9
$DIMTIH
 70
     1
  9
$DIMTOH
 70
     1
  9
$DIMSE1
 70
     0
  9
$DIMSE2
 70
     0
  9
$DIMTAD
 70
     0
  9
$DIMZIN
 70
     0
  9
$DIMBLK
  1

  9
$DIMASO
 70
     1
  9
$DIMSHO
 70
     1
  9
$DIMPOST
  1

  9
$DIMAPOST
  1

  9
$DIMALT
 70
     0
  9
$DIMALTD
 70
     2
  9
$DIMALTF
 40
25.4
  9
$DIMLFAC
 40
1.0
  9
$DIMTOFL
 70
     0
  9
$DIMTVP
 40
0.0
  9
$DIMTIX
 70
     0
  9
$DIMSOXD
 70
     0
  9
$DIMSAH
 70
     0
  9
$DIMBLK1
  1

  9
$DIMBLK2
  1

  9
$DIMSTYLE
  2
STANDARD
  9
$DIMCLRD
 70
     0
  9
$DIMCLRE
 70
     0
  9
$DIMCLRT
 70
     0
  9
$DIMTFAC
 40
1.0
  9
$DIMGAP
 40
0.09
  9
$DIMJUST
 70
     0
  9
$DIMSD1
 70
     0
  9
$DIMSD2
 70
     0
  9
$DIMTOLJ
 70
     1
  9
$DIMTZIN
 70
     0
  9
$DIMALTZ
 70
     0
  9
$DIMALTTZ
 70
     0
  9
$DIMFIT
 70
     3
  9
$DIMUPT
 70
     0
  9
$DIMUNIT
 70
     2
  9
$DIMDEC
 70
     4
  9
$DIMTDEC
 70
     4
  9
$DIMALTU
 70
     2
  9
$DIMALTTD
 70
     2
  9
$DIMTXSTY
  7
STANDARD
  9
$DIMAUNIT
 70
     0
  9
$LUNITS
 70
     2
  9
$LUPREC
 70
     4
  9
$SKETCHINC
 40
0.1
  9
$FILLETRAD
 40
0.5
  9
$AUNITS
 70
     0
  9
$AUPREC
 70
     0
  9
$MENU
  1
.
  9
$ELEVATION
 40
0.0
  9
$PELEVATION
 40
0.0
  9
$THICKNESS
 40
0.0
  9
$LIMCHECK
 70
     0
  9
$CHAMFERA
 40
0.0
  9
$CHAMFERB
 40
0.0
  9
$CHAMFERC
 40
0.0
  9
$CHAMFERD
 40
0.0
  9
$SKPOLY
 70
     0
  9
$TDCREATE
 40
2459864.630068553
  9
$TDUPDATE
 40
2459864.630069016
  9
$TDINDWG
 40
0.0000000116
  9
$TDUSRTIMER
 40
0.0000000116
  9
$USRTIMER
 70
     1
  9
$ANGBASE
 50
0.0
  9
$ANGDIR
 70
     0
  9
$PDMODE
 70
     0
  9
$PDSIZE
 40
0.0
  9
$PLINEWID
 40
0.0
  9
$COORDS
 70
     1
  9
$SPLFRAME
 70
     0
  9
$SPLINETYPE
 70
     6
  9
$SPLINESEGS
 70
     8
  9
$ATTDIA
 70
     0
  9
$ATTREQ
 70
     1
  9
$HANDLING
 70
     1
  9
$HANDSEED
  5
293
  9
$SURFTAB1
 70
     6
  9
$SURFTAB2
 70
     6
  9
$SURFTYPE
 70
     6
  9
$SURFU
 70
     6
  9
$SURFV
 70
     6
  9
$UCSNAME
  2

  9
$UCSORG
 10
0.0
 20
0.0
 30
0.0
  9
$UCSXDIR
 10
1.0
 20
0.0
 30
0.0
  9
$UCSYDIR
 10
0.0
 20
1.0
 30
0.0
  9
$PUCSNAME
  2

  9
$PUCSORG
 10
0.0
 20
0.0
 30
0.0
  9
$PUCSXDIR
 10
1.0
 20
0.0
 30
0.0
  9
$PUCSYDIR
 10
0.0
 20
1.0
 30
0.0
  9
$USERI1
 70
     0
  9
$USERI2
 70
     0
  9
$USERI3
 70
     0
  9
$USERI4
 70
     0
  9
$USERI5
 70
     0
  9
$USERR1
 40
0.0
  9
$USERR2
 40
0.0
  9
$USERR3
 40
0.0
  9
$USERR4
 40
0.0
  9
$USERR5
 40
0.0
  9
$WORLDVIEW
 70
     1
  9
$SHADEDGE
 70
     3
  9
$SHADEDIF
 70
    70
  9
$TILEMODE
 70
     1
  9
$MAXACTVP
 70
    64
  9
$PINSBASE
 10
0.0
 20
0.0
 30
0.0
  9
$PLIMCHECK
 70
     0
  9
$PEXTMIN
 10
1.000000000000000E+20
 20
1.000000000000000E+20
 30
1.000000000000000E+20
  9
$PEXTMAX
 10
-1.000000000000000E+20
 20
-1.000000000000000E+20
 30
-1.000000000000000E+20
  9
$PLIMMIN
 10
0.0
 20
0.0
  9
$PLIMMAX
 10
12.0
 20
9.0
  9
$UNITMODE
 70
     0
  9
$VISRETAIN
 70
     1
  9
$PLINEGEN
 70
     0
  9
$PSLTSCALE
 70
     1
  9
$TREEDEPTH
 70
  3020
  9
$PICKSTYLE
 70
     1
  9
$CMLSTYLE
  2
STANDARD
  9
$CMLJUST
 70
     0
  9
$CMLSCALE
 40
1.0
  9
$PROXYGRAPHICS
 70
     1
  9
$MEASUREMENT
 70
     1
  0
ENDSEC
  0
SECTION
  2
CLASSES
  0
CLASS
  1
ACDBDICTIONARYWDFLT
  2
AcDbDictionaryWithDefault
  3
ObjectDBX Classes
 90
        0
280
     0
281
     0
  0
CLASS
  1
VISUALSTYLE
  2
AcDbVisualStyle
  3
ObjectDBX Classes
 90
     4095
280
     0
281
     0
  0
CLASS
  1
MATERIAL
  2
AcDbMaterial
  3
ObjectDBX Classes
 90
     1153
280
     0
281
     0
  0
CLASS
  1
SCALE
  2
AcDbScale
  3
ObjectDBX Classes
 90
     1153
280
     0
281
     0
  0
CLASS
  1
TABLESTYLE
  2
AcDbTableStyle
  3
ObjectDBX Classes
 90
     4095
280
     0
281
     0
  0
CLASS
  1
MLEADERSTYLE
  2
AcDbMLeaderStyle
  3
ACDB_MLEADERSTYLE_CLASS
 90
     4095
280
     0
281
     0
  0
CLASS
  1
SUN
  2
AcDbSun
  3
SCENEOE
 90
     1153
280
     0
281
     0
  0
CLASS
  1
DICTIONARYVAR
  2
AcDbDictionaryVar
  3
ObjectDBX Classes
 90
        0
280
     0
281
     0
  0
CLASS
  1
XRECORD
  2
AcDbXrecord
  3
ObjectDBX Classes
 90
        0
280
     0
281
     0
  0
CLASS
  1
LWPOLYLINE
  2
AcDbPolyline
  3
ObjectDBX Classes
 90
        0
280
     0
281
     1
  0
CLASS
  1
HATCH
  2
AcDbHatch
  3
ObjectDBX Classes
 90
        0
280
     0
281
     1
  0
CLASS
  1
ACDBPLACEHOLDER
  2
AcDbPlaceHolder
  3
ObjectDBX Classes
 90
        0
280
     0
281
     0
  0
CLASS
  1
LAYOUT
  2
AcDbLayout
  3
ObjectDBX Classes
 90
        0
280
     0
281
     0
  0
ENDSEC
  0
SECTION
  2
TABLES
  0
TABLE
  2
VPORT
  5
8
102
{ACAD_XDICTIONARY
360
288
102
}
330
0
100
AcDbSymbolTable
 70
     1
  0
VPORT
  5
29
330
8
100
AcDbSymbolTableRecord
100
AcDbViewportTableRecord
  2
*ACTIVE
 70
     0
 10
0.0
 20
0.0
 11
1.0
 21
1.0
 12
0.0
 22
0.0
 13
0.0
 23
0.0
 14
0.5
 24
0.5
 15
0.5
 25
0.5
 16
0.0
 26
0.0
 36
1.0
 17
0.0
 27
0.0
 37
-1000.0
 40
6360.697338986884
 41
1.777520278099653
 42
50.0
 43
4692.456801869664
 44
9077.464980062925
 50
0.0
 51
0.0
 71
     0
 72
   100
 73
     1
 74
     3
 75
     0
 76
     0
 77
     0
 78
     0
  0
ENDTAB
  0
TABLE
  2
LTYPE
  5
5
330
0
100
AcDbSymbolTable
 70
     1
  0
LTYPE
  5
14
330
5
100
AcDbSymbolTableRecord
100
AcDbLinetypeTableRecord
  2
BYBLOCK
 70
     0
  3

 72
    65
 73
     0
 40
0.0
  0
LTYPE
  5
15
330
5
100
AcDbSymbolTableRecord
100
AcDbLinetypeTableRecord
  2
BYLAYER
 70
     0
  3

 72
    65
 73
     0
 40
0.0
  0
LTYPE
  5
16
330
5
100
AcDbSymbolTableRecord
100
AcDbLinetypeTableRecord
  2
CONTINUOUS
 70
     0
  3
Solid line
 72
    65
 73
     0
 40
0.0
  0
ENDTAB
  0
TABLE
  2
LAYER
  5
2
330
0
100
AcDbSymbolTable
 70
     3
  0
LAYER
  5
10
330
2
100
AcDbSymbolTableRecord
100
AcDbLayerTableRecord
  2
0
 70
     0
 62
     7
  6
CONTINUOUS
  0
LAYER
  5
6E
330
2
100
AcDbSymbolTableRecord
100
AcDbLayerTableRecord
  2
PROFILEEDGES
 70
     0
 62
     7
  6
CONTINUOUS
  0
LAYER
  5
6F
330
2
100
AcDbSymbolTableRecord
100
AcDbLayerTableRecord
  2
SECTIONCUTEDGES
 70
     0
 62
     7
  6
CONTINUOUS
  0
ENDTAB
  0
TABLE
  2
STYLE
  5
3
330
0
100
AcDbSymbolTable
 70
     1
  0
STYLE
  5
11
330
3
100
AcDbSymbolTableRecord
100
AcDbTextStyleTableRecord
  2
STANDARD
 70
     0
 40
0.0
 41
1.0
 50
0.0
 71
     0
 42
0.2
  3
txt
  4

  0
ENDTAB
  0
TABLE
  2
VIEW
  5
6
330
0
100
AcDbSymbolTable
 70
     0
  0
ENDTAB
  0
TABLE
  2
UCS
  5
7
330
0
100
AcDbSymbolTable
 70
     0
  0
ENDTAB
  0
TABLE
  2
APPID
  5
9
330
0
100
AcDbSymbolTable
 70
     2
  0
APPID
  5
12
330
9
100
AcDbSymbolTableRecord
100
AcDbRegAppTableRecord
  2
ACAD
 70
     0
  0
APPID
  5
292
330
9
100
AcDbSymbolTableRecord
100
AcDbRegAppTableRecord
  2
ACAD_MLEADERVER
 70
     0
  0
ENDTAB
  0
TABLE
  2
DIMSTYLE
  5
A
330
0
100
AcDbSymbolTable
 70
     1
  0
DIMSTYLE
105
27
330
A
100
AcDbSymbolTableRecord
100
AcDbDimStyleTableRecord
  2
STANDARD
 70
     0
  3

  4

  5

  6

  7

 40
1.0
 41
0.18
 42
0.0625
 43
0.38
 44
0.18
 45
0.0
 46
0.0
 47
0.0
 48
0.0
140
0.18
141
0.09
142
0.0
143
25.4
144
1.0
145
0.0
146
1.0
147
0.09
 71
     0
 72
     0
 73
     1
 74
     1
 75
     0
 76
     0
 77
     0
 78
     0
170
     0
171
     2
172
     0
173
     0
174
     0
175
     0
176
     0
177
     0
178
     0
270
     2
271
     4
272
     4
273
     2
274
     2
340
11
275
     0
280
     0
281
     0
282
     0
283
     1
284
     0
285
     0
286
     0
287
     3
288
     0
  0
ENDTAB
  0
TABLE
  2
BLOCK_RECORD
  5
1
330
0
100
AcDbSymbolTable
 70
     1
  0
BLOCK_RECORD
  5
1F
330
1
100
AcDbSymbolTableRecord
100
AcDbBlockTableRecord
  2
*MODEL_SPACE
  0
BLOCK_RECORD
  5
1B
330
1
100
AcDbSymbolTableRecord
100
AcDbBlockTableRecord
  2
*PAPER_SPACE
  0
ENDTAB
  0
ENDSEC
  0
SECTION
  2
BLOCKS
  0
BLOCK
  5
20
330
1F
100
AcDbEntity
  8
0
100
AcDbBlockBegin
  2
*MODEL_SPACE
 70
     0
 10
0.0
 20
0.0
 30
0.0
  3
*MODEL_SPACE
  1

  0
ENDBLK
  5
21
330
1F
100
AcDbEntity
  8
0
100
AcDbBlockEnd
  0
BLOCK
  5
1C
330
1B
100
AcDbEntity
 67
     1
  8
0
100
AcDbBlockBegin
  2
*PAPER_SPACE
 70
     0
 10
0.0
 20
0.0
 30
0.0
  3
*PAPER_SPACE
  1

  0
ENDBLK
  5
1D
330
1B
100
AcDbEntity
 67
     1
  8
0
100
AcDbBlockEnd
  0
ENDSEC
  0
SECTION
  2
ENTITIES
  0
LINE
  5
70
330
1F
100
AcDbEntity
  8
0
100
AcDbLine
 10
-129.1303022586043
 20
-9.949036010812748
 30
0.0
 11
-131.6144660940506
 21
-8.920061659014177
 31
0.0
  0
LINE
  5
71
330
1F
100
AcDbEntity
  8
0
100
AcDbLine
 10
-131.6144660940506
 20
-8.920061659014177
 30
0.0
 11
-133.7476659402704
 21
-7.283199846255834
 31
0.0
  0
LINE
  5
72
330
1F
100
AcDbEntity
  8
0
100
AcDbLine
 10
-123.7986299294963
 20
-9.949036010812748
 30
0.0
 11
-126.4644660940503
 21
-10.30000000003484
 31
0.0
  0
LINE
  5
73
330
1F
100
AcDbEntity
  8
0
100
AcDbLine
 10
-121.31446609405
 20
-8.920061659014177
 30
0.0
 11
-123.7986299294963
 21
-9.949036010812748
 31
0.0
  0
LINE
  5
74
330
1F
100
AcDbEntity
  8
0
100
AcDbLine
 10
-126.4644660940503
 20
-10.30000000003484
 30
0.0
 11
-129.1303022586043
 21
-9.949036010812748
 31
0.0
  0
LINE
  5
75
330
1F
100
AcDbEntity
  8
0
100
AcDbLine
 10
-133.7476659402704
 20
-7.283199846255834
 30
0.0
 11
-135.3845277530287
 21
-5.150000000034563
 31
0.0
  0
LINE
  5
76
330
1F
100
AcDbEntity
  8
0
100
AcDbLine
 10
-136.4135021048273
 20
2.665836164521178
 30
0.0
 11
-135.3845277530287
 21
5.149999999965981
 31
0.0
  0
LINE
  5
77
330
1F
100
AcDbEntity
  8
0
100
AcDbLine
 10
-135.3845277530287
 20
-5.150000000034563
 30
0.0
 11
-136.4135021048273
 21
-2.66583616458976
 31
0.0
  0
LINE
  5
78
330
1F
100
AcDbEntity
  8
0
100
AcDbLine
 10
-136.4135021048273
 20
-2.66583616458976
 30
0.0
 11
-136.7644660940508
 21
-0.0000000000342908
 31
0.0
  0
LINE
  5
79
330
1F
100
AcDbEntity
  8
0
100
AcDbLine
 10
-136.7644660940508
 20
-0.0000000000342908
 30
0.0
 11
-136.4135021048273
 21
2.665836164521178
 31
0.0
  0
LINE
  5
7A
330
1F
100
AcDbEntity
  8
0
100
AcDbLine
 10
-131.6144660940506
 20
8.920061658945595
 30
0.0
 11
-129.1303022586043
 21
9.949036010744166
 31
0.0
  0
LINE
  5
7B
330
1F
100
AcDbEntity
  8
0
100
AcDbLine
 10
-116.5154300832733
 20
-2.66583616458976
 30
0.0
 11
-117.5444044350718
 21
-5.150000000034563
 31
0.0
  0
LINE
  5
7C
330
1F
100
AcDbEntity
  8
0
100
AcDbLine
 10
-116.1644660940497
 20
-0.0000000000342908
 30
0.0
 11
-116.5154300832733
 21
-2.66583616458976
 31
0.0
  0
LINE
  5
7D
330
1F
100
AcDbEntity
  8
0
100
AcDbLine
 10
-116.5154300832733
 20
2.665836164521178
 30
0.0
 11
-116.1644660940497
 21
-0.0000000000342908
 31
0.0
  0
LINE
  5
7E
330
1F
100
AcDbEntity
  8
0
100
AcDbLine
 10
-117.5444044350718
 20
5.149999999965981
 30
0.0
 11
-116.5154300832733
 21
2.665836164521178
 31
0.0
  0
LINE
  5
7F
330
1F
100
AcDbEntity
  8
0
100
AcDbLine
 10
-119.1812662478302
 20
7.283199846187252
 30
0.0
 11
-117.5444044350718
 21
5.149999999965981
 31
0.0
  0
LINE
  5
80
330
1F
100
AcDbEntity
  8
0
100
AcDbLine
 10
-121.31446609405
 20
8.920061658945595
 30
0.0
 11
-119.1812662478302
 21
7.283199846187252
 31
0.0
  0
LINE
  5
81
330
1F
100
AcDbEntity
  8
0
100
AcDbLine
 10
-123.7986299294963
 20
9.949036010744166
 30
0.0
 11
-121.31446609405
 21
8.920061658945595
 31
0.0
  0
LINE
  5
82
330
1F
100
AcDbEntity
  8
0
100
AcDbLine
 10
-126.4644660940503
 20
10.29999999996625
 30
0.0
 11
-123.7986299294963
 21
9.949036010744166
 31
0.0
  0
LINE
  5
83
330
1F
100
AcDbEntity
  8
0
100
AcDbLine
 10
-129.1303022586043
 20
9.949036010744166
 30
0.0
 11
-126.4644660940503
 21
10.29999999996625
 31
0.0
  0
LINE
  5
84
330
1F
100
AcDbEntity
  8
0
100
AcDbLine
 10
-389.1303022586029
 20
-9.949036010812748
 30
0.0
 11
-391.6144660940492
 21
-8.920061659014177
 31
0.0
  0
LINE
  5
85
330
1F
100
AcDbEntity
  8
0
100
AcDbLine
 10
-383.7986299294949
 20
-9.949036010812748
 30
0.0
 11
-386.4644660940489
 21
-10.30000000003484
 31
0.0
  0
LINE
  5
86
330
1F
100
AcDbEntity
  8
0
100
AcDbLine
 10
-381.3144660940486
 20
-8.920061659014177
 30
0.0
 11
-383.7986299294949
 21
-9.949036010812748
 31
0.0
  0
LINE
  5
87
330
1F
100
AcDbEntity
  8
0
100
AcDbLine
 10
-379.1812662478288
 20
-7.283199846255834
 30
0.0
 11
-381.3144660940486
 21
-8.920061659014177
 31
0.0
  0
LINE
  5
88
330
1F
100
AcDbEntity
  8
0
100
AcDbLine
 10
-386.4644660940489
 20
-10.30000000003484
 30
0.0
 11
-389.1303022586029
 21
-9.949036010812748
 31
0.0
  0
LINE
  5
89
330
1F
100
AcDbEntity
  8
0
100
AcDbLine
 10
-396.4135021048259
 20
2.665836164521178
 30
0.0
 11
-395.3845277530273
 21
5.149999999965981
 31
0.0
  0
LINE
  5
8A
330
1F
100
AcDbEntity
  8
0
100
AcDbLine
 10
-395.3845277530273
 20
-5.150000000034563
 30
0.0
 11
-396.4135021048259
 21
-2.66583616458976
 31
0.0
  0
LINE
  5
8B
330
1F
100
AcDbEntity
  8
0
100
AcDbLine
 10
-396.4135021048259
 20
-2.66583616458976
 30
0.0
 11
-396.7644660940495
 21
-0.0000000000342908
 31
0.0
  0
LINE
  5
8C
330
1F
100
AcDbEntity
  8
0
100
AcDbLine
 10
-396.7644660940495
 20
-0.0000000000342908
 30
0.0
 11
-396.4135021048259
 21
2.665836164521178
 31
0.0
  0
LINE
  5
8D
330
1F
100
AcDbEntity
  8
0
100
AcDbLine
 10
-395.3845277530273
 20
5.149999999965981
 30
0.0
 11
-393.747665940269
 21
7.283199846187252
 31
0.0
  0
LINE
  5
8E
330
1F
100
AcDbEntity
  8
0
100
AcDbLine
 10
-393.747665940269
 20
7.283199846187252
 30
0.0
 11
-391.6144660940492
 21
8.920061658945595
 31
0.0
  0
LINE
  5
8F
330
1F
100
AcDbEntity
  8
0
100
AcDbLine
 10
-391.6144660940492
 20
8.920061658945595
 30
0.0
 11
-389.1303022586029
 21
9.949036010744166
 31
0.0
  0
LINE
  5
90
330
1F
100
AcDbEntity
  8
0
100
AcDbLine
 10
-377.5444044350705
 20
-5.150000000034563
 30
0.0
 11
-379.1812662478288
 21
-7.283199846255834
 31
0.0
  0
LINE
  5
91
330
1F
100
AcDbEntity
  8
0
100
AcDbLine
 10
-376.5154300832719
 20
-2.66583616458976
 30
0.0
 11
-377.5444044350705
 21
-5.150000000034563
 31
0.0
  0
LINE
  5
92
330
1F
100
AcDbEntity
  8
0
100
AcDbLine
 10
-376.1644660940484
 20
-0.0000000000342908
 30
0.0
 11
-376.5154300832719
 21
-2.66583616458976
 31
0.0
  0
LINE
  5
93
330
1F
100
AcDbEntity
  8
0
100
AcDbLine
 10
-376.5154300832719
 20
2.665836164521178
 30
0.0
 11
-376.1644660940484
 21
-0.0000000000342908
 31
0.0
  0
LINE
  5
94
330
1F
100
AcDbEntity
  8
0
100
AcDbLine
 10
-377.5444044350705
 20
5.149999999965981
 30
0.0
 11
-376.5154300832719
 21
2.665836164521178
 31
0.0
  0
LINE
  5
95
330
1F
100
AcDbEntity
  8
0
100
AcDbLine
 10
-383.7986299294949
 20
9.949036010744166
 30
0.0
 11
-381.3144660940486
 21
8.920061658945595
 31
0.0
  0
LINE
  5
96
330
1F
100
AcDbEntity
  8
0
100
AcDbLine
 10
-386.4644660940489
 20
10.29999999996625
 30
0.0
 11
-383.7986299294949
 21
9.949036010744166
 31
0.0
  0
LINE
  5
97
330
1F
100
AcDbEntity
  8
0
100
AcDbLine
 10
-389.1303022586029
 20
9.949036010744166
 30
0.0
 11
-386.4644660940489
 21
10.29999999996625
 31
0.0
  0
LINE
  5
98
330
1F
100
AcDbEntity
  8
0
100
AcDbLine
 10
390.8696977413958
 20
-9.949036010812748
 30
0.0
 11
388.3855339059525
 21
-8.920061659014177
 31
0.0
  0
LINE
  5
99
330
1F
100
AcDbEntity
  8
0
100
AcDbLine
 10
388.3855339059525
 20
-8.920061659014177
 30
0.0
 11
386.2523340597298
 21
-7.283199846255834
 31
0.0
  0
LINE
  5
9A
330
1F
100
AcDbEntity
  8
0
100
AcDbLine
 10
396.2013700705097
 20
-9.949036010812748
 30
0.0
 11
393.5355339059527
 21
-10.30000000003484
 31
0.0
  0
LINE
  5
9B
330
1F
100
AcDbEntity
  8
0
100
AcDbLine
 10
398.685533905953
 20
-8.920061659014177
 30
0.0
 11
396.2013700705097
 21
-9.949036010812748
 31
0.0
  0
LINE
  5
9C
330
1F
100
AcDbEntity
  8
0
100
AcDbLine
 10
393.5355339059527
 20
-10.30000000003484
 30
0.0
 11
390.8696977413958
 21
-9.949036010812748
 31
0.0
  0
LINE
  5
9D
330
1F
100
AcDbEntity
  8
0
100
AcDbLine
 10
386.2523340597298
 20
-7.283199846255834
 30
0.0
 11
384.6154722469714
 21
-5.150000000034563
 31
0.0
  0
LINE
  5
9E
330
1F
100
AcDbEntity
  8
0
100
AcDbLine
 10
383.5864978951728
 20
2.665836164521178
 30
0.0
 11
384.6154722469714
 21
5.149999999965981
 31
0.0
  0
LINE
  5
9F
330
1F
100
AcDbEntity
  8
0
100
AcDbLine
 10
384.6154722469714
 20
-5.150000000034563
 30
0.0
 11
383.5864978951728
 21
-2.66583616458976
 31
0.0
  0
LINE
  5
A0
330
1F
100
AcDbEntity
  8
0
100
AcDbLine
 10
383.5864978951728
 20
-2.66583616458976
 30
0.0
 11
383.2355339059522
 21
-0.0000000000342908
 31
0.0
  0
LINE
  5
A1
330
1F
100
AcDbEntity
  8
0
100
AcDbLine
 10
383.2355339059522
 20
-0.0000000000342908
 30
0.0
 11
383.5864978951728
 21
2.665836164521178
 31
0.0
  0
LINE
  5
A2
330
1F
100
AcDbEntity
  8
0
100
AcDbLine
 10
388.3855339059525
 20
8.920061658945595
 30
0.0
 11
390.8696977413958
 21
9.949036010744166
 31
0.0
  0
LINE
  5
A3
330
1F
100
AcDbEntity
  8
0
100
AcDbLine
 10
403.4845699167327
 20
-2.66583616458976
 30
0.0
 11
402.4555955649341
 21
-5.150000000034563
 31
0.0
  0
LINE
  5
A4
330
1F
100
AcDbEntity
  8
0
100
AcDbLine
 10
403.8355339059533
 20
-0.0000000000342908
 30
0.0
 11
403.4845699167327
 21
-2.66583616458976
 31
0.0
  0
LINE
  5
A5
330
1F
100
AcDbEntity
  8
0
100
AcDbLine
 10
403.4845699167327
 20
2.665836164521178
 30
0.0
 11
403.8355339059533
 21
-0.0000000000342908
 31
0.0
  0
LINE
  5
A6
330
1F
100
AcDbEntity
  8
0
100
AcDbLine
 10
402.4555955649341
 20
5.149999999965981
 30
0.0
 11
403.4845699167327
 21
2.665836164521178
 31
0.0
  0
LINE
  5
A7
330
1F
100
AcDbEntity
  8
0
100
AcDbLine
 10
400.8187337521757
 20
7.283199846187252
 30
0.0
 11
402.4555955649341
 21
5.149999999965981
 31
0.0
  0
LINE
  5
A8
330
1F
100
AcDbEntity
  8
0
100
AcDbLine
 10
398.685533905953
 20
8.920061658945595
 30
0.0
 11
400.8187337521757
 21
7.283199846187252
 31
0.0
  0
LINE
  5
A9
330
1F
100
AcDbEntity
  8
0
100
AcDbLine
 10
396.2013700705097
 20
9.949036010744166
 30
0.0
 11
398.685533905953
 21
8.920061658945595
 31
0.0
  0
LINE
  5
AA
330
1F
100
AcDbEntity
  8
0
100
AcDbLine
 10
393.5355339059527
 20
10.29999999996625
 30
0.0
 11
396.2013700705097
 21
9.949036010744166
 31
0.0
  0
LINE
  5
AB
330
1F
100
AcDbEntity
  8
0
100
AcDbLine
 10
390.8696977413958
 20
9.949036010744166
 30
0.0
 11
393.5355339059527
 21
10.29999999996625
 31
0.0
  0
LINE
  5
AC
330
1F
100
AcDbEntity
  8
0
100
AcDbLine
 10
130.8696977413972
 20
-9.949036010812748
 30
0.0
 11
128.3855339059538
 21
-8.920061659014177
 31
0.0
  0
LINE
  5
AD
330
1F
100
AcDbEntity
  8
0
100
AcDbLine
 10
136.201370070511
 20
-9.949036010812748
 30
0.0
 11
133.5355339059541
 21
-10.30000000003484
 31
0.0
  0
LINE
  5
AE
330
1F
100
AcDbEntity
  8
0
100
AcDbLine
 10
138.6855339059544
 20
-8.920061659014177
 30
0.0
 11
136.201370070511
 21
-9.949036010812748
 31
0.0
  0
LINE
  5
AF
330
1F
100
AcDbEntity
  8
0
100
AcDbLine
 10
140.8187337521771
 20
-7.283199846255834
 30
0.0
 11
138.6855339059544
 21
-8.920061659014177
 31
0.0
  0
LINE
  5
B0
330
1F
100
AcDbEntity
  8
0
100
AcDbLine
 10
133.5355339059541
 20
-10.30000000003484
 30
0.0
 11
130.8696977413972
 21
-9.949036010812748
 31
0.0
  0
LINE
  5
B1
330
1F
100
AcDbEntity
  8
0
100
AcDbLine
 10
123.5864978951742
 20
2.665836164521178
 30
0.0
 11
124.6154722469728
 21
5.149999999965981
 31
0.0
  0
LINE
  5
B2
330
1F
100
AcDbEntity
  8
0
100
AcDbLine
 10
124.6154722469728
 20
-5.150000000034563
 30
0.0
 11
123.5864978951742
 21
-2.66583616458976
 31
0.0
  0
LINE
  5
B3
330
1F
100
AcDbEntity
  8
0
100
AcDbLine
 10
123.5864978951742
 20
-2.66583616458976
 30
0.0
 11
123.2355339059536
 21
-0.0000000000342908
 31
0.0
  0
LINE
  5
B4
330
1F
100
AcDbEntity
  8
0
100
AcDbLine
 10
123.2355339059536
 20
-0.0000000000342908
 30
0.0
 11
123.5864978951742
 21
2.665836164521178
 31
0.0
  0
LINE
  5
B5
330
1F
100
AcDbEntity
  8
0
100
AcDbLine
 10
124.6154722469728
 20
5.149999999965981
 30
0.0
 11
126.2523340597311
 21
7.283199846187252
 31
0.0
  0
LINE
  5
B6
330
1F
100
AcDbEntity
  8
0
100
AcDbLine
 10
126.2523340597311
 20
7.283199846187252
 30
0.0
 11
128.3855339059538
 21
8.920061658945595
 31
0.0
  0
LINE
  5
B7
330
1F
100
AcDbEntity
  8
0
100
AcDbLine
 10
128.3855339059538
 20
8.920061658945595
 30
0.0
 11
130.8696977413972
 21
9.949036010744166
 31
0.0
  0
LINE
  5
B8
330
1F
100
AcDbEntity
  8
0
100
AcDbLine
 10
142.4555955649355
 20
-5.150000000034563
 30
0.0
 11
140.8187337521771
 21
-7.283199846255834
 31
0.0
  0
LINE
  5
B9
330
1F
100
AcDbEntity
  8
0
100
AcDbLine
 10
143.484569916734
 20
-2.66583616458976
 30
0.0
 11
142.4555955649355
 21
-5.150000000034563
 31
0.0
  0
LINE
  5
BA
330
1F
100
AcDbEntity
  8
0
100
AcDbLine
 10
143.8355339059547
 20
-0.0000000000342908
 30
0.0
 11
143.484569916734
 21
-2.66583616458976
 31
0.0
  0
LINE
  5
BB
330
1F
100
AcDbEntity
  8
0
100
AcDbLine
 10
143.484569916734
 20
2.665836164521178
 30
0.0
 11
143.8355339059547
 21
-0.0000000000342908
 31
0.0
  0
LINE
  5
BC
330
1F
100
AcDbEntity
  8
0
100
AcDbLine
 10
142.4555955649355
 20
5.149999999965981
 30
0.0
 11
143.484569916734
 21
2.665836164521178
 31
0.0
  0
LINE
  5
BD
330
1F
100
AcDbEntity
  8
0
100
AcDbLine
 10
136.201370070511
 20
9.949036010744166
 30
0.0
 11
138.6855339059544
 21
8.920061658945595
 31
0.0
  0
LINE
  5
BE
330
1F
100
AcDbEntity
  8
0
100
AcDbLine
 10
133.5355339059541
 20
10.29999999996625
 30
0.0
 11
136.201370070511
 21
9.949036010744166
 31
0.0
  0
LINE
  5
BF
330
1F
100
AcDbEntity
  8
0
100
AcDbLine
 10
130.8696977413972
 20
9.949036010744166
 30
0.0
 11
133.5355339059541
 21
10.29999999996625
 31
0.0
  0
LINE
  5
C0
330
1F
100
AcDbEntity
  8
0
100
AcDbLine
 10
395.4766767442164
 20
7.244443697134894
 30
0.0
 11
393.535533905947
 21
7.499999999966891
 31
0.0
  0
LINE
  5
C1
330
1F
100
AcDbEntity
  8
0
100
AcDbLine
 10
393.535533905947
 20
-7.500000000035473
 30
0.0
 11
395.4766767442164
 21
-7.244443697203476
 31
0.0
  0
LINE
  5
C2
330
1F
100
AcDbEntity
  8
0
100
AcDbLine
 10
400.7799776031162
 20
-1.941142838303747
 30
0.0
 11
401.0355339059482
 21
-0.0000000000342908
 31
0.0
  0
LINE
  5
C3
330
1F
100
AcDbEntity
  8
0
100
AcDbLine
 10
400.0307244343304
 20
3.7499999999663
 30
0.0
 11
398.8388347648467
 21
5.303300858865438
 31
0.0
  0
LINE
  5
C4
330
1F
100
AcDbEntity
  8
0
100
AcDbLine
 10
387.0403433775635
 20
3.7499999999663
 30
0.0
 11
386.2910902087778
 21
1.941142838235166
 31
0.0
  0
LINE
  5
C5
330
1F
100
AcDbEntity
  8
0
100
AcDbLine
 10
398.8388347648467
 20
-5.303300858934019
 30
0.0
 11
400.0307244343304
 21
-3.750000000034882
 31
0.0
  0
LINE
  5
C6
330
1F
100
AcDbEntity
  8
0
100
AcDbLine
 10
400.7799776031162
 20
1.941142838235166
 30
0.0
 11
400.0307244343304
 21
3.7499999999663
 31
0.0
  0
LINE
  5
C7
330
1F
100
AcDbEntity
  8
0
100
AcDbLine
 10
386.2910902087778
 20
1.941142838235166
 30
0.0
 11
386.0355339059458
 21
-0.0000000000342908
 31
0.0
  0
LINE
  5
C8
330
1F
100
AcDbEntity
  8
0
100
AcDbLine
 10
388.2322330470473
 20
-5.303300858934019
 30
0.0
 11
389.7855339059464
 21
-6.495190528419189
 31
0.0
  0
LINE
  5
C9
330
1F
100
AcDbEntity
  8
0
100
AcDbLine
 10
389.7855339059464
 20
6.495190528350608
 30
0.0
 11
388.2322330470473
 21
5.303300858865438
 31
0.0
  0
LINE
  5
CA
330
1F
100
AcDbEntity
  8
0
100
AcDbLine
 10
391.5943910676775
 20
-7.244443697203476
 30
0.0
 11
393.535533905947
 21
-7.500000000035473
 31
0.0
  0
LINE
  5
CB
330
1F
100
AcDbEntity
  8
0
100
AcDbLine
 10
397.2855339059475
 20
-6.495190528419189
 30
0.0
 11
398.8388347648467
 21
-5.303300858934019
 31
0.0
  0
LINE
  5
CC
330
1F
100
AcDbEntity
  8
0
100
AcDbLine
 10
393.535533905947
 20
7.499999999966891
 30
0.0
 11
391.5943910676775
 21
7.244443697134894
 31
0.0
  0
LINE
  5
CD
330
1F
100
AcDbEntity
  8
0
100
AcDbLine
 10
391.5943910676775
 20
7.244443697134894
 30
0.0
 11
389.7855339059464
 21
6.495190528350608
 31
0.0
  0
LINE
  5
CE
330
1F
100
AcDbEntity
  8
0
100
AcDbLine
 10
388.2322330470473
 20
5.303300858865438
 30
0.0
 11
387.0403433775635
 21
3.7499999999663
 31
0.0
  0
LINE
  5
CF
330
1F
100
AcDbEntity
  8
0
100
AcDbLine
 10
386.0355339059458
 20
-0.0000000000342908
 30
0.0
 11
386.2910902087778
 21
-1.941142838303747
 31
0.0
  0
LINE
  5
D0
330
1F
100
AcDbEntity
  8
0
100
AcDbLine
 10
386.2910902087778
 20
-1.941142838303747
 30
0.0
 11
387.0403433775635
 21
-3.750000000034882
 31
0.0
  0
LINE
  5
D1
330
1F
100
AcDbEntity
  8
0
100
AcDbLine
 10
387.0403433775635
 20
-3.750000000034882
 30
0.0
 11
388.2322330470473
 21
-5.303300858934019
 31
0.0
  0
LINE
  5
D2
330
1F
100
AcDbEntity
  8
0
100
AcDbLine
 10
389.7855339059464
 20
-6.495190528419189
 30
0.0
 11
391.5943910676775
 21
-7.244443697203476
 31
0.0
  0
LINE
  5
D3
330
1F
100
AcDbEntity
  8
0
100
AcDbLine
 10
395.4766767442164
 20
-7.244443697203476
 30
0.0
 11
397.2855339059475
 21
-6.495190528419189
 31
0.0
  0
LINE
  5
D4
330
1F
100
AcDbEntity
  8
0
100
AcDbLine
 10
400.0307244343304
 20
-3.750000000034882
 30
0.0
 11
400.7799776031162
 21
-1.941142838303747
 31
0.0
  0
LINE
  5
D5
330
1F
100
AcDbEntity
  8
0
100
AcDbLine
 10
401.0355339059482
 20
-0.0000000000342908
 30
0.0
 11
400.7799776031162
 21
1.941142838235166
 31
0.0
  0
LINE
  5
D6
330
1F
100
AcDbEntity
  8
0
100
AcDbLine
 10
398.8388347648467
 20
5.303300858865438
 30
0.0
 11
397.2855339059475
 21
6.495190528350608
 31
0.0
  0
LINE
  5
D7
330
1F
100
AcDbEntity
  8
0
100
AcDbLine
 10
397.2855339059475
 20
6.495190528350608
 30
0.0
 11
395.4766767442164
 21
7.244443697134894
 31
0.0
  0
LINE
  5
D8
330
1F
100
AcDbEntity
  8
0
100
AcDbLine
 10
-384.5233232557794
 20
7.244443697134894
 30
0.0
 11
-386.4644660940489
 21
7.499999999966891
 31
0.0
  0
LINE
  5
D9
330
1F
100
AcDbEntity
  8
0
100
AcDbLine
 10
-386.4644660940489
 20
-7.500000000035473
 30
0.0
 11
-384.5233232557794
 21
-7.244443697203476
 31
0.0
  0
LINE
  5
DA
330
1F
100
AcDbEntity
  8
0
100
AcDbLine
 10
-379.2200223968797
 20
-1.941142838303747
 30
0.0
 11
-378.9644660940477
 21
-0.0000000000342908
 31
0.0
  0
LINE
  5
DB
330
1F
100
AcDbEntity
  8
0
100
AcDbLine
 10
-379.9692755656654
 20
3.7499999999663
 30
0.0
 11
-381.1611652351492
 21
5.303300858865438
 31
0.0
  0
LINE
  5
DC
330
1F
100
AcDbEntity
  8
0
100
AcDbLine
 10
-392.9596566224324
 20
3.7499999999663
 30
0.0
 11
-393.7089097912181
 21
1.941142838235166
 31
0.0
  0
LINE
  5
DD
330
1F
100
AcDbEntity
  8
0
100
AcDbLine
 10
-381.1611652351492
 20
-5.303300858934019
 30
0.0
 11
-379.9692755656654
 21
-3.750000000034882
 31
0.0
  0
LINE
  5
DE
330
1F
100
AcDbEntity
  8
0
100
AcDbLine
 10
-379.2200223968797
 20
1.941142838235166
 30
0.0
 11
-379.9692755656654
 21
3.7499999999663
 31
0.0
  0
LINE
  5
DF
330
1F
100
AcDbEntity
  8
0
100
AcDbLine
 10
-393.7089097912181
 20
1.941142838235166
 30
0.0
 11
-393.9644660940501
 21
-0.0000000000342908
 31
0.0
  0
LINE
  5
E0
330
1F
100
AcDbEntity
  8
0
100
AcDbLine
 10
-391.7677669529486
 20
-5.303300858934019
 30
0.0
 11
-390.2144660940495
 21
-6.495190528419189
 31
0.0
  0
LINE
  5
E1
330
1F
100
AcDbEntity
  8
0
100
AcDbLine
 10
-390.2144660940495
 20
6.495190528350608
 30
0.0
 11
-391.7677669529486
 21
5.303300858865438
 31
0.0
  0
LINE
  5
E2
330
1F
100
AcDbEntity
  8
0
100
AcDbLine
 10
-388.4056089323183
 20
-7.244443697203476
 30
0.0
 11
-386.4644660940489
 21
-7.500000000035473
 31
0.0
  0
LINE
  5
E3
330
1F
100
AcDbEntity
  8
0
100
AcDbLine
 10
-382.7144660940483
 20
-6.495190528419189
 30
0.0
 11
-381.1611652351492
 21
-5.303300858934019
 31
0.0
  0
LINE
  5
E4
330
1F
100
AcDbEntity
  8
0
100
AcDbLine
 10
-386.4644660940489
 20
7.499999999966891
 30
0.0
 11
-388.4056089323183
 21
7.244443697134894
 31
0.0
  0
LINE
  5
E5
330
1F
100
AcDbEntity
  8
0
100
AcDbLine
 10
-388.4056089323183
 20
7.244443697134894
 30
0.0
 11
-390.2144660940495
 21
6.495190528350608
 31
0.0
  0
LINE
  5
E6
330
1F
100
AcDbEntity
  8
0
100
AcDbLine
 10
-391.7677669529486
 20
5.303300858865438
 30
0.0
 11
-392.9596566224324
 21
3.7499999999663
 31
0.0
  0
LINE
  5
E7
330
1F
100
AcDbEntity
  8
0
100
AcDbLine
 10
-393.9644660940501
 20
-0.0000000000342908
 30
0.0
 11
-393.7089097912181
 21
-1.941142838303747
 31
0.0
  0
LINE
  5
E8
330
1F
100
AcDbEntity
  8
0
100
AcDbLine
 10
-393.7089097912181
 20
-1.941142838303747
 30
0.0
 11
-392.9596566224324
 21
-3.750000000034882
 31
0.0
  0
LINE
  5
E9
330
1F
100
AcDbEntity
  8
0
100
AcDbLine
 10
-392.9596566224324
 20
-3.750000000034882
 30
0.0
 11
-391.7677669529486
 21
-5.303300858934019
 31
0.0
  0
LINE
  5
EA
330
1F
100
AcDbEntity
  8
0
100
AcDbLine
 10
-390.2144660940495
 20
-6.495190528419189
 30
0.0
 11
-388.4056089323183
 21
-7.244443697203476
 31
0.0
  0
LINE
  5
EB
330
1F
100
AcDbEntity
  8
0
100
AcDbLine
 10
-384.5233232557794
 20
-7.244443697203476
 30
0.0
 11
-382.7144660940483
 21
-6.495190528419189
 31
0.0
  0
LINE
  5
EC
330
1F
100
AcDbEntity
  8
0
100
AcDbLine
 10
-379.9692755656654
 20
-3.750000000034882
 30
0.0
 11
-379.2200223968797
 21
-1.941142838303747
 31
0.0
  0
LINE
  5
ED
330
1F
100
AcDbEntity
  8
0
100
AcDbLine
 10
-378.9644660940477
 20
-0.0000000000342908
 30
0.0
 11
-379.2200223968797
 21
1.941142838235166
 31
0.0
  0
LINE
  5
EE
330
1F
100
AcDbEntity
  8
0
100
AcDbLine
 10
-381.1611652351492
 20
5.303300858865438
 30
0.0
 11
-382.7144660940483
 21
6.495190528350608
 31
0.0
  0
LINE
  5
EF
330
1F
100
AcDbEntity
  8
0
100
AcDbLine
 10
-382.7144660940483
 20
6.495190528350608
 30
0.0
 11
-384.5233232557794
 21
7.244443697134894
 31
0.0
  0
LINE
  5
F0
330
1F
100
AcDbEntity
  8
0
100
AcDbLine
 10
135.4766767442178
 20
7.244443697134894
 30
0.0
 11
133.5355339059483
 21
7.499999999966891
 31
0.0
  0
LINE
  5
F1
330
1F
100
AcDbEntity
  8
0
100
AcDbLine
 10
133.5355339059483
 20
-7.500000000035473
 30
0.0
 11
135.4766767442178
 21
-7.244443697203476
 31
0.0
  0
LINE
  5
F2
330
1F
100
AcDbEntity
  8
0
100
AcDbLine
 10
140.7799776031175
 20
-1.941142838303747
 30
0.0
 11
141.0355339059495
 21
-0.0000000000342908
 31
0.0
  0
LINE
  5
F3
330
1F
100
AcDbEntity
  8
0
100
AcDbLine
 10
140.0307244343318
 20
3.7499999999663
 30
0.0
 11
138.8388347648481
 21
5.303300858865438
 31
0.0
  0
LINE
  5
F4
330
1F
100
AcDbEntity
  8
0
100
AcDbLine
 10
127.0403433775649
 20
3.7499999999663
 30
0.0
 11
126.2910902087792
 21
1.941142838235166
 31
0.0
  0
LINE
  5
F5
330
1F
100
AcDbEntity
  8
0
100
AcDbLine
 10
138.8388347648481
 20
-5.303300858934019
 30
0.0
 11
140.0307244343318
 21
-3.750000000034882
 31
0.0
  0
LINE
  5
F6
330
1F
100
AcDbEntity
  8
0
100
AcDbLine
 10
140.7799776031175
 20
1.941142838235166
 30
0.0
 11
140.0307244343318
 21
3.7499999999663
 31
0.0
  0
LINE
  5
F7
330
1F
100
AcDbEntity
  8
0
100
AcDbLine
 10
126.2910902087792
 20
1.941142838235166
 30
0.0
 11
126.0355339059472
 21
-0.0000000000342908
 31
0.0
  0
LINE
  5
F8
330
1F
100
AcDbEntity
  8
0
100
AcDbLine
 10
128.2322330470486
 20
-5.303300858934019
 30
0.0
 11
129.7855339059477
 21
-6.495190528419189
 31
0.0
  0
LINE
  5
F9
330
1F
100
AcDbEntity
  8
0
100
AcDbLine
 10
129.7855339059477
 20
6.495190528350608
 30
0.0
 11
128.2322330470486
 21
5.303300858865438
 31
0.0
  0
LINE
  5
FA
330
1F
100
AcDbEntity
  8
0
100
AcDbLine
 10
131.5943910676789
 20
-7.244443697203476
 30
0.0
 11
133.5355339059483
 21
-7.500000000035473
 31
0.0
  0
LINE
  5
FB
330
1F
100
AcDbEntity
  8
0
100
AcDbLine
 10
137.2855339059489
 20
-6.495190528419189
 30
0.0
 11
138.8388347648481
 21
-5.303300858934019
 31
0.0
  0
LINE
  5
FC
330
1F
100
AcDbEntity
  8
0
100
AcDbLine
 10
133.5355339059483
 20
7.499999999966891
 30
0.0
 11
131.5943910676789
 21
7.244443697134894
 31
0.0
  0
LINE
  5
FD
330
1F
100
AcDbEntity
  8
0
100
AcDbLine
 10
131.5943910676789
 20
7.244443697134894
 30
0.0
 11
129.7855339059477
 21
6.495190528350608
 31
0.0
  0
LINE
  5
FE
330
1F
100
AcDbEntity
  8
0
100
AcDbLine
 10
128.2322330470486
 20
5.303300858865438
 30
0.0
 11
127.0403433775649
 21
3.7499999999663
 31
0.0
  0
LINE
  5
FF
330
1F
100
AcDbEntity
  8
0
100
AcDbLine
 10
126.0355339059472
 20
-0.0000000000342908
 30
0.0
 11
126.2910902087792
 21
-1.941142838303747
 31
0.0
  0
LINE
  5
100
330
1F
100
AcDbEntity
  8
0
100
AcDbLine
 10
126.2910902087792
 20
-1.941142838303747
 30
0.0
 11
127.0403433775649
 21
-3.750000000034882
 31
0.0
  0
LINE
  5
101
330
1F
100
AcDbEntity
  8
0
100
AcDbLine
 10
127.0403433775649
 20
-3.750000000034882
 30
0.0
 11
128.2322330470486
 21
-5.303300858934019
 31
0.0
  0
LINE
  5
102
330
1F
100
AcDbEntity
  8
0
100
AcDbLine
 10
129.7855339059477
 20
-6.495190528419189
 30
0.0
 11
131.5943910676789
 21
-7.244443697203476
 31
0.0
  0
LINE
  5
103
330
1F
100
AcDbEntity
  8
0
100
AcDbLine
 10
135.4766767442178
 20
-7.244443697203476
 30
0.0
 11
137.2855339059489
 21
-6.495190528419189
 31
0.0
  0
LINE
  5
104
330
1F
100
AcDbEntity
  8
0
100
AcDbLine
 10
140.0307244343318
 20
-3.750000000034882
 30
0.0
 11
140.7799776031175
 21
-1.941142838303747
 31
0.0
  0
LINE
  5
105
330
1F
100
AcDbEntity
  8
0
100
AcDbLine
 10
141.0355339059495
 20
-0.0000000000342908
 30
0.0
 11
140.7799776031175
 21
1.941142838235166
 31
0.0
  0
LINE
  5
106
330
1F
100
AcDbEntity
  8
0
100
AcDbLine
 10
138.8388347648481
 20
5.303300858865438
 30
0.0
 11
137.2855339059489
 21
6.495190528350608
 31
0.0
  0
LINE
  5
107
330
1F
100
AcDbEntity
  8
0
100
AcDbLine
 10
137.2855339059489
 20
6.495190528350608
 30
0.0
 11
135.4766767442178
 21
7.244443697134894
 31
0.0
  0
LINE
  5
108
330
1F
100
AcDbEntity
  8
0
100
AcDbLine
 10
-124.5233232557808
 20
7.244443697134894
 30
0.0
 11
-126.4644660940503
 21
7.499999999966891
 31
0.0
  0
LINE
  5
109
330
1F
100
AcDbEntity
  8
0
100
AcDbLine
 10
-126.4644660940503
 20
-7.500000000035473
 30
0.0
 11
-124.5233232557808
 21
-7.244443697203476
 31
0.0
  0
LINE
  5
10A
330
1F
100
AcDbEntity
  8
0
100
AcDbLine
 10
-119.2200223968811
 20
-1.941142838303747
 30
0.0
 11
-118.9644660940491
 21
-0.0000000000342908
 31
0.0
  0
LINE
  5
10B
330
1F
100
AcDbEntity
  8
0
100
AcDbLine
 10
-119.9692755656668
 20
3.7499999999663
 30
0.0
 11
-121.1611652351505
 21
5.303300858865438
 31
0.0
  0
LINE
  5
10C
330
1F
100
AcDbEntity
  8
0
100
AcDbLine
 10
-132.9596566224337
 20
3.7499999999663
 30
0.0
 11
-133.7089097912195
 21
1.941142838235166
 31
0.0
  0
LINE
  5
10D
330
1F
100
AcDbEntity
  8
0
100
AcDbLine
 10
-121.1611652351505
 20
-5.303300858934019
 30
0.0
 11
-119.9692755656668
 21
-3.750000000034882
 31
0.0
  0
LINE
  5
10E
330
1F
100
AcDbEntity
  8
0
100
AcDbLine
 10
-119.2200223968811
 20
1.941142838235166
 30
0.0
 11
-119.9692755656668
 21
3.7499999999663
 31
0.0
  0
LINE
  5
10F
330
1F
100
AcDbEntity
  8
0
100
AcDbLine
 10
-133.7089097912195
 20
1.941142838235166
 30
0.0
 11
-133.9644660940515
 21
-0.0000000000342908
 31
0.0
  0
LINE
  5
110
330
1F
100
AcDbEntity
  8
0
100
AcDbLine
 10
-131.76776695295
 20
-5.303300858934019
 30
0.0
 11
-130.2144660940509
 21
-6.495190528419189
 31
0.0
  0
LINE
  5
111
330
1F
100
AcDbEntity
  8
0
100
AcDbLine
 10
-130.2144660940509
 20
6.495190528350608
 30
0.0
 11
-131.76776695295
 21
5.303300858865438
 31
0.0
  0
LINE
  5
112
330
1F
100
AcDbEntity
  8
0
100
AcDbLine
 10
-128.4056089323197
 20
-7.244443697203476
 30
0.0
 11
-126.4644660940503
 21
-7.500000000035473
 31
0.0
  0
LINE
  5
113
330
1F
100
AcDbEntity
  8
0
100
AcDbLine
 10
-122.7144660940497
 20
-6.495190528419189
 30
0.0
 11
-121.1611652351505
 21
-5.303300858934019
 31
0.0
  0
LINE
  5
114
330
1F
100
AcDbEntity
  8
0
100
AcDbLine
 10
-126.4644660940503
 20
7.499999999966891
 30
0.0
 11
-128.4056089323197
 21
7.244443697134894
 31
0.0
  0
LINE
  5
115
330
1F
100
AcDbEntity
  8
0
100
AcDbLine
 10
-128.4056089323197
 20
7.244443697134894
 30
0.0
 11
-130.2144660940509
 21
6.495190528350608
 31
0.0
  0
LINE
  5
116
330
1F
100
AcDbEntity
  8
0
100
AcDbLine
 10
-131.76776695295
 20
5.303300858865438
 30
0.0
 11
-132.9596566224337
 21
3.7499999999663
 31
0.0
  0
LINE
  5
117
330
1F
100
AcDbEntity
  8
0
100
AcDbLine
 10
-133.9644660940515
 20
-0.0000000000342908
 30
0.0
 11
-133.7089097912195
 21
-1.941142838303747
 31
0.0
  0
LINE
  5
118
330
1F
100
AcDbEntity
  8
0
100
AcDbLine
 10
-133.7089097912195
 20
-1.941142838303747
 30
0.0
 11
-132.9596566224337
 21
-3.750000000034882
 31
0.0
  0
LINE
  5
119
330
1F
100
AcDbEntity
  8
0
100
AcDbLine
 10
-132.9596566224337
 20
-3.750000000034882
 30
0.0
 11
-131.76776695295
 21
-5.303300858934019
 31
0.0
  0
LINE
  5
11A
330
1F
100
AcDbEntity
  8
0
100
AcDbLine
 10
-130.2144660940509
 20
-6.495190528419189
 30
0.0
 11
-128.4056089323197
 21
-7.244443697203476
 31
0.0
  0
LINE
  5
11B
330
1F
100
AcDbEntity
  8
0
100
AcDbLine
 10
-124.5233232557808
 20
-7.244443697203476
 30
0.0
 11
-122.7144660940497
 21
-6.495190528419189
 31
0.0
  0
LINE
  5
11C
330
1F
100
AcDbEntity
  8
0
100
AcDbLine
 10
-119.9692755656668
 20
-3.750000000034882
 30
0.0
 11
-119.2200223968811
 21
-1.941142838303747
 31
0.0
  0
LINE
  5
11D
330
1F
100
AcDbEntity
  8
0
100
AcDbLine
 10
-118.9644660940491
 20
-0.0000000000342908
 30
0.0
 11
-119.2200223968811
 21
1.941142838235166
 31
0.0
  0
LINE
  5
11E
330
1F
100
AcDbEntity
  8
0
100
AcDbLine
 10
-121.1611652351505
 20
5.303300858865438
 30
0.0
 11
-122.7144660940497
 21
6.495190528350608
 31
0.0
  0
LINE
  5
11F
330
1F
100
AcDbEntity
  8
0
100
AcDbLine
 10
-122.7144660940497
 20
6.495190528350608
 30
0.0
 11
-124.5233232557808
 21
7.244443697134894
 31
0.0
  0
LINE
  5
120
330
1F
100
AcDbEntity
  8
0
100
AcDbLine
 10
17.6776695296934
 20
129.999999999999
 30
0.0
 11
3.535533905962096
 21
115.8578643762671
 31
0.0
  0
LINE
  5
121
330
1F
100
AcDbEntity
  8
0
100
AcDbLine
 10
263.5355339059355
 20
-115.8578643762588
 30
0.0
 11
249.3933982822056
 21
-129.9999999999884
 31
0.0
  0
LINE
  5
122
330
1F
100
AcDbEntity
  8
0
100
AcDbLine
 10
17.6776695296934
 20
129.999999999999
 30
0.0
 11
138.9952989455628
 21
8.682370584121793
 31
0.0
  0
LINE
  5
123
330
1F
100
AcDbEntity
  8
0
100
AcDbLine
 10
142.2179044901164
 20
5.459765039568065
 30
0.0
 11
263.5355339059355
 21
-115.8578643762588
 31
0.0
  0
LINE
  5
124
330
1F
100
AcDbEntity
  8
0
100
AcDbLine
 10
3.535533905962096
 20
115.8578643762671
 30
0.0
 11
124.8531633215673
 21
-5.459765039344025
 31
0.0
  0
LINE
  5
125
330
1F
100
AcDbEntity
  8
0
100
AcDbLine
 10
128.0757688666382
 20
-8.682370584415002
 30
0.0
 11
249.3933982822056
 21
-129.9999999999884
 31
0.0
  0
LINE
  5
126
330
1F
100
AcDbEntity
  8
0
100
AcDbLine
 10
-242.3223304703016
 20
-130.000000000015
 30
0.0
 11
-256.464466094034
 21
-115.8578643762831
 31
0.0
  0
LINE
  5
127
330
1F
100
AcDbEntity
  8
0
100
AcDbLine
 10
-121.004701054551
 20
-8.68237058427405
 30
0.0
 11
-242.3223304703016
 21
-130.000000000015
 31
0.0
  0
LINE
  5
128
330
1F
100
AcDbEntity
  8
0
100
AcDbLine
 10
3.535533905984566
 20
144.1421356237145
 30
0.0
 11
-131.9242311334888
 21
8.682370584252054
 31
0.0
  0
LINE
  5
129
330
1F
100
AcDbEntity
  8
0
100
AcDbLine
 10
-135.1468366783302
 20
5.459765039410869
 30
0.0
 11
-256.464466094034
 21
-115.8578643762831
 31
0.0
  0
LINE
  5
12A
330
1F
100
AcDbEntity
  8
0
100
AcDbLine
 10
0.0000000000624453
 20
133.535533905913
 30
0.0
 11
1.035533905995106
 21
134.3301270189029
 31
0.0
  0
LINE
  5
12B
330
1F
100
AcDbEntity
  8
0
100
AcDbLine
 10
1.035533905995106
 20
134.3301270189029
 30
0.0
 11
2.241438680483085
 21
134.8296291314263
 31
0.0
  0
LINE
  5
12C
330
1F
100
AcDbEntity
  8
0
100
AcDbLine
 10
2.241438680483085
 20
134.8296291314263
 30
0.0
 11
3.535533905995146
 21
134.9999999999809
 31
0.0
  0
LINE
  5
12D
330
1F
100
AcDbEntity
  8
0
100
AcDbLine
 10
3.535533905995146
 20
134.9999999999809
 30
0.0
 11
4.82962913150811
 21
134.8296291314259
 31
0.0
  0
LINE
  5
12E
330
1F
100
AcDbEntity
  8
0
100
AcDbLine
 10
4.82962913150811
 20
134.8296291314259
 30
0.0
 11
6.035533905995695
 21
134.3301270189029
 31
0.0
  0
LINE
  5
12F
330
1F
100
AcDbEntity
  8
0
100
AcDbLine
 10
6.035533905995695
 20
134.3301270189029
 30
0.0
 11
7.071067811927972
 21
133.5355339059134
 31
0.0
  0
LINE
  5
130
330
1F
100
AcDbEntity
  8
0
100
AcDbLine
 10
7.071067811927972
 20
133.5355339059134
 30
0.0
 11
7.865660924917472
 21
132.4999999999806
 31
0.0
  0
LINE
  5
131
330
1F
100
AcDbEntity
  8
0
100
AcDbLine
 10
7.865660924917472
 20
132.4999999999806
 30
0.0
 11
8.36516303744054
 21
131.294095225493
 31
0.0
  0
LINE
  5
132
330
1F
100
AcDbEntity
  8
0
100
AcDbLine
 10
8.36516303744054
 20
131.294095225493
 30
0.0
 11
8.535533905995216
 21
129.9999999999803
 31
0.0
  0
LINE
  5
133
330
1F
100
AcDbEntity
  8
0
100
AcDbLine
 10
8.535533905995216
 20
129.9999999999803
 30
0.0
 11
8.365163037440553
 21
128.7059047744678
 31
0.0
  0
LINE
  5
134
330
1F
100
AcDbEntity
  8
0
100
AcDbLine
 10
8.365163037440553
 20
128.7059047744678
 30
0.0
 11
7.86566092491772
 21
127.4999999999807
 31
0.0
  0
LINE
  5
135
330
1F
100
AcDbEntity
  8
0
100
AcDbLine
 10
7.86566092491772
 20
127.4999999999807
 30
0.0
 11
7.071067811927577
 21
126.4644660940478
 31
0.0
  0
LINE
  5
136
330
1F
100
AcDbEntity
  8
0
100
AcDbLine
 10
7.071067811927577
 20
126.4644660940478
 30
0.0
 11
6.035533905995684
 21
125.6698729810582
 31
0.0
  0
LINE
  5
137
330
1F
100
AcDbEntity
  8
0
100
AcDbLine
 10
6.035533905995684
 20
125.6698729810582
 30
0.0
 11
4.829629131507975
 21
125.170370868535
 31
0.0
  0
LINE
  5
138
330
1F
100
AcDbEntity
  8
0
100
AcDbLine
 10
4.829629131507975
 20
125.170370868535
 30
0.0
 11
3.535533905995395
 21
124.9999999999805
 31
0.0
  0
LINE
  5
139
330
1F
100
AcDbEntity
  8
0
100
AcDbLine
 10
3.535533905995395
 20
124.9999999999805
 30
0.0
 11
2.241438680482454
 21
125.1703708685349
 31
0.0
  0
LINE
  5
13A
330
1F
100
AcDbEntity
  8
0
100
AcDbLine
 10
2.241438680482454
 20
125.1703708685349
 30
0.0
 11
1.035533905995106
 21
125.6698729810582
 31
0.0
  0
LINE
  5
13B
330
1F
100
AcDbEntity
  8
0
100
AcDbLine
 10
1.035533905995106
 20
125.6698729810582
 30
0.0
 11
0.0000000000626935
 21
126.4644660940478
 31
0.0
  0
LINE
  5
13C
330
1F
100
AcDbEntity
  8
0
100
AcDbLine
 10
0.0000000000626935
 20
126.4644660940478
 30
0.0
 11
-0.7945931129269308
 21
127.4999999999807
 31
0.0
  0
LINE
  5
13D
330
1F
100
AcDbEntity
  8
0
100
AcDbLine
 10
-0.7945931129269308
 20
127.4999999999807
 30
0.0
 11
-1.294095225449999
 21
128.7059047744678
 31
0.0
  0
LINE
  5
13E
330
1F
100
AcDbEntity
  8
0
100
AcDbLine
 10
-1.294095225449999
 20
128.7059047744678
 30
0.0
 11
-1.464466094005183
 21
129.99999999998
 31
0.0
  0
LINE
  5
13F
330
1F
100
AcDbEntity
  8
0
100
AcDbLine
 10
-1.464466094005183
 20
129.99999999998
 30
0.0
 11
-1.294095225449999
 21
131.294095225493
 31
0.0
  0
LINE
  5
140
330
1F
100
AcDbEntity
  8
0
100
AcDbLine
 10
-1.294095225449999
 20
131.294095225493
 30
0.0
 11
-0.7945931129271789
 21
132.4999999999806
 31
0.0
  0
LINE
  5
141
330
1F
100
AcDbEntity
  8
0
100
AcDbLine
 10
-0.7945931129271789
 20
132.4999999999806
 30
0.0
 11
0.0000000000624453
 21
133.535533905913
 31
0.0
  0
LINE
  5
142
330
1F
100
AcDbEntity
  8
0
100
AcDbLine
 10
-516.4644660940543
 20
144.1421356237469
 30
0.0
 11
-381.0047010544
 21
8.682370584090593
 31
0.0
  0
LINE
  5
143
330
1F
100
AcDbEntity
  8
0
100
AcDbLine
 10
-530.6066017177916
 20
130.000000000013
 30
0.0
 11
-395.1468366784352
 21
-5.459765039340934
 31
0.0
  0
LINE
  5
144
330
1F
100
AcDbEntity
  8
0
100
AcDbLine
 10
-391.9242311333497
 20
-8.682370584426328
 30
0.0
 11
-256.464466094031
 21
-144.1421356237425
 31
0.0
  0
LINE
  5
145
330
1F
100
AcDbEntity
  8
0
100
AcDbLine
 10
-519.9999999999797
 20
126.4644660940811
 30
0.0
 11
-520.7945931129682
 21
127.500000000014
 31
0.0
  0
LINE
  5
146
330
1F
100
AcDbEntity
  8
0
100
AcDbLine
 10
-520.7945931129682
 20
127.500000000014
 30
0.0
 11
-521.2940952254924
 21
128.7059047745011
 31
0.0
  0
LINE
  5
147
330
1F
100
AcDbEntity
  8
0
100
AcDbLine
 10
-521.2940952254924
 20
128.7059047745011
 30
0.0
 11
-521.4644660940467
 21
130.0000000000136
 31
0.0
  0
LINE
  5
148
330
1F
100
AcDbEntity
  8
0
100
AcDbLine
 10
-521.4644660940467
 20
130.0000000000136
 30
0.0
 11
-521.2940952254932
 21
131.2940952255256
 31
0.0
  0
LINE
  5
149
330
1F
100
AcDbEntity
  8
0
100
AcDbLine
 10
-521.2940952254932
 20
131.2940952255256
 30
0.0
 11
-520.7945931129689
 21
132.5000000000143
 31
0.0
  0
LINE
  5
14A
330
1F
100
AcDbEntity
  8
0
100
AcDbLine
 10
-520.7945931129689
 20
132.5000000000143
 30
0.0
 11
-519.9999999999804
 21
133.5355339059459
 31
0.0
  0
LINE
  5
14B
330
1F
100
AcDbEntity
  8
0
100
AcDbLine
 10
-519.9999999999804
 20
133.5355339059459
 30
0.0
 11
-518.9644660940477
 21
134.3301270189356
 31
0.0
  0
LINE
  5
14C
330
1F
100
AcDbEntity
  8
0
100
AcDbLine
 10
-518.9644660940477
 20
134.3301270189356
 30
0.0
 11
-517.7585613195599
 21
134.8296291314592
 31
0.0
  0
LINE
  5
14D
330
1F
100
AcDbEntity
  8
0
100
AcDbLine
 10
-517.7585613195599
 20
134.8296291314592
 30
0.0
 11
-516.464466094048
 21
135.000000000013
 31
0.0
  0
LINE
  5
14E
330
1F
100
AcDbEntity
  8
0
100
AcDbLine
 10
-516.464466094048
 20
135.000000000013
 30
0.0
 11
-515.1703708685346
 21
134.8296291314596
 31
0.0
  0
LINE
  5
14F
330
1F
100
AcDbEntity
  8
0
100
AcDbLine
 10
-515.1703708685346
 20
134.8296291314596
 30
0.0
 11
-513.9644660940472
 21
134.3301270189363
 31
0.0
  0
LINE
  5
150
330
1F
100
AcDbEntity
  8
0
100
AcDbLine
 10
-513.9644660940472
 20
134.3301270189363
 30
0.0
 11
-512.9289321881147
 21
133.535533905947
 31
0.0
  0
LINE
  5
151
330
1F
100
AcDbEntity
  8
0
100
AcDbLine
 10
-512.9289321881147
 20
133.535533905947
 30
0.0
 11
-512.1343390751256
 21
132.5000000000135
 31
0.0
  0
LINE
  5
152
330
1F
100
AcDbEntity
  8
0
100
AcDbLine
 10
-512.1343390751256
 20
132.5000000000135
 30
0.0
 11
-511.6348369626019
 21
131.2940952255269
 31
0.0
  0
LINE
  5
153
330
1F
100
AcDbEntity
  8
0
100
AcDbLine
 10
-511.6348369626019
 20
131.2940952255269
 30
0.0
 11
-511.4644660940476
 21
130.0000000000136
 31
0.0
  0
LINE
  5
154
330
1F
100
AcDbEntity
  8
0
100
AcDbLine
 10
-511.4644660940476
 20
130.0000000000136
 30
0.0
 11
-511.6348369626018
 21
128.7059047745016
 31
0.0
  0
LINE
  5
155
330
1F
100
AcDbEntity
  8
0
100
AcDbLine
 10
-511.6348369626018
 20
128.7059047745016
 30
0.0
 11
-512.1343390751248
 21
127.5000000000142
 31
0.0
  0
LINE
  5
156
330
1F
100
AcDbEntity
  8
0
100
AcDbLine
 10
-512.1343390751248
 20
127.5000000000142
 30
0.0
 11
-512.9289321881135
 21
126.464466094082
 31
0.0
  0
LINE
  5
157
330
1F
100
AcDbEntity
  8
0
100
AcDbLine
 10
-512.9289321881135
 20
126.464466094082
 30
0.0
 11
-513.9644660940473
 21
125.6698729810917
 31
0.0
  0
LINE
  5
158
330
1F
100
AcDbEntity
  8
0
100
AcDbLine
 10
-513.9644660940473
 20
125.6698729810917
 30
0.0
 11
-515.1703708685343
 21
125.1703708685692
 31
0.0
  0
LINE
  5
159
330
1F
100
AcDbEntity
  8
0
100
AcDbLine
 10
-515.1703708685343
 20
125.1703708685692
 30
0.0
 11
-516.4644660940475
 21
125.0000000000143
 31
0.0
  0
LINE
  5
15A
330
1F
100
AcDbEntity
  8
0
100
AcDbLine
 10
-516.4644660940475
 20
125.0000000000143
 30
0.0
 11
-517.758561319559
 21
125.1703708685694
 31
0.0
  0
LINE
  5
15B
330
1F
100
AcDbEntity
  8
0
100
AcDbLine
 10
-517.758561319559
 20
125.1703708685694
 30
0.0
 11
-518.9644660940469
 21
125.6698729810917
 31
0.0
  0
LINE
  5
15C
330
1F
100
AcDbEntity
  8
0
100
AcDbLine
 10
-518.9644660940469
 20
125.6698729810917
 30
0.0
 11
-519.9999999999797
 21
126.4644660940811
 31
0.0
  0
LINE
  5
15D
330
1F
100
AcDbEntity
  8
0
100
AcDbLine
 10
-251.1611652351287
 20
-135.3033008589125
 30
0.0
 11
-252.714466094028
 21
-136.4951905283962
 31
0.0
  0
LINE
  5
15E
330
1F
100
AcDbEntity
  8
0
100
AcDbLine
 10
-252.714466094028
 20
-136.4951905283962
 30
0.0
 11
-254.5233232557595
 21
-137.244443697181
 31
0.0
  0
LINE
  5
15F
330
1F
100
AcDbEntity
  8
0
100
AcDbLine
 10
-254.5233232557595
 20
-137.244443697181
 30
0.0
 11
-256.4644660940286
 21
-137.5000000000128
 31
0.0
  0
LINE
  5
160
330
1F
100
AcDbEntity
  8
0
100
AcDbLine
 10
-256.4644660940286
 20
-137.5000000000128
 30
0.0
 11
-258.4056089322975
 21
-137.2444436971808
 31
0.0
  0
LINE
  5
161
330
1F
100
AcDbEntity
  8
0
100
AcDbLine
 10
-258.4056089322975
 20
-137.2444436971808
 30
0.0
 11
-260.2144660940284
 21
-136.4951905283957
 31
0.0
  0
LINE
  5
162
330
1F
100
AcDbEntity
  8
0
100
AcDbLine
 10
-260.2144660940284
 20
-136.4951905283957
 30
0.0
 11
-261.7677669529271
 21
-135.3033008589114
 31
0.0
  0
LINE
  5
163
330
1F
100
AcDbEntity
  8
0
100
AcDbLine
 10
-261.7677669529271
 20
-135.3033008589114
 30
0.0
 11
-262.9596566224109
 21
-133.7500000000122
 31
0.0
  0
LINE
  5
164
330
1F
100
AcDbEntity
  8
0
100
AcDbLine
 10
-262.9596566224109
 20
-133.7500000000122
 30
0.0
 11
-263.708909791196
 21
-131.9411428382812
 31
0.0
  0
LINE
  5
165
330
1F
100
AcDbEntity
  8
0
100
AcDbLine
 10
-263.708909791196
 20
-131.9411428382812
 30
0.0
 11
-263.9644660940278
 21
-130.0000000000122
 31
0.0
  0
LINE
  5
166
330
1F
100
AcDbEntity
  8
0
100
AcDbLine
 10
-263.9644660940278
 20
-130.0000000000122
 30
0.0
 11
-263.7089097911952
 21
-128.0588571617434
 31
0.0
  0
LINE
  5
167
330
1F
100
AcDbEntity
  8
0
100
AcDbLine
 10
-263.7089097911952
 20
-128.0588571617434
 30
0.0
 11
-262.9596566224109
 21
-126.2500000000122
 31
0.0
  0
LINE
  5
168
330
1F
100
AcDbEntity
  8
0
100
AcDbLine
 10
-262.9596566224109
 20
-126.2500000000122
 30
0.0
 11
-261.7677669529263
 21
-124.6966991411133
 31
0.0
  0
LINE
  5
169
330
1F
100
AcDbEntity
  8
0
100
AcDbLine
 10
-261.7677669529263
 20
-124.6966991411133
 30
0.0
 11
-260.2144660940274
 21
-123.5048094716291
 31
0.0
  0
LINE
  5
16A
330
1F
100
AcDbEntity
  8
0
100
AcDbLine
 10
-260.2144660940274
 20
-123.5048094716291
 30
0.0
 11
-258.4056089322958
 21
-122.7555563028444
 31
0.0
  0
LINE
  5
16B
330
1F
100
AcDbEntity
  8
0
100
AcDbLine
 10
-258.4056089322958
 20
-122.7555563028444
 30
0.0
 11
-256.4644660940273
 21
-122.500000000013
 31
0.0
  0
LINE
  5
16C
330
1F
100
AcDbEntity
  8
0
100
AcDbLine
 10
-256.4644660940273
 20
-122.500000000013
 30
0.0
 11
-254.5233232557583
 21
-122.7555563028452
 31
0.0
  0
LINE
  5
16D
330
1F
100
AcDbEntity
  8
0
100
AcDbLine
 10
-254.5233232557583
 20
-122.7555563028452
 30
0.0
 11
-252.7144660940273
 21
-123.5048094716299
 31
0.0
  0
LINE
  5
16E
330
1F
100
AcDbEntity
  8
0
100
AcDbLine
 10
-252.7144660940273
 20
-123.5048094716299
 30
0.0
 11
-251.1611652351285
 21
-124.6966991411142
 31
0.0
  0
LINE
  5
16F
330
1F
100
AcDbEntity
  8
0
100
AcDbLine
 10
-251.1611652351285
 20
-124.6966991411142
 30
0.0
 11
-249.9692755656439
 21
-126.2500000000133
 31
0.0
  0
LINE
  5
170
330
1F
100
AcDbEntity
  8
0
100
AcDbLine
 10
-249.9692755656439
 20
-126.2500000000133
 30
0.0
 11
-249.2200223968596
 21
-128.0588571617444
 31
0.0
  0
LINE
  5
171
330
1F
100
AcDbEntity
  8
0
100
AcDbLine
 10
-249.2200223968596
 20
-128.0588571617444
 30
0.0
 11
-248.9644660940274
 21
-130.0000000000134
 31
0.0
  0
LINE
  5
172
330
1F
100
AcDbEntity
  8
0
100
AcDbLine
 10
-248.9644660940274
 20
-130.0000000000134
 30
0.0
 11
-249.2200223968601
 21
-131.9411428382826
 31
0.0
  0
LINE
  5
173
330
1F
100
AcDbEntity
  8
0
100
AcDbLine
 10
-249.2200223968601
 20
-131.9411428382826
 30
0.0
 11
-249.9692755656442
 21
-133.7500000000133
 31
0.0
  0
LINE
  5
174
330
1F
100
AcDbEntity
  8
0
100
AcDbLine
 10
-249.9692755656442
 20
-133.7500000000133
 30
0.0
 11
-251.1611652351287
 21
-135.3033008589125
 31
0.0
  0
LINE
  5
175
330
1F
100
AcDbEntity
  8
0
100
AcDbLine
 10
-252.9289321880947
 20
-126.4644660940801
 30
0.0
 11
-252.1343390751053
 21
-127.5000000000127
 31
0.0
  0
LINE
  5
176
330
1F
100
AcDbEntity
  8
0
100
AcDbLine
 10
-252.1343390751053
 20
-127.5000000000127
 30
0.0
 11
-251.6348369625821
 21
-128.7059047745005
 31
0.0
  0
LINE
  5
177
330
1F
100
AcDbEntity
  8
0
100
AcDbLine
 10
-251.6348369625821
 20
-128.7059047745005
 30
0.0
 11
-251.4644660940281
 21
-130.000000000013
 31
0.0
  0
LINE
  5
178
330
1F
100
AcDbEntity
  8
0
100
AcDbLine
 10
-251.4644660940281
 20
-130.000000000013
 30
0.0
 11
-251.6348369625821
 21
-131.2940952255256
 31
0.0
  0
LINE
  5
179
330
1F
100
AcDbEntity
  8
0
100
AcDbLine
 10
-251.6348369625821
 20
-131.2940952255256
 30
0.0
 11
-252.1343390751056
 21
-132.500000000013
 31
0.0
  0
LINE
  5
17A
330
1F
100
AcDbEntity
  8
0
100
AcDbLine
 10
-252.1343390751056
 20
-132.500000000013
 30
0.0
 11
-252.9289321880947
 21
-133.5355339059455
 31
0.0
  0
LINE
  5
17B
330
1F
100
AcDbEntity
  8
0
100
AcDbLine
 10
-252.9289321880947
 20
-133.5355339059455
 30
0.0
 11
-253.9644660940276
 21
-134.3301270189351
 31
0.0
  0
LINE
  5
17C
330
1F
100
AcDbEntity
  8
0
100
AcDbLine
 10
-253.9644660940276
 20
-134.3301270189351
 30
0.0
 11
-255.1703708685154
 21
-134.8296291314581
 31
0.0
  0
LINE
  5
17D
330
1F
100
AcDbEntity
  8
0
100
AcDbLine
 10
-255.1703708685154
 20
-134.8296291314581
 30
0.0
 11
-256.4644660940274
 21
-135.0000000000128
 31
0.0
  0
LINE
  5
17E
330
1F
100
AcDbEntity
  8
0
100
AcDbLine
 10
-256.4644660940274
 20
-135.0000000000128
 30
0.0
 11
-257.7585613195405
 21
-134.8296291314583
 31
0.0
  0
LINE
  5
17F
330
1F
100
AcDbEntity
  8
0
100
AcDbLine
 10
-257.7585613195405
 20
-134.8296291314583
 30
0.0
 11
-258.964466094028
 21
-134.3301270189352
 31
0.0
  0
LINE
  5
180
330
1F
100
AcDbEntity
  8
0
100
AcDbLine
 10
-258.964466094028
 20
-134.3301270189352
 30
0.0
 11
-259.9999999999608
 21
-133.5355339059457
 31
0.0
  0
LINE
  5
181
330
1F
100
AcDbEntity
  8
0
100
AcDbLine
 10
-259.9999999999608
 20
-133.5355339059457
 30
0.0
 11
-260.7945931129499
 21
-132.5000000000128
 31
0.0
  0
LINE
  5
182
330
1F
100
AcDbEntity
  8
0
100
AcDbLine
 10
-260.7945931129499
 20
-132.5000000000128
 30
0.0
 11
-261.2940952254726
 21
-131.2940952255256
 31
0.0
  0
LINE
  5
183
330
1F
100
AcDbEntity
  8
0
100
AcDbLine
 10
-261.2940952254726
 20
-131.2940952255256
 30
0.0
 11
-261.4644660940278
 21
-130.0000000000129
 31
0.0
  0
LINE
  5
184
330
1F
100
AcDbEntity
  8
0
100
AcDbLine
 10
-261.4644660940278
 20
-130.0000000000129
 30
0.0
 11
-261.2940952254729
 21
-128.7059047745001
 31
0.0
  0
LINE
  5
185
330
1F
100
AcDbEntity
  8
0
100
AcDbLine
 10
-261.2940952254729
 20
-128.7059047745001
 30
0.0
 11
-260.7945931129499
 21
-127.5000000000127
 31
0.0
  0
LINE
  5
186
330
1F
100
AcDbEntity
  8
0
100
AcDbLine
 10
-260.7945931129499
 20
-127.5000000000127
 30
0.0
 11
-259.9999999999607
 21
-126.4644660940799
 31
0.0
  0
LINE
  5
187
330
1F
100
AcDbEntity
  8
0
100
AcDbLine
 10
-259.9999999999607
 20
-126.4644660940799
 30
0.0
 11
-258.9644660940274
 21
-125.6698729810907
 31
0.0
  0
LINE
  5
188
330
1F
100
AcDbEntity
  8
0
100
AcDbLine
 10
-258.9644660940274
 20
-125.6698729810907
 30
0.0
 11
-257.7585613195405
 21
-125.1703708685672
 31
0.0
  0
LINE
  5
189
330
1F
100
AcDbEntity
  8
0
100
AcDbLine
 10
-257.7585613195405
 20
-125.1703708685672
 30
0.0
 11
-256.4644660940274
 21
-125.0000000000127
 31
0.0
  0
LINE
  5
18A
330
1F
100
AcDbEntity
  8
0
100
AcDbLine
 10
-256.4644660940274
 20
-125.0000000000127
 30
0.0
 11
-255.1703708685154
 21
-125.1703708685676
 31
0.0
  0
LINE
  5
18B
330
1F
100
AcDbEntity
  8
0
100
AcDbLine
 10
-255.1703708685154
 20
-125.1703708685676
 30
0.0
 11
-253.9644660940277
 21
-125.6698729810908
 31
0.0
  0
LINE
  5
18C
330
1F
100
AcDbEntity
  8
0
100
AcDbLine
 10
-253.9644660940277
 20
-125.6698729810908
 30
0.0
 11
-252.9289321880947
 21
-126.4644660940801
 31
0.0
  0
LINE
  5
18D
330
1F
100
AcDbEntity
  8
0
100
AcDbLine
 10
-493.4834957054847
 20
107.0190296114506
 30
0.0
 11
-491.930194846586
 21
108.210919280935
 31
0.0
  0
LINE
  5
18E
330
1F
100
AcDbEntity
  8
0
100
AcDbLine
 10
-491.930194846586
 20
108.210919280935
 30
0.0
 11
-490.1213376848547
 21
108.9601724497195
 31
0.0
  0
LINE
  5
18F
330
1F
100
AcDbEntity
  8
0
100
AcDbLine
 10
-490.1213376848547
 20
108.9601724497195
 30
0.0
 11
-488.1801948465859
 21
109.2157287525516
 31
0.0
  0
LINE
  5
190
330
1F
100
AcDbEntity
  8
0
100
AcDbLine
 10
-488.1801948465859
 20
109.2157287525516
 30
0.0
 11
-486.2390520083171
 21
108.9601724497196
 31
0.0
  0
LINE
  5
191
330
1F
100
AcDbEntity
  8
0
100
AcDbLine
 10
-486.2390520083171
 20
108.9601724497196
 30
0.0
 11
-484.4301948465858
 21
108.2109192809351
 31
0.0
  0
LINE
  5
192
330
1F
100
AcDbEntity
  8
0
100
AcDbLine
 10
-484.4301948465858
 20
108.2109192809351
 30
0.0
 11
-482.8768939876866
 21
107.0190296114508
 31
0.0
  0
LINE
  5
193
330
1F
100
AcDbEntity
  8
0
100
AcDbLine
 10
-482.8768939876866
 20
107.0190296114508
 30
0.0
 11
-481.6850043182027
 21
105.4657287525515
 31
0.0
  0
LINE
  5
194
330
1F
100
AcDbEntity
  8
0
100
AcDbLine
 10
-481.6850043182027
 20
105.4657287525515
 30
0.0
 11
-480.9357511494178
 21
103.6568715908203
 31
0.0
  0
LINE
  5
195
330
1F
100
AcDbEntity
  8
0
100
AcDbLine
 10
-480.9357511494178
 20
103.6568715908203
 30
0.0
 11
-480.6801948465855
 21
101.7157287525518
 31
0.0
  0
LINE
  5
196
330
1F
100
AcDbEntity
  8
0
100
AcDbLine
 10
-480.6801948465855
 20
101.7157287525518
 30
0.0
 11
-480.9357511494178
 21
99.77458591428254
 31
0.0
  0
LINE
  5
197
330
1F
100
AcDbEntity
  8
0
100
AcDbLine
 10
-480.9357511494178
 20
99.77458591428254
 30
0.0
 11
-481.6850043182023
 21
97.9657287525518
 31
0.0
  0
LINE
  5
198
330
1F
100
AcDbEntity
  8
0
100
AcDbLine
 10
-481.6850043182023
 20
97.9657287525518
 30
0.0
 11
-482.8768939876867
 21
96.41242789365262
 31
0.0
  0
LINE
  5
199
330
1F
100
AcDbEntity
  8
0
100
AcDbLine
 10
-482.8768939876867
 20
96.41242789365262
 30
0.0
 11
-484.4301948465854
 21
95.2205382241683
 31
0.0
  0
LINE
  5
19A
330
1F
100
AcDbEntity
  8
0
100
AcDbLine
 10
-484.4301948465854
 20
95.2205382241683
 30
0.0
 11
-486.2390520083167
 21
94.4712850553837
 31
0.0
  0
LINE
  5
19B
330
1F
100
AcDbEntity
  8
0
100
AcDbLine
 10
-486.2390520083167
 20
94.4712850553837
 30
0.0
 11
-488.1801948465858
 21
94.2157287525518
 31
0.0
  0
LINE
  5
19C
330
1F
100
AcDbEntity
  8
0
100
AcDbLine
 10
-488.1801948465858
 20
94.2157287525518
 30
0.0
 11
-490.1213376848546
 21
94.47128505538336
 31
0.0
  0
LINE
  5
19D
330
1F
100
AcDbEntity
  8
0
100
AcDbLine
 10
-490.1213376848546
 20
94.47128505538336
 30
0.0
 11
-491.9301948465857
 21
95.22053822416817
 31
0.0
  0
LINE
  5
19E
330
1F
100
AcDbEntity
  8
0
100
AcDbLine
 10
-491.9301948465857
 20
95.22053822416817
 30
0.0
 11
-493.4834957054848
 21
96.41242789365234
 31
0.0
  0
LINE
  5
19F
330
1F
100
AcDbEntity
  8
0
100
AcDbLine
 10
-493.4834957054848
 20
96.41242789365234
 30
0.0
 11
-494.675385374969
 21
97.96572875255141
 31
0.0
  0
LINE
  5
1A0
330
1F
100
AcDbEntity
  8
0
100
AcDbLine
 10
-494.675385374969
 20
97.96572875255141
 30
0.0
 11
-495.424638543754
 21
99.77458591428268
 31
0.0
  0
LINE
  5
1A1
330
1F
100
AcDbEntity
  8
0
100
AcDbLine
 10
-495.424638543754
 20
99.77458591428268
 30
0.0
 11
-495.6801948465859
 21
101.7157287525515
 31
0.0
  0
LINE
  5
1A2
330
1F
100
AcDbEntity
  8
0
100
AcDbLine
 10
-495.6801948465859
 20
101.7157287525515
 30
0.0
 11
-495.424638543754
 21
103.6568715908204
 31
0.0
  0
LINE
  5
1A3
330
1F
100
AcDbEntity
  8
0
100
AcDbLine
 10
-495.424638543754
 20
103.6568715908204
 30
0.0
 11
-494.6753853749692
 21
105.4657287525515
 31
0.0
  0
LINE
  5
1A4
330
1F
100
AcDbEntity
  8
0
100
AcDbLine
 10
-494.6753853749692
 20
105.4657287525515
 30
0.0
 11
-493.4834957054847
 21
107.0190296114506
 31
0.0
  0
LINE
  5
1A5
330
1F
100
AcDbEntity
  8
0
100
AcDbLine
 10
-491.7157287525185
 20
105.2512626584844
 30
0.0
 11
-490.6801948465859
 21
106.0458557714739
 31
0.0
  0
LINE
  5
1A6
330
1F
100
AcDbEntity
  8
0
100
AcDbLine
 10
-490.6801948465859
 20
106.0458557714739
 30
0.0
 11
-489.4742900720982
 21
106.545357883997
 31
0.0
  0
LINE
  5
1A7
330
1F
100
AcDbEntity
  8
0
100
AcDbLine
 10
-489.4742900720982
 20
106.545357883997
 30
0.0
 11
-488.1801948465859
 21
106.7157287525518
 31
0.0
  0
LINE
  5
1A8
330
1F
100
AcDbEntity
  8
0
100
AcDbLine
 10
-488.1801948465859
 20
106.7157287525518
 30
0.0
 11
-486.8860996210732
 21
106.5453578839972
 31
0.0
  0
LINE
  5
1A9
330
1F
100
AcDbEntity
  8
0
100
AcDbLine
 10
-486.8860996210732
 20
106.5453578839972
 30
0.0
 11
-485.6801948465857
 21
106.0458557714737
 31
0.0
  0
LINE
  5
1AA
330
1F
100
AcDbEntity
  8
0
100
AcDbLine
 10
-485.6801948465857
 20
106.0458557714737
 30
0.0
 11
-484.644660940653
 21
105.2512626584843
 31
0.0
  0
LINE
  5
1AB
330
1F
100
AcDbEntity
  8
0
100
AcDbLine
 10
-484.644660940653
 20
105.2512626584843
 30
0.0
 11
-483.8500678276636
 21
104.2157287525516
 31
0.0
  0
LINE
  5
1AC
330
1F
100
AcDbEntity
  8
0
100
AcDbLine
 10
-483.8500678276636
 20
104.2157287525516
 30
0.0
 11
-483.3505657151404
 21
103.0098239780644
 31
0.0
  0
LINE
  5
1AD
330
1F
100
AcDbEntity
  8
0
100
AcDbLine
 10
-483.3505657151404
 20
103.0098239780644
 30
0.0
 11
-483.1801948465857
 21
101.7157287525516
 31
0.0
  0
LINE
  5
1AE
330
1F
100
AcDbEntity
  8
0
100
AcDbLine
 10
-483.1801948465857
 20
101.7157287525516
 30
0.0
 11
-483.3505657151406
 21
100.4216335270389
 31
0.0
  0
LINE
  5
1AF
330
1F
100
AcDbEntity
  8
0
100
AcDbLine
 10
-483.3505657151406
 20
100.4216335270389
 30
0.0
 11
-483.8500678276634
 21
99.21572875255181
 31
0.0
  0
LINE
  5
1B0
330
1F
100
AcDbEntity
  8
0
100
AcDbLine
 10
-483.8500678276634
 20
99.21572875255181
 30
0.0
 11
-484.6446609406529
 21
98.18019484661883
 31
0.0
  0
LINE
  5
1B1
330
1F
100
AcDbEntity
  8
0
100
AcDbLine
 10
-484.6446609406529
 20
98.18019484661883
 30
0.0
 11
-485.6801948465857
 21
97.38560173362907
 31
0.0
  0
LINE
  5
1B2
330
1F
100
AcDbEntity
  8
0
100
AcDbLine
 10
-485.6801948465857
 20
97.38560173362907
 30
0.0
 11
-486.8860996210732
 21
96.88609962110618
 31
0.0
  0
LINE
  5
1B3
330
1F
100
AcDbEntity
  8
0
100
AcDbLine
 10
-486.8860996210732
 20
96.88609962110618
 30
0.0
 11
-488.1801948465858
 21
96.71572875255158
 31
0.0
  0
LINE
  5
1B4
330
1F
100
AcDbEntity
  8
0
100
AcDbLine
 10
-488.1801948465858
 20
96.71572875255158
 30
0.0
 11
-489.4742900720983
 21
96.88609962110604
 31
0.0
  0
LINE
  5
1B5
330
1F
100
AcDbEntity
  8
0
100
AcDbLine
 10
-489.4742900720983
 20
96.88609962110604
 30
0.0
 11
-490.6801948465859
 21
97.3856017336292
 31
0.0
  0
LINE
  5
1B6
330
1F
100
AcDbEntity
  8
0
100
AcDbLine
 10
-490.6801948465859
 20
97.3856017336292
 30
0.0
 11
-491.7157287525185
 21
98.18019484661896
 31
0.0
  0
LINE
  5
1B7
330
1F
100
AcDbEntity
  8
0
100
AcDbLine
 10
-491.7157287525185
 20
98.18019484661896
 30
0.0
 11
-492.5103218655079
 21
99.21572875255167
 31
0.0
  0
LINE
  5
1B8
330
1F
100
AcDbEntity
  8
0
100
AcDbLine
 10
-492.5103218655079
 20
99.21572875255167
 30
0.0
 11
-493.0098239780311
 21
100.4216335270389
 31
0.0
  0
LINE
  5
1B9
330
1F
100
AcDbEntity
  8
0
100
AcDbLine
 10
-493.0098239780311
 20
100.4216335270389
 30
0.0
 11
-493.1801948465857
 21
101.7157287525515
 31
0.0
  0
LINE
  5
1BA
330
1F
100
AcDbEntity
  8
0
100
AcDbLine
 10
-493.1801948465857
 20
101.7157287525515
 30
0.0
 11
-493.009823978031
 21
103.0098239780644
 31
0.0
  0
LINE
  5
1BB
330
1F
100
AcDbEntity
  8
0
100
AcDbLine
 10
-493.009823978031
 20
103.0098239780644
 30
0.0
 11
-492.5103218655081
 21
104.2157287525514
 31
0.0
  0
LINE
  5
1BC
330
1F
100
AcDbEntity
  8
0
100
AcDbLine
 10
-492.5103218655081
 20
104.2157287525514
 30
0.0
 11
-491.7157287525185
 21
105.2512626584844
 31
0.0
  0
LINE
  5
1BD
330
1F
100
AcDbEntity
  8
0
100
AcDbLine
 10
530.6066017177891
 20
122.9289321881183
 30
0.0
 11
402.2179044904067
 21
-5.459765039256448
 31
0.0
  0
LINE
  5
1BE
330
1F
100
AcDbEntity
  8
0
100
AcDbLine
 10
398.9952989451796
 20
-8.682370584483404
 30
0.0
 11
263.5355339059274
 21
-144.1421356237275
 31
0.0
  0
LINE
  5
1BF
330
1F
100
AcDbEntity
  8
0
100
AcDbLine
 10
516.4644660940615
 20
137.0710678118495
 30
0.0
 11
388.075768866266
 21
8.682370584061943
 31
0.0
  0
LINE
  5
1C0
330
1F
100
AcDbEntity
  8
0
100
AcDbLine
 10
384.8531633218516
 20
5.459765039647723
 30
0.0
 11
263.5355339059355
 21
-115.8578643762588
 31
0.0
  0
LINE
  5
1C1
330
1F
100
AcDbEntity
  8
0
100
AcDbLine
 10
512.9289321881421
 20
126.4644660940534
 30
0.0
 11
513.9644660940746
 21
127.2590592070429
 31
0.0
  0
LINE
  5
1C2
330
1F
100
AcDbEntity
  8
0
100
AcDbLine
 10
513.9644660940746
 20
127.2590592070429
 30
0.0
 11
515.1703708685616
 21
127.7585613195659
 31
0.0
  0
LINE
  5
1C3
330
1F
100
AcDbEntity
  8
0
100
AcDbLine
 10
515.1703708685616
 20
127.7585613195659
 30
0.0
 11
516.4644660940745
 21
127.9289321881206
 31
0.0
  0
LINE
  5
1C4
330
1F
100
AcDbEntity
  8
0
100
AcDbLine
 10
516.4644660940745
 20
127.9289321881206
 30
0.0
 11
517.7585613195876
 21
127.758561319566
 31
0.0
  0
LINE
  5
1C5
330
1F
100
AcDbEntity
  8
0
100
AcDbLine
 10
517.7585613195876
 20
127.758561319566
 30
0.0
 11
518.9644660940754
 21
127.2590592070432
 31
0.0
  0
LINE
  5
1C6
330
1F
100
AcDbEntity
  8
0
100
AcDbLine
 10
518.9644660940754
 20
127.2590592070432
 30
0.0
 11
520.0000000000081
 21
126.4644660940534
 31
0.0
  0
LINE
  5
1C7
330
1F
100
AcDbEntity
  8
0
100
AcDbLine
 10
520.0000000000081
 20
126.4644660940534
 30
0.0
 11
520.7945931129967
 21
125.4289321881204
 31
0.0
  0
LINE
  5
1C8
330
1F
100
AcDbEntity
  8
0
100
AcDbLine
 10
520.7945931129967
 20
125.4289321881204
 30
0.0
 11
521.2940952255204
 21
124.2230274136328
 31
0.0
  0
LINE
  5
1C9
330
1F
100
AcDbEntity
  8
0
100
AcDbLine
 10
521.2940952255204
 20
124.2230274136328
 30
0.0
 11
521.4644660940743
 21
122.9289321881207
 31
0.0
  0
LINE
  5
1CA
330
1F
100
AcDbEntity
  8
0
100
AcDbLine
 10
521.4644660940743
 20
122.9289321881207
 30
0.0
 11
521.2940952255204
 21
121.6348369626077
 31
0.0
  0
LINE
  5
1CB
330
1F
100
AcDbEntity
  8
0
100
AcDbLine
 10
521.2940952255204
 20
121.6348369626077
 30
0.0
 11
520.7945931129975
 21
120.4289321881206
 31
0.0
  0
LINE
  5
1CC
330
1F
100
AcDbEntity
  8
0
100
AcDbLine
 10
520.7945931129975
 20
120.4289321881206
 30
0.0
 11
520.0000000000082
 21
119.3933982821879
 31
0.0
  0
LINE
  5
1CD
330
1F
100
AcDbEntity
  8
0
100
AcDbLine
 10
520.0000000000082
 20
119.3933982821879
 30
0.0
 11
518.9644660940754
 21
118.5988051691985
 31
0.0
  0
LINE
  5
1CE
330
1F
100
AcDbEntity
  8
0
100
AcDbLine
 10
518.9644660940754
 20
118.5988051691985
 30
0.0
 11
517.7585613195879
 21
118.0993030566752
 31
0.0
  0
LINE
  5
1CF
330
1F
100
AcDbEntity
  8
0
100
AcDbLine
 10
517.7585613195879
 20
118.0993030566752
 30
0.0
 11
516.4644660940745
 21
117.9289321881204
 31
0.0
  0
LINE
  5
1D0
330
1F
100
AcDbEntity
  8
0
100
AcDbLine
 10
516.4644660940745
 20
117.9289321881204
 30
0.0
 11
515.1703708685623
 21
118.0993030566752
 31
0.0
  0
LINE
  5
1D1
330
1F
100
AcDbEntity
  8
0
100
AcDbLine
 10
515.1703708685623
 20
118.0993030566752
 30
0.0
 11
513.9644660940747
 21
118.5988051691982
 31
0.0
  0
LINE
  5
1D2
330
1F
100
AcDbEntity
  8
0
100
AcDbLine
 10
513.9644660940747
 20
118.5988051691982
 30
0.0
 11
512.928932188142
 21
119.3933982821877
 31
0.0
  0
LINE
  5
1D3
330
1F
100
AcDbEntity
  8
0
100
AcDbLine
 10
512.928932188142
 20
119.3933982821877
 30
0.0
 11
512.1343390751529
 21
120.4289321881206
 31
0.0
  0
LINE
  5
1D4
330
1F
100
AcDbEntity
  8
0
100
AcDbLine
 10
512.1343390751529
 20
120.4289321881206
 30
0.0
 11
511.6348369626298
 21
121.6348369626076
 31
0.0
  0
LINE
  5
1D5
330
1F
100
AcDbEntity
  8
0
100
AcDbLine
 10
511.6348369626298
 20
121.6348369626076
 30
0.0
 11
511.4644660940747
 21
122.9289321881202
 31
0.0
  0
LINE
  5
1D6
330
1F
100
AcDbEntity
  8
0
100
AcDbLine
 10
511.4644660940747
 20
122.9289321881202
 30
0.0
 11
511.6348369626298
 21
124.2230274136328
 31
0.0
  0
LINE
  5
1D7
330
1F
100
AcDbEntity
  8
0
100
AcDbLine
 10
511.6348369626298
 20
124.2230274136328
 30
0.0
 11
512.1343390751523
 21
125.4289321881206
 31
0.0
  0
LINE
  5
1D8
330
1F
100
AcDbEntity
  8
0
100
AcDbLine
 10
512.1343390751523
 20
125.4289321881206
 30
0.0
 11
512.9289321881421
 21
126.4644660940534
 31
0.0
  0
LINE
  5
1D9
330
1F
100
AcDbEntity
  8
0
100
AcDbLine
 10
268.8388347648268
 20
-135.3033008588962
 30
0.0
 11
267.2855339059279
 21
-136.4951905283797
 31
0.0
  0
LINE
  5
1DA
330
1F
100
AcDbEntity
  8
0
100
AcDbLine
 10
267.2855339059279
 20
-136.4951905283797
 30
0.0
 11
265.4766767441969
 21
-137.2444436971642
 31
0.0
  0
LINE
  5
1DB
330
1F
100
AcDbEntity
  8
0
100
AcDbLine
 10
265.4766767441969
 20
-137.2444436971642
 30
0.0
 11
263.5355339059278
 21
-137.4999999999955
 31
0.0
  0
LINE
  5
1DC
330
1F
100
AcDbEntity
  8
0
100
AcDbLine
 10
263.5355339059278
 20
-137.4999999999955
 30
0.0
 11
261.5943910676585
 21
-137.2444436971625
 31
0.0
  0
LINE
  5
1DD
330
1F
100
AcDbEntity
  8
0
100
AcDbLine
 10
261.5943910676585
 20
-137.2444436971625
 30
0.0
 11
259.785533905928
 21
-136.4951905283772
 31
0.0
  0
LINE
  5
1DE
330
1F
100
AcDbEntity
  8
0
100
AcDbLine
 10
259.785533905928
 20
-136.4951905283772
 30
0.0
 11
258.2322330470294
 21
-135.3033008588924
 31
0.0
  0
LINE
  5
1DF
330
1F
100
AcDbEntity
  8
0
100
AcDbLine
 10
258.2322330470294
 20
-135.3033008588924
 30
0.0
 11
257.0403433775456
 21
-133.7499999999932
 31
0.0
  0
LINE
  5
1E0
330
1F
100
AcDbEntity
  8
0
100
AcDbLine
 10
257.0403433775456
 20
-133.7499999999932
 30
0.0
 11
256.2910902087621
 21
-131.9411428382614
 31
0.0
  0
LINE
  5
1E1
330
1F
100
AcDbEntity
  8
0
100
AcDbLine
 10
256.2910902087621
 20
-131.9411428382614
 30
0.0
 11
256.0355339059306
 21
-129.9999999999927
 31
0.0
  0
LINE
  5
1E2
330
1F
100
AcDbEntity
  8
0
100
AcDbLine
 10
256.0355339059306
 20
-129.9999999999927
 30
0.0
 11
256.2910902087628
 21
-128.0588571617239
 31
0.0
  0
LINE
  5
1E3
330
1F
100
AcDbEntity
  8
0
100
AcDbLine
 10
256.2910902087628
 20
-128.0588571617239
 30
0.0
 11
257.040343377548
 21
-126.2499999999932
 31
0.0
  0
LINE
  5
1E4
330
1F
100
AcDbEntity
  8
0
100
AcDbLine
 10
257.040343377548
 20
-126.2499999999932
 30
0.0
 11
258.2322330470331
 21
-124.6966991410943
 31
0.0
  0
LINE
  5
1E5
330
1F
100
AcDbEntity
  8
0
100
AcDbLine
 10
258.2322330470331
 20
-124.6966991410943
 30
0.0
 11
259.7855339059326
 21
-123.5048094716107
 31
0.0
  0
LINE
  5
1E6
330
1F
100
AcDbEntity
  8
0
100
AcDbLine
 10
259.7855339059326
 20
-123.5048094716107
 30
0.0
 11
261.5943910676638
 21
-122.7555563028271
 31
0.0
  0
LINE
  5
1E7
330
1F
100
AcDbEntity
  8
0
100
AcDbLine
 10
261.5943910676638
 20
-122.7555563028271
 30
0.0
 11
263.5355339059327
 21
-122.4999999999955
 31
0.0
  0
LINE
  5
1E8
330
1F
100
AcDbEntity
  8
0
100
AcDbLine
 10
263.5355339059327
 20
-122.4999999999955
 30
0.0
 11
265.4766767442019
 21
-122.755556302828
 31
0.0
  0
LINE
  5
1E9
330
1F
100
AcDbEntity
  8
0
100
AcDbLine
 10
265.4766767442019
 20
-122.755556302828
 30
0.0
 11
267.2855339059323
 21
-123.5048094716136
 31
0.0
  0
LINE
  5
1EA
330
1F
100
AcDbEntity
  8
0
100
AcDbLine
 10
267.2855339059323
 20
-123.5048094716136
 30
0.0
 11
268.8388347648308
 21
-124.6966991410982
 31
0.0
  0
LINE
  5
1EB
330
1F
100
AcDbEntity
  8
0
100
AcDbLine
 10
268.8388347648308
 20
-124.6966991410982
 30
0.0
 11
270.0307244343145
 21
-126.2499999999978
 31
0.0
  0
LINE
  5
1EC
330
1F
100
AcDbEntity
  8
0
100
AcDbLine
 10
270.0307244343145
 20
-126.2499999999978
 30
0.0
 11
270.7799776030985
 21
-128.0588571617286
 31
0.0
  0
LINE
  5
1ED
330
1F
100
AcDbEntity
  8
0
100
AcDbLine
 10
270.7799776030985
 20
-128.0588571617286
 30
0.0
 11
271.0355339059296
 21
-129.999999999998
 31
0.0
  0
LINE
  5
1EE
330
1F
100
AcDbEntity
  8
0
100
AcDbLine
 10
271.0355339059296
 20
-129.999999999998
 30
0.0
 11
270.7799776030974
 21
-131.9411428382668
 31
0.0
  0
LINE
  5
1EF
330
1F
100
AcDbEntity
  8
0
100
AcDbLine
 10
270.7799776030974
 20
-131.9411428382668
 30
0.0
 11
270.0307244343123
 21
-133.7499999999976
 31
0.0
  0
LINE
  5
1F0
330
1F
100
AcDbEntity
  8
0
100
AcDbLine
 10
270.0307244343123
 20
-133.7499999999976
 30
0.0
 11
268.8388347648268
 21
-135.3033008588962
 31
0.0
  0
LINE
  5
1F1
330
1F
100
AcDbEntity
  8
0
100
AcDbLine
 10
267.0710678118625
 20
-133.5355339059283
 30
0.0
 11
266.0355339059301
 21
-134.3301270189179
 31
0.0
  0
LINE
  5
1F2
330
1F
100
AcDbEntity
  8
0
100
AcDbLine
 10
266.0355339059301
 20
-134.3301270189179
 30
0.0
 11
264.8296291314423
 21
-134.829629131441
 31
0.0
  0
LINE
  5
1F3
330
1F
100
AcDbEntity
  8
0
100
AcDbLine
 10
264.8296291314423
 20
-134.829629131441
 30
0.0
 11
263.53553390593
 21
-134.9999999999953
 31
0.0
  0
LINE
  5
1F4
330
1F
100
AcDbEntity
  8
0
100
AcDbLine
 10
263.53553390593
 20
-134.9999999999953
 30
0.0
 11
262.2414386804174
 21
-134.8296291314408
 31
0.0
  0
LINE
  5
1F5
330
1F
100
AcDbEntity
  8
0
100
AcDbLine
 10
262.2414386804174
 20
-134.8296291314408
 30
0.0
 11
261.0355339059302
 21
-134.3301270189176
 31
0.0
  0
LINE
  5
1F6
330
1F
100
AcDbEntity
  8
0
100
AcDbLine
 10
261.0355339059302
 20
-134.3301270189176
 30
0.0
 11
259.999999999997
 21
-133.5355339059282
 31
0.0
  0
LINE
  5
1F7
330
1F
100
AcDbEntity
  8
0
100
AcDbLine
 10
259.999999999997
 20
-133.5355339059282
 30
0.0
 11
259.2054068870081
 21
-132.4999999999959
 31
0.0
  0
LINE
  5
1F8
330
1F
100
AcDbEntity
  8
0
100
AcDbLine
 10
259.2054068870081
 20
-132.4999999999959
 30
0.0
 11
258.7059047744841
 21
-131.2940952255084
 31
0.0
  0
LINE
  5
1F9
330
1F
100
AcDbEntity
  8
0
100
AcDbLine
 10
258.7059047744841
 20
-131.2940952255084
 30
0.0
 11
258.5355339059295
 21
-129.9999999999953
 31
0.0
  0
LINE
  5
1FA
330
1F
100
AcDbEntity
  8
0
100
AcDbLine
 10
258.5355339059295
 20
-129.9999999999953
 30
0.0
 11
258.705904774484
 21
-128.7059047744833
 31
0.0
  0
LINE
  5
1FB
330
1F
100
AcDbEntity
  8
0
100
AcDbLine
 10
258.705904774484
 20
-128.7059047744833
 30
0.0
 11
259.2054068870076
 21
-127.4999999999955
 31
0.0
  0
LINE
  5
1FC
330
1F
100
AcDbEntity
  8
0
100
AcDbLine
 10
259.2054068870076
 20
-127.4999999999955
 30
0.0
 11
259.999999999997
 21
-126.4644660940628
 31
0.0
  0
LINE
  5
1FD
330
1F
100
AcDbEntity
  8
0
100
AcDbLine
 10
259.999999999997
 20
-126.4644660940628
 30
0.0
 11
261.0355339059297
 21
-125.6698729810734
 31
0.0
  0
LINE
  5
1FE
330
1F
100
AcDbEntity
  8
0
100
AcDbLine
 10
261.0355339059297
 20
-125.6698729810734
 30
0.0
 11
262.2414386804166
 21
-125.1703708685505
 31
0.0
  0
LINE
  5
1FF
330
1F
100
AcDbEntity
  8
0
100
AcDbLine
 10
262.2414386804166
 20
-125.1703708685505
 30
0.0
 11
263.5355339059298
 21
-124.9999999999955
 31
0.0
  0
LINE
  5
200
330
1F
100
AcDbEntity
  8
0
100
AcDbLine
 10
263.5355339059298
 20
-124.9999999999955
 30
0.0
 11
264.8296291314423
 21
-125.1703708685505
 31
0.0
  0
LINE
  5
201
330
1F
100
AcDbEntity
  8
0
100
AcDbLine
 10
264.8296291314423
 20
-125.1703708685505
 30
0.0
 11
266.0355339059296
 21
-125.6698729810733
 31
0.0
  0
LINE
  5
202
330
1F
100
AcDbEntity
  8
0
100
AcDbLine
 10
266.0355339059296
 20
-125.6698729810733
 30
0.0
 11
267.0710678118623
 21
-126.4644660940626
 31
0.0
  0
LINE
  5
203
330
1F
100
AcDbEntity
  8
0
100
AcDbLine
 10
267.0710678118623
 20
-126.4644660940626
 30
0.0
 11
267.8656609248518
 21
-127.4999999999955
 31
0.0
  0
LINE
  5
204
330
1F
100
AcDbEntity
  8
0
100
AcDbLine
 10
267.8656609248518
 20
-127.4999999999955
 30
0.0
 11
268.3651630373747
 21
-128.7059047744829
 31
0.0
  0
LINE
  5
205
330
1F
100
AcDbEntity
  8
0
100
AcDbLine
 10
268.3651630373747
 20
-128.7059047744829
 30
0.0
 11
268.5355339059299
 21
-129.9999999999956
 31
0.0
  0
LINE
  5
206
330
1F
100
AcDbEntity
  8
0
100
AcDbLine
 10
268.5355339059299
 20
-129.9999999999956
 30
0.0
 11
268.3651630373747
 21
-131.294095225508
 31
0.0
  0
LINE
  5
207
330
1F
100
AcDbEntity
  8
0
100
AcDbLine
 10
268.3651630373747
 20
-131.294095225508
 30
0.0
 11
267.8656609248524
 21
-132.4999999999951
 31
0.0
  0
LINE
  5
208
330
1F
100
AcDbEntity
  8
0
100
AcDbLine
 10
267.8656609248524
 20
-132.4999999999951
 30
0.0
 11
267.0710678118625
 21
-133.5355339059283
 31
0.0
  0
LINE
  5
209
330
1F
100
AcDbEntity
  8
0
100
AcDbLine
 10
493.4834957054957
 20
99.94796179955564
 30
0.0
 11
494.6753853749799
 21
98.39466094065654
 31
0.0
  0
LINE
  5
20A
330
1F
100
AcDbEntity
  8
0
100
AcDbLine
 10
494.6753853749799
 20
98.39466094065654
 30
0.0
 11
495.4246385437643
 21
96.58580377892531
 31
0.0
  0
LINE
  5
20B
330
1F
100
AcDbEntity
  8
0
100
AcDbLine
 10
495.4246385437643
 20
96.58580377892531
 30
0.0
 11
495.6801948465962
 21
94.64466094065659
 31
0.0
  0
LINE
  5
20C
330
1F
100
AcDbEntity
  8
0
100
AcDbLine
 10
495.6801948465962
 20
94.64466094065659
 30
0.0
 11
495.4246385437644
 21
92.70351810238748
 31
0.0
  0
LINE
  5
20D
330
1F
100
AcDbEntity
  8
0
100
AcDbLine
 10
495.4246385437644
 20
92.70351810238748
 30
0.0
 11
494.6753853749791
 21
90.8946609406564
 31
0.0
  0
LINE
  5
20E
330
1F
100
AcDbEntity
  8
0
100
AcDbLine
 10
494.6753853749791
 20
90.8946609406564
 30
0.0
 11
493.4834957054953
 21
89.34136008175716
 31
0.0
  0
LINE
  5
20F
330
1F
100
AcDbEntity
  8
0
100
AcDbLine
 10
493.4834957054953
 20
89.34136008175716
 30
0.0
 11
491.9301948465963
 21
88.14947041227309
 31
0.0
  0
LINE
  5
210
330
1F
100
AcDbEntity
  8
0
100
AcDbLine
 10
491.9301948465963
 20
88.14947041227309
 30
0.0
 11
490.121337684865
 21
87.40021724348854
 31
0.0
  0
LINE
  5
211
330
1F
100
AcDbEntity
  8
0
100
AcDbLine
 10
490.121337684865
 20
87.40021724348854
 30
0.0
 11
488.1801948465956
 21
87.14466094065648
 31
0.0
  0
LINE
  5
212
330
1F
100
AcDbEntity
  8
0
100
AcDbLine
 10
488.1801948465956
 20
87.14466094065648
 30
0.0
 11
486.2390520083272
 21
87.40021724348856
 31
0.0
  0
LINE
  5
213
330
1F
100
AcDbEntity
  8
0
100
AcDbLine
 10
486.2390520083272
 20
87.40021724348856
 30
0.0
 11
484.4301948465957
 21
88.14947041227335
 31
0.0
  0
LINE
  5
214
330
1F
100
AcDbEntity
  8
0
100
AcDbLine
 10
484.4301948465957
 20
88.14947041227335
 30
0.0
 11
482.876893987697
 21
89.34136008175768
 31
0.0
  0
LINE
  5
215
330
1F
100
AcDbEntity
  8
0
100
AcDbLine
 10
482.876893987697
 20
89.34136008175768
 30
0.0
 11
481.6850043182129
 21
90.89466094065668
 31
0.0
  0
LINE
  5
216
330
1F
100
AcDbEntity
  8
0
100
AcDbLine
 10
481.6850043182129
 20
90.89466094065668
 30
0.0
 11
480.9357511494283
 21
92.703518102388
 31
0.0
  0
LINE
  5
217
330
1F
100
AcDbEntity
  8
0
100
AcDbLine
 10
480.9357511494283
 20
92.703518102388
 30
0.0
 11
480.6801948465962
 21
94.64466094065646
 31
0.0
  0
LINE
  5
218
330
1F
100
AcDbEntity
  8
0
100
AcDbLine
 10
480.6801948465962
 20
94.64466094065646
 30
0.0
 11
480.9357511494283
 21
96.58580377892571
 31
0.0
  0
LINE
  5
219
330
1F
100
AcDbEntity
  8
0
100
AcDbLine
 10
480.9357511494283
 20
96.58580377892571
 30
0.0
 11
481.6850043182131
 21
98.39466094065678
 31
0.0
  0
LINE
  5
21A
330
1F
100
AcDbEntity
  8
0
100
AcDbLine
 10
481.6850043182131
 20
98.39466094065678
 30
0.0
 11
482.8768939876974
 21
99.94796179955603
 31
0.0
  0
LINE
  5
21B
330
1F
100
AcDbEntity
  8
0
100
AcDbLine
 10
482.8768939876974
 20
99.94796179955603
 30
0.0
 11
484.4301948465965
 21
101.1398514690401
 31
0.0
  0
LINE
  5
21C
330
1F
100
AcDbEntity
  8
0
100
AcDbLine
 10
484.4301948465965
 20
101.1398514690401
 30
0.0
 11
486.2390520083278
 21
101.8891046378246
 31
0.0
  0
LINE
  5
21D
330
1F
100
AcDbEntity
  8
0
100
AcDbLine
 10
486.2390520083278
 20
101.8891046378246
 30
0.0
 11
488.1801948465969
 21
102.144660940657
 31
0.0
  0
LINE
  5
21E
330
1F
100
AcDbEntity
  8
0
100
AcDbLine
 10
488.1801948465969
 20
102.144660940657
 30
0.0
 11
490.1213376848655
 21
101.8891046378246
 31
0.0
  0
LINE
  5
21F
330
1F
100
AcDbEntity
  8
0
100
AcDbLine
 10
490.1213376848655
 20
101.8891046378246
 30
0.0
 11
491.9301948465963
 21
101.1398514690396
 31
0.0
  0
LINE
  5
220
330
1F
100
AcDbEntity
  8
0
100
AcDbLine
 10
491.9301948465963
 20
101.1398514690396
 30
0.0
 11
493.4834957054957
 21
99.94796179955564
 31
0.0
  0
LINE
  5
221
330
1F
100
AcDbEntity
  8
0
100
AcDbLine
 10
491.7157287525291
 20
98.18019484658878
 30
0.0
 11
492.5103218655186
 21
97.14466094065598
 31
0.0
  0
LINE
  5
222
330
1F
100
AcDbEntity
  8
0
100
AcDbLine
 10
492.5103218655186
 20
97.14466094065598
 30
0.0
 11
493.0098239780417
 21
95.93875616616839
 31
0.0
  0
LINE
  5
223
330
1F
100
AcDbEntity
  8
0
100
AcDbLine
 10
493.0098239780417
 20
95.93875616616839
 30
0.0
 11
493.1801948465965
 21
94.64466094065608
 31
0.0
  0
LINE
  5
224
330
1F
100
AcDbEntity
  8
0
100
AcDbLine
 10
493.1801948465965
 20
94.64466094065608
 30
0.0
 11
493.0098239780417
 21
93.35056571514325
 31
0.0
  0
LINE
  5
225
330
1F
100
AcDbEntity
  8
0
100
AcDbLine
 10
493.0098239780417
 20
93.35056571514325
 30
0.0
 11
492.5103218655186
 21
92.14466094065628
 31
0.0
  0
LINE
  5
226
330
1F
100
AcDbEntity
  8
0
100
AcDbLine
 10
492.5103218655186
 20
92.14466094065628
 30
0.0
 11
491.7157287525291
 21
91.10912703472324
 31
0.0
  0
LINE
  5
227
330
1F
100
AcDbEntity
  8
0
100
AcDbLine
 10
491.7157287525291
 20
91.10912703472324
 30
0.0
 11
490.6801948465967
 21
90.31453392173376
 31
0.0
  0
LINE
  5
228
330
1F
100
AcDbEntity
  8
0
100
AcDbLine
 10
490.6801948465967
 20
90.31453392173376
 30
0.0
 11
489.4742900721089
 21
89.81503180921055
 31
0.0
  0
LINE
  5
229
330
1F
100
AcDbEntity
  8
0
100
AcDbLine
 10
489.4742900721089
 20
89.81503180921055
 30
0.0
 11
488.1801948465964
 21
89.644660940656
 31
0.0
  0
LINE
  5
22A
330
1F
100
AcDbEntity
  8
0
100
AcDbLine
 10
488.1801948465964
 20
89.644660940656
 30
0.0
 11
486.8860996210838
 21
89.81503180921055
 31
0.0
  0
LINE
  5
22B
330
1F
100
AcDbEntity
  8
0
100
AcDbLine
 10
486.8860996210838
 20
89.81503180921055
 30
0.0
 11
485.6801948465961
 21
90.31453392173376
 31
0.0
  0
LINE
  5
22C
330
1F
100
AcDbEntity
  8
0
100
AcDbLine
 10
485.6801948465961
 20
90.31453392173376
 30
0.0
 11
484.6446609406633
 21
91.10912703472324
 31
0.0
  0
LINE
  5
22D
330
1F
100
AcDbEntity
  8
0
100
AcDbLine
 10
484.6446609406633
 20
91.10912703472324
 30
0.0
 11
483.850067827674
 21
92.14466094065628
 31
0.0
  0
LINE
  5
22E
330
1F
100
AcDbEntity
  8
0
100
AcDbLine
 10
483.850067827674
 20
92.14466094065628
 30
0.0
 11
483.3505657151509
 21
93.3505657151435
 31
0.0
  0
LINE
  5
22F
330
1F
100
AcDbEntity
  8
0
100
AcDbLine
 10
483.3505657151509
 20
93.3505657151435
 30
0.0
 11
483.1801948465963
 21
94.64466094065605
 31
0.0
  0
LINE
  5
230
330
1F
100
AcDbEntity
  8
0
100
AcDbLine
 10
483.1801948465963
 20
94.64466094065605
 30
0.0
 11
483.3505657151509
 21
95.93875616616866
 31
0.0
  0
LINE
  5
231
330
1F
100
AcDbEntity
  8
0
100
AcDbLine
 10
483.3505657151509
 20
95.93875616616866
 30
0.0
 11
483.8500678276739
 21
97.14466094065601
 31
0.0
  0
LINE
  5
232
330
1F
100
AcDbEntity
  8
0
100
AcDbLine
 10
483.8500678276739
 20
97.14466094065601
 30
0.0
 11
484.6446609406632
 21
98.18019484658878
 31
0.0
  0
LINE
  5
233
330
1F
100
AcDbEntity
  8
0
100
AcDbLine
 10
484.6446609406632
 20
98.18019484658878
 30
0.0
 11
485.6801948465961
 21
98.9747879595784
 31
0.0
  0
LINE
  5
234
330
1F
100
AcDbEntity
  8
0
100
AcDbLine
 10
485.6801948465961
 20
98.9747879595784
 30
0.0
 11
486.8860996210838
 21
99.47429007210161
 31
0.0
  0
LINE
  5
235
330
1F
100
AcDbEntity
  8
0
100
AcDbLine
 10
486.8860996210838
 20
99.47429007210161
 30
0.0
 11
488.1801948465964
 21
99.64466094065614
 31
0.0
  0
LINE
  5
236
330
1F
100
AcDbEntity
  8
0
100
AcDbLine
 10
488.1801948465964
 20
99.64466094065614
 30
0.0
 11
489.4742900721089
 21
99.47429007210161
 31
0.0
  0
LINE
  5
237
330
1F
100
AcDbEntity
  8
0
100
AcDbLine
 10
489.4742900721089
 20
99.47429007210161
 30
0.0
 11
490.6801948465967
 21
98.9747879595784
 31
0.0
  0
LINE
  5
238
330
1F
100
AcDbEntity
  8
0
100
AcDbLine
 10
490.6801948465967
 20
98.9747879595784
 30
0.0
 11
491.7157287525291
 21
98.18019484658878
 31
0.0
  0
LINE
  5
239
330
1F
100
AcDbEntity
  8
0
100
AcDbLine
 10
-119.1812662478302
 20
-7.283199846255834
 30
0.0
 11
-121.004701054551
 21
-8.68237058427405
 31
0.0
  0
LINE
  5
23A
330
1F
100
AcDbEntity
  8
0
100
AcDbLine
 10
-121.004701054551
 20
-8.68237058427405
 30
0.0
 11
-121.31446609405
 21
-8.920061659014177
 31
0.0
  0
LINE
  5
23B
330
1F
100
AcDbEntity
  8
0
100
AcDbLine
 10
-135.3845277530287
 20
5.149999999965981
 30
0.0
 11
-135.1468366783302
 21
5.459765039410869
 31
0.0
  0
LINE
  5
23C
330
1F
100
AcDbEntity
  8
0
100
AcDbLine
 10
-135.1468366783302
 20
5.459765039410869
 30
0.0
 11
-133.7476659402704
 21
7.283199846187252
 31
0.0
  0
LINE
  5
23D
330
1F
100
AcDbEntity
  8
0
100
AcDbLine
 10
-133.7476659402704
 20
7.283199846187252
 30
0.0
 11
-131.9242311334888
 21
8.682370584252054
 31
0.0
  0
LINE
  5
23E
330
1F
100
AcDbEntity
  8
0
100
AcDbLine
 10
-131.9242311334888
 20
8.682370584252054
 30
0.0
 11
-131.6144660940506
 21
8.920061658945595
 31
0.0
  0
LINE
  5
23F
330
1F
100
AcDbEntity
  8
0
100
AcDbLine
 10
-117.5444044350718
 20
-5.150000000034563
 30
0.0
 11
-117.7820955098169
 21
-5.459765039540182
 31
0.0
  0
LINE
  5
240
330
1F
100
AcDbEntity
  8
0
100
AcDbLine
 10
-117.7820955098169
 20
-5.459765039540182
 30
0.0
 11
-119.1812662478302
 21
-7.283199846255834
 31
0.0
  0
LINE
  5
241
330
1F
100
AcDbEntity
  8
0
100
AcDbLine
 10
-391.6144660940492
 20
-8.920061659014177
 30
0.0
 11
-391.9242311333497
 21
-8.682370584426328
 31
0.0
  0
LINE
  5
242
330
1F
100
AcDbEntity
  8
0
100
AcDbLine
 10
-391.9242311333497
 20
-8.682370584426328
 30
0.0
 11
-393.747665940269
 21
-7.283199846255834
 31
0.0
  0
LINE
  5
243
330
1F
100
AcDbEntity
  8
0
100
AcDbLine
 10
-393.747665940269
 20
-7.283199846255834
 30
0.0
 11
-395.1468366784352
 21
-5.459765039340934
 31
0.0
  0
LINE
  5
244
330
1F
100
AcDbEntity
  8
0
100
AcDbLine
 10
-395.1468366784352
 20
-5.459765039340934
 30
0.0
 11
-395.3845277530273
 21
-5.150000000034563
 31
0.0
  0
LINE
  5
245
330
1F
100
AcDbEntity
  8
0
100
AcDbLine
 10
-379.1812662478288
 20
7.283199846187252
 30
0.0
 11
-377.7820955099294
 21
5.459765039619975
 31
0.0
  0
LINE
  5
246
330
1F
100
AcDbEntity
  8
0
100
AcDbLine
 10
-377.7820955099294
 20
5.459765039619975
 30
0.0
 11
-377.5444044350705
 21
5.149999999965981
 31
0.0
  0
LINE
  5
247
330
1F
100
AcDbEntity
  8
0
100
AcDbLine
 10
-381.3144660940486
 20
8.920061658945595
 30
0.0
 11
-381.0047010544
 21
8.682370584090593
 31
0.0
  0
LINE
  5
248
330
1F
100
AcDbEntity
  8
0
100
AcDbLine
 10
-381.0047010544
 20
8.682370584090593
 30
0.0
 11
-379.1812662478288
 21
7.283199846187252
 31
0.0
  0
LINE
  5
249
330
1F
100
AcDbEntity
  8
0
100
AcDbLine
 10
400.8187337521757
 20
-7.283199846255834
 30
0.0
 11
398.9952989451796
 21
-8.682370584483404
 31
0.0
  0
LINE
  5
24A
330
1F
100
AcDbEntity
  8
0
100
AcDbLine
 10
398.9952989451796
 20
-8.682370584483404
 30
0.0
 11
398.685533905953
 21
-8.920061659014177
 31
0.0
  0
LINE
  5
24B
330
1F
100
AcDbEntity
  8
0
100
AcDbLine
 10
384.6154722469714
 20
5.149999999965981
 30
0.0
 11
384.8531633218516
 21
5.459765039647723
 31
0.0
  0
LINE
  5
24C
330
1F
100
AcDbEntity
  8
0
100
AcDbLine
 10
384.8531633218516
 20
5.459765039647723
 30
0.0
 11
386.2523340597298
 21
7.283199846187252
 31
0.0
  0
LINE
  5
24D
330
1F
100
AcDbEntity
  8
0
100
AcDbLine
 10
386.2523340597298
 20
7.283199846187252
 30
0.0
 11
388.075768866266
 21
8.682370584061943
 31
0.0
  0
LINE
  5
24E
330
1F
100
AcDbEntity
  8
0
100
AcDbLine
 10
388.075768866266
 20
8.682370584061943
 30
0.0
 11
388.3855339059525
 21
8.920061658945595
 31
0.0
  0
LINE
  5
24F
330
1F
100
AcDbEntity
  8
0
100
AcDbLine
 10
402.4555955649341
 20
-5.150000000034563
 30
0.0
 11
402.2179044904067
 21
-5.459765039256448
 31
0.0
  0
LINE
  5
250
330
1F
100
AcDbEntity
  8
0
100
AcDbLine
 10
402.2179044904067
 20
-5.459765039256448
 30
0.0
 11
400.8187337521757
 21
-7.283199846255834
 31
0.0
  0
LINE
  5
251
330
1F
100
AcDbEntity
  8
0
100
AcDbLine
 10
128.3855339059538
 20
-8.920061659014177
 30
0.0
 11
128.0757688666382
 21
-8.682370584415002
 31
0.0
  0
LINE
  5
252
330
1F
100
AcDbEntity
  8
0
100
AcDbLine
 10
128.0757688666382
 20
-8.682370584415002
 30
0.0
 11
126.2523340597311
 21
-7.283199846255834
 31
0.0
  0
LINE
  5
253
330
1F
100
AcDbEntity
  8
0
100
AcDbLine
 10
126.2523340597311
 20
-7.283199846255834
 30
0.0
 11
124.8531633215673
 21
-5.459765039344025
 31
0.0
  0
LINE
  5
254
330
1F
100
AcDbEntity
  8
0
100
AcDbLine
 10
124.8531633215673
 20
-5.459765039344025
 30
0.0
 11
124.6154722469728
 21
-5.150000000034563
 31
0.0
  0
LINE
  5
255
330
1F
100
AcDbEntity
  8
0
100
AcDbLine
 10
140.8187337521771
 20
7.283199846187252
 30
0.0
 11
142.2179044901164
 21
5.459765039568065
 31
0.0
  0
LINE
  5
256
330
1F
100
AcDbEntity
  8
0
100
AcDbLine
 10
142.2179044901164
 20
5.459765039568065
 30
0.0
 11
142.4555955649355
 21
5.149999999965981
 31
0.0
  0
LINE
  5
257
330
1F
100
AcDbEntity
  8
0
100
AcDbLine
 10
138.6855339059544
 20
8.920061658945595
 30
0.0
 11
138.9952989455628
 21
8.682370584121793
 31
0.0
  0
LINE
  5
258
330
1F
100
AcDbEntity
  8
0
100
AcDbLine
 10
138.9952989455628
 20
8.682370584121793
 30
0.0
 11
140.8187337521771
 21
7.283199846187252
 31
0.0
  0
LINE
  5
259
330
1F
100
AcDbEntity
  8
0
100
AcDbLine
 10
3.535533905962096
 20
115.8578643762671
 30
0.0
 11
-117.7820955098169
 21
-5.459765039540182
 31
0.0
  0
LINE
  5
25A
330
1F
100
AcDbEntity
  8
0
100
AcDbLine
 10
-377.7820955099294
 20
5.459765039619975
 30
0.0
 11
-256.464466094034
 21
-115.8578643762831
 31
0.0
  0
LINE
  5
25B
330
1F
100
AcDbEntity
  8
0
100
AcDbLine
 10
3.535533905984566
 20
144.1421356237145
 30
0.0
 11
17.6776695296934
 21
129.999999999999
 31
0.0
  0
LINE
  5
25C
330
1F
100
AcDbEntity
  8
0
100
AcDbLine
 10
-530.6066017177916
 20
130.000000000013
 30
0.0
 11
-516.4644660940543
 21
144.1421356237469
 31
0.0
  0
LINE
  5
25D
330
1F
100
AcDbEntity
  8
0
100
AcDbLine
 10
-242.3223304703016
 20
-130.000000000015
 30
0.0
 11
-256.464466094031
 21
-144.1421356237425
 31
0.0
  0
LINE
  5
25E
330
1F
100
AcDbEntity
  8
0
100
AcDbLine
 10
516.4644660940615
 20
137.0710678118495
 30
0.0
 11
530.6066017177891
 21
122.9289321881183
 31
0.0
  0
LINE
  5
25F
330
1F
100
AcDbEntity
  8
0
100
AcDbLine
 10
263.5355339059274
 20
-144.1421356237275
 30
0.0
 11
249.3933982822056
 21
-129.9999999999884
 31
0.0
  0
ENDSEC
  0
SECTION
  2
OBJECTS
  0
DICTIONARY
  5
C
330
0
100
AcDbDictionary
  3
ACAD_GROUP
350
D
  3
ACAD_LAYOUT
350
1A
  3
ACAD_MATERIAL
350
43
  3
ACAD_MLEADERSTYLE
350
6B
  3
ACAD_MLINESTYLE
350
17
  3
ACAD_PLOTSETTINGS
350
19
  3
ACAD_SCALELIST
350
47
  3
ACAD_VISUALSTYLE
350
2A
  3
ACDBHEADERROUNDTRIPXREC
350
260
  3
ACDBVARIABLEDICTIONARY
350
281
  0
DICTIONARY
  5
288
330
8
100
AcDbDictionary
280
     1
  3
ACAD_XREC_ROUNDTRIP
360
289
  0
DICTIONARY
  5
D
102
{ACAD_REACTORS
330
C
102
}
330
C
100
AcDbDictionary
  0
DICTIONARY
  5
1A
102
{ACAD_REACTORS
330
C
102
}
330
C
100
AcDbDictionary
  0
DICTIONARY
  5
43
102
{ACAD_REACTORS
330
C
102
}
330
C
100
AcDbDictionary
  3
BYBLOCK
350
45
  3
BYLAYER
350
44
  3
GLOBAL
350
46
  0
DICTIONARY
  5
6B
102
{ACAD_REACTORS
330
C
102
}
330
C
100
AcDbDictionary
  3
STANDARD
350
6C
  0
DICTIONARY
  5
17
102
{ACAD_REACTORS
330
C
102
}
330
C
100
AcDbDictionary
  3
STANDARD
350
18
  0
DICTIONARY
  5
19
102
{ACAD_REACTORS
330
C
102
}
330
C
100
AcDbDictionary
  0
DICTIONARY
  5
47
102
{ACAD_REACTORS
330
C
102
}
330
C
100
AcDbDictionary
  3
A0
350
48
  3
A1
350
49
  3
A2
350
4A
  3
A3
350
4B
  3
A4
350
4C
  3
A5
350
4D
  3
A6
350
4E
  3
A7
350
4F
  3
A8
350
50
  3
A9
350
51
  3
B0
350
52
  3
B1
350
53
  3
B2
350
54
  3
B3
350
55
  3
B4
350
56
  3
B5
350
57
  3
B6
350
58
  3
B7
350
59
  3
B8
350
5A
  3
B9
350
5B
  3
C0
350
5C
  3
C1
350
5D
  3
C2
350
5E
  3
C3
350
5F
  3
C4
350
60
  3
C5
350
61
  3
C6
350
62
  3
C7
350
63
  3
C8
350
64
  3
C9
350
65
  3
D0
350
66
  3
D1
350
67
  3
D2
350
68
  0
DICTIONARY
  5
2A
102
{ACAD_REACTORS
330
C
102
}
330
C
100
AcDbDictionary
  3
2DWIREFRAME
350
2F
  3
BASIC
350
32
  3
BRIGHTEN
350
36
  3
COLORCHANGE
350
3A
  3
CONCEPTUAL
350
34
  3
DIM
350
35
  3
EDGECOLOROFF
350
3D
  3
FACEPATTERN
350
39
  3
FLAT
350
2B
  3
FLATWITHEDGES
350
2C
  3
GOURAUD
350
2D
  3
GOURAUDWITHEDGES
350
2E
  3
HIDDEN
350
31
  3
JITTEROFF
350
3B
  3
LINEPATTERN
350
38
  3
OVERHANGOFF
350
3C
  3
REALISTIC
350
33
  3
SHADED
350
42
  3
SHADED_WITH_EDGES
350
41
  3
SHADES_OF_GRAY
350
3E
  3
SKETCHY
350
3F
  3
THICKEN
350
37
  3
WIREFRAME
350
30
  3
X-RAY
350
40
  0
DICTIONARY
  5
260
102
{ACAD_REACTORS
330
C
102
}
330
C
100
AcDbDictionary
  3
CEPSNID
350
26A
  3
CEPSNTYPE
350
269
  3
DIMSTYLEDATA
350
280
  3
FINGERPRINTGUID
350
26B
  3
HYPERLINKBASE
350
263
  3
INSUNITS
350
268
  3
LAYOUTDICT
350
265
  3
LWETCUNION
350
267
  3
PLOTSETDICT
350
266
  3
PSVPSCALE
350
26D
  3
PUCSBASE
350
270
  3
PUCSORGBACK
350
276
  3
PUCSORGBOTTOM
350
272
  3
PUCSORGFRONT
350
275
  3
PUCSORGLEFT
350
273
  3
PUCSORGRIGHT
350
274
  3
PUCSORGTOP
350
271
  3
PUCSORTHOREF
350
26E
  3
PUCSORTHOVIEW
350
26F
  3
STYLESHEET
350
264
  3
TSTACKALIGN
350
261
  3
TSTACKSIZE
350
262
  3
UCSBASE
350
279
  3
UCSORGBACK
350
27F
  3
UCSORGBOTTOM
350
27B
  3
UCSORGFRONT
350
27E
  3
UCSORGLEFT
350
27C
  3
UCSORGRIGHT
350
27D
  3
UCSORGTOP
350
27A
  3
UCSORTHOREF
350
277
  3
UCSORTHOVIEW
350
278
  3
VERSIONGUID
350
26C
  0
DICTIONARY
  5
281
102
{ACAD_REACTORS
330
C
102
}
330
C
100
AcDbDictionary
  3
CANNOSCALE
350
28A
  3
CMLEADERSTYLE
350
283
  3
CTABLESTYLE
350
282
  3
DIMASSOC
350
286
  3
HIDETEXT
350
287
  3
MSLTSCALE
350
28B
  0
XRECORD
  5
289
102
{ACAD_REACTORS
330
288
102
}
330
288
100
AcDbXrecord
102
VTR_0.000_0.000_1.000_1.000_VISUALSTYLE
340
2F
102
VTR_0.000_0.000_1.000_1.000_GRIDDISPLAY
 70
     3
102
VTR_0.000_0.000_1.000_1.000_GRIDMAJOR
 70
     5
102
VTR_0.000_0.000_1.000_1.000_DEFAULTLIGHTING
280
     1
102
VTR_0.000_0.000_1.000_1.000_DEFAULTLIGHTINGTYPE
 70
     1
102
VTR_0.000_0.000_1.000_1.000_BRIGHTNESS
141
0.0
102
VTR_0.000_0.000_1.000_1.000_CONTRAST
142
0.0
  0
MATERIAL
  5
45
102
{ACAD_REACTORS
330
43
102
}
102
{ACAD_XDICTIONARY
360
28E
102
}
330
43
100
AcDbMaterial
  1
BYBLOCK
  0
MATERIAL
  5
44
102
{ACAD_REACTORS
330
43
102
}
102
{ACAD_XDICTIONARY
360
28C
102
}
330
43
100
AcDbMaterial
  1
BYLAYER
  0
MATERIAL
  5
46
102
{ACAD_REACTORS
330
43
102
}
102
{ACAD_XDICTIONARY
360
290
102
}
330
43
100
AcDbMaterial
  1
GLOBAL
  0
ACAD_PROXY_OBJECT
  5
6C
102
{ACAD_REACTORS
330
6B
102
}
330
6B
100
AcDbProxyObject
 90
      499
 91
      505
 93
      610
310
40901902A4063FBFFFFFE056BD1B81E855B9FC0AD7A3703D0AD73F4214DD185B99185C9900AD7A3703D0AC73F90141901A02B5E8DC0F42B1CFC02B5E8DC0F42B1CFE5764000000000000300FC0
340
14
340
0
340
11
340
0
 94
        0
1001
ACAD_MLEADERVER
1070
     2
  0
MLINESTYLE
  5
18
102
{ACAD_REACTORS
330
17
102
}
330
17
100
AcDbMlineStyle
  2
Standard
 70
     0
  3

 62
   256
 51
90.0
 52
90.0
 71
     2
 49
0.5
 62
   256
  6
BYLAYER
 49
-0.5
 62
   256
  6
BYLAYER
  0
ACAD_PROXY_OBJECT
  5
48
102
{ACAD_REACTORS
330
47
102
}
330
47
100
AcDbProxyObject
 90
      499
 91
      503
 93
       41
310
903313A31580
  0
ACAD_PROXY_OBJECT
  5
49
102
{ACAD_REACTORS
330
47
102
}
330
47
100
AcDbProxyObject
 90
      499
 91
      503
 93
      105
310
903313A324000000000000004000
  0
ACAD_PROXY_OBJECT
  5
4A
102
{ACAD_REACTORS
330
47
102
}
330
47
100
AcDbProxyObject
 90
      499
 91
      503
 93
      105
310
903313A344000000000000104000
  0
ACAD_PROXY_OBJECT
  5
4B
102
{ACAD_REACTORS
330
47
102
}
330
47
100
AcDbProxyObject
 90
      499
 91
      503
 93
      105
310
903313A354000000000000144000
  0
ACAD_PROXY_OBJECT
  5
4C
102
{ACAD_REACTORS
330
47
102
}
330
47
100
AcDbProxyObject
 90
      499
 91
      503
 93
      105
310
903313A384000000000000204000
  0
ACAD_PROXY_OBJECT
  5
4D
102
{ACAD_REACTORS
330
47
102
}
330
47
100
AcDbProxyObject
 90
      499
 91
      503
 93
      113
310
904313A31304000000000000244000
  0
ACAD_PROXY_OBJECT
  5
4E
102
{ACAD_REACTORS
330
47
102
}
330
47
100
AcDbProxyObject
 90
      499
 91
      503
 93
      113
310
904313A31364000000000000304000
  0
ACAD_PROXY_OBJECT
  5
4F
102
{ACAD_REACTORS
330
47
102
}
330
47
100
AcDbProxyObject
 90
      499
 91
      503
 93
      113
310
904313A32304000000000000344000
  0
ACAD_PROXY_OBJECT
  5
50
102
{ACAD_REACTORS
330
47
102
}
330
47
100
AcDbProxyObject
 90
      499
 91
      503
 93
      113
310
904313A333040000000000003E4000
  0
ACAD_PROXY_OBJECT
  5
51
102
{ACAD_REACTORS
330
47
102
}
330
47
100
AcDbProxyObject
 90
      499
 91
      503
 93
      113
310
904313A34304000000000000444000
  0
ACAD_PROXY_OBJECT
  5
52
102
{ACAD_REACTORS
330
47
102
}
330
47
100
AcDbProxyObject
 90
      499
 91
      503
 93
      113
310
904313A35304000000000000494000
  0
ACAD_PROXY_OBJECT
  5
53
102
{ACAD_REACTORS
330
47
102
}
330
47
100
AcDbProxyObject
 90
      499
 91
      503
 93
      121
310
905313A3130304000000000000594000
  0
ACAD_PROXY_OBJECT
  5
54
102
{ACAD_REACTORS
330
47
102
}
330
47
100
AcDbProxyObject
 90
      499
 91
      503
 93
      105
310
903323A310000000000000010100
  0
ACAD_PROXY_OBJECT
  5
55
102
{ACAD_REACTORS
330
47
102
}
330
47
100
AcDbProxyObject
 90
      499
 91
      503
 93
      105
310
903343A310000000000000410100
  0
ACAD_PROXY_OBJECT
  5
56
102
{ACAD_REACTORS
330
47
102
}
330
47
100
AcDbProxyObject
 90
      499
 91
      503
 93
      105
310
903383A310000000000000810100
  0
ACAD_PROXY_OBJECT
  5
57
102
{ACAD_REACTORS
330
47
102
}
330
47
100
AcDbProxyObject
 90
      499
 91
      503
 93
      113
310
90431303A310000000000000910100
  0
ACAD_PROXY_OBJECT
  5
58
102
{ACAD_REACTORS
330
47
102
}
330
47
100
AcDbProxyObject
 90
      499
 91
      503
 93
      121
310
9053130303A310000000000001650100
  0
ACAD_PROXY_OBJECT
  5
59
102
{ACAD_REACTORS
330
47
102
}
330
47
100
AcDbProxyObject
 90
      499
 91
      503
 93
      257
310
90E312F31323822203D2031272D3022000000000000200FC000000000000284000
  0
ACAD_PROXY_OBJECT
  5
5A
102
{ACAD_REACTORS
330
47
102
}
330
47
100
AcDbProxyObject
 90
      499
 91
      503
 93
      249
310
90D312F363422203D2031272D3022000000000000240FC000000000000284000
  0
ACAD_PROXY_OBJECT
  5
5B
102
{ACAD_REACTORS
330
47
102
}
330
47
100
AcDbProxyObject
 90
      499
 91
      503
 93
      249
310
90D312F333222203D2031272D3022000000000000280FC000000000000284000
  0
ACAD_PROXY_OBJECT
  5
5C
102
{ACAD_REACTORS
330
47
102
}
330
47
100
AcDbProxyObject
 90
      499
 91
      503
 93
      249
310
90D312F313622203D2031272D30220000000000002C0FC000000000000284000
  0
ACAD_PROXY_OBJECT
  5
5D
102
{ACAD_REACTORS
330
47
102
}
330
47
100
AcDbProxyObject
 90
      499
 91
      503
 93
      249
310
90D332F333222203D2031272D30220000000000002E0FC000000000000284000
  0
ACAD_PROXY_OBJECT
  5
5E
102
{ACAD_REACTORS
330
47
102
}
330
47
100
AcDbProxyObject
 90
      499
 91
      503
 93
      241
310
90C312F3822203D2031272D3022000000000000300FC000000000000284000
  0
ACAD_PROXY_OBJECT
  5
5F
102
{ACAD_REACTORS
330
47
102
}
330
47
100
AcDbProxyObject
 90
      499
 91
      503
 93
      249
310
90D332F313622203D2031272D3022000000000000320FC000000000000284000
  0
ACAD_PROXY_OBJECT
  5
60
102
{ACAD_REACTORS
330
47
102
}
330
47
100
AcDbProxyObject
 90
      499
 91
      503
 93
      241
310
90C312F3422203D2031272D3022000000000000340FC000000000000284000
  0
ACAD_PROXY_OBJECT
  5
61
102
{ACAD_REACTORS
330
47
102
}
330
47
100
AcDbProxyObject
 90
      499
 91
      503
 93
      241
310
90C332F3822203D2031272D3022000000000000360FC000000000000284000
  0
ACAD_PROXY_OBJECT
  5
62
102
{ACAD_REACTORS
330
47
102
}
330
47
100
AcDbProxyObject
 90
      499
 91
      503
 93
      241
310
90C312F3222203D2031272D3022000000000000380FC000000000000284000
  0
ACAD_PROXY_OBJECT
  5
63
102
{ACAD_REACTORS
330
47
102
}
330
47
100
AcDbProxyObject
 90
      499
 91
      503
 93
      241
310
90C332F3422203D2031272D30220000000000003A0FC000000000000284000
  0
ACAD_PROXY_OBJECT
  5
64
102
{ACAD_REACTORS
330
47
102
}
330
47
100
AcDbProxyObject
 90
      499
 91
      503
 93
      161
310
90A3122203D2031272D30224000000000000284000
  0
ACAD_PROXY_OBJECT
  5
65
102
{ACAD_REACTORS
330
47
102
}
330
47
100
AcDbProxyObject
 90
      499
 91
      503
 93
      257
310
90E312D312F3222203D2031272D30220000000000003E0FC000000000000284000
  0
ACAD_PROXY_OBJECT
  5
66
102
{ACAD_REACTORS
330
47
102
}
330
47
100
AcDbProxyObject
 90
      499
 91
      503
 93
      225
310
90A3322203D2031272D302200000000000002100000000000000284000
  0
ACAD_PROXY_OBJECT
  5
67
102
{ACAD_REACTORS
330
47
102
}
330
47
100
AcDbProxyObject
 90
      499
 91
      503
 93
      225
310
90A3622203D2031272D302200000000000006100000000000000284000
  0
ACAD_PROXY_OBJECT
  5
68
102
{ACAD_REACTORS
330
47
102
}
330
47
100
AcDbProxyObject
 90
      499
 91
      503
 93
      249
310
90D31272D3022203D2031272D30220000000000000A100000000000000284000
  0
ACAD_PROXY_OBJECT
  5
2F
102
{ACAD_REACTORS
330
2A
102
}
330
2A
100
AcDbProxyObject
 90
      499
 91
      501
 93
      436
310
42CC9915DA5C99599C985B595049028333333333333E33F0000000000000F90107901411070040501600405405064090741402480A0340
1001
ACAD
1000
AcDbSavedByObjectVersion
1070
     0
  0
ACAD_PROXY_OBJECT
  5
32
102
{ACAD_REACTORS
330
2A
102
}
330
2A
100
AcDbProxyObject
 90
      499
 91
      501
 93
      388
310
4150985CDA58D07406404333333333333E33F0000000000000F90107A41107004050150841D405064090741402480A0350
1001
ACAD
1000
AcDbSavedByObjectVersion
1070
     0
  0
ACAD_PROXY_OBJECT
  5
36
102
{ACAD_REACTORS
330
2A
102
}
330
2A
100
AcDbProxyObject
 90
      499
 91
      501
 93
      428
310
42109C9A59DA1D195B90C409028333333333333E33F0000000000000F9010790141107004050150841D405064090741402480A029950
1001
ACAD
1000
AcDbSavedByObjectVersion
1070
     0
  0
ACAD_PROXY_OBJECT
  5
3A
102
{ACAD_REACTORS
330
2A
102
}
330
2A
100
AcDbProxyObject
 90
      499
 91
      501
 93
      452
310
42D0DBDB1BDC90DA185B99D95104090240C333333333333E33F0000000000000F90108901411070040501508421405064090741402480A0350
1001
ACAD
1000
AcDbSavedByObjectVersion
1070
     0
  0
ACAD_PROXY_OBJECT
  5
34
102
{ACAD_REACTORS
330
2A
102
}
330
2A
100
AcDbProxyObject
 90
      499
 91
      501
 93
      500
310
4290DBDB98D95C1D1D585B10940D028333333333333E33F0000000000000F90107902409070040501000000000018199010841D405064090740C02480A0340
1001
ACAD
1000
AcDbSavedByObjectVersion
1070
     0
  0
ACAD_PROXY_OBJECT
  5
35
102
{ACAD_REACTORS
330
2A
102
}
330
2A
100
AcDbProxyObject
 90
      499
 91
      501
 93
      412
310
40D11A5B50B409028333333333333E33F0000000000000F9010790141107004050150841D405064090741402480A02677FFFFFD0
1001
ACAD
1000
AcDbSavedByObjectVersion
1070
     0
  0
ACAD_PROXY_OBJECT
  5
3D
102
{ACAD_REACTORS
330
2A
102
}
330
2A
100
AcDbProxyObject
 90
      499
 91
      501
 93
      452
310
43115919D950DBDB1BDC93D999916409028333333333333E33F0000000000000F9010790141107004050150841D405064090741402480A0350
1001
ACAD
1000
AcDbSavedByObjectVersion
1070
     0
  0
ACAD_PROXY_OBJECT
  5
39
102
{ACAD_REACTORS
330
2A
102
}
330
2A
100
AcDbProxyObject
 90
      499
 91
      501
 93
      444
310
42D19858D95C185D1D195C9B90F409028333333333333E33F0000000000000F9010790141107004050150841D405064090741402480A0350
1001
ACAD
1000
AcDbSavedByObjectVersion
1070
     0
  0
ACAD_PROXY_OBJECT
  5
2B
102
{ACAD_REACTORS
330
2A
102
}
330
2A
100
AcDbProxyObject
 90
      499
 91
      501
 93
      380
310
41119B185D240901404333333333333E33F0000000000000F9010740A907004050150841D405064090741402480A1B50
1001
ACAD
1000
AcDbSavedByObjectVersion
1070
     0
  0
ACAD_PROXY_OBJECT
  5
2C
102
{ACAD_REACTORS
330
2A
102
}
330
2A
100
AcDbProxyObject
 90
      499
 91
      501
 93
      468
310
43519B185D15DA5D1A115919D95CD0140901404333333333333E33F0000000000000F90107409019070040501600405405064090741402480A1B50
1001
ACAD
1000
AcDbSavedByObjectVersion
1070
     0
  0
ACAD_PROXY_OBJECT
  5
2D
102
{ACAD_REACTORS
330
2A
102
}
330
2A
100
AcDbProxyObject
 90
      499
 91
      501
 93
      404
310
41D1DBDD5C985D5910240902404333333333333E33F0000000000000F9010740A9070040501641D405064090741402480A1B50
1001
ACAD
1000
AcDbSavedByObjectVersion
1070
     0
  0
ACAD_PROXY_OBJECT
  5
2E
102
{ACAD_REACTORS
330
2A
102
}
330
2A
100
AcDbProxyObject
 90
      499
 91
      501
 93
      492
310
4411DBDD5C985D5915DA5D1A115919D95CD0340902404333333333333E33F0000000000000F90107409019070040501600405405064090741402480A1B50
1001
ACAD
1000
AcDbSavedByObjectVersion
1070
     0
  0
ACAD_PROXY_OBJECT
  5
31
102
{ACAD_REACTORS
330
2A
102
}
330
2A
100
AcDbProxyObject
 90
      499
 91
      501
 93
      476
310
41921A5919195B90640502408333333333333E33F0000000000000F901079024090700405020000000000001110200405405064090740C02480A0340
1001
ACAD
1000
AcDbSavedByObjectVersion
1070
     0
  0
ACAD_PROXY_OBJECT
  5
3B
102
{ACAD_REACTORS
330
2A
102
}
330
2A
100
AcDbProxyObject
 90
      499
 91
      501
 93
      428
310
42529A5D1D195C93D999914409028333333333333E33F0000000000000F9010790141107004050150A41D405064090741402480A0350
1001
ACAD
1000
AcDbSavedByObjectVersion
1070
     0
  0
ACAD_PROXY_OBJECT
  5
38
102
{ACAD_REACTORS
330
2A
102
}
330
2A
100
AcDbProxyObject
 90
      499
 91
      501
 93
      444
310
42D31A5B995C185D1D195C9B90E409028333333333333E33F0000000000000F9010790141107004050750841D405064090741402483A0350
1001
ACAD
1000
AcDbSavedByObjectVersion
1070
     0
  0
ACAD_PROXY_OBJECT
  5
3C
102
{ACAD_REACTORS
330
2A
102
}
330
2A
100
AcDbProxyObject
 90
      499
 91
      501
 93
      444
310
42D3DD995C9A185B99D3D999915409028333333333333E33F0000000000000F9010790141107004050150941D405064090741402480A0350
1001
ACAD
1000
AcDbSavedByObjectVersion
1070
     0
  0
ACAD_PROXY_OBJECT
  5
33
102
{ACAD_REACTORS
330
2A
102
}
330
2A
100
AcDbProxyObject
 90
      499
 91
      501
 93
      428
310
425499585B1A5CDD1A58D08409038333333333333E33F0000000000000F9010740A907004050150800405405064090740C02480A1B40
1001
ACAD
1000
AcDbSavedByObjectVersion
1070
     0
  0
ACAD_PROXY_OBJECT
  5
42
102
{ACAD_REACTORS
330
2A
102
}
330
2A
100
AcDbProxyObject
 90
      499
 91
      501
 93
      420
310
4194DA1859195911B40902404333333333333E33F0000000000000F9010740A41107004050150800405405064090840C02480A0B40
1001
ACAD
1000
AcDbSavedByObjectVersion
1070
     0
  0
ACAD_PROXY_OBJECT
  5
41
102
{ACAD_REACTORS
330
2A
102
}
330
2A
100
AcDbProxyObject
 90
      499
 91
      501
 93
      516
310
4454DA18591959081DDA5D1A08195919D95CD1A40902404333333333333E33F0000000000000F901074090142907004050250800405405064090740C02480A0B40
1001
ACAD
1000
AcDbSavedByObjectVersion
1070
     0
  0
ACAD_PROXY_OBJECT
  5
3E
102
{ACAD_REACTORS
330
2A
102
}
330
2A
100
AcDbProxyObject
 90
      499
 91
      501
 93
      532
310
4394DA1859195CC81BD98811DC985E5174090240C333333333333E33F0000000000000F901079024090741D01000000000000111010841D405064090740C02480A0340
1001
ACAD
1000
AcDbSavedByObjectVersion
1070
     0
  0
ACAD_PROXY_OBJECT
  5
3F
102
{ACAD_REACTORS
330
2A
102
}
330
2A
100
AcDbProxyObject
 90
      499
 91
      501
 93
      476
310
41D4DAD95D18DA1E51840502408333333333333E33F0000000000000F901079024090741D01000000000000111010B41D405064090741802480A0340
1001
ACAD
1000
AcDbSavedByObjectVersion
1070
     0
  0
ACAD_PROXY_OBJECT
  5
37
102
{ACAD_REACTORS
330
2A
102
}
330
2A
100
AcDbProxyObject
 90
      499
 91
      501
 93
      412
310
41D51A1A58DAD95B90D409028333333333333E33F0000000000000F9010790141107004050150C41D405064090741402480A0350
1001
ACAD
1000
AcDbSavedByObjectVersion
1070
     0
  0
ACAD_PROXY_OBJECT
  5
30
102
{ACAD_REACTORS
330
2A
102
}
330
2A
100
AcDbProxyObject
 90
      499
 91
      501
 93
      420
310
4255DA5C99599C985B595059028333333333333E33F0000000000000F90107901411070040501600405405064090740C02480A0340
1001
ACAD
1000
AcDbSavedByObjectVersion
1070
     0
  0
ACAD_PROXY_OBJECT
  5
40
102
{ACAD_REACTORS
330
2A
102
}
330
2A
100
AcDbProxyObject
 90
      499
 91
      501
 93
      404
310
41560B54985E51940902404000000000000E03F0000000000000F9010740501907004050150841D405064090740C02480A1B40
1001
ACAD
1000
AcDbSavedByObjectVersion
1070
     0
  0
XRECORD
  5
26A
102
{ACAD_REACTORS
330
260
102
}
330
260
100
AcDbXrecord
340
0
  0
XRECORD
  5
269
102
{ACAD_REACTORS
330
260
102
}
330
260
100
AcDbXrecord
 90
        0
  0
XRECORD
  5
280
102
{ACAD_REACTORS
330
260
102
}
330
260
100
AcDbXrecord
1000
DSTYLE
1002
{
1070
   171
 70
     2
1070
   143
 40
25.4
1070
   274
 70
     2
1070
    41
 40
0.18
1070
   141
 40
0.09
1070
   271
 70
     4
1070
    43
 40
0.38
1070
   278
 70
    46
1070
    44
 40
0.18
1070
    42
 40
0.0625
1070
   147
 40
0.09
1070
    77
 70
     0
1070
   272
 70
     4
1070
    73
 70
     1
1070
   172
 70
     0
1070
    74
 70
     1
1070
   283
 70
     1
1070
   340
340
11
1070
   140
 40
0.18
1070
   284
 70
     0
1070
    78
 70
     0
1002
}
  0
XRECORD
  5
26B
102
{ACAD_REACTORS
330
260
102
}
330
260
100
AcDbXrecord
  1
{03FEAECE-4F6B-4676-BA3F-42ECAE2DB8A0}
  0
XRECORD
  5
263
102
{ACAD_REACTORS
330
260
102
}
330
260
100
AcDbXrecord
  1

  0
XRECORD
  5
268
102
{ACAD_REACTORS
330
260
102
}
330
260
100
AcDbXrecord
 90
        4
  0
XRECORD
  5
265
102
{ACAD_REACTORS
330
260
102
}
330
260
100
AcDbXrecord
340
1A
  0
XRECORD
  5
267
102
{ACAD_REACTORS
330
260
102
}
330
260
100
AcDbXrecord
 90
    10781
  0
XRECORD
  5
266
102
{ACAD_REACTORS
330
260
102
}
330
260
100
AcDbXrecord
340
19
  0
XRECORD
  5
26D
102
{ACAD_REACTORS
330
260
102
}
330
260
100
AcDbXrecord
 40
0.0
  0
XRECORD
  5
270
102
{ACAD_REACTORS
330
260
102
}
330
260
100
AcDbXrecord
340
0
  0
XRECORD
  5
276
102
{ACAD_REACTORS
330
260
102
}
330
260
100
AcDbXrecord
 10
0.0
 20
0.0
 30
0.0
  0
XRECORD
  5
272
102
{ACAD_REACTORS
330
260
102
}
330
260
100
AcDbXrecord
 10
0.0
 20
0.0
 30
0.0
  0
XRECORD
  5
275
102
{ACAD_REACTORS
330
260
102
}
330
260
100
AcDbXrecord
 10
0.0
 20
0.0
 30
0.0
  0
XRECORD
  5
273
102
{ACAD_REACTORS
330
260
102
}
330
260
100
AcDbXrecord
 10
0.0
 20
0.0
 30
0.0
  0
XRECORD
  5
274
102
{ACAD_REACTORS
330
260
102
}
330
260
100
AcDbXrecord
 10
0.0
 20
0.0
 30
0.0
  0
XRECORD
  5
271
102
{ACAD_REACTORS
330
260
102
}
330
260
100
AcDbXrecord
 10
0.0
 20
0.0
 30
0.0
  0
XRECORD
  5
26E
102
{ACAD_REACTORS
330
260
102
}
330
260
100
AcDbXrecord
340
0
  0
XRECORD
  5
26F
102
{ACAD_REACTORS
330
260
102
}
330
260
100
AcDbXrecord
 70
     0
  0
XRECORD
  5
264
102
{ACAD_REACTORS
330
260
102
}
330
260
100
AcDbXrecord
  1

  0
XRECORD
  5
261
102
{ACAD_REACTORS
330
260
102
}
330
260
100
AcDbXrecord
 90
        1
  0
XRECORD
  5
262
102
{ACAD_REACTORS
330
260
102
}
330
260
100
AcDbXrecord
 90
       70
  0
XRECORD
  5
279
102
{ACAD_REACTORS
330
260
102
}
330
260
100
AcDbXrecord
340
0
  0
XRECORD
  5
27F
102
{ACAD_REACTORS
330
260
102
}
330
260
100
AcDbXrecord
 10
0.0
 20
0.0
 30
0.0
  0
XRECORD
  5
27B
102
{ACAD_REACTORS
330
260
102
}
330
260
100
AcDbXrecord
 10
0.0
 20
0.0
 30
0.0
  0
XRECORD
  5
27E
102
{ACAD_REACTORS
330
260
102
}
330
260
100
AcDbXrecord
 10
0.0
 20
0.0
 30
0.0
  0
XRECORD
  5
27C
102
{ACAD_REACTORS
330
260
102
}
330
260
100
AcDbXrecord
 10
0.0
 20
0.0
 30
0.0
  0
XRECORD
  5
27D
102
{ACAD_REACTORS
330
260
102
}
330
260
100
AcDbXrecord
 10
0.0
 20
0.0
 30
0.0
  0
XRECORD
  5
27A
102
{ACAD_REACTORS
330
260
102
}
330
260
100
AcDbXrecord
 10
0.0
 20
0.0
 30
0.0
  0
XRECORD
  5
277
102
{ACAD_REACTORS
330
260
102
}
330
260
100
AcDbXrecord
340
0
  0
XRECORD
  5
278
102
{ACAD_REACTORS
330
260
102
}
330
260
100
AcDbXrecord
 70
     0
  0
XRECORD
  5
26C
102
{ACAD_REACTORS
330
260
102
}
330
260
100
AcDbXrecord
  1
{FAEB1C32-E019-11D5-929B-00C0DF256EC4}
  0
DICTIONARYVAR
  5
28A
102
{ACAD_REACTORS
330
281
102
}
330
281
100
DictionaryVariables
280
     0
  1
1:1
  0
DICTIONARYVAR
  5
283
102
{ACAD_REACTORS
330
281
102
}
330
281
100
DictionaryVariables
280
     0
  1
Standard
  0
DICTIONARYVAR
  5
282
102
{ACAD_REACTORS
330
281
102
}
330
281
100
DictionaryVariables
280
     0
  1
Standard
  0
DICTIONARYVAR
  5
286
102
{ACAD_REACTORS
330
281
102
}
330
281
100
DictionaryVariables
280
     0
  1
2
  0
DICTIONARYVAR
  5
287
102
{ACAD_REACTORS
330
281
102
}
330
281
100
DictionaryVariables
280
     0
  1
1
  0
DICTIONARYVAR
  5
28B
102
{ACAD_REACTORS
330
281
102
}
330
281
100
DictionaryVariables
280
     0
  1
1
  0
DICTIONARY
  5
28E
330
45
100
AcDbDictionary
280
     1
  3
ACAD_XREC_ROUNDTRIP
360
28F
  0
DICTIONARY
  5
28C
330
44
100
AcDbDictionary
280
     1
  3
ACAD_XREC_ROUNDTRIP
360
28D
  0
DICTIONARY
  5
290
330
46
100
AcDbDictionary
280
     1
  3
ACAD_XREC_ROUNDTRIP
360
291
  0
XRECORD
  5
28F
102
{ACAD_REACTORS
330
28E
102
}
330
28E
100
AcDbXrecord
102
MATERIAL
148
0.0
149
0.0
149
0.0
 93
        0
 94
      127
282
     0
 72
     1
 77
     1
171
     1
175
     1
179
     1
273
     0
  0
XRECORD
  5
28D
102
{ACAD_REACTORS
330
28C
102
}
330
28C
100
AcDbXrecord
102
MATERIAL
148
0.0
149
0.0
149
0.0
 93
        0
 94
      127
282
     0
 72
     1
 77
     1
171
     1
175
     1
179
     1
273
     0
  0
XRECORD
  5
291
102
{ACAD_REACTORS
330
290
102
}
330
290
100
AcDbXrecord
102
MATERIAL
148
0.0
149
0.0
149
0.0
 93
        0
 94
      127
282
     0
 72
     1
 77
     1
171
     1
175
     1
179
     1
273
     0
  0
ENDSEC
  0
EOF
